%TF.GenerationSoftware,KiCad,Pcbnew,8.0.8+1*%
%TF.CreationDate,2025-06-17T15:49:22+00:00*%
%TF.ProjectId,frontplate,66726f6e-7470-46c6-9174-652e6b696361,0.2*%
%TF.SameCoordinates,Original*%
%TF.FileFunction,Drillmap*%
%TF.FilePolarity,Positive*%
%FSLAX45Y45*%
G04 Gerber Fmt 4.5, Leading zero omitted, Abs format (unit mm)*
G04 Created by KiCad (PCBNEW 8.0.8+1) date 2025-06-17 15:49:22*
%MOMM*%
%LPD*%
G01*
G04 APERTURE LIST*
%ADD10C,0.150000*%
%ADD11C,0.200000*%
G04 APERTURE END LIST*
D10*
X9108199Y-10874001D02*
X9108001Y-3449001D01*
X9158001Y-3399000D02*
X10958000Y-3399000D01*
X11008000Y-3349000D02*
X11008000Y-3223800D01*
X11058000Y-3173800D02*
X12758200Y-3173800D01*
X12808200Y-3223800D02*
X12808200Y-3349000D01*
X12858200Y-3399000D02*
X14758000Y-3399000D01*
X14808000Y-3349000D02*
X14808000Y-3223800D01*
X14858000Y-3173800D02*
X16558200Y-3173800D01*
X16608200Y-3223800D02*
X16608200Y-3349000D01*
X16658200Y-3399000D02*
X18458200Y-3399000D01*
X18508200Y-3449000D02*
X18508200Y-3598800D01*
X18558200Y-3648800D02*
X20358222Y-3648800D01*
X20408222Y-3698778D02*
X20408300Y-3874000D01*
X20408300Y-3874022D02*
X20408300Y-9140307D01*
X20433300Y-9183608D02*
X23076380Y-10709591D01*
X23094613Y-10778011D02*
X21553171Y-13431110D01*
X18316542Y-11620019D02*
X21484938Y-13449293D01*
X18311391Y-11617429D02*
X16717699Y-10928109D01*
X9158199Y-10924000D02*
X16697850Y-10924000D01*
X9108001Y-3449001D02*
G75*
G02*
X9158001Y-3399001I49999J1D01*
G01*
X11008000Y-3349000D02*
G75*
G02*
X10958000Y-3399000I-50000J0D01*
G01*
X11008000Y-3223800D02*
G75*
G02*
X11058000Y-3173800I50000J0D01*
G01*
X12758200Y-3173800D02*
G75*
G02*
X12808200Y-3223800I0J-50000D01*
G01*
X12858200Y-3399000D02*
G75*
G02*
X12808200Y-3349000I0J50000D01*
G01*
X14808000Y-3349000D02*
G75*
G02*
X14758000Y-3399000I-50000J0D01*
G01*
X14808000Y-3223800D02*
G75*
G02*
X14858000Y-3173800I50000J0D01*
G01*
X16558200Y-3173800D02*
G75*
G02*
X16608200Y-3223800I0J-50000D01*
G01*
X16658200Y-3399000D02*
G75*
G02*
X16608200Y-3349000I0J50000D01*
G01*
X18458200Y-3399000D02*
G75*
G02*
X18508200Y-3449000I0J-50000D01*
G01*
X18558200Y-3648800D02*
G75*
G02*
X18508200Y-3598800I0J50000D01*
G01*
X20358222Y-3648800D02*
G75*
G02*
X20408220Y-3698778I-2J-50000D01*
G01*
X20408300Y-3874022D02*
G75*
G02*
X20408300Y-3874000I-235156655J11D01*
G01*
X20433300Y-9183608D02*
G75*
G02*
X20408303Y-9140307I25000J43298D01*
G01*
X23076380Y-10709591D02*
G75*
G02*
X23094610Y-10778009I-25000J-43299D01*
G01*
X21553171Y-13431110D02*
G75*
G02*
X21484940Y-13449290I-43231J25120D01*
G01*
X18311391Y-11617429D02*
G75*
G02*
X18316542Y-11620019I-19851J-45891D01*
G01*
X16697850Y-10924000D02*
G75*
G02*
X16717699Y-10928109I0J-50000D01*
G01*
X9158199Y-10924000D02*
G75*
G02*
X9108200Y-10874001I1J50000D01*
G01*
X9300000Y-10700000D02*
X10700000Y-10700000D01*
X10700000Y-10700000D02*
X10700000Y-9300000D01*
X10700000Y-9300000D02*
X9300000Y-9300000D01*
X9300000Y-9300000D02*
X9300000Y-10700000D01*
X9300000Y-8800000D02*
X10700000Y-8800000D01*
X10700000Y-8800000D02*
X10700000Y-7400000D01*
X10700000Y-7400000D02*
X9300000Y-7400000D01*
X9300000Y-7400000D02*
X9300000Y-8800000D01*
X9300000Y-6900000D02*
X10700000Y-6900000D01*
X10700000Y-6900000D02*
X10700000Y-5500000D01*
X10700000Y-5500000D02*
X9300000Y-5500000D01*
X9300000Y-5500000D02*
X9300000Y-6900000D01*
X9300000Y-5000000D02*
X10700000Y-5000000D01*
X10700000Y-5000000D02*
X10700000Y-3600000D01*
X10700000Y-3600000D02*
X9300000Y-3600000D01*
X9300000Y-3600000D02*
X9300000Y-5000000D01*
X11200000Y-10462500D02*
X12600000Y-10462500D01*
X12600000Y-10462500D02*
X12600000Y-9062500D01*
X12600000Y-9062500D02*
X11200000Y-9062500D01*
X11200000Y-9062500D02*
X11200000Y-10462500D01*
X11200000Y-8562500D02*
X12600000Y-8562500D01*
X12600000Y-8562500D02*
X12600000Y-7162500D01*
X12600000Y-7162500D02*
X11200000Y-7162500D01*
X11200000Y-7162500D02*
X11200000Y-8562500D01*
X11200000Y-6662500D02*
X12600000Y-6662500D01*
X12600000Y-6662500D02*
X12600000Y-5262500D01*
X12600000Y-5262500D02*
X11200000Y-5262500D01*
X11200000Y-5262500D02*
X11200000Y-6662500D01*
X11200000Y-4762500D02*
X12600000Y-4762500D01*
X12600000Y-4762500D02*
X12600000Y-3362500D01*
X12600000Y-3362500D02*
X11200000Y-3362500D01*
X11200000Y-3362500D02*
X11200000Y-4762500D01*
X13100000Y-10700000D02*
X14500000Y-10700000D01*
X14500000Y-10700000D02*
X14500000Y-9300000D01*
X14500000Y-9300000D02*
X13100000Y-9300000D01*
X13100000Y-9300000D02*
X13100000Y-10700000D01*
X13100000Y-8800000D02*
X14500000Y-8800000D01*
X14500000Y-8800000D02*
X14500000Y-7400000D01*
X14500000Y-7400000D02*
X13100000Y-7400000D01*
X13100000Y-7400000D02*
X13100000Y-8800000D01*
X13100000Y-6900000D02*
X14500000Y-6900000D01*
X14500000Y-6900000D02*
X14500000Y-5500000D01*
X14500000Y-5500000D02*
X13100000Y-5500000D01*
X13100000Y-5500000D02*
X13100000Y-6900000D01*
X13100000Y-5000000D02*
X14500000Y-5000000D01*
X14500000Y-5000000D02*
X14500000Y-3600000D01*
X14500000Y-3600000D02*
X13100000Y-3600000D01*
X13100000Y-3600000D02*
X13100000Y-5000000D01*
X15000000Y-10462500D02*
X16400000Y-10462500D01*
X16400000Y-10462500D02*
X16400000Y-9062500D01*
X16400000Y-9062500D02*
X15000000Y-9062500D01*
X15000000Y-9062500D02*
X15000000Y-10462500D01*
X15000000Y-8562500D02*
X16400000Y-8562500D01*
X16400000Y-8562500D02*
X16400000Y-7162500D01*
X16400000Y-7162500D02*
X15000000Y-7162500D01*
X15000000Y-7162500D02*
X15000000Y-8562500D01*
X15000000Y-6662500D02*
X16400000Y-6662500D01*
X16400000Y-6662500D02*
X16400000Y-5262500D01*
X16400000Y-5262500D02*
X15000000Y-5262500D01*
X15000000Y-5262500D02*
X15000000Y-6662500D01*
X15000000Y-4762500D02*
X16400000Y-4762500D01*
X16400000Y-4762500D02*
X16400000Y-3362500D01*
X16400000Y-3362500D02*
X15000000Y-3362500D01*
X15000000Y-3362500D02*
X15000000Y-4762500D01*
X16900000Y-10700000D02*
X18300000Y-10700000D01*
X18300000Y-10700000D02*
X18300000Y-9300000D01*
X18300000Y-9300000D02*
X16900000Y-9300000D01*
X16900000Y-9300000D02*
X16900000Y-10700000D01*
X16900000Y-8800000D02*
X18300000Y-8800000D01*
X18300000Y-8800000D02*
X18300000Y-7400000D01*
X18300000Y-7400000D02*
X16900000Y-7400000D01*
X16900000Y-7400000D02*
X16900000Y-8800000D01*
X16900000Y-6900000D02*
X18300000Y-6900000D01*
X18300000Y-6900000D02*
X18300000Y-5500000D01*
X18300000Y-5500000D02*
X16900000Y-5500000D01*
X16900000Y-5500000D02*
X16900000Y-6900000D01*
X16900000Y-5000000D02*
X18300000Y-5000000D01*
X18300000Y-5000000D02*
X18300000Y-3600000D01*
X18300000Y-3600000D02*
X16900000Y-3600000D01*
X16900000Y-3600000D02*
X16900000Y-5000000D01*
X18800000Y-9037500D02*
X20200000Y-9037500D01*
X20200000Y-9037500D02*
X20200000Y-7637500D01*
X20200000Y-7637500D02*
X18800000Y-7637500D01*
X18800000Y-7637500D02*
X18800000Y-9037500D01*
X18800000Y-7137500D02*
X20200000Y-7137500D01*
X20200000Y-7137500D02*
X20200000Y-5737500D01*
X20200000Y-5737500D02*
X18800000Y-5737500D01*
X18800000Y-5737500D02*
X18800000Y-7137500D01*
X18800000Y-5237500D02*
X20200000Y-5237500D01*
X20200000Y-5237500D02*
X20200000Y-3837500D01*
X20200000Y-3837500D02*
X18800000Y-3837500D01*
X18800000Y-3837500D02*
X18800000Y-5237500D01*
X20041218Y-11830218D02*
X20741218Y-10617782D01*
X20741218Y-10617782D02*
X19528782Y-9917782D01*
X19528782Y-9917782D02*
X18828782Y-11130218D01*
X18828782Y-11130218D02*
X20041218Y-11830218D01*
X21686666Y-12780218D02*
X22386666Y-11567782D01*
X22386666Y-11567782D02*
X21174231Y-10867782D01*
X21174231Y-10867782D02*
X20474231Y-12080218D01*
X20474231Y-12080218D02*
X21686666Y-12780218D01*
X11060000Y-5012500D02*
G75*
G02*
X10840000Y-5012500I-110000J0D01*
G01*
X10840000Y-5012500D02*
G75*
G02*
X11060000Y-5012500I110000J0D01*
G01*
X11060000Y-8812500D02*
G75*
G02*
X10840000Y-8812500I-110000J0D01*
G01*
X10840000Y-8812500D02*
G75*
G02*
X11060000Y-8812500I110000J0D01*
G01*
X18656800Y-5373600D02*
G75*
G02*
X18436800Y-5373600I-110000J0D01*
G01*
X18436800Y-5373600D02*
G75*
G02*
X18656800Y-5373600I110000J0D01*
G01*
X14860000Y-6912500D02*
G75*
G02*
X14640000Y-6912500I-110000J0D01*
G01*
X14640000Y-6912500D02*
G75*
G02*
X14860000Y-6912500I110000J0D01*
G01*
X16756800Y-8926100D02*
G75*
G02*
X16536800Y-8926100I-110000J0D01*
G01*
X16536800Y-8926100D02*
G75*
G02*
X16756800Y-8926100I110000J0D01*
G01*
X21192724Y-10526276D02*
G75*
G02*
X20972724Y-10526276I-110000J0D01*
G01*
X20972724Y-10526276D02*
G75*
G02*
X21192724Y-10526276I110000J0D01*
G01*
X20242724Y-12171724D02*
G75*
G02*
X20022724Y-12171724I-110000J0D01*
G01*
X20022724Y-12171724D02*
G75*
G02*
X20242724Y-12171724I110000J0D01*
G01*
D11*
X253287Y-13774973D02*
X253287Y-13574973D01*
X253287Y-13574973D02*
X300906Y-13574973D01*
X300906Y-13574973D02*
X329478Y-13584497D01*
X329478Y-13584497D02*
X348525Y-13603545D01*
X348525Y-13603545D02*
X358049Y-13622592D01*
X358049Y-13622592D02*
X367573Y-13660687D01*
X367573Y-13660687D02*
X367573Y-13689259D01*
X367573Y-13689259D02*
X358049Y-13727354D01*
X358049Y-13727354D02*
X348525Y-13746402D01*
X348525Y-13746402D02*
X329478Y-13765449D01*
X329478Y-13765449D02*
X300906Y-13774973D01*
X300906Y-13774973D02*
X253287Y-13774973D01*
X453287Y-13774973D02*
X453287Y-13641640D01*
X453287Y-13679735D02*
X462811Y-13660687D01*
X462811Y-13660687D02*
X472335Y-13651164D01*
X472335Y-13651164D02*
X491382Y-13641640D01*
X491382Y-13641640D02*
X510430Y-13641640D01*
X577097Y-13774973D02*
X577097Y-13641640D01*
X577097Y-13574973D02*
X567573Y-13584497D01*
X567573Y-13584497D02*
X577097Y-13594021D01*
X577097Y-13594021D02*
X586620Y-13584497D01*
X586620Y-13584497D02*
X577097Y-13574973D01*
X577097Y-13574973D02*
X577097Y-13594021D01*
X700906Y-13774973D02*
X681858Y-13765449D01*
X681858Y-13765449D02*
X672335Y-13746402D01*
X672335Y-13746402D02*
X672335Y-13574973D01*
X805668Y-13774973D02*
X786620Y-13765449D01*
X786620Y-13765449D02*
X777096Y-13746402D01*
X777096Y-13746402D02*
X777096Y-13574973D01*
X1034239Y-13774973D02*
X1034239Y-13574973D01*
X1034239Y-13574973D02*
X1100906Y-13717830D01*
X1100906Y-13717830D02*
X1167573Y-13574973D01*
X1167573Y-13574973D02*
X1167573Y-13774973D01*
X1348525Y-13774973D02*
X1348525Y-13670211D01*
X1348525Y-13670211D02*
X1339001Y-13651164D01*
X1339001Y-13651164D02*
X1319954Y-13641640D01*
X1319954Y-13641640D02*
X1281858Y-13641640D01*
X1281858Y-13641640D02*
X1262811Y-13651164D01*
X1348525Y-13765449D02*
X1329478Y-13774973D01*
X1329478Y-13774973D02*
X1281858Y-13774973D01*
X1281858Y-13774973D02*
X1262811Y-13765449D01*
X1262811Y-13765449D02*
X1253287Y-13746402D01*
X1253287Y-13746402D02*
X1253287Y-13727354D01*
X1253287Y-13727354D02*
X1262811Y-13708307D01*
X1262811Y-13708307D02*
X1281858Y-13698783D01*
X1281858Y-13698783D02*
X1329478Y-13698783D01*
X1329478Y-13698783D02*
X1348525Y-13689259D01*
X1443763Y-13641640D02*
X1443763Y-13841640D01*
X1443763Y-13651164D02*
X1462811Y-13641640D01*
X1462811Y-13641640D02*
X1500906Y-13641640D01*
X1500906Y-13641640D02*
X1519954Y-13651164D01*
X1519954Y-13651164D02*
X1529477Y-13660687D01*
X1529477Y-13660687D02*
X1539001Y-13679735D01*
X1539001Y-13679735D02*
X1539001Y-13736878D01*
X1539001Y-13736878D02*
X1529477Y-13755926D01*
X1529477Y-13755926D02*
X1519954Y-13765449D01*
X1519954Y-13765449D02*
X1500906Y-13774973D01*
X1500906Y-13774973D02*
X1462811Y-13774973D01*
X1462811Y-13774973D02*
X1443763Y-13765449D01*
X1624716Y-13755926D02*
X1634239Y-13765449D01*
X1634239Y-13765449D02*
X1624716Y-13774973D01*
X1624716Y-13774973D02*
X1615192Y-13765449D01*
X1615192Y-13765449D02*
X1624716Y-13755926D01*
X1624716Y-13755926D02*
X1624716Y-13774973D01*
X1624716Y-13651164D02*
X1634239Y-13660687D01*
X1634239Y-13660687D02*
X1624716Y-13670211D01*
X1624716Y-13670211D02*
X1615192Y-13660687D01*
X1615192Y-13660687D02*
X1624716Y-13651164D01*
X1624716Y-13651164D02*
X1624716Y-13670211D01*
M02*
