0
SECTION
2
HEADER
9
$INSUNITS
70
4
0
ENDSEC
0
SECTION
2
TABLES
0
TABLE
2
LTYPE
0
LTYPE
72
65
70
64
2
CONTINUOUS
3
______
73
0
40
0
0
ENDTAB
0
TABLE
2
LAYER
0
ENDTAB
0
ENDSEC
0
SECTION
2
ENTITIES
0
LINE
8
0
10
91.0819867
20
-108.7400133
11
91.0800133
21
-34.4900133
0
LINE
8
0
10
91.5800133
20
-33.99
11
109.58
21
-33.99
0
LINE
8
0
10
110.08
20
-33.49
11
110.08
21
-32.238
0
LINE
8
0
10
110.58
20
-31.738
11
127.582
21
-31.738
0
LINE
8
0
10
128.082
20
-32.238
11
128.082
21
-33.49
0
LINE
8
0
10
128.582
20
-33.99
11
147.58
21
-33.99
0
LINE
8
0
10
148.08
20
-33.49
11
148.08
21
-32.238
0
LINE
8
0
10
148.58
20
-31.738
11
165.582
21
-31.738
0
LINE
8
0
10
166.082
20
-32.238
11
166.082
21
-33.49
0
LINE
8
0
10
166.582
20
-33.99
11
184.582
21
-33.99
0
LINE
8
0
10
185.082
20
-34.49
11
185.082
21
-35.988
0
LINE
8
0
10
185.582
20
-36.488
11
203.5822219
21
-36.488
0
LINE
8
0
10
204.0822219
20
-36.987778
11
204.0827781
21
-38.240222
0
LINE
8
0
10
231.198
20
-107.346596
11
215.5317123
21
-134.311099
0
LINE
8
0
10
183.1654208
20
-116.2001857
11
214.8493838
21
-134.4929303
0
LINE
8
0
10
183.1139142
20
-116.1742862
11
167.176994
21
-109.2810878
0
LINE
8
0
10
91.5819867
20
-109.24
11
166.9785007
21
-109.24
0
LINE
8
0
10
204.5827781
20
-38.74
11
231.013
21
-38.74
0
LINE
8
0
10
231.513
20
-39.24
11
231.513
21
-106.6670254
0
LINE
8
0
10
231.4460127
20
-106.9170254
11
231.198
21
-107.346596
0
ARC
8
0
10
91.5800133
20
-34.49
40
0.5
50
90
51
180.001524
0
ARC
8
0
10
109.58
20
-33.49
40
0.5
50
270
51
0
0
ARC
8
0
10
110.58
20
-32.238
40
0.5
50
90
51
180
0
ARC
8
0
10
127.582
20
-32.238
40
0.5
50
0
51
90
0
ARC
8
0
10
128.582
20
-33.49
40
0.5
50
180
51
270
0
ARC
8
0
10
147.58
20
-33.49
40
0.5
50
270
51
0
0
ARC
8
0
10
148.58
20
-32.238
40
0.5
50
90
51
180
0
ARC
8
0
10
165.582
20
-32.238
40
0.5
50
0
51
90
0
ARC
8
0
10
166.582
20
-33.49
40
0.5
50
180
51
270
0
ARC
8
0
10
184.582
20
-34.49
40
0.5
50
0
51
90
0
ARC
8
0
10
185.582
20
-35.988
40
0.5
50
180
51
270
0
ARC
8
0
10
203.5822219
20
-36.988
40
0.5
50
0.0254393
51
90
0
ARC
8
0
10
204.5827781
20
-38.24
40
0.5
50
180.0254393
51
270
0
ARC
8
0
10
231.013
20
-39.24
40
0.5
50
0
51
90
0
ARC
8
0
10
231.013
20
-106.6670254
40
0.5
50
329.9999999
51
0
0
ARC
8
0
10
215.0993838
20
-134.0599176
40
0.5
50
239.9999999
51
329.8435539
0
ARC
8
0
10
182.9154208
20
-116.6331984
40
0.5
50
59.9999999
51
66.6100637
0
ARC
8
0
10
166.9785007
20
-109.74
40
0.5
50
66.6100637
51
90
0
ARC
8
0
10
91.5819867
20
-108.74
40
0.5
50
180.0015241
51
270
0
CIRCLE
8
0
10
109.5
20
-50.125
40
1.1
0
CIRCLE
8
0
10
109.5
20
-88.125
40
1.1
0
CIRCLE
8
0
10
185.468
20
-53.736
40
1.1
0
CIRCLE
8
0
10
147.5
20
-69.125
40
1.1
0
CIRCLE
8
0
10
166.468
20
-89.261
40
1.1
0
CIRCLE
8
0
10
210.8272413
20
-105.2627587
40
1.1
0
CIRCLE
8
0
10
201.3272413
20
-121.7172413
40
1.1
0
ENDSEC
0
EOF