<svg width="26.4mm" height="67.695mm" viewBox="0 0 26.4 67.695" xmlns="http://www.w3.org/2000/svg"><g id="svgGroup" stroke-linecap="round" fill-rule="evenodd" font-size="9pt" stroke="#000" stroke-width="0.25mm" fill="none" style="stroke:#000;stroke-width:0.25mm;fill:none"><path d="M 0 52.53 L 0 0.5 A 0.5 0.5 0 0 1 0.5 0 L 25.9 0 A 0.5 0.5 0 0 1 26.4 0.5 L 26.4 67.195 A 0.5 0.5 0 0 1 25.65 67.628 L 0.25 52.963 A 0.5 0.5 0 0 1 0 52.53 Z M 2.649 50.486 m -1.1 0 a 1.1 1.1 0 0 1 2.2 0 a 1.1 1.1 0 0 1 -2.2 0 z M 23.581 62.505 m -1.1 0 a 1.1 1.1 0 0 1 2.2 0 a 1.1 1.1 0 0 1 -2.2 0 z" vector-effect="non-scaling-stroke"/></g></svg>