0
SECTION
2
HEADER
9
$INSUNITS
70
4
0
ENDSEC
0
SECTION
2
TABLES
0
TABLE
2
LTYPE
0
LTYPE
72
65
70
64
2
CONTINUOUS
3
______
73
0
40
0
0
ENDTAB
0
TABLE
2
LAYER
0
ENDTAB
0
ENDSEC
0
SECTION
2
ENTITIES
0
LINE
8
0
10
91.0819867
20
-108.7400133
11
91.0800133
21
-34.4900133
0
LINE
8
0
10
91.5800133
20
-33.99
11
109.58
21
-33.99
0
LINE
8
0
10
110.08
20
-33.49
11
110.08
21
-32.238
0
LINE
8
0
10
110.58
20
-31.738
11
127.582
21
-31.738
0
LINE
8
0
10
128.082
20
-32.238
11
128.082
21
-33.49
0
LINE
8
0
10
128.582
20
-33.99
11
147.58
21
-33.99
0
LINE
8
0
10
148.08
20
-33.49
11
148.08
21
-32.238
0
LINE
8
0
10
148.58
20
-31.738
11
165.582
21
-31.738
0
LINE
8
0
10
166.082
20
-32.238
11
166.082
21
-33.49
0
LINE
8
0
10
166.582
20
-33.99
11
184.582
21
-33.99
0
LINE
8
0
10
185.082
20
-34.49
11
185.082
21
-35.988
0
LINE
8
0
10
185.582
20
-36.488
11
203.5822219
21
-36.488
0
LINE
8
0
10
204.0822219
20
-36.987778
11
204.083
21
-38.74
0
LINE
8
0
10
204.083
20
-38.740222
11
204.083
21
-91.4030683
0
LINE
8
0
10
204.333
20
-91.836081
11
230.7638033
21
-107.0959124
0
LINE
8
0
10
230.9461318
20
-107.7801065
11
215.5317123
21
-134.311099
0
LINE
8
0
10
183.1654208
20
-116.2001857
11
214.8493838
21
-134.4929303
0
LINE
8
0
10
183.1139142
20
-116.1742862
11
167.176994
21
-109.2810878
0
LINE
8
0
10
91.5819867
20
-109.24
11
166.9785007
21
-109.24
0
ARC
8
0
10
91.5800133
20
-34.49
40
0.5
50
90
51
180.001524
0
ARC
8
0
10
109.58
20
-33.49
40
0.5
50
270
51
0
0
ARC
8
0
10
110.58
20
-32.238
40
0.5
50
90
51
180
0
ARC
8
0
10
127.582
20
-32.238
40
0.5
50
0
51
90
0
ARC
8
0
10
128.582
20
-33.49
40
0.5
50
180
51
270
0
ARC
8
0
10
147.58
20
-33.49
40
0.5
50
270
51
0
0
ARC
8
0
10
148.58
20
-32.238
40
0.5
50
90
51
180
0
ARC
8
0
10
165.582
20
-32.238
40
0.5
50
0
51
90
0
ARC
8
0
10
166.582
20
-33.49
40
0.5
50
180
51
270
0
ARC
8
0
10
184.582
20
-34.49
40
0.5
50
0
51
90
0
ARC
8
0
10
185.582
20
-35.988
40
0.5
50
180
51
270
0
ARC
8
0
10
203.5822219
20
-36.988
40
0.5
50
0.0254393
51
90
0
ARC
8
0
10
203.583
20
-38.740222
40
0.5
50
0
51
0.0254393
0
ARC
8
0
10
204.583
20
-91.4030683
40
0.5
50
180
51
239.9999999
0
ARC
8
0
10
230.5138033
20
-107.5289251
40
0.5
50
329.8435539
51
59.9999999
0
ARC
8
0
10
215.0993838
20
-134.0599176
40
0.5
50
239.9999999
51
329.8435539
0
ARC
8
0
10
182.9154208
20
-116.6331984
40
0.5
50
59.9999999
51
66.6100637
0
ARC
8
0
10
166.9785007
20
-109.74
40
0.5
50
66.6100637
51
90
0
ARC
8
0
10
91.5819867
20
-108.74
40
0.5
50
180.0015241
51
270
0
LINE
8
0
10
93
20
-107
11
107
21
-107
0
LINE
8
0
10
107
20
-107
11
107
21
-93
0
LINE
8
0
10
107
20
-93
11
93
21
-93
0
LINE
8
0
10
93
20
-93
11
93
21
-107
0
LINE
8
0
10
93
20
-88
11
107
21
-88
0
LINE
8
0
10
107
20
-88
11
107
21
-74
0
LINE
8
0
10
107
20
-74
11
93
21
-74
0
LINE
8
0
10
93
20
-74
11
93
21
-88
0
LINE
8
0
10
93
20
-69
11
107
21
-69
0
LINE
8
0
10
107
20
-69
11
107
21
-55
0
LINE
8
0
10
107
20
-55
11
93
21
-55
0
LINE
8
0
10
93
20
-55
11
93
21
-69
0
LINE
8
0
10
93
20
-50
11
107
21
-50
0
LINE
8
0
10
107
20
-50
11
107
21
-36
0
LINE
8
0
10
107
20
-36
11
93
21
-36
0
LINE
8
0
10
93
20
-36
11
93
21
-50
0
LINE
8
0
10
112
20
-104.625
11
126
21
-104.625
0
LINE
8
0
10
126
20
-104.625
11
126
21
-90.625
0
LINE
8
0
10
126
20
-90.625
11
112
21
-90.625
0
LINE
8
0
10
112
20
-90.625
11
112
21
-104.625
0
LINE
8
0
10
112
20
-85.625
11
126
21
-85.625
0
LINE
8
0
10
126
20
-85.625
11
126
21
-71.625
0
LINE
8
0
10
126
20
-71.625
11
112
21
-71.625
0
LINE
8
0
10
112
20
-71.625
11
112
21
-85.625
0
LINE
8
0
10
112
20
-66.625
11
126
21
-66.625
0
LINE
8
0
10
126
20
-66.625
11
126
21
-52.625
0
LINE
8
0
10
126
20
-52.625
11
112
21
-52.625
0
LINE
8
0
10
112
20
-52.625
11
112
21
-66.625
0
LINE
8
0
10
112
20
-47.625
11
126
21
-47.625
0
LINE
8
0
10
126
20
-47.625
11
126
21
-33.625
0
LINE
8
0
10
126
20
-33.625
11
112
21
-33.625
0
LINE
8
0
10
112
20
-33.625
11
112
21
-47.625
0
LINE
8
0
10
131
20
-107
11
145
21
-107
0
LINE
8
0
10
145
20
-107
11
145
21
-93
0
LINE
8
0
10
145
20
-93
11
131
21
-93
0
LINE
8
0
10
131
20
-93
11
131
21
-107
0
LINE
8
0
10
131
20
-88
11
145
21
-88
0
LINE
8
0
10
145
20
-88
11
145
21
-74
0
LINE
8
0
10
145
20
-74
11
131
21
-74
0
LINE
8
0
10
131
20
-74
11
131
21
-88
0
LINE
8
0
10
131
20
-69
11
145
21
-69
0
LINE
8
0
10
145
20
-69
11
145
21
-55
0
LINE
8
0
10
145
20
-55
11
131
21
-55
0
LINE
8
0
10
131
20
-55
11
131
21
-69
0
LINE
8
0
10
131
20
-50
11
145
21
-50
0
LINE
8
0
10
145
20
-50
11
145
21
-36
0
LINE
8
0
10
145
20
-36
11
131
21
-36
0
LINE
8
0
10
131
20
-36
11
131
21
-50
0
LINE
8
0
10
150
20
-104.625
11
164
21
-104.625
0
LINE
8
0
10
164
20
-104.625
11
164
21
-90.625
0
LINE
8
0
10
164
20
-90.625
11
150
21
-90.625
0
LINE
8
0
10
150
20
-90.625
11
150
21
-104.625
0
LINE
8
0
10
150
20
-85.625
11
164
21
-85.625
0
LINE
8
0
10
164
20
-85.625
11
164
21
-71.625
0
LINE
8
0
10
164
20
-71.625
11
150
21
-71.625
0
LINE
8
0
10
150
20
-71.625
11
150
21
-85.625
0
LINE
8
0
10
150
20
-66.625
11
164
21
-66.625
0
LINE
8
0
10
164
20
-66.625
11
164
21
-52.625
0
LINE
8
0
10
164
20
-52.625
11
150
21
-52.625
0
LINE
8
0
10
150
20
-52.625
11
150
21
-66.625
0
LINE
8
0
10
150
20
-47.625
11
164
21
-47.625
0
LINE
8
0
10
164
20
-47.625
11
164
21
-33.625
0
LINE
8
0
10
164
20
-33.625
11
150
21
-33.625
0
LINE
8
0
10
150
20
-33.625
11
150
21
-47.625
0
LINE
8
0
10
169
20
-107
11
183
21
-107
0
LINE
8
0
10
183
20
-107
11
183
21
-93
0
LINE
8
0
10
183
20
-93
11
169
21
-93
0
LINE
8
0
10
169
20
-93
11
169
21
-107
0
LINE
8
0
10
169
20
-88
11
183
21
-88
0
LINE
8
0
10
183
20
-88
11
183
21
-74
0
LINE
8
0
10
183
20
-74
11
169
21
-74
0
LINE
8
0
10
169
20
-74
11
169
21
-88
0
LINE
8
0
10
169
20
-69
11
183
21
-69
0
LINE
8
0
10
183
20
-69
11
183
21
-55
0
LINE
8
0
10
183
20
-55
11
169
21
-55
0
LINE
8
0
10
169
20
-55
11
169
21
-69
0
LINE
8
0
10
169
20
-50
11
183
21
-50
0
LINE
8
0
10
183
20
-50
11
183
21
-36
0
LINE
8
0
10
183
20
-36
11
169
21
-36
0
LINE
8
0
10
169
20
-36
11
169
21
-50
0
LINE
8
0
10
188
20
-90.375
11
202
21
-90.375
0
LINE
8
0
10
202
20
-90.375
11
202
21
-76.375
0
LINE
8
0
10
202
20
-76.375
11
188
21
-76.375
0
LINE
8
0
10
188
20
-76.375
11
188
21
-90.375
0
LINE
8
0
10
188
20
-71.375
11
202
21
-71.375
0
LINE
8
0
10
202
20
-71.375
11
202
21
-57.375
0
LINE
8
0
10
202
20
-57.375
11
188
21
-57.375
0
LINE
8
0
10
188
20
-57.375
11
188
21
-71.375
0
LINE
8
0
10
188
20
-52.375
11
202
21
-52.375
0
LINE
8
0
10
202
20
-52.375
11
202
21
-38.375
0
LINE
8
0
10
202
20
-38.375
11
188
21
-38.375
0
LINE
8
0
10
188
20
-38.375
11
188
21
-52.375
0
LINE
8
0
10
200.4121778
20
-118.3021778
11
207.4121778
21
-106.1778222
0
LINE
8
0
10
207.4121778
20
-106.1778222
11
195.2878222
21
-99.1778222
0
LINE
8
0
10
195.2878222
20
-99.1778222
11
188.2878222
21
-111.3021778
0
LINE
8
0
10
188.2878222
20
-111.3021778
11
200.4121778
21
-118.3021778
0
LINE
8
0
10
216.8666605
20
-127.8021778
11
223.8666605
21
-115.6778222
0
LINE
8
0
10
223.8666605
20
-115.6778222
11
211.7423049
21
-108.6778222
0
LINE
8
0
10
211.7423049
20
-108.6778222
11
204.7423049
21
-120.8021778
0
LINE
8
0
10
204.7423049
20
-120.8021778
11
216.8666605
21
-127.8021778
0
CIRCLE
8
0
10
109.5
20
-50.125
40
1.1
0
CIRCLE
8
0
10
109.5
20
-88.125
40
1.1
0
CIRCLE
8
0
10
185.468
20
-53.736
40
1.1
0
CIRCLE
8
0
10
147.5
20
-69.125
40
1.1
0
CIRCLE
8
0
10
166.468
20
-89.261
40
1.1
0
CIRCLE
8
0
10
210.8272413
20
-105.2627587
40
1.1
0
CIRCLE
8
0
10
201.3272413
20
-121.7172413
40
1.1
0
ENDSEC
0
EOF