<svg width="139.934mm" height="102.822mm" viewBox="0 0 139.934 102.822" xmlns="http://www.w3.org/2000/svg"><g id="svgGroup" stroke-linecap="round" fill-rule="evenodd" font-size="9pt" stroke="#000" stroke-width="0.25mm" fill="none" style="stroke:#000;stroke-width:0.25mm;fill:none"><path d="M 0.002 77.002 L 0 2.752 A 0.5 0.5 0 0 1 0.5 2.252 L 18.5 2.252 A 0.5 0.5 0 0 0 19 1.752 L 19 0.5 A 0.5 0.5 0 0 1 19.5 0 L 36.502 0 A 0.5 0.5 0 0 1 37.002 0.5 L 37.002 1.752 A 0.5 0.5 0 0 0 37.502 2.252 L 56.5 2.252 A 0.5 0.5 0 0 0 57 1.752 L 57 0.5 A 0.5 0.5 0 0 1 57.5 0 L 74.502 0 A 0.5 0.5 0 0 1 75.002 0.5 L 75.002 1.752 A 0.5 0.5 0 0 0 75.502 2.252 L 93.502 2.252 A 0.5 0.5 0 0 1 94.002 2.752 L 94.002 4.25 A 0.5 0.5 0 0 0 94.502 4.75 L 112.502 4.75 A 0.5 0.5 0 0 1 113.002 5.25 L 113.003 7.002 L 113.003 59.665 A 0.5 0.5 0 0 0 113.253 60.098 L 139.684 75.358 A 0.5 0.5 0 0 1 139.866 76.042 L 124.452 102.573 A 0.5 0.5 0 0 1 123.769 102.755 L 92.085 84.462 A 0.5 0.5 0 0 0 92.034 84.436 L 76.097 77.543 A 0.5 0.5 0 0 0 75.898 77.502 L 0.502 77.502 A 0.5 0.5 0 0 1 0.002 77.002 Z M 1.92 75.262 L 15.92 75.262 L 15.92 61.262 L 1.92 61.262 L 1.92 75.262 Z M 1.92 56.262 L 15.92 56.262 L 15.92 42.262 L 1.92 42.262 L 1.92 56.262 Z M 1.92 37.262 L 15.92 37.262 L 15.92 23.262 L 1.92 23.262 L 1.92 37.262 Z M 1.92 18.262 L 15.92 18.262 L 15.92 4.262 L 1.92 4.262 L 1.92 18.262 Z M 20.92 72.887 L 34.92 72.887 L 34.92 58.887 L 20.92 58.887 L 20.92 72.887 Z M 20.92 53.887 L 34.92 53.887 L 34.92 39.887 L 20.92 39.887 L 20.92 53.887 Z M 20.92 34.887 L 34.92 34.887 L 34.92 20.887 L 20.92 20.887 L 20.92 34.887 Z M 20.92 15.887 L 34.92 15.887 L 34.92 1.887 L 20.92 1.887 L 20.92 15.887 Z M 39.92 75.262 L 53.92 75.262 L 53.92 61.262 L 39.92 61.262 L 39.92 75.262 Z M 39.92 56.262 L 53.92 56.262 L 53.92 42.262 L 39.92 42.262 L 39.92 56.262 Z M 39.92 37.262 L 53.92 37.262 L 53.92 23.262 L 39.92 23.262 L 39.92 37.262 Z M 39.92 18.262 L 53.92 18.262 L 53.92 4.262 L 39.92 4.262 L 39.92 18.262 Z M 58.92 72.887 L 72.92 72.887 L 72.92 58.887 L 58.92 58.887 L 58.92 72.887 Z M 58.92 53.887 L 72.92 53.887 L 72.92 39.887 L 58.92 39.887 L 58.92 53.887 Z M 58.92 34.887 L 72.92 34.887 L 72.92 20.887 L 58.92 20.887 L 58.92 34.887 Z M 58.92 15.887 L 72.92 15.887 L 72.92 1.887 L 58.92 1.887 L 58.92 15.887 Z M 77.92 75.262 L 91.92 75.262 L 91.92 61.262 L 77.92 61.262 L 77.92 75.262 Z M 77.92 56.262 L 91.92 56.262 L 91.92 42.262 L 77.92 42.262 L 77.92 56.262 Z M 77.92 37.262 L 91.92 37.262 L 91.92 23.262 L 77.92 23.262 L 77.92 37.262 Z M 77.92 18.262 L 91.92 18.262 L 91.92 4.262 L 77.92 4.262 L 77.92 18.262 Z M 96.92 58.637 L 110.92 58.637 L 110.92 44.637 L 96.92 44.637 L 96.92 58.637 Z M 96.92 39.637 L 110.92 39.637 L 110.92 25.637 L 96.92 25.637 L 96.92 39.637 Z M 96.92 20.637 L 110.92 20.637 L 110.92 6.637 L 96.92 6.637 L 96.92 20.637 Z M 109.332 86.564 L 116.332 74.44 L 104.208 67.44 L 97.208 79.564 L 109.332 86.564 Z M 125.787 96.064 L 132.787 83.94 L 120.662 76.94 L 113.662 89.064 L 125.787 96.064 Z M 18.42 18.387 m -1.1 0 a 1.1 1.1 0 0 1 2.2 0 a 1.1 1.1 0 0 1 -2.2 0 z M 18.42 56.387 m -1.1 0 a 1.1 1.1 0 0 1 2.2 0 a 1.1 1.1 0 0 1 -2.2 0 z M 94.388 21.998 m -1.1 0 a 1.1 1.1 0 0 1 2.2 0 a 1.1 1.1 0 0 1 -2.2 0 z M 56.42 37.387 m -1.1 0 a 1.1 1.1 0 0 1 2.2 0 a 1.1 1.1 0 0 1 -2.2 0 z M 75.388 57.523 m -1.1 0 a 1.1 1.1 0 0 1 2.2 0 a 1.1 1.1 0 0 1 -2.2 0 z M 119.747 73.525 m -1.1 0 a 1.1 1.1 0 0 1 2.2 0 a 1.1 1.1 0 0 1 -2.2 0 z M 110.247 89.979 m -1.1 0 a 1.1 1.1 0 0 1 2.2 0 a 1.1 1.1 0 0 1 -2.2 0 z" vector-effect="non-scaling-stroke"/></g></svg>