<svg width="140.433mm" height="102.822mm" viewBox="0 0 140.433 102.822" xmlns="http://www.w3.org/2000/svg"><g id="svgGroup" stroke-linecap="round" fill-rule="evenodd" font-size="9pt" stroke="#000" stroke-width="0.25mm" fill="none" style="stroke:#000;stroke-width:0.25mm;fill:none"><path d="M 0.002 77.002 L 0 2.752 A 0.5 0.5 0 0 1 0.5 2.252 L 18.5 2.252 A 0.5 0.5 0 0 0 19 1.752 L 19 0.5 A 0.5 0.5 0 0 1 19.5 0 L 36.502 0 A 0.5 0.5 0 0 1 37.002 0.5 L 37.002 1.752 A 0.5 0.5 0 0 0 37.502 2.252 L 56.5 2.252 A 0.5 0.5 0 0 0 57 1.752 L 57 0.5 A 0.5 0.5 0 0 1 57.5 0 L 74.502 0 A 0.5 0.5 0 0 1 75.002 0.5 L 75.002 1.752 A 0.5 0.5 0 0 0 75.502 2.252 L 93.502 2.252 A 0.5 0.5 0 0 1 94.002 2.752 L 94.002 4.25 A 0.5 0.5 0 0 0 94.502 4.75 L 112.502 4.75 A 0.5 0.5 0 0 1 113.002 5.25 L 113.003 6.502 A 0.5 0.5 0 0 0 113.503 7.002 L 139.933 7.002 A 0.5 0.5 0 0 1 140.433 7.502 L 140.433 74.929 A 0.5 0.5 0 0 1 140.366 75.179 L 140.118 75.609 L 124.452 102.573 A 0.5 0.5 0 0 1 123.769 102.755 L 92.085 84.462 A 0.5 0.5 0 0 0 92.034 84.436 L 76.097 77.543 A 0.5 0.5 0 0 0 75.898 77.502 L 0.502 77.502 A 0.5 0.5 0 0 1 0.002 77.002 Z M 18.42 18.387 m -2.15 0 a 2.15 2.15 0 0 1 4.3 0 a 2.15 2.15 0 0 1 -4.3 0 z M 18.42 56.387 m -2.15 0 a 2.15 2.15 0 0 1 4.3 0 a 2.15 2.15 0 0 1 -4.3 0 z M 94.388 21.998 m -2.15 0 a 2.15 2.15 0 0 1 4.3 0 a 2.15 2.15 0 0 1 -4.3 0 z M 56.42 37.387 m -2.15 0 a 2.15 2.15 0 0 1 4.3 0 a 2.15 2.15 0 0 1 -4.3 0 z M 75.388 57.523 m -2.15 0 a 2.15 2.15 0 0 1 4.3 0 a 2.15 2.15 0 0 1 -4.3 0 z M 119.747 73.525 m -2.15 0 a 2.15 2.15 0 0 1 4.3 0 a 2.15 2.15 0 0 1 -4.3 0 z M 110.247 89.979 m -2.15 0 a 2.15 2.15 0 0 1 4.3 0 a 2.15 2.15 0 0 1 -4.3 0 z M 116.682 57.488 m -1.1 0 a 1.1 1.1 0 0 1 2.2 0 a 1.1 1.1 0 0 1 -2.2 0 z M 137.614 69.507 m -1.1 0 a 1.1 1.1 0 0 1 2.2 0 a 1.1 1.1 0 0 1 -2.2 0 z" vector-effect="non-scaling-stroke"/></g></svg>