0
SECTION
2
HEADER
9
$INSUNITS
70
4
0
ENDSEC
0
SECTION
2
TABLES
0
TABLE
2
LTYPE
0
LTYPE
72
65
70
64
2
CONTINUOUS
3
______
73
0
40
0
0
ENDTAB
0
TABLE
2
LAYER
0
ENDTAB
0
ENDSEC
0
SECTION
2
ENTITIES
0
LINE
8
0
10
91.0800133
20
-34.4900133
11
91.0819867
21
-108.7400133
0
LINE
8
0
10
91.5800133
20
-33.99
11
109.58
21
-33.99
0
LINE
8
0
10
110.08
20
-33.49
11
110.08
21
-32.238
0
LINE
8
0
10
110.58
20
-31.738
11
127.582
21
-31.738
0
LINE
8
0
10
128.082
20
-33.49
11
128.082
21
-32.238
0
LINE
8
0
10
128.582
20
-33.99
11
147.58
21
-33.99
0
LINE
8
0
10
148.08
20
-33.49
11
148.08
21
-32.238
0
LINE
8
0
10
148.58
20
-31.738
11
165.582
21
-31.738
0
LINE
8
0
10
166.082
20
-33.49
11
166.082
21
-32.238
0
LINE
8
0
10
166.582
20
-33.99
11
184.582
21
-33.99
0
LINE
8
0
10
185.082
20
-35.988
11
185.082
21
-34.49
0
LINE
8
0
10
185.582
20
-36.488
11
203.5822219
21
-36.488
0
LINE
8
0
10
204.0822219
20
-36.987778
11
204.083
21
-38.74
0
LINE
8
0
10
215.5317123
20
-134.311099
11
231.198
21
-107.346596
0
LINE
8
0
10
183.1654208
20
-116.2001857
11
214.8493838
21
-134.4929303
0
LINE
8
0
10
167.176994
20
-109.2810878
11
183.1139142
21
-116.1742862
0
LINE
8
0
10
91.5819867
20
-109.24
11
166.9785007
21
-109.24
0
LINE
8
0
10
204.5827781
20
-38.74
11
231.013
21
-38.74
0
LINE
8
0
10
231.513
20
-106.6670254
11
231.513
21
-39.24
0
LINE
8
0
10
231.198
20
-107.346596
11
231.4460127
21
-106.9170254
0
ARC
8
0
10
91.5800133
20
-34.49
40
0.5
50
90
51
450
0
ARC
8
0
10
109.58
20
-33.49
40
0.5
50
270
51
630
0
ARC
8
0
10
110.58
20
-32.238
40
0.5
50
90
51
450
0
ARC
8
0
10
127.582
20
-32.238
40
0.5
50
0
51
360
0
ARC
8
0
10
128.582
20
-33.49
40
0.5
50
180
51
540
0
ARC
8
0
10
147.58
20
-33.49
40
0.5
50
270
51
630
0
ARC
8
0
10
148.58
20
-32.238
40
0.5
50
90
51
450
0
ARC
8
0
10
165.582
20
-32.238
40
0.5
50
0
51
360
0
ARC
8
0
10
166.582
20
-33.49
40
0.5
50
180
51
540
0
ARC
8
0
10
184.582
20
-34.49
40
0.5
50
0
51
360
0
ARC
8
0
10
185.582
20
-35.988
40
0.5
50
180
51
540
0
ARC
8
0
10
203.5822219
20
-36.988
40
0.5
50
0.0254393
51
360.0254393
0
ARC
8
0
10
204.5827781
20
-38.24
40
0.5
50
180.0254393
51
540.0254393
0
ARC
8
0
10
231.013
20
-39.24
40
0.5
50
0
51
360
0
ARC
8
0
10
231.013
20
-106.6670254
40
0.5
50
329.9999999
51
689.9999999
0
ARC
8
0
10
215.0993838
20
-134.0599176
40
0.5
50
239.9999999
51
599.9999999
0
ARC
8
0
10
182.9154208
20
-116.6331984
40
0.5
50
59.9999999
51
419.9999999
0
ARC
8
0
10
166.9785007
20
-109.74
40
0.5
50
66.6100637
51
426.6100637
0
ARC
8
0
10
91.5819867
20
-108.74
40
0.5
50
180.0015241
51
540.0015241
0
CIRCLE
8
0
10
109.5
20
-50.125
40
1.1
0
CIRCLE
8
0
10
109.5
20
-88.125
40
1.1
0
CIRCLE
8
0
10
185.468
20
-53.736
40
1.1
0
CIRCLE
8
0
10
147.5
20
-69.125
40
1.1
0
CIRCLE
8
0
10
166.468
20
-89.261
40
1.1
0
CIRCLE
8
0
10
210.8272413
20
-105.2627587
40
1.1
0
CIRCLE
8
0
10
201.3272413
20
-121.7172413
40
1.1
0
CIRCLE
8
0
10
109.5
20
-50.125
40
2.15
0
CIRCLE
8
0
10
109.5
20
-88.125
40
2.15
0
CIRCLE
8
0
10
185.468
20
-53.736
40
2.15
0
CIRCLE
8
0
10
147.5
20
-69.125
40
2.15
0
CIRCLE
8
0
10
166.468
20
-89.261
40
2.15
0
CIRCLE
8
0
10
210.8272413
20
-105.2627587
40
2.15
0
CIRCLE
8
0
10
201.3272413
20
-121.7172413
40
2.15
0
CIRCLE
8
0
10
207.762
20
-89.226
40
1.1
0
CIRCLE
8
0
10
228.694
20
-101.245
40
1.1
0
LINE
8
0
10
204.083
20
-38.740222
11
204.083
21
-91.4030683
0
LINE
8
0
10
204.333
20
-91.836081
11
230.7638033
21
-107.0959124
0
ARC
8
0
10
203.583
20
-38.740222
40
0.5
50
0
51
0.0254393
0
ARC
8
0
10
204.583
20
-91.4030683
40
0.5
50
180
51
239.9999999
0
ARC
8
0
10
230.5138033
20
-107.5289251
40
0.5
50
329.8435539
51
59.9999999
0
LINE
8
0
10
93
20
-107
11
107
21
-107
0
LINE
8
0
10
107
20
-107
11
107
21
-93
0
LINE
8
0
10
107
20
-93
11
93
21
-93
0
LINE
8
0
10
93
20
-93
11
93
21
-107
0
LINE
8
0
10
93
20
-88
11
107
21
-88
0
LINE
8
0
10
107
20
-88
11
107
21
-74
0
LINE
8
0
10
107
20
-74
11
93
21
-74
0
LINE
8
0
10
93
20
-74
11
93
21
-88
0
LINE
8
0
10
93
20
-69
11
107
21
-69
0
LINE
8
0
10
107
20
-69
11
107
21
-55
0
LINE
8
0
10
107
20
-55
11
93
21
-55
0
LINE
8
0
10
93
20
-55
11
93
21
-69
0
LINE
8
0
10
93
20
-50
11
107
21
-50
0
LINE
8
0
10
107
20
-50
11
107
21
-36
0
LINE
8
0
10
107
20
-36
11
93
21
-36
0
LINE
8
0
10
93
20
-36
11
93
21
-50
0
LINE
8
0
10
112
20
-104.625
11
126
21
-104.625
0
LINE
8
0
10
126
20
-104.625
11
126
21
-90.625
0
LINE
8
0
10
126
20
-90.625
11
112
21
-90.625
0
LINE
8
0
10
112
20
-90.625
11
112
21
-104.625
0
LINE
8
0
10
112
20
-85.625
11
126
21
-85.625
0
LINE
8
0
10
126
20
-85.625
11
126
21
-71.625
0
LINE
8
0
10
126
20
-71.625
11
112
21
-71.625
0
LINE
8
0
10
112
20
-71.625
11
112
21
-85.625
0
LINE
8
0
10
112
20
-66.625
11
126
21
-66.625
0
LINE
8
0
10
126
20
-66.625
11
126
21
-52.625
0
LINE
8
0
10
126
20
-52.625
11
112
21
-52.625
0
LINE
8
0
10
112
20
-52.625
11
112
21
-66.625
0
LINE
8
0
10
112
20
-47.625
11
126
21
-47.625
0
LINE
8
0
10
126
20
-47.625
11
126
21
-33.625
0
LINE
8
0
10
126
20
-33.625
11
112
21
-33.625
0
LINE
8
0
10
112
20
-33.625
11
112
21
-47.625
0
LINE
8
0
10
131
20
-107
11
145
21
-107
0
LINE
8
0
10
145
20
-107
11
145
21
-93
0
LINE
8
0
10
145
20
-93
11
131
21
-93
0
LINE
8
0
10
131
20
-93
11
131
21
-107
0
LINE
8
0
10
131
20
-88
11
145
21
-88
0
LINE
8
0
10
145
20
-88
11
145
21
-74
0
LINE
8
0
10
145
20
-74
11
131
21
-74
0
LINE
8
0
10
131
20
-74
11
131
21
-88
0
LINE
8
0
10
131
20
-69
11
145
21
-69
0
LINE
8
0
10
145
20
-69
11
145
21
-55
0
LINE
8
0
10
145
20
-55
11
131
21
-55
0
LINE
8
0
10
131
20
-55
11
131
21
-69
0
LINE
8
0
10
131
20
-50
11
145
21
-50
0
LINE
8
0
10
145
20
-50
11
145
21
-36
0
LINE
8
0
10
145
20
-36
11
131
21
-36
0
LINE
8
0
10
131
20
-36
11
131
21
-50
0
LINE
8
0
10
150
20
-104.625
11
164
21
-104.625
0
LINE
8
0
10
164
20
-104.625
11
164
21
-90.625
0
LINE
8
0
10
164
20
-90.625
11
150
21
-90.625
0
LINE
8
0
10
150
20
-90.625
11
150
21
-104.625
0
LINE
8
0
10
150
20
-85.625
11
164
21
-85.625
0
LINE
8
0
10
164
20
-85.625
11
164
21
-71.625
0
LINE
8
0
10
164
20
-71.625
11
150
21
-71.625
0
LINE
8
0
10
150
20
-71.625
11
150
21
-85.625
0
LINE
8
0
10
150
20
-66.625
11
164
21
-66.625
0
LINE
8
0
10
164
20
-66.625
11
164
21
-52.625
0
LINE
8
0
10
164
20
-52.625
11
150
21
-52.625
0
LINE
8
0
10
150
20
-52.625
11
150
21
-66.625
0
LINE
8
0
10
150
20
-47.625
11
164
21
-47.625
0
LINE
8
0
10
164
20
-47.625
11
164
21
-33.625
0
LINE
8
0
10
164
20
-33.625
11
150
21
-33.625
0
LINE
8
0
10
150
20
-33.625
11
150
21
-47.625
0
LINE
8
0
10
169
20
-107
11
183
21
-107
0
LINE
8
0
10
183
20
-107
11
183
21
-93
0
LINE
8
0
10
183
20
-93
11
169
21
-93
0
LINE
8
0
10
169
20
-93
11
169
21
-107
0
LINE
8
0
10
169
20
-88
11
183
21
-88
0
LINE
8
0
10
183
20
-88
11
183
21
-74
0
LINE
8
0
10
183
20
-74
11
169
21
-74
0
LINE
8
0
10
169
20
-74
11
169
21
-88
0
LINE
8
0
10
169
20
-69
11
183
21
-69
0
LINE
8
0
10
183
20
-69
11
183
21
-55
0
LINE
8
0
10
183
20
-55
11
169
21
-55
0
LINE
8
0
10
169
20
-55
11
169
21
-69
0
LINE
8
0
10
169
20
-50
11
183
21
-50
0
LINE
8
0
10
183
20
-50
11
183
21
-36
0
LINE
8
0
10
183
20
-36
11
169
21
-36
0
LINE
8
0
10
169
20
-36
11
169
21
-50
0
LINE
8
0
10
188
20
-90.375
11
202
21
-90.375
0
LINE
8
0
10
202
20
-90.375
11
202
21
-76.375
0
LINE
8
0
10
202
20
-76.375
11
188
21
-76.375
0
LINE
8
0
10
188
20
-76.375
11
188
21
-90.375
0
LINE
8
0
10
188
20
-71.375
11
202
21
-71.375
0
LINE
8
0
10
202
20
-71.375
11
202
21
-57.375
0
LINE
8
0
10
202
20
-57.375
11
188
21
-57.375
0
LINE
8
0
10
188
20
-57.375
11
188
21
-71.375
0
LINE
8
0
10
188
20
-52.375
11
202
21
-52.375
0
LINE
8
0
10
202
20
-52.375
11
202
21
-38.375
0
LINE
8
0
10
202
20
-38.375
11
188
21
-38.375
0
LINE
8
0
10
188
20
-38.375
11
188
21
-52.375
0
LINE
8
0
10
200.4121778
20
-118.3021778
11
207.4121778
21
-106.1778222
0
LINE
8
0
10
207.4121778
20
-106.1778222
11
195.2878222
21
-99.1778222
0
LINE
8
0
10
195.2878222
20
-99.1778222
11
188.2878222
21
-111.3021778
0
LINE
8
0
10
188.2878222
20
-111.3021778
11
200.4121778
21
-118.3021778
0
LINE
8
0
10
216.8666605
20
-127.8021778
11
223.8666605
21
-115.6778222
0
LINE
8
0
10
223.8666605
20
-115.6778222
11
211.7423049
21
-108.6778222
0
LINE
8
0
10
211.7423049
20
-108.6778222
11
204.7423049
21
-120.8021778
0
LINE
8
0
10
204.7423049
20
-120.8021778
11
216.8666605
21
-127.8021778
0
LINE
8
0
10
205.113
20
-91.2702778
11
205.113
21
-39.24
0
LINE
8
0
10
230.763
20
-106.3679873
11
205.363
21
-91.7032905
0
ARC
8
0
10
205.613
20
-39.24
40
0.5
50
90
51
180
0
ARC
8
0
10
231.013
20
-105.9349746
40
0.5
50
239.9999999
51
0
0
ARC
8
0
10
205.613
20
-91.2702778
40
0.5
50
180
51
239.9999999
0
LINE
8
0
10
93
20
-109
11
107
21
-109
0
LINE
8
0
10
109
20
-107
11
109
21
-93
0
LINE
8
0
10
107
20
-91
11
93
21
-91
0
LINE
8
0
10
91
20
-93
11
91
21
-107
0
LINE
8
0
10
93
20
-90
11
107
21
-90
0
LINE
8
0
10
109
20
-88
11
109
21
-74
0
LINE
8
0
10
107
20
-72
11
93
21
-72
0
LINE
8
0
10
91
20
-74
11
91
21
-88
0
LINE
8
0
10
93
20
-71
11
107
21
-71
0
LINE
8
0
10
109
20
-69
11
109
21
-55
0
LINE
8
0
10
107
20
-53
11
93
21
-53
0
LINE
8
0
10
91
20
-55
11
91
21
-69
0
LINE
8
0
10
93
20
-52
11
107
21
-52
0
LINE
8
0
10
109
20
-50
11
109
21
-36
0
LINE
8
0
10
107
20
-34
11
93
21
-34
0
LINE
8
0
10
91
20
-36
11
91
21
-50
0
LINE
8
0
10
112
20
-106.625
11
126
21
-106.625
0
LINE
8
0
10
128
20
-104.625
11
128
21
-90.625
0
LINE
8
0
10
126
20
-88.625
11
112
21
-88.625
0
LINE
8
0
10
110
20
-90.625
11
110
21
-104.625
0
LINE
8
0
10
112
20
-87.625
11
126
21
-87.625
0
LINE
8
0
10
128
20
-85.625
11
128
21
-71.625
0
LINE
8
0
10
126
20
-69.625
11
112
21
-69.625
0
LINE
8
0
10
110
20
-71.625
11
110
21
-85.625
0
LINE
8
0
10
112
20
-68.625
11
126
21
-68.625
0
LINE
8
0
10
128
20
-66.625
11
128
21
-52.625
0
LINE
8
0
10
126
20
-50.625
11
112
21
-50.625
0
LINE
8
0
10
110
20
-52.625
11
110
21
-66.625
0
LINE
8
0
10
112
20
-49.625
11
126
21
-49.625
0
LINE
8
0
10
128
20
-47.625
11
128
21
-33.625
0
LINE
8
0
10
126
20
-31.625
11
112
21
-31.625
0
LINE
8
0
10
110
20
-33.625
11
110
21
-47.625
0
LINE
8
0
10
131
20
-109
11
145
21
-109
0
LINE
8
0
10
147
20
-107
11
147
21
-93
0
LINE
8
0
10
145
20
-91
11
131
21
-91
0
LINE
8
0
10
129
20
-93
11
129
21
-107
0
LINE
8
0
10
131
20
-90
11
145
21
-90
0
LINE
8
0
10
147
20
-88
11
147
21
-74
0
LINE
8
0
10
145
20
-72
11
131
21
-72
0
LINE
8
0
10
129
20
-74
11
129
21
-88
0
LINE
8
0
10
131
20
-71
11
145
21
-71
0
LINE
8
0
10
147
20
-69
11
147
21
-55
0
LINE
8
0
10
145
20
-53
11
131
21
-53
0
LINE
8
0
10
129
20
-55
11
129
21
-69
0
LINE
8
0
10
131
20
-52
11
145
21
-52
0
LINE
8
0
10
147
20
-50
11
147
21
-36
0
LINE
8
0
10
145
20
-34
11
131
21
-34
0
LINE
8
0
10
129
20
-36
11
129
21
-50
0
LINE
8
0
10
150
20
-106.625
11
164
21
-106.625
0
LINE
8
0
10
166
20
-104.625
11
166
21
-90.625
0
LINE
8
0
10
164
20
-88.625
11
150
21
-88.625
0
LINE
8
0
10
148
20
-90.625
11
148
21
-104.625
0
LINE
8
0
10
150
20
-87.625
11
164
21
-87.625
0
LINE
8
0
10
166
20
-85.625
11
166
21
-71.625
0
LINE
8
0
10
164
20
-69.625
11
150
21
-69.625
0
LINE
8
0
10
148
20
-71.625
11
148
21
-85.625
0
LINE
8
0
10
150
20
-68.625
11
164
21
-68.625
0
LINE
8
0
10
166
20
-66.625
11
166
21
-52.625
0
LINE
8
0
10
164
20
-50.625
11
150
21
-50.625
0
LINE
8
0
10
148
20
-52.625
11
148
21
-66.625
0
LINE
8
0
10
150
20
-49.625
11
164
21
-49.625
0
LINE
8
0
10
166
20
-47.625
11
166
21
-33.625
0
LINE
8
0
10
164
20
-31.625
11
150
21
-31.625
0
LINE
8
0
10
148
20
-33.625
11
148
21
-47.625
0
LINE
8
0
10
169
20
-109
11
183
21
-109
0
LINE
8
0
10
185
20
-107
11
185
21
-93
0
LINE
8
0
10
183
20
-91
11
169
21
-91
0
LINE
8
0
10
167
20
-93
11
167
21
-107
0
LINE
8
0
10
169
20
-90
11
183
21
-90
0
LINE
8
0
10
185
20
-88
11
185
21
-74
0
LINE
8
0
10
183
20
-72
11
169
21
-72
0
LINE
8
0
10
167
20
-74
11
167
21
-88
0
LINE
8
0
10
169
20
-71
11
183
21
-71
0
LINE
8
0
10
185
20
-69
11
185
21
-55
0
LINE
8
0
10
183
20
-53
11
169
21
-53
0
LINE
8
0
10
167
20
-55
11
167
21
-69
0
LINE
8
0
10
169
20
-52
11
183
21
-52
0
LINE
8
0
10
185
20
-50
11
185
21
-36
0
LINE
8
0
10
183
20
-34
11
169
21
-34
0
LINE
8
0
10
167
20
-36
11
167
21
-50
0
LINE
8
0
10
188
20
-92.375
11
202
21
-92.375
0
LINE
8
0
10
204
20
-90.375
11
204
21
-76.375
0
LINE
8
0
10
202
20
-74.375
11
188
21
-74.375
0
LINE
8
0
10
186
20
-76.375
11
186
21
-90.375
0
LINE
8
0
10
188
20
-73.375
11
202
21
-73.375
0
LINE
8
0
10
204
20
-71.375
11
204
21
-57.375
0
LINE
8
0
10
202
20
-55.375
11
188
21
-55.375
0
LINE
8
0
10
186
20
-57.375
11
186
21
-71.375
0
LINE
8
0
10
188
20
-54.375
11
202
21
-54.375
0
LINE
8
0
10
204
20
-52.375
11
204
21
-38.375
0
LINE
8
0
10
202
20
-36.375
11
188
21
-36.375
0
LINE
8
0
10
186
20
-38.375
11
186
21
-52.375
0
LINE
8
0
10
199.8942286
20
-123.1992922
11
211.3942286
21
-103.2807078
0
LINE
8
0
10
184.3057714
20
-114.1992922
11
195.8057714
21
-94.2807078
0
LINE
8
0
10
216.3487113
20
-132.6992922
11
227.8487113
21
-112.7807078
0
LINE
8
0
10
200.7602541
20
-123.6992922
11
212.2602541
21
-103.7807078
0
ARC
8
0
10
107
20
-107
40
2
50
270
51
0
0
ARC
8
0
10
107
20
-93
40
2
50
0
51
90
0
ARC
8
0
10
93
20
-93
40
2
50
90
51
180
0
ARC
8
0
10
93
20
-107
40
2
50
180
51
270
0
ARC
8
0
10
107
20
-88
40
2
50
270
51
0
0
ARC
8
0
10
107
20
-74
40
2
50
0
51
90
0
ARC
8
0
10
93
20
-74
40
2
50
90
51
180
0
ARC
8
0
10
93
20
-88
40
2
50
180
51
270
0
ARC
8
0
10
107
20
-69
40
2
50
270
51
0
0
ARC
8
0
10
107
20
-55
40
2
50
0
51
90
0
ARC
8
0
10
93
20
-55
40
2
50
90
51
180
0
ARC
8
0
10
93
20
-69
40
2
50
180
51
270
0
ARC
8
0
10
107
20
-50
40
2
50
270
51
0
0
ARC
8
0
10
107
20
-36
40
2
50
0
51
90
0
ARC
8
0
10
93
20
-36
40
2
50
90
51
180
0
ARC
8
0
10
93
20
-50
40
2
50
180
51
270
0
ARC
8
0
10
126
20
-104.625
40
2
50
270
51
0
0
ARC
8
0
10
126
20
-90.625
40
2
50
0
51
90
0
ARC
8
0
10
112
20
-90.625
40
2
50
90
51
180
0
ARC
8
0
10
112
20
-104.625
40
2
50
180
51
270
0
ARC
8
0
10
126
20
-85.625
40
2
50
270
51
0
0
ARC
8
0
10
126
20
-71.625
40
2
50
0
51
90
0
ARC
8
0
10
112
20
-71.625
40
2
50
90
51
180
0
ARC
8
0
10
112
20
-85.625
40
2
50
180
51
270
0
ARC
8
0
10
126
20
-66.625
40
2
50
270
51
0
0
ARC
8
0
10
126
20
-52.625
40
2
50
0
51
90
0
ARC
8
0
10
112
20
-52.625
40
2
50
90
51
180
0
ARC
8
0
10
112
20
-66.625
40
2
50
180
51
270
0
ARC
8
0
10
126
20
-47.625
40
2
50
270
51
0
0
ARC
8
0
10
126
20
-33.625
40
2
50
0
51
90
0
ARC
8
0
10
112
20
-33.625
40
2
50
90
51
180
0
ARC
8
0
10
112
20
-47.625
40
2
50
180
51
270
0
ARC
8
0
10
145
20
-107
40
2
50
270
51
0
0
ARC
8
0
10
145
20
-93
40
2
50
0
51
90
0
ARC
8
0
10
131
20
-93
40
2
50
90
51
180
0
ARC
8
0
10
131
20
-107
40
2
50
180
51
270
0
ARC
8
0
10
145
20
-88
40
2
50
270
51
0
0
ARC
8
0
10
145
20
-74
40
2
50
0
51
90
0
ARC
8
0
10
131
20
-74
40
2
50
90
51
180
0
ARC
8
0
10
131
20
-88
40
2
50
180
51
270
0
ARC
8
0
10
145
20
-69
40
2
50
270
51
0
0
ARC
8
0
10
145
20
-55
40
2
50
0
51
90
0
ARC
8
0
10
131
20
-55
40
2
50
90
51
180
0
ARC
8
0
10
131
20
-69
40
2
50
180
51
270
0
ARC
8
0
10
145
20
-50
40
2
50
270
51
0
0
ARC
8
0
10
145
20
-36
40
2
50
0
51
90
0
ARC
8
0
10
131
20
-36
40
2
50
90
51
180
0
ARC
8
0
10
131
20
-50
40
2
50
180
51
270
0
ARC
8
0
10
164
20
-104.625
40
2
50
270
51
0
0
ARC
8
0
10
164
20
-90.625
40
2
50
0
51
90
0
ARC
8
0
10
150
20
-90.625
40
2
50
90
51
180
0
ARC
8
0
10
150
20
-104.625
40
2
50
180
51
270
0
ARC
8
0
10
164
20
-85.625
40
2
50
270
51
0
0
ARC
8
0
10
164
20
-71.625
40
2
50
0
51
90
0
ARC
8
0
10
150
20
-71.625
40
2
50
90
51
180
0
ARC
8
0
10
150
20
-85.625
40
2
50
180
51
270
0
ARC
8
0
10
164
20
-66.625
40
2
50
270
51
0
0
ARC
8
0
10
164
20
-52.625
40
2
50
0
51
90
0
ARC
8
0
10
150
20
-52.625
40
2
50
90
51
180
0
ARC
8
0
10
150
20
-66.625
40
2
50
180
51
270
0
ARC
8
0
10
164
20
-47.625
40
2
50
270
51
0
0
ARC
8
0
10
164
20
-33.625
40
2
50
0
51
90
0
ARC
8
0
10
150
20
-33.625
40
2
50
90
51
180
0
ARC
8
0
10
150
20
-47.625
40
2
50
180
51
270
0
ARC
8
0
10
183
20
-107
40
2
50
270
51
0
0
ARC
8
0
10
183
20
-93
40
2
50
0
51
90
0
ARC
8
0
10
169
20
-93
40
2
50
90
51
180
0
ARC
8
0
10
169
20
-107
40
2
50
180
51
270
0
ARC
8
0
10
183
20
-88
40
2
50
270
51
0
0
ARC
8
0
10
183
20
-74
40
2
50
0
51
90
0
ARC
8
0
10
169
20
-74
40
2
50
90
51
180
0
ARC
8
0
10
169
20
-88
40
2
50
180
51
270
0
ARC
8
0
10
183
20
-69
40
2
50
270
51
0
0
ARC
8
0
10
183
20
-55
40
2
50
0
51
90
0
ARC
8
0
10
169
20
-55
40
2
50
90
51
180
0
ARC
8
0
10
169
20
-69
40
2
50
180
51
270
0
ARC
8
0
10
183
20
-50
40
2
50
270
51
0
0
ARC
8
0
10
183
20
-36
40
2
50
0
51
90
0
ARC
8
0
10
169
20
-36
40
2
50
90
51
180
0
ARC
8
0
10
169
20
-50
40
2
50
180
51
270
0
ARC
8
0
10
202
20
-90.375
40
2
50
270
51
0
0
ARC
8
0
10
202
20
-76.375
40
2
50
0
51
90
0
ARC
8
0
10
188
20
-76.375
40
2
50
90
51
180
0
ARC
8
0
10
188
20
-90.375
40
2
50
180
51
270
0
ARC
8
0
10
202
20
-71.375
40
2
50
270
51
0
0
ARC
8
0
10
202
20
-57.375
40
2
50
0
51
90
0
ARC
8
0
10
188
20
-57.375
40
2
50
90
51
180
0
ARC
8
0
10
188
20
-71.375
40
2
50
180
51
270
0
ARC
8
0
10
202
20
-52.375
40
2
50
270
51
0
0
ARC
8
0
10
202
20
-38.375
40
2
50
0
51
90
0
ARC
8
0
10
188
20
-38.375
40
2
50
90
51
180
0
ARC
8
0
10
188
20
-52.375
40
2
50
180
51
270
0
LINE
8
0
10
210.6621778
20
-100.548657
11
198.5378222
21
-93.548657
0
LINE
8
0
10
185.0378222
20
-116.931343
11
197.1621778
21
-123.931343
0
LINE
8
0
10
227.1166605
20
-110.048657
11
214.9923049
21
-103.048657
0
LINE
8
0
10
201.4923049
20
-126.431343
11
213.6166605
21
-133.431343
0
ARC
8
0
10
209.6621778
20
-102.2807078
40
2
50
329.9999999
51
59.9999999
0
ARC
8
0
10
197.5378222
20
-95.2807078
40
2
50
59.9999999
51
149.9999999
0
ARC
8
0
10
186.0378222
20
-115.1992922
40
2
50
149.9999999
51
239.9999999
0
ARC
8
0
10
198.1621778
20
-122.1992922
40
2
50
239.9999999
51
329.9999999
0
ARC
8
0
10
226.1166605
20
-111.7807078
40
2
50
329.9999999
51
59.9999999
0
ARC
8
0
10
213.9923049
20
-104.7807078
40
2
50
59.9999999
51
149.9999999
0
ARC
8
0
10
202.4923049
20
-124.6992922
40
2
50
149.9999999
51
239.9999999
0
ARC
8
0
10
214.6166605
20
-131.6992922
40
2
50
239.9999999
51
329.9999999
0
LINE
8
0
10
89.63
20
-33.9900385
11
89.632
21
-109.2400385
0
LINE
8
0
10
89.6299748
20
-33.0400133
11
89.63
21
-33.9900385
0
LINE
8
0
10
90.1299748
20
-32.54
11
108.13
21
-32.54
0
LINE
8
0
10
108.63
20
-32.04
11
108.63
21
-30.788
0
LINE
8
0
10
109.13
20
-30.288
11
129.032
21
-30.288
0
LINE
8
0
10
129.532
20
-32.04
11
129.532
21
-30.788
0
LINE
8
0
10
130.032
20
-32.54
11
146.13
21
-32.54
0
LINE
8
0
10
146.63
20
-32.04
11
146.63
21
-30.788
0
LINE
8
0
10
147.13
20
-30.288
11
167.032
21
-30.288
0
LINE
8
0
10
167.532
20
-32.04
11
167.532
21
-30.788
0
LINE
8
0
10
168.032
20
-32.54
11
186.032
21
-32.54
0
LINE
8
0
10
186.532
20
-34.538
11
186.532
21
-33.04
0
LINE
8
0
10
187.032
20
-35.038
11
205.0315782
21
-35.038
0
LINE
8
0
10
205.5315782
20
-35.5377779
11
205.5319999
21
-36.4873561
0
LINE
8
0
10
205.5319999
20
-36.4873561
11
205.5321344
21
-36.790222
0
LINE
8
0
10
206.0321344
20
-37.29
11
232.463
21
-37.29
0
LINE
8
0
10
232.963
20
-107.1895263
11
232.963
21
-37.79
0
LINE
8
0
10
232.4537368
20
-108.071596
11
232.963
21
-107.1895263
0
LINE
8
0
10
232.452747
20
-108.0733104
11
232.4537368
21
-108.071596
0
LINE
8
0
10
232.4517525
20
-108.0750221
11
232.452747
21
-108.0733104
0
LINE
8
0
10
216.059025
20
-136.2898589
11
232.4517525
21
-108.0750221
0
LINE
8
0
10
182.5129368
20
-117.4977896
11
215.3766965
21
-136.4716902
0
LINE
8
0
10
166.8768463
20
-110.7310878
11
182.4614301
21
-117.4718901
0
LINE
8
0
10
90.1320252
20
-110.69
11
166.678353
21
-110.69
0
LINE
8
0
10
89.632
20
-109.2400385
11
89.6320252
21
-110.1900133
0
ARC
8
0
10
90.1299748
20
-33.04
40
0.5
50
90
51
450
0
ARC
8
0
10
108.13
20
-32.04
40
0.5
50
270
51
630
0
ARC
8
0
10
109.13
20
-30.788
40
0.5
50
90
51
450
0
ARC
8
0
10
129.032
20
-30.788
40
0.5
50
0
51
360
0
ARC
8
0
10
130.032
20
-32.04
40
0.5
50
180
51
540
0
ARC
8
0
10
146.13
20
-32.04
40
0.5
50
270
51
630
0
ARC
8
0
10
147.13
20
-30.788
40
0.5
50
90
51
450
0
ARC
8
0
10
167.032
20
-30.788
40
0.5
50
0
51
360
0
ARC
8
0
10
168.032
20
-32.04
40
0.5
50
180
51
540
0
ARC
8
0
10
186.032
20
-33.04
40
0.5
50
0
51
360
0
ARC
8
0
10
187.032
20
-34.538
40
0.5
50
180
51
540
0
ARC
8
0
10
205.0315782
20
-35.538
40
0.5
50
0.0254451
51
360.0254451
0
ARC
8
0
10
206.0321344
20
-36.79
40
0.5
50
180.0254393
51
540.0254393
0
ARC
8
0
10
232.463
20
-37.79
40
0.5
50
0
51
360
0
ARC
8
0
10
215.6266965
20
-136.0386775
40
0.5
50
239.9999999
51
599.9999999
0
ARC
8
0
10
182.2629368
20
-117.9308023
40
0.5
50
59.9999999
51
419.9999999
0
ARC
8
0
10
166.678353
20
-111.19
40
0.5
50
66.6100637
51
426.6100637
0
ARC
8
0
10
90.1320252
20
-110.19
40
0.5
50
180.0015241
51
540.0015241
0
LINE
8
0
10
90.832
20
-109.2400066
11
90.83
21
-33.9900066
0
LINE
8
0
10
90.8299934
20
-33.74
11
90.83
21
-33.9900066
0
LINE
8
0
10
90.8299934
20
-33.74
11
109.33
21
-33.74
0
LINE
8
0
10
109.83
20
-33.24
11
109.83
21
-31.488
0
LINE
8
0
10
109.83
20
-31.488
11
128.332
21
-31.488
0
LINE
8
0
10
128.332
20
-33.24
11
128.332
21
-31.488
0
LINE
8
0
10
128.832
20
-33.74
11
147.33
21
-33.74
0
LINE
8
0
10
147.83
20
-33.24
11
147.83
21
-31.488
0
LINE
8
0
10
147.83
20
-31.488
11
166.332
21
-31.488
0
LINE
8
0
10
166.332
20
-33.24
11
166.332
21
-31.488
0
LINE
8
0
10
166.832
20
-33.74
11
185.332
21
-33.74
0
LINE
8
0
10
185.332
20
-35.738
11
185.332
21
-33.74
0
LINE
8
0
10
185.832
20
-36.238
11
204.331889
21
-36.238
0
LINE
8
0
10
204.332
20
-36.487889
11
204.331889
21
-36.238
0
LINE
8
0
10
204.332
20
-36.487889
11
204.3326671
21
-37.990222
0
LINE
8
0
10
204.8326671
20
-38.49
11
231.763
21
-38.49
0
LINE
8
0
10
231.763
20
-106.8679873
11
231.763
21
-38.49
0
LINE
8
0
10
231.4145064
20
-107.471596
11
231.763
21
-106.8679873
0
LINE
8
0
10
215.3721318
20
-135.0834141
11
231.4141642
21
-107.4721867
0
LINE
8
0
10
215.1562158
20
-134.958755
11
215.3721318
21
-135.0834141
0
LINE
8
0
10
183.0529234
20
-116.4239105
11
215.1562158
21
-134.958755
0
LINE
8
0
10
183.0014167
20
-116.3980109
11
167.1252444
21
-109.5310878
0
LINE
8
0
10
90.8320066
20
-109.49
11
166.926751
21
-109.49
0
LINE
8
0
10
90.832
20
-109.2400066
11
90.8320066
21
-109.49
0
ARC
8
0
10
109.33
20
-33.24
40
0.5
50
270
51
0
0
ARC
8
0
10
128.832
20
-33.24
40
0.5
50
180
51
270
0
ARC
8
0
10
147.33
20
-33.24
40
0.5
50
270
51
0
0
ARC
8
0
10
166.832
20
-33.24
40
0.5
50
180
51
270
0
ARC
8
0
10
185.832
20
-35.738
40
0.5
50
180
51
270
0
ARC
8
0
10
204.8326671
20
-37.99
40
0.5
50
180.0254393
51
270
0
ARC
8
0
10
182.8029234
20
-116.8569232
40
0.5
50
59.9999999
51
66.6100637
0
ARC
8
0
10
166.926751
20
-109.99
40
0.5
50
66.6100637
51
90
0
LINE
8
0
10
93.4819229
20
-106.3400133
11
93.4800771
21
-36.8900133
0
LINE
8
0
10
93.9800771
20
-36.39
11
111.8662329
21
-36.39
0
LINE
8
0
10
112.3652813
20
-35.9208333
11
112.4464452
21
-34.6071667
0
LINE
8
0
10
112.9454936
20
-34.138
11
125.2165064
21
-34.138
0
LINE
8
0
10
125.7155548
20
-34.6071667
11
125.7967187
21
-35.9208333
0
LINE
8
0
10
126.2957671
20
-36.39
11
149.8662329
21
-36.39
0
LINE
8
0
10
150.3652813
20
-35.9208333
11
150.4464452
21
-34.6071667
0
LINE
8
0
10
150.9454936
20
-34.138
11
163.2165064
21
-34.138
0
LINE
8
0
10
163.7155548
20
-34.6071667
11
163.7967187
21
-35.9208333
0
LINE
8
0
10
164.2957671
20
-36.39
11
182.682
21
-36.39
0
LINE
8
0
10
182.682
20
-38.388
11
182.682
21
-36.39
0
LINE
8
0
10
183.182
20
-38.888
11
201.2175064
21
-38.888
0
LINE
8
0
10
201.7165548
20
-39.3571667
11
201.7977187
21
-40.6708333
0
LINE
8
0
10
202.2967671
20
-41.14
11
228.613
21
-41.14
0
LINE
8
0
10
229.113
20
-41.64
11
229.113
21
-106.0231265
0
LINE
8
0
10
229.0453285
20
-106.2743079
11
214.6589189
21
-131.0359102
0
LINE
8
0
10
184.340415
20
-114.1072876
11
213.9765904
21
-131.2177414
0
LINE
8
0
10
184.340415
20
-114.1072876
11
184.2203886
21
-114.0379903
0
LINE
8
0
10
167.5787963
20
-106.84
11
184.2203886
21
-114.0379903
0
LINE
8
0
10
93.9819229
20
-106.84
11
167.5787963
21
-106.84
0
ARC
8
0
10
93.9800771
20
-36.89
40
0.5
50
90
51
180.0015241
0
ARC
8
0
10
111.8662329
20
-35.89
40
0.5
50
270
51
356.4645209
0
ARC
8
0
10
112.9454936
20
-34.638
40
0.5
50
90
51
176.4645209
0
ARC
8
0
10
125.2165064
20
-34.638
40
0.5
50
3.5354791
51
90
0
ARC
8
0
10
126.2957671
20
-35.89
40
0.5
50
183.5354791
51
270
0
ARC
8
0
10
149.8662329
20
-35.89
40
0.5
50
270
51
356.4645209
0
ARC
8
0
10
150.9454936
20
-34.638
40
0.5
50
90
51
176.4645209
0
ARC
8
0
10
163.2165064
20
-34.638
40
0.5
50
3.5354791
51
90
0
ARC
8
0
10
164.2957671
20
-35.89
40
0.5
50
183.5354791
51
270
0
ARC
8
0
10
183.182
20
-38.388
40
0.5
50
180
51
270
0
ARC
8
0
10
201.2175064
20
-39.388
40
0.5
50
3.5354791
51
90
0
ARC
8
0
10
202.2967671
20
-40.64
40
0.5
50
183.5354791
51
270
0
ARC
8
0
10
228.613
20
-41.64
40
0.5
50
0
51
90
0
ARC
8
0
10
228.613
20
-106.0231265
40
0.5
50
329.8435539
51
0
0
ARC
8
0
10
214.2265904
20
-130.7847287
40
0.5
50
239.9999999
51
329.8435539
0
ARC
8
0
10
93.9819229
20
-106.34
40
0.5
50
180.0015241
51
270
0
ENDSEC
0
EOF