%TF.GenerationSoftware,KiCad,Pcbnew,8.0.8+1*%
%TF.CreationDate,2025-06-17T15:50:16+00:00*%
%TF.ProjectId,eggada50_wireless_autorouted,65676761-6461-4353-905f-776972656c65,0.2*%
%TF.SameCoordinates,Original*%
%TF.FileFunction,Drillmap*%
%TF.FilePolarity,Positive*%
%FSLAX45Y45*%
G04 Gerber Fmt 4.5, Leading zero omitted, Abs format (unit mm)*
G04 Created by KiCad (PCBNEW 8.0.8+1) date 2025-06-17 15:50:16*
%MOMM*%
%LPD*%
G01*
G04 APERTURE LIST*
%ADD10C,0.150000*%
%ADD11C,0.200000*%
%ADD12C,0.100000*%
G04 APERTURE END LIST*
D10*
X18508200Y-3449000D02*
X18508200Y-3598800D01*
X16658200Y-3399000D02*
X18458200Y-3399000D01*
X16697850Y-10924000D02*
G75*
G02*
X16717699Y-10928109I0J-50000D01*
G01*
X11008000Y-3223800D02*
G75*
G02*
X11058000Y-3173800I50000J0D01*
G01*
X16608200Y-3223800D02*
X16608200Y-3349000D01*
X9158199Y-10924000D02*
G75*
G02*
X9108200Y-10874001I1J50000D01*
G01*
X14808000Y-3349000D02*
G75*
G02*
X14758000Y-3399000I-50000J0D01*
G01*
X18311391Y-11617429D02*
G75*
G02*
X18316542Y-11620018I-19871J-45941D01*
G01*
X18558200Y-3648800D02*
X20358222Y-3648800D01*
X9108001Y-3449001D02*
G75*
G02*
X9158001Y-3399001I49999J1D01*
G01*
X14808000Y-3349000D02*
X14808000Y-3223800D01*
X11008000Y-3349000D02*
G75*
G02*
X10958000Y-3399000I-50000J0D01*
G01*
X18316542Y-11620019D02*
X21484938Y-13449293D01*
X23101300Y-3874000D02*
G75*
G02*
X23151300Y-3924000I0J-50000D01*
G01*
X18311391Y-11617429D02*
X16717699Y-10928109D01*
X14858000Y-3173800D02*
X16558200Y-3173800D01*
X18558200Y-3648800D02*
G75*
G02*
X18508200Y-3598800I0J50000D01*
G01*
X11058000Y-3173800D02*
X12758200Y-3173800D01*
X23151300Y-3924000D02*
X23151300Y-10666703D01*
X20358222Y-3648800D02*
G75*
G02*
X20408220Y-3698778I-2J-50000D01*
G01*
X9158001Y-3399000D02*
X10958000Y-3399000D01*
X16558200Y-3173800D02*
G75*
G02*
X16608200Y-3223800I0J-50000D01*
G01*
X12858200Y-3399000D02*
X14758000Y-3399000D01*
X9108199Y-10874001D02*
X9108001Y-3449001D01*
X20408222Y-3698778D02*
X20408278Y-3824022D01*
X23144601Y-10691703D02*
X23119800Y-10734660D01*
X12808200Y-3223800D02*
X12808200Y-3349000D01*
X14808000Y-3223800D02*
G75*
G02*
X14858000Y-3173800I50000J0D01*
G01*
X9158199Y-10924000D02*
X16697850Y-10924000D01*
X16658200Y-3399000D02*
G75*
G02*
X16608200Y-3349000I0J50000D01*
G01*
X20458278Y-3874000D02*
X23101300Y-3874000D01*
X12858200Y-3399000D02*
G75*
G02*
X12808200Y-3349000I0J50000D01*
G01*
X18458200Y-3399000D02*
G75*
G02*
X18508200Y-3449000I0J-50000D01*
G01*
X23151300Y-10666703D02*
G75*
G02*
X23144602Y-10691703I-50020J3D01*
G01*
X23119800Y-10734660D02*
X21553171Y-13431110D01*
X11008000Y-3349000D02*
X11008000Y-3223800D01*
X12758200Y-3173800D02*
G75*
G02*
X12808200Y-3223800I0J-50000D01*
G01*
X21553171Y-13431110D02*
G75*
G02*
X21484940Y-13449290I-43231J25120D01*
G01*
X20458278Y-3874000D02*
G75*
G02*
X20408280Y-3824022I2J50000D01*
G01*
D11*
D12*
X9334360Y-6447180D02*
X9364360Y-6477180D01*
X9364360Y-6447180D02*
X9334360Y-6477180D01*
X10149430Y-8330400D02*
X10179430Y-8360400D01*
X10179430Y-8330400D02*
X10149430Y-8360400D01*
X10162770Y-4517130D02*
X10192770Y-4547130D01*
X10192770Y-4517130D02*
X10162770Y-4547130D01*
X10693500Y-6983780D02*
X10723500Y-7013780D01*
X10723500Y-6983780D02*
X10693500Y-7013780D01*
X11027930Y-10065770D02*
X11057930Y-10095770D01*
X11057930Y-10065770D02*
X11027930Y-10095770D01*
X11145000Y-4392670D02*
X11175000Y-4422670D01*
X11175000Y-4392670D02*
X11145000Y-4422670D01*
X11145000Y-6142330D02*
X11175000Y-6172330D01*
X11175000Y-6142330D02*
X11145000Y-6172330D01*
X11145000Y-8042330D02*
X11175000Y-8072330D01*
X11175000Y-8042330D02*
X11145000Y-8072330D01*
X11456020Y-8135450D02*
X11486020Y-8165450D01*
X11486020Y-8135450D02*
X11456020Y-8165450D01*
X12460720Y-8032950D02*
X12490720Y-8062950D01*
X12490720Y-8032950D02*
X12460720Y-8062950D01*
X12497360Y-4203760D02*
X12527360Y-4233760D01*
X12527360Y-4203760D02*
X12497360Y-4233760D01*
X12794150Y-5001390D02*
X12824150Y-5031390D01*
X12824150Y-5001390D02*
X12794150Y-5031390D01*
X12817000Y-4178770D02*
X12847000Y-4208770D01*
X12847000Y-4178770D02*
X12817000Y-4208770D01*
X12817000Y-5955270D02*
X12847000Y-5985270D01*
X12847000Y-5955270D02*
X12817000Y-5985270D01*
X12817000Y-9771420D02*
X12847000Y-9801420D01*
X12847000Y-9771420D02*
X12817000Y-9801420D01*
X13019680Y-8014250D02*
X13049680Y-8044250D01*
X13049680Y-8014250D02*
X13019680Y-8044250D01*
X13179290Y-8347730D02*
X13209290Y-8377730D01*
X13209290Y-8347730D02*
X13179290Y-8377730D01*
X13785930Y-4585830D02*
X13815930Y-4615830D01*
X13815930Y-4585830D02*
X13785930Y-4615830D01*
X13785930Y-5066400D02*
X13815930Y-5096400D01*
X13815930Y-5066400D02*
X13785930Y-5096400D01*
X14462880Y-7122270D02*
X14492880Y-7152270D01*
X14492880Y-7122270D02*
X14462880Y-7152270D01*
X14676590Y-6239220D02*
X14706590Y-6269220D01*
X14706590Y-6239220D02*
X14676590Y-6269220D01*
X14917790Y-4225470D02*
X14947790Y-4255470D01*
X14947790Y-4225470D02*
X14917790Y-4255470D01*
X14917790Y-10065770D02*
X14947790Y-10095770D01*
X14947790Y-10065770D02*
X14917790Y-10095770D01*
X14945000Y-8054250D02*
X14975000Y-8084250D01*
X14975000Y-8054250D02*
X14945000Y-8084250D01*
X16320800Y-4205000D02*
X16350800Y-4235000D01*
X16350800Y-4205000D02*
X16320800Y-4235000D01*
X16339260Y-8888370D02*
X16369260Y-8918370D01*
X16369260Y-8888370D02*
X16339260Y-8918370D01*
X16393500Y-5108430D02*
X16423500Y-5138430D01*
X16423500Y-5108430D02*
X16393500Y-5138430D01*
X16393500Y-7094800D02*
X16423500Y-7124800D01*
X16423500Y-7094800D02*
X16393500Y-7124800D01*
X16656250Y-5944870D02*
X16686250Y-5974870D01*
X16686250Y-5944870D02*
X16656250Y-5974870D01*
X16656250Y-7907070D02*
X16686250Y-7937070D01*
X16686250Y-7907070D02*
X16656250Y-7937070D01*
X16656250Y-9771420D02*
X16686250Y-9801420D01*
X16686250Y-9771420D02*
X16656250Y-9801420D01*
X16845000Y-4212220D02*
X16875000Y-4242220D01*
X16875000Y-4212220D02*
X16845000Y-4242220D01*
X17925510Y-8188830D02*
X17955510Y-8218830D01*
X17955510Y-8188830D02*
X17925510Y-8218830D01*
X18200080Y-4433090D02*
X18230080Y-4463090D01*
X18230080Y-4433090D02*
X18200080Y-4463090D01*
X18238500Y-5356170D02*
X18268500Y-5386170D01*
X18268500Y-5356170D02*
X18238500Y-5386170D01*
X18293500Y-8348010D02*
X18323500Y-8378010D01*
X18323500Y-8348010D02*
X18293500Y-8378010D01*
X18535000Y-8005320D02*
X18565000Y-8035320D01*
X18565000Y-8005320D02*
X18535000Y-8035320D01*
X18598880Y-4473120D02*
X18628880Y-4503120D01*
X18628880Y-4473120D02*
X18598880Y-4503120D01*
X18791490Y-6721000D02*
X18821490Y-6751000D01*
X18821490Y-6721000D02*
X18791490Y-6751000D01*
X20093090Y-4693280D02*
X20123090Y-4723280D01*
X20123090Y-4693280D02*
X20093090Y-4723280D01*
X20105230Y-6616230D02*
X20135230Y-6646230D01*
X20135230Y-6616230D02*
X20105230Y-6646230D01*
X20187710Y-11473060D02*
X20217710Y-11503060D01*
X20217710Y-11473060D02*
X20187710Y-11503060D01*
X20193500Y-7440560D02*
X20223500Y-7470560D01*
X20223500Y-7440560D02*
X20193500Y-7470560D01*
X20788210Y-5467720D02*
X20818210Y-5497720D01*
X20818210Y-5467720D02*
X20788210Y-5497720D01*
X21126530Y-7385130D02*
X21156530Y-7415130D01*
X21156530Y-7385130D02*
X21126530Y-7415130D01*
X21425620Y-10850080D02*
X21455620Y-10880080D01*
X21455620Y-10850080D02*
X21425620Y-10880080D01*
X21741600Y-8041250D02*
X21771600Y-8071250D01*
X21771600Y-8041250D02*
X21741600Y-8071250D01*
X21765710Y-5302440D02*
X21795710Y-5332440D01*
X21795710Y-5302440D02*
X21765710Y-5332440D01*
X21818810Y-8212960D02*
X21848810Y-8242960D01*
X21848810Y-8212960D02*
X21818810Y-8242960D01*
X21835250Y-6960560D02*
X21865250Y-6990560D01*
X21865250Y-6960560D02*
X21835250Y-6990560D01*
X21855170Y-7900000D02*
X21885170Y-7930000D01*
X21885170Y-7900000D02*
X21855170Y-7930000D01*
X21891250Y-7820000D02*
X21921250Y-7850000D01*
X21921250Y-7820000D02*
X21891250Y-7850000D01*
X21893410Y-11260100D02*
X21923410Y-11290100D01*
X21923410Y-11260100D02*
X21893410Y-11290100D01*
X21895430Y-5706010D02*
X21925430Y-5736010D01*
X21925430Y-5706010D02*
X21895430Y-5736010D01*
X21975770Y-5477040D02*
X22005770Y-5507040D01*
X22005770Y-5477040D02*
X21975770Y-5507040D01*
X22161030Y-7365480D02*
X22191030Y-7395480D01*
X22191030Y-7365480D02*
X22161030Y-7395480D01*
X22627580Y-8235000D02*
X22657580Y-8265000D01*
X22657580Y-8235000D02*
X22627580Y-8265000D01*
X22629750Y-8535000D02*
X22659750Y-8565000D01*
X22659750Y-8535000D02*
X22629750Y-8565000D01*
X22825000Y-7392620D02*
X22855000Y-7422620D01*
X22855000Y-7392620D02*
X22825000Y-7422620D01*
X22972590Y-7127580D02*
X23002590Y-7157580D01*
X23002590Y-7127580D02*
X22972590Y-7157580D01*
X21450400Y-4392000D02*
G75*
G02*
X21410400Y-4392000I-20000J0D01*
G01*
X21410400Y-4392000D02*
G75*
G02*
X21450400Y-4392000I20000J0D01*
G01*
X21450400Y-4646000D02*
G75*
G02*
X21410400Y-4646000I-20000J0D01*
G01*
X21410400Y-4646000D02*
G75*
G02*
X21450400Y-4646000I20000J0D01*
G01*
X21450400Y-4900000D02*
G75*
G02*
X21410400Y-4900000I-20000J0D01*
G01*
X21410400Y-4900000D02*
G75*
G02*
X21450400Y-4900000I20000J0D01*
G01*
X21450400Y-5154000D02*
G75*
G02*
X21410400Y-5154000I-20000J0D01*
G01*
X21410400Y-5154000D02*
G75*
G02*
X21450400Y-5154000I20000J0D01*
G01*
X21450400Y-5408000D02*
G75*
G02*
X21410400Y-5408000I-20000J0D01*
G01*
X21410400Y-5408000D02*
G75*
G02*
X21450400Y-5408000I20000J0D01*
G01*
X21450400Y-5662000D02*
G75*
G02*
X21410400Y-5662000I-20000J0D01*
G01*
X21410400Y-5662000D02*
G75*
G02*
X21450400Y-5662000I20000J0D01*
G01*
X21450400Y-5916000D02*
G75*
G02*
X21410400Y-5916000I-20000J0D01*
G01*
X21410400Y-5916000D02*
G75*
G02*
X21450400Y-5916000I20000J0D01*
G01*
X21450400Y-6170000D02*
G75*
G02*
X21410400Y-6170000I-20000J0D01*
G01*
X21410400Y-6170000D02*
G75*
G02*
X21450400Y-6170000I20000J0D01*
G01*
X21450400Y-6424000D02*
G75*
G02*
X21410400Y-6424000I-20000J0D01*
G01*
X21410400Y-6424000D02*
G75*
G02*
X21450400Y-6424000I20000J0D01*
G01*
X21450400Y-6678000D02*
G75*
G02*
X21410400Y-6678000I-20000J0D01*
G01*
X21410400Y-6678000D02*
G75*
G02*
X21450400Y-6678000I20000J0D01*
G01*
X21450400Y-6932000D02*
G75*
G02*
X21410400Y-6932000I-20000J0D01*
G01*
X21410400Y-6932000D02*
G75*
G02*
X21450400Y-6932000I20000J0D01*
G01*
X21450400Y-7186000D02*
G75*
G02*
X21410400Y-7186000I-20000J0D01*
G01*
X21410400Y-7186000D02*
G75*
G02*
X21450400Y-7186000I20000J0D01*
G01*
X22130400Y-4392000D02*
G75*
G02*
X22090400Y-4392000I-20000J0D01*
G01*
X22090400Y-4392000D02*
G75*
G02*
X22130400Y-4392000I20000J0D01*
G01*
X22130400Y-4646000D02*
G75*
G02*
X22090400Y-4646000I-20000J0D01*
G01*
X22090400Y-4646000D02*
G75*
G02*
X22130400Y-4646000I20000J0D01*
G01*
X22130400Y-4900000D02*
G75*
G02*
X22090400Y-4900000I-20000J0D01*
G01*
X22090400Y-4900000D02*
G75*
G02*
X22130400Y-4900000I20000J0D01*
G01*
X22130400Y-5154000D02*
G75*
G02*
X22090400Y-5154000I-20000J0D01*
G01*
X22090400Y-5154000D02*
G75*
G02*
X22130400Y-5154000I20000J0D01*
G01*
X22130400Y-5408000D02*
G75*
G02*
X22090400Y-5408000I-20000J0D01*
G01*
X22090400Y-5408000D02*
G75*
G02*
X22130400Y-5408000I20000J0D01*
G01*
X22130400Y-5662000D02*
G75*
G02*
X22090400Y-5662000I-20000J0D01*
G01*
X22090400Y-5662000D02*
G75*
G02*
X22130400Y-5662000I20000J0D01*
G01*
X22130400Y-5916000D02*
G75*
G02*
X22090400Y-5916000I-20000J0D01*
G01*
X22090400Y-5916000D02*
G75*
G02*
X22130400Y-5916000I20000J0D01*
G01*
X22130400Y-6170000D02*
G75*
G02*
X22090400Y-6170000I-20000J0D01*
G01*
X22090400Y-6170000D02*
G75*
G02*
X22130400Y-6170000I20000J0D01*
G01*
X22130400Y-6424000D02*
G75*
G02*
X22090400Y-6424000I-20000J0D01*
G01*
X22090400Y-6424000D02*
G75*
G02*
X22130400Y-6424000I20000J0D01*
G01*
X22130400Y-6678000D02*
G75*
G02*
X22090400Y-6678000I-20000J0D01*
G01*
X22090400Y-6678000D02*
G75*
G02*
X22130400Y-6678000I20000J0D01*
G01*
X22130400Y-6932000D02*
G75*
G02*
X22090400Y-6932000I-20000J0D01*
G01*
X22090400Y-6932000D02*
G75*
G02*
X22130400Y-6932000I20000J0D01*
G01*
X22130400Y-7186000D02*
G75*
G02*
X22090400Y-7186000I-20000J0D01*
G01*
X22090400Y-7186000D02*
G75*
G02*
X22130400Y-7186000I20000J0D01*
G01*
X21475000Y-8212500D02*
X21475000Y-8287500D01*
X21437500Y-8250000D02*
X21512500Y-8250000D01*
X21475000Y-8412500D02*
X21475000Y-8487500D01*
X21437500Y-8450000D02*
X21512500Y-8450000D01*
X21043756Y-4427356D02*
X21043756Y-4356644D01*
X20973044Y-4356644D01*
X20973044Y-4427356D01*
X21043756Y-4427356D01*
X21043756Y-4681356D02*
X21043756Y-4610644D01*
X20973044Y-4610644D01*
X20973044Y-4681356D01*
X21043756Y-4681356D01*
X21043756Y-4935356D02*
X21043756Y-4864644D01*
X20973044Y-4864644D01*
X20973044Y-4935356D01*
X21043756Y-4935356D01*
X21043756Y-5189356D02*
X21043756Y-5118644D01*
X20973044Y-5118644D01*
X20973044Y-5189356D01*
X21043756Y-5189356D01*
X21043756Y-5443356D02*
X21043756Y-5372644D01*
X20973044Y-5372644D01*
X20973044Y-5443356D01*
X21043756Y-5443356D01*
X21043756Y-5697356D02*
X21043756Y-5626644D01*
X20973044Y-5626644D01*
X20973044Y-5697356D01*
X21043756Y-5697356D01*
X21043756Y-5951356D02*
X21043756Y-5880644D01*
X20973044Y-5880644D01*
X20973044Y-5951356D01*
X21043756Y-5951356D01*
X21043756Y-6205356D02*
X21043756Y-6134644D01*
X20973044Y-6134644D01*
X20973044Y-6205356D01*
X21043756Y-6205356D01*
X21043756Y-6459356D02*
X21043756Y-6388644D01*
X20973044Y-6388644D01*
X20973044Y-6459356D01*
X21043756Y-6459356D01*
X21043756Y-6713356D02*
X21043756Y-6642644D01*
X20973044Y-6642644D01*
X20973044Y-6713356D01*
X21043756Y-6713356D01*
X21043756Y-6967356D02*
X21043756Y-6896644D01*
X20973044Y-6896644D01*
X20973044Y-6967356D01*
X21043756Y-6967356D01*
X21043756Y-7221356D02*
X21043756Y-7150644D01*
X20973044Y-7150644D01*
X20973044Y-7221356D01*
X21043756Y-7221356D01*
X21292056Y-7605356D02*
X21292056Y-7534644D01*
X21221344Y-7534644D01*
X21221344Y-7605356D01*
X21292056Y-7605356D01*
X21546056Y-7605356D02*
X21546056Y-7534644D01*
X21475344Y-7534644D01*
X21475344Y-7605356D01*
X21546056Y-7605356D01*
X21800056Y-7605356D02*
X21800056Y-7534644D01*
X21729344Y-7534644D01*
X21729344Y-7605356D01*
X21800056Y-7605356D01*
X22054056Y-7605356D02*
X22054056Y-7534644D01*
X21983344Y-7534644D01*
X21983344Y-7605356D01*
X22054056Y-7605356D01*
X22308056Y-7605356D02*
X22308056Y-7534644D01*
X22237344Y-7534644D01*
X22237344Y-7605356D01*
X22308056Y-7605356D01*
X22567756Y-4427356D02*
X22567756Y-4356644D01*
X22497044Y-4356644D01*
X22497044Y-4427356D01*
X22567756Y-4427356D01*
X22567756Y-4681356D02*
X22567756Y-4610644D01*
X22497044Y-4610644D01*
X22497044Y-4681356D01*
X22567756Y-4681356D01*
X22567756Y-4935356D02*
X22567756Y-4864644D01*
X22497044Y-4864644D01*
X22497044Y-4935356D01*
X22567756Y-4935356D01*
X22567756Y-5189356D02*
X22567756Y-5118644D01*
X22497044Y-5118644D01*
X22497044Y-5189356D01*
X22567756Y-5189356D01*
X22567756Y-5443356D02*
X22567756Y-5372644D01*
X22497044Y-5372644D01*
X22497044Y-5443356D01*
X22567756Y-5443356D01*
X22567756Y-5697356D02*
X22567756Y-5626644D01*
X22497044Y-5626644D01*
X22497044Y-5697356D01*
X22567756Y-5697356D01*
X22567756Y-5951356D02*
X22567756Y-5880644D01*
X22497044Y-5880644D01*
X22497044Y-5951356D01*
X22567756Y-5951356D01*
X22567756Y-6205356D02*
X22567756Y-6134644D01*
X22497044Y-6134644D01*
X22497044Y-6205356D01*
X22567756Y-6205356D01*
X22567756Y-6459356D02*
X22567756Y-6388644D01*
X22497044Y-6388644D01*
X22497044Y-6459356D01*
X22567756Y-6459356D01*
X22567756Y-6713356D02*
X22567756Y-6642644D01*
X22497044Y-6642644D01*
X22497044Y-6713356D01*
X22567756Y-6713356D01*
X22567756Y-6967356D02*
X22567756Y-6896644D01*
X22497044Y-6896644D01*
X22497044Y-6967356D01*
X22567756Y-6967356D01*
X22567756Y-7221356D02*
X22567756Y-7150644D01*
X22497044Y-7150644D01*
X22497044Y-7221356D01*
X22567756Y-7221356D01*
D11*
X9361278Y-13774973D02*
X9361278Y-13574973D01*
X9361278Y-13574973D02*
X9408897Y-13574973D01*
X9408897Y-13574973D02*
X9437469Y-13584497D01*
X9437469Y-13584497D02*
X9456516Y-13603545D01*
X9456516Y-13603545D02*
X9466040Y-13622592D01*
X9466040Y-13622592D02*
X9475564Y-13660687D01*
X9475564Y-13660687D02*
X9475564Y-13689259D01*
X9475564Y-13689259D02*
X9466040Y-13727354D01*
X9466040Y-13727354D02*
X9456516Y-13746402D01*
X9456516Y-13746402D02*
X9437469Y-13765449D01*
X9437469Y-13765449D02*
X9408897Y-13774973D01*
X9408897Y-13774973D02*
X9361278Y-13774973D01*
X9561278Y-13774973D02*
X9561278Y-13641640D01*
X9561278Y-13679735D02*
X9570802Y-13660687D01*
X9570802Y-13660687D02*
X9580326Y-13651164D01*
X9580326Y-13651164D02*
X9599373Y-13641640D01*
X9599373Y-13641640D02*
X9618421Y-13641640D01*
X9685088Y-13774973D02*
X9685088Y-13641640D01*
X9685088Y-13574973D02*
X9675564Y-13584497D01*
X9675564Y-13584497D02*
X9685088Y-13594021D01*
X9685088Y-13594021D02*
X9694611Y-13584497D01*
X9694611Y-13584497D02*
X9685088Y-13574973D01*
X9685088Y-13574973D02*
X9685088Y-13594021D01*
X9808897Y-13774973D02*
X9789850Y-13765449D01*
X9789850Y-13765449D02*
X9780326Y-13746402D01*
X9780326Y-13746402D02*
X9780326Y-13574973D01*
X9913659Y-13774973D02*
X9894611Y-13765449D01*
X9894611Y-13765449D02*
X9885088Y-13746402D01*
X9885088Y-13746402D02*
X9885088Y-13574973D01*
X10142231Y-13774973D02*
X10142231Y-13574973D01*
X10142231Y-13574973D02*
X10208897Y-13717830D01*
X10208897Y-13717830D02*
X10275564Y-13574973D01*
X10275564Y-13574973D02*
X10275564Y-13774973D01*
X10456516Y-13774973D02*
X10456516Y-13670211D01*
X10456516Y-13670211D02*
X10446992Y-13651164D01*
X10446992Y-13651164D02*
X10427945Y-13641640D01*
X10427945Y-13641640D02*
X10389850Y-13641640D01*
X10389850Y-13641640D02*
X10370802Y-13651164D01*
X10456516Y-13765449D02*
X10437469Y-13774973D01*
X10437469Y-13774973D02*
X10389850Y-13774973D01*
X10389850Y-13774973D02*
X10370802Y-13765449D01*
X10370802Y-13765449D02*
X10361278Y-13746402D01*
X10361278Y-13746402D02*
X10361278Y-13727354D01*
X10361278Y-13727354D02*
X10370802Y-13708307D01*
X10370802Y-13708307D02*
X10389850Y-13698783D01*
X10389850Y-13698783D02*
X10437469Y-13698783D01*
X10437469Y-13698783D02*
X10456516Y-13689259D01*
X10551754Y-13641640D02*
X10551754Y-13841640D01*
X10551754Y-13651164D02*
X10570802Y-13641640D01*
X10570802Y-13641640D02*
X10608897Y-13641640D01*
X10608897Y-13641640D02*
X10627945Y-13651164D01*
X10627945Y-13651164D02*
X10637469Y-13660687D01*
X10637469Y-13660687D02*
X10646992Y-13679735D01*
X10646992Y-13679735D02*
X10646992Y-13736878D01*
X10646992Y-13736878D02*
X10637469Y-13755926D01*
X10637469Y-13755926D02*
X10627945Y-13765449D01*
X10627945Y-13765449D02*
X10608897Y-13774973D01*
X10608897Y-13774973D02*
X10570802Y-13774973D01*
X10570802Y-13774973D02*
X10551754Y-13765449D01*
X10732707Y-13755926D02*
X10742231Y-13765449D01*
X10742231Y-13765449D02*
X10732707Y-13774973D01*
X10732707Y-13774973D02*
X10723183Y-13765449D01*
X10723183Y-13765449D02*
X10732707Y-13755926D01*
X10732707Y-13755926D02*
X10732707Y-13774973D01*
X10732707Y-13651164D02*
X10742231Y-13660687D01*
X10742231Y-13660687D02*
X10732707Y-13670211D01*
X10732707Y-13670211D02*
X10723183Y-13660687D01*
X10723183Y-13660687D02*
X10732707Y-13651164D01*
X10732707Y-13651164D02*
X10732707Y-13670211D01*
D12*
X9070501Y-14088489D02*
X9100501Y-14118489D01*
X9100501Y-14088489D02*
X9070501Y-14118489D01*
D11*
X9399373Y-13994973D02*
X9418421Y-13994973D01*
X9418421Y-13994973D02*
X9437469Y-14004497D01*
X9437469Y-14004497D02*
X9446992Y-14014021D01*
X9446992Y-14014021D02*
X9456516Y-14033068D01*
X9456516Y-14033068D02*
X9466040Y-14071164D01*
X9466040Y-14071164D02*
X9466040Y-14118783D01*
X9466040Y-14118783D02*
X9456516Y-14156878D01*
X9456516Y-14156878D02*
X9446992Y-14175926D01*
X9446992Y-14175926D02*
X9437469Y-14185449D01*
X9437469Y-14185449D02*
X9418421Y-14194973D01*
X9418421Y-14194973D02*
X9399373Y-14194973D01*
X9399373Y-14194973D02*
X9380326Y-14185449D01*
X9380326Y-14185449D02*
X9370802Y-14175926D01*
X9370802Y-14175926D02*
X9361278Y-14156878D01*
X9361278Y-14156878D02*
X9351754Y-14118783D01*
X9351754Y-14118783D02*
X9351754Y-14071164D01*
X9351754Y-14071164D02*
X9361278Y-14033068D01*
X9361278Y-14033068D02*
X9370802Y-14014021D01*
X9370802Y-14014021D02*
X9380326Y-14004497D01*
X9380326Y-14004497D02*
X9399373Y-13994973D01*
X9551754Y-14175926D02*
X9561278Y-14185449D01*
X9561278Y-14185449D02*
X9551754Y-14194973D01*
X9551754Y-14194973D02*
X9542231Y-14185449D01*
X9542231Y-14185449D02*
X9551754Y-14175926D01*
X9551754Y-14175926D02*
X9551754Y-14194973D01*
X9627945Y-13994973D02*
X9751754Y-13994973D01*
X9751754Y-13994973D02*
X9685088Y-14071164D01*
X9685088Y-14071164D02*
X9713659Y-14071164D01*
X9713659Y-14071164D02*
X9732707Y-14080687D01*
X9732707Y-14080687D02*
X9742231Y-14090211D01*
X9742231Y-14090211D02*
X9751754Y-14109259D01*
X9751754Y-14109259D02*
X9751754Y-14156878D01*
X9751754Y-14156878D02*
X9742231Y-14175926D01*
X9742231Y-14175926D02*
X9732707Y-14185449D01*
X9732707Y-14185449D02*
X9713659Y-14194973D01*
X9713659Y-14194973D02*
X9656516Y-14194973D01*
X9656516Y-14194973D02*
X9637469Y-14185449D01*
X9637469Y-14185449D02*
X9627945Y-14175926D01*
X9875564Y-13994973D02*
X9894612Y-13994973D01*
X9894612Y-13994973D02*
X9913659Y-14004497D01*
X9913659Y-14004497D02*
X9923183Y-14014021D01*
X9923183Y-14014021D02*
X9932707Y-14033068D01*
X9932707Y-14033068D02*
X9942231Y-14071164D01*
X9942231Y-14071164D02*
X9942231Y-14118783D01*
X9942231Y-14118783D02*
X9932707Y-14156878D01*
X9932707Y-14156878D02*
X9923183Y-14175926D01*
X9923183Y-14175926D02*
X9913659Y-14185449D01*
X9913659Y-14185449D02*
X9894612Y-14194973D01*
X9894612Y-14194973D02*
X9875564Y-14194973D01*
X9875564Y-14194973D02*
X9856516Y-14185449D01*
X9856516Y-14185449D02*
X9846992Y-14175926D01*
X9846992Y-14175926D02*
X9837469Y-14156878D01*
X9837469Y-14156878D02*
X9827945Y-14118783D01*
X9827945Y-14118783D02*
X9827945Y-14071164D01*
X9827945Y-14071164D02*
X9837469Y-14033068D01*
X9837469Y-14033068D02*
X9846992Y-14014021D01*
X9846992Y-14014021D02*
X9856516Y-14004497D01*
X9856516Y-14004497D02*
X9875564Y-13994973D01*
X10066040Y-13994973D02*
X10085088Y-13994973D01*
X10085088Y-13994973D02*
X10104135Y-14004497D01*
X10104135Y-14004497D02*
X10113659Y-14014021D01*
X10113659Y-14014021D02*
X10123183Y-14033068D01*
X10123183Y-14033068D02*
X10132707Y-14071164D01*
X10132707Y-14071164D02*
X10132707Y-14118783D01*
X10132707Y-14118783D02*
X10123183Y-14156878D01*
X10123183Y-14156878D02*
X10113659Y-14175926D01*
X10113659Y-14175926D02*
X10104135Y-14185449D01*
X10104135Y-14185449D02*
X10085088Y-14194973D01*
X10085088Y-14194973D02*
X10066040Y-14194973D01*
X10066040Y-14194973D02*
X10046992Y-14185449D01*
X10046992Y-14185449D02*
X10037469Y-14175926D01*
X10037469Y-14175926D02*
X10027945Y-14156878D01*
X10027945Y-14156878D02*
X10018421Y-14118783D01*
X10018421Y-14118783D02*
X10018421Y-14071164D01*
X10018421Y-14071164D02*
X10027945Y-14033068D01*
X10027945Y-14033068D02*
X10037469Y-14014021D01*
X10037469Y-14014021D02*
X10046992Y-14004497D01*
X10046992Y-14004497D02*
X10066040Y-13994973D01*
X10218421Y-14194973D02*
X10218421Y-14061640D01*
X10218421Y-14080687D02*
X10227945Y-14071164D01*
X10227945Y-14071164D02*
X10246992Y-14061640D01*
X10246992Y-14061640D02*
X10275564Y-14061640D01*
X10275564Y-14061640D02*
X10294612Y-14071164D01*
X10294612Y-14071164D02*
X10304135Y-14090211D01*
X10304135Y-14090211D02*
X10304135Y-14194973D01*
X10304135Y-14090211D02*
X10313659Y-14071164D01*
X10313659Y-14071164D02*
X10332707Y-14061640D01*
X10332707Y-14061640D02*
X10361278Y-14061640D01*
X10361278Y-14061640D02*
X10380326Y-14071164D01*
X10380326Y-14071164D02*
X10389850Y-14090211D01*
X10389850Y-14090211D02*
X10389850Y-14194973D01*
X10485088Y-14194973D02*
X10485088Y-14061640D01*
X10485088Y-14080687D02*
X10494612Y-14071164D01*
X10494612Y-14071164D02*
X10513659Y-14061640D01*
X10513659Y-14061640D02*
X10542231Y-14061640D01*
X10542231Y-14061640D02*
X10561278Y-14071164D01*
X10561278Y-14071164D02*
X10570802Y-14090211D01*
X10570802Y-14090211D02*
X10570802Y-14194973D01*
X10570802Y-14090211D02*
X10580326Y-14071164D01*
X10580326Y-14071164D02*
X10599373Y-14061640D01*
X10599373Y-14061640D02*
X10627945Y-14061640D01*
X10627945Y-14061640D02*
X10646993Y-14071164D01*
X10646993Y-14071164D02*
X10656516Y-14090211D01*
X10656516Y-14090211D02*
X10656516Y-14194973D01*
X11046993Y-13985449D02*
X10875564Y-14242592D01*
X11304135Y-13994973D02*
X11323183Y-13994973D01*
X11323183Y-13994973D02*
X11342231Y-14004497D01*
X11342231Y-14004497D02*
X11351754Y-14014021D01*
X11351754Y-14014021D02*
X11361278Y-14033068D01*
X11361278Y-14033068D02*
X11370802Y-14071164D01*
X11370802Y-14071164D02*
X11370802Y-14118783D01*
X11370802Y-14118783D02*
X11361278Y-14156878D01*
X11361278Y-14156878D02*
X11351754Y-14175926D01*
X11351754Y-14175926D02*
X11342231Y-14185449D01*
X11342231Y-14185449D02*
X11323183Y-14194973D01*
X11323183Y-14194973D02*
X11304135Y-14194973D01*
X11304135Y-14194973D02*
X11285088Y-14185449D01*
X11285088Y-14185449D02*
X11275564Y-14175926D01*
X11275564Y-14175926D02*
X11266040Y-14156878D01*
X11266040Y-14156878D02*
X11256516Y-14118783D01*
X11256516Y-14118783D02*
X11256516Y-14071164D01*
X11256516Y-14071164D02*
X11266040Y-14033068D01*
X11266040Y-14033068D02*
X11275564Y-14014021D01*
X11275564Y-14014021D02*
X11285088Y-14004497D01*
X11285088Y-14004497D02*
X11304135Y-13994973D01*
X11456516Y-14175926D02*
X11466040Y-14185449D01*
X11466040Y-14185449D02*
X11456516Y-14194973D01*
X11456516Y-14194973D02*
X11446993Y-14185449D01*
X11446993Y-14185449D02*
X11456516Y-14175926D01*
X11456516Y-14175926D02*
X11456516Y-14194973D01*
X11589850Y-13994973D02*
X11608897Y-13994973D01*
X11608897Y-13994973D02*
X11627945Y-14004497D01*
X11627945Y-14004497D02*
X11637469Y-14014021D01*
X11637469Y-14014021D02*
X11646993Y-14033068D01*
X11646993Y-14033068D02*
X11656516Y-14071164D01*
X11656516Y-14071164D02*
X11656516Y-14118783D01*
X11656516Y-14118783D02*
X11646993Y-14156878D01*
X11646993Y-14156878D02*
X11637469Y-14175926D01*
X11637469Y-14175926D02*
X11627945Y-14185449D01*
X11627945Y-14185449D02*
X11608897Y-14194973D01*
X11608897Y-14194973D02*
X11589850Y-14194973D01*
X11589850Y-14194973D02*
X11570802Y-14185449D01*
X11570802Y-14185449D02*
X11561278Y-14175926D01*
X11561278Y-14175926D02*
X11551754Y-14156878D01*
X11551754Y-14156878D02*
X11542231Y-14118783D01*
X11542231Y-14118783D02*
X11542231Y-14071164D01*
X11542231Y-14071164D02*
X11551754Y-14033068D01*
X11551754Y-14033068D02*
X11561278Y-14014021D01*
X11561278Y-14014021D02*
X11570802Y-14004497D01*
X11570802Y-14004497D02*
X11589850Y-13994973D01*
X11846993Y-14194973D02*
X11732707Y-14194973D01*
X11789850Y-14194973D02*
X11789850Y-13994973D01*
X11789850Y-13994973D02*
X11770802Y-14023545D01*
X11770802Y-14023545D02*
X11751754Y-14042592D01*
X11751754Y-14042592D02*
X11732707Y-14052116D01*
X12037469Y-14194973D02*
X11923183Y-14194973D01*
X11980326Y-14194973D02*
X11980326Y-13994973D01*
X11980326Y-13994973D02*
X11961278Y-14023545D01*
X11961278Y-14023545D02*
X11942231Y-14042592D01*
X11942231Y-14042592D02*
X11923183Y-14052116D01*
X12151754Y-14080687D02*
X12132707Y-14071164D01*
X12132707Y-14071164D02*
X12123183Y-14061640D01*
X12123183Y-14061640D02*
X12113659Y-14042592D01*
X12113659Y-14042592D02*
X12113659Y-14033068D01*
X12113659Y-14033068D02*
X12123183Y-14014021D01*
X12123183Y-14014021D02*
X12132707Y-14004497D01*
X12132707Y-14004497D02*
X12151754Y-13994973D01*
X12151754Y-13994973D02*
X12189850Y-13994973D01*
X12189850Y-13994973D02*
X12208897Y-14004497D01*
X12208897Y-14004497D02*
X12218421Y-14014021D01*
X12218421Y-14014021D02*
X12227945Y-14033068D01*
X12227945Y-14033068D02*
X12227945Y-14042592D01*
X12227945Y-14042592D02*
X12218421Y-14061640D01*
X12218421Y-14061640D02*
X12208897Y-14071164D01*
X12208897Y-14071164D02*
X12189850Y-14080687D01*
X12189850Y-14080687D02*
X12151754Y-14080687D01*
X12151754Y-14080687D02*
X12132707Y-14090211D01*
X12132707Y-14090211D02*
X12123183Y-14099735D01*
X12123183Y-14099735D02*
X12113659Y-14118783D01*
X12113659Y-14118783D02*
X12113659Y-14156878D01*
X12113659Y-14156878D02*
X12123183Y-14175926D01*
X12123183Y-14175926D02*
X12132707Y-14185449D01*
X12132707Y-14185449D02*
X12151754Y-14194973D01*
X12151754Y-14194973D02*
X12189850Y-14194973D01*
X12189850Y-14194973D02*
X12208897Y-14185449D01*
X12208897Y-14185449D02*
X12218421Y-14175926D01*
X12218421Y-14175926D02*
X12227945Y-14156878D01*
X12227945Y-14156878D02*
X12227945Y-14118783D01*
X12227945Y-14118783D02*
X12218421Y-14099735D01*
X12218421Y-14099735D02*
X12208897Y-14090211D01*
X12208897Y-14090211D02*
X12189850Y-14080687D01*
X12304135Y-13994973D02*
X12304135Y-14033068D01*
X12380326Y-13994973D02*
X12380326Y-14033068D01*
X12675564Y-14271164D02*
X12666040Y-14261640D01*
X12666040Y-14261640D02*
X12646993Y-14233068D01*
X12646993Y-14233068D02*
X12637469Y-14214021D01*
X12637469Y-14214021D02*
X12627945Y-14185449D01*
X12627945Y-14185449D02*
X12618421Y-14137830D01*
X12618421Y-14137830D02*
X12618421Y-14099735D01*
X12618421Y-14099735D02*
X12627945Y-14052116D01*
X12627945Y-14052116D02*
X12637469Y-14023545D01*
X12637469Y-14023545D02*
X12646993Y-14004497D01*
X12646993Y-14004497D02*
X12666040Y-13975926D01*
X12666040Y-13975926D02*
X12675564Y-13966402D01*
X12837469Y-13994973D02*
X12799374Y-13994973D01*
X12799374Y-13994973D02*
X12780326Y-14004497D01*
X12780326Y-14004497D02*
X12770802Y-14014021D01*
X12770802Y-14014021D02*
X12751755Y-14042592D01*
X12751755Y-14042592D02*
X12742231Y-14080687D01*
X12742231Y-14080687D02*
X12742231Y-14156878D01*
X12742231Y-14156878D02*
X12751755Y-14175926D01*
X12751755Y-14175926D02*
X12761278Y-14185449D01*
X12761278Y-14185449D02*
X12780326Y-14194973D01*
X12780326Y-14194973D02*
X12818421Y-14194973D01*
X12818421Y-14194973D02*
X12837469Y-14185449D01*
X12837469Y-14185449D02*
X12846993Y-14175926D01*
X12846993Y-14175926D02*
X12856516Y-14156878D01*
X12856516Y-14156878D02*
X12856516Y-14109259D01*
X12856516Y-14109259D02*
X12846993Y-14090211D01*
X12846993Y-14090211D02*
X12837469Y-14080687D01*
X12837469Y-14080687D02*
X12818421Y-14071164D01*
X12818421Y-14071164D02*
X12780326Y-14071164D01*
X12780326Y-14071164D02*
X12761278Y-14080687D01*
X12761278Y-14080687D02*
X12751755Y-14090211D01*
X12751755Y-14090211D02*
X12742231Y-14109259D01*
X12980326Y-13994973D02*
X12999374Y-13994973D01*
X12999374Y-13994973D02*
X13018421Y-14004497D01*
X13018421Y-14004497D02*
X13027945Y-14014021D01*
X13027945Y-14014021D02*
X13037469Y-14033068D01*
X13037469Y-14033068D02*
X13046993Y-14071164D01*
X13046993Y-14071164D02*
X13046993Y-14118783D01*
X13046993Y-14118783D02*
X13037469Y-14156878D01*
X13037469Y-14156878D02*
X13027945Y-14175926D01*
X13027945Y-14175926D02*
X13018421Y-14185449D01*
X13018421Y-14185449D02*
X12999374Y-14194973D01*
X12999374Y-14194973D02*
X12980326Y-14194973D01*
X12980326Y-14194973D02*
X12961278Y-14185449D01*
X12961278Y-14185449D02*
X12951755Y-14175926D01*
X12951755Y-14175926D02*
X12942231Y-14156878D01*
X12942231Y-14156878D02*
X12932707Y-14118783D01*
X12932707Y-14118783D02*
X12932707Y-14071164D01*
X12932707Y-14071164D02*
X12942231Y-14033068D01*
X12942231Y-14033068D02*
X12951755Y-14014021D01*
X12951755Y-14014021D02*
X12961278Y-14004497D01*
X12961278Y-14004497D02*
X12980326Y-13994973D01*
X13285088Y-14194973D02*
X13285088Y-13994973D01*
X13370802Y-14194973D02*
X13370802Y-14090211D01*
X13370802Y-14090211D02*
X13361278Y-14071164D01*
X13361278Y-14071164D02*
X13342231Y-14061640D01*
X13342231Y-14061640D02*
X13313659Y-14061640D01*
X13313659Y-14061640D02*
X13294612Y-14071164D01*
X13294612Y-14071164D02*
X13285088Y-14080687D01*
X13494612Y-14194973D02*
X13475564Y-14185449D01*
X13475564Y-14185449D02*
X13466040Y-14175926D01*
X13466040Y-14175926D02*
X13456517Y-14156878D01*
X13456517Y-14156878D02*
X13456517Y-14099735D01*
X13456517Y-14099735D02*
X13466040Y-14080687D01*
X13466040Y-14080687D02*
X13475564Y-14071164D01*
X13475564Y-14071164D02*
X13494612Y-14061640D01*
X13494612Y-14061640D02*
X13523183Y-14061640D01*
X13523183Y-14061640D02*
X13542231Y-14071164D01*
X13542231Y-14071164D02*
X13551755Y-14080687D01*
X13551755Y-14080687D02*
X13561278Y-14099735D01*
X13561278Y-14099735D02*
X13561278Y-14156878D01*
X13561278Y-14156878D02*
X13551755Y-14175926D01*
X13551755Y-14175926D02*
X13542231Y-14185449D01*
X13542231Y-14185449D02*
X13523183Y-14194973D01*
X13523183Y-14194973D02*
X13494612Y-14194973D01*
X13675564Y-14194973D02*
X13656517Y-14185449D01*
X13656517Y-14185449D02*
X13646993Y-14166402D01*
X13646993Y-14166402D02*
X13646993Y-13994973D01*
X13827945Y-14185449D02*
X13808898Y-14194973D01*
X13808898Y-14194973D02*
X13770802Y-14194973D01*
X13770802Y-14194973D02*
X13751755Y-14185449D01*
X13751755Y-14185449D02*
X13742231Y-14166402D01*
X13742231Y-14166402D02*
X13742231Y-14090211D01*
X13742231Y-14090211D02*
X13751755Y-14071164D01*
X13751755Y-14071164D02*
X13770802Y-14061640D01*
X13770802Y-14061640D02*
X13808898Y-14061640D01*
X13808898Y-14061640D02*
X13827945Y-14071164D01*
X13827945Y-14071164D02*
X13837469Y-14090211D01*
X13837469Y-14090211D02*
X13837469Y-14109259D01*
X13837469Y-14109259D02*
X13742231Y-14128307D01*
X13913659Y-14185449D02*
X13932707Y-14194973D01*
X13932707Y-14194973D02*
X13970802Y-14194973D01*
X13970802Y-14194973D02*
X13989850Y-14185449D01*
X13989850Y-14185449D02*
X13999374Y-14166402D01*
X13999374Y-14166402D02*
X13999374Y-14156878D01*
X13999374Y-14156878D02*
X13989850Y-14137830D01*
X13989850Y-14137830D02*
X13970802Y-14128307D01*
X13970802Y-14128307D02*
X13942231Y-14128307D01*
X13942231Y-14128307D02*
X13923183Y-14118783D01*
X13923183Y-14118783D02*
X13913659Y-14099735D01*
X13913659Y-14099735D02*
X13913659Y-14090211D01*
X13913659Y-14090211D02*
X13923183Y-14071164D01*
X13923183Y-14071164D02*
X13942231Y-14061640D01*
X13942231Y-14061640D02*
X13970802Y-14061640D01*
X13970802Y-14061640D02*
X13989850Y-14071164D01*
X14066040Y-14271164D02*
X14075564Y-14261640D01*
X14075564Y-14261640D02*
X14094612Y-14233068D01*
X14094612Y-14233068D02*
X14104136Y-14214021D01*
X14104136Y-14214021D02*
X14113659Y-14185449D01*
X14113659Y-14185449D02*
X14123183Y-14137830D01*
X14123183Y-14137830D02*
X14123183Y-14099735D01*
X14123183Y-14099735D02*
X14113659Y-14052116D01*
X14113659Y-14052116D02*
X14104136Y-14023545D01*
X14104136Y-14023545D02*
X14094612Y-14004497D01*
X14094612Y-14004497D02*
X14075564Y-13975926D01*
X14075564Y-13975926D02*
X14066040Y-13966402D01*
D12*
X9100501Y-14367489D02*
G75*
G02*
X9060501Y-14367489I-20000J0D01*
G01*
X9060501Y-14367489D02*
G75*
G02*
X9100501Y-14367489I20000J0D01*
G01*
D11*
X9399373Y-14258973D02*
X9418421Y-14258973D01*
X9418421Y-14258973D02*
X9437469Y-14268497D01*
X9437469Y-14268497D02*
X9446992Y-14278021D01*
X9446992Y-14278021D02*
X9456516Y-14297068D01*
X9456516Y-14297068D02*
X9466040Y-14335164D01*
X9466040Y-14335164D02*
X9466040Y-14382783D01*
X9466040Y-14382783D02*
X9456516Y-14420878D01*
X9456516Y-14420878D02*
X9446992Y-14439926D01*
X9446992Y-14439926D02*
X9437469Y-14449449D01*
X9437469Y-14449449D02*
X9418421Y-14458973D01*
X9418421Y-14458973D02*
X9399373Y-14458973D01*
X9399373Y-14458973D02*
X9380326Y-14449449D01*
X9380326Y-14449449D02*
X9370802Y-14439926D01*
X9370802Y-14439926D02*
X9361278Y-14420878D01*
X9361278Y-14420878D02*
X9351754Y-14382783D01*
X9351754Y-14382783D02*
X9351754Y-14335164D01*
X9351754Y-14335164D02*
X9361278Y-14297068D01*
X9361278Y-14297068D02*
X9370802Y-14278021D01*
X9370802Y-14278021D02*
X9380326Y-14268497D01*
X9380326Y-14268497D02*
X9399373Y-14258973D01*
X9551754Y-14439926D02*
X9561278Y-14449449D01*
X9561278Y-14449449D02*
X9551754Y-14458973D01*
X9551754Y-14458973D02*
X9542231Y-14449449D01*
X9542231Y-14449449D02*
X9551754Y-14439926D01*
X9551754Y-14439926D02*
X9551754Y-14458973D01*
X9732707Y-14325640D02*
X9732707Y-14458973D01*
X9685088Y-14249449D02*
X9637469Y-14392307D01*
X9637469Y-14392307D02*
X9761278Y-14392307D01*
X9875564Y-14258973D02*
X9894612Y-14258973D01*
X9894612Y-14258973D02*
X9913659Y-14268497D01*
X9913659Y-14268497D02*
X9923183Y-14278021D01*
X9923183Y-14278021D02*
X9932707Y-14297068D01*
X9932707Y-14297068D02*
X9942231Y-14335164D01*
X9942231Y-14335164D02*
X9942231Y-14382783D01*
X9942231Y-14382783D02*
X9932707Y-14420878D01*
X9932707Y-14420878D02*
X9923183Y-14439926D01*
X9923183Y-14439926D02*
X9913659Y-14449449D01*
X9913659Y-14449449D02*
X9894612Y-14458973D01*
X9894612Y-14458973D02*
X9875564Y-14458973D01*
X9875564Y-14458973D02*
X9856516Y-14449449D01*
X9856516Y-14449449D02*
X9846992Y-14439926D01*
X9846992Y-14439926D02*
X9837469Y-14420878D01*
X9837469Y-14420878D02*
X9827945Y-14382783D01*
X9827945Y-14382783D02*
X9827945Y-14335164D01*
X9827945Y-14335164D02*
X9837469Y-14297068D01*
X9837469Y-14297068D02*
X9846992Y-14278021D01*
X9846992Y-14278021D02*
X9856516Y-14268497D01*
X9856516Y-14268497D02*
X9875564Y-14258973D01*
X10066040Y-14258973D02*
X10085088Y-14258973D01*
X10085088Y-14258973D02*
X10104135Y-14268497D01*
X10104135Y-14268497D02*
X10113659Y-14278021D01*
X10113659Y-14278021D02*
X10123183Y-14297068D01*
X10123183Y-14297068D02*
X10132707Y-14335164D01*
X10132707Y-14335164D02*
X10132707Y-14382783D01*
X10132707Y-14382783D02*
X10123183Y-14420878D01*
X10123183Y-14420878D02*
X10113659Y-14439926D01*
X10113659Y-14439926D02*
X10104135Y-14449449D01*
X10104135Y-14449449D02*
X10085088Y-14458973D01*
X10085088Y-14458973D02*
X10066040Y-14458973D01*
X10066040Y-14458973D02*
X10046992Y-14449449D01*
X10046992Y-14449449D02*
X10037469Y-14439926D01*
X10037469Y-14439926D02*
X10027945Y-14420878D01*
X10027945Y-14420878D02*
X10018421Y-14382783D01*
X10018421Y-14382783D02*
X10018421Y-14335164D01*
X10018421Y-14335164D02*
X10027945Y-14297068D01*
X10027945Y-14297068D02*
X10037469Y-14278021D01*
X10037469Y-14278021D02*
X10046992Y-14268497D01*
X10046992Y-14268497D02*
X10066040Y-14258973D01*
X10218421Y-14458973D02*
X10218421Y-14325640D01*
X10218421Y-14344687D02*
X10227945Y-14335164D01*
X10227945Y-14335164D02*
X10246992Y-14325640D01*
X10246992Y-14325640D02*
X10275564Y-14325640D01*
X10275564Y-14325640D02*
X10294612Y-14335164D01*
X10294612Y-14335164D02*
X10304135Y-14354211D01*
X10304135Y-14354211D02*
X10304135Y-14458973D01*
X10304135Y-14354211D02*
X10313659Y-14335164D01*
X10313659Y-14335164D02*
X10332707Y-14325640D01*
X10332707Y-14325640D02*
X10361278Y-14325640D01*
X10361278Y-14325640D02*
X10380326Y-14335164D01*
X10380326Y-14335164D02*
X10389850Y-14354211D01*
X10389850Y-14354211D02*
X10389850Y-14458973D01*
X10485088Y-14458973D02*
X10485088Y-14325640D01*
X10485088Y-14344687D02*
X10494612Y-14335164D01*
X10494612Y-14335164D02*
X10513659Y-14325640D01*
X10513659Y-14325640D02*
X10542231Y-14325640D01*
X10542231Y-14325640D02*
X10561278Y-14335164D01*
X10561278Y-14335164D02*
X10570802Y-14354211D01*
X10570802Y-14354211D02*
X10570802Y-14458973D01*
X10570802Y-14354211D02*
X10580326Y-14335164D01*
X10580326Y-14335164D02*
X10599373Y-14325640D01*
X10599373Y-14325640D02*
X10627945Y-14325640D01*
X10627945Y-14325640D02*
X10646993Y-14335164D01*
X10646993Y-14335164D02*
X10656516Y-14354211D01*
X10656516Y-14354211D02*
X10656516Y-14458973D01*
X11046993Y-14249449D02*
X10875564Y-14506592D01*
X11304135Y-14258973D02*
X11323183Y-14258973D01*
X11323183Y-14258973D02*
X11342231Y-14268497D01*
X11342231Y-14268497D02*
X11351754Y-14278021D01*
X11351754Y-14278021D02*
X11361278Y-14297068D01*
X11361278Y-14297068D02*
X11370802Y-14335164D01*
X11370802Y-14335164D02*
X11370802Y-14382783D01*
X11370802Y-14382783D02*
X11361278Y-14420878D01*
X11361278Y-14420878D02*
X11351754Y-14439926D01*
X11351754Y-14439926D02*
X11342231Y-14449449D01*
X11342231Y-14449449D02*
X11323183Y-14458973D01*
X11323183Y-14458973D02*
X11304135Y-14458973D01*
X11304135Y-14458973D02*
X11285088Y-14449449D01*
X11285088Y-14449449D02*
X11275564Y-14439926D01*
X11275564Y-14439926D02*
X11266040Y-14420878D01*
X11266040Y-14420878D02*
X11256516Y-14382783D01*
X11256516Y-14382783D02*
X11256516Y-14335164D01*
X11256516Y-14335164D02*
X11266040Y-14297068D01*
X11266040Y-14297068D02*
X11275564Y-14278021D01*
X11275564Y-14278021D02*
X11285088Y-14268497D01*
X11285088Y-14268497D02*
X11304135Y-14258973D01*
X11456516Y-14439926D02*
X11466040Y-14449449D01*
X11466040Y-14449449D02*
X11456516Y-14458973D01*
X11456516Y-14458973D02*
X11446993Y-14449449D01*
X11446993Y-14449449D02*
X11456516Y-14439926D01*
X11456516Y-14439926D02*
X11456516Y-14458973D01*
X11589850Y-14258973D02*
X11608897Y-14258973D01*
X11608897Y-14258973D02*
X11627945Y-14268497D01*
X11627945Y-14268497D02*
X11637469Y-14278021D01*
X11637469Y-14278021D02*
X11646993Y-14297068D01*
X11646993Y-14297068D02*
X11656516Y-14335164D01*
X11656516Y-14335164D02*
X11656516Y-14382783D01*
X11656516Y-14382783D02*
X11646993Y-14420878D01*
X11646993Y-14420878D02*
X11637469Y-14439926D01*
X11637469Y-14439926D02*
X11627945Y-14449449D01*
X11627945Y-14449449D02*
X11608897Y-14458973D01*
X11608897Y-14458973D02*
X11589850Y-14458973D01*
X11589850Y-14458973D02*
X11570802Y-14449449D01*
X11570802Y-14449449D02*
X11561278Y-14439926D01*
X11561278Y-14439926D02*
X11551754Y-14420878D01*
X11551754Y-14420878D02*
X11542231Y-14382783D01*
X11542231Y-14382783D02*
X11542231Y-14335164D01*
X11542231Y-14335164D02*
X11551754Y-14297068D01*
X11551754Y-14297068D02*
X11561278Y-14278021D01*
X11561278Y-14278021D02*
X11570802Y-14268497D01*
X11570802Y-14268497D02*
X11589850Y-14258973D01*
X11846993Y-14458973D02*
X11732707Y-14458973D01*
X11789850Y-14458973D02*
X11789850Y-14258973D01*
X11789850Y-14258973D02*
X11770802Y-14287545D01*
X11770802Y-14287545D02*
X11751754Y-14306592D01*
X11751754Y-14306592D02*
X11732707Y-14316116D01*
X12027945Y-14258973D02*
X11932707Y-14258973D01*
X11932707Y-14258973D02*
X11923183Y-14354211D01*
X11923183Y-14354211D02*
X11932707Y-14344687D01*
X11932707Y-14344687D02*
X11951754Y-14335164D01*
X11951754Y-14335164D02*
X11999374Y-14335164D01*
X11999374Y-14335164D02*
X12018421Y-14344687D01*
X12018421Y-14344687D02*
X12027945Y-14354211D01*
X12027945Y-14354211D02*
X12037469Y-14373259D01*
X12037469Y-14373259D02*
X12037469Y-14420878D01*
X12037469Y-14420878D02*
X12027945Y-14439926D01*
X12027945Y-14439926D02*
X12018421Y-14449449D01*
X12018421Y-14449449D02*
X11999374Y-14458973D01*
X11999374Y-14458973D02*
X11951754Y-14458973D01*
X11951754Y-14458973D02*
X11932707Y-14449449D01*
X11932707Y-14449449D02*
X11923183Y-14439926D01*
X12104135Y-14258973D02*
X12237469Y-14258973D01*
X12237469Y-14258973D02*
X12151754Y-14458973D01*
X12304135Y-14258973D02*
X12304135Y-14297068D01*
X12380326Y-14258973D02*
X12380326Y-14297068D01*
X12675564Y-14535164D02*
X12666040Y-14525640D01*
X12666040Y-14525640D02*
X12646993Y-14497068D01*
X12646993Y-14497068D02*
X12637469Y-14478021D01*
X12637469Y-14478021D02*
X12627945Y-14449449D01*
X12627945Y-14449449D02*
X12618421Y-14401830D01*
X12618421Y-14401830D02*
X12618421Y-14363735D01*
X12618421Y-14363735D02*
X12627945Y-14316116D01*
X12627945Y-14316116D02*
X12637469Y-14287545D01*
X12637469Y-14287545D02*
X12646993Y-14268497D01*
X12646993Y-14268497D02*
X12666040Y-14239926D01*
X12666040Y-14239926D02*
X12675564Y-14230402D01*
X12742231Y-14278021D02*
X12751755Y-14268497D01*
X12751755Y-14268497D02*
X12770802Y-14258973D01*
X12770802Y-14258973D02*
X12818421Y-14258973D01*
X12818421Y-14258973D02*
X12837469Y-14268497D01*
X12837469Y-14268497D02*
X12846993Y-14278021D01*
X12846993Y-14278021D02*
X12856516Y-14297068D01*
X12856516Y-14297068D02*
X12856516Y-14316116D01*
X12856516Y-14316116D02*
X12846993Y-14344687D01*
X12846993Y-14344687D02*
X12732707Y-14458973D01*
X12732707Y-14458973D02*
X12856516Y-14458973D01*
X13027945Y-14325640D02*
X13027945Y-14458973D01*
X12980326Y-14249449D02*
X12932707Y-14392307D01*
X12932707Y-14392307D02*
X13056516Y-14392307D01*
X13285088Y-14458973D02*
X13285088Y-14258973D01*
X13370802Y-14458973D02*
X13370802Y-14354211D01*
X13370802Y-14354211D02*
X13361278Y-14335164D01*
X13361278Y-14335164D02*
X13342231Y-14325640D01*
X13342231Y-14325640D02*
X13313659Y-14325640D01*
X13313659Y-14325640D02*
X13294612Y-14335164D01*
X13294612Y-14335164D02*
X13285088Y-14344687D01*
X13494612Y-14458973D02*
X13475564Y-14449449D01*
X13475564Y-14449449D02*
X13466040Y-14439926D01*
X13466040Y-14439926D02*
X13456517Y-14420878D01*
X13456517Y-14420878D02*
X13456517Y-14363735D01*
X13456517Y-14363735D02*
X13466040Y-14344687D01*
X13466040Y-14344687D02*
X13475564Y-14335164D01*
X13475564Y-14335164D02*
X13494612Y-14325640D01*
X13494612Y-14325640D02*
X13523183Y-14325640D01*
X13523183Y-14325640D02*
X13542231Y-14335164D01*
X13542231Y-14335164D02*
X13551755Y-14344687D01*
X13551755Y-14344687D02*
X13561278Y-14363735D01*
X13561278Y-14363735D02*
X13561278Y-14420878D01*
X13561278Y-14420878D02*
X13551755Y-14439926D01*
X13551755Y-14439926D02*
X13542231Y-14449449D01*
X13542231Y-14449449D02*
X13523183Y-14458973D01*
X13523183Y-14458973D02*
X13494612Y-14458973D01*
X13675564Y-14458973D02*
X13656517Y-14449449D01*
X13656517Y-14449449D02*
X13646993Y-14430402D01*
X13646993Y-14430402D02*
X13646993Y-14258973D01*
X13827945Y-14449449D02*
X13808898Y-14458973D01*
X13808898Y-14458973D02*
X13770802Y-14458973D01*
X13770802Y-14458973D02*
X13751755Y-14449449D01*
X13751755Y-14449449D02*
X13742231Y-14430402D01*
X13742231Y-14430402D02*
X13742231Y-14354211D01*
X13742231Y-14354211D02*
X13751755Y-14335164D01*
X13751755Y-14335164D02*
X13770802Y-14325640D01*
X13770802Y-14325640D02*
X13808898Y-14325640D01*
X13808898Y-14325640D02*
X13827945Y-14335164D01*
X13827945Y-14335164D02*
X13837469Y-14354211D01*
X13837469Y-14354211D02*
X13837469Y-14373259D01*
X13837469Y-14373259D02*
X13742231Y-14392307D01*
X13913659Y-14449449D02*
X13932707Y-14458973D01*
X13932707Y-14458973D02*
X13970802Y-14458973D01*
X13970802Y-14458973D02*
X13989850Y-14449449D01*
X13989850Y-14449449D02*
X13999374Y-14430402D01*
X13999374Y-14430402D02*
X13999374Y-14420878D01*
X13999374Y-14420878D02*
X13989850Y-14401830D01*
X13989850Y-14401830D02*
X13970802Y-14392307D01*
X13970802Y-14392307D02*
X13942231Y-14392307D01*
X13942231Y-14392307D02*
X13923183Y-14382783D01*
X13923183Y-14382783D02*
X13913659Y-14363735D01*
X13913659Y-14363735D02*
X13913659Y-14354211D01*
X13913659Y-14354211D02*
X13923183Y-14335164D01*
X13923183Y-14335164D02*
X13942231Y-14325640D01*
X13942231Y-14325640D02*
X13970802Y-14325640D01*
X13970802Y-14325640D02*
X13989850Y-14335164D01*
X14066040Y-14535164D02*
X14075564Y-14525640D01*
X14075564Y-14525640D02*
X14094612Y-14497068D01*
X14094612Y-14497068D02*
X14104136Y-14478021D01*
X14104136Y-14478021D02*
X14113659Y-14449449D01*
X14113659Y-14449449D02*
X14123183Y-14401830D01*
X14123183Y-14401830D02*
X14123183Y-14363735D01*
X14123183Y-14363735D02*
X14113659Y-14316116D01*
X14113659Y-14316116D02*
X14104136Y-14287545D01*
X14104136Y-14287545D02*
X14094612Y-14268497D01*
X14094612Y-14268497D02*
X14075564Y-14239926D01*
X14075564Y-14239926D02*
X14066040Y-14230402D01*
D12*
X9063001Y-14593989D02*
X9063001Y-14668989D01*
X9025501Y-14631489D02*
X9100501Y-14631489D01*
D11*
X9399373Y-14522973D02*
X9418421Y-14522973D01*
X9418421Y-14522973D02*
X9437469Y-14532497D01*
X9437469Y-14532497D02*
X9446992Y-14542021D01*
X9446992Y-14542021D02*
X9456516Y-14561068D01*
X9456516Y-14561068D02*
X9466040Y-14599164D01*
X9466040Y-14599164D02*
X9466040Y-14646783D01*
X9466040Y-14646783D02*
X9456516Y-14684878D01*
X9456516Y-14684878D02*
X9446992Y-14703926D01*
X9446992Y-14703926D02*
X9437469Y-14713449D01*
X9437469Y-14713449D02*
X9418421Y-14722973D01*
X9418421Y-14722973D02*
X9399373Y-14722973D01*
X9399373Y-14722973D02*
X9380326Y-14713449D01*
X9380326Y-14713449D02*
X9370802Y-14703926D01*
X9370802Y-14703926D02*
X9361278Y-14684878D01*
X9361278Y-14684878D02*
X9351754Y-14646783D01*
X9351754Y-14646783D02*
X9351754Y-14599164D01*
X9351754Y-14599164D02*
X9361278Y-14561068D01*
X9361278Y-14561068D02*
X9370802Y-14542021D01*
X9370802Y-14542021D02*
X9380326Y-14532497D01*
X9380326Y-14532497D02*
X9399373Y-14522973D01*
X9551754Y-14703926D02*
X9561278Y-14713449D01*
X9561278Y-14713449D02*
X9551754Y-14722973D01*
X9551754Y-14722973D02*
X9542231Y-14713449D01*
X9542231Y-14713449D02*
X9551754Y-14703926D01*
X9551754Y-14703926D02*
X9551754Y-14722973D01*
X9627945Y-14522973D02*
X9761278Y-14522973D01*
X9761278Y-14522973D02*
X9675564Y-14722973D01*
X9932707Y-14522973D02*
X9837469Y-14522973D01*
X9837469Y-14522973D02*
X9827945Y-14618211D01*
X9827945Y-14618211D02*
X9837469Y-14608687D01*
X9837469Y-14608687D02*
X9856516Y-14599164D01*
X9856516Y-14599164D02*
X9904135Y-14599164D01*
X9904135Y-14599164D02*
X9923183Y-14608687D01*
X9923183Y-14608687D02*
X9932707Y-14618211D01*
X9932707Y-14618211D02*
X9942231Y-14637259D01*
X9942231Y-14637259D02*
X9942231Y-14684878D01*
X9942231Y-14684878D02*
X9932707Y-14703926D01*
X9932707Y-14703926D02*
X9923183Y-14713449D01*
X9923183Y-14713449D02*
X9904135Y-14722973D01*
X9904135Y-14722973D02*
X9856516Y-14722973D01*
X9856516Y-14722973D02*
X9837469Y-14713449D01*
X9837469Y-14713449D02*
X9827945Y-14703926D01*
X10066040Y-14522973D02*
X10085088Y-14522973D01*
X10085088Y-14522973D02*
X10104135Y-14532497D01*
X10104135Y-14532497D02*
X10113659Y-14542021D01*
X10113659Y-14542021D02*
X10123183Y-14561068D01*
X10123183Y-14561068D02*
X10132707Y-14599164D01*
X10132707Y-14599164D02*
X10132707Y-14646783D01*
X10132707Y-14646783D02*
X10123183Y-14684878D01*
X10123183Y-14684878D02*
X10113659Y-14703926D01*
X10113659Y-14703926D02*
X10104135Y-14713449D01*
X10104135Y-14713449D02*
X10085088Y-14722973D01*
X10085088Y-14722973D02*
X10066040Y-14722973D01*
X10066040Y-14722973D02*
X10046992Y-14713449D01*
X10046992Y-14713449D02*
X10037469Y-14703926D01*
X10037469Y-14703926D02*
X10027945Y-14684878D01*
X10027945Y-14684878D02*
X10018421Y-14646783D01*
X10018421Y-14646783D02*
X10018421Y-14599164D01*
X10018421Y-14599164D02*
X10027945Y-14561068D01*
X10027945Y-14561068D02*
X10037469Y-14542021D01*
X10037469Y-14542021D02*
X10046992Y-14532497D01*
X10046992Y-14532497D02*
X10066040Y-14522973D01*
X10218421Y-14722973D02*
X10218421Y-14589640D01*
X10218421Y-14608687D02*
X10227945Y-14599164D01*
X10227945Y-14599164D02*
X10246992Y-14589640D01*
X10246992Y-14589640D02*
X10275564Y-14589640D01*
X10275564Y-14589640D02*
X10294612Y-14599164D01*
X10294612Y-14599164D02*
X10304135Y-14618211D01*
X10304135Y-14618211D02*
X10304135Y-14722973D01*
X10304135Y-14618211D02*
X10313659Y-14599164D01*
X10313659Y-14599164D02*
X10332707Y-14589640D01*
X10332707Y-14589640D02*
X10361278Y-14589640D01*
X10361278Y-14589640D02*
X10380326Y-14599164D01*
X10380326Y-14599164D02*
X10389850Y-14618211D01*
X10389850Y-14618211D02*
X10389850Y-14722973D01*
X10485088Y-14722973D02*
X10485088Y-14589640D01*
X10485088Y-14608687D02*
X10494612Y-14599164D01*
X10494612Y-14599164D02*
X10513659Y-14589640D01*
X10513659Y-14589640D02*
X10542231Y-14589640D01*
X10542231Y-14589640D02*
X10561278Y-14599164D01*
X10561278Y-14599164D02*
X10570802Y-14618211D01*
X10570802Y-14618211D02*
X10570802Y-14722973D01*
X10570802Y-14618211D02*
X10580326Y-14599164D01*
X10580326Y-14599164D02*
X10599373Y-14589640D01*
X10599373Y-14589640D02*
X10627945Y-14589640D01*
X10627945Y-14589640D02*
X10646993Y-14599164D01*
X10646993Y-14599164D02*
X10656516Y-14618211D01*
X10656516Y-14618211D02*
X10656516Y-14722973D01*
X11046993Y-14513449D02*
X10875564Y-14770592D01*
X11304135Y-14522973D02*
X11323183Y-14522973D01*
X11323183Y-14522973D02*
X11342231Y-14532497D01*
X11342231Y-14532497D02*
X11351754Y-14542021D01*
X11351754Y-14542021D02*
X11361278Y-14561068D01*
X11361278Y-14561068D02*
X11370802Y-14599164D01*
X11370802Y-14599164D02*
X11370802Y-14646783D01*
X11370802Y-14646783D02*
X11361278Y-14684878D01*
X11361278Y-14684878D02*
X11351754Y-14703926D01*
X11351754Y-14703926D02*
X11342231Y-14713449D01*
X11342231Y-14713449D02*
X11323183Y-14722973D01*
X11323183Y-14722973D02*
X11304135Y-14722973D01*
X11304135Y-14722973D02*
X11285088Y-14713449D01*
X11285088Y-14713449D02*
X11275564Y-14703926D01*
X11275564Y-14703926D02*
X11266040Y-14684878D01*
X11266040Y-14684878D02*
X11256516Y-14646783D01*
X11256516Y-14646783D02*
X11256516Y-14599164D01*
X11256516Y-14599164D02*
X11266040Y-14561068D01*
X11266040Y-14561068D02*
X11275564Y-14542021D01*
X11275564Y-14542021D02*
X11285088Y-14532497D01*
X11285088Y-14532497D02*
X11304135Y-14522973D01*
X11456516Y-14703926D02*
X11466040Y-14713449D01*
X11466040Y-14713449D02*
X11456516Y-14722973D01*
X11456516Y-14722973D02*
X11446993Y-14713449D01*
X11446993Y-14713449D02*
X11456516Y-14703926D01*
X11456516Y-14703926D02*
X11456516Y-14722973D01*
X11589850Y-14522973D02*
X11608897Y-14522973D01*
X11608897Y-14522973D02*
X11627945Y-14532497D01*
X11627945Y-14532497D02*
X11637469Y-14542021D01*
X11637469Y-14542021D02*
X11646993Y-14561068D01*
X11646993Y-14561068D02*
X11656516Y-14599164D01*
X11656516Y-14599164D02*
X11656516Y-14646783D01*
X11656516Y-14646783D02*
X11646993Y-14684878D01*
X11646993Y-14684878D02*
X11637469Y-14703926D01*
X11637469Y-14703926D02*
X11627945Y-14713449D01*
X11627945Y-14713449D02*
X11608897Y-14722973D01*
X11608897Y-14722973D02*
X11589850Y-14722973D01*
X11589850Y-14722973D02*
X11570802Y-14713449D01*
X11570802Y-14713449D02*
X11561278Y-14703926D01*
X11561278Y-14703926D02*
X11551754Y-14684878D01*
X11551754Y-14684878D02*
X11542231Y-14646783D01*
X11542231Y-14646783D02*
X11542231Y-14599164D01*
X11542231Y-14599164D02*
X11551754Y-14561068D01*
X11551754Y-14561068D02*
X11561278Y-14542021D01*
X11561278Y-14542021D02*
X11570802Y-14532497D01*
X11570802Y-14532497D02*
X11589850Y-14522973D01*
X11732707Y-14542021D02*
X11742231Y-14532497D01*
X11742231Y-14532497D02*
X11761278Y-14522973D01*
X11761278Y-14522973D02*
X11808897Y-14522973D01*
X11808897Y-14522973D02*
X11827945Y-14532497D01*
X11827945Y-14532497D02*
X11837469Y-14542021D01*
X11837469Y-14542021D02*
X11846993Y-14561068D01*
X11846993Y-14561068D02*
X11846993Y-14580116D01*
X11846993Y-14580116D02*
X11837469Y-14608687D01*
X11837469Y-14608687D02*
X11723183Y-14722973D01*
X11723183Y-14722973D02*
X11846993Y-14722973D01*
X11942231Y-14722973D02*
X11980326Y-14722973D01*
X11980326Y-14722973D02*
X11999374Y-14713449D01*
X11999374Y-14713449D02*
X12008897Y-14703926D01*
X12008897Y-14703926D02*
X12027945Y-14675354D01*
X12027945Y-14675354D02*
X12037469Y-14637259D01*
X12037469Y-14637259D02*
X12037469Y-14561068D01*
X12037469Y-14561068D02*
X12027945Y-14542021D01*
X12027945Y-14542021D02*
X12018421Y-14532497D01*
X12018421Y-14532497D02*
X11999374Y-14522973D01*
X11999374Y-14522973D02*
X11961278Y-14522973D01*
X11961278Y-14522973D02*
X11942231Y-14532497D01*
X11942231Y-14532497D02*
X11932707Y-14542021D01*
X11932707Y-14542021D02*
X11923183Y-14561068D01*
X11923183Y-14561068D02*
X11923183Y-14608687D01*
X11923183Y-14608687D02*
X11932707Y-14627735D01*
X11932707Y-14627735D02*
X11942231Y-14637259D01*
X11942231Y-14637259D02*
X11961278Y-14646783D01*
X11961278Y-14646783D02*
X11999374Y-14646783D01*
X11999374Y-14646783D02*
X12018421Y-14637259D01*
X12018421Y-14637259D02*
X12027945Y-14627735D01*
X12027945Y-14627735D02*
X12037469Y-14608687D01*
X12218421Y-14522973D02*
X12123183Y-14522973D01*
X12123183Y-14522973D02*
X12113659Y-14618211D01*
X12113659Y-14618211D02*
X12123183Y-14608687D01*
X12123183Y-14608687D02*
X12142231Y-14599164D01*
X12142231Y-14599164D02*
X12189850Y-14599164D01*
X12189850Y-14599164D02*
X12208897Y-14608687D01*
X12208897Y-14608687D02*
X12218421Y-14618211D01*
X12218421Y-14618211D02*
X12227945Y-14637259D01*
X12227945Y-14637259D02*
X12227945Y-14684878D01*
X12227945Y-14684878D02*
X12218421Y-14703926D01*
X12218421Y-14703926D02*
X12208897Y-14713449D01*
X12208897Y-14713449D02*
X12189850Y-14722973D01*
X12189850Y-14722973D02*
X12142231Y-14722973D01*
X12142231Y-14722973D02*
X12123183Y-14713449D01*
X12123183Y-14713449D02*
X12113659Y-14703926D01*
X12304135Y-14522973D02*
X12304135Y-14561068D01*
X12380326Y-14522973D02*
X12380326Y-14561068D01*
X12675564Y-14799164D02*
X12666040Y-14789640D01*
X12666040Y-14789640D02*
X12646993Y-14761068D01*
X12646993Y-14761068D02*
X12637469Y-14742021D01*
X12637469Y-14742021D02*
X12627945Y-14713449D01*
X12627945Y-14713449D02*
X12618421Y-14665830D01*
X12618421Y-14665830D02*
X12618421Y-14627735D01*
X12618421Y-14627735D02*
X12627945Y-14580116D01*
X12627945Y-14580116D02*
X12637469Y-14551545D01*
X12637469Y-14551545D02*
X12646993Y-14532497D01*
X12646993Y-14532497D02*
X12666040Y-14503926D01*
X12666040Y-14503926D02*
X12675564Y-14494402D01*
X12742231Y-14542021D02*
X12751755Y-14532497D01*
X12751755Y-14532497D02*
X12770802Y-14522973D01*
X12770802Y-14522973D02*
X12818421Y-14522973D01*
X12818421Y-14522973D02*
X12837469Y-14532497D01*
X12837469Y-14532497D02*
X12846993Y-14542021D01*
X12846993Y-14542021D02*
X12856516Y-14561068D01*
X12856516Y-14561068D02*
X12856516Y-14580116D01*
X12856516Y-14580116D02*
X12846993Y-14608687D01*
X12846993Y-14608687D02*
X12732707Y-14722973D01*
X12732707Y-14722973D02*
X12856516Y-14722973D01*
X13094612Y-14722973D02*
X13094612Y-14522973D01*
X13180326Y-14722973D02*
X13180326Y-14618211D01*
X13180326Y-14618211D02*
X13170802Y-14599164D01*
X13170802Y-14599164D02*
X13151755Y-14589640D01*
X13151755Y-14589640D02*
X13123183Y-14589640D01*
X13123183Y-14589640D02*
X13104136Y-14599164D01*
X13104136Y-14599164D02*
X13094612Y-14608687D01*
X13304136Y-14722973D02*
X13285088Y-14713449D01*
X13285088Y-14713449D02*
X13275564Y-14703926D01*
X13275564Y-14703926D02*
X13266040Y-14684878D01*
X13266040Y-14684878D02*
X13266040Y-14627735D01*
X13266040Y-14627735D02*
X13275564Y-14608687D01*
X13275564Y-14608687D02*
X13285088Y-14599164D01*
X13285088Y-14599164D02*
X13304136Y-14589640D01*
X13304136Y-14589640D02*
X13332707Y-14589640D01*
X13332707Y-14589640D02*
X13351755Y-14599164D01*
X13351755Y-14599164D02*
X13361278Y-14608687D01*
X13361278Y-14608687D02*
X13370802Y-14627735D01*
X13370802Y-14627735D02*
X13370802Y-14684878D01*
X13370802Y-14684878D02*
X13361278Y-14703926D01*
X13361278Y-14703926D02*
X13351755Y-14713449D01*
X13351755Y-14713449D02*
X13332707Y-14722973D01*
X13332707Y-14722973D02*
X13304136Y-14722973D01*
X13485088Y-14722973D02*
X13466040Y-14713449D01*
X13466040Y-14713449D02*
X13456517Y-14694402D01*
X13456517Y-14694402D02*
X13456517Y-14522973D01*
X13637469Y-14713449D02*
X13618421Y-14722973D01*
X13618421Y-14722973D02*
X13580326Y-14722973D01*
X13580326Y-14722973D02*
X13561278Y-14713449D01*
X13561278Y-14713449D02*
X13551755Y-14694402D01*
X13551755Y-14694402D02*
X13551755Y-14618211D01*
X13551755Y-14618211D02*
X13561278Y-14599164D01*
X13561278Y-14599164D02*
X13580326Y-14589640D01*
X13580326Y-14589640D02*
X13618421Y-14589640D01*
X13618421Y-14589640D02*
X13637469Y-14599164D01*
X13637469Y-14599164D02*
X13646993Y-14618211D01*
X13646993Y-14618211D02*
X13646993Y-14637259D01*
X13646993Y-14637259D02*
X13551755Y-14656307D01*
X13723183Y-14713449D02*
X13742231Y-14722973D01*
X13742231Y-14722973D02*
X13780326Y-14722973D01*
X13780326Y-14722973D02*
X13799374Y-14713449D01*
X13799374Y-14713449D02*
X13808898Y-14694402D01*
X13808898Y-14694402D02*
X13808898Y-14684878D01*
X13808898Y-14684878D02*
X13799374Y-14665830D01*
X13799374Y-14665830D02*
X13780326Y-14656307D01*
X13780326Y-14656307D02*
X13751755Y-14656307D01*
X13751755Y-14656307D02*
X13732707Y-14646783D01*
X13732707Y-14646783D02*
X13723183Y-14627735D01*
X13723183Y-14627735D02*
X13723183Y-14618211D01*
X13723183Y-14618211D02*
X13732707Y-14599164D01*
X13732707Y-14599164D02*
X13751755Y-14589640D01*
X13751755Y-14589640D02*
X13780326Y-14589640D01*
X13780326Y-14589640D02*
X13799374Y-14599164D01*
X13875564Y-14799164D02*
X13885088Y-14789640D01*
X13885088Y-14789640D02*
X13904136Y-14761068D01*
X13904136Y-14761068D02*
X13913659Y-14742021D01*
X13913659Y-14742021D02*
X13923183Y-14713449D01*
X13923183Y-14713449D02*
X13932707Y-14665830D01*
X13932707Y-14665830D02*
X13932707Y-14627735D01*
X13932707Y-14627735D02*
X13923183Y-14580116D01*
X13923183Y-14580116D02*
X13913659Y-14551545D01*
X13913659Y-14551545D02*
X13904136Y-14532497D01*
X13904136Y-14532497D02*
X13885088Y-14503926D01*
X13885088Y-14503926D02*
X13875564Y-14494402D01*
D12*
X9085857Y-14930845D02*
X9085857Y-14860134D01*
X9015146Y-14860134D01*
X9015146Y-14930845D01*
X9085857Y-14930845D01*
D11*
X9466040Y-14986973D02*
X9351754Y-14986973D01*
X9408897Y-14986973D02*
X9408897Y-14786973D01*
X9408897Y-14786973D02*
X9389850Y-14815545D01*
X9389850Y-14815545D02*
X9370802Y-14834592D01*
X9370802Y-14834592D02*
X9351754Y-14844116D01*
X9551754Y-14967926D02*
X9561278Y-14977449D01*
X9561278Y-14977449D02*
X9551754Y-14986973D01*
X9551754Y-14986973D02*
X9542231Y-14977449D01*
X9542231Y-14977449D02*
X9551754Y-14967926D01*
X9551754Y-14967926D02*
X9551754Y-14986973D01*
X9685088Y-14786973D02*
X9704135Y-14786973D01*
X9704135Y-14786973D02*
X9723183Y-14796497D01*
X9723183Y-14796497D02*
X9732707Y-14806021D01*
X9732707Y-14806021D02*
X9742231Y-14825068D01*
X9742231Y-14825068D02*
X9751754Y-14863164D01*
X9751754Y-14863164D02*
X9751754Y-14910783D01*
X9751754Y-14910783D02*
X9742231Y-14948878D01*
X9742231Y-14948878D02*
X9732707Y-14967926D01*
X9732707Y-14967926D02*
X9723183Y-14977449D01*
X9723183Y-14977449D02*
X9704135Y-14986973D01*
X9704135Y-14986973D02*
X9685088Y-14986973D01*
X9685088Y-14986973D02*
X9666040Y-14977449D01*
X9666040Y-14977449D02*
X9656516Y-14967926D01*
X9656516Y-14967926D02*
X9646992Y-14948878D01*
X9646992Y-14948878D02*
X9637469Y-14910783D01*
X9637469Y-14910783D02*
X9637469Y-14863164D01*
X9637469Y-14863164D02*
X9646992Y-14825068D01*
X9646992Y-14825068D02*
X9656516Y-14806021D01*
X9656516Y-14806021D02*
X9666040Y-14796497D01*
X9666040Y-14796497D02*
X9685088Y-14786973D01*
X9875564Y-14786973D02*
X9894612Y-14786973D01*
X9894612Y-14786973D02*
X9913659Y-14796497D01*
X9913659Y-14796497D02*
X9923183Y-14806021D01*
X9923183Y-14806021D02*
X9932707Y-14825068D01*
X9932707Y-14825068D02*
X9942231Y-14863164D01*
X9942231Y-14863164D02*
X9942231Y-14910783D01*
X9942231Y-14910783D02*
X9932707Y-14948878D01*
X9932707Y-14948878D02*
X9923183Y-14967926D01*
X9923183Y-14967926D02*
X9913659Y-14977449D01*
X9913659Y-14977449D02*
X9894612Y-14986973D01*
X9894612Y-14986973D02*
X9875564Y-14986973D01*
X9875564Y-14986973D02*
X9856516Y-14977449D01*
X9856516Y-14977449D02*
X9846992Y-14967926D01*
X9846992Y-14967926D02*
X9837469Y-14948878D01*
X9837469Y-14948878D02*
X9827945Y-14910783D01*
X9827945Y-14910783D02*
X9827945Y-14863164D01*
X9827945Y-14863164D02*
X9837469Y-14825068D01*
X9837469Y-14825068D02*
X9846992Y-14806021D01*
X9846992Y-14806021D02*
X9856516Y-14796497D01*
X9856516Y-14796497D02*
X9875564Y-14786973D01*
X10066040Y-14786973D02*
X10085088Y-14786973D01*
X10085088Y-14786973D02*
X10104135Y-14796497D01*
X10104135Y-14796497D02*
X10113659Y-14806021D01*
X10113659Y-14806021D02*
X10123183Y-14825068D01*
X10123183Y-14825068D02*
X10132707Y-14863164D01*
X10132707Y-14863164D02*
X10132707Y-14910783D01*
X10132707Y-14910783D02*
X10123183Y-14948878D01*
X10123183Y-14948878D02*
X10113659Y-14967926D01*
X10113659Y-14967926D02*
X10104135Y-14977449D01*
X10104135Y-14977449D02*
X10085088Y-14986973D01*
X10085088Y-14986973D02*
X10066040Y-14986973D01*
X10066040Y-14986973D02*
X10046992Y-14977449D01*
X10046992Y-14977449D02*
X10037469Y-14967926D01*
X10037469Y-14967926D02*
X10027945Y-14948878D01*
X10027945Y-14948878D02*
X10018421Y-14910783D01*
X10018421Y-14910783D02*
X10018421Y-14863164D01*
X10018421Y-14863164D02*
X10027945Y-14825068D01*
X10027945Y-14825068D02*
X10037469Y-14806021D01*
X10037469Y-14806021D02*
X10046992Y-14796497D01*
X10046992Y-14796497D02*
X10066040Y-14786973D01*
X10218421Y-14986973D02*
X10218421Y-14853640D01*
X10218421Y-14872687D02*
X10227945Y-14863164D01*
X10227945Y-14863164D02*
X10246992Y-14853640D01*
X10246992Y-14853640D02*
X10275564Y-14853640D01*
X10275564Y-14853640D02*
X10294612Y-14863164D01*
X10294612Y-14863164D02*
X10304135Y-14882211D01*
X10304135Y-14882211D02*
X10304135Y-14986973D01*
X10304135Y-14882211D02*
X10313659Y-14863164D01*
X10313659Y-14863164D02*
X10332707Y-14853640D01*
X10332707Y-14853640D02*
X10361278Y-14853640D01*
X10361278Y-14853640D02*
X10380326Y-14863164D01*
X10380326Y-14863164D02*
X10389850Y-14882211D01*
X10389850Y-14882211D02*
X10389850Y-14986973D01*
X10485088Y-14986973D02*
X10485088Y-14853640D01*
X10485088Y-14872687D02*
X10494612Y-14863164D01*
X10494612Y-14863164D02*
X10513659Y-14853640D01*
X10513659Y-14853640D02*
X10542231Y-14853640D01*
X10542231Y-14853640D02*
X10561278Y-14863164D01*
X10561278Y-14863164D02*
X10570802Y-14882211D01*
X10570802Y-14882211D02*
X10570802Y-14986973D01*
X10570802Y-14882211D02*
X10580326Y-14863164D01*
X10580326Y-14863164D02*
X10599373Y-14853640D01*
X10599373Y-14853640D02*
X10627945Y-14853640D01*
X10627945Y-14853640D02*
X10646993Y-14863164D01*
X10646993Y-14863164D02*
X10656516Y-14882211D01*
X10656516Y-14882211D02*
X10656516Y-14986973D01*
X11046993Y-14777449D02*
X10875564Y-15034592D01*
X11304135Y-14786973D02*
X11323183Y-14786973D01*
X11323183Y-14786973D02*
X11342231Y-14796497D01*
X11342231Y-14796497D02*
X11351754Y-14806021D01*
X11351754Y-14806021D02*
X11361278Y-14825068D01*
X11361278Y-14825068D02*
X11370802Y-14863164D01*
X11370802Y-14863164D02*
X11370802Y-14910783D01*
X11370802Y-14910783D02*
X11361278Y-14948878D01*
X11361278Y-14948878D02*
X11351754Y-14967926D01*
X11351754Y-14967926D02*
X11342231Y-14977449D01*
X11342231Y-14977449D02*
X11323183Y-14986973D01*
X11323183Y-14986973D02*
X11304135Y-14986973D01*
X11304135Y-14986973D02*
X11285088Y-14977449D01*
X11285088Y-14977449D02*
X11275564Y-14967926D01*
X11275564Y-14967926D02*
X11266040Y-14948878D01*
X11266040Y-14948878D02*
X11256516Y-14910783D01*
X11256516Y-14910783D02*
X11256516Y-14863164D01*
X11256516Y-14863164D02*
X11266040Y-14825068D01*
X11266040Y-14825068D02*
X11275564Y-14806021D01*
X11275564Y-14806021D02*
X11285088Y-14796497D01*
X11285088Y-14796497D02*
X11304135Y-14786973D01*
X11456516Y-14967926D02*
X11466040Y-14977449D01*
X11466040Y-14977449D02*
X11456516Y-14986973D01*
X11456516Y-14986973D02*
X11446993Y-14977449D01*
X11446993Y-14977449D02*
X11456516Y-14967926D01*
X11456516Y-14967926D02*
X11456516Y-14986973D01*
X11589850Y-14786973D02*
X11608897Y-14786973D01*
X11608897Y-14786973D02*
X11627945Y-14796497D01*
X11627945Y-14796497D02*
X11637469Y-14806021D01*
X11637469Y-14806021D02*
X11646993Y-14825068D01*
X11646993Y-14825068D02*
X11656516Y-14863164D01*
X11656516Y-14863164D02*
X11656516Y-14910783D01*
X11656516Y-14910783D02*
X11646993Y-14948878D01*
X11646993Y-14948878D02*
X11637469Y-14967926D01*
X11637469Y-14967926D02*
X11627945Y-14977449D01*
X11627945Y-14977449D02*
X11608897Y-14986973D01*
X11608897Y-14986973D02*
X11589850Y-14986973D01*
X11589850Y-14986973D02*
X11570802Y-14977449D01*
X11570802Y-14977449D02*
X11561278Y-14967926D01*
X11561278Y-14967926D02*
X11551754Y-14948878D01*
X11551754Y-14948878D02*
X11542231Y-14910783D01*
X11542231Y-14910783D02*
X11542231Y-14863164D01*
X11542231Y-14863164D02*
X11551754Y-14825068D01*
X11551754Y-14825068D02*
X11561278Y-14806021D01*
X11561278Y-14806021D02*
X11570802Y-14796497D01*
X11570802Y-14796497D02*
X11589850Y-14786973D01*
X11723183Y-14786973D02*
X11846993Y-14786973D01*
X11846993Y-14786973D02*
X11780326Y-14863164D01*
X11780326Y-14863164D02*
X11808897Y-14863164D01*
X11808897Y-14863164D02*
X11827945Y-14872687D01*
X11827945Y-14872687D02*
X11837469Y-14882211D01*
X11837469Y-14882211D02*
X11846993Y-14901259D01*
X11846993Y-14901259D02*
X11846993Y-14948878D01*
X11846993Y-14948878D02*
X11837469Y-14967926D01*
X11837469Y-14967926D02*
X11827945Y-14977449D01*
X11827945Y-14977449D02*
X11808897Y-14986973D01*
X11808897Y-14986973D02*
X11751754Y-14986973D01*
X11751754Y-14986973D02*
X11732707Y-14977449D01*
X11732707Y-14977449D02*
X11723183Y-14967926D01*
X11942231Y-14986973D02*
X11980326Y-14986973D01*
X11980326Y-14986973D02*
X11999374Y-14977449D01*
X11999374Y-14977449D02*
X12008897Y-14967926D01*
X12008897Y-14967926D02*
X12027945Y-14939354D01*
X12027945Y-14939354D02*
X12037469Y-14901259D01*
X12037469Y-14901259D02*
X12037469Y-14825068D01*
X12037469Y-14825068D02*
X12027945Y-14806021D01*
X12027945Y-14806021D02*
X12018421Y-14796497D01*
X12018421Y-14796497D02*
X11999374Y-14786973D01*
X11999374Y-14786973D02*
X11961278Y-14786973D01*
X11961278Y-14786973D02*
X11942231Y-14796497D01*
X11942231Y-14796497D02*
X11932707Y-14806021D01*
X11932707Y-14806021D02*
X11923183Y-14825068D01*
X11923183Y-14825068D02*
X11923183Y-14872687D01*
X11923183Y-14872687D02*
X11932707Y-14891735D01*
X11932707Y-14891735D02*
X11942231Y-14901259D01*
X11942231Y-14901259D02*
X11961278Y-14910783D01*
X11961278Y-14910783D02*
X11999374Y-14910783D01*
X11999374Y-14910783D02*
X12018421Y-14901259D01*
X12018421Y-14901259D02*
X12027945Y-14891735D01*
X12027945Y-14891735D02*
X12037469Y-14872687D01*
X12208897Y-14853640D02*
X12208897Y-14986973D01*
X12161278Y-14777449D02*
X12113659Y-14920307D01*
X12113659Y-14920307D02*
X12237469Y-14920307D01*
X12304135Y-14786973D02*
X12304135Y-14825068D01*
X12380326Y-14786973D02*
X12380326Y-14825068D01*
X12675564Y-15063164D02*
X12666040Y-15053640D01*
X12666040Y-15053640D02*
X12646993Y-15025068D01*
X12646993Y-15025068D02*
X12637469Y-15006021D01*
X12637469Y-15006021D02*
X12627945Y-14977449D01*
X12627945Y-14977449D02*
X12618421Y-14929830D01*
X12618421Y-14929830D02*
X12618421Y-14891735D01*
X12618421Y-14891735D02*
X12627945Y-14844116D01*
X12627945Y-14844116D02*
X12637469Y-14815545D01*
X12637469Y-14815545D02*
X12646993Y-14796497D01*
X12646993Y-14796497D02*
X12666040Y-14767926D01*
X12666040Y-14767926D02*
X12675564Y-14758402D01*
X12742231Y-14806021D02*
X12751755Y-14796497D01*
X12751755Y-14796497D02*
X12770802Y-14786973D01*
X12770802Y-14786973D02*
X12818421Y-14786973D01*
X12818421Y-14786973D02*
X12837469Y-14796497D01*
X12837469Y-14796497D02*
X12846993Y-14806021D01*
X12846993Y-14806021D02*
X12856516Y-14825068D01*
X12856516Y-14825068D02*
X12856516Y-14844116D01*
X12856516Y-14844116D02*
X12846993Y-14872687D01*
X12846993Y-14872687D02*
X12732707Y-14986973D01*
X12732707Y-14986973D02*
X12856516Y-14986973D01*
X12951755Y-14986973D02*
X12989850Y-14986973D01*
X12989850Y-14986973D02*
X13008897Y-14977449D01*
X13008897Y-14977449D02*
X13018421Y-14967926D01*
X13018421Y-14967926D02*
X13037469Y-14939354D01*
X13037469Y-14939354D02*
X13046993Y-14901259D01*
X13046993Y-14901259D02*
X13046993Y-14825068D01*
X13046993Y-14825068D02*
X13037469Y-14806021D01*
X13037469Y-14806021D02*
X13027945Y-14796497D01*
X13027945Y-14796497D02*
X13008897Y-14786973D01*
X13008897Y-14786973D02*
X12970802Y-14786973D01*
X12970802Y-14786973D02*
X12951755Y-14796497D01*
X12951755Y-14796497D02*
X12942231Y-14806021D01*
X12942231Y-14806021D02*
X12932707Y-14825068D01*
X12932707Y-14825068D02*
X12932707Y-14872687D01*
X12932707Y-14872687D02*
X12942231Y-14891735D01*
X12942231Y-14891735D02*
X12951755Y-14901259D01*
X12951755Y-14901259D02*
X12970802Y-14910783D01*
X12970802Y-14910783D02*
X13008897Y-14910783D01*
X13008897Y-14910783D02*
X13027945Y-14901259D01*
X13027945Y-14901259D02*
X13037469Y-14891735D01*
X13037469Y-14891735D02*
X13046993Y-14872687D01*
X13285088Y-14986973D02*
X13285088Y-14786973D01*
X13370802Y-14986973D02*
X13370802Y-14882211D01*
X13370802Y-14882211D02*
X13361278Y-14863164D01*
X13361278Y-14863164D02*
X13342231Y-14853640D01*
X13342231Y-14853640D02*
X13313659Y-14853640D01*
X13313659Y-14853640D02*
X13294612Y-14863164D01*
X13294612Y-14863164D02*
X13285088Y-14872687D01*
X13494612Y-14986973D02*
X13475564Y-14977449D01*
X13475564Y-14977449D02*
X13466040Y-14967926D01*
X13466040Y-14967926D02*
X13456517Y-14948878D01*
X13456517Y-14948878D02*
X13456517Y-14891735D01*
X13456517Y-14891735D02*
X13466040Y-14872687D01*
X13466040Y-14872687D02*
X13475564Y-14863164D01*
X13475564Y-14863164D02*
X13494612Y-14853640D01*
X13494612Y-14853640D02*
X13523183Y-14853640D01*
X13523183Y-14853640D02*
X13542231Y-14863164D01*
X13542231Y-14863164D02*
X13551755Y-14872687D01*
X13551755Y-14872687D02*
X13561278Y-14891735D01*
X13561278Y-14891735D02*
X13561278Y-14948878D01*
X13561278Y-14948878D02*
X13551755Y-14967926D01*
X13551755Y-14967926D02*
X13542231Y-14977449D01*
X13542231Y-14977449D02*
X13523183Y-14986973D01*
X13523183Y-14986973D02*
X13494612Y-14986973D01*
X13675564Y-14986973D02*
X13656517Y-14977449D01*
X13656517Y-14977449D02*
X13646993Y-14958402D01*
X13646993Y-14958402D02*
X13646993Y-14786973D01*
X13827945Y-14977449D02*
X13808898Y-14986973D01*
X13808898Y-14986973D02*
X13770802Y-14986973D01*
X13770802Y-14986973D02*
X13751755Y-14977449D01*
X13751755Y-14977449D02*
X13742231Y-14958402D01*
X13742231Y-14958402D02*
X13742231Y-14882211D01*
X13742231Y-14882211D02*
X13751755Y-14863164D01*
X13751755Y-14863164D02*
X13770802Y-14853640D01*
X13770802Y-14853640D02*
X13808898Y-14853640D01*
X13808898Y-14853640D02*
X13827945Y-14863164D01*
X13827945Y-14863164D02*
X13837469Y-14882211D01*
X13837469Y-14882211D02*
X13837469Y-14901259D01*
X13837469Y-14901259D02*
X13742231Y-14920307D01*
X13913659Y-14977449D02*
X13932707Y-14986973D01*
X13932707Y-14986973D02*
X13970802Y-14986973D01*
X13970802Y-14986973D02*
X13989850Y-14977449D01*
X13989850Y-14977449D02*
X13999374Y-14958402D01*
X13999374Y-14958402D02*
X13999374Y-14948878D01*
X13999374Y-14948878D02*
X13989850Y-14929830D01*
X13989850Y-14929830D02*
X13970802Y-14920307D01*
X13970802Y-14920307D02*
X13942231Y-14920307D01*
X13942231Y-14920307D02*
X13923183Y-14910783D01*
X13923183Y-14910783D02*
X13913659Y-14891735D01*
X13913659Y-14891735D02*
X13913659Y-14882211D01*
X13913659Y-14882211D02*
X13923183Y-14863164D01*
X13923183Y-14863164D02*
X13942231Y-14853640D01*
X13942231Y-14853640D02*
X13970802Y-14853640D01*
X13970802Y-14853640D02*
X13989850Y-14863164D01*
X14066040Y-15063164D02*
X14075564Y-15053640D01*
X14075564Y-15053640D02*
X14094612Y-15025068D01*
X14094612Y-15025068D02*
X14104136Y-15006021D01*
X14104136Y-15006021D02*
X14113659Y-14977449D01*
X14113659Y-14977449D02*
X14123183Y-14929830D01*
X14123183Y-14929830D02*
X14123183Y-14891735D01*
X14123183Y-14891735D02*
X14113659Y-14844116D01*
X14113659Y-14844116D02*
X14104136Y-14815545D01*
X14104136Y-14815545D02*
X14094612Y-14796497D01*
X14094612Y-14796497D02*
X14075564Y-14767926D01*
X14075564Y-14767926D02*
X14066040Y-14758402D01*
M02*
