M48
; DRILL file {KiCad 8.0.8+1} date 2025-06-17T15:50:16+0000
; FORMAT={-:-/ absolute / metric / decimal}
; #@! TF.CreationDate,2025-06-17T15:50:16+00:00
; #@! TF.GenerationSoftware,Kicad,Pcbnew,8.0.8+1
; #@! TF.FileFunction,Plated,1,2,PTH
FMAT,2
METRIC
; #@! TA.AperFunction,Plated,PTH,ViaDrill
T1C0.300
; #@! TA.AperFunction,Plated,PTH,ComponentDrill
T2C0.400
; #@! TA.AperFunction,Plated,PTH,ComponentDrill
T3C0.750
; #@! TA.AperFunction,Plated,PTH,ComponentDrill
T4C1.000
%
G90
G05
T1
X93.494Y-64.622
X101.644Y-83.454
X101.778Y-45.321
X107.085Y-69.988
X110.429Y-100.808
X111.6Y-44.077
X111.6Y-61.573
X111.6Y-80.573
X114.71Y-81.504
X124.757Y-80.48
X125.124Y-42.188
X128.091Y-50.164
X128.32Y-41.938
X128.32Y-59.703
X128.32Y-97.864
X130.347Y-80.292
X131.943Y-83.627
X138.009Y-46.008
X138.009Y-50.814
X144.779Y-71.373
X146.916Y-62.542
X149.328Y-42.405
X149.328Y-100.808
X149.6Y-80.692
X163.358Y-42.2
X163.543Y-89.034
X164.085Y-51.234
X164.085Y-71.098
X166.713Y-59.599
X166.713Y-79.221
X166.713Y-97.864
X168.6Y-42.272
X179.405Y-82.038
X182.151Y-44.481
X182.535Y-53.712
X183.085Y-83.63
X185.5Y-80.203
X186.139Y-44.881
X188.065Y-67.36
X201.081Y-47.083
X201.202Y-66.312
X202.027Y-114.881
X202.085Y-74.556
X208.032Y-54.827
X211.415Y-74.001
X214.406Y-108.651
X217.566Y-80.562
X217.807Y-53.174
X218.338Y-82.28
X218.502Y-69.756
X218.702Y-79.15
X219.062Y-78.35
X219.084Y-112.751
X219.104Y-57.21
X219.908Y-54.92
X221.76Y-73.805
X226.426Y-82.5
X226.447Y-85.5
X228.4Y-74.076
X229.876Y-71.426
T2
X214.304Y-43.92
X214.304Y-46.46
X214.304Y-49.0
X214.304Y-51.54
X214.304Y-54.08
X214.304Y-56.62
X214.304Y-59.16
X214.304Y-61.7
X214.304Y-64.24
X214.304Y-66.78
X214.304Y-69.32
X214.304Y-71.86
X221.104Y-43.92
X221.104Y-46.46
X221.104Y-49.0
X221.104Y-51.54
X221.104Y-54.08
X221.104Y-56.62
X221.104Y-59.16
X221.104Y-61.7
X221.104Y-64.24
X221.104Y-66.78
X221.104Y-69.32
X221.104Y-71.86
T3
X214.75Y-82.5
X214.75Y-84.5
T4
X210.084Y-43.92
X210.084Y-46.46
X210.084Y-49.0
X210.084Y-51.54
X210.084Y-54.08
X210.084Y-56.62
X210.084Y-59.16
X210.084Y-61.7
X210.084Y-64.24
X210.084Y-66.78
X210.084Y-69.32
X210.084Y-71.86
X212.567Y-75.7
X215.107Y-75.7
X217.647Y-75.7
X220.187Y-75.7
X222.727Y-75.7
X225.324Y-43.92
X225.324Y-46.46
X225.324Y-49.0
X225.324Y-51.54
X225.324Y-54.08
X225.324Y-56.62
X225.324Y-59.16
X225.324Y-61.7
X225.324Y-64.24
X225.324Y-66.78
X225.324Y-69.32
X225.324Y-71.86
M30
