G04 #@! TF.GenerationSoftware,KiCad,Pcbnew,8.0.8+1*
G04 #@! TF.CreationDate,2025-06-17T15:50:15+00:00*
G04 #@! TF.ProjectId,eggada50_wireless_autorouted,65676761-6461-4353-905f-776972656c65,0.2*
G04 #@! TF.SameCoordinates,Original*
G04 #@! TF.FileFunction,Legend,Top*
G04 #@! TF.FilePolarity,Positive*
%FSLAX46Y46*%
G04 Gerber Fmt 4.6, Leading zero omitted, Abs format (unit mm)*
G04 Created by KiCad (PCBNEW 8.0.8+1) date 2025-06-17 15:50:15*
%MOMM*%
%LPD*%
G01*
G04 APERTURE LIST*
%ADD10C,0.150000*%
%ADD11C,0.100000*%
%ADD12C,0.120000*%
%ADD13C,2.000000*%
%ADD14C,3.100000*%
%ADD15C,4.200000*%
%ADD16O,1.800000X1.800000*%
%ADD17C,1.800000*%
%ADD18C,4.400000*%
%ADD19C,1.000000*%
%ADD20C,0.900000*%
%ADD21O,1.850000X1.300000*%
%ADD22C,2.300000*%
%ADD23C,0.850000*%
G04 APERTURE END LIST*
D10*
X228880952Y-79204819D02*
X229071428Y-79204819D01*
X229071428Y-79204819D02*
X229166666Y-79252438D01*
X229166666Y-79252438D02*
X229261904Y-79347676D01*
X229261904Y-79347676D02*
X229309523Y-79538152D01*
X229309523Y-79538152D02*
X229309523Y-79871485D01*
X229309523Y-79871485D02*
X229261904Y-80061961D01*
X229261904Y-80061961D02*
X229166666Y-80157200D01*
X229166666Y-80157200D02*
X229071428Y-80204819D01*
X229071428Y-80204819D02*
X228880952Y-80204819D01*
X228880952Y-80204819D02*
X228785714Y-80157200D01*
X228785714Y-80157200D02*
X228690476Y-80061961D01*
X228690476Y-80061961D02*
X228642857Y-79871485D01*
X228642857Y-79871485D02*
X228642857Y-79538152D01*
X228642857Y-79538152D02*
X228690476Y-79347676D01*
X228690476Y-79347676D02*
X228785714Y-79252438D01*
X228785714Y-79252438D02*
X228880952Y-79204819D01*
X229738095Y-80204819D02*
X229738095Y-79204819D01*
X229738095Y-79204819D02*
X230309523Y-80204819D01*
X230309523Y-80204819D02*
X230309523Y-79204819D01*
X228547619Y-89204819D02*
X228738095Y-89204819D01*
X228738095Y-89204819D02*
X228833333Y-89252438D01*
X228833333Y-89252438D02*
X228928571Y-89347676D01*
X228928571Y-89347676D02*
X228976190Y-89538152D01*
X228976190Y-89538152D02*
X228976190Y-89871485D01*
X228976190Y-89871485D02*
X228928571Y-90061961D01*
X228928571Y-90061961D02*
X228833333Y-90157200D01*
X228833333Y-90157200D02*
X228738095Y-90204819D01*
X228738095Y-90204819D02*
X228547619Y-90204819D01*
X228547619Y-90204819D02*
X228452381Y-90157200D01*
X228452381Y-90157200D02*
X228357143Y-90061961D01*
X228357143Y-90061961D02*
X228309524Y-89871485D01*
X228309524Y-89871485D02*
X228309524Y-89538152D01*
X228309524Y-89538152D02*
X228357143Y-89347676D01*
X228357143Y-89347676D02*
X228452381Y-89252438D01*
X228452381Y-89252438D02*
X228547619Y-89204819D01*
X229738095Y-89681009D02*
X229404762Y-89681009D01*
X229404762Y-90204819D02*
X229404762Y-89204819D01*
X229404762Y-89204819D02*
X229880952Y-89204819D01*
X230595238Y-89681009D02*
X230261905Y-89681009D01*
X230261905Y-90204819D02*
X230261905Y-89204819D01*
X230261905Y-89204819D02*
X230738095Y-89204819D01*
X215497333Y-64599580D02*
X215449714Y-64647200D01*
X215449714Y-64647200D02*
X215306857Y-64694819D01*
X215306857Y-64694819D02*
X215211619Y-64694819D01*
X215211619Y-64694819D02*
X215068762Y-64647200D01*
X215068762Y-64647200D02*
X214973524Y-64551961D01*
X214973524Y-64551961D02*
X214925905Y-64456723D01*
X214925905Y-64456723D02*
X214878286Y-64266247D01*
X214878286Y-64266247D02*
X214878286Y-64123390D01*
X214878286Y-64123390D02*
X214925905Y-63932914D01*
X214925905Y-63932914D02*
X214973524Y-63837676D01*
X214973524Y-63837676D02*
X215068762Y-63742438D01*
X215068762Y-63742438D02*
X215211619Y-63694819D01*
X215211619Y-63694819D02*
X215306857Y-63694819D01*
X215306857Y-63694819D02*
X215449714Y-63742438D01*
X215449714Y-63742438D02*
X215497333Y-63790057D01*
X216354476Y-64028152D02*
X216354476Y-64694819D01*
X216116381Y-63647200D02*
X215878286Y-64361485D01*
X215878286Y-64361485D02*
X216497333Y-64361485D01*
X218511142Y-44374819D02*
X218034952Y-44374819D01*
X218034952Y-44374819D02*
X218034952Y-43374819D01*
X218844476Y-43851009D02*
X219177809Y-43851009D01*
X219320666Y-44374819D02*
X218844476Y-44374819D01*
X218844476Y-44374819D02*
X218844476Y-43374819D01*
X218844476Y-43374819D02*
X219320666Y-43374819D01*
X219749238Y-44374819D02*
X219749238Y-43374819D01*
X219749238Y-43374819D02*
X219987333Y-43374819D01*
X219987333Y-43374819D02*
X220130190Y-43422438D01*
X220130190Y-43422438D02*
X220225428Y-43517676D01*
X220225428Y-43517676D02*
X220273047Y-43612914D01*
X220273047Y-43612914D02*
X220320666Y-43803390D01*
X220320666Y-43803390D02*
X220320666Y-43946247D01*
X220320666Y-43946247D02*
X220273047Y-44136723D01*
X220273047Y-44136723D02*
X220225428Y-44231961D01*
X220225428Y-44231961D02*
X220130190Y-44327200D01*
X220130190Y-44327200D02*
X219987333Y-44374819D01*
X219987333Y-44374819D02*
X219749238Y-44374819D01*
X219577333Y-67234819D02*
X219244000Y-66758628D01*
X219005905Y-67234819D02*
X219005905Y-66234819D01*
X219005905Y-66234819D02*
X219386857Y-66234819D01*
X219386857Y-66234819D02*
X219482095Y-66282438D01*
X219482095Y-66282438D02*
X219529714Y-66330057D01*
X219529714Y-66330057D02*
X219577333Y-66425295D01*
X219577333Y-66425295D02*
X219577333Y-66568152D01*
X219577333Y-66568152D02*
X219529714Y-66663390D01*
X219529714Y-66663390D02*
X219482095Y-66711009D01*
X219482095Y-66711009D02*
X219386857Y-66758628D01*
X219386857Y-66758628D02*
X219005905Y-66758628D01*
X219958286Y-66330057D02*
X220005905Y-66282438D01*
X220005905Y-66282438D02*
X220101143Y-66234819D01*
X220101143Y-66234819D02*
X220339238Y-66234819D01*
X220339238Y-66234819D02*
X220434476Y-66282438D01*
X220434476Y-66282438D02*
X220482095Y-66330057D01*
X220482095Y-66330057D02*
X220529714Y-66425295D01*
X220529714Y-66425295D02*
X220529714Y-66520533D01*
X220529714Y-66520533D02*
X220482095Y-66663390D01*
X220482095Y-66663390D02*
X219910667Y-67234819D01*
X219910667Y-67234819D02*
X220529714Y-67234819D01*
X215497333Y-54439580D02*
X215449714Y-54487200D01*
X215449714Y-54487200D02*
X215306857Y-54534819D01*
X215306857Y-54534819D02*
X215211619Y-54534819D01*
X215211619Y-54534819D02*
X215068762Y-54487200D01*
X215068762Y-54487200D02*
X214973524Y-54391961D01*
X214973524Y-54391961D02*
X214925905Y-54296723D01*
X214925905Y-54296723D02*
X214878286Y-54106247D01*
X214878286Y-54106247D02*
X214878286Y-53963390D01*
X214878286Y-53963390D02*
X214925905Y-53772914D01*
X214925905Y-53772914D02*
X214973524Y-53677676D01*
X214973524Y-53677676D02*
X215068762Y-53582438D01*
X215068762Y-53582438D02*
X215211619Y-53534819D01*
X215211619Y-53534819D02*
X215306857Y-53534819D01*
X215306857Y-53534819D02*
X215449714Y-53582438D01*
X215449714Y-53582438D02*
X215497333Y-53630057D01*
X216116381Y-53534819D02*
X216211619Y-53534819D01*
X216211619Y-53534819D02*
X216306857Y-53582438D01*
X216306857Y-53582438D02*
X216354476Y-53630057D01*
X216354476Y-53630057D02*
X216402095Y-53725295D01*
X216402095Y-53725295D02*
X216449714Y-53915771D01*
X216449714Y-53915771D02*
X216449714Y-54153866D01*
X216449714Y-54153866D02*
X216402095Y-54344342D01*
X216402095Y-54344342D02*
X216354476Y-54439580D01*
X216354476Y-54439580D02*
X216306857Y-54487200D01*
X216306857Y-54487200D02*
X216211619Y-54534819D01*
X216211619Y-54534819D02*
X216116381Y-54534819D01*
X216116381Y-54534819D02*
X216021143Y-54487200D01*
X216021143Y-54487200D02*
X215973524Y-54439580D01*
X215973524Y-54439580D02*
X215925905Y-54344342D01*
X215925905Y-54344342D02*
X215878286Y-54153866D01*
X215878286Y-54153866D02*
X215878286Y-53915771D01*
X215878286Y-53915771D02*
X215925905Y-53725295D01*
X215925905Y-53725295D02*
X215973524Y-53630057D01*
X215973524Y-53630057D02*
X216021143Y-53582438D01*
X216021143Y-53582438D02*
X216116381Y-53534819D01*
X215497333Y-67139580D02*
X215449714Y-67187200D01*
X215449714Y-67187200D02*
X215306857Y-67234819D01*
X215306857Y-67234819D02*
X215211619Y-67234819D01*
X215211619Y-67234819D02*
X215068762Y-67187200D01*
X215068762Y-67187200D02*
X214973524Y-67091961D01*
X214973524Y-67091961D02*
X214925905Y-66996723D01*
X214925905Y-66996723D02*
X214878286Y-66806247D01*
X214878286Y-66806247D02*
X214878286Y-66663390D01*
X214878286Y-66663390D02*
X214925905Y-66472914D01*
X214925905Y-66472914D02*
X214973524Y-66377676D01*
X214973524Y-66377676D02*
X215068762Y-66282438D01*
X215068762Y-66282438D02*
X215211619Y-66234819D01*
X215211619Y-66234819D02*
X215306857Y-66234819D01*
X215306857Y-66234819D02*
X215449714Y-66282438D01*
X215449714Y-66282438D02*
X215497333Y-66330057D01*
X216402095Y-66234819D02*
X215925905Y-66234819D01*
X215925905Y-66234819D02*
X215878286Y-66711009D01*
X215878286Y-66711009D02*
X215925905Y-66663390D01*
X215925905Y-66663390D02*
X216021143Y-66615771D01*
X216021143Y-66615771D02*
X216259238Y-66615771D01*
X216259238Y-66615771D02*
X216354476Y-66663390D01*
X216354476Y-66663390D02*
X216402095Y-66711009D01*
X216402095Y-66711009D02*
X216449714Y-66806247D01*
X216449714Y-66806247D02*
X216449714Y-67044342D01*
X216449714Y-67044342D02*
X216402095Y-67139580D01*
X216402095Y-67139580D02*
X216354476Y-67187200D01*
X216354476Y-67187200D02*
X216259238Y-67234819D01*
X216259238Y-67234819D02*
X216021143Y-67234819D01*
X216021143Y-67234819D02*
X215925905Y-67187200D01*
X215925905Y-67187200D02*
X215878286Y-67139580D01*
X215706380Y-49454819D02*
X215373047Y-48978628D01*
X215134952Y-49454819D02*
X215134952Y-48454819D01*
X215134952Y-48454819D02*
X215515904Y-48454819D01*
X215515904Y-48454819D02*
X215611142Y-48502438D01*
X215611142Y-48502438D02*
X215658761Y-48550057D01*
X215658761Y-48550057D02*
X215706380Y-48645295D01*
X215706380Y-48645295D02*
X215706380Y-48788152D01*
X215706380Y-48788152D02*
X215658761Y-48883390D01*
X215658761Y-48883390D02*
X215611142Y-48931009D01*
X215611142Y-48931009D02*
X215515904Y-48978628D01*
X215515904Y-48978628D02*
X215134952Y-48978628D01*
X216087333Y-49407200D02*
X216230190Y-49454819D01*
X216230190Y-49454819D02*
X216468285Y-49454819D01*
X216468285Y-49454819D02*
X216563523Y-49407200D01*
X216563523Y-49407200D02*
X216611142Y-49359580D01*
X216611142Y-49359580D02*
X216658761Y-49264342D01*
X216658761Y-49264342D02*
X216658761Y-49169104D01*
X216658761Y-49169104D02*
X216611142Y-49073866D01*
X216611142Y-49073866D02*
X216563523Y-49026247D01*
X216563523Y-49026247D02*
X216468285Y-48978628D01*
X216468285Y-48978628D02*
X216277809Y-48931009D01*
X216277809Y-48931009D02*
X216182571Y-48883390D01*
X216182571Y-48883390D02*
X216134952Y-48835771D01*
X216134952Y-48835771D02*
X216087333Y-48740533D01*
X216087333Y-48740533D02*
X216087333Y-48645295D01*
X216087333Y-48645295D02*
X216134952Y-48550057D01*
X216134952Y-48550057D02*
X216182571Y-48502438D01*
X216182571Y-48502438D02*
X216277809Y-48454819D01*
X216277809Y-48454819D02*
X216515904Y-48454819D01*
X216515904Y-48454819D02*
X216658761Y-48502438D01*
X216944476Y-48454819D02*
X217515904Y-48454819D01*
X217230190Y-49454819D02*
X217230190Y-48454819D01*
X215492095Y-45962438D02*
X215396857Y-45914819D01*
X215396857Y-45914819D02*
X215254000Y-45914819D01*
X215254000Y-45914819D02*
X215111143Y-45962438D01*
X215111143Y-45962438D02*
X215015905Y-46057676D01*
X215015905Y-46057676D02*
X214968286Y-46152914D01*
X214968286Y-46152914D02*
X214920667Y-46343390D01*
X214920667Y-46343390D02*
X214920667Y-46486247D01*
X214920667Y-46486247D02*
X214968286Y-46676723D01*
X214968286Y-46676723D02*
X215015905Y-46771961D01*
X215015905Y-46771961D02*
X215111143Y-46867200D01*
X215111143Y-46867200D02*
X215254000Y-46914819D01*
X215254000Y-46914819D02*
X215349238Y-46914819D01*
X215349238Y-46914819D02*
X215492095Y-46867200D01*
X215492095Y-46867200D02*
X215539714Y-46819580D01*
X215539714Y-46819580D02*
X215539714Y-46486247D01*
X215539714Y-46486247D02*
X215349238Y-46486247D01*
X215968286Y-46914819D02*
X215968286Y-45914819D01*
X215968286Y-45914819D02*
X216539714Y-46914819D01*
X216539714Y-46914819D02*
X216539714Y-45914819D01*
X217015905Y-46914819D02*
X217015905Y-45914819D01*
X217015905Y-45914819D02*
X217254000Y-45914819D01*
X217254000Y-45914819D02*
X217396857Y-45962438D01*
X217396857Y-45962438D02*
X217492095Y-46057676D01*
X217492095Y-46057676D02*
X217539714Y-46152914D01*
X217539714Y-46152914D02*
X217587333Y-46343390D01*
X217587333Y-46343390D02*
X217587333Y-46486247D01*
X217587333Y-46486247D02*
X217539714Y-46676723D01*
X217539714Y-46676723D02*
X217492095Y-46771961D01*
X217492095Y-46771961D02*
X217396857Y-46867200D01*
X217396857Y-46867200D02*
X217254000Y-46914819D01*
X217254000Y-46914819D02*
X217015905Y-46914819D01*
X218392095Y-51042438D02*
X218296857Y-50994819D01*
X218296857Y-50994819D02*
X218154000Y-50994819D01*
X218154000Y-50994819D02*
X218011143Y-51042438D01*
X218011143Y-51042438D02*
X217915905Y-51137676D01*
X217915905Y-51137676D02*
X217868286Y-51232914D01*
X217868286Y-51232914D02*
X217820667Y-51423390D01*
X217820667Y-51423390D02*
X217820667Y-51566247D01*
X217820667Y-51566247D02*
X217868286Y-51756723D01*
X217868286Y-51756723D02*
X217915905Y-51851961D01*
X217915905Y-51851961D02*
X218011143Y-51947200D01*
X218011143Y-51947200D02*
X218154000Y-51994819D01*
X218154000Y-51994819D02*
X218249238Y-51994819D01*
X218249238Y-51994819D02*
X218392095Y-51947200D01*
X218392095Y-51947200D02*
X218439714Y-51899580D01*
X218439714Y-51899580D02*
X218439714Y-51566247D01*
X218439714Y-51566247D02*
X218249238Y-51566247D01*
X218868286Y-51994819D02*
X218868286Y-50994819D01*
X218868286Y-50994819D02*
X219439714Y-51994819D01*
X219439714Y-51994819D02*
X219439714Y-50994819D01*
X219915905Y-51994819D02*
X219915905Y-50994819D01*
X219915905Y-50994819D02*
X220154000Y-50994819D01*
X220154000Y-50994819D02*
X220296857Y-51042438D01*
X220296857Y-51042438D02*
X220392095Y-51137676D01*
X220392095Y-51137676D02*
X220439714Y-51232914D01*
X220439714Y-51232914D02*
X220487333Y-51423390D01*
X220487333Y-51423390D02*
X220487333Y-51566247D01*
X220487333Y-51566247D02*
X220439714Y-51756723D01*
X220439714Y-51756723D02*
X220392095Y-51851961D01*
X220392095Y-51851961D02*
X220296857Y-51947200D01*
X220296857Y-51947200D02*
X220154000Y-51994819D01*
X220154000Y-51994819D02*
X219915905Y-51994819D01*
X215497333Y-56979580D02*
X215449714Y-57027200D01*
X215449714Y-57027200D02*
X215306857Y-57074819D01*
X215306857Y-57074819D02*
X215211619Y-57074819D01*
X215211619Y-57074819D02*
X215068762Y-57027200D01*
X215068762Y-57027200D02*
X214973524Y-56931961D01*
X214973524Y-56931961D02*
X214925905Y-56836723D01*
X214925905Y-56836723D02*
X214878286Y-56646247D01*
X214878286Y-56646247D02*
X214878286Y-56503390D01*
X214878286Y-56503390D02*
X214925905Y-56312914D01*
X214925905Y-56312914D02*
X214973524Y-56217676D01*
X214973524Y-56217676D02*
X215068762Y-56122438D01*
X215068762Y-56122438D02*
X215211619Y-56074819D01*
X215211619Y-56074819D02*
X215306857Y-56074819D01*
X215306857Y-56074819D02*
X215449714Y-56122438D01*
X215449714Y-56122438D02*
X215497333Y-56170057D01*
X216449714Y-57074819D02*
X215878286Y-57074819D01*
X216164000Y-57074819D02*
X216164000Y-56074819D01*
X216164000Y-56074819D02*
X216068762Y-56217676D01*
X216068762Y-56217676D02*
X215973524Y-56312914D01*
X215973524Y-56312914D02*
X215878286Y-56360533D01*
X217963524Y-57027200D02*
X218106381Y-57074819D01*
X218106381Y-57074819D02*
X218344476Y-57074819D01*
X218344476Y-57074819D02*
X218439714Y-57027200D01*
X218439714Y-57027200D02*
X218487333Y-56979580D01*
X218487333Y-56979580D02*
X218534952Y-56884342D01*
X218534952Y-56884342D02*
X218534952Y-56789104D01*
X218534952Y-56789104D02*
X218487333Y-56693866D01*
X218487333Y-56693866D02*
X218439714Y-56646247D01*
X218439714Y-56646247D02*
X218344476Y-56598628D01*
X218344476Y-56598628D02*
X218154000Y-56551009D01*
X218154000Y-56551009D02*
X218058762Y-56503390D01*
X218058762Y-56503390D02*
X218011143Y-56455771D01*
X218011143Y-56455771D02*
X217963524Y-56360533D01*
X217963524Y-56360533D02*
X217963524Y-56265295D01*
X217963524Y-56265295D02*
X218011143Y-56170057D01*
X218011143Y-56170057D02*
X218058762Y-56122438D01*
X218058762Y-56122438D02*
X218154000Y-56074819D01*
X218154000Y-56074819D02*
X218392095Y-56074819D01*
X218392095Y-56074819D02*
X218534952Y-56122438D01*
X219534952Y-56979580D02*
X219487333Y-57027200D01*
X219487333Y-57027200D02*
X219344476Y-57074819D01*
X219344476Y-57074819D02*
X219249238Y-57074819D01*
X219249238Y-57074819D02*
X219106381Y-57027200D01*
X219106381Y-57027200D02*
X219011143Y-56931961D01*
X219011143Y-56931961D02*
X218963524Y-56836723D01*
X218963524Y-56836723D02*
X218915905Y-56646247D01*
X218915905Y-56646247D02*
X218915905Y-56503390D01*
X218915905Y-56503390D02*
X218963524Y-56312914D01*
X218963524Y-56312914D02*
X219011143Y-56217676D01*
X219011143Y-56217676D02*
X219106381Y-56122438D01*
X219106381Y-56122438D02*
X219249238Y-56074819D01*
X219249238Y-56074819D02*
X219344476Y-56074819D01*
X219344476Y-56074819D02*
X219487333Y-56122438D01*
X219487333Y-56122438D02*
X219534952Y-56170057D01*
X220439714Y-57074819D02*
X219963524Y-57074819D01*
X219963524Y-57074819D02*
X219963524Y-56074819D01*
X215497333Y-59519580D02*
X215449714Y-59567200D01*
X215449714Y-59567200D02*
X215306857Y-59614819D01*
X215306857Y-59614819D02*
X215211619Y-59614819D01*
X215211619Y-59614819D02*
X215068762Y-59567200D01*
X215068762Y-59567200D02*
X214973524Y-59471961D01*
X214973524Y-59471961D02*
X214925905Y-59376723D01*
X214925905Y-59376723D02*
X214878286Y-59186247D01*
X214878286Y-59186247D02*
X214878286Y-59043390D01*
X214878286Y-59043390D02*
X214925905Y-58852914D01*
X214925905Y-58852914D02*
X214973524Y-58757676D01*
X214973524Y-58757676D02*
X215068762Y-58662438D01*
X215068762Y-58662438D02*
X215211619Y-58614819D01*
X215211619Y-58614819D02*
X215306857Y-58614819D01*
X215306857Y-58614819D02*
X215449714Y-58662438D01*
X215449714Y-58662438D02*
X215497333Y-58710057D01*
X215878286Y-58710057D02*
X215925905Y-58662438D01*
X215925905Y-58662438D02*
X216021143Y-58614819D01*
X216021143Y-58614819D02*
X216259238Y-58614819D01*
X216259238Y-58614819D02*
X216354476Y-58662438D01*
X216354476Y-58662438D02*
X216402095Y-58710057D01*
X216402095Y-58710057D02*
X216449714Y-58805295D01*
X216449714Y-58805295D02*
X216449714Y-58900533D01*
X216449714Y-58900533D02*
X216402095Y-59043390D01*
X216402095Y-59043390D02*
X215830667Y-59614819D01*
X215830667Y-59614819D02*
X216449714Y-59614819D01*
X218082571Y-46914819D02*
X218082571Y-45914819D01*
X218082571Y-45914819D02*
X218320666Y-45914819D01*
X218320666Y-45914819D02*
X218463523Y-45962438D01*
X218463523Y-45962438D02*
X218558761Y-46057676D01*
X218558761Y-46057676D02*
X218606380Y-46152914D01*
X218606380Y-46152914D02*
X218653999Y-46343390D01*
X218653999Y-46343390D02*
X218653999Y-46486247D01*
X218653999Y-46486247D02*
X218606380Y-46676723D01*
X218606380Y-46676723D02*
X218558761Y-46771961D01*
X218558761Y-46771961D02*
X218463523Y-46867200D01*
X218463523Y-46867200D02*
X218320666Y-46914819D01*
X218320666Y-46914819D02*
X218082571Y-46914819D01*
X219034952Y-46629104D02*
X219511142Y-46629104D01*
X218939714Y-46914819D02*
X219273047Y-45914819D01*
X219273047Y-45914819D02*
X219606380Y-46914819D01*
X219796857Y-45914819D02*
X220368285Y-45914819D01*
X220082571Y-46914819D02*
X220082571Y-45914819D01*
X215497333Y-69679580D02*
X215449714Y-69727200D01*
X215449714Y-69727200D02*
X215306857Y-69774819D01*
X215306857Y-69774819D02*
X215211619Y-69774819D01*
X215211619Y-69774819D02*
X215068762Y-69727200D01*
X215068762Y-69727200D02*
X214973524Y-69631961D01*
X214973524Y-69631961D02*
X214925905Y-69536723D01*
X214925905Y-69536723D02*
X214878286Y-69346247D01*
X214878286Y-69346247D02*
X214878286Y-69203390D01*
X214878286Y-69203390D02*
X214925905Y-69012914D01*
X214925905Y-69012914D02*
X214973524Y-68917676D01*
X214973524Y-68917676D02*
X215068762Y-68822438D01*
X215068762Y-68822438D02*
X215211619Y-68774819D01*
X215211619Y-68774819D02*
X215306857Y-68774819D01*
X215306857Y-68774819D02*
X215449714Y-68822438D01*
X215449714Y-68822438D02*
X215497333Y-68870057D01*
X216354476Y-68774819D02*
X216164000Y-68774819D01*
X216164000Y-68774819D02*
X216068762Y-68822438D01*
X216068762Y-68822438D02*
X216021143Y-68870057D01*
X216021143Y-68870057D02*
X215925905Y-69012914D01*
X215925905Y-69012914D02*
X215878286Y-69203390D01*
X215878286Y-69203390D02*
X215878286Y-69584342D01*
X215878286Y-69584342D02*
X215925905Y-69679580D01*
X215925905Y-69679580D02*
X215973524Y-69727200D01*
X215973524Y-69727200D02*
X216068762Y-69774819D01*
X216068762Y-69774819D02*
X216259238Y-69774819D01*
X216259238Y-69774819D02*
X216354476Y-69727200D01*
X216354476Y-69727200D02*
X216402095Y-69679580D01*
X216402095Y-69679580D02*
X216449714Y-69584342D01*
X216449714Y-69584342D02*
X216449714Y-69346247D01*
X216449714Y-69346247D02*
X216402095Y-69251009D01*
X216402095Y-69251009D02*
X216354476Y-69203390D01*
X216354476Y-69203390D02*
X216259238Y-69155771D01*
X216259238Y-69155771D02*
X216068762Y-69155771D01*
X216068762Y-69155771D02*
X215973524Y-69203390D01*
X215973524Y-69203390D02*
X215925905Y-69251009D01*
X215925905Y-69251009D02*
X215878286Y-69346247D01*
X219577333Y-59519580D02*
X219529714Y-59567200D01*
X219529714Y-59567200D02*
X219386857Y-59614819D01*
X219386857Y-59614819D02*
X219291619Y-59614819D01*
X219291619Y-59614819D02*
X219148762Y-59567200D01*
X219148762Y-59567200D02*
X219053524Y-59471961D01*
X219053524Y-59471961D02*
X219005905Y-59376723D01*
X219005905Y-59376723D02*
X218958286Y-59186247D01*
X218958286Y-59186247D02*
X218958286Y-59043390D01*
X218958286Y-59043390D02*
X219005905Y-58852914D01*
X219005905Y-58852914D02*
X219053524Y-58757676D01*
X219053524Y-58757676D02*
X219148762Y-58662438D01*
X219148762Y-58662438D02*
X219291619Y-58614819D01*
X219291619Y-58614819D02*
X219386857Y-58614819D01*
X219386857Y-58614819D02*
X219529714Y-58662438D01*
X219529714Y-58662438D02*
X219577333Y-58710057D01*
X219958286Y-59567200D02*
X220101143Y-59614819D01*
X220101143Y-59614819D02*
X220339238Y-59614819D01*
X220339238Y-59614819D02*
X220434476Y-59567200D01*
X220434476Y-59567200D02*
X220482095Y-59519580D01*
X220482095Y-59519580D02*
X220529714Y-59424342D01*
X220529714Y-59424342D02*
X220529714Y-59329104D01*
X220529714Y-59329104D02*
X220482095Y-59233866D01*
X220482095Y-59233866D02*
X220434476Y-59186247D01*
X220434476Y-59186247D02*
X220339238Y-59138628D01*
X220339238Y-59138628D02*
X220148762Y-59091009D01*
X220148762Y-59091009D02*
X220053524Y-59043390D01*
X220053524Y-59043390D02*
X220005905Y-58995771D01*
X220005905Y-58995771D02*
X219958286Y-58900533D01*
X219958286Y-58900533D02*
X219958286Y-58805295D01*
X219958286Y-58805295D02*
X220005905Y-58710057D01*
X220005905Y-58710057D02*
X220053524Y-58662438D01*
X220053524Y-58662438D02*
X220148762Y-58614819D01*
X220148762Y-58614819D02*
X220386857Y-58614819D01*
X220386857Y-58614819D02*
X220529714Y-58662438D01*
X215497333Y-62059580D02*
X215449714Y-62107200D01*
X215449714Y-62107200D02*
X215306857Y-62154819D01*
X215306857Y-62154819D02*
X215211619Y-62154819D01*
X215211619Y-62154819D02*
X215068762Y-62107200D01*
X215068762Y-62107200D02*
X214973524Y-62011961D01*
X214973524Y-62011961D02*
X214925905Y-61916723D01*
X214925905Y-61916723D02*
X214878286Y-61726247D01*
X214878286Y-61726247D02*
X214878286Y-61583390D01*
X214878286Y-61583390D02*
X214925905Y-61392914D01*
X214925905Y-61392914D02*
X214973524Y-61297676D01*
X214973524Y-61297676D02*
X215068762Y-61202438D01*
X215068762Y-61202438D02*
X215211619Y-61154819D01*
X215211619Y-61154819D02*
X215306857Y-61154819D01*
X215306857Y-61154819D02*
X215449714Y-61202438D01*
X215449714Y-61202438D02*
X215497333Y-61250057D01*
X215830667Y-61154819D02*
X216449714Y-61154819D01*
X216449714Y-61154819D02*
X216116381Y-61535771D01*
X216116381Y-61535771D02*
X216259238Y-61535771D01*
X216259238Y-61535771D02*
X216354476Y-61583390D01*
X216354476Y-61583390D02*
X216402095Y-61631009D01*
X216402095Y-61631009D02*
X216449714Y-61726247D01*
X216449714Y-61726247D02*
X216449714Y-61964342D01*
X216449714Y-61964342D02*
X216402095Y-62059580D01*
X216402095Y-62059580D02*
X216354476Y-62107200D01*
X216354476Y-62107200D02*
X216259238Y-62154819D01*
X216259238Y-62154819D02*
X215973524Y-62154819D01*
X215973524Y-62154819D02*
X215878286Y-62107200D01*
X215878286Y-62107200D02*
X215830667Y-62059580D01*
X219577333Y-64694819D02*
X219244000Y-64218628D01*
X219005905Y-64694819D02*
X219005905Y-63694819D01*
X219005905Y-63694819D02*
X219386857Y-63694819D01*
X219386857Y-63694819D02*
X219482095Y-63742438D01*
X219482095Y-63742438D02*
X219529714Y-63790057D01*
X219529714Y-63790057D02*
X219577333Y-63885295D01*
X219577333Y-63885295D02*
X219577333Y-64028152D01*
X219577333Y-64028152D02*
X219529714Y-64123390D01*
X219529714Y-64123390D02*
X219482095Y-64171009D01*
X219482095Y-64171009D02*
X219386857Y-64218628D01*
X219386857Y-64218628D02*
X219005905Y-64218628D01*
X220529714Y-64694819D02*
X219958286Y-64694819D01*
X220244000Y-64694819D02*
X220244000Y-63694819D01*
X220244000Y-63694819D02*
X220148762Y-63837676D01*
X220148762Y-63837676D02*
X220053524Y-63932914D01*
X220053524Y-63932914D02*
X219958286Y-63980533D01*
X219005905Y-72314819D02*
X219005905Y-71314819D01*
X219005905Y-71314819D02*
X219386857Y-71314819D01*
X219386857Y-71314819D02*
X219482095Y-71362438D01*
X219482095Y-71362438D02*
X219529714Y-71410057D01*
X219529714Y-71410057D02*
X219577333Y-71505295D01*
X219577333Y-71505295D02*
X219577333Y-71648152D01*
X219577333Y-71648152D02*
X219529714Y-71743390D01*
X219529714Y-71743390D02*
X219482095Y-71791009D01*
X219482095Y-71791009D02*
X219386857Y-71838628D01*
X219386857Y-71838628D02*
X219005905Y-71838628D01*
X220053524Y-72314819D02*
X220244000Y-72314819D01*
X220244000Y-72314819D02*
X220339238Y-72267200D01*
X220339238Y-72267200D02*
X220386857Y-72219580D01*
X220386857Y-72219580D02*
X220482095Y-72076723D01*
X220482095Y-72076723D02*
X220529714Y-71886247D01*
X220529714Y-71886247D02*
X220529714Y-71505295D01*
X220529714Y-71505295D02*
X220482095Y-71410057D01*
X220482095Y-71410057D02*
X220434476Y-71362438D01*
X220434476Y-71362438D02*
X220339238Y-71314819D01*
X220339238Y-71314819D02*
X220148762Y-71314819D01*
X220148762Y-71314819D02*
X220053524Y-71362438D01*
X220053524Y-71362438D02*
X220005905Y-71410057D01*
X220005905Y-71410057D02*
X219958286Y-71505295D01*
X219958286Y-71505295D02*
X219958286Y-71743390D01*
X219958286Y-71743390D02*
X220005905Y-71838628D01*
X220005905Y-71838628D02*
X220053524Y-71886247D01*
X220053524Y-71886247D02*
X220148762Y-71933866D01*
X220148762Y-71933866D02*
X220339238Y-71933866D01*
X220339238Y-71933866D02*
X220434476Y-71886247D01*
X220434476Y-71886247D02*
X220482095Y-71838628D01*
X220482095Y-71838628D02*
X220529714Y-71743390D01*
X218392095Y-48502438D02*
X218296857Y-48454819D01*
X218296857Y-48454819D02*
X218154000Y-48454819D01*
X218154000Y-48454819D02*
X218011143Y-48502438D01*
X218011143Y-48502438D02*
X217915905Y-48597676D01*
X217915905Y-48597676D02*
X217868286Y-48692914D01*
X217868286Y-48692914D02*
X217820667Y-48883390D01*
X217820667Y-48883390D02*
X217820667Y-49026247D01*
X217820667Y-49026247D02*
X217868286Y-49216723D01*
X217868286Y-49216723D02*
X217915905Y-49311961D01*
X217915905Y-49311961D02*
X218011143Y-49407200D01*
X218011143Y-49407200D02*
X218154000Y-49454819D01*
X218154000Y-49454819D02*
X218249238Y-49454819D01*
X218249238Y-49454819D02*
X218392095Y-49407200D01*
X218392095Y-49407200D02*
X218439714Y-49359580D01*
X218439714Y-49359580D02*
X218439714Y-49026247D01*
X218439714Y-49026247D02*
X218249238Y-49026247D01*
X218868286Y-49454819D02*
X218868286Y-48454819D01*
X218868286Y-48454819D02*
X219439714Y-49454819D01*
X219439714Y-49454819D02*
X219439714Y-48454819D01*
X219915905Y-49454819D02*
X219915905Y-48454819D01*
X219915905Y-48454819D02*
X220154000Y-48454819D01*
X220154000Y-48454819D02*
X220296857Y-48502438D01*
X220296857Y-48502438D02*
X220392095Y-48597676D01*
X220392095Y-48597676D02*
X220439714Y-48692914D01*
X220439714Y-48692914D02*
X220487333Y-48883390D01*
X220487333Y-48883390D02*
X220487333Y-49026247D01*
X220487333Y-49026247D02*
X220439714Y-49216723D01*
X220439714Y-49216723D02*
X220392095Y-49311961D01*
X220392095Y-49311961D02*
X220296857Y-49407200D01*
X220296857Y-49407200D02*
X220154000Y-49454819D01*
X220154000Y-49454819D02*
X219915905Y-49454819D01*
X215039714Y-72314819D02*
X215039714Y-71314819D01*
X215039714Y-71314819D02*
X215420666Y-71314819D01*
X215420666Y-71314819D02*
X215515904Y-71362438D01*
X215515904Y-71362438D02*
X215563523Y-71410057D01*
X215563523Y-71410057D02*
X215611142Y-71505295D01*
X215611142Y-71505295D02*
X215611142Y-71648152D01*
X215611142Y-71648152D02*
X215563523Y-71743390D01*
X215563523Y-71743390D02*
X215515904Y-71791009D01*
X215515904Y-71791009D02*
X215420666Y-71838628D01*
X215420666Y-71838628D02*
X215039714Y-71838628D01*
X216563523Y-72314819D02*
X215992095Y-72314819D01*
X216277809Y-72314819D02*
X216277809Y-71314819D01*
X216277809Y-71314819D02*
X216182571Y-71457676D01*
X216182571Y-71457676D02*
X216087333Y-71552914D01*
X216087333Y-71552914D02*
X215992095Y-71600533D01*
X217182571Y-71314819D02*
X217277809Y-71314819D01*
X217277809Y-71314819D02*
X217373047Y-71362438D01*
X217373047Y-71362438D02*
X217420666Y-71410057D01*
X217420666Y-71410057D02*
X217468285Y-71505295D01*
X217468285Y-71505295D02*
X217515904Y-71695771D01*
X217515904Y-71695771D02*
X217515904Y-71933866D01*
X217515904Y-71933866D02*
X217468285Y-72124342D01*
X217468285Y-72124342D02*
X217420666Y-72219580D01*
X217420666Y-72219580D02*
X217373047Y-72267200D01*
X217373047Y-72267200D02*
X217277809Y-72314819D01*
X217277809Y-72314819D02*
X217182571Y-72314819D01*
X217182571Y-72314819D02*
X217087333Y-72267200D01*
X217087333Y-72267200D02*
X217039714Y-72219580D01*
X217039714Y-72219580D02*
X216992095Y-72124342D01*
X216992095Y-72124342D02*
X216944476Y-71933866D01*
X216944476Y-71933866D02*
X216944476Y-71695771D01*
X216944476Y-71695771D02*
X216992095Y-71505295D01*
X216992095Y-71505295D02*
X217039714Y-71410057D01*
X217039714Y-71410057D02*
X217087333Y-71362438D01*
X217087333Y-71362438D02*
X217182571Y-71314819D01*
X214920667Y-50994819D02*
X215254000Y-51994819D01*
X215254000Y-51994819D02*
X215587333Y-50994819D01*
X216492095Y-51899580D02*
X216444476Y-51947200D01*
X216444476Y-51947200D02*
X216301619Y-51994819D01*
X216301619Y-51994819D02*
X216206381Y-51994819D01*
X216206381Y-51994819D02*
X216063524Y-51947200D01*
X216063524Y-51947200D02*
X215968286Y-51851961D01*
X215968286Y-51851961D02*
X215920667Y-51756723D01*
X215920667Y-51756723D02*
X215873048Y-51566247D01*
X215873048Y-51566247D02*
X215873048Y-51423390D01*
X215873048Y-51423390D02*
X215920667Y-51232914D01*
X215920667Y-51232914D02*
X215968286Y-51137676D01*
X215968286Y-51137676D02*
X216063524Y-51042438D01*
X216063524Y-51042438D02*
X216206381Y-50994819D01*
X216206381Y-50994819D02*
X216301619Y-50994819D01*
X216301619Y-50994819D02*
X216444476Y-51042438D01*
X216444476Y-51042438D02*
X216492095Y-51090057D01*
X217492095Y-51899580D02*
X217444476Y-51947200D01*
X217444476Y-51947200D02*
X217301619Y-51994819D01*
X217301619Y-51994819D02*
X217206381Y-51994819D01*
X217206381Y-51994819D02*
X217063524Y-51947200D01*
X217063524Y-51947200D02*
X216968286Y-51851961D01*
X216968286Y-51851961D02*
X216920667Y-51756723D01*
X216920667Y-51756723D02*
X216873048Y-51566247D01*
X216873048Y-51566247D02*
X216873048Y-51423390D01*
X216873048Y-51423390D02*
X216920667Y-51232914D01*
X216920667Y-51232914D02*
X216968286Y-51137676D01*
X216968286Y-51137676D02*
X217063524Y-51042438D01*
X217063524Y-51042438D02*
X217206381Y-50994819D01*
X217206381Y-50994819D02*
X217301619Y-50994819D01*
X217301619Y-50994819D02*
X217444476Y-51042438D01*
X217444476Y-51042438D02*
X217492095Y-51090057D01*
X217939714Y-54487200D02*
X218082571Y-54534819D01*
X218082571Y-54534819D02*
X218320666Y-54534819D01*
X218320666Y-54534819D02*
X218415904Y-54487200D01*
X218415904Y-54487200D02*
X218463523Y-54439580D01*
X218463523Y-54439580D02*
X218511142Y-54344342D01*
X218511142Y-54344342D02*
X218511142Y-54249104D01*
X218511142Y-54249104D02*
X218463523Y-54153866D01*
X218463523Y-54153866D02*
X218415904Y-54106247D01*
X218415904Y-54106247D02*
X218320666Y-54058628D01*
X218320666Y-54058628D02*
X218130190Y-54011009D01*
X218130190Y-54011009D02*
X218034952Y-53963390D01*
X218034952Y-53963390D02*
X217987333Y-53915771D01*
X217987333Y-53915771D02*
X217939714Y-53820533D01*
X217939714Y-53820533D02*
X217939714Y-53725295D01*
X217939714Y-53725295D02*
X217987333Y-53630057D01*
X217987333Y-53630057D02*
X218034952Y-53582438D01*
X218034952Y-53582438D02*
X218130190Y-53534819D01*
X218130190Y-53534819D02*
X218368285Y-53534819D01*
X218368285Y-53534819D02*
X218511142Y-53582438D01*
X218939714Y-54534819D02*
X218939714Y-53534819D01*
X218939714Y-53534819D02*
X219177809Y-53534819D01*
X219177809Y-53534819D02*
X219320666Y-53582438D01*
X219320666Y-53582438D02*
X219415904Y-53677676D01*
X219415904Y-53677676D02*
X219463523Y-53772914D01*
X219463523Y-53772914D02*
X219511142Y-53963390D01*
X219511142Y-53963390D02*
X219511142Y-54106247D01*
X219511142Y-54106247D02*
X219463523Y-54296723D01*
X219463523Y-54296723D02*
X219415904Y-54391961D01*
X219415904Y-54391961D02*
X219320666Y-54487200D01*
X219320666Y-54487200D02*
X219177809Y-54534819D01*
X219177809Y-54534819D02*
X218939714Y-54534819D01*
X219892095Y-54249104D02*
X220368285Y-54249104D01*
X219796857Y-54534819D02*
X220130190Y-53534819D01*
X220130190Y-53534819D02*
X220463523Y-54534819D01*
X219577333Y-62154819D02*
X219244000Y-61678628D01*
X219005905Y-62154819D02*
X219005905Y-61154819D01*
X219005905Y-61154819D02*
X219386857Y-61154819D01*
X219386857Y-61154819D02*
X219482095Y-61202438D01*
X219482095Y-61202438D02*
X219529714Y-61250057D01*
X219529714Y-61250057D02*
X219577333Y-61345295D01*
X219577333Y-61345295D02*
X219577333Y-61488152D01*
X219577333Y-61488152D02*
X219529714Y-61583390D01*
X219529714Y-61583390D02*
X219482095Y-61631009D01*
X219482095Y-61631009D02*
X219386857Y-61678628D01*
X219386857Y-61678628D02*
X219005905Y-61678628D01*
X220196381Y-61154819D02*
X220291619Y-61154819D01*
X220291619Y-61154819D02*
X220386857Y-61202438D01*
X220386857Y-61202438D02*
X220434476Y-61250057D01*
X220434476Y-61250057D02*
X220482095Y-61345295D01*
X220482095Y-61345295D02*
X220529714Y-61535771D01*
X220529714Y-61535771D02*
X220529714Y-61773866D01*
X220529714Y-61773866D02*
X220482095Y-61964342D01*
X220482095Y-61964342D02*
X220434476Y-62059580D01*
X220434476Y-62059580D02*
X220386857Y-62107200D01*
X220386857Y-62107200D02*
X220291619Y-62154819D01*
X220291619Y-62154819D02*
X220196381Y-62154819D01*
X220196381Y-62154819D02*
X220101143Y-62107200D01*
X220101143Y-62107200D02*
X220053524Y-62059580D01*
X220053524Y-62059580D02*
X220005905Y-61964342D01*
X220005905Y-61964342D02*
X219958286Y-61773866D01*
X219958286Y-61773866D02*
X219958286Y-61535771D01*
X219958286Y-61535771D02*
X220005905Y-61345295D01*
X220005905Y-61345295D02*
X220053524Y-61250057D01*
X220053524Y-61250057D02*
X220101143Y-61202438D01*
X220101143Y-61202438D02*
X220196381Y-61154819D01*
X219577333Y-69774819D02*
X219244000Y-69298628D01*
X219005905Y-69774819D02*
X219005905Y-68774819D01*
X219005905Y-68774819D02*
X219386857Y-68774819D01*
X219386857Y-68774819D02*
X219482095Y-68822438D01*
X219482095Y-68822438D02*
X219529714Y-68870057D01*
X219529714Y-68870057D02*
X219577333Y-68965295D01*
X219577333Y-68965295D02*
X219577333Y-69108152D01*
X219577333Y-69108152D02*
X219529714Y-69203390D01*
X219529714Y-69203390D02*
X219482095Y-69251009D01*
X219482095Y-69251009D02*
X219386857Y-69298628D01*
X219386857Y-69298628D02*
X219005905Y-69298628D01*
X219910667Y-68774819D02*
X220529714Y-68774819D01*
X220529714Y-68774819D02*
X220196381Y-69155771D01*
X220196381Y-69155771D02*
X220339238Y-69155771D01*
X220339238Y-69155771D02*
X220434476Y-69203390D01*
X220434476Y-69203390D02*
X220482095Y-69251009D01*
X220482095Y-69251009D02*
X220529714Y-69346247D01*
X220529714Y-69346247D02*
X220529714Y-69584342D01*
X220529714Y-69584342D02*
X220482095Y-69679580D01*
X220482095Y-69679580D02*
X220434476Y-69727200D01*
X220434476Y-69727200D02*
X220339238Y-69774819D01*
X220339238Y-69774819D02*
X220053524Y-69774819D01*
X220053524Y-69774819D02*
X219958286Y-69727200D01*
X219958286Y-69727200D02*
X219910667Y-69679580D01*
X215563523Y-44374819D02*
X215230190Y-43898628D01*
X214992095Y-44374819D02*
X214992095Y-43374819D01*
X214992095Y-43374819D02*
X215373047Y-43374819D01*
X215373047Y-43374819D02*
X215468285Y-43422438D01*
X215468285Y-43422438D02*
X215515904Y-43470057D01*
X215515904Y-43470057D02*
X215563523Y-43565295D01*
X215563523Y-43565295D02*
X215563523Y-43708152D01*
X215563523Y-43708152D02*
X215515904Y-43803390D01*
X215515904Y-43803390D02*
X215468285Y-43851009D01*
X215468285Y-43851009D02*
X215373047Y-43898628D01*
X215373047Y-43898628D02*
X214992095Y-43898628D01*
X215944476Y-44089104D02*
X216420666Y-44089104D01*
X215849238Y-44374819D02*
X216182571Y-43374819D01*
X216182571Y-43374819D02*
X216515904Y-44374819D01*
X216754000Y-43374819D02*
X216992095Y-44374819D01*
X216992095Y-44374819D02*
X217182571Y-43660533D01*
X217182571Y-43660533D02*
X217373047Y-44374819D01*
X217373047Y-44374819D02*
X217611143Y-43374819D01*
D11*
X92200000Y-41425000D02*
X93000000Y-41425000D01*
X92600000Y-41425000D02*
X92600000Y-40925000D01*
X92600000Y-42025000D02*
X92050000Y-42025000D01*
X92600000Y-42025000D02*
X92200000Y-41425000D01*
X92600000Y-42025000D02*
X93150000Y-42025000D01*
X92600000Y-42425000D02*
X92600000Y-42025000D01*
X93000000Y-41425000D02*
X92600000Y-42025000D01*
D12*
X211237000Y-74370000D02*
X211237000Y-77030000D01*
X224057000Y-74370000D02*
X211237000Y-74370000D01*
X224057000Y-74370000D02*
X224057000Y-77030000D01*
X224057000Y-77030000D02*
X211237000Y-77030000D01*
X228075000Y-83350000D02*
X228075000Y-83150000D01*
X228075000Y-86350000D02*
X228075000Y-84650000D01*
X229125000Y-88200000D02*
X229915000Y-88200000D01*
X229915000Y-81300000D02*
X229125000Y-81300000D01*
X230925000Y-87600000D02*
X230925000Y-81900000D01*
D11*
X149200000Y-96050000D02*
X150000000Y-96050000D01*
X149600000Y-96050000D02*
X149600000Y-95550000D01*
X149600000Y-96650000D02*
X149050000Y-96650000D01*
X149600000Y-96650000D02*
X149200000Y-96050000D01*
X149600000Y-96650000D02*
X150150000Y-96650000D01*
X149600000Y-97050000D02*
X149600000Y-96650000D01*
X150000000Y-96050000D02*
X149600000Y-96650000D01*
X168200000Y-79425000D02*
X169000000Y-79425000D01*
X168600000Y-79425000D02*
X168600000Y-78925000D01*
X168600000Y-80025000D02*
X168050000Y-80025000D01*
X168600000Y-80025000D02*
X168200000Y-79425000D01*
X168600000Y-80025000D02*
X169150000Y-80025000D01*
X168600000Y-80425000D02*
X168600000Y-80025000D01*
X169000000Y-79425000D02*
X168600000Y-80025000D01*
X130200000Y-79425000D02*
X131000000Y-79425000D01*
X130600000Y-79425000D02*
X130600000Y-78925000D01*
X130600000Y-80025000D02*
X130050000Y-80025000D01*
X130600000Y-80025000D02*
X130200000Y-79425000D01*
X130600000Y-80025000D02*
X131150000Y-80025000D01*
X130600000Y-80425000D02*
X130600000Y-80025000D01*
X131000000Y-79425000D02*
X130600000Y-80025000D01*
D12*
X208754000Y-42590000D02*
X208754000Y-73190000D01*
X208754000Y-42590000D02*
X211414000Y-42590000D01*
X208754000Y-73190000D02*
X211414000Y-73190000D01*
X211414000Y-42590000D02*
X211414000Y-73190000D01*
X223994000Y-42590000D02*
X223994000Y-73190000D01*
X223994000Y-42590000D02*
X226654000Y-42590000D01*
X223994000Y-45190000D02*
X226654000Y-45190000D01*
X223994000Y-73190000D02*
X226654000Y-73190000D01*
X226654000Y-42590000D02*
X226654000Y-73190000D01*
D11*
X187200000Y-62800000D02*
X188000000Y-62800000D01*
X187600000Y-62800000D02*
X187600000Y-62300000D01*
X187600000Y-63400000D02*
X187050000Y-63400000D01*
X187600000Y-63400000D02*
X187200000Y-62800000D01*
X187600000Y-63400000D02*
X188150000Y-63400000D01*
X187600000Y-63800000D02*
X187600000Y-63400000D01*
X188000000Y-62800000D02*
X187600000Y-63400000D01*
D12*
X213290000Y-80440000D02*
X214290000Y-80440000D01*
X213290000Y-81360000D02*
X213290000Y-80440000D01*
X213290000Y-85560000D02*
X213290000Y-86560000D01*
X213290000Y-86560000D02*
X214290000Y-86560000D01*
X221110000Y-80440000D02*
X220110000Y-80440000D01*
X221110000Y-81360000D02*
X221110000Y-80440000D01*
X221110000Y-85640000D02*
X221110000Y-86560000D01*
X221110000Y-86560000D02*
X220110000Y-86560000D01*
D11*
X221650000Y-82500000D02*
X222650000Y-82500000D01*
X222150000Y-82000000D02*
X222150000Y-83000000D01*
X222150000Y-85000000D02*
X222150000Y-84000000D01*
X111200000Y-58050000D02*
X112000000Y-58050000D01*
X111600000Y-58050000D02*
X111600000Y-57550000D01*
X111600000Y-58650000D02*
X111050000Y-58650000D01*
X111600000Y-58650000D02*
X111200000Y-58050000D01*
X111600000Y-58650000D02*
X112150000Y-58650000D01*
X111600000Y-59050000D02*
X111600000Y-58650000D01*
X112000000Y-58050000D02*
X111600000Y-58650000D01*
X209040494Y-124207510D02*
X209440494Y-123514690D01*
X209240494Y-123861100D02*
X208807481Y-123611100D01*
X209440494Y-123514690D02*
X209760109Y-124161100D01*
X209760109Y-124161100D02*
X209040494Y-124207510D01*
X209760109Y-124161100D02*
X209485109Y-124637414D01*
X209760109Y-124161100D02*
X210035109Y-123684786D01*
X210106519Y-124361100D02*
X209760109Y-124161100D01*
X168200000Y-41425000D02*
X169000000Y-41425000D01*
X168600000Y-41425000D02*
X168600000Y-40925000D01*
X168600000Y-42025000D02*
X168050000Y-42025000D01*
X168600000Y-42025000D02*
X168200000Y-41425000D01*
X168600000Y-42025000D02*
X169150000Y-42025000D01*
X168600000Y-42425000D02*
X168600000Y-42025000D01*
X169000000Y-41425000D02*
X168600000Y-42025000D01*
X92200000Y-98425000D02*
X93000000Y-98425000D01*
X92600000Y-98425000D02*
X92600000Y-97925000D01*
X92600000Y-99025000D02*
X92050000Y-99025000D01*
X92600000Y-99025000D02*
X92200000Y-98425000D01*
X92600000Y-99025000D02*
X93150000Y-99025000D01*
X92600000Y-99425000D02*
X92600000Y-99025000D01*
X93000000Y-98425000D02*
X92600000Y-99025000D01*
X149200000Y-39050000D02*
X150000000Y-39050000D01*
X149600000Y-39050000D02*
X149600000Y-38550000D01*
X149600000Y-39650000D02*
X149050000Y-39650000D01*
X149600000Y-39650000D02*
X149200000Y-39050000D01*
X149600000Y-39650000D02*
X150150000Y-39650000D01*
X149600000Y-40050000D02*
X149600000Y-39650000D01*
X150000000Y-39050000D02*
X149600000Y-39650000D01*
X187200000Y-81800000D02*
X188000000Y-81800000D01*
X187600000Y-81800000D02*
X187600000Y-81300000D01*
X187600000Y-82400000D02*
X187050000Y-82400000D01*
X187600000Y-82400000D02*
X187200000Y-81800000D01*
X187600000Y-82400000D02*
X188150000Y-82400000D01*
X187600000Y-82800000D02*
X187600000Y-82400000D01*
X188000000Y-81800000D02*
X187600000Y-82400000D01*
X149200000Y-58050000D02*
X150000000Y-58050000D01*
X149600000Y-58050000D02*
X149600000Y-57550000D01*
X149600000Y-58650000D02*
X149050000Y-58650000D01*
X149600000Y-58650000D02*
X149200000Y-58050000D01*
X149600000Y-58650000D02*
X150150000Y-58650000D01*
X149600000Y-59050000D02*
X149600000Y-58650000D01*
X150000000Y-58050000D02*
X149600000Y-58650000D01*
X227500000Y-70650000D02*
X227500000Y-70400000D01*
X227500000Y-74850000D02*
X227500000Y-75100000D01*
X227750000Y-70400000D02*
X227500000Y-70400000D01*
X227750000Y-75100000D02*
X227500000Y-75100000D01*
X230750000Y-70400000D02*
X231000000Y-70400000D01*
X230750000Y-75100000D02*
X231000000Y-75100000D01*
X231000000Y-70650000D02*
X231000000Y-70400000D01*
X231000000Y-74850000D02*
X231000000Y-75100000D01*
X168200000Y-60425000D02*
X169000000Y-60425000D01*
X168600000Y-60425000D02*
X168600000Y-59925000D01*
X168600000Y-61025000D02*
X168050000Y-61025000D01*
X168600000Y-61025000D02*
X168200000Y-60425000D01*
X168600000Y-61025000D02*
X169150000Y-61025000D01*
X168600000Y-61425000D02*
X168600000Y-61025000D01*
X169000000Y-60425000D02*
X168600000Y-61025000D01*
X111200000Y-77050000D02*
X112000000Y-77050000D01*
X111600000Y-77050000D02*
X111600000Y-76550000D01*
X111600000Y-77650000D02*
X111050000Y-77650000D01*
X111600000Y-77650000D02*
X111200000Y-77050000D01*
X111600000Y-77650000D02*
X112150000Y-77650000D01*
X111600000Y-78050000D02*
X111600000Y-77650000D01*
X112000000Y-77050000D02*
X111600000Y-77650000D01*
X168200000Y-98425000D02*
X169000000Y-98425000D01*
X168600000Y-98425000D02*
X168600000Y-97925000D01*
X168600000Y-99025000D02*
X168050000Y-99025000D01*
X168600000Y-99025000D02*
X168200000Y-98425000D01*
X168600000Y-99025000D02*
X169150000Y-99025000D01*
X168600000Y-99425000D02*
X168600000Y-99025000D01*
X169000000Y-98425000D02*
X168600000Y-99025000D01*
X130200000Y-98425000D02*
X131000000Y-98425000D01*
X130600000Y-98425000D02*
X130600000Y-97925000D01*
X130600000Y-99025000D02*
X130050000Y-99025000D01*
X130600000Y-99025000D02*
X130200000Y-98425000D01*
X130600000Y-99025000D02*
X131150000Y-99025000D01*
X130600000Y-99425000D02*
X130600000Y-99025000D01*
X131000000Y-98425000D02*
X130600000Y-99025000D01*
X149200000Y-77050000D02*
X150000000Y-77050000D01*
X149600000Y-77050000D02*
X149600000Y-76550000D01*
X149600000Y-77650000D02*
X149050000Y-77650000D01*
X149600000Y-77650000D02*
X149200000Y-77050000D01*
X149600000Y-77650000D02*
X150150000Y-77650000D01*
X149600000Y-78050000D02*
X149600000Y-77650000D01*
X150000000Y-77050000D02*
X149600000Y-77650000D01*
X92200000Y-60425000D02*
X93000000Y-60425000D01*
X92600000Y-60425000D02*
X92600000Y-59925000D01*
X92600000Y-61025000D02*
X92050000Y-61025000D01*
X92600000Y-61025000D02*
X92200000Y-60425000D01*
X92600000Y-61025000D02*
X93150000Y-61025000D01*
X92600000Y-61425000D02*
X92600000Y-61025000D01*
X93000000Y-60425000D02*
X92600000Y-61025000D01*
X187200000Y-43800000D02*
X188000000Y-43800000D01*
X187600000Y-43800000D02*
X187600000Y-43300000D01*
X187600000Y-44400000D02*
X187050000Y-44400000D01*
X187600000Y-44400000D02*
X187200000Y-43800000D01*
X187600000Y-44400000D02*
X188150000Y-44400000D01*
X187600000Y-44800000D02*
X187600000Y-44400000D01*
X188000000Y-43800000D02*
X187600000Y-44400000D01*
X130200000Y-60425000D02*
X131000000Y-60425000D01*
X130600000Y-60425000D02*
X130600000Y-59925000D01*
X130600000Y-61025000D02*
X130050000Y-61025000D01*
X130600000Y-61025000D02*
X130200000Y-60425000D01*
X130600000Y-61025000D02*
X131150000Y-61025000D01*
X130600000Y-61425000D02*
X130600000Y-61025000D01*
X131000000Y-60425000D02*
X130600000Y-61025000D01*
X92200000Y-79425000D02*
X93000000Y-79425000D01*
X92600000Y-79425000D02*
X92600000Y-78925000D01*
X92600000Y-80025000D02*
X92050000Y-80025000D01*
X92600000Y-80025000D02*
X92200000Y-79425000D01*
X92600000Y-80025000D02*
X93150000Y-80025000D01*
X92600000Y-80425000D02*
X92600000Y-80025000D01*
X93000000Y-79425000D02*
X92600000Y-80025000D01*
X111200000Y-39050000D02*
X112000000Y-39050000D01*
X111600000Y-39050000D02*
X111600000Y-38550000D01*
X111600000Y-39650000D02*
X111050000Y-39650000D01*
X111600000Y-39650000D02*
X111200000Y-39050000D01*
X111600000Y-39650000D02*
X112150000Y-39650000D01*
X111600000Y-40050000D02*
X111600000Y-39650000D01*
X112000000Y-39050000D02*
X111600000Y-39650000D01*
X130200000Y-41425000D02*
X131000000Y-41425000D01*
X130600000Y-41425000D02*
X130600000Y-40925000D01*
X130600000Y-42025000D02*
X130050000Y-42025000D01*
X130600000Y-42025000D02*
X130200000Y-41425000D01*
X130600000Y-42025000D02*
X131150000Y-42025000D01*
X130600000Y-42425000D02*
X130600000Y-42025000D01*
X131000000Y-41425000D02*
X130600000Y-42025000D01*
X192585994Y-114707510D02*
X192985994Y-114014690D01*
X192785994Y-114361100D02*
X192352981Y-114111100D01*
X192985994Y-114014690D02*
X193305609Y-114661100D01*
X193305609Y-114661100D02*
X192585994Y-114707510D01*
X193305609Y-114661100D02*
X193030609Y-115137414D01*
X193305609Y-114661100D02*
X193580609Y-114184786D01*
X193652019Y-114861100D02*
X193305609Y-114661100D01*
X111200000Y-96050000D02*
X112000000Y-96050000D01*
X111600000Y-96050000D02*
X111600000Y-95550000D01*
X111600000Y-96650000D02*
X111050000Y-96650000D01*
X111600000Y-96650000D02*
X111200000Y-96050000D01*
X111600000Y-96650000D02*
X112150000Y-96650000D01*
X111600000Y-97050000D02*
X111600000Y-96650000D01*
X112000000Y-96050000D02*
X111600000Y-96650000D01*
%LPC*%
D13*
X113920000Y-78625000D03*
D14*
X116460000Y-73545000D03*
D15*
X119000000Y-78625000D03*
D14*
X122810000Y-76085000D03*
D13*
X124080000Y-78625000D03*
G36*
G01*
X124760000Y-77335000D02*
X124760000Y-74835000D01*
G75*
G02*
X124810000Y-74785000I50000J0D01*
G01*
X127360000Y-74785000D01*
G75*
G02*
X127410000Y-74835000I0J-50000D01*
G01*
X127410000Y-77335000D01*
G75*
G02*
X127360000Y-77385000I-50000J0D01*
G01*
X124810000Y-77385000D01*
G75*
G02*
X124760000Y-77335000I0J50000D01*
G01*
G37*
G36*
G01*
X111833000Y-74795000D02*
X111833000Y-72295000D01*
G75*
G02*
X111883000Y-72245000I50000J0D01*
G01*
X114433000Y-72245000D01*
G75*
G02*
X114483000Y-72295000I0J-50000D01*
G01*
X114483000Y-74795000D01*
G75*
G02*
X114433000Y-74845000I-50000J0D01*
G01*
X111883000Y-74845000D01*
G75*
G02*
X111833000Y-74795000I0J50000D01*
G01*
G37*
G36*
G01*
X93200000Y-43825000D02*
X92000000Y-43825000D01*
G75*
G02*
X91950000Y-43775000I0J50000D01*
G01*
X91950000Y-42875000D01*
G75*
G02*
X92000000Y-42825000I50000J0D01*
G01*
X93200000Y-42825000D01*
G75*
G02*
X93250000Y-42875000I0J-50000D01*
G01*
X93250000Y-43775000D01*
G75*
G02*
X93200000Y-43825000I-50000J0D01*
G01*
G37*
G36*
G01*
X93200000Y-40525000D02*
X92000000Y-40525000D01*
G75*
G02*
X91950000Y-40475000I0J50000D01*
G01*
X91950000Y-39575000D01*
G75*
G02*
X92000000Y-39525000I50000J0D01*
G01*
X93200000Y-39525000D01*
G75*
G02*
X93250000Y-39575000I0J-50000D01*
G01*
X93250000Y-40475000D01*
G75*
G02*
X93200000Y-40525000I-50000J0D01*
G01*
G37*
X211764500Y-122639409D03*
D14*
X208635091Y-117899705D03*
D15*
X214304500Y-118240000D03*
D14*
X214009795Y-113670443D03*
D13*
X216844500Y-113840591D03*
G36*
G01*
X216067327Y-112606693D02*
X213902263Y-111356693D01*
G75*
G02*
X213883962Y-111288392I25000J43301D01*
G01*
X215158962Y-109080028D01*
G75*
G02*
X215227263Y-109061727I43301J-25000D01*
G01*
X217392327Y-110311727D01*
G75*
G02*
X217410628Y-110380028I-25000J-43301D01*
G01*
X216135628Y-112588392D01*
G75*
G02*
X216067327Y-112606693I-43301J25000D01*
G01*
G37*
G36*
G01*
X207404123Y-122531803D02*
X205239059Y-121281803D01*
G75*
G02*
X205220758Y-121213502I25000J43301D01*
G01*
X206495758Y-119005138D01*
G75*
G02*
X206564059Y-118986837I43301J-25000D01*
G01*
X208729123Y-120236837D01*
G75*
G02*
X208747424Y-120305138I-25000J-43301D01*
G01*
X207472424Y-122513502D01*
G75*
G02*
X207404123Y-122531803I-43301J25000D01*
G01*
G37*
D16*
X212567000Y-75700000D03*
X215107000Y-75700000D03*
X217647000Y-75700000D03*
X220187000Y-75700000D03*
D17*
X222727000Y-75700000D03*
G36*
G01*
X213167000Y-78700000D02*
X211967000Y-78700000D01*
G75*
G02*
X211917000Y-78650000I0J50000D01*
G01*
X211917000Y-78050000D01*
G75*
G02*
X211967000Y-78000000I50000J0D01*
G01*
X213167000Y-78000000D01*
G75*
G02*
X213217000Y-78050000I0J-50000D01*
G01*
X213217000Y-78650000D01*
G75*
G02*
X213167000Y-78700000I-50000J0D01*
G01*
G37*
G36*
G01*
X215707000Y-78700000D02*
X214507000Y-78700000D01*
G75*
G02*
X214457000Y-78650000I0J50000D01*
G01*
X214457000Y-78050000D01*
G75*
G02*
X214507000Y-78000000I50000J0D01*
G01*
X215707000Y-78000000D01*
G75*
G02*
X215757000Y-78050000I0J-50000D01*
G01*
X215757000Y-78650000D01*
G75*
G02*
X215707000Y-78700000I-50000J0D01*
G01*
G37*
G36*
G01*
X220787000Y-78700000D02*
X219587000Y-78700000D01*
G75*
G02*
X219537000Y-78650000I0J50000D01*
G01*
X219537000Y-78050000D01*
G75*
G02*
X219587000Y-78000000I50000J0D01*
G01*
X220787000Y-78000000D01*
G75*
G02*
X220837000Y-78050000I0J-50000D01*
G01*
X220837000Y-78650000D01*
G75*
G02*
X220787000Y-78700000I-50000J0D01*
G01*
G37*
G36*
G01*
X223327000Y-78700000D02*
X222127000Y-78700000D01*
G75*
G02*
X222077000Y-78650000I0J50000D01*
G01*
X222077000Y-78050000D01*
G75*
G02*
X222127000Y-78000000I50000J0D01*
G01*
X223327000Y-78000000D01*
G75*
G02*
X223377000Y-78050000I0J-50000D01*
G01*
X223377000Y-78650000D01*
G75*
G02*
X223327000Y-78700000I-50000J0D01*
G01*
G37*
G36*
G01*
X213167000Y-77800000D02*
X211967000Y-77800000D01*
G75*
G02*
X211917000Y-77750000I0J50000D01*
G01*
X211917000Y-77150000D01*
G75*
G02*
X211967000Y-77100000I50000J0D01*
G01*
X213167000Y-77100000D01*
G75*
G02*
X213217000Y-77150000I0J-50000D01*
G01*
X213217000Y-77750000D01*
G75*
G02*
X213167000Y-77800000I-50000J0D01*
G01*
G37*
G36*
G01*
X215707000Y-77800000D02*
X214507000Y-77800000D01*
G75*
G02*
X214457000Y-77750000I0J50000D01*
G01*
X214457000Y-77150000D01*
G75*
G02*
X214507000Y-77100000I50000J0D01*
G01*
X215707000Y-77100000D01*
G75*
G02*
X215757000Y-77150000I0J-50000D01*
G01*
X215757000Y-77750000D01*
G75*
G02*
X215707000Y-77800000I-50000J0D01*
G01*
G37*
G36*
G01*
X220787000Y-77800000D02*
X219587000Y-77800000D01*
G75*
G02*
X219537000Y-77750000I0J50000D01*
G01*
X219537000Y-77150000D01*
G75*
G02*
X219587000Y-77100000I50000J0D01*
G01*
X220787000Y-77100000D01*
G75*
G02*
X220837000Y-77150000I0J-50000D01*
G01*
X220837000Y-77750000D01*
G75*
G02*
X220787000Y-77800000I-50000J0D01*
G01*
G37*
G36*
G01*
X223327000Y-77800000D02*
X222127000Y-77800000D01*
G75*
G02*
X222077000Y-77750000I0J50000D01*
G01*
X222077000Y-77150000D01*
G75*
G02*
X222127000Y-77100000I50000J0D01*
G01*
X223327000Y-77100000D01*
G75*
G02*
X223377000Y-77150000I0J-50000D01*
G01*
X223377000Y-77750000D01*
G75*
G02*
X223327000Y-77800000I-50000J0D01*
G01*
G37*
D18*
X166468000Y-89261000D03*
G36*
G01*
X228815000Y-81650000D02*
X228015000Y-81650000D01*
G75*
G02*
X227965000Y-81600000I0J50000D01*
G01*
X227965000Y-80600000D01*
G75*
G02*
X228015000Y-80550000I50000J0D01*
G01*
X228815000Y-80550000D01*
G75*
G02*
X228865000Y-80600000I0J-50000D01*
G01*
X228865000Y-81600000D01*
G75*
G02*
X228815000Y-81650000I-50000J0D01*
G01*
G37*
G36*
G01*
X228815000Y-88950000D02*
X228015000Y-88950000D01*
G75*
G02*
X227965000Y-88900000I0J50000D01*
G01*
X227965000Y-87900000D01*
G75*
G02*
X228015000Y-87850000I50000J0D01*
G01*
X228815000Y-87850000D01*
G75*
G02*
X228865000Y-87900000I0J-50000D01*
G01*
X228865000Y-88900000D01*
G75*
G02*
X228815000Y-88950000I-50000J0D01*
G01*
G37*
D19*
X229525000Y-83250000D03*
X229525000Y-86250000D03*
G36*
G01*
X231025000Y-81650000D02*
X230225000Y-81650000D01*
G75*
G02*
X230175000Y-81600000I0J50000D01*
G01*
X230175000Y-80600000D01*
G75*
G02*
X230225000Y-80550000I50000J0D01*
G01*
X231025000Y-80550000D01*
G75*
G02*
X231075000Y-80600000I0J-50000D01*
G01*
X231075000Y-81600000D01*
G75*
G02*
X231025000Y-81650000I-50000J0D01*
G01*
G37*
G36*
G01*
X231025000Y-88950000D02*
X230225000Y-88950000D01*
G75*
G02*
X230175000Y-88900000I0J50000D01*
G01*
X230175000Y-87900000D01*
G75*
G02*
X230225000Y-87850000I50000J0D01*
G01*
X231025000Y-87850000D01*
G75*
G02*
X231075000Y-87900000I0J-50000D01*
G01*
X231075000Y-88900000D01*
G75*
G02*
X231025000Y-88950000I-50000J0D01*
G01*
G37*
G36*
G01*
X228515000Y-87400000D02*
X227015000Y-87400000D01*
G75*
G02*
X226965000Y-87350000I0J50000D01*
G01*
X226965000Y-86650000D01*
G75*
G02*
X227015000Y-86600000I50000J0D01*
G01*
X228515000Y-86600000D01*
G75*
G02*
X228565000Y-86650000I0J-50000D01*
G01*
X228565000Y-87350000D01*
G75*
G02*
X228515000Y-87400000I-50000J0D01*
G01*
G37*
G36*
G01*
X228515000Y-84400000D02*
X227015000Y-84400000D01*
G75*
G02*
X226965000Y-84350000I0J50000D01*
G01*
X226965000Y-83650000D01*
G75*
G02*
X227015000Y-83600000I50000J0D01*
G01*
X228515000Y-83600000D01*
G75*
G02*
X228565000Y-83650000I0J-50000D01*
G01*
X228565000Y-84350000D01*
G75*
G02*
X228515000Y-84400000I-50000J0D01*
G01*
G37*
G36*
G01*
X228515000Y-82900000D02*
X227015000Y-82900000D01*
G75*
G02*
X226965000Y-82850000I0J50000D01*
G01*
X226965000Y-82150000D01*
G75*
G02*
X227015000Y-82100000I50000J0D01*
G01*
X228515000Y-82100000D01*
G75*
G02*
X228565000Y-82150000I0J-50000D01*
G01*
X228565000Y-82850000D01*
G75*
G02*
X228515000Y-82900000I-50000J0D01*
G01*
G37*
D13*
X113920000Y-40625000D03*
D14*
X116460000Y-35545000D03*
D15*
X119000000Y-40625000D03*
D14*
X122810000Y-38085000D03*
D13*
X124080000Y-40625000D03*
G36*
G01*
X124760000Y-39335000D02*
X124760000Y-36835000D01*
G75*
G02*
X124810000Y-36785000I50000J0D01*
G01*
X127360000Y-36785000D01*
G75*
G02*
X127410000Y-36835000I0J-50000D01*
G01*
X127410000Y-39335000D01*
G75*
G02*
X127360000Y-39385000I-50000J0D01*
G01*
X124810000Y-39385000D01*
G75*
G02*
X124760000Y-39335000I0J50000D01*
G01*
G37*
G36*
G01*
X111833000Y-36795000D02*
X111833000Y-34295000D01*
G75*
G02*
X111883000Y-34245000I50000J0D01*
G01*
X114433000Y-34245000D01*
G75*
G02*
X114483000Y-34295000I0J-50000D01*
G01*
X114483000Y-36795000D01*
G75*
G02*
X114433000Y-36845000I-50000J0D01*
G01*
X111883000Y-36845000D01*
G75*
G02*
X111833000Y-36795000I0J50000D01*
G01*
G37*
X94920000Y-100000000D03*
D14*
X97460000Y-94920000D03*
D15*
X100000000Y-100000000D03*
D14*
X103810000Y-97460000D03*
D13*
X105080000Y-100000000D03*
G36*
G01*
X105760000Y-98710000D02*
X105760000Y-96210000D01*
G75*
G02*
X105810000Y-96160000I50000J0D01*
G01*
X108360000Y-96160000D01*
G75*
G02*
X108410000Y-96210000I0J-50000D01*
G01*
X108410000Y-98710000D01*
G75*
G02*
X108360000Y-98760000I-50000J0D01*
G01*
X105810000Y-98760000D01*
G75*
G02*
X105760000Y-98710000I0J50000D01*
G01*
G37*
G36*
G01*
X92833000Y-96170000D02*
X92833000Y-93670000D01*
G75*
G02*
X92883000Y-93620000I50000J0D01*
G01*
X95433000Y-93620000D01*
G75*
G02*
X95483000Y-93670000I0J-50000D01*
G01*
X95483000Y-96170000D01*
G75*
G02*
X95433000Y-96220000I-50000J0D01*
G01*
X92883000Y-96220000D01*
G75*
G02*
X92833000Y-96170000I0J50000D01*
G01*
G37*
G36*
G01*
X150200000Y-98450000D02*
X149000000Y-98450000D01*
G75*
G02*
X148950000Y-98400000I0J50000D01*
G01*
X148950000Y-97500000D01*
G75*
G02*
X149000000Y-97450000I50000J0D01*
G01*
X150200000Y-97450000D01*
G75*
G02*
X150250000Y-97500000I0J-50000D01*
G01*
X150250000Y-98400000D01*
G75*
G02*
X150200000Y-98450000I-50000J0D01*
G01*
G37*
G36*
G01*
X150200000Y-95150000D02*
X149000000Y-95150000D01*
G75*
G02*
X148950000Y-95100000I0J50000D01*
G01*
X148950000Y-94200000D01*
G75*
G02*
X149000000Y-94150000I50000J0D01*
G01*
X150200000Y-94150000D01*
G75*
G02*
X150250000Y-94200000I0J-50000D01*
G01*
X150250000Y-95100000D01*
G75*
G02*
X150200000Y-95150000I-50000J0D01*
G01*
G37*
X170920000Y-81000000D03*
D14*
X173460000Y-75920000D03*
D15*
X176000000Y-81000000D03*
D14*
X179810000Y-78460000D03*
D13*
X181080000Y-81000000D03*
G36*
G01*
X181760000Y-79710000D02*
X181760000Y-77210000D01*
G75*
G02*
X181810000Y-77160000I50000J0D01*
G01*
X184360000Y-77160000D01*
G75*
G02*
X184410000Y-77210000I0J-50000D01*
G01*
X184410000Y-79710000D01*
G75*
G02*
X184360000Y-79760000I-50000J0D01*
G01*
X181810000Y-79760000D01*
G75*
G02*
X181760000Y-79710000I0J50000D01*
G01*
G37*
G36*
G01*
X168833000Y-77170000D02*
X168833000Y-74670000D01*
G75*
G02*
X168883000Y-74620000I50000J0D01*
G01*
X171433000Y-74620000D01*
G75*
G02*
X171483000Y-74670000I0J-50000D01*
G01*
X171483000Y-77170000D01*
G75*
G02*
X171433000Y-77220000I-50000J0D01*
G01*
X168883000Y-77220000D01*
G75*
G02*
X168833000Y-77170000I0J50000D01*
G01*
G37*
G36*
G01*
X169200000Y-81825000D02*
X168000000Y-81825000D01*
G75*
G02*
X167950000Y-81775000I0J50000D01*
G01*
X167950000Y-80875000D01*
G75*
G02*
X168000000Y-80825000I50000J0D01*
G01*
X169200000Y-80825000D01*
G75*
G02*
X169250000Y-80875000I0J-50000D01*
G01*
X169250000Y-81775000D01*
G75*
G02*
X169200000Y-81825000I-50000J0D01*
G01*
G37*
G36*
G01*
X169200000Y-78525000D02*
X168000000Y-78525000D01*
G75*
G02*
X167950000Y-78475000I0J50000D01*
G01*
X167950000Y-77575000D01*
G75*
G02*
X168000000Y-77525000I50000J0D01*
G01*
X169200000Y-77525000D01*
G75*
G02*
X169250000Y-77575000I0J-50000D01*
G01*
X169250000Y-78475000D01*
G75*
G02*
X169200000Y-78525000I-50000J0D01*
G01*
G37*
G36*
G01*
X131200000Y-81825000D02*
X130000000Y-81825000D01*
G75*
G02*
X129950000Y-81775000I0J50000D01*
G01*
X129950000Y-80875000D01*
G75*
G02*
X130000000Y-80825000I50000J0D01*
G01*
X131200000Y-80825000D01*
G75*
G02*
X131250000Y-80875000I0J-50000D01*
G01*
X131250000Y-81775000D01*
G75*
G02*
X131200000Y-81825000I-50000J0D01*
G01*
G37*
G36*
G01*
X131200000Y-78525000D02*
X130000000Y-78525000D01*
G75*
G02*
X129950000Y-78475000I0J50000D01*
G01*
X129950000Y-77575000D01*
G75*
G02*
X130000000Y-77525000I50000J0D01*
G01*
X131200000Y-77525000D01*
G75*
G02*
X131250000Y-77575000I0J-50000D01*
G01*
X131250000Y-78475000D01*
G75*
G02*
X131200000Y-78525000I-50000J0D01*
G01*
G37*
G36*
G01*
X222834000Y-44520000D02*
X222834000Y-43320000D01*
G75*
G02*
X222884000Y-43270000I50000J0D01*
G01*
X223484000Y-43270000D01*
G75*
G02*
X223534000Y-43320000I0J-50000D01*
G01*
X223534000Y-44520000D01*
G75*
G02*
X223484000Y-44570000I-50000J0D01*
G01*
X222884000Y-44570000D01*
G75*
G02*
X222834000Y-44520000I0J50000D01*
G01*
G37*
D17*
X225324000Y-43920000D03*
G36*
G01*
X222834000Y-47060000D02*
X222834000Y-45860000D01*
G75*
G02*
X222884000Y-45810000I50000J0D01*
G01*
X223484000Y-45810000D01*
G75*
G02*
X223534000Y-45860000I0J-50000D01*
G01*
X223534000Y-47060000D01*
G75*
G02*
X223484000Y-47110000I-50000J0D01*
G01*
X222884000Y-47110000D01*
G75*
G02*
X222834000Y-47060000I0J50000D01*
G01*
G37*
X225324000Y-46460000D03*
G36*
G01*
X222834000Y-49600000D02*
X222834000Y-48400000D01*
G75*
G02*
X222884000Y-48350000I50000J0D01*
G01*
X223484000Y-48350000D01*
G75*
G02*
X223534000Y-48400000I0J-50000D01*
G01*
X223534000Y-49600000D01*
G75*
G02*
X223484000Y-49650000I-50000J0D01*
G01*
X222884000Y-49650000D01*
G75*
G02*
X222834000Y-49600000I0J50000D01*
G01*
G37*
X225324000Y-49000000D03*
G36*
G01*
X222834000Y-52140000D02*
X222834000Y-50940000D01*
G75*
G02*
X222884000Y-50890000I50000J0D01*
G01*
X223484000Y-50890000D01*
G75*
G02*
X223534000Y-50940000I0J-50000D01*
G01*
X223534000Y-52140000D01*
G75*
G02*
X223484000Y-52190000I-50000J0D01*
G01*
X222884000Y-52190000D01*
G75*
G02*
X222834000Y-52140000I0J50000D01*
G01*
G37*
X225324000Y-51540000D03*
G36*
G01*
X222834000Y-54680000D02*
X222834000Y-53480000D01*
G75*
G02*
X222884000Y-53430000I50000J0D01*
G01*
X223484000Y-53430000D01*
G75*
G02*
X223534000Y-53480000I0J-50000D01*
G01*
X223534000Y-54680000D01*
G75*
G02*
X223484000Y-54730000I-50000J0D01*
G01*
X222884000Y-54730000D01*
G75*
G02*
X222834000Y-54680000I0J50000D01*
G01*
G37*
X225324000Y-54080000D03*
G36*
G01*
X222834000Y-57220000D02*
X222834000Y-56020000D01*
G75*
G02*
X222884000Y-55970000I50000J0D01*
G01*
X223484000Y-55970000D01*
G75*
G02*
X223534000Y-56020000I0J-50000D01*
G01*
X223534000Y-57220000D01*
G75*
G02*
X223484000Y-57270000I-50000J0D01*
G01*
X222884000Y-57270000D01*
G75*
G02*
X222834000Y-57220000I0J50000D01*
G01*
G37*
X225324000Y-56620000D03*
G36*
G01*
X222834000Y-59760000D02*
X222834000Y-58560000D01*
G75*
G02*
X222884000Y-58510000I50000J0D01*
G01*
X223484000Y-58510000D01*
G75*
G02*
X223534000Y-58560000I0J-50000D01*
G01*
X223534000Y-59760000D01*
G75*
G02*
X223484000Y-59810000I-50000J0D01*
G01*
X222884000Y-59810000D01*
G75*
G02*
X222834000Y-59760000I0J50000D01*
G01*
G37*
X225324000Y-59160000D03*
G36*
G01*
X222834000Y-62300000D02*
X222834000Y-61100000D01*
G75*
G02*
X222884000Y-61050000I50000J0D01*
G01*
X223484000Y-61050000D01*
G75*
G02*
X223534000Y-61100000I0J-50000D01*
G01*
X223534000Y-62300000D01*
G75*
G02*
X223484000Y-62350000I-50000J0D01*
G01*
X222884000Y-62350000D01*
G75*
G02*
X222834000Y-62300000I0J50000D01*
G01*
G37*
X225324000Y-61700000D03*
G36*
G01*
X222834000Y-64840000D02*
X222834000Y-63640000D01*
G75*
G02*
X222884000Y-63590000I50000J0D01*
G01*
X223484000Y-63590000D01*
G75*
G02*
X223534000Y-63640000I0J-50000D01*
G01*
X223534000Y-64840000D01*
G75*
G02*
X223484000Y-64890000I-50000J0D01*
G01*
X222884000Y-64890000D01*
G75*
G02*
X222834000Y-64840000I0J50000D01*
G01*
G37*
X225324000Y-64240000D03*
G36*
G01*
X222834000Y-67380000D02*
X222834000Y-66180000D01*
G75*
G02*
X222884000Y-66130000I50000J0D01*
G01*
X223484000Y-66130000D01*
G75*
G02*
X223534000Y-66180000I0J-50000D01*
G01*
X223534000Y-67380000D01*
G75*
G02*
X223484000Y-67430000I-50000J0D01*
G01*
X222884000Y-67430000D01*
G75*
G02*
X222834000Y-67380000I0J50000D01*
G01*
G37*
X225324000Y-66780000D03*
G36*
G01*
X222834000Y-69920000D02*
X222834000Y-68720000D01*
G75*
G02*
X222884000Y-68670000I50000J0D01*
G01*
X223484000Y-68670000D01*
G75*
G02*
X223534000Y-68720000I0J-50000D01*
G01*
X223534000Y-69920000D01*
G75*
G02*
X223484000Y-69970000I-50000J0D01*
G01*
X222884000Y-69970000D01*
G75*
G02*
X222834000Y-69920000I0J50000D01*
G01*
G37*
X225324000Y-69320000D03*
G36*
G01*
X222834000Y-72460000D02*
X222834000Y-71260000D01*
G75*
G02*
X222884000Y-71210000I50000J0D01*
G01*
X223484000Y-71210000D01*
G75*
G02*
X223534000Y-71260000I0J-50000D01*
G01*
X223534000Y-72460000D01*
G75*
G02*
X223484000Y-72510000I-50000J0D01*
G01*
X222884000Y-72510000D01*
G75*
G02*
X222834000Y-72460000I0J50000D01*
G01*
G37*
X225324000Y-71860000D03*
X210084000Y-71860000D03*
G36*
G01*
X211874000Y-72460000D02*
X211874000Y-71260000D01*
G75*
G02*
X211924000Y-71210000I50000J0D01*
G01*
X212524000Y-71210000D01*
G75*
G02*
X212574000Y-71260000I0J-50000D01*
G01*
X212574000Y-72460000D01*
G75*
G02*
X212524000Y-72510000I-50000J0D01*
G01*
X211924000Y-72510000D01*
G75*
G02*
X211874000Y-72460000I0J50000D01*
G01*
G37*
X210084000Y-69320000D03*
G36*
G01*
X211874000Y-69920000D02*
X211874000Y-68720000D01*
G75*
G02*
X211924000Y-68670000I50000J0D01*
G01*
X212524000Y-68670000D01*
G75*
G02*
X212574000Y-68720000I0J-50000D01*
G01*
X212574000Y-69920000D01*
G75*
G02*
X212524000Y-69970000I-50000J0D01*
G01*
X211924000Y-69970000D01*
G75*
G02*
X211874000Y-69920000I0J50000D01*
G01*
G37*
X210084000Y-66780000D03*
G36*
G01*
X211874000Y-67380000D02*
X211874000Y-66180000D01*
G75*
G02*
X211924000Y-66130000I50000J0D01*
G01*
X212524000Y-66130000D01*
G75*
G02*
X212574000Y-66180000I0J-50000D01*
G01*
X212574000Y-67380000D01*
G75*
G02*
X212524000Y-67430000I-50000J0D01*
G01*
X211924000Y-67430000D01*
G75*
G02*
X211874000Y-67380000I0J50000D01*
G01*
G37*
X210084000Y-64240000D03*
G36*
G01*
X211874000Y-64840000D02*
X211874000Y-63640000D01*
G75*
G02*
X211924000Y-63590000I50000J0D01*
G01*
X212524000Y-63590000D01*
G75*
G02*
X212574000Y-63640000I0J-50000D01*
G01*
X212574000Y-64840000D01*
G75*
G02*
X212524000Y-64890000I-50000J0D01*
G01*
X211924000Y-64890000D01*
G75*
G02*
X211874000Y-64840000I0J50000D01*
G01*
G37*
X210084000Y-61700000D03*
G36*
G01*
X211874000Y-62300000D02*
X211874000Y-61100000D01*
G75*
G02*
X211924000Y-61050000I50000J0D01*
G01*
X212524000Y-61050000D01*
G75*
G02*
X212574000Y-61100000I0J-50000D01*
G01*
X212574000Y-62300000D01*
G75*
G02*
X212524000Y-62350000I-50000J0D01*
G01*
X211924000Y-62350000D01*
G75*
G02*
X211874000Y-62300000I0J50000D01*
G01*
G37*
X210084000Y-59160000D03*
G36*
G01*
X211874000Y-59760000D02*
X211874000Y-58560000D01*
G75*
G02*
X211924000Y-58510000I50000J0D01*
G01*
X212524000Y-58510000D01*
G75*
G02*
X212574000Y-58560000I0J-50000D01*
G01*
X212574000Y-59760000D01*
G75*
G02*
X212524000Y-59810000I-50000J0D01*
G01*
X211924000Y-59810000D01*
G75*
G02*
X211874000Y-59760000I0J50000D01*
G01*
G37*
X210084000Y-56620000D03*
G36*
G01*
X211874000Y-57220000D02*
X211874000Y-56020000D01*
G75*
G02*
X211924000Y-55970000I50000J0D01*
G01*
X212524000Y-55970000D01*
G75*
G02*
X212574000Y-56020000I0J-50000D01*
G01*
X212574000Y-57220000D01*
G75*
G02*
X212524000Y-57270000I-50000J0D01*
G01*
X211924000Y-57270000D01*
G75*
G02*
X211874000Y-57220000I0J50000D01*
G01*
G37*
X210084000Y-54080000D03*
G36*
G01*
X211874000Y-54680000D02*
X211874000Y-53480000D01*
G75*
G02*
X211924000Y-53430000I50000J0D01*
G01*
X212524000Y-53430000D01*
G75*
G02*
X212574000Y-53480000I0J-50000D01*
G01*
X212574000Y-54680000D01*
G75*
G02*
X212524000Y-54730000I-50000J0D01*
G01*
X211924000Y-54730000D01*
G75*
G02*
X211874000Y-54680000I0J50000D01*
G01*
G37*
X210084000Y-51540000D03*
G36*
G01*
X211874000Y-52140000D02*
X211874000Y-50940000D01*
G75*
G02*
X211924000Y-50890000I50000J0D01*
G01*
X212524000Y-50890000D01*
G75*
G02*
X212574000Y-50940000I0J-50000D01*
G01*
X212574000Y-52140000D01*
G75*
G02*
X212524000Y-52190000I-50000J0D01*
G01*
X211924000Y-52190000D01*
G75*
G02*
X211874000Y-52140000I0J50000D01*
G01*
G37*
X210084000Y-49000000D03*
G36*
G01*
X211874000Y-49600000D02*
X211874000Y-48400000D01*
G75*
G02*
X211924000Y-48350000I50000J0D01*
G01*
X212524000Y-48350000D01*
G75*
G02*
X212574000Y-48400000I0J-50000D01*
G01*
X212574000Y-49600000D01*
G75*
G02*
X212524000Y-49650000I-50000J0D01*
G01*
X211924000Y-49650000D01*
G75*
G02*
X211874000Y-49600000I0J50000D01*
G01*
G37*
X210084000Y-46460000D03*
G36*
G01*
X211874000Y-47060000D02*
X211874000Y-45860000D01*
G75*
G02*
X211924000Y-45810000I50000J0D01*
G01*
X212524000Y-45810000D01*
G75*
G02*
X212574000Y-45860000I0J-50000D01*
G01*
X212574000Y-47060000D01*
G75*
G02*
X212524000Y-47110000I-50000J0D01*
G01*
X211924000Y-47110000D01*
G75*
G02*
X211874000Y-47060000I0J50000D01*
G01*
G37*
X210084000Y-43920000D03*
G36*
G01*
X211874000Y-44520000D02*
X211874000Y-43320000D01*
G75*
G02*
X211924000Y-43270000I50000J0D01*
G01*
X212524000Y-43270000D01*
G75*
G02*
X212574000Y-43320000I0J-50000D01*
G01*
X212574000Y-44520000D01*
G75*
G02*
X212524000Y-44570000I-50000J0D01*
G01*
X211924000Y-44570000D01*
G75*
G02*
X211874000Y-44520000I0J50000D01*
G01*
G37*
D20*
X221104000Y-43920000D03*
G36*
G01*
X221934000Y-44520000D02*
X221934000Y-43320000D01*
G75*
G02*
X221984000Y-43270000I50000J0D01*
G01*
X222584000Y-43270000D01*
G75*
G02*
X222634000Y-43320000I0J-50000D01*
G01*
X222634000Y-44520000D01*
G75*
G02*
X222584000Y-44570000I-50000J0D01*
G01*
X221984000Y-44570000D01*
G75*
G02*
X221934000Y-44520000I0J50000D01*
G01*
G37*
X221104000Y-46460000D03*
G36*
G01*
X221934000Y-47060000D02*
X221934000Y-45860000D01*
G75*
G02*
X221984000Y-45810000I50000J0D01*
G01*
X222584000Y-45810000D01*
G75*
G02*
X222634000Y-45860000I0J-50000D01*
G01*
X222634000Y-47060000D01*
G75*
G02*
X222584000Y-47110000I-50000J0D01*
G01*
X221984000Y-47110000D01*
G75*
G02*
X221934000Y-47060000I0J50000D01*
G01*
G37*
X221104000Y-49000000D03*
G36*
G01*
X221934000Y-49600000D02*
X221934000Y-48400000D01*
G75*
G02*
X221984000Y-48350000I50000J0D01*
G01*
X222584000Y-48350000D01*
G75*
G02*
X222634000Y-48400000I0J-50000D01*
G01*
X222634000Y-49600000D01*
G75*
G02*
X222584000Y-49650000I-50000J0D01*
G01*
X221984000Y-49650000D01*
G75*
G02*
X221934000Y-49600000I0J50000D01*
G01*
G37*
X221104000Y-51540000D03*
G36*
G01*
X221934000Y-52140000D02*
X221934000Y-50940000D01*
G75*
G02*
X221984000Y-50890000I50000J0D01*
G01*
X222584000Y-50890000D01*
G75*
G02*
X222634000Y-50940000I0J-50000D01*
G01*
X222634000Y-52140000D01*
G75*
G02*
X222584000Y-52190000I-50000J0D01*
G01*
X221984000Y-52190000D01*
G75*
G02*
X221934000Y-52140000I0J50000D01*
G01*
G37*
X221104000Y-54080000D03*
G36*
G01*
X221934000Y-54680000D02*
X221934000Y-53480000D01*
G75*
G02*
X221984000Y-53430000I50000J0D01*
G01*
X222584000Y-53430000D01*
G75*
G02*
X222634000Y-53480000I0J-50000D01*
G01*
X222634000Y-54680000D01*
G75*
G02*
X222584000Y-54730000I-50000J0D01*
G01*
X221984000Y-54730000D01*
G75*
G02*
X221934000Y-54680000I0J50000D01*
G01*
G37*
X221104000Y-56620000D03*
G36*
G01*
X221934000Y-57220000D02*
X221934000Y-56020000D01*
G75*
G02*
X221984000Y-55970000I50000J0D01*
G01*
X222584000Y-55970000D01*
G75*
G02*
X222634000Y-56020000I0J-50000D01*
G01*
X222634000Y-57220000D01*
G75*
G02*
X222584000Y-57270000I-50000J0D01*
G01*
X221984000Y-57270000D01*
G75*
G02*
X221934000Y-57220000I0J50000D01*
G01*
G37*
X221104000Y-59160000D03*
G36*
G01*
X221934000Y-59760000D02*
X221934000Y-58560000D01*
G75*
G02*
X221984000Y-58510000I50000J0D01*
G01*
X222584000Y-58510000D01*
G75*
G02*
X222634000Y-58560000I0J-50000D01*
G01*
X222634000Y-59760000D01*
G75*
G02*
X222584000Y-59810000I-50000J0D01*
G01*
X221984000Y-59810000D01*
G75*
G02*
X221934000Y-59760000I0J50000D01*
G01*
G37*
X221104000Y-61700000D03*
G36*
G01*
X221934000Y-62300000D02*
X221934000Y-61100000D01*
G75*
G02*
X221984000Y-61050000I50000J0D01*
G01*
X222584000Y-61050000D01*
G75*
G02*
X222634000Y-61100000I0J-50000D01*
G01*
X222634000Y-62300000D01*
G75*
G02*
X222584000Y-62350000I-50000J0D01*
G01*
X221984000Y-62350000D01*
G75*
G02*
X221934000Y-62300000I0J50000D01*
G01*
G37*
X221104000Y-64240000D03*
G36*
G01*
X221934000Y-64840000D02*
X221934000Y-63640000D01*
G75*
G02*
X221984000Y-63590000I50000J0D01*
G01*
X222584000Y-63590000D01*
G75*
G02*
X222634000Y-63640000I0J-50000D01*
G01*
X222634000Y-64840000D01*
G75*
G02*
X222584000Y-64890000I-50000J0D01*
G01*
X221984000Y-64890000D01*
G75*
G02*
X221934000Y-64840000I0J50000D01*
G01*
G37*
X221104000Y-66780000D03*
G36*
G01*
X221934000Y-67380000D02*
X221934000Y-66180000D01*
G75*
G02*
X221984000Y-66130000I50000J0D01*
G01*
X222584000Y-66130000D01*
G75*
G02*
X222634000Y-66180000I0J-50000D01*
G01*
X222634000Y-67380000D01*
G75*
G02*
X222584000Y-67430000I-50000J0D01*
G01*
X221984000Y-67430000D01*
G75*
G02*
X221934000Y-67380000I0J50000D01*
G01*
G37*
X221104000Y-69320000D03*
G36*
G01*
X221934000Y-69920000D02*
X221934000Y-68720000D01*
G75*
G02*
X221984000Y-68670000I50000J0D01*
G01*
X222584000Y-68670000D01*
G75*
G02*
X222634000Y-68720000I0J-50000D01*
G01*
X222634000Y-69920000D01*
G75*
G02*
X222584000Y-69970000I-50000J0D01*
G01*
X221984000Y-69970000D01*
G75*
G02*
X221934000Y-69920000I0J50000D01*
G01*
G37*
X221104000Y-71860000D03*
G36*
G01*
X221934000Y-72460000D02*
X221934000Y-71260000D01*
G75*
G02*
X221984000Y-71210000I50000J0D01*
G01*
X222584000Y-71210000D01*
G75*
G02*
X222634000Y-71260000I0J-50000D01*
G01*
X222634000Y-72460000D01*
G75*
G02*
X222584000Y-72510000I-50000J0D01*
G01*
X221984000Y-72510000D01*
G75*
G02*
X221934000Y-72460000I0J50000D01*
G01*
G37*
G36*
G01*
X212774000Y-72460000D02*
X212774000Y-71260000D01*
G75*
G02*
X212824000Y-71210000I50000J0D01*
G01*
X213424000Y-71210000D01*
G75*
G02*
X213474000Y-71260000I0J-50000D01*
G01*
X213474000Y-72460000D01*
G75*
G02*
X213424000Y-72510000I-50000J0D01*
G01*
X212824000Y-72510000D01*
G75*
G02*
X212774000Y-72460000I0J50000D01*
G01*
G37*
X214304000Y-71860000D03*
G36*
G01*
X212774000Y-69920000D02*
X212774000Y-68720000D01*
G75*
G02*
X212824000Y-68670000I50000J0D01*
G01*
X213424000Y-68670000D01*
G75*
G02*
X213474000Y-68720000I0J-50000D01*
G01*
X213474000Y-69920000D01*
G75*
G02*
X213424000Y-69970000I-50000J0D01*
G01*
X212824000Y-69970000D01*
G75*
G02*
X212774000Y-69920000I0J50000D01*
G01*
G37*
X214304000Y-69320000D03*
G36*
G01*
X212774000Y-67380000D02*
X212774000Y-66180000D01*
G75*
G02*
X212824000Y-66130000I50000J0D01*
G01*
X213424000Y-66130000D01*
G75*
G02*
X213474000Y-66180000I0J-50000D01*
G01*
X213474000Y-67380000D01*
G75*
G02*
X213424000Y-67430000I-50000J0D01*
G01*
X212824000Y-67430000D01*
G75*
G02*
X212774000Y-67380000I0J50000D01*
G01*
G37*
X214304000Y-66780000D03*
G36*
G01*
X212774000Y-64840000D02*
X212774000Y-63640000D01*
G75*
G02*
X212824000Y-63590000I50000J0D01*
G01*
X213424000Y-63590000D01*
G75*
G02*
X213474000Y-63640000I0J-50000D01*
G01*
X213474000Y-64840000D01*
G75*
G02*
X213424000Y-64890000I-50000J0D01*
G01*
X212824000Y-64890000D01*
G75*
G02*
X212774000Y-64840000I0J50000D01*
G01*
G37*
X214304000Y-64240000D03*
G36*
G01*
X212774000Y-62300000D02*
X212774000Y-61100000D01*
G75*
G02*
X212824000Y-61050000I50000J0D01*
G01*
X213424000Y-61050000D01*
G75*
G02*
X213474000Y-61100000I0J-50000D01*
G01*
X213474000Y-62300000D01*
G75*
G02*
X213424000Y-62350000I-50000J0D01*
G01*
X212824000Y-62350000D01*
G75*
G02*
X212774000Y-62300000I0J50000D01*
G01*
G37*
X214304000Y-61700000D03*
G36*
G01*
X212774000Y-59760000D02*
X212774000Y-58560000D01*
G75*
G02*
X212824000Y-58510000I50000J0D01*
G01*
X213424000Y-58510000D01*
G75*
G02*
X213474000Y-58560000I0J-50000D01*
G01*
X213474000Y-59760000D01*
G75*
G02*
X213424000Y-59810000I-50000J0D01*
G01*
X212824000Y-59810000D01*
G75*
G02*
X212774000Y-59760000I0J50000D01*
G01*
G37*
X214304000Y-59160000D03*
G36*
G01*
X212774000Y-57220000D02*
X212774000Y-56020000D01*
G75*
G02*
X212824000Y-55970000I50000J0D01*
G01*
X213424000Y-55970000D01*
G75*
G02*
X213474000Y-56020000I0J-50000D01*
G01*
X213474000Y-57220000D01*
G75*
G02*
X213424000Y-57270000I-50000J0D01*
G01*
X212824000Y-57270000D01*
G75*
G02*
X212774000Y-57220000I0J50000D01*
G01*
G37*
X214304000Y-56620000D03*
G36*
G01*
X212774000Y-54680000D02*
X212774000Y-53480000D01*
G75*
G02*
X212824000Y-53430000I50000J0D01*
G01*
X213424000Y-53430000D01*
G75*
G02*
X213474000Y-53480000I0J-50000D01*
G01*
X213474000Y-54680000D01*
G75*
G02*
X213424000Y-54730000I-50000J0D01*
G01*
X212824000Y-54730000D01*
G75*
G02*
X212774000Y-54680000I0J50000D01*
G01*
G37*
X214304000Y-54080000D03*
G36*
G01*
X212774000Y-52140000D02*
X212774000Y-50940000D01*
G75*
G02*
X212824000Y-50890000I50000J0D01*
G01*
X213424000Y-50890000D01*
G75*
G02*
X213474000Y-50940000I0J-50000D01*
G01*
X213474000Y-52140000D01*
G75*
G02*
X213424000Y-52190000I-50000J0D01*
G01*
X212824000Y-52190000D01*
G75*
G02*
X212774000Y-52140000I0J50000D01*
G01*
G37*
X214304000Y-51540000D03*
G36*
G01*
X212774000Y-49600000D02*
X212774000Y-48400000D01*
G75*
G02*
X212824000Y-48350000I50000J0D01*
G01*
X213424000Y-48350000D01*
G75*
G02*
X213474000Y-48400000I0J-50000D01*
G01*
X213474000Y-49600000D01*
G75*
G02*
X213424000Y-49650000I-50000J0D01*
G01*
X212824000Y-49650000D01*
G75*
G02*
X212774000Y-49600000I0J50000D01*
G01*
G37*
X214304000Y-49000000D03*
G36*
G01*
X212774000Y-47060000D02*
X212774000Y-45860000D01*
G75*
G02*
X212824000Y-45810000I50000J0D01*
G01*
X213424000Y-45810000D01*
G75*
G02*
X213474000Y-45860000I0J-50000D01*
G01*
X213474000Y-47060000D01*
G75*
G02*
X213424000Y-47110000I-50000J0D01*
G01*
X212824000Y-47110000D01*
G75*
G02*
X212774000Y-47060000I0J50000D01*
G01*
G37*
X214304000Y-46460000D03*
G36*
G01*
X212774000Y-44520000D02*
X212774000Y-43320000D01*
G75*
G02*
X212824000Y-43270000I50000J0D01*
G01*
X213424000Y-43270000D01*
G75*
G02*
X213474000Y-43320000I0J-50000D01*
G01*
X213474000Y-44520000D01*
G75*
G02*
X213424000Y-44570000I-50000J0D01*
G01*
X212824000Y-44570000D01*
G75*
G02*
X212774000Y-44520000I0J50000D01*
G01*
G37*
X214304000Y-43920000D03*
D13*
X151920000Y-97625000D03*
D14*
X154460000Y-92545000D03*
D15*
X157000000Y-97625000D03*
D14*
X160810000Y-95085000D03*
D13*
X162080000Y-97625000D03*
G36*
G01*
X162760000Y-96335000D02*
X162760000Y-93835000D01*
G75*
G02*
X162810000Y-93785000I50000J0D01*
G01*
X165360000Y-93785000D01*
G75*
G02*
X165410000Y-93835000I0J-50000D01*
G01*
X165410000Y-96335000D01*
G75*
G02*
X165360000Y-96385000I-50000J0D01*
G01*
X162810000Y-96385000D01*
G75*
G02*
X162760000Y-96335000I0J50000D01*
G01*
G37*
G36*
G01*
X149833000Y-93795000D02*
X149833000Y-91295000D01*
G75*
G02*
X149883000Y-91245000I50000J0D01*
G01*
X152433000Y-91245000D01*
G75*
G02*
X152483000Y-91295000I0J-50000D01*
G01*
X152483000Y-93795000D01*
G75*
G02*
X152433000Y-93845000I-50000J0D01*
G01*
X149883000Y-93845000D01*
G75*
G02*
X149833000Y-93795000I0J50000D01*
G01*
G37*
X94920000Y-43000000D03*
D14*
X97460000Y-37920000D03*
D15*
X100000000Y-43000000D03*
D14*
X103810000Y-40460000D03*
D13*
X105080000Y-43000000D03*
G36*
G01*
X105760000Y-41710000D02*
X105760000Y-39210000D01*
G75*
G02*
X105810000Y-39160000I50000J0D01*
G01*
X108360000Y-39160000D01*
G75*
G02*
X108410000Y-39210000I0J-50000D01*
G01*
X108410000Y-41710000D01*
G75*
G02*
X108360000Y-41760000I-50000J0D01*
G01*
X105810000Y-41760000D01*
G75*
G02*
X105760000Y-41710000I0J50000D01*
G01*
G37*
G36*
G01*
X92833000Y-39170000D02*
X92833000Y-36670000D01*
G75*
G02*
X92883000Y-36620000I50000J0D01*
G01*
X95433000Y-36620000D01*
G75*
G02*
X95483000Y-36670000I0J-50000D01*
G01*
X95483000Y-39170000D01*
G75*
G02*
X95433000Y-39220000I-50000J0D01*
G01*
X92883000Y-39220000D01*
G75*
G02*
X92833000Y-39170000I0J50000D01*
G01*
G37*
X189920000Y-83375000D03*
D14*
X192460000Y-78295000D03*
D15*
X195000000Y-83375000D03*
D14*
X198810000Y-80835000D03*
D13*
X200080000Y-83375000D03*
G36*
G01*
X200760000Y-82085000D02*
X200760000Y-79585000D01*
G75*
G02*
X200810000Y-79535000I50000J0D01*
G01*
X203360000Y-79535000D01*
G75*
G02*
X203410000Y-79585000I0J-50000D01*
G01*
X203410000Y-82085000D01*
G75*
G02*
X203360000Y-82135000I-50000J0D01*
G01*
X200810000Y-82135000D01*
G75*
G02*
X200760000Y-82085000I0J50000D01*
G01*
G37*
G36*
G01*
X187833000Y-79545000D02*
X187833000Y-77045000D01*
G75*
G02*
X187883000Y-76995000I50000J0D01*
G01*
X190433000Y-76995000D01*
G75*
G02*
X190483000Y-77045000I0J-50000D01*
G01*
X190483000Y-79545000D01*
G75*
G02*
X190433000Y-79595000I-50000J0D01*
G01*
X187883000Y-79595000D01*
G75*
G02*
X187833000Y-79545000I0J50000D01*
G01*
G37*
X132920000Y-100000000D03*
D14*
X135460000Y-94920000D03*
D15*
X138000000Y-100000000D03*
D14*
X141810000Y-97460000D03*
D13*
X143080000Y-100000000D03*
G36*
G01*
X143760000Y-98710000D02*
X143760000Y-96210000D01*
G75*
G02*
X143810000Y-96160000I50000J0D01*
G01*
X146360000Y-96160000D01*
G75*
G02*
X146410000Y-96210000I0J-50000D01*
G01*
X146410000Y-98710000D01*
G75*
G02*
X146360000Y-98760000I-50000J0D01*
G01*
X143810000Y-98760000D01*
G75*
G02*
X143760000Y-98710000I0J50000D01*
G01*
G37*
G36*
G01*
X130833000Y-96170000D02*
X130833000Y-93670000D01*
G75*
G02*
X130883000Y-93620000I50000J0D01*
G01*
X133433000Y-93620000D01*
G75*
G02*
X133483000Y-93670000I0J-50000D01*
G01*
X133483000Y-96170000D01*
G75*
G02*
X133433000Y-96220000I-50000J0D01*
G01*
X130883000Y-96220000D01*
G75*
G02*
X130833000Y-96170000I0J50000D01*
G01*
G37*
G36*
G01*
X188200000Y-65200000D02*
X187000000Y-65200000D01*
G75*
G02*
X186950000Y-65150000I0J50000D01*
G01*
X186950000Y-64250000D01*
G75*
G02*
X187000000Y-64200000I50000J0D01*
G01*
X188200000Y-64200000D01*
G75*
G02*
X188250000Y-64250000I0J-50000D01*
G01*
X188250000Y-65150000D01*
G75*
G02*
X188200000Y-65200000I-50000J0D01*
G01*
G37*
G36*
G01*
X188200000Y-61900000D02*
X187000000Y-61900000D01*
G75*
G02*
X186950000Y-61850000I0J50000D01*
G01*
X186950000Y-60950000D01*
G75*
G02*
X187000000Y-60900000I50000J0D01*
G01*
X188200000Y-60900000D01*
G75*
G02*
X188250000Y-60950000I0J-50000D01*
G01*
X188250000Y-61850000D01*
G75*
G02*
X188200000Y-61900000I-50000J0D01*
G01*
G37*
G36*
X217851355Y-85135355D02*
G01*
X217816000Y-85150000D01*
X216566000Y-85150000D01*
X216530645Y-85135355D01*
X216516000Y-85100000D01*
X216530645Y-85064645D01*
X217095290Y-84500000D01*
X216530645Y-83935355D01*
X216516000Y-83900000D01*
X216530645Y-83864645D01*
X216566000Y-83850000D01*
X217816000Y-83850000D01*
X217851355Y-83864645D01*
X217866000Y-83900000D01*
X217866000Y-85100000D01*
X217851355Y-85135355D01*
G37*
G36*
X217851355Y-83135355D02*
G01*
X217816000Y-83150000D01*
X216566000Y-83150000D01*
X216530645Y-83135355D01*
X216516000Y-83100000D01*
X216530645Y-83064645D01*
X217095290Y-82500000D01*
X216530645Y-81935355D01*
X216516000Y-81900000D01*
X216530645Y-81864645D01*
X216566000Y-81850000D01*
X217816000Y-81850000D01*
X217851355Y-81864645D01*
X217866000Y-81900000D01*
X217866000Y-83100000D01*
X217851355Y-83135355D01*
G37*
D21*
X214750000Y-84500000D03*
X214750000Y-82500000D03*
G36*
X216985355Y-84535355D02*
G01*
X216385355Y-85135355D01*
X216350000Y-85150000D01*
X216150000Y-85150000D01*
X216114645Y-85135355D01*
X216100000Y-85100000D01*
X216100000Y-83900000D01*
X216114645Y-83864645D01*
X216150000Y-83850000D01*
X216350000Y-83850000D01*
X216385355Y-83864645D01*
X216985355Y-84464645D01*
X217000000Y-84500000D01*
X216985355Y-84535355D01*
G37*
G36*
X216985355Y-82535355D02*
G01*
X216385355Y-83135355D01*
X216350000Y-83150000D01*
X216150000Y-83150000D01*
X216114645Y-83135355D01*
X216100000Y-83100000D01*
X216100000Y-81900000D01*
X216114645Y-81864645D01*
X216150000Y-81850000D01*
X216350000Y-81850000D01*
X216385355Y-81864645D01*
X216985355Y-82464645D01*
X217000000Y-82500000D01*
X216985355Y-82535355D01*
G37*
G36*
G01*
X112200000Y-60450000D02*
X111000000Y-60450000D01*
G75*
G02*
X110950000Y-60400000I0J50000D01*
G01*
X110950000Y-59500000D01*
G75*
G02*
X111000000Y-59450000I50000J0D01*
G01*
X112200000Y-59450000D01*
G75*
G02*
X112250000Y-59500000I0J-50000D01*
G01*
X112250000Y-60400000D01*
G75*
G02*
X112200000Y-60450000I-50000J0D01*
G01*
G37*
G36*
G01*
X112200000Y-57150000D02*
X111000000Y-57150000D01*
G75*
G02*
X110950000Y-57100000I0J50000D01*
G01*
X110950000Y-56200000D01*
G75*
G02*
X111000000Y-56150000I50000J0D01*
G01*
X112200000Y-56150000D01*
G75*
G02*
X112250000Y-56200000I0J-50000D01*
G01*
X112250000Y-57100000D01*
G75*
G02*
X112200000Y-57150000I-50000J0D01*
G01*
G37*
D13*
X151920000Y-59625000D03*
D14*
X154460000Y-54545000D03*
D15*
X157000000Y-59625000D03*
D14*
X160810000Y-57085000D03*
D13*
X162080000Y-59625000D03*
G36*
G01*
X162760000Y-58335000D02*
X162760000Y-55835000D01*
G75*
G02*
X162810000Y-55785000I50000J0D01*
G01*
X165360000Y-55785000D01*
G75*
G02*
X165410000Y-55835000I0J-50000D01*
G01*
X165410000Y-58335000D01*
G75*
G02*
X165360000Y-58385000I-50000J0D01*
G01*
X162810000Y-58385000D01*
G75*
G02*
X162760000Y-58335000I0J50000D01*
G01*
G37*
G36*
G01*
X149833000Y-55795000D02*
X149833000Y-53295000D01*
G75*
G02*
X149883000Y-53245000I50000J0D01*
G01*
X152433000Y-53245000D01*
G75*
G02*
X152483000Y-53295000I0J-50000D01*
G01*
X152483000Y-55795000D01*
G75*
G02*
X152433000Y-55845000I-50000J0D01*
G01*
X149883000Y-55845000D01*
G75*
G02*
X149833000Y-55795000I0J50000D01*
G01*
G37*
G36*
G01*
X211618954Y-124541485D02*
X211018954Y-125580715D01*
G75*
G02*
X210950653Y-125599016I-43301J25000D01*
G01*
X210171231Y-125149016D01*
G75*
G02*
X210152930Y-125080715I25000J43301D01*
G01*
X210752930Y-124041485D01*
G75*
G02*
X210821231Y-124023184I43301J-25000D01*
G01*
X211600653Y-124473184D01*
G75*
G02*
X211618954Y-124541485I-25000J-43301D01*
G01*
G37*
G36*
G01*
X208761070Y-122891485D02*
X208161070Y-123930715D01*
G75*
G02*
X208092769Y-123949016I-43301J25000D01*
G01*
X207313347Y-123499016D01*
G75*
G02*
X207295046Y-123430715I25000J43301D01*
G01*
X207895046Y-122391485D01*
G75*
G02*
X207963347Y-122373184I43301J-25000D01*
G01*
X208742769Y-122823184D01*
G75*
G02*
X208761070Y-122891485I-25000J-43301D01*
G01*
G37*
X189920000Y-45375000D03*
D14*
X192460000Y-40295000D03*
D15*
X195000000Y-45375000D03*
D14*
X198810000Y-42835000D03*
D13*
X200080000Y-45375000D03*
G36*
G01*
X200760000Y-44085000D02*
X200760000Y-41585000D01*
G75*
G02*
X200810000Y-41535000I50000J0D01*
G01*
X203360000Y-41535000D01*
G75*
G02*
X203410000Y-41585000I0J-50000D01*
G01*
X203410000Y-44085000D01*
G75*
G02*
X203360000Y-44135000I-50000J0D01*
G01*
X200810000Y-44135000D01*
G75*
G02*
X200760000Y-44085000I0J50000D01*
G01*
G37*
G36*
G01*
X187833000Y-41545000D02*
X187833000Y-39045000D01*
G75*
G02*
X187883000Y-38995000I50000J0D01*
G01*
X190433000Y-38995000D01*
G75*
G02*
X190483000Y-39045000I0J-50000D01*
G01*
X190483000Y-41545000D01*
G75*
G02*
X190433000Y-41595000I-50000J0D01*
G01*
X187883000Y-41595000D01*
G75*
G02*
X187833000Y-41545000I0J50000D01*
G01*
G37*
G36*
G01*
X169200000Y-43825000D02*
X168000000Y-43825000D01*
G75*
G02*
X167950000Y-43775000I0J50000D01*
G01*
X167950000Y-42875000D01*
G75*
G02*
X168000000Y-42825000I50000J0D01*
G01*
X169200000Y-42825000D01*
G75*
G02*
X169250000Y-42875000I0J-50000D01*
G01*
X169250000Y-43775000D01*
G75*
G02*
X169200000Y-43825000I-50000J0D01*
G01*
G37*
G36*
G01*
X169200000Y-40525000D02*
X168000000Y-40525000D01*
G75*
G02*
X167950000Y-40475000I0J50000D01*
G01*
X167950000Y-39575000D01*
G75*
G02*
X168000000Y-39525000I50000J0D01*
G01*
X169200000Y-39525000D01*
G75*
G02*
X169250000Y-39575000I0J-50000D01*
G01*
X169250000Y-40475000D01*
G75*
G02*
X169200000Y-40525000I-50000J0D01*
G01*
G37*
X151920000Y-78625000D03*
D14*
X154460000Y-73545000D03*
D15*
X157000000Y-78625000D03*
D14*
X160810000Y-76085000D03*
D13*
X162080000Y-78625000D03*
G36*
G01*
X162760000Y-77335000D02*
X162760000Y-74835000D01*
G75*
G02*
X162810000Y-74785000I50000J0D01*
G01*
X165360000Y-74785000D01*
G75*
G02*
X165410000Y-74835000I0J-50000D01*
G01*
X165410000Y-77335000D01*
G75*
G02*
X165360000Y-77385000I-50000J0D01*
G01*
X162810000Y-77385000D01*
G75*
G02*
X162760000Y-77335000I0J50000D01*
G01*
G37*
G36*
G01*
X149833000Y-74795000D02*
X149833000Y-72295000D01*
G75*
G02*
X149883000Y-72245000I50000J0D01*
G01*
X152433000Y-72245000D01*
G75*
G02*
X152483000Y-72295000I0J-50000D01*
G01*
X152483000Y-74795000D01*
G75*
G02*
X152433000Y-74845000I-50000J0D01*
G01*
X149883000Y-74845000D01*
G75*
G02*
X149833000Y-74795000I0J50000D01*
G01*
G37*
D22*
X207762000Y-89226000D03*
G36*
G01*
X93200000Y-100825000D02*
X92000000Y-100825000D01*
G75*
G02*
X91950000Y-100775000I0J50000D01*
G01*
X91950000Y-99875000D01*
G75*
G02*
X92000000Y-99825000I50000J0D01*
G01*
X93200000Y-99825000D01*
G75*
G02*
X93250000Y-99875000I0J-50000D01*
G01*
X93250000Y-100775000D01*
G75*
G02*
X93200000Y-100825000I-50000J0D01*
G01*
G37*
G36*
G01*
X93200000Y-97525000D02*
X92000000Y-97525000D01*
G75*
G02*
X91950000Y-97475000I0J50000D01*
G01*
X91950000Y-96575000D01*
G75*
G02*
X92000000Y-96525000I50000J0D01*
G01*
X93200000Y-96525000D01*
G75*
G02*
X93250000Y-96575000I0J-50000D01*
G01*
X93250000Y-97475000D01*
G75*
G02*
X93200000Y-97525000I-50000J0D01*
G01*
G37*
D13*
X170920000Y-62000000D03*
D14*
X173460000Y-56920000D03*
D15*
X176000000Y-62000000D03*
D14*
X179810000Y-59460000D03*
D13*
X181080000Y-62000000D03*
G36*
G01*
X181760000Y-60710000D02*
X181760000Y-58210000D01*
G75*
G02*
X181810000Y-58160000I50000J0D01*
G01*
X184360000Y-58160000D01*
G75*
G02*
X184410000Y-58210000I0J-50000D01*
G01*
X184410000Y-60710000D01*
G75*
G02*
X184360000Y-60760000I-50000J0D01*
G01*
X181810000Y-60760000D01*
G75*
G02*
X181760000Y-60710000I0J50000D01*
G01*
G37*
G36*
G01*
X168833000Y-58170000D02*
X168833000Y-55670000D01*
G75*
G02*
X168883000Y-55620000I50000J0D01*
G01*
X171433000Y-55620000D01*
G75*
G02*
X171483000Y-55670000I0J-50000D01*
G01*
X171483000Y-58170000D01*
G75*
G02*
X171433000Y-58220000I-50000J0D01*
G01*
X168883000Y-58220000D01*
G75*
G02*
X168833000Y-58170000I0J50000D01*
G01*
G37*
D22*
X228694000Y-101245000D03*
D13*
X189920000Y-64375000D03*
D14*
X192460000Y-59295000D03*
D15*
X195000000Y-64375000D03*
D14*
X198810000Y-61835000D03*
D13*
X200080000Y-64375000D03*
G36*
G01*
X200760000Y-63085000D02*
X200760000Y-60585000D01*
G75*
G02*
X200810000Y-60535000I50000J0D01*
G01*
X203360000Y-60535000D01*
G75*
G02*
X203410000Y-60585000I0J-50000D01*
G01*
X203410000Y-63085000D01*
G75*
G02*
X203360000Y-63135000I-50000J0D01*
G01*
X200810000Y-63135000D01*
G75*
G02*
X200760000Y-63085000I0J50000D01*
G01*
G37*
G36*
G01*
X187833000Y-60545000D02*
X187833000Y-58045000D01*
G75*
G02*
X187883000Y-57995000I50000J0D01*
G01*
X190433000Y-57995000D01*
G75*
G02*
X190483000Y-58045000I0J-50000D01*
G01*
X190483000Y-60545000D01*
G75*
G02*
X190433000Y-60595000I-50000J0D01*
G01*
X187883000Y-60595000D01*
G75*
G02*
X187833000Y-60545000I0J50000D01*
G01*
G37*
G36*
G01*
X150200000Y-41450000D02*
X149000000Y-41450000D01*
G75*
G02*
X148950000Y-41400000I0J50000D01*
G01*
X148950000Y-40500000D01*
G75*
G02*
X149000000Y-40450000I50000J0D01*
G01*
X150200000Y-40450000D01*
G75*
G02*
X150250000Y-40500000I0J-50000D01*
G01*
X150250000Y-41400000D01*
G75*
G02*
X150200000Y-41450000I-50000J0D01*
G01*
G37*
G36*
G01*
X150200000Y-38150000D02*
X149000000Y-38150000D01*
G75*
G02*
X148950000Y-38100000I0J50000D01*
G01*
X148950000Y-37200000D01*
G75*
G02*
X149000000Y-37150000I50000J0D01*
G01*
X150200000Y-37150000D01*
G75*
G02*
X150250000Y-37200000I0J-50000D01*
G01*
X150250000Y-38100000D01*
G75*
G02*
X150200000Y-38150000I-50000J0D01*
G01*
G37*
X132920000Y-81000000D03*
D14*
X135460000Y-75920000D03*
D15*
X138000000Y-81000000D03*
D14*
X141810000Y-78460000D03*
D13*
X143080000Y-81000000D03*
G36*
G01*
X143760000Y-79710000D02*
X143760000Y-77210000D01*
G75*
G02*
X143810000Y-77160000I50000J0D01*
G01*
X146360000Y-77160000D01*
G75*
G02*
X146410000Y-77210000I0J-50000D01*
G01*
X146410000Y-79710000D01*
G75*
G02*
X146360000Y-79760000I-50000J0D01*
G01*
X143810000Y-79760000D01*
G75*
G02*
X143760000Y-79710000I0J50000D01*
G01*
G37*
G36*
G01*
X130833000Y-77170000D02*
X130833000Y-74670000D01*
G75*
G02*
X130883000Y-74620000I50000J0D01*
G01*
X133433000Y-74620000D01*
G75*
G02*
X133483000Y-74670000I0J-50000D01*
G01*
X133483000Y-77170000D01*
G75*
G02*
X133433000Y-77220000I-50000J0D01*
G01*
X130883000Y-77220000D01*
G75*
G02*
X130833000Y-77170000I0J50000D01*
G01*
G37*
D18*
X109500000Y-50125000D03*
G36*
G01*
X188200000Y-84200000D02*
X187000000Y-84200000D01*
G75*
G02*
X186950000Y-84150000I0J50000D01*
G01*
X186950000Y-83250000D01*
G75*
G02*
X187000000Y-83200000I50000J0D01*
G01*
X188200000Y-83200000D01*
G75*
G02*
X188250000Y-83250000I0J-50000D01*
G01*
X188250000Y-84150000D01*
G75*
G02*
X188200000Y-84200000I-50000J0D01*
G01*
G37*
G36*
G01*
X188200000Y-80900000D02*
X187000000Y-80900000D01*
G75*
G02*
X186950000Y-80850000I0J50000D01*
G01*
X186950000Y-79950000D01*
G75*
G02*
X187000000Y-79900000I50000J0D01*
G01*
X188200000Y-79900000D01*
G75*
G02*
X188250000Y-79950000I0J-50000D01*
G01*
X188250000Y-80850000D01*
G75*
G02*
X188200000Y-80900000I-50000J0D01*
G01*
G37*
D13*
X113920000Y-59625000D03*
D14*
X116460000Y-54545000D03*
D15*
X119000000Y-59625000D03*
D14*
X122810000Y-57085000D03*
D13*
X124080000Y-59625000D03*
G36*
G01*
X124760000Y-58335000D02*
X124760000Y-55835000D01*
G75*
G02*
X124810000Y-55785000I50000J0D01*
G01*
X127360000Y-55785000D01*
G75*
G02*
X127410000Y-55835000I0J-50000D01*
G01*
X127410000Y-58335000D01*
G75*
G02*
X127360000Y-58385000I-50000J0D01*
G01*
X124810000Y-58385000D01*
G75*
G02*
X124760000Y-58335000I0J50000D01*
G01*
G37*
G36*
G01*
X111833000Y-55795000D02*
X111833000Y-53295000D01*
G75*
G02*
X111883000Y-53245000I50000J0D01*
G01*
X114433000Y-53245000D01*
G75*
G02*
X114483000Y-53295000I0J-50000D01*
G01*
X114483000Y-55795000D01*
G75*
G02*
X114433000Y-55845000I-50000J0D01*
G01*
X111883000Y-55845000D01*
G75*
G02*
X111833000Y-55795000I0J50000D01*
G01*
G37*
X132920000Y-62000000D03*
D14*
X135460000Y-56920000D03*
D15*
X138000000Y-62000000D03*
D14*
X141810000Y-59460000D03*
D13*
X143080000Y-62000000D03*
G36*
G01*
X143760000Y-60710000D02*
X143760000Y-58210000D01*
G75*
G02*
X143810000Y-58160000I50000J0D01*
G01*
X146360000Y-58160000D01*
G75*
G02*
X146410000Y-58210000I0J-50000D01*
G01*
X146410000Y-60710000D01*
G75*
G02*
X146360000Y-60760000I-50000J0D01*
G01*
X143810000Y-60760000D01*
G75*
G02*
X143760000Y-60710000I0J50000D01*
G01*
G37*
G36*
G01*
X130833000Y-58170000D02*
X130833000Y-55670000D01*
G75*
G02*
X130883000Y-55620000I50000J0D01*
G01*
X133433000Y-55620000D01*
G75*
G02*
X133483000Y-55670000I0J-50000D01*
G01*
X133483000Y-58170000D01*
G75*
G02*
X133433000Y-58220000I-50000J0D01*
G01*
X130883000Y-58220000D01*
G75*
G02*
X130833000Y-58170000I0J50000D01*
G01*
G37*
G36*
G01*
X150200000Y-60450000D02*
X149000000Y-60450000D01*
G75*
G02*
X148950000Y-60400000I0J50000D01*
G01*
X148950000Y-59500000D01*
G75*
G02*
X149000000Y-59450000I50000J0D01*
G01*
X150200000Y-59450000D01*
G75*
G02*
X150250000Y-59500000I0J-50000D01*
G01*
X150250000Y-60400000D01*
G75*
G02*
X150200000Y-60450000I-50000J0D01*
G01*
G37*
G36*
G01*
X150200000Y-57150000D02*
X149000000Y-57150000D01*
G75*
G02*
X148950000Y-57100000I0J50000D01*
G01*
X148950000Y-56200000D01*
G75*
G02*
X149000000Y-56150000I50000J0D01*
G01*
X150200000Y-56150000D01*
G75*
G02*
X150250000Y-56200000I0J-50000D01*
G01*
X150250000Y-57100000D01*
G75*
G02*
X150200000Y-57150000I-50000J0D01*
G01*
G37*
X195310000Y-113139409D03*
D14*
X192180591Y-108399705D03*
D15*
X197850000Y-108740000D03*
D14*
X197555295Y-104170443D03*
D13*
X200390000Y-104340591D03*
G36*
G01*
X199612827Y-103106693D02*
X197447763Y-101856693D01*
G75*
G02*
X197429462Y-101788392I25000J43301D01*
G01*
X198704462Y-99580028D01*
G75*
G02*
X198772763Y-99561727I43301J-25000D01*
G01*
X200937827Y-100811727D01*
G75*
G02*
X200956128Y-100880028I-25000J-43301D01*
G01*
X199681128Y-103088392D01*
G75*
G02*
X199612827Y-103106693I-43301J25000D01*
G01*
G37*
G36*
G01*
X190949623Y-113031803D02*
X188784559Y-111781803D01*
G75*
G02*
X188766258Y-111713502I25000J43301D01*
G01*
X190041258Y-109505138D01*
G75*
G02*
X190109559Y-109486837I43301J-25000D01*
G01*
X192274623Y-110736837D01*
G75*
G02*
X192292924Y-110805138I-25000J-43301D01*
G01*
X191017924Y-113013502D01*
G75*
G02*
X190949623Y-113031803I-43301J25000D01*
G01*
G37*
X94920000Y-62000000D03*
D14*
X97460000Y-56920000D03*
D15*
X100000000Y-62000000D03*
D14*
X103810000Y-59460000D03*
D13*
X105080000Y-62000000D03*
G36*
G01*
X105760000Y-60710000D02*
X105760000Y-58210000D01*
G75*
G02*
X105810000Y-58160000I50000J0D01*
G01*
X108360000Y-58160000D01*
G75*
G02*
X108410000Y-58210000I0J-50000D01*
G01*
X108410000Y-60710000D01*
G75*
G02*
X108360000Y-60760000I-50000J0D01*
G01*
X105810000Y-60760000D01*
G75*
G02*
X105760000Y-60710000I0J50000D01*
G01*
G37*
G36*
G01*
X92833000Y-58170000D02*
X92833000Y-55670000D01*
G75*
G02*
X92883000Y-55620000I50000J0D01*
G01*
X95433000Y-55620000D01*
G75*
G02*
X95483000Y-55670000I0J-50000D01*
G01*
X95483000Y-58170000D01*
G75*
G02*
X95433000Y-58220000I-50000J0D01*
G01*
X92883000Y-58220000D01*
G75*
G02*
X92833000Y-58170000I0J50000D01*
G01*
G37*
D18*
X185468000Y-53736000D03*
X210827200Y-105262800D03*
X201327200Y-121717200D03*
D23*
X230625000Y-72750000D03*
X227875000Y-72750000D03*
G36*
G01*
X230600000Y-76200000D02*
X229600000Y-76200000D01*
G75*
G02*
X229550000Y-76150000I0J50000D01*
G01*
X229550000Y-74600000D01*
G75*
G02*
X229600000Y-74550000I50000J0D01*
G01*
X230600000Y-74550000D01*
G75*
G02*
X230650000Y-74600000I0J-50000D01*
G01*
X230650000Y-76150000D01*
G75*
G02*
X230600000Y-76200000I-50000J0D01*
G01*
G37*
G36*
G01*
X228900000Y-76200000D02*
X227900000Y-76200000D01*
G75*
G02*
X227850000Y-76150000I0J50000D01*
G01*
X227850000Y-74600000D01*
G75*
G02*
X227900000Y-74550000I50000J0D01*
G01*
X228900000Y-74550000D01*
G75*
G02*
X228950000Y-74600000I0J-50000D01*
G01*
X228950000Y-76150000D01*
G75*
G02*
X228900000Y-76200000I-50000J0D01*
G01*
G37*
G36*
G01*
X230600000Y-70950000D02*
X229600000Y-70950000D01*
G75*
G02*
X229550000Y-70900000I0J50000D01*
G01*
X229550000Y-69350000D01*
G75*
G02*
X229600000Y-69300000I50000J0D01*
G01*
X230600000Y-69300000D01*
G75*
G02*
X230650000Y-69350000I0J-50000D01*
G01*
X230650000Y-70900000D01*
G75*
G02*
X230600000Y-70950000I-50000J0D01*
G01*
G37*
G36*
G01*
X228900000Y-70950000D02*
X227900000Y-70950000D01*
G75*
G02*
X227850000Y-70900000I0J50000D01*
G01*
X227850000Y-69350000D01*
G75*
G02*
X227900000Y-69300000I50000J0D01*
G01*
X228900000Y-69300000D01*
G75*
G02*
X228950000Y-69350000I0J-50000D01*
G01*
X228950000Y-70900000D01*
G75*
G02*
X228900000Y-70950000I-50000J0D01*
G01*
G37*
G36*
G01*
X169200000Y-62825000D02*
X168000000Y-62825000D01*
G75*
G02*
X167950000Y-62775000I0J50000D01*
G01*
X167950000Y-61875000D01*
G75*
G02*
X168000000Y-61825000I50000J0D01*
G01*
X169200000Y-61825000D01*
G75*
G02*
X169250000Y-61875000I0J-50000D01*
G01*
X169250000Y-62775000D01*
G75*
G02*
X169200000Y-62825000I-50000J0D01*
G01*
G37*
G36*
G01*
X169200000Y-59525000D02*
X168000000Y-59525000D01*
G75*
G02*
X167950000Y-59475000I0J50000D01*
G01*
X167950000Y-58575000D01*
G75*
G02*
X168000000Y-58525000I50000J0D01*
G01*
X169200000Y-58525000D01*
G75*
G02*
X169250000Y-58575000I0J-50000D01*
G01*
X169250000Y-59475000D01*
G75*
G02*
X169200000Y-59525000I-50000J0D01*
G01*
G37*
D13*
X132920000Y-43000000D03*
D14*
X135460000Y-37920000D03*
D15*
X138000000Y-43000000D03*
D14*
X141810000Y-40460000D03*
D13*
X143080000Y-43000000D03*
G36*
G01*
X143760000Y-41710000D02*
X143760000Y-39210000D01*
G75*
G02*
X143810000Y-39160000I50000J0D01*
G01*
X146360000Y-39160000D01*
G75*
G02*
X146410000Y-39210000I0J-50000D01*
G01*
X146410000Y-41710000D01*
G75*
G02*
X146360000Y-41760000I-50000J0D01*
G01*
X143810000Y-41760000D01*
G75*
G02*
X143760000Y-41710000I0J50000D01*
G01*
G37*
G36*
G01*
X130833000Y-39170000D02*
X130833000Y-36670000D01*
G75*
G02*
X130883000Y-36620000I50000J0D01*
G01*
X133433000Y-36620000D01*
G75*
G02*
X133483000Y-36670000I0J-50000D01*
G01*
X133483000Y-39170000D01*
G75*
G02*
X133433000Y-39220000I-50000J0D01*
G01*
X130883000Y-39220000D01*
G75*
G02*
X130833000Y-39170000I0J50000D01*
G01*
G37*
G36*
G01*
X112200000Y-79450000D02*
X111000000Y-79450000D01*
G75*
G02*
X110950000Y-79400000I0J50000D01*
G01*
X110950000Y-78500000D01*
G75*
G02*
X111000000Y-78450000I50000J0D01*
G01*
X112200000Y-78450000D01*
G75*
G02*
X112250000Y-78500000I0J-50000D01*
G01*
X112250000Y-79400000D01*
G75*
G02*
X112200000Y-79450000I-50000J0D01*
G01*
G37*
G36*
G01*
X112200000Y-76150000D02*
X111000000Y-76150000D01*
G75*
G02*
X110950000Y-76100000I0J50000D01*
G01*
X110950000Y-75200000D01*
G75*
G02*
X111000000Y-75150000I50000J0D01*
G01*
X112200000Y-75150000D01*
G75*
G02*
X112250000Y-75200000I0J-50000D01*
G01*
X112250000Y-76100000D01*
G75*
G02*
X112200000Y-76150000I-50000J0D01*
G01*
G37*
G36*
G01*
X169200000Y-100825000D02*
X168000000Y-100825000D01*
G75*
G02*
X167950000Y-100775000I0J50000D01*
G01*
X167950000Y-99875000D01*
G75*
G02*
X168000000Y-99825000I50000J0D01*
G01*
X169200000Y-99825000D01*
G75*
G02*
X169250000Y-99875000I0J-50000D01*
G01*
X169250000Y-100775000D01*
G75*
G02*
X169200000Y-100825000I-50000J0D01*
G01*
G37*
G36*
G01*
X169200000Y-97525000D02*
X168000000Y-97525000D01*
G75*
G02*
X167950000Y-97475000I0J50000D01*
G01*
X167950000Y-96575000D01*
G75*
G02*
X168000000Y-96525000I50000J0D01*
G01*
X169200000Y-96525000D01*
G75*
G02*
X169250000Y-96575000I0J-50000D01*
G01*
X169250000Y-97475000D01*
G75*
G02*
X169200000Y-97525000I-50000J0D01*
G01*
G37*
G36*
G01*
X131200000Y-100825000D02*
X130000000Y-100825000D01*
G75*
G02*
X129950000Y-100775000I0J50000D01*
G01*
X129950000Y-99875000D01*
G75*
G02*
X130000000Y-99825000I50000J0D01*
G01*
X131200000Y-99825000D01*
G75*
G02*
X131250000Y-99875000I0J-50000D01*
G01*
X131250000Y-100775000D01*
G75*
G02*
X131200000Y-100825000I-50000J0D01*
G01*
G37*
G36*
G01*
X131200000Y-97525000D02*
X130000000Y-97525000D01*
G75*
G02*
X129950000Y-97475000I0J50000D01*
G01*
X129950000Y-96575000D01*
G75*
G02*
X130000000Y-96525000I50000J0D01*
G01*
X131200000Y-96525000D01*
G75*
G02*
X131250000Y-96575000I0J-50000D01*
G01*
X131250000Y-97475000D01*
G75*
G02*
X131200000Y-97525000I-50000J0D01*
G01*
G37*
D18*
X147500000Y-69125000D03*
D13*
X113920000Y-97625000D03*
D14*
X116460000Y-92545000D03*
D15*
X119000000Y-97625000D03*
D14*
X122810000Y-95085000D03*
D13*
X124080000Y-97625000D03*
G36*
G01*
X124760000Y-96335000D02*
X124760000Y-93835000D01*
G75*
G02*
X124810000Y-93785000I50000J0D01*
G01*
X127360000Y-93785000D01*
G75*
G02*
X127410000Y-93835000I0J-50000D01*
G01*
X127410000Y-96335000D01*
G75*
G02*
X127360000Y-96385000I-50000J0D01*
G01*
X124810000Y-96385000D01*
G75*
G02*
X124760000Y-96335000I0J50000D01*
G01*
G37*
G36*
G01*
X111833000Y-93795000D02*
X111833000Y-91295000D01*
G75*
G02*
X111883000Y-91245000I50000J0D01*
G01*
X114433000Y-91245000D01*
G75*
G02*
X114483000Y-91295000I0J-50000D01*
G01*
X114483000Y-93795000D01*
G75*
G02*
X114433000Y-93845000I-50000J0D01*
G01*
X111883000Y-93845000D01*
G75*
G02*
X111833000Y-93795000I0J50000D01*
G01*
G37*
X170920000Y-100000000D03*
D14*
X173460000Y-94920000D03*
D15*
X176000000Y-100000000D03*
D14*
X179810000Y-97460000D03*
D13*
X181080000Y-100000000D03*
G36*
G01*
X181760000Y-98710000D02*
X181760000Y-96210000D01*
G75*
G02*
X181810000Y-96160000I50000J0D01*
G01*
X184360000Y-96160000D01*
G75*
G02*
X184410000Y-96210000I0J-50000D01*
G01*
X184410000Y-98710000D01*
G75*
G02*
X184360000Y-98760000I-50000J0D01*
G01*
X181810000Y-98760000D01*
G75*
G02*
X181760000Y-98710000I0J50000D01*
G01*
G37*
G36*
G01*
X168833000Y-96170000D02*
X168833000Y-93670000D01*
G75*
G02*
X168883000Y-93620000I50000J0D01*
G01*
X171433000Y-93620000D01*
G75*
G02*
X171483000Y-93670000I0J-50000D01*
G01*
X171483000Y-96170000D01*
G75*
G02*
X171433000Y-96220000I-50000J0D01*
G01*
X168883000Y-96220000D01*
G75*
G02*
X168833000Y-96170000I0J50000D01*
G01*
G37*
G36*
G01*
X150200000Y-79450000D02*
X149000000Y-79450000D01*
G75*
G02*
X148950000Y-79400000I0J50000D01*
G01*
X148950000Y-78500000D01*
G75*
G02*
X149000000Y-78450000I50000J0D01*
G01*
X150200000Y-78450000D01*
G75*
G02*
X150250000Y-78500000I0J-50000D01*
G01*
X150250000Y-79400000D01*
G75*
G02*
X150200000Y-79450000I-50000J0D01*
G01*
G37*
G36*
G01*
X150200000Y-76150000D02*
X149000000Y-76150000D01*
G75*
G02*
X148950000Y-76100000I0J50000D01*
G01*
X148950000Y-75200000D01*
G75*
G02*
X149000000Y-75150000I50000J0D01*
G01*
X150200000Y-75150000D01*
G75*
G02*
X150250000Y-75200000I0J-50000D01*
G01*
X150250000Y-76100000D01*
G75*
G02*
X150200000Y-76150000I-50000J0D01*
G01*
G37*
G36*
G01*
X93200000Y-62825000D02*
X92000000Y-62825000D01*
G75*
G02*
X91950000Y-62775000I0J50000D01*
G01*
X91950000Y-61875000D01*
G75*
G02*
X92000000Y-61825000I50000J0D01*
G01*
X93200000Y-61825000D01*
G75*
G02*
X93250000Y-61875000I0J-50000D01*
G01*
X93250000Y-62775000D01*
G75*
G02*
X93200000Y-62825000I-50000J0D01*
G01*
G37*
G36*
G01*
X93200000Y-59525000D02*
X92000000Y-59525000D01*
G75*
G02*
X91950000Y-59475000I0J50000D01*
G01*
X91950000Y-58575000D01*
G75*
G02*
X92000000Y-58525000I50000J0D01*
G01*
X93200000Y-58525000D01*
G75*
G02*
X93250000Y-58575000I0J-50000D01*
G01*
X93250000Y-59475000D01*
G75*
G02*
X93200000Y-59525000I-50000J0D01*
G01*
G37*
X94920000Y-81000000D03*
D14*
X97460000Y-75920000D03*
D15*
X100000000Y-81000000D03*
D14*
X103810000Y-78460000D03*
D13*
X105080000Y-81000000D03*
G36*
G01*
X105760000Y-79710000D02*
X105760000Y-77210000D01*
G75*
G02*
X105810000Y-77160000I50000J0D01*
G01*
X108360000Y-77160000D01*
G75*
G02*
X108410000Y-77210000I0J-50000D01*
G01*
X108410000Y-79710000D01*
G75*
G02*
X108360000Y-79760000I-50000J0D01*
G01*
X105810000Y-79760000D01*
G75*
G02*
X105760000Y-79710000I0J50000D01*
G01*
G37*
G36*
G01*
X92833000Y-77170000D02*
X92833000Y-74670000D01*
G75*
G02*
X92883000Y-74620000I50000J0D01*
G01*
X95433000Y-74620000D01*
G75*
G02*
X95483000Y-74670000I0J-50000D01*
G01*
X95483000Y-77170000D01*
G75*
G02*
X95433000Y-77220000I-50000J0D01*
G01*
X92883000Y-77220000D01*
G75*
G02*
X92833000Y-77170000I0J50000D01*
G01*
G37*
G36*
G01*
X188200000Y-46200000D02*
X187000000Y-46200000D01*
G75*
G02*
X186950000Y-46150000I0J50000D01*
G01*
X186950000Y-45250000D01*
G75*
G02*
X187000000Y-45200000I50000J0D01*
G01*
X188200000Y-45200000D01*
G75*
G02*
X188250000Y-45250000I0J-50000D01*
G01*
X188250000Y-46150000D01*
G75*
G02*
X188200000Y-46200000I-50000J0D01*
G01*
G37*
G36*
G01*
X188200000Y-42900000D02*
X187000000Y-42900000D01*
G75*
G02*
X186950000Y-42850000I0J50000D01*
G01*
X186950000Y-41950000D01*
G75*
G02*
X187000000Y-41900000I50000J0D01*
G01*
X188200000Y-41900000D01*
G75*
G02*
X188250000Y-41950000I0J-50000D01*
G01*
X188250000Y-42850000D01*
G75*
G02*
X188200000Y-42900000I-50000J0D01*
G01*
G37*
X170920000Y-43000000D03*
D14*
X173460000Y-37920000D03*
D15*
X176000000Y-43000000D03*
D14*
X179810000Y-40460000D03*
D13*
X181080000Y-43000000D03*
G36*
G01*
X181760000Y-41710000D02*
X181760000Y-39210000D01*
G75*
G02*
X181810000Y-39160000I50000J0D01*
G01*
X184360000Y-39160000D01*
G75*
G02*
X184410000Y-39210000I0J-50000D01*
G01*
X184410000Y-41710000D01*
G75*
G02*
X184360000Y-41760000I-50000J0D01*
G01*
X181810000Y-41760000D01*
G75*
G02*
X181760000Y-41710000I0J50000D01*
G01*
G37*
G36*
G01*
X168833000Y-39170000D02*
X168833000Y-36670000D01*
G75*
G02*
X168883000Y-36620000I50000J0D01*
G01*
X171433000Y-36620000D01*
G75*
G02*
X171483000Y-36670000I0J-50000D01*
G01*
X171483000Y-39170000D01*
G75*
G02*
X171433000Y-39220000I-50000J0D01*
G01*
X168883000Y-39220000D01*
G75*
G02*
X168833000Y-39170000I0J50000D01*
G01*
G37*
G36*
G01*
X131200000Y-62825000D02*
X130000000Y-62825000D01*
G75*
G02*
X129950000Y-62775000I0J50000D01*
G01*
X129950000Y-61875000D01*
G75*
G02*
X130000000Y-61825000I50000J0D01*
G01*
X131200000Y-61825000D01*
G75*
G02*
X131250000Y-61875000I0J-50000D01*
G01*
X131250000Y-62775000D01*
G75*
G02*
X131200000Y-62825000I-50000J0D01*
G01*
G37*
G36*
G01*
X131200000Y-59525000D02*
X130000000Y-59525000D01*
G75*
G02*
X129950000Y-59475000I0J50000D01*
G01*
X129950000Y-58575000D01*
G75*
G02*
X130000000Y-58525000I50000J0D01*
G01*
X131200000Y-58525000D01*
G75*
G02*
X131250000Y-58575000I0J-50000D01*
G01*
X131250000Y-59475000D01*
G75*
G02*
X131200000Y-59525000I-50000J0D01*
G01*
G37*
G36*
G01*
X93200000Y-81825000D02*
X92000000Y-81825000D01*
G75*
G02*
X91950000Y-81775000I0J50000D01*
G01*
X91950000Y-80875000D01*
G75*
G02*
X92000000Y-80825000I50000J0D01*
G01*
X93200000Y-80825000D01*
G75*
G02*
X93250000Y-80875000I0J-50000D01*
G01*
X93250000Y-81775000D01*
G75*
G02*
X93200000Y-81825000I-50000J0D01*
G01*
G37*
G36*
G01*
X93200000Y-78525000D02*
X92000000Y-78525000D01*
G75*
G02*
X91950000Y-78475000I0J50000D01*
G01*
X91950000Y-77575000D01*
G75*
G02*
X92000000Y-77525000I50000J0D01*
G01*
X93200000Y-77525000D01*
G75*
G02*
X93250000Y-77575000I0J-50000D01*
G01*
X93250000Y-78475000D01*
G75*
G02*
X93200000Y-78525000I-50000J0D01*
G01*
G37*
G36*
G01*
X112200000Y-41450000D02*
X111000000Y-41450000D01*
G75*
G02*
X110950000Y-41400000I0J50000D01*
G01*
X110950000Y-40500000D01*
G75*
G02*
X111000000Y-40450000I50000J0D01*
G01*
X112200000Y-40450000D01*
G75*
G02*
X112250000Y-40500000I0J-50000D01*
G01*
X112250000Y-41400000D01*
G75*
G02*
X112200000Y-41450000I-50000J0D01*
G01*
G37*
G36*
G01*
X112200000Y-38150000D02*
X111000000Y-38150000D01*
G75*
G02*
X110950000Y-38100000I0J50000D01*
G01*
X110950000Y-37200000D01*
G75*
G02*
X111000000Y-37150000I50000J0D01*
G01*
X112200000Y-37150000D01*
G75*
G02*
X112250000Y-37200000I0J-50000D01*
G01*
X112250000Y-38100000D01*
G75*
G02*
X112200000Y-38150000I-50000J0D01*
G01*
G37*
D18*
X109500000Y-88125000D03*
G36*
G01*
X131200000Y-43825000D02*
X130000000Y-43825000D01*
G75*
G02*
X129950000Y-43775000I0J50000D01*
G01*
X129950000Y-42875000D01*
G75*
G02*
X130000000Y-42825000I50000J0D01*
G01*
X131200000Y-42825000D01*
G75*
G02*
X131250000Y-42875000I0J-50000D01*
G01*
X131250000Y-43775000D01*
G75*
G02*
X131200000Y-43825000I-50000J0D01*
G01*
G37*
G36*
G01*
X131200000Y-40525000D02*
X130000000Y-40525000D01*
G75*
G02*
X129950000Y-40475000I0J50000D01*
G01*
X129950000Y-39575000D01*
G75*
G02*
X130000000Y-39525000I50000J0D01*
G01*
X131200000Y-39525000D01*
G75*
G02*
X131250000Y-39575000I0J-50000D01*
G01*
X131250000Y-40475000D01*
G75*
G02*
X131200000Y-40525000I-50000J0D01*
G01*
G37*
G36*
G01*
X195164454Y-115041485D02*
X194564454Y-116080715D01*
G75*
G02*
X194496153Y-116099016I-43301J25000D01*
G01*
X193716731Y-115649016D01*
G75*
G02*
X193698430Y-115580715I25000J43301D01*
G01*
X194298430Y-114541485D01*
G75*
G02*
X194366731Y-114523184I43301J-25000D01*
G01*
X195146153Y-114973184D01*
G75*
G02*
X195164454Y-115041485I-25000J-43301D01*
G01*
G37*
G36*
G01*
X192306570Y-113391485D02*
X191706570Y-114430715D01*
G75*
G02*
X191638269Y-114449016I-43301J25000D01*
G01*
X190858847Y-113999016D01*
G75*
G02*
X190840546Y-113930715I25000J43301D01*
G01*
X191440546Y-112891485D01*
G75*
G02*
X191508847Y-112873184I43301J-25000D01*
G01*
X192288269Y-113323184D01*
G75*
G02*
X192306570Y-113391485I-25000J-43301D01*
G01*
G37*
G36*
G01*
X112200000Y-98450000D02*
X111000000Y-98450000D01*
G75*
G02*
X110950000Y-98400000I0J50000D01*
G01*
X110950000Y-97500000D01*
G75*
G02*
X111000000Y-97450000I50000J0D01*
G01*
X112200000Y-97450000D01*
G75*
G02*
X112250000Y-97500000I0J-50000D01*
G01*
X112250000Y-98400000D01*
G75*
G02*
X112200000Y-98450000I-50000J0D01*
G01*
G37*
G36*
G01*
X112200000Y-95150000D02*
X111000000Y-95150000D01*
G75*
G02*
X110950000Y-95100000I0J50000D01*
G01*
X110950000Y-94200000D01*
G75*
G02*
X111000000Y-94150000I50000J0D01*
G01*
X112200000Y-94150000D01*
G75*
G02*
X112250000Y-94200000I0J-50000D01*
G01*
X112250000Y-95100000D01*
G75*
G02*
X112200000Y-95150000I-50000J0D01*
G01*
G37*
D13*
X151920000Y-40625000D03*
D14*
X154460000Y-35545000D03*
D15*
X157000000Y-40625000D03*
D14*
X160810000Y-38085000D03*
D13*
X162080000Y-40625000D03*
G36*
G01*
X162760000Y-39335000D02*
X162760000Y-36835000D01*
G75*
G02*
X162810000Y-36785000I50000J0D01*
G01*
X165360000Y-36785000D01*
G75*
G02*
X165410000Y-36835000I0J-50000D01*
G01*
X165410000Y-39335000D01*
G75*
G02*
X165360000Y-39385000I-50000J0D01*
G01*
X162810000Y-39385000D01*
G75*
G02*
X162760000Y-39335000I0J50000D01*
G01*
G37*
G36*
G01*
X149833000Y-36795000D02*
X149833000Y-34295000D01*
G75*
G02*
X149883000Y-34245000I50000J0D01*
G01*
X152433000Y-34245000D01*
G75*
G02*
X152483000Y-34295000I0J-50000D01*
G01*
X152483000Y-36795000D01*
G75*
G02*
X152433000Y-36845000I-50000J0D01*
G01*
X149883000Y-36845000D01*
G75*
G02*
X149833000Y-36795000I0J50000D01*
G01*
G37*
X189920000Y-45375000D03*
D14*
X191190000Y-42835000D03*
D15*
X195000000Y-45375000D03*
D14*
X197540000Y-40295000D03*
D13*
X200080000Y-45375000D03*
X189920000Y-64375000D03*
D14*
X191190000Y-61835000D03*
D15*
X195000000Y-64375000D03*
D14*
X197540000Y-59295000D03*
D13*
X200080000Y-64375000D03*
X132920000Y-100000000D03*
D14*
X134190000Y-97460000D03*
D15*
X138000000Y-100000000D03*
D14*
X140540000Y-94920000D03*
D13*
X143080000Y-100000000D03*
X170920000Y-100000000D03*
D14*
X172190000Y-97460000D03*
D15*
X176000000Y-100000000D03*
D14*
X178540000Y-94920000D03*
D13*
X181080000Y-100000000D03*
X113920000Y-59625000D03*
D14*
X115190000Y-57085000D03*
D15*
X119000000Y-59625000D03*
D14*
X121540000Y-54545000D03*
D13*
X124080000Y-59625000D03*
X132920000Y-81000000D03*
D14*
X134190000Y-78460000D03*
D15*
X138000000Y-81000000D03*
D14*
X140540000Y-75920000D03*
D13*
X143080000Y-81000000D03*
X113920000Y-97625000D03*
D14*
X115190000Y-95085000D03*
D15*
X119000000Y-97625000D03*
D14*
X121540000Y-92545000D03*
D13*
X124080000Y-97625000D03*
X94920000Y-43000000D03*
D14*
X96190000Y-40460000D03*
D15*
X100000000Y-43000000D03*
D14*
X102540000Y-37920000D03*
D13*
X105080000Y-43000000D03*
X94920000Y-100000000D03*
D14*
X96190000Y-97460000D03*
D15*
X100000000Y-100000000D03*
D14*
X102540000Y-94920000D03*
D13*
X105080000Y-100000000D03*
X151920000Y-78625000D03*
D14*
X153190000Y-76085000D03*
D15*
X157000000Y-78625000D03*
D14*
X159540000Y-73545000D03*
D13*
X162080000Y-78625000D03*
X151920000Y-97625000D03*
D14*
X153190000Y-95085000D03*
D15*
X157000000Y-97625000D03*
D14*
X159540000Y-92545000D03*
D13*
X162080000Y-97625000D03*
X94920000Y-62000000D03*
D14*
X96190000Y-59460000D03*
D15*
X100000000Y-62000000D03*
D14*
X102540000Y-56920000D03*
D13*
X105080000Y-62000000D03*
X151920000Y-59625000D03*
D14*
X153190000Y-57085000D03*
D15*
X157000000Y-59625000D03*
D14*
X159540000Y-54545000D03*
D13*
X162080000Y-59625000D03*
X211764500Y-122639409D03*
D14*
X210199795Y-120269557D03*
D15*
X214304500Y-118240000D03*
D14*
X211175091Y-113500295D03*
D13*
X216844500Y-113840591D03*
X132920000Y-43000000D03*
D14*
X134190000Y-40460000D03*
D15*
X138000000Y-43000000D03*
D14*
X140540000Y-37920000D03*
D13*
X143080000Y-43000000D03*
X189920000Y-83375000D03*
D14*
X191190000Y-80835000D03*
D15*
X195000000Y-83375000D03*
D14*
X197540000Y-78295000D03*
D13*
X200080000Y-83375000D03*
X151920000Y-40625000D03*
D14*
X153190000Y-38085000D03*
D15*
X157000000Y-40625000D03*
D14*
X159540000Y-35545000D03*
D13*
X162080000Y-40625000D03*
X170920000Y-43000000D03*
D14*
X172190000Y-40460000D03*
D15*
X176000000Y-43000000D03*
D14*
X178540000Y-37920000D03*
D13*
X181080000Y-43000000D03*
X195310000Y-113139409D03*
D14*
X193745295Y-110769557D03*
D15*
X197850000Y-108740000D03*
D14*
X194720591Y-104000295D03*
D13*
X200390000Y-104340591D03*
X113920000Y-40625000D03*
D14*
X115190000Y-38085000D03*
D15*
X119000000Y-40625000D03*
D14*
X121540000Y-35545000D03*
D13*
X124080000Y-40625000D03*
X94920000Y-81000000D03*
D14*
X96190000Y-78460000D03*
D15*
X100000000Y-81000000D03*
D14*
X102540000Y-75920000D03*
D13*
X105080000Y-81000000D03*
X170920000Y-62000000D03*
D14*
X172190000Y-59460000D03*
D15*
X176000000Y-62000000D03*
D14*
X178540000Y-56920000D03*
D13*
X181080000Y-62000000D03*
X170920000Y-81000000D03*
D14*
X172190000Y-78460000D03*
D15*
X176000000Y-81000000D03*
D14*
X178540000Y-75920000D03*
D13*
X181080000Y-81000000D03*
X113920000Y-78625000D03*
D14*
X115190000Y-76085000D03*
D15*
X119000000Y-78625000D03*
D14*
X121540000Y-73545000D03*
D13*
X124080000Y-78625000D03*
X132920000Y-62000000D03*
D14*
X134190000Y-59460000D03*
D15*
X138000000Y-62000000D03*
D14*
X140540000Y-56920000D03*
D13*
X143080000Y-62000000D03*
%LPD*%
M02*
