%TF.GenerationSoftware,KiCad,Pcbnew,8.0.8+1*%
%TF.CreationDate,2025-06-17T15:50:16+00:00*%
%TF.ProjectId,eggada50_wireless_autorouted,65676761-6461-4353-905f-776972656c65,0.2*%
%TF.SameCoordinates,Original*%
%TF.FileFunction,Drillmap*%
%TF.FilePolarity,Positive*%
%FSLAX45Y45*%
G04 Gerber Fmt 4.5, Leading zero omitted, Abs format (unit mm)*
G04 Created by KiCad (PCBNEW 8.0.8+1) date 2025-06-17 15:50:16*
%MOMM*%
%LPD*%
G01*
G04 APERTURE LIST*
%ADD10C,0.150000*%
%ADD11C,0.200000*%
%ADD12C,0.100000*%
%ADD13C,0.190000*%
%ADD14C,0.220000*%
%ADD15C,0.300000*%
%ADD16C,0.410000*%
%ADD17C,0.430000*%
G04 APERTURE END LIST*
D10*
X18508200Y-3449000D02*
X18508200Y-3598800D01*
X16658200Y-3399000D02*
X18458200Y-3399000D01*
X16697850Y-10924000D02*
G75*
G02*
X16717699Y-10928109I0J-50000D01*
G01*
X11008000Y-3223800D02*
G75*
G02*
X11058000Y-3173800I50000J0D01*
G01*
X16608200Y-3223800D02*
X16608200Y-3349000D01*
X9158199Y-10924000D02*
G75*
G02*
X9108200Y-10874001I1J50000D01*
G01*
X14808000Y-3349000D02*
G75*
G02*
X14758000Y-3399000I-50000J0D01*
G01*
X18311391Y-11617429D02*
G75*
G02*
X18316542Y-11620018I-19871J-45941D01*
G01*
X18558200Y-3648800D02*
X20358222Y-3648800D01*
X9108001Y-3449001D02*
G75*
G02*
X9158001Y-3399001I49999J1D01*
G01*
X14808000Y-3349000D02*
X14808000Y-3223800D01*
X11008000Y-3349000D02*
G75*
G02*
X10958000Y-3399000I-50000J0D01*
G01*
X18316542Y-11620019D02*
X21484938Y-13449293D01*
X23101300Y-3874000D02*
G75*
G02*
X23151300Y-3924000I0J-50000D01*
G01*
X18311391Y-11617429D02*
X16717699Y-10928109D01*
X14858000Y-3173800D02*
X16558200Y-3173800D01*
X18558200Y-3648800D02*
G75*
G02*
X18508200Y-3598800I0J50000D01*
G01*
X11058000Y-3173800D02*
X12758200Y-3173800D01*
X23151300Y-3924000D02*
X23151300Y-10666703D01*
X20358222Y-3648800D02*
G75*
G02*
X20408220Y-3698778I-2J-50000D01*
G01*
X9158001Y-3399000D02*
X10958000Y-3399000D01*
X16558200Y-3173800D02*
G75*
G02*
X16608200Y-3223800I0J-50000D01*
G01*
X12858200Y-3399000D02*
X14758000Y-3399000D01*
X9108199Y-10874001D02*
X9108001Y-3449001D01*
X20408222Y-3698778D02*
X20408278Y-3824022D01*
X23144601Y-10691703D02*
X23119800Y-10734660D01*
X12808200Y-3223800D02*
X12808200Y-3349000D01*
X14808000Y-3223800D02*
G75*
G02*
X14858000Y-3173800I50000J0D01*
G01*
X9158199Y-10924000D02*
X16697850Y-10924000D01*
X16658200Y-3399000D02*
G75*
G02*
X16608200Y-3349000I0J50000D01*
G01*
X20458278Y-3874000D02*
X23101300Y-3874000D01*
X12858200Y-3399000D02*
G75*
G02*
X12808200Y-3349000I0J50000D01*
G01*
X18458200Y-3399000D02*
G75*
G02*
X18508200Y-3449000I0J-50000D01*
G01*
X23151300Y-10666703D02*
G75*
G02*
X23144602Y-10691703I-50020J3D01*
G01*
X23119800Y-10734660D02*
X21553171Y-13431110D01*
X11008000Y-3349000D02*
X11008000Y-3223800D01*
X12758200Y-3173800D02*
G75*
G02*
X12808200Y-3223800I0J-50000D01*
G01*
X21553171Y-13431110D02*
G75*
G02*
X21484940Y-13449290I-43231J25120D01*
G01*
X20458278Y-3874000D02*
G75*
G02*
X20408280Y-3824022I2J50000D01*
G01*
D11*
D12*
X22750000Y-7237500D02*
X22825000Y-7312500D01*
X22825000Y-7237500D02*
X22750000Y-7312500D01*
X23025000Y-7237500D02*
X23100000Y-7312500D01*
X23100000Y-7237500D02*
X23025000Y-7312500D01*
X22997500Y-8325000D02*
G75*
G02*
X22907500Y-8325000I-45000J0D01*
G01*
X22907500Y-8325000D02*
G75*
G02*
X22997500Y-8325000I45000J0D01*
G01*
X22997500Y-8625000D02*
G75*
G02*
X22907500Y-8625000I-45000J0D01*
G01*
X22907500Y-8625000D02*
G75*
G02*
X22997500Y-8625000I45000J0D01*
G01*
D13*
X9492000Y-4205000D02*
X9492000Y-4395000D01*
X9397000Y-4300000D02*
X9587000Y-4300000D01*
X9492000Y-4205000D02*
X9492000Y-4395000D01*
X9397000Y-4300000D02*
X9587000Y-4300000D01*
X9492000Y-6105000D02*
X9492000Y-6295000D01*
X9397000Y-6200000D02*
X9587000Y-6200000D01*
X9492000Y-6105000D02*
X9492000Y-6295000D01*
X9397000Y-6200000D02*
X9587000Y-6200000D01*
X9492000Y-8005000D02*
X9492000Y-8195000D01*
X9397000Y-8100000D02*
X9587000Y-8100000D01*
X9492000Y-8005000D02*
X9492000Y-8195000D01*
X9397000Y-8100000D02*
X9587000Y-8100000D01*
X9492000Y-9905000D02*
X9492000Y-10095000D01*
X9397000Y-10000000D02*
X9587000Y-10000000D01*
X9492000Y-9905000D02*
X9492000Y-10095000D01*
X9397000Y-10000000D02*
X9587000Y-10000000D01*
X10508000Y-4205000D02*
X10508000Y-4395000D01*
X10413000Y-4300000D02*
X10603000Y-4300000D01*
X10508000Y-4205000D02*
X10508000Y-4395000D01*
X10413000Y-4300000D02*
X10603000Y-4300000D01*
X10508000Y-6105000D02*
X10508000Y-6295000D01*
X10413000Y-6200000D02*
X10603000Y-6200000D01*
X10508000Y-6105000D02*
X10508000Y-6295000D01*
X10413000Y-6200000D02*
X10603000Y-6200000D01*
X10508000Y-8005000D02*
X10508000Y-8195000D01*
X10413000Y-8100000D02*
X10603000Y-8100000D01*
X10508000Y-8005000D02*
X10508000Y-8195000D01*
X10413000Y-8100000D02*
X10603000Y-8100000D01*
X10508000Y-9905000D02*
X10508000Y-10095000D01*
X10413000Y-10000000D02*
X10603000Y-10000000D01*
X10508000Y-9905000D02*
X10508000Y-10095000D01*
X10413000Y-10000000D02*
X10603000Y-10000000D01*
X11392000Y-3967500D02*
X11392000Y-4157500D01*
X11297000Y-4062500D02*
X11487000Y-4062500D01*
X11392000Y-3967500D02*
X11392000Y-4157500D01*
X11297000Y-4062500D02*
X11487000Y-4062500D01*
X11392000Y-5867500D02*
X11392000Y-6057500D01*
X11297000Y-5962500D02*
X11487000Y-5962500D01*
X11392000Y-5867500D02*
X11392000Y-6057500D01*
X11297000Y-5962500D02*
X11487000Y-5962500D01*
X11392000Y-7767500D02*
X11392000Y-7957500D01*
X11297000Y-7862500D02*
X11487000Y-7862500D01*
X11392000Y-7767500D02*
X11392000Y-7957500D01*
X11297000Y-7862500D02*
X11487000Y-7862500D01*
X11392000Y-9667500D02*
X11392000Y-9857500D01*
X11297000Y-9762500D02*
X11487000Y-9762500D01*
X11392000Y-9667500D02*
X11392000Y-9857500D01*
X11297000Y-9762500D02*
X11487000Y-9762500D01*
X12408000Y-3967500D02*
X12408000Y-4157500D01*
X12313000Y-4062500D02*
X12503000Y-4062500D01*
X12408000Y-3967500D02*
X12408000Y-4157500D01*
X12313000Y-4062500D02*
X12503000Y-4062500D01*
X12408000Y-5867500D02*
X12408000Y-6057500D01*
X12313000Y-5962500D02*
X12503000Y-5962500D01*
X12408000Y-5867500D02*
X12408000Y-6057500D01*
X12313000Y-5962500D02*
X12503000Y-5962500D01*
X12408000Y-7767500D02*
X12408000Y-7957500D01*
X12313000Y-7862500D02*
X12503000Y-7862500D01*
X12408000Y-7767500D02*
X12408000Y-7957500D01*
X12313000Y-7862500D02*
X12503000Y-7862500D01*
X12408000Y-9667500D02*
X12408000Y-9857500D01*
X12313000Y-9762500D02*
X12503000Y-9762500D01*
X12408000Y-9667500D02*
X12408000Y-9857500D01*
X12313000Y-9762500D02*
X12503000Y-9762500D01*
X13292000Y-4205000D02*
X13292000Y-4395000D01*
X13197000Y-4300000D02*
X13387000Y-4300000D01*
X13292000Y-4205000D02*
X13292000Y-4395000D01*
X13197000Y-4300000D02*
X13387000Y-4300000D01*
X13292000Y-6105000D02*
X13292000Y-6295000D01*
X13197000Y-6200000D02*
X13387000Y-6200000D01*
X13292000Y-6105000D02*
X13292000Y-6295000D01*
X13197000Y-6200000D02*
X13387000Y-6200000D01*
X13292000Y-8005000D02*
X13292000Y-8195000D01*
X13197000Y-8100000D02*
X13387000Y-8100000D01*
X13292000Y-8005000D02*
X13292000Y-8195000D01*
X13197000Y-8100000D02*
X13387000Y-8100000D01*
X13292000Y-9905000D02*
X13292000Y-10095000D01*
X13197000Y-10000000D02*
X13387000Y-10000000D01*
X13292000Y-9905000D02*
X13292000Y-10095000D01*
X13197000Y-10000000D02*
X13387000Y-10000000D01*
X14308000Y-4205000D02*
X14308000Y-4395000D01*
X14213000Y-4300000D02*
X14403000Y-4300000D01*
X14308000Y-4205000D02*
X14308000Y-4395000D01*
X14213000Y-4300000D02*
X14403000Y-4300000D01*
X14308000Y-6105000D02*
X14308000Y-6295000D01*
X14213000Y-6200000D02*
X14403000Y-6200000D01*
X14308000Y-6105000D02*
X14308000Y-6295000D01*
X14213000Y-6200000D02*
X14403000Y-6200000D01*
X14308000Y-8005000D02*
X14308000Y-8195000D01*
X14213000Y-8100000D02*
X14403000Y-8100000D01*
X14308000Y-8005000D02*
X14308000Y-8195000D01*
X14213000Y-8100000D02*
X14403000Y-8100000D01*
X14308000Y-9905000D02*
X14308000Y-10095000D01*
X14213000Y-10000000D02*
X14403000Y-10000000D01*
X14308000Y-9905000D02*
X14308000Y-10095000D01*
X14213000Y-10000000D02*
X14403000Y-10000000D01*
X15192000Y-3967500D02*
X15192000Y-4157500D01*
X15097000Y-4062500D02*
X15287000Y-4062500D01*
X15192000Y-3967500D02*
X15192000Y-4157500D01*
X15097000Y-4062500D02*
X15287000Y-4062500D01*
X15192000Y-5867500D02*
X15192000Y-6057500D01*
X15097000Y-5962500D02*
X15287000Y-5962500D01*
X15192000Y-5867500D02*
X15192000Y-6057500D01*
X15097000Y-5962500D02*
X15287000Y-5962500D01*
X15192000Y-7767500D02*
X15192000Y-7957500D01*
X15097000Y-7862500D02*
X15287000Y-7862500D01*
X15192000Y-7767500D02*
X15192000Y-7957500D01*
X15097000Y-7862500D02*
X15287000Y-7862500D01*
X15192000Y-9667500D02*
X15192000Y-9857500D01*
X15097000Y-9762500D02*
X15287000Y-9762500D01*
X15192000Y-9667500D02*
X15192000Y-9857500D01*
X15097000Y-9762500D02*
X15287000Y-9762500D01*
X16208000Y-3967500D02*
X16208000Y-4157500D01*
X16113000Y-4062500D02*
X16303000Y-4062500D01*
X16208000Y-3967500D02*
X16208000Y-4157500D01*
X16113000Y-4062500D02*
X16303000Y-4062500D01*
X16208000Y-5867500D02*
X16208000Y-6057500D01*
X16113000Y-5962500D02*
X16303000Y-5962500D01*
X16208000Y-5867500D02*
X16208000Y-6057500D01*
X16113000Y-5962500D02*
X16303000Y-5962500D01*
X16208000Y-7767500D02*
X16208000Y-7957500D01*
X16113000Y-7862500D02*
X16303000Y-7862500D01*
X16208000Y-7767500D02*
X16208000Y-7957500D01*
X16113000Y-7862500D02*
X16303000Y-7862500D01*
X16208000Y-9667500D02*
X16208000Y-9857500D01*
X16113000Y-9762500D02*
X16303000Y-9762500D01*
X16208000Y-9667500D02*
X16208000Y-9857500D01*
X16113000Y-9762500D02*
X16303000Y-9762500D01*
X17092000Y-4205000D02*
X17092000Y-4395000D01*
X16997000Y-4300000D02*
X17187000Y-4300000D01*
X17092000Y-4205000D02*
X17092000Y-4395000D01*
X16997000Y-4300000D02*
X17187000Y-4300000D01*
X17092000Y-6105000D02*
X17092000Y-6295000D01*
X16997000Y-6200000D02*
X17187000Y-6200000D01*
X17092000Y-6105000D02*
X17092000Y-6295000D01*
X16997000Y-6200000D02*
X17187000Y-6200000D01*
X17092000Y-8005000D02*
X17092000Y-8195000D01*
X16997000Y-8100000D02*
X17187000Y-8100000D01*
X17092000Y-8005000D02*
X17092000Y-8195000D01*
X16997000Y-8100000D02*
X17187000Y-8100000D01*
X17092000Y-9905000D02*
X17092000Y-10095000D01*
X16997000Y-10000000D02*
X17187000Y-10000000D01*
X17092000Y-9905000D02*
X17092000Y-10095000D01*
X16997000Y-10000000D02*
X17187000Y-10000000D01*
X18108000Y-4205000D02*
X18108000Y-4395000D01*
X18013000Y-4300000D02*
X18203000Y-4300000D01*
X18108000Y-4205000D02*
X18108000Y-4395000D01*
X18013000Y-4300000D02*
X18203000Y-4300000D01*
X18108000Y-6105000D02*
X18108000Y-6295000D01*
X18013000Y-6200000D02*
X18203000Y-6200000D01*
X18108000Y-6105000D02*
X18108000Y-6295000D01*
X18013000Y-6200000D02*
X18203000Y-6200000D01*
X18108000Y-8005000D02*
X18108000Y-8195000D01*
X18013000Y-8100000D02*
X18203000Y-8100000D01*
X18108000Y-8005000D02*
X18108000Y-8195000D01*
X18013000Y-8100000D02*
X18203000Y-8100000D01*
X18108000Y-9905000D02*
X18108000Y-10095000D01*
X18013000Y-10000000D02*
X18203000Y-10000000D01*
X18108000Y-9905000D02*
X18108000Y-10095000D01*
X18013000Y-10000000D02*
X18203000Y-10000000D01*
X18992000Y-4442500D02*
X18992000Y-4632500D01*
X18897000Y-4537500D02*
X19087000Y-4537500D01*
X18992000Y-4442500D02*
X18992000Y-4632500D01*
X18897000Y-4537500D02*
X19087000Y-4537500D01*
X18992000Y-6342500D02*
X18992000Y-6532500D01*
X18897000Y-6437500D02*
X19087000Y-6437500D01*
X18992000Y-6342500D02*
X18992000Y-6532500D01*
X18897000Y-6437500D02*
X19087000Y-6437500D01*
X18992000Y-8242500D02*
X18992000Y-8432500D01*
X18897000Y-8337500D02*
X19087000Y-8337500D01*
X18992000Y-8242500D02*
X18992000Y-8432500D01*
X18897000Y-8337500D02*
X19087000Y-8337500D01*
X19531000Y-11218941D02*
X19531000Y-11408941D01*
X19436000Y-11313941D02*
X19626000Y-11313941D01*
X19531000Y-11218941D02*
X19531000Y-11408941D01*
X19436000Y-11313941D02*
X19626000Y-11313941D01*
X20008000Y-4442500D02*
X20008000Y-4632500D01*
X19913000Y-4537500D02*
X20103000Y-4537500D01*
X20008000Y-4442500D02*
X20008000Y-4632500D01*
X19913000Y-4537500D02*
X20103000Y-4537500D01*
X20008000Y-6342500D02*
X20008000Y-6532500D01*
X19913000Y-6437500D02*
X20103000Y-6437500D01*
X20008000Y-6342500D02*
X20008000Y-6532500D01*
X19913000Y-6437500D02*
X20103000Y-6437500D01*
X20008000Y-8242500D02*
X20008000Y-8432500D01*
X19913000Y-8337500D02*
X20103000Y-8337500D01*
X20008000Y-8242500D02*
X20008000Y-8432500D01*
X19913000Y-8337500D02*
X20103000Y-8337500D01*
X20039000Y-10339059D02*
X20039000Y-10529059D01*
X19944000Y-10434059D02*
X20134000Y-10434059D01*
X20039000Y-10339059D02*
X20039000Y-10529059D01*
X19944000Y-10434059D02*
X20134000Y-10434059D01*
X21176450Y-12168941D02*
X21176450Y-12358941D01*
X21081450Y-12263941D02*
X21271450Y-12263941D01*
X21176450Y-12168941D02*
X21176450Y-12358941D01*
X21081450Y-12263941D02*
X21271450Y-12263941D01*
X21684450Y-11289059D02*
X21684450Y-11479059D01*
X21589450Y-11384059D02*
X21779450Y-11384059D01*
X21684450Y-11289059D02*
X21684450Y-11479059D01*
X21589450Y-11384059D02*
X21779450Y-11384059D01*
D14*
X20853983Y-9000383D02*
X20853983Y-8844818D01*
X20698418Y-8844818D01*
X20698418Y-9000383D01*
X20853983Y-9000383D01*
X22947182Y-10202283D02*
X22947182Y-10046718D01*
X22791617Y-10046718D01*
X22791617Y-10202283D01*
X22947182Y-10202283D01*
D15*
X9619000Y-4196000D02*
X9769000Y-4046000D01*
X9619000Y-3896000D01*
X9469000Y-4046000D01*
X9619000Y-4196000D01*
X9619000Y-6096000D02*
X9769000Y-5946000D01*
X9619000Y-5796000D01*
X9469000Y-5946000D01*
X9619000Y-6096000D01*
X9619000Y-7996000D02*
X9769000Y-7846000D01*
X9619000Y-7696000D01*
X9469000Y-7846000D01*
X9619000Y-7996000D01*
X9619000Y-9896000D02*
X9769000Y-9746000D01*
X9619000Y-9596000D01*
X9469000Y-9746000D01*
X9619000Y-9896000D01*
X9746000Y-3942000D02*
X9896000Y-3792000D01*
X9746000Y-3642000D01*
X9596000Y-3792000D01*
X9746000Y-3942000D01*
X9746000Y-5842000D02*
X9896000Y-5692000D01*
X9746000Y-5542000D01*
X9596000Y-5692000D01*
X9746000Y-5842000D01*
X9746000Y-7742000D02*
X9896000Y-7592000D01*
X9746000Y-7442000D01*
X9596000Y-7592000D01*
X9746000Y-7742000D01*
X9746000Y-9642000D02*
X9896000Y-9492000D01*
X9746000Y-9342000D01*
X9596000Y-9492000D01*
X9746000Y-9642000D01*
X10254000Y-3942000D02*
X10404000Y-3792000D01*
X10254000Y-3642000D01*
X10104000Y-3792000D01*
X10254000Y-3942000D01*
X10254000Y-5842000D02*
X10404000Y-5692000D01*
X10254000Y-5542000D01*
X10104000Y-5692000D01*
X10254000Y-5842000D01*
X10254000Y-7742000D02*
X10404000Y-7592000D01*
X10254000Y-7442000D01*
X10104000Y-7592000D01*
X10254000Y-7742000D01*
X10254000Y-9642000D02*
X10404000Y-9492000D01*
X10254000Y-9342000D01*
X10104000Y-9492000D01*
X10254000Y-9642000D01*
X10381000Y-4196000D02*
X10531000Y-4046000D01*
X10381000Y-3896000D01*
X10231000Y-4046000D01*
X10381000Y-4196000D01*
X10381000Y-6096000D02*
X10531000Y-5946000D01*
X10381000Y-5796000D01*
X10231000Y-5946000D01*
X10381000Y-6096000D01*
X10381000Y-7996000D02*
X10531000Y-7846000D01*
X10381000Y-7696000D01*
X10231000Y-7846000D01*
X10381000Y-7996000D01*
X10381000Y-9896000D02*
X10531000Y-9746000D01*
X10381000Y-9596000D01*
X10231000Y-9746000D01*
X10381000Y-9896000D01*
X11519000Y-3958500D02*
X11669000Y-3808500D01*
X11519000Y-3658500D01*
X11369000Y-3808500D01*
X11519000Y-3958500D01*
X11519000Y-5858500D02*
X11669000Y-5708500D01*
X11519000Y-5558500D01*
X11369000Y-5708500D01*
X11519000Y-5858500D01*
X11519000Y-7758500D02*
X11669000Y-7608500D01*
X11519000Y-7458500D01*
X11369000Y-7608500D01*
X11519000Y-7758500D01*
X11519000Y-9658500D02*
X11669000Y-9508500D01*
X11519000Y-9358500D01*
X11369000Y-9508500D01*
X11519000Y-9658500D01*
X11646000Y-3704500D02*
X11796000Y-3554500D01*
X11646000Y-3404500D01*
X11496000Y-3554500D01*
X11646000Y-3704500D01*
X11646000Y-5604500D02*
X11796000Y-5454500D01*
X11646000Y-5304500D01*
X11496000Y-5454500D01*
X11646000Y-5604500D01*
X11646000Y-7504500D02*
X11796000Y-7354500D01*
X11646000Y-7204500D01*
X11496000Y-7354500D01*
X11646000Y-7504500D01*
X11646000Y-9404500D02*
X11796000Y-9254500D01*
X11646000Y-9104500D01*
X11496000Y-9254500D01*
X11646000Y-9404500D01*
X12154000Y-3704500D02*
X12304000Y-3554500D01*
X12154000Y-3404500D01*
X12004000Y-3554500D01*
X12154000Y-3704500D01*
X12154000Y-5604500D02*
X12304000Y-5454500D01*
X12154000Y-5304500D01*
X12004000Y-5454500D01*
X12154000Y-5604500D01*
X12154000Y-7504500D02*
X12304000Y-7354500D01*
X12154000Y-7204500D01*
X12004000Y-7354500D01*
X12154000Y-7504500D01*
X12154000Y-9404500D02*
X12304000Y-9254500D01*
X12154000Y-9104500D01*
X12004000Y-9254500D01*
X12154000Y-9404500D01*
X12281000Y-3958500D02*
X12431000Y-3808500D01*
X12281000Y-3658500D01*
X12131000Y-3808500D01*
X12281000Y-3958500D01*
X12281000Y-5858500D02*
X12431000Y-5708500D01*
X12281000Y-5558500D01*
X12131000Y-5708500D01*
X12281000Y-5858500D01*
X12281000Y-7758500D02*
X12431000Y-7608500D01*
X12281000Y-7458500D01*
X12131000Y-7608500D01*
X12281000Y-7758500D01*
X12281000Y-9658500D02*
X12431000Y-9508500D01*
X12281000Y-9358500D01*
X12131000Y-9508500D01*
X12281000Y-9658500D01*
X13419000Y-4196000D02*
X13569000Y-4046000D01*
X13419000Y-3896000D01*
X13269000Y-4046000D01*
X13419000Y-4196000D01*
X13419000Y-6096000D02*
X13569000Y-5946000D01*
X13419000Y-5796000D01*
X13269000Y-5946000D01*
X13419000Y-6096000D01*
X13419000Y-7996000D02*
X13569000Y-7846000D01*
X13419000Y-7696000D01*
X13269000Y-7846000D01*
X13419000Y-7996000D01*
X13419000Y-9896000D02*
X13569000Y-9746000D01*
X13419000Y-9596000D01*
X13269000Y-9746000D01*
X13419000Y-9896000D01*
X13546000Y-3942000D02*
X13696000Y-3792000D01*
X13546000Y-3642000D01*
X13396000Y-3792000D01*
X13546000Y-3942000D01*
X13546000Y-5842000D02*
X13696000Y-5692000D01*
X13546000Y-5542000D01*
X13396000Y-5692000D01*
X13546000Y-5842000D01*
X13546000Y-7742000D02*
X13696000Y-7592000D01*
X13546000Y-7442000D01*
X13396000Y-7592000D01*
X13546000Y-7742000D01*
X13546000Y-9642000D02*
X13696000Y-9492000D01*
X13546000Y-9342000D01*
X13396000Y-9492000D01*
X13546000Y-9642000D01*
X14054000Y-3942000D02*
X14204000Y-3792000D01*
X14054000Y-3642000D01*
X13904000Y-3792000D01*
X14054000Y-3942000D01*
X14054000Y-5842000D02*
X14204000Y-5692000D01*
X14054000Y-5542000D01*
X13904000Y-5692000D01*
X14054000Y-5842000D01*
X14054000Y-7742000D02*
X14204000Y-7592000D01*
X14054000Y-7442000D01*
X13904000Y-7592000D01*
X14054000Y-7742000D01*
X14054000Y-9642000D02*
X14204000Y-9492000D01*
X14054000Y-9342000D01*
X13904000Y-9492000D01*
X14054000Y-9642000D01*
X14181000Y-4196000D02*
X14331000Y-4046000D01*
X14181000Y-3896000D01*
X14031000Y-4046000D01*
X14181000Y-4196000D01*
X14181000Y-6096000D02*
X14331000Y-5946000D01*
X14181000Y-5796000D01*
X14031000Y-5946000D01*
X14181000Y-6096000D01*
X14181000Y-7996000D02*
X14331000Y-7846000D01*
X14181000Y-7696000D01*
X14031000Y-7846000D01*
X14181000Y-7996000D01*
X14181000Y-9896000D02*
X14331000Y-9746000D01*
X14181000Y-9596000D01*
X14031000Y-9746000D01*
X14181000Y-9896000D01*
X15319000Y-3958500D02*
X15469000Y-3808500D01*
X15319000Y-3658500D01*
X15169000Y-3808500D01*
X15319000Y-3958500D01*
X15319000Y-5858500D02*
X15469000Y-5708500D01*
X15319000Y-5558500D01*
X15169000Y-5708500D01*
X15319000Y-5858500D01*
X15319000Y-7758500D02*
X15469000Y-7608500D01*
X15319000Y-7458500D01*
X15169000Y-7608500D01*
X15319000Y-7758500D01*
X15319000Y-9658500D02*
X15469000Y-9508500D01*
X15319000Y-9358500D01*
X15169000Y-9508500D01*
X15319000Y-9658500D01*
X15446000Y-3704500D02*
X15596000Y-3554500D01*
X15446000Y-3404500D01*
X15296000Y-3554500D01*
X15446000Y-3704500D01*
X15446000Y-5604500D02*
X15596000Y-5454500D01*
X15446000Y-5304500D01*
X15296000Y-5454500D01*
X15446000Y-5604500D01*
X15446000Y-7504500D02*
X15596000Y-7354500D01*
X15446000Y-7204500D01*
X15296000Y-7354500D01*
X15446000Y-7504500D01*
X15446000Y-9404500D02*
X15596000Y-9254500D01*
X15446000Y-9104500D01*
X15296000Y-9254500D01*
X15446000Y-9404500D01*
X15954000Y-3704500D02*
X16104000Y-3554500D01*
X15954000Y-3404500D01*
X15804000Y-3554500D01*
X15954000Y-3704500D01*
X15954000Y-5604500D02*
X16104000Y-5454500D01*
X15954000Y-5304500D01*
X15804000Y-5454500D01*
X15954000Y-5604500D01*
X15954000Y-7504500D02*
X16104000Y-7354500D01*
X15954000Y-7204500D01*
X15804000Y-7354500D01*
X15954000Y-7504500D01*
X15954000Y-9404500D02*
X16104000Y-9254500D01*
X15954000Y-9104500D01*
X15804000Y-9254500D01*
X15954000Y-9404500D01*
X16081000Y-3958500D02*
X16231000Y-3808500D01*
X16081000Y-3658500D01*
X15931000Y-3808500D01*
X16081000Y-3958500D01*
X16081000Y-5858500D02*
X16231000Y-5708500D01*
X16081000Y-5558500D01*
X15931000Y-5708500D01*
X16081000Y-5858500D01*
X16081000Y-7758500D02*
X16231000Y-7608500D01*
X16081000Y-7458500D01*
X15931000Y-7608500D01*
X16081000Y-7758500D01*
X16081000Y-9658500D02*
X16231000Y-9508500D01*
X16081000Y-9358500D01*
X15931000Y-9508500D01*
X16081000Y-9658500D01*
X17219000Y-4196000D02*
X17369000Y-4046000D01*
X17219000Y-3896000D01*
X17069000Y-4046000D01*
X17219000Y-4196000D01*
X17219000Y-6096000D02*
X17369000Y-5946000D01*
X17219000Y-5796000D01*
X17069000Y-5946000D01*
X17219000Y-6096000D01*
X17219000Y-7996000D02*
X17369000Y-7846000D01*
X17219000Y-7696000D01*
X17069000Y-7846000D01*
X17219000Y-7996000D01*
X17219000Y-9896000D02*
X17369000Y-9746000D01*
X17219000Y-9596000D01*
X17069000Y-9746000D01*
X17219000Y-9896000D01*
X17346000Y-3942000D02*
X17496000Y-3792000D01*
X17346000Y-3642000D01*
X17196000Y-3792000D01*
X17346000Y-3942000D01*
X17346000Y-5842000D02*
X17496000Y-5692000D01*
X17346000Y-5542000D01*
X17196000Y-5692000D01*
X17346000Y-5842000D01*
X17346000Y-7742000D02*
X17496000Y-7592000D01*
X17346000Y-7442000D01*
X17196000Y-7592000D01*
X17346000Y-7742000D01*
X17346000Y-9642000D02*
X17496000Y-9492000D01*
X17346000Y-9342000D01*
X17196000Y-9492000D01*
X17346000Y-9642000D01*
X17854000Y-3942000D02*
X18004000Y-3792000D01*
X17854000Y-3642000D01*
X17704000Y-3792000D01*
X17854000Y-3942000D01*
X17854000Y-5842000D02*
X18004000Y-5692000D01*
X17854000Y-5542000D01*
X17704000Y-5692000D01*
X17854000Y-5842000D01*
X17854000Y-7742000D02*
X18004000Y-7592000D01*
X17854000Y-7442000D01*
X17704000Y-7592000D01*
X17854000Y-7742000D01*
X17854000Y-9642000D02*
X18004000Y-9492000D01*
X17854000Y-9342000D01*
X17704000Y-9492000D01*
X17854000Y-9642000D01*
X17981000Y-4196000D02*
X18131000Y-4046000D01*
X17981000Y-3896000D01*
X17831000Y-4046000D01*
X17981000Y-4196000D01*
X17981000Y-6096000D02*
X18131000Y-5946000D01*
X17981000Y-5796000D01*
X17831000Y-5946000D01*
X17981000Y-6096000D01*
X17981000Y-7996000D02*
X18131000Y-7846000D01*
X17981000Y-7696000D01*
X17831000Y-7846000D01*
X17981000Y-7996000D01*
X17981000Y-9896000D02*
X18131000Y-9746000D01*
X17981000Y-9596000D01*
X17831000Y-9746000D01*
X17981000Y-9896000D01*
X19119000Y-4433500D02*
X19269000Y-4283500D01*
X19119000Y-4133500D01*
X18969000Y-4283500D01*
X19119000Y-4433500D01*
X19119000Y-6333500D02*
X19269000Y-6183500D01*
X19119000Y-6033500D01*
X18969000Y-6183500D01*
X19119000Y-6333500D01*
X19119000Y-8233500D02*
X19269000Y-8083500D01*
X19119000Y-7933500D01*
X18969000Y-8083500D01*
X19119000Y-8233500D01*
X19218059Y-10989971D02*
X19368059Y-10839971D01*
X19218059Y-10689971D01*
X19068059Y-10839971D01*
X19218059Y-10989971D01*
X19246000Y-4179500D02*
X19396000Y-4029500D01*
X19246000Y-3879500D01*
X19096000Y-4029500D01*
X19246000Y-4179500D01*
X19246000Y-6079500D02*
X19396000Y-5929500D01*
X19246000Y-5779500D01*
X19096000Y-5929500D01*
X19246000Y-6079500D01*
X19246000Y-7979500D02*
X19396000Y-7829500D01*
X19246000Y-7679500D01*
X19096000Y-7829500D01*
X19246000Y-7979500D01*
X19374530Y-11226956D02*
X19524530Y-11076956D01*
X19374530Y-10926956D01*
X19224530Y-11076956D01*
X19374530Y-11226956D01*
X19472059Y-10550030D02*
X19622059Y-10400030D01*
X19472059Y-10250030D01*
X19322059Y-10400030D01*
X19472059Y-10550030D01*
X19754000Y-4179500D02*
X19904000Y-4029500D01*
X19754000Y-3879500D01*
X19604000Y-4029500D01*
X19754000Y-4179500D01*
X19754000Y-6079500D02*
X19904000Y-5929500D01*
X19754000Y-5779500D01*
X19604000Y-5929500D01*
X19754000Y-6079500D01*
X19754000Y-7979500D02*
X19904000Y-7829500D01*
X19754000Y-7679500D01*
X19604000Y-7829500D01*
X19754000Y-7979500D01*
X19755530Y-10567044D02*
X19905530Y-10417044D01*
X19755530Y-10267044D01*
X19605530Y-10417044D01*
X19755530Y-10567044D01*
X19881000Y-4433500D02*
X20031000Y-4283500D01*
X19881000Y-4133500D01*
X19731000Y-4283500D01*
X19881000Y-4433500D01*
X19881000Y-6333500D02*
X20031000Y-6183500D01*
X19881000Y-6033500D01*
X19731000Y-6183500D01*
X19881000Y-6333500D01*
X19881000Y-8233500D02*
X20031000Y-8083500D01*
X19881000Y-7933500D01*
X19731000Y-8083500D01*
X19881000Y-8233500D01*
X20863509Y-11939970D02*
X21013509Y-11789970D01*
X20863509Y-11639970D01*
X20713509Y-11789970D01*
X20863509Y-11939970D01*
X21019980Y-12176956D02*
X21169980Y-12026956D01*
X21019980Y-11876956D01*
X20869980Y-12026956D01*
X21019980Y-12176956D01*
X21117509Y-11500029D02*
X21267509Y-11350029D01*
X21117509Y-11200029D01*
X20967509Y-11350029D01*
X21117509Y-11500029D01*
X21400980Y-11517044D02*
X21550980Y-11367044D01*
X21400980Y-11217044D01*
X21250980Y-11367044D01*
X21400980Y-11517044D01*
D16*
X9795000Y-4095000D02*
X10205000Y-4505000D01*
X10205000Y-4095000D02*
X9795000Y-4505000D01*
X10205000Y-4300000D02*
G75*
G02*
X9795000Y-4300000I-205000J0D01*
G01*
X9795000Y-4300000D02*
G75*
G02*
X10205000Y-4300000I205000J0D01*
G01*
X9795000Y-4095000D02*
X10205000Y-4505000D01*
X10205000Y-4095000D02*
X9795000Y-4505000D01*
X10205000Y-4300000D02*
G75*
G02*
X9795000Y-4300000I-205000J0D01*
G01*
X9795000Y-4300000D02*
G75*
G02*
X10205000Y-4300000I205000J0D01*
G01*
X9795000Y-5995000D02*
X10205000Y-6405000D01*
X10205000Y-5995000D02*
X9795000Y-6405000D01*
X10205000Y-6200000D02*
G75*
G02*
X9795000Y-6200000I-205000J0D01*
G01*
X9795000Y-6200000D02*
G75*
G02*
X10205000Y-6200000I205000J0D01*
G01*
X9795000Y-5995000D02*
X10205000Y-6405000D01*
X10205000Y-5995000D02*
X9795000Y-6405000D01*
X10205000Y-6200000D02*
G75*
G02*
X9795000Y-6200000I-205000J0D01*
G01*
X9795000Y-6200000D02*
G75*
G02*
X10205000Y-6200000I205000J0D01*
G01*
X9795000Y-7895000D02*
X10205000Y-8305000D01*
X10205000Y-7895000D02*
X9795000Y-8305000D01*
X10205000Y-8100000D02*
G75*
G02*
X9795000Y-8100000I-205000J0D01*
G01*
X9795000Y-8100000D02*
G75*
G02*
X10205000Y-8100000I205000J0D01*
G01*
X9795000Y-7895000D02*
X10205000Y-8305000D01*
X10205000Y-7895000D02*
X9795000Y-8305000D01*
X10205000Y-8100000D02*
G75*
G02*
X9795000Y-8100000I-205000J0D01*
G01*
X9795000Y-8100000D02*
G75*
G02*
X10205000Y-8100000I205000J0D01*
G01*
X9795000Y-9795000D02*
X10205000Y-10205000D01*
X10205000Y-9795000D02*
X9795000Y-10205000D01*
X10205000Y-10000000D02*
G75*
G02*
X9795000Y-10000000I-205000J0D01*
G01*
X9795000Y-10000000D02*
G75*
G02*
X10205000Y-10000000I205000J0D01*
G01*
X9795000Y-9795000D02*
X10205000Y-10205000D01*
X10205000Y-9795000D02*
X9795000Y-10205000D01*
X10205000Y-10000000D02*
G75*
G02*
X9795000Y-10000000I-205000J0D01*
G01*
X9795000Y-10000000D02*
G75*
G02*
X10205000Y-10000000I205000J0D01*
G01*
X11695000Y-3857500D02*
X12105000Y-4267500D01*
X12105000Y-3857500D02*
X11695000Y-4267500D01*
X12105000Y-4062500D02*
G75*
G02*
X11695000Y-4062500I-205000J0D01*
G01*
X11695000Y-4062500D02*
G75*
G02*
X12105000Y-4062500I205000J0D01*
G01*
X11695000Y-3857500D02*
X12105000Y-4267500D01*
X12105000Y-3857500D02*
X11695000Y-4267500D01*
X12105000Y-4062500D02*
G75*
G02*
X11695000Y-4062500I-205000J0D01*
G01*
X11695000Y-4062500D02*
G75*
G02*
X12105000Y-4062500I205000J0D01*
G01*
X11695000Y-5757500D02*
X12105000Y-6167500D01*
X12105000Y-5757500D02*
X11695000Y-6167500D01*
X12105000Y-5962500D02*
G75*
G02*
X11695000Y-5962500I-205000J0D01*
G01*
X11695000Y-5962500D02*
G75*
G02*
X12105000Y-5962500I205000J0D01*
G01*
X11695000Y-5757500D02*
X12105000Y-6167500D01*
X12105000Y-5757500D02*
X11695000Y-6167500D01*
X12105000Y-5962500D02*
G75*
G02*
X11695000Y-5962500I-205000J0D01*
G01*
X11695000Y-5962500D02*
G75*
G02*
X12105000Y-5962500I205000J0D01*
G01*
X11695000Y-7657500D02*
X12105000Y-8067500D01*
X12105000Y-7657500D02*
X11695000Y-8067500D01*
X12105000Y-7862500D02*
G75*
G02*
X11695000Y-7862500I-205000J0D01*
G01*
X11695000Y-7862500D02*
G75*
G02*
X12105000Y-7862500I205000J0D01*
G01*
X11695000Y-7657500D02*
X12105000Y-8067500D01*
X12105000Y-7657500D02*
X11695000Y-8067500D01*
X12105000Y-7862500D02*
G75*
G02*
X11695000Y-7862500I-205000J0D01*
G01*
X11695000Y-7862500D02*
G75*
G02*
X12105000Y-7862500I205000J0D01*
G01*
X11695000Y-9557500D02*
X12105000Y-9967500D01*
X12105000Y-9557500D02*
X11695000Y-9967500D01*
X12105000Y-9762500D02*
G75*
G02*
X11695000Y-9762500I-205000J0D01*
G01*
X11695000Y-9762500D02*
G75*
G02*
X12105000Y-9762500I205000J0D01*
G01*
X11695000Y-9557500D02*
X12105000Y-9967500D01*
X12105000Y-9557500D02*
X11695000Y-9967500D01*
X12105000Y-9762500D02*
G75*
G02*
X11695000Y-9762500I-205000J0D01*
G01*
X11695000Y-9762500D02*
G75*
G02*
X12105000Y-9762500I205000J0D01*
G01*
X13595000Y-4095000D02*
X14005000Y-4505000D01*
X14005000Y-4095000D02*
X13595000Y-4505000D01*
X14005000Y-4300000D02*
G75*
G02*
X13595000Y-4300000I-205000J0D01*
G01*
X13595000Y-4300000D02*
G75*
G02*
X14005000Y-4300000I205000J0D01*
G01*
X13595000Y-4095000D02*
X14005000Y-4505000D01*
X14005000Y-4095000D02*
X13595000Y-4505000D01*
X14005000Y-4300000D02*
G75*
G02*
X13595000Y-4300000I-205000J0D01*
G01*
X13595000Y-4300000D02*
G75*
G02*
X14005000Y-4300000I205000J0D01*
G01*
X13595000Y-5995000D02*
X14005000Y-6405000D01*
X14005000Y-5995000D02*
X13595000Y-6405000D01*
X14005000Y-6200000D02*
G75*
G02*
X13595000Y-6200000I-205000J0D01*
G01*
X13595000Y-6200000D02*
G75*
G02*
X14005000Y-6200000I205000J0D01*
G01*
X13595000Y-5995000D02*
X14005000Y-6405000D01*
X14005000Y-5995000D02*
X13595000Y-6405000D01*
X14005000Y-6200000D02*
G75*
G02*
X13595000Y-6200000I-205000J0D01*
G01*
X13595000Y-6200000D02*
G75*
G02*
X14005000Y-6200000I205000J0D01*
G01*
X13595000Y-7895000D02*
X14005000Y-8305000D01*
X14005000Y-7895000D02*
X13595000Y-8305000D01*
X14005000Y-8100000D02*
G75*
G02*
X13595000Y-8100000I-205000J0D01*
G01*
X13595000Y-8100000D02*
G75*
G02*
X14005000Y-8100000I205000J0D01*
G01*
X13595000Y-7895000D02*
X14005000Y-8305000D01*
X14005000Y-7895000D02*
X13595000Y-8305000D01*
X14005000Y-8100000D02*
G75*
G02*
X13595000Y-8100000I-205000J0D01*
G01*
X13595000Y-8100000D02*
G75*
G02*
X14005000Y-8100000I205000J0D01*
G01*
X13595000Y-9795000D02*
X14005000Y-10205000D01*
X14005000Y-9795000D02*
X13595000Y-10205000D01*
X14005000Y-10000000D02*
G75*
G02*
X13595000Y-10000000I-205000J0D01*
G01*
X13595000Y-10000000D02*
G75*
G02*
X14005000Y-10000000I205000J0D01*
G01*
X13595000Y-9795000D02*
X14005000Y-10205000D01*
X14005000Y-9795000D02*
X13595000Y-10205000D01*
X14005000Y-10000000D02*
G75*
G02*
X13595000Y-10000000I-205000J0D01*
G01*
X13595000Y-10000000D02*
G75*
G02*
X14005000Y-10000000I205000J0D01*
G01*
X15495000Y-3857500D02*
X15905000Y-4267500D01*
X15905000Y-3857500D02*
X15495000Y-4267500D01*
X15905000Y-4062500D02*
G75*
G02*
X15495000Y-4062500I-205000J0D01*
G01*
X15495000Y-4062500D02*
G75*
G02*
X15905000Y-4062500I205000J0D01*
G01*
X15495000Y-3857500D02*
X15905000Y-4267500D01*
X15905000Y-3857500D02*
X15495000Y-4267500D01*
X15905000Y-4062500D02*
G75*
G02*
X15495000Y-4062500I-205000J0D01*
G01*
X15495000Y-4062500D02*
G75*
G02*
X15905000Y-4062500I205000J0D01*
G01*
X15495000Y-5757500D02*
X15905000Y-6167500D01*
X15905000Y-5757500D02*
X15495000Y-6167500D01*
X15905000Y-5962500D02*
G75*
G02*
X15495000Y-5962500I-205000J0D01*
G01*
X15495000Y-5962500D02*
G75*
G02*
X15905000Y-5962500I205000J0D01*
G01*
X15495000Y-5757500D02*
X15905000Y-6167500D01*
X15905000Y-5757500D02*
X15495000Y-6167500D01*
X15905000Y-5962500D02*
G75*
G02*
X15495000Y-5962500I-205000J0D01*
G01*
X15495000Y-5962500D02*
G75*
G02*
X15905000Y-5962500I205000J0D01*
G01*
X15495000Y-7657500D02*
X15905000Y-8067500D01*
X15905000Y-7657500D02*
X15495000Y-8067500D01*
X15905000Y-7862500D02*
G75*
G02*
X15495000Y-7862500I-205000J0D01*
G01*
X15495000Y-7862500D02*
G75*
G02*
X15905000Y-7862500I205000J0D01*
G01*
X15495000Y-7657500D02*
X15905000Y-8067500D01*
X15905000Y-7657500D02*
X15495000Y-8067500D01*
X15905000Y-7862500D02*
G75*
G02*
X15495000Y-7862500I-205000J0D01*
G01*
X15495000Y-7862500D02*
G75*
G02*
X15905000Y-7862500I205000J0D01*
G01*
X15495000Y-9557500D02*
X15905000Y-9967500D01*
X15905000Y-9557500D02*
X15495000Y-9967500D01*
X15905000Y-9762500D02*
G75*
G02*
X15495000Y-9762500I-205000J0D01*
G01*
X15495000Y-9762500D02*
G75*
G02*
X15905000Y-9762500I205000J0D01*
G01*
X15495000Y-9557500D02*
X15905000Y-9967500D01*
X15905000Y-9557500D02*
X15495000Y-9967500D01*
X15905000Y-9762500D02*
G75*
G02*
X15495000Y-9762500I-205000J0D01*
G01*
X15495000Y-9762500D02*
G75*
G02*
X15905000Y-9762500I205000J0D01*
G01*
X17395000Y-4095000D02*
X17805000Y-4505000D01*
X17805000Y-4095000D02*
X17395000Y-4505000D01*
X17805000Y-4300000D02*
G75*
G02*
X17395000Y-4300000I-205000J0D01*
G01*
X17395000Y-4300000D02*
G75*
G02*
X17805000Y-4300000I205000J0D01*
G01*
X17395000Y-4095000D02*
X17805000Y-4505000D01*
X17805000Y-4095000D02*
X17395000Y-4505000D01*
X17805000Y-4300000D02*
G75*
G02*
X17395000Y-4300000I-205000J0D01*
G01*
X17395000Y-4300000D02*
G75*
G02*
X17805000Y-4300000I205000J0D01*
G01*
X17395000Y-5995000D02*
X17805000Y-6405000D01*
X17805000Y-5995000D02*
X17395000Y-6405000D01*
X17805000Y-6200000D02*
G75*
G02*
X17395000Y-6200000I-205000J0D01*
G01*
X17395000Y-6200000D02*
G75*
G02*
X17805000Y-6200000I205000J0D01*
G01*
X17395000Y-5995000D02*
X17805000Y-6405000D01*
X17805000Y-5995000D02*
X17395000Y-6405000D01*
X17805000Y-6200000D02*
G75*
G02*
X17395000Y-6200000I-205000J0D01*
G01*
X17395000Y-6200000D02*
G75*
G02*
X17805000Y-6200000I205000J0D01*
G01*
X17395000Y-7895000D02*
X17805000Y-8305000D01*
X17805000Y-7895000D02*
X17395000Y-8305000D01*
X17805000Y-8100000D02*
G75*
G02*
X17395000Y-8100000I-205000J0D01*
G01*
X17395000Y-8100000D02*
G75*
G02*
X17805000Y-8100000I205000J0D01*
G01*
X17395000Y-7895000D02*
X17805000Y-8305000D01*
X17805000Y-7895000D02*
X17395000Y-8305000D01*
X17805000Y-8100000D02*
G75*
G02*
X17395000Y-8100000I-205000J0D01*
G01*
X17395000Y-8100000D02*
G75*
G02*
X17805000Y-8100000I205000J0D01*
G01*
X17395000Y-9795000D02*
X17805000Y-10205000D01*
X17805000Y-9795000D02*
X17395000Y-10205000D01*
X17805000Y-10000000D02*
G75*
G02*
X17395000Y-10000000I-205000J0D01*
G01*
X17395000Y-10000000D02*
G75*
G02*
X17805000Y-10000000I205000J0D01*
G01*
X17395000Y-9795000D02*
X17805000Y-10205000D01*
X17805000Y-9795000D02*
X17395000Y-10205000D01*
X17805000Y-10000000D02*
G75*
G02*
X17395000Y-10000000I-205000J0D01*
G01*
X17395000Y-10000000D02*
G75*
G02*
X17805000Y-10000000I205000J0D01*
G01*
X19295000Y-4332500D02*
X19705000Y-4742500D01*
X19705000Y-4332500D02*
X19295000Y-4742500D01*
X19705000Y-4537500D02*
G75*
G02*
X19295000Y-4537500I-205000J0D01*
G01*
X19295000Y-4537500D02*
G75*
G02*
X19705000Y-4537500I205000J0D01*
G01*
X19295000Y-4332500D02*
X19705000Y-4742500D01*
X19705000Y-4332500D02*
X19295000Y-4742500D01*
X19705000Y-4537500D02*
G75*
G02*
X19295000Y-4537500I-205000J0D01*
G01*
X19295000Y-4537500D02*
G75*
G02*
X19705000Y-4537500I205000J0D01*
G01*
X19295000Y-6232500D02*
X19705000Y-6642500D01*
X19705000Y-6232500D02*
X19295000Y-6642500D01*
X19705000Y-6437500D02*
G75*
G02*
X19295000Y-6437500I-205000J0D01*
G01*
X19295000Y-6437500D02*
G75*
G02*
X19705000Y-6437500I205000J0D01*
G01*
X19295000Y-6232500D02*
X19705000Y-6642500D01*
X19705000Y-6232500D02*
X19295000Y-6642500D01*
X19705000Y-6437500D02*
G75*
G02*
X19295000Y-6437500I-205000J0D01*
G01*
X19295000Y-6437500D02*
G75*
G02*
X19705000Y-6437500I205000J0D01*
G01*
X19295000Y-8132500D02*
X19705000Y-8542500D01*
X19705000Y-8132500D02*
X19295000Y-8542500D01*
X19705000Y-8337500D02*
G75*
G02*
X19295000Y-8337500I-205000J0D01*
G01*
X19295000Y-8337500D02*
G75*
G02*
X19705000Y-8337500I205000J0D01*
G01*
X19295000Y-8132500D02*
X19705000Y-8542500D01*
X19705000Y-8132500D02*
X19295000Y-8542500D01*
X19705000Y-8337500D02*
G75*
G02*
X19295000Y-8337500I-205000J0D01*
G01*
X19295000Y-8337500D02*
G75*
G02*
X19705000Y-8337500I205000J0D01*
G01*
X19580000Y-10669000D02*
X19990000Y-11079000D01*
X19990000Y-10669000D02*
X19580000Y-11079000D01*
X19990000Y-10874000D02*
G75*
G02*
X19580000Y-10874000I-205000J0D01*
G01*
X19580000Y-10874000D02*
G75*
G02*
X19990000Y-10874000I205000J0D01*
G01*
X19580000Y-10669000D02*
X19990000Y-11079000D01*
X19990000Y-10669000D02*
X19580000Y-11079000D01*
X19990000Y-10874000D02*
G75*
G02*
X19580000Y-10874000I-205000J0D01*
G01*
X19580000Y-10874000D02*
G75*
G02*
X19990000Y-10874000I205000J0D01*
G01*
X21225450Y-11619000D02*
X21635450Y-12029000D01*
X21635450Y-11619000D02*
X21225450Y-12029000D01*
X21635450Y-11824000D02*
G75*
G02*
X21225450Y-11824000I-205000J0D01*
G01*
X21225450Y-11824000D02*
G75*
G02*
X21635450Y-11824000I205000J0D01*
G01*
X21225450Y-11619000D02*
X21635450Y-12029000D01*
X21635450Y-11619000D02*
X21225450Y-12029000D01*
X21635450Y-11824000D02*
G75*
G02*
X21225450Y-11824000I-205000J0D01*
G01*
X21225450Y-11824000D02*
G75*
G02*
X21635450Y-11824000I205000J0D01*
G01*
D17*
X10735000Y-4797500D02*
X11165000Y-5227500D01*
X11165000Y-4797500D02*
X10735000Y-5227500D01*
X10950000Y-4797500D02*
X10950000Y-5227500D01*
X10735000Y-5012500D02*
X11165000Y-5012500D01*
X10735000Y-8597500D02*
X11165000Y-9027500D01*
X11165000Y-8597500D02*
X10735000Y-9027500D01*
X10950000Y-8597500D02*
X10950000Y-9027500D01*
X10735000Y-8812500D02*
X11165000Y-8812500D01*
X14535000Y-6697500D02*
X14965000Y-7127500D01*
X14965000Y-6697500D02*
X14535000Y-7127500D01*
X14750000Y-6697500D02*
X14750000Y-7127500D01*
X14535000Y-6912500D02*
X14965000Y-6912500D01*
X16431800Y-8711100D02*
X16861800Y-9141100D01*
X16861800Y-8711100D02*
X16431800Y-9141100D01*
X16646800Y-8711100D02*
X16646800Y-9141100D01*
X16431800Y-8926100D02*
X16861800Y-8926100D01*
X18331800Y-5158600D02*
X18761800Y-5588600D01*
X18761800Y-5158600D02*
X18331800Y-5588600D01*
X18546800Y-5158600D02*
X18546800Y-5588600D01*
X18331800Y-5373600D02*
X18761800Y-5373600D01*
X19917720Y-11956720D02*
X20347720Y-12386720D01*
X20347720Y-11956720D02*
X19917720Y-12386720D01*
X20132720Y-11956720D02*
X20132720Y-12386720D01*
X19917720Y-12171720D02*
X20347720Y-12171720D01*
X20867720Y-10311280D02*
X21297720Y-10741280D01*
X21297720Y-10311280D02*
X20867720Y-10741280D01*
X21082720Y-10311280D02*
X21082720Y-10741280D01*
X20867720Y-10526280D02*
X21297720Y-10526280D01*
D11*
X9361278Y-13774973D02*
X9361278Y-13574973D01*
X9361278Y-13574973D02*
X9408897Y-13574973D01*
X9408897Y-13574973D02*
X9437469Y-13584497D01*
X9437469Y-13584497D02*
X9456516Y-13603545D01*
X9456516Y-13603545D02*
X9466040Y-13622592D01*
X9466040Y-13622592D02*
X9475564Y-13660687D01*
X9475564Y-13660687D02*
X9475564Y-13689259D01*
X9475564Y-13689259D02*
X9466040Y-13727354D01*
X9466040Y-13727354D02*
X9456516Y-13746402D01*
X9456516Y-13746402D02*
X9437469Y-13765449D01*
X9437469Y-13765449D02*
X9408897Y-13774973D01*
X9408897Y-13774973D02*
X9361278Y-13774973D01*
X9561278Y-13774973D02*
X9561278Y-13641640D01*
X9561278Y-13679735D02*
X9570802Y-13660687D01*
X9570802Y-13660687D02*
X9580326Y-13651164D01*
X9580326Y-13651164D02*
X9599373Y-13641640D01*
X9599373Y-13641640D02*
X9618421Y-13641640D01*
X9685088Y-13774973D02*
X9685088Y-13641640D01*
X9685088Y-13574973D02*
X9675564Y-13584497D01*
X9675564Y-13584497D02*
X9685088Y-13594021D01*
X9685088Y-13594021D02*
X9694611Y-13584497D01*
X9694611Y-13584497D02*
X9685088Y-13574973D01*
X9685088Y-13574973D02*
X9685088Y-13594021D01*
X9808897Y-13774973D02*
X9789850Y-13765449D01*
X9789850Y-13765449D02*
X9780326Y-13746402D01*
X9780326Y-13746402D02*
X9780326Y-13574973D01*
X9913659Y-13774973D02*
X9894611Y-13765449D01*
X9894611Y-13765449D02*
X9885088Y-13746402D01*
X9885088Y-13746402D02*
X9885088Y-13574973D01*
X10142231Y-13774973D02*
X10142231Y-13574973D01*
X10142231Y-13574973D02*
X10208897Y-13717830D01*
X10208897Y-13717830D02*
X10275564Y-13574973D01*
X10275564Y-13574973D02*
X10275564Y-13774973D01*
X10456516Y-13774973D02*
X10456516Y-13670211D01*
X10456516Y-13670211D02*
X10446992Y-13651164D01*
X10446992Y-13651164D02*
X10427945Y-13641640D01*
X10427945Y-13641640D02*
X10389850Y-13641640D01*
X10389850Y-13641640D02*
X10370802Y-13651164D01*
X10456516Y-13765449D02*
X10437469Y-13774973D01*
X10437469Y-13774973D02*
X10389850Y-13774973D01*
X10389850Y-13774973D02*
X10370802Y-13765449D01*
X10370802Y-13765449D02*
X10361278Y-13746402D01*
X10361278Y-13746402D02*
X10361278Y-13727354D01*
X10361278Y-13727354D02*
X10370802Y-13708307D01*
X10370802Y-13708307D02*
X10389850Y-13698783D01*
X10389850Y-13698783D02*
X10437469Y-13698783D01*
X10437469Y-13698783D02*
X10456516Y-13689259D01*
X10551754Y-13641640D02*
X10551754Y-13841640D01*
X10551754Y-13651164D02*
X10570802Y-13641640D01*
X10570802Y-13641640D02*
X10608897Y-13641640D01*
X10608897Y-13641640D02*
X10627945Y-13651164D01*
X10627945Y-13651164D02*
X10637469Y-13660687D01*
X10637469Y-13660687D02*
X10646992Y-13679735D01*
X10646992Y-13679735D02*
X10646992Y-13736878D01*
X10646992Y-13736878D02*
X10637469Y-13755926D01*
X10637469Y-13755926D02*
X10627945Y-13765449D01*
X10627945Y-13765449D02*
X10608897Y-13774973D01*
X10608897Y-13774973D02*
X10570802Y-13774973D01*
X10570802Y-13774973D02*
X10551754Y-13765449D01*
X10732707Y-13755926D02*
X10742231Y-13765449D01*
X10742231Y-13765449D02*
X10732707Y-13774973D01*
X10732707Y-13774973D02*
X10723183Y-13765449D01*
X10723183Y-13765449D02*
X10732707Y-13755926D01*
X10732707Y-13755926D02*
X10732707Y-13774973D01*
X10732707Y-13651164D02*
X10742231Y-13660687D01*
X10742231Y-13660687D02*
X10732707Y-13670211D01*
X10732707Y-13670211D02*
X10723183Y-13660687D01*
X10723183Y-13660687D02*
X10732707Y-13651164D01*
X10732707Y-13651164D02*
X10732707Y-13670211D01*
D12*
X9025501Y-14065989D02*
X9100501Y-14140989D01*
X9100501Y-14065989D02*
X9025501Y-14140989D01*
D11*
X9399373Y-13994973D02*
X9418421Y-13994973D01*
X9418421Y-13994973D02*
X9437469Y-14004497D01*
X9437469Y-14004497D02*
X9446992Y-14014021D01*
X9446992Y-14014021D02*
X9456516Y-14033068D01*
X9456516Y-14033068D02*
X9466040Y-14071164D01*
X9466040Y-14071164D02*
X9466040Y-14118783D01*
X9466040Y-14118783D02*
X9456516Y-14156878D01*
X9456516Y-14156878D02*
X9446992Y-14175926D01*
X9446992Y-14175926D02*
X9437469Y-14185449D01*
X9437469Y-14185449D02*
X9418421Y-14194973D01*
X9418421Y-14194973D02*
X9399373Y-14194973D01*
X9399373Y-14194973D02*
X9380326Y-14185449D01*
X9380326Y-14185449D02*
X9370802Y-14175926D01*
X9370802Y-14175926D02*
X9361278Y-14156878D01*
X9361278Y-14156878D02*
X9351754Y-14118783D01*
X9351754Y-14118783D02*
X9351754Y-14071164D01*
X9351754Y-14071164D02*
X9361278Y-14033068D01*
X9361278Y-14033068D02*
X9370802Y-14014021D01*
X9370802Y-14014021D02*
X9380326Y-14004497D01*
X9380326Y-14004497D02*
X9399373Y-13994973D01*
X9551754Y-14175926D02*
X9561278Y-14185449D01*
X9561278Y-14185449D02*
X9551754Y-14194973D01*
X9551754Y-14194973D02*
X9542231Y-14185449D01*
X9542231Y-14185449D02*
X9551754Y-14175926D01*
X9551754Y-14175926D02*
X9551754Y-14194973D01*
X9627945Y-13994973D02*
X9761278Y-13994973D01*
X9761278Y-13994973D02*
X9675564Y-14194973D01*
X9932707Y-13994973D02*
X9837469Y-13994973D01*
X9837469Y-13994973D02*
X9827945Y-14090211D01*
X9827945Y-14090211D02*
X9837469Y-14080687D01*
X9837469Y-14080687D02*
X9856516Y-14071164D01*
X9856516Y-14071164D02*
X9904135Y-14071164D01*
X9904135Y-14071164D02*
X9923183Y-14080687D01*
X9923183Y-14080687D02*
X9932707Y-14090211D01*
X9932707Y-14090211D02*
X9942231Y-14109259D01*
X9942231Y-14109259D02*
X9942231Y-14156878D01*
X9942231Y-14156878D02*
X9932707Y-14175926D01*
X9932707Y-14175926D02*
X9923183Y-14185449D01*
X9923183Y-14185449D02*
X9904135Y-14194973D01*
X9904135Y-14194973D02*
X9856516Y-14194973D01*
X9856516Y-14194973D02*
X9837469Y-14185449D01*
X9837469Y-14185449D02*
X9827945Y-14175926D01*
X10066040Y-13994973D02*
X10085088Y-13994973D01*
X10085088Y-13994973D02*
X10104135Y-14004497D01*
X10104135Y-14004497D02*
X10113659Y-14014021D01*
X10113659Y-14014021D02*
X10123183Y-14033068D01*
X10123183Y-14033068D02*
X10132707Y-14071164D01*
X10132707Y-14071164D02*
X10132707Y-14118783D01*
X10132707Y-14118783D02*
X10123183Y-14156878D01*
X10123183Y-14156878D02*
X10113659Y-14175926D01*
X10113659Y-14175926D02*
X10104135Y-14185449D01*
X10104135Y-14185449D02*
X10085088Y-14194973D01*
X10085088Y-14194973D02*
X10066040Y-14194973D01*
X10066040Y-14194973D02*
X10046992Y-14185449D01*
X10046992Y-14185449D02*
X10037469Y-14175926D01*
X10037469Y-14175926D02*
X10027945Y-14156878D01*
X10027945Y-14156878D02*
X10018421Y-14118783D01*
X10018421Y-14118783D02*
X10018421Y-14071164D01*
X10018421Y-14071164D02*
X10027945Y-14033068D01*
X10027945Y-14033068D02*
X10037469Y-14014021D01*
X10037469Y-14014021D02*
X10046992Y-14004497D01*
X10046992Y-14004497D02*
X10066040Y-13994973D01*
X10218421Y-14194973D02*
X10218421Y-14061640D01*
X10218421Y-14080687D02*
X10227945Y-14071164D01*
X10227945Y-14071164D02*
X10246992Y-14061640D01*
X10246992Y-14061640D02*
X10275564Y-14061640D01*
X10275564Y-14061640D02*
X10294612Y-14071164D01*
X10294612Y-14071164D02*
X10304135Y-14090211D01*
X10304135Y-14090211D02*
X10304135Y-14194973D01*
X10304135Y-14090211D02*
X10313659Y-14071164D01*
X10313659Y-14071164D02*
X10332707Y-14061640D01*
X10332707Y-14061640D02*
X10361278Y-14061640D01*
X10361278Y-14061640D02*
X10380326Y-14071164D01*
X10380326Y-14071164D02*
X10389850Y-14090211D01*
X10389850Y-14090211D02*
X10389850Y-14194973D01*
X10485088Y-14194973D02*
X10485088Y-14061640D01*
X10485088Y-14080687D02*
X10494612Y-14071164D01*
X10494612Y-14071164D02*
X10513659Y-14061640D01*
X10513659Y-14061640D02*
X10542231Y-14061640D01*
X10542231Y-14061640D02*
X10561278Y-14071164D01*
X10561278Y-14071164D02*
X10570802Y-14090211D01*
X10570802Y-14090211D02*
X10570802Y-14194973D01*
X10570802Y-14090211D02*
X10580326Y-14071164D01*
X10580326Y-14071164D02*
X10599373Y-14061640D01*
X10599373Y-14061640D02*
X10627945Y-14061640D01*
X10627945Y-14061640D02*
X10646993Y-14071164D01*
X10646993Y-14071164D02*
X10656516Y-14090211D01*
X10656516Y-14090211D02*
X10656516Y-14194973D01*
X11046993Y-13985449D02*
X10875564Y-14242592D01*
X11304135Y-13994973D02*
X11323183Y-13994973D01*
X11323183Y-13994973D02*
X11342231Y-14004497D01*
X11342231Y-14004497D02*
X11351754Y-14014021D01*
X11351754Y-14014021D02*
X11361278Y-14033068D01*
X11361278Y-14033068D02*
X11370802Y-14071164D01*
X11370802Y-14071164D02*
X11370802Y-14118783D01*
X11370802Y-14118783D02*
X11361278Y-14156878D01*
X11361278Y-14156878D02*
X11351754Y-14175926D01*
X11351754Y-14175926D02*
X11342231Y-14185449D01*
X11342231Y-14185449D02*
X11323183Y-14194973D01*
X11323183Y-14194973D02*
X11304135Y-14194973D01*
X11304135Y-14194973D02*
X11285088Y-14185449D01*
X11285088Y-14185449D02*
X11275564Y-14175926D01*
X11275564Y-14175926D02*
X11266040Y-14156878D01*
X11266040Y-14156878D02*
X11256516Y-14118783D01*
X11256516Y-14118783D02*
X11256516Y-14071164D01*
X11256516Y-14071164D02*
X11266040Y-14033068D01*
X11266040Y-14033068D02*
X11275564Y-14014021D01*
X11275564Y-14014021D02*
X11285088Y-14004497D01*
X11285088Y-14004497D02*
X11304135Y-13994973D01*
X11456516Y-14175926D02*
X11466040Y-14185449D01*
X11466040Y-14185449D02*
X11456516Y-14194973D01*
X11456516Y-14194973D02*
X11446993Y-14185449D01*
X11446993Y-14185449D02*
X11456516Y-14175926D01*
X11456516Y-14175926D02*
X11456516Y-14194973D01*
X11589850Y-13994973D02*
X11608897Y-13994973D01*
X11608897Y-13994973D02*
X11627945Y-14004497D01*
X11627945Y-14004497D02*
X11637469Y-14014021D01*
X11637469Y-14014021D02*
X11646993Y-14033068D01*
X11646993Y-14033068D02*
X11656516Y-14071164D01*
X11656516Y-14071164D02*
X11656516Y-14118783D01*
X11656516Y-14118783D02*
X11646993Y-14156878D01*
X11646993Y-14156878D02*
X11637469Y-14175926D01*
X11637469Y-14175926D02*
X11627945Y-14185449D01*
X11627945Y-14185449D02*
X11608897Y-14194973D01*
X11608897Y-14194973D02*
X11589850Y-14194973D01*
X11589850Y-14194973D02*
X11570802Y-14185449D01*
X11570802Y-14185449D02*
X11561278Y-14175926D01*
X11561278Y-14175926D02*
X11551754Y-14156878D01*
X11551754Y-14156878D02*
X11542231Y-14118783D01*
X11542231Y-14118783D02*
X11542231Y-14071164D01*
X11542231Y-14071164D02*
X11551754Y-14033068D01*
X11551754Y-14033068D02*
X11561278Y-14014021D01*
X11561278Y-14014021D02*
X11570802Y-14004497D01*
X11570802Y-14004497D02*
X11589850Y-13994973D01*
X11732707Y-14014021D02*
X11742231Y-14004497D01*
X11742231Y-14004497D02*
X11761278Y-13994973D01*
X11761278Y-13994973D02*
X11808897Y-13994973D01*
X11808897Y-13994973D02*
X11827945Y-14004497D01*
X11827945Y-14004497D02*
X11837469Y-14014021D01*
X11837469Y-14014021D02*
X11846993Y-14033068D01*
X11846993Y-14033068D02*
X11846993Y-14052116D01*
X11846993Y-14052116D02*
X11837469Y-14080687D01*
X11837469Y-14080687D02*
X11723183Y-14194973D01*
X11723183Y-14194973D02*
X11846993Y-14194973D01*
X11942231Y-14194973D02*
X11980326Y-14194973D01*
X11980326Y-14194973D02*
X11999374Y-14185449D01*
X11999374Y-14185449D02*
X12008897Y-14175926D01*
X12008897Y-14175926D02*
X12027945Y-14147354D01*
X12027945Y-14147354D02*
X12037469Y-14109259D01*
X12037469Y-14109259D02*
X12037469Y-14033068D01*
X12037469Y-14033068D02*
X12027945Y-14014021D01*
X12027945Y-14014021D02*
X12018421Y-14004497D01*
X12018421Y-14004497D02*
X11999374Y-13994973D01*
X11999374Y-13994973D02*
X11961278Y-13994973D01*
X11961278Y-13994973D02*
X11942231Y-14004497D01*
X11942231Y-14004497D02*
X11932707Y-14014021D01*
X11932707Y-14014021D02*
X11923183Y-14033068D01*
X11923183Y-14033068D02*
X11923183Y-14080687D01*
X11923183Y-14080687D02*
X11932707Y-14099735D01*
X11932707Y-14099735D02*
X11942231Y-14109259D01*
X11942231Y-14109259D02*
X11961278Y-14118783D01*
X11961278Y-14118783D02*
X11999374Y-14118783D01*
X11999374Y-14118783D02*
X12018421Y-14109259D01*
X12018421Y-14109259D02*
X12027945Y-14099735D01*
X12027945Y-14099735D02*
X12037469Y-14080687D01*
X12218421Y-13994973D02*
X12123183Y-13994973D01*
X12123183Y-13994973D02*
X12113659Y-14090211D01*
X12113659Y-14090211D02*
X12123183Y-14080687D01*
X12123183Y-14080687D02*
X12142231Y-14071164D01*
X12142231Y-14071164D02*
X12189850Y-14071164D01*
X12189850Y-14071164D02*
X12208897Y-14080687D01*
X12208897Y-14080687D02*
X12218421Y-14090211D01*
X12218421Y-14090211D02*
X12227945Y-14109259D01*
X12227945Y-14109259D02*
X12227945Y-14156878D01*
X12227945Y-14156878D02*
X12218421Y-14175926D01*
X12218421Y-14175926D02*
X12208897Y-14185449D01*
X12208897Y-14185449D02*
X12189850Y-14194973D01*
X12189850Y-14194973D02*
X12142231Y-14194973D01*
X12142231Y-14194973D02*
X12123183Y-14185449D01*
X12123183Y-14185449D02*
X12113659Y-14175926D01*
X12304135Y-13994973D02*
X12304135Y-14033068D01*
X12380326Y-13994973D02*
X12380326Y-14033068D01*
X12675564Y-14271164D02*
X12666040Y-14261640D01*
X12666040Y-14261640D02*
X12646993Y-14233068D01*
X12646993Y-14233068D02*
X12637469Y-14214021D01*
X12637469Y-14214021D02*
X12627945Y-14185449D01*
X12627945Y-14185449D02*
X12618421Y-14137830D01*
X12618421Y-14137830D02*
X12618421Y-14099735D01*
X12618421Y-14099735D02*
X12627945Y-14052116D01*
X12627945Y-14052116D02*
X12637469Y-14023545D01*
X12637469Y-14023545D02*
X12646993Y-14004497D01*
X12646993Y-14004497D02*
X12666040Y-13975926D01*
X12666040Y-13975926D02*
X12675564Y-13966402D01*
X12742231Y-14014021D02*
X12751755Y-14004497D01*
X12751755Y-14004497D02*
X12770802Y-13994973D01*
X12770802Y-13994973D02*
X12818421Y-13994973D01*
X12818421Y-13994973D02*
X12837469Y-14004497D01*
X12837469Y-14004497D02*
X12846993Y-14014021D01*
X12846993Y-14014021D02*
X12856516Y-14033068D01*
X12856516Y-14033068D02*
X12856516Y-14052116D01*
X12856516Y-14052116D02*
X12846993Y-14080687D01*
X12846993Y-14080687D02*
X12732707Y-14194973D01*
X12732707Y-14194973D02*
X12856516Y-14194973D01*
X13094612Y-14194973D02*
X13094612Y-13994973D01*
X13180326Y-14194973D02*
X13180326Y-14090211D01*
X13180326Y-14090211D02*
X13170802Y-14071164D01*
X13170802Y-14071164D02*
X13151755Y-14061640D01*
X13151755Y-14061640D02*
X13123183Y-14061640D01*
X13123183Y-14061640D02*
X13104136Y-14071164D01*
X13104136Y-14071164D02*
X13094612Y-14080687D01*
X13304136Y-14194973D02*
X13285088Y-14185449D01*
X13285088Y-14185449D02*
X13275564Y-14175926D01*
X13275564Y-14175926D02*
X13266040Y-14156878D01*
X13266040Y-14156878D02*
X13266040Y-14099735D01*
X13266040Y-14099735D02*
X13275564Y-14080687D01*
X13275564Y-14080687D02*
X13285088Y-14071164D01*
X13285088Y-14071164D02*
X13304136Y-14061640D01*
X13304136Y-14061640D02*
X13332707Y-14061640D01*
X13332707Y-14061640D02*
X13351755Y-14071164D01*
X13351755Y-14071164D02*
X13361278Y-14080687D01*
X13361278Y-14080687D02*
X13370802Y-14099735D01*
X13370802Y-14099735D02*
X13370802Y-14156878D01*
X13370802Y-14156878D02*
X13361278Y-14175926D01*
X13361278Y-14175926D02*
X13351755Y-14185449D01*
X13351755Y-14185449D02*
X13332707Y-14194973D01*
X13332707Y-14194973D02*
X13304136Y-14194973D01*
X13485088Y-14194973D02*
X13466040Y-14185449D01*
X13466040Y-14185449D02*
X13456517Y-14166402D01*
X13456517Y-14166402D02*
X13456517Y-13994973D01*
X13637469Y-14185449D02*
X13618421Y-14194973D01*
X13618421Y-14194973D02*
X13580326Y-14194973D01*
X13580326Y-14194973D02*
X13561278Y-14185449D01*
X13561278Y-14185449D02*
X13551755Y-14166402D01*
X13551755Y-14166402D02*
X13551755Y-14090211D01*
X13551755Y-14090211D02*
X13561278Y-14071164D01*
X13561278Y-14071164D02*
X13580326Y-14061640D01*
X13580326Y-14061640D02*
X13618421Y-14061640D01*
X13618421Y-14061640D02*
X13637469Y-14071164D01*
X13637469Y-14071164D02*
X13646993Y-14090211D01*
X13646993Y-14090211D02*
X13646993Y-14109259D01*
X13646993Y-14109259D02*
X13551755Y-14128307D01*
X13723183Y-14185449D02*
X13742231Y-14194973D01*
X13742231Y-14194973D02*
X13780326Y-14194973D01*
X13780326Y-14194973D02*
X13799374Y-14185449D01*
X13799374Y-14185449D02*
X13808898Y-14166402D01*
X13808898Y-14166402D02*
X13808898Y-14156878D01*
X13808898Y-14156878D02*
X13799374Y-14137830D01*
X13799374Y-14137830D02*
X13780326Y-14128307D01*
X13780326Y-14128307D02*
X13751755Y-14128307D01*
X13751755Y-14128307D02*
X13732707Y-14118783D01*
X13732707Y-14118783D02*
X13723183Y-14099735D01*
X13723183Y-14099735D02*
X13723183Y-14090211D01*
X13723183Y-14090211D02*
X13732707Y-14071164D01*
X13732707Y-14071164D02*
X13751755Y-14061640D01*
X13751755Y-14061640D02*
X13780326Y-14061640D01*
X13780326Y-14061640D02*
X13799374Y-14071164D01*
X13875564Y-14271164D02*
X13885088Y-14261640D01*
X13885088Y-14261640D02*
X13904136Y-14233068D01*
X13904136Y-14233068D02*
X13913659Y-14214021D01*
X13913659Y-14214021D02*
X13923183Y-14185449D01*
X13923183Y-14185449D02*
X13932707Y-14137830D01*
X13932707Y-14137830D02*
X13932707Y-14099735D01*
X13932707Y-14099735D02*
X13923183Y-14052116D01*
X13923183Y-14052116D02*
X13913659Y-14023545D01*
X13913659Y-14023545D02*
X13904136Y-14004497D01*
X13904136Y-14004497D02*
X13885088Y-13975926D01*
X13885088Y-13975926D02*
X13875564Y-13966402D01*
X14237469Y-14271164D02*
X14227945Y-14261640D01*
X14227945Y-14261640D02*
X14208898Y-14233068D01*
X14208898Y-14233068D02*
X14199374Y-14214021D01*
X14199374Y-14214021D02*
X14189850Y-14185449D01*
X14189850Y-14185449D02*
X14180326Y-14137830D01*
X14180326Y-14137830D02*
X14180326Y-14099735D01*
X14180326Y-14099735D02*
X14189850Y-14052116D01*
X14189850Y-14052116D02*
X14199374Y-14023545D01*
X14199374Y-14023545D02*
X14208898Y-14004497D01*
X14208898Y-14004497D02*
X14227945Y-13975926D01*
X14227945Y-13975926D02*
X14237469Y-13966402D01*
X14313659Y-14061640D02*
X14313659Y-14194973D01*
X14313659Y-14080687D02*
X14323183Y-14071164D01*
X14323183Y-14071164D02*
X14342231Y-14061640D01*
X14342231Y-14061640D02*
X14370802Y-14061640D01*
X14370802Y-14061640D02*
X14389850Y-14071164D01*
X14389850Y-14071164D02*
X14399374Y-14090211D01*
X14399374Y-14090211D02*
X14399374Y-14194973D01*
X14523183Y-14194973D02*
X14504136Y-14185449D01*
X14504136Y-14185449D02*
X14494612Y-14175926D01*
X14494612Y-14175926D02*
X14485088Y-14156878D01*
X14485088Y-14156878D02*
X14485088Y-14099735D01*
X14485088Y-14099735D02*
X14494612Y-14080687D01*
X14494612Y-14080687D02*
X14504136Y-14071164D01*
X14504136Y-14071164D02*
X14523183Y-14061640D01*
X14523183Y-14061640D02*
X14551755Y-14061640D01*
X14551755Y-14061640D02*
X14570802Y-14071164D01*
X14570802Y-14071164D02*
X14580326Y-14080687D01*
X14580326Y-14080687D02*
X14589850Y-14099735D01*
X14589850Y-14099735D02*
X14589850Y-14156878D01*
X14589850Y-14156878D02*
X14580326Y-14175926D01*
X14580326Y-14175926D02*
X14570802Y-14185449D01*
X14570802Y-14185449D02*
X14551755Y-14194973D01*
X14551755Y-14194973D02*
X14523183Y-14194973D01*
X14646993Y-14061640D02*
X14723183Y-14061640D01*
X14675564Y-13994973D02*
X14675564Y-14166402D01*
X14675564Y-14166402D02*
X14685088Y-14185449D01*
X14685088Y-14185449D02*
X14704136Y-14194973D01*
X14704136Y-14194973D02*
X14723183Y-14194973D01*
X14942231Y-14061640D02*
X14942231Y-14261640D01*
X14942231Y-14071164D02*
X14961279Y-14061640D01*
X14961279Y-14061640D02*
X14999374Y-14061640D01*
X14999374Y-14061640D02*
X15018421Y-14071164D01*
X15018421Y-14071164D02*
X15027945Y-14080687D01*
X15027945Y-14080687D02*
X15037469Y-14099735D01*
X15037469Y-14099735D02*
X15037469Y-14156878D01*
X15037469Y-14156878D02*
X15027945Y-14175926D01*
X15027945Y-14175926D02*
X15018421Y-14185449D01*
X15018421Y-14185449D02*
X14999374Y-14194973D01*
X14999374Y-14194973D02*
X14961279Y-14194973D01*
X14961279Y-14194973D02*
X14942231Y-14185449D01*
X15151755Y-14194973D02*
X15132707Y-14185449D01*
X15132707Y-14185449D02*
X15123183Y-14166402D01*
X15123183Y-14166402D02*
X15123183Y-13994973D01*
X15313660Y-14194973D02*
X15313660Y-14090211D01*
X15313660Y-14090211D02*
X15304136Y-14071164D01*
X15304136Y-14071164D02*
X15285088Y-14061640D01*
X15285088Y-14061640D02*
X15246993Y-14061640D01*
X15246993Y-14061640D02*
X15227945Y-14071164D01*
X15313660Y-14185449D02*
X15294612Y-14194973D01*
X15294612Y-14194973D02*
X15246993Y-14194973D01*
X15246993Y-14194973D02*
X15227945Y-14185449D01*
X15227945Y-14185449D02*
X15218421Y-14166402D01*
X15218421Y-14166402D02*
X15218421Y-14147354D01*
X15218421Y-14147354D02*
X15227945Y-14128307D01*
X15227945Y-14128307D02*
X15246993Y-14118783D01*
X15246993Y-14118783D02*
X15294612Y-14118783D01*
X15294612Y-14118783D02*
X15313660Y-14109259D01*
X15380326Y-14061640D02*
X15456517Y-14061640D01*
X15408898Y-13994973D02*
X15408898Y-14166402D01*
X15408898Y-14166402D02*
X15418421Y-14185449D01*
X15418421Y-14185449D02*
X15437469Y-14194973D01*
X15437469Y-14194973D02*
X15456517Y-14194973D01*
X15599374Y-14185449D02*
X15580326Y-14194973D01*
X15580326Y-14194973D02*
X15542231Y-14194973D01*
X15542231Y-14194973D02*
X15523183Y-14185449D01*
X15523183Y-14185449D02*
X15513660Y-14166402D01*
X15513660Y-14166402D02*
X15513660Y-14090211D01*
X15513660Y-14090211D02*
X15523183Y-14071164D01*
X15523183Y-14071164D02*
X15542231Y-14061640D01*
X15542231Y-14061640D02*
X15580326Y-14061640D01*
X15580326Y-14061640D02*
X15599374Y-14071164D01*
X15599374Y-14071164D02*
X15608898Y-14090211D01*
X15608898Y-14090211D02*
X15608898Y-14109259D01*
X15608898Y-14109259D02*
X15513660Y-14128307D01*
X15780326Y-14194973D02*
X15780326Y-13994973D01*
X15780326Y-14185449D02*
X15761279Y-14194973D01*
X15761279Y-14194973D02*
X15723183Y-14194973D01*
X15723183Y-14194973D02*
X15704136Y-14185449D01*
X15704136Y-14185449D02*
X15694612Y-14175926D01*
X15694612Y-14175926D02*
X15685088Y-14156878D01*
X15685088Y-14156878D02*
X15685088Y-14099735D01*
X15685088Y-14099735D02*
X15694612Y-14080687D01*
X15694612Y-14080687D02*
X15704136Y-14071164D01*
X15704136Y-14071164D02*
X15723183Y-14061640D01*
X15723183Y-14061640D02*
X15761279Y-14061640D01*
X15761279Y-14061640D02*
X15780326Y-14071164D01*
X15856517Y-14271164D02*
X15866041Y-14261640D01*
X15866041Y-14261640D02*
X15885088Y-14233068D01*
X15885088Y-14233068D02*
X15894612Y-14214021D01*
X15894612Y-14214021D02*
X15904136Y-14185449D01*
X15904136Y-14185449D02*
X15913660Y-14137830D01*
X15913660Y-14137830D02*
X15913660Y-14099735D01*
X15913660Y-14099735D02*
X15904136Y-14052116D01*
X15904136Y-14052116D02*
X15894612Y-14023545D01*
X15894612Y-14023545D02*
X15885088Y-14004497D01*
X15885088Y-14004497D02*
X15866041Y-13975926D01*
X15866041Y-13975926D02*
X15856517Y-13966402D01*
D12*
X9100501Y-14367489D02*
G75*
G02*
X9010501Y-14367489I-45000J0D01*
G01*
X9010501Y-14367489D02*
G75*
G02*
X9100501Y-14367489I45000J0D01*
G01*
D11*
X9399373Y-14258973D02*
X9418421Y-14258973D01*
X9418421Y-14258973D02*
X9437469Y-14268497D01*
X9437469Y-14268497D02*
X9446992Y-14278021D01*
X9446992Y-14278021D02*
X9456516Y-14297068D01*
X9456516Y-14297068D02*
X9466040Y-14335164D01*
X9466040Y-14335164D02*
X9466040Y-14382783D01*
X9466040Y-14382783D02*
X9456516Y-14420878D01*
X9456516Y-14420878D02*
X9446992Y-14439926D01*
X9446992Y-14439926D02*
X9437469Y-14449449D01*
X9437469Y-14449449D02*
X9418421Y-14458973D01*
X9418421Y-14458973D02*
X9399373Y-14458973D01*
X9399373Y-14458973D02*
X9380326Y-14449449D01*
X9380326Y-14449449D02*
X9370802Y-14439926D01*
X9370802Y-14439926D02*
X9361278Y-14420878D01*
X9361278Y-14420878D02*
X9351754Y-14382783D01*
X9351754Y-14382783D02*
X9351754Y-14335164D01*
X9351754Y-14335164D02*
X9361278Y-14297068D01*
X9361278Y-14297068D02*
X9370802Y-14278021D01*
X9370802Y-14278021D02*
X9380326Y-14268497D01*
X9380326Y-14268497D02*
X9399373Y-14258973D01*
X9551754Y-14439926D02*
X9561278Y-14449449D01*
X9561278Y-14449449D02*
X9551754Y-14458973D01*
X9551754Y-14458973D02*
X9542231Y-14449449D01*
X9542231Y-14449449D02*
X9551754Y-14439926D01*
X9551754Y-14439926D02*
X9551754Y-14458973D01*
X9656516Y-14458973D02*
X9694611Y-14458973D01*
X9694611Y-14458973D02*
X9713659Y-14449449D01*
X9713659Y-14449449D02*
X9723183Y-14439926D01*
X9723183Y-14439926D02*
X9742231Y-14411354D01*
X9742231Y-14411354D02*
X9751754Y-14373259D01*
X9751754Y-14373259D02*
X9751754Y-14297068D01*
X9751754Y-14297068D02*
X9742231Y-14278021D01*
X9742231Y-14278021D02*
X9732707Y-14268497D01*
X9732707Y-14268497D02*
X9713659Y-14258973D01*
X9713659Y-14258973D02*
X9675564Y-14258973D01*
X9675564Y-14258973D02*
X9656516Y-14268497D01*
X9656516Y-14268497D02*
X9646992Y-14278021D01*
X9646992Y-14278021D02*
X9637469Y-14297068D01*
X9637469Y-14297068D02*
X9637469Y-14344687D01*
X9637469Y-14344687D02*
X9646992Y-14363735D01*
X9646992Y-14363735D02*
X9656516Y-14373259D01*
X9656516Y-14373259D02*
X9675564Y-14382783D01*
X9675564Y-14382783D02*
X9713659Y-14382783D01*
X9713659Y-14382783D02*
X9732707Y-14373259D01*
X9732707Y-14373259D02*
X9742231Y-14363735D01*
X9742231Y-14363735D02*
X9751754Y-14344687D01*
X9875564Y-14258973D02*
X9894612Y-14258973D01*
X9894612Y-14258973D02*
X9913659Y-14268497D01*
X9913659Y-14268497D02*
X9923183Y-14278021D01*
X9923183Y-14278021D02*
X9932707Y-14297068D01*
X9932707Y-14297068D02*
X9942231Y-14335164D01*
X9942231Y-14335164D02*
X9942231Y-14382783D01*
X9942231Y-14382783D02*
X9932707Y-14420878D01*
X9932707Y-14420878D02*
X9923183Y-14439926D01*
X9923183Y-14439926D02*
X9913659Y-14449449D01*
X9913659Y-14449449D02*
X9894612Y-14458973D01*
X9894612Y-14458973D02*
X9875564Y-14458973D01*
X9875564Y-14458973D02*
X9856516Y-14449449D01*
X9856516Y-14449449D02*
X9846992Y-14439926D01*
X9846992Y-14439926D02*
X9837469Y-14420878D01*
X9837469Y-14420878D02*
X9827945Y-14382783D01*
X9827945Y-14382783D02*
X9827945Y-14335164D01*
X9827945Y-14335164D02*
X9837469Y-14297068D01*
X9837469Y-14297068D02*
X9846992Y-14278021D01*
X9846992Y-14278021D02*
X9856516Y-14268497D01*
X9856516Y-14268497D02*
X9875564Y-14258973D01*
X10066040Y-14258973D02*
X10085088Y-14258973D01*
X10085088Y-14258973D02*
X10104135Y-14268497D01*
X10104135Y-14268497D02*
X10113659Y-14278021D01*
X10113659Y-14278021D02*
X10123183Y-14297068D01*
X10123183Y-14297068D02*
X10132707Y-14335164D01*
X10132707Y-14335164D02*
X10132707Y-14382783D01*
X10132707Y-14382783D02*
X10123183Y-14420878D01*
X10123183Y-14420878D02*
X10113659Y-14439926D01*
X10113659Y-14439926D02*
X10104135Y-14449449D01*
X10104135Y-14449449D02*
X10085088Y-14458973D01*
X10085088Y-14458973D02*
X10066040Y-14458973D01*
X10066040Y-14458973D02*
X10046992Y-14449449D01*
X10046992Y-14449449D02*
X10037469Y-14439926D01*
X10037469Y-14439926D02*
X10027945Y-14420878D01*
X10027945Y-14420878D02*
X10018421Y-14382783D01*
X10018421Y-14382783D02*
X10018421Y-14335164D01*
X10018421Y-14335164D02*
X10027945Y-14297068D01*
X10027945Y-14297068D02*
X10037469Y-14278021D01*
X10037469Y-14278021D02*
X10046992Y-14268497D01*
X10046992Y-14268497D02*
X10066040Y-14258973D01*
X10218421Y-14458973D02*
X10218421Y-14325640D01*
X10218421Y-14344687D02*
X10227945Y-14335164D01*
X10227945Y-14335164D02*
X10246992Y-14325640D01*
X10246992Y-14325640D02*
X10275564Y-14325640D01*
X10275564Y-14325640D02*
X10294612Y-14335164D01*
X10294612Y-14335164D02*
X10304135Y-14354211D01*
X10304135Y-14354211D02*
X10304135Y-14458973D01*
X10304135Y-14354211D02*
X10313659Y-14335164D01*
X10313659Y-14335164D02*
X10332707Y-14325640D01*
X10332707Y-14325640D02*
X10361278Y-14325640D01*
X10361278Y-14325640D02*
X10380326Y-14335164D01*
X10380326Y-14335164D02*
X10389850Y-14354211D01*
X10389850Y-14354211D02*
X10389850Y-14458973D01*
X10485088Y-14458973D02*
X10485088Y-14325640D01*
X10485088Y-14344687D02*
X10494612Y-14335164D01*
X10494612Y-14335164D02*
X10513659Y-14325640D01*
X10513659Y-14325640D02*
X10542231Y-14325640D01*
X10542231Y-14325640D02*
X10561278Y-14335164D01*
X10561278Y-14335164D02*
X10570802Y-14354211D01*
X10570802Y-14354211D02*
X10570802Y-14458973D01*
X10570802Y-14354211D02*
X10580326Y-14335164D01*
X10580326Y-14335164D02*
X10599373Y-14325640D01*
X10599373Y-14325640D02*
X10627945Y-14325640D01*
X10627945Y-14325640D02*
X10646993Y-14335164D01*
X10646993Y-14335164D02*
X10656516Y-14354211D01*
X10656516Y-14354211D02*
X10656516Y-14458973D01*
X11046993Y-14249449D02*
X10875564Y-14506592D01*
X11304135Y-14258973D02*
X11323183Y-14258973D01*
X11323183Y-14258973D02*
X11342231Y-14268497D01*
X11342231Y-14268497D02*
X11351754Y-14278021D01*
X11351754Y-14278021D02*
X11361278Y-14297068D01*
X11361278Y-14297068D02*
X11370802Y-14335164D01*
X11370802Y-14335164D02*
X11370802Y-14382783D01*
X11370802Y-14382783D02*
X11361278Y-14420878D01*
X11361278Y-14420878D02*
X11351754Y-14439926D01*
X11351754Y-14439926D02*
X11342231Y-14449449D01*
X11342231Y-14449449D02*
X11323183Y-14458973D01*
X11323183Y-14458973D02*
X11304135Y-14458973D01*
X11304135Y-14458973D02*
X11285088Y-14449449D01*
X11285088Y-14449449D02*
X11275564Y-14439926D01*
X11275564Y-14439926D02*
X11266040Y-14420878D01*
X11266040Y-14420878D02*
X11256516Y-14382783D01*
X11256516Y-14382783D02*
X11256516Y-14335164D01*
X11256516Y-14335164D02*
X11266040Y-14297068D01*
X11266040Y-14297068D02*
X11275564Y-14278021D01*
X11275564Y-14278021D02*
X11285088Y-14268497D01*
X11285088Y-14268497D02*
X11304135Y-14258973D01*
X11456516Y-14439926D02*
X11466040Y-14449449D01*
X11466040Y-14449449D02*
X11456516Y-14458973D01*
X11456516Y-14458973D02*
X11446993Y-14449449D01*
X11446993Y-14449449D02*
X11456516Y-14439926D01*
X11456516Y-14439926D02*
X11456516Y-14458973D01*
X11589850Y-14258973D02*
X11608897Y-14258973D01*
X11608897Y-14258973D02*
X11627945Y-14268497D01*
X11627945Y-14268497D02*
X11637469Y-14278021D01*
X11637469Y-14278021D02*
X11646993Y-14297068D01*
X11646993Y-14297068D02*
X11656516Y-14335164D01*
X11656516Y-14335164D02*
X11656516Y-14382783D01*
X11656516Y-14382783D02*
X11646993Y-14420878D01*
X11646993Y-14420878D02*
X11637469Y-14439926D01*
X11637469Y-14439926D02*
X11627945Y-14449449D01*
X11627945Y-14449449D02*
X11608897Y-14458973D01*
X11608897Y-14458973D02*
X11589850Y-14458973D01*
X11589850Y-14458973D02*
X11570802Y-14449449D01*
X11570802Y-14449449D02*
X11561278Y-14439926D01*
X11561278Y-14439926D02*
X11551754Y-14420878D01*
X11551754Y-14420878D02*
X11542231Y-14382783D01*
X11542231Y-14382783D02*
X11542231Y-14335164D01*
X11542231Y-14335164D02*
X11551754Y-14297068D01*
X11551754Y-14297068D02*
X11561278Y-14278021D01*
X11561278Y-14278021D02*
X11570802Y-14268497D01*
X11570802Y-14268497D02*
X11589850Y-14258973D01*
X11723183Y-14258973D02*
X11846993Y-14258973D01*
X11846993Y-14258973D02*
X11780326Y-14335164D01*
X11780326Y-14335164D02*
X11808897Y-14335164D01*
X11808897Y-14335164D02*
X11827945Y-14344687D01*
X11827945Y-14344687D02*
X11837469Y-14354211D01*
X11837469Y-14354211D02*
X11846993Y-14373259D01*
X11846993Y-14373259D02*
X11846993Y-14420878D01*
X11846993Y-14420878D02*
X11837469Y-14439926D01*
X11837469Y-14439926D02*
X11827945Y-14449449D01*
X11827945Y-14449449D02*
X11808897Y-14458973D01*
X11808897Y-14458973D02*
X11751754Y-14458973D01*
X11751754Y-14458973D02*
X11732707Y-14449449D01*
X11732707Y-14449449D02*
X11723183Y-14439926D01*
X12027945Y-14258973D02*
X11932707Y-14258973D01*
X11932707Y-14258973D02*
X11923183Y-14354211D01*
X11923183Y-14354211D02*
X11932707Y-14344687D01*
X11932707Y-14344687D02*
X11951754Y-14335164D01*
X11951754Y-14335164D02*
X11999374Y-14335164D01*
X11999374Y-14335164D02*
X12018421Y-14344687D01*
X12018421Y-14344687D02*
X12027945Y-14354211D01*
X12027945Y-14354211D02*
X12037469Y-14373259D01*
X12037469Y-14373259D02*
X12037469Y-14420878D01*
X12037469Y-14420878D02*
X12027945Y-14439926D01*
X12027945Y-14439926D02*
X12018421Y-14449449D01*
X12018421Y-14449449D02*
X11999374Y-14458973D01*
X11999374Y-14458973D02*
X11951754Y-14458973D01*
X11951754Y-14458973D02*
X11932707Y-14449449D01*
X11932707Y-14449449D02*
X11923183Y-14439926D01*
X12208897Y-14325640D02*
X12208897Y-14458973D01*
X12161278Y-14249449D02*
X12113659Y-14392307D01*
X12113659Y-14392307D02*
X12237469Y-14392307D01*
X12304135Y-14258973D02*
X12304135Y-14297068D01*
X12380326Y-14258973D02*
X12380326Y-14297068D01*
X12675564Y-14535164D02*
X12666040Y-14525640D01*
X12666040Y-14525640D02*
X12646993Y-14497068D01*
X12646993Y-14497068D02*
X12637469Y-14478021D01*
X12637469Y-14478021D02*
X12627945Y-14449449D01*
X12627945Y-14449449D02*
X12618421Y-14401830D01*
X12618421Y-14401830D02*
X12618421Y-14363735D01*
X12618421Y-14363735D02*
X12627945Y-14316116D01*
X12627945Y-14316116D02*
X12637469Y-14287545D01*
X12637469Y-14287545D02*
X12646993Y-14268497D01*
X12646993Y-14268497D02*
X12666040Y-14239926D01*
X12666040Y-14239926D02*
X12675564Y-14230402D01*
X12742231Y-14278021D02*
X12751755Y-14268497D01*
X12751755Y-14268497D02*
X12770802Y-14258973D01*
X12770802Y-14258973D02*
X12818421Y-14258973D01*
X12818421Y-14258973D02*
X12837469Y-14268497D01*
X12837469Y-14268497D02*
X12846993Y-14278021D01*
X12846993Y-14278021D02*
X12856516Y-14297068D01*
X12856516Y-14297068D02*
X12856516Y-14316116D01*
X12856516Y-14316116D02*
X12846993Y-14344687D01*
X12846993Y-14344687D02*
X12732707Y-14458973D01*
X12732707Y-14458973D02*
X12856516Y-14458973D01*
X13094612Y-14458973D02*
X13094612Y-14258973D01*
X13180326Y-14458973D02*
X13180326Y-14354211D01*
X13180326Y-14354211D02*
X13170802Y-14335164D01*
X13170802Y-14335164D02*
X13151755Y-14325640D01*
X13151755Y-14325640D02*
X13123183Y-14325640D01*
X13123183Y-14325640D02*
X13104136Y-14335164D01*
X13104136Y-14335164D02*
X13094612Y-14344687D01*
X13304136Y-14458973D02*
X13285088Y-14449449D01*
X13285088Y-14449449D02*
X13275564Y-14439926D01*
X13275564Y-14439926D02*
X13266040Y-14420878D01*
X13266040Y-14420878D02*
X13266040Y-14363735D01*
X13266040Y-14363735D02*
X13275564Y-14344687D01*
X13275564Y-14344687D02*
X13285088Y-14335164D01*
X13285088Y-14335164D02*
X13304136Y-14325640D01*
X13304136Y-14325640D02*
X13332707Y-14325640D01*
X13332707Y-14325640D02*
X13351755Y-14335164D01*
X13351755Y-14335164D02*
X13361278Y-14344687D01*
X13361278Y-14344687D02*
X13370802Y-14363735D01*
X13370802Y-14363735D02*
X13370802Y-14420878D01*
X13370802Y-14420878D02*
X13361278Y-14439926D01*
X13361278Y-14439926D02*
X13351755Y-14449449D01*
X13351755Y-14449449D02*
X13332707Y-14458973D01*
X13332707Y-14458973D02*
X13304136Y-14458973D01*
X13485088Y-14458973D02*
X13466040Y-14449449D01*
X13466040Y-14449449D02*
X13456517Y-14430402D01*
X13456517Y-14430402D02*
X13456517Y-14258973D01*
X13637469Y-14449449D02*
X13618421Y-14458973D01*
X13618421Y-14458973D02*
X13580326Y-14458973D01*
X13580326Y-14458973D02*
X13561278Y-14449449D01*
X13561278Y-14449449D02*
X13551755Y-14430402D01*
X13551755Y-14430402D02*
X13551755Y-14354211D01*
X13551755Y-14354211D02*
X13561278Y-14335164D01*
X13561278Y-14335164D02*
X13580326Y-14325640D01*
X13580326Y-14325640D02*
X13618421Y-14325640D01*
X13618421Y-14325640D02*
X13637469Y-14335164D01*
X13637469Y-14335164D02*
X13646993Y-14354211D01*
X13646993Y-14354211D02*
X13646993Y-14373259D01*
X13646993Y-14373259D02*
X13551755Y-14392307D01*
X13723183Y-14449449D02*
X13742231Y-14458973D01*
X13742231Y-14458973D02*
X13780326Y-14458973D01*
X13780326Y-14458973D02*
X13799374Y-14449449D01*
X13799374Y-14449449D02*
X13808898Y-14430402D01*
X13808898Y-14430402D02*
X13808898Y-14420878D01*
X13808898Y-14420878D02*
X13799374Y-14401830D01*
X13799374Y-14401830D02*
X13780326Y-14392307D01*
X13780326Y-14392307D02*
X13751755Y-14392307D01*
X13751755Y-14392307D02*
X13732707Y-14382783D01*
X13732707Y-14382783D02*
X13723183Y-14363735D01*
X13723183Y-14363735D02*
X13723183Y-14354211D01*
X13723183Y-14354211D02*
X13732707Y-14335164D01*
X13732707Y-14335164D02*
X13751755Y-14325640D01*
X13751755Y-14325640D02*
X13780326Y-14325640D01*
X13780326Y-14325640D02*
X13799374Y-14335164D01*
X13875564Y-14535164D02*
X13885088Y-14525640D01*
X13885088Y-14525640D02*
X13904136Y-14497068D01*
X13904136Y-14497068D02*
X13913659Y-14478021D01*
X13913659Y-14478021D02*
X13923183Y-14449449D01*
X13923183Y-14449449D02*
X13932707Y-14401830D01*
X13932707Y-14401830D02*
X13932707Y-14363735D01*
X13932707Y-14363735D02*
X13923183Y-14316116D01*
X13923183Y-14316116D02*
X13913659Y-14287545D01*
X13913659Y-14287545D02*
X13904136Y-14268497D01*
X13904136Y-14268497D02*
X13885088Y-14239926D01*
X13885088Y-14239926D02*
X13875564Y-14230402D01*
X14237469Y-14535164D02*
X14227945Y-14525640D01*
X14227945Y-14525640D02*
X14208898Y-14497068D01*
X14208898Y-14497068D02*
X14199374Y-14478021D01*
X14199374Y-14478021D02*
X14189850Y-14449449D01*
X14189850Y-14449449D02*
X14180326Y-14401830D01*
X14180326Y-14401830D02*
X14180326Y-14363735D01*
X14180326Y-14363735D02*
X14189850Y-14316116D01*
X14189850Y-14316116D02*
X14199374Y-14287545D01*
X14199374Y-14287545D02*
X14208898Y-14268497D01*
X14208898Y-14268497D02*
X14227945Y-14239926D01*
X14227945Y-14239926D02*
X14237469Y-14230402D01*
X14313659Y-14325640D02*
X14313659Y-14458973D01*
X14313659Y-14344687D02*
X14323183Y-14335164D01*
X14323183Y-14335164D02*
X14342231Y-14325640D01*
X14342231Y-14325640D02*
X14370802Y-14325640D01*
X14370802Y-14325640D02*
X14389850Y-14335164D01*
X14389850Y-14335164D02*
X14399374Y-14354211D01*
X14399374Y-14354211D02*
X14399374Y-14458973D01*
X14523183Y-14458973D02*
X14504136Y-14449449D01*
X14504136Y-14449449D02*
X14494612Y-14439926D01*
X14494612Y-14439926D02*
X14485088Y-14420878D01*
X14485088Y-14420878D02*
X14485088Y-14363735D01*
X14485088Y-14363735D02*
X14494612Y-14344687D01*
X14494612Y-14344687D02*
X14504136Y-14335164D01*
X14504136Y-14335164D02*
X14523183Y-14325640D01*
X14523183Y-14325640D02*
X14551755Y-14325640D01*
X14551755Y-14325640D02*
X14570802Y-14335164D01*
X14570802Y-14335164D02*
X14580326Y-14344687D01*
X14580326Y-14344687D02*
X14589850Y-14363735D01*
X14589850Y-14363735D02*
X14589850Y-14420878D01*
X14589850Y-14420878D02*
X14580326Y-14439926D01*
X14580326Y-14439926D02*
X14570802Y-14449449D01*
X14570802Y-14449449D02*
X14551755Y-14458973D01*
X14551755Y-14458973D02*
X14523183Y-14458973D01*
X14646993Y-14325640D02*
X14723183Y-14325640D01*
X14675564Y-14258973D02*
X14675564Y-14430402D01*
X14675564Y-14430402D02*
X14685088Y-14449449D01*
X14685088Y-14449449D02*
X14704136Y-14458973D01*
X14704136Y-14458973D02*
X14723183Y-14458973D01*
X14942231Y-14325640D02*
X14942231Y-14525640D01*
X14942231Y-14335164D02*
X14961279Y-14325640D01*
X14961279Y-14325640D02*
X14999374Y-14325640D01*
X14999374Y-14325640D02*
X15018421Y-14335164D01*
X15018421Y-14335164D02*
X15027945Y-14344687D01*
X15027945Y-14344687D02*
X15037469Y-14363735D01*
X15037469Y-14363735D02*
X15037469Y-14420878D01*
X15037469Y-14420878D02*
X15027945Y-14439926D01*
X15027945Y-14439926D02*
X15018421Y-14449449D01*
X15018421Y-14449449D02*
X14999374Y-14458973D01*
X14999374Y-14458973D02*
X14961279Y-14458973D01*
X14961279Y-14458973D02*
X14942231Y-14449449D01*
X15151755Y-14458973D02*
X15132707Y-14449449D01*
X15132707Y-14449449D02*
X15123183Y-14430402D01*
X15123183Y-14430402D02*
X15123183Y-14258973D01*
X15313660Y-14458973D02*
X15313660Y-14354211D01*
X15313660Y-14354211D02*
X15304136Y-14335164D01*
X15304136Y-14335164D02*
X15285088Y-14325640D01*
X15285088Y-14325640D02*
X15246993Y-14325640D01*
X15246993Y-14325640D02*
X15227945Y-14335164D01*
X15313660Y-14449449D02*
X15294612Y-14458973D01*
X15294612Y-14458973D02*
X15246993Y-14458973D01*
X15246993Y-14458973D02*
X15227945Y-14449449D01*
X15227945Y-14449449D02*
X15218421Y-14430402D01*
X15218421Y-14430402D02*
X15218421Y-14411354D01*
X15218421Y-14411354D02*
X15227945Y-14392307D01*
X15227945Y-14392307D02*
X15246993Y-14382783D01*
X15246993Y-14382783D02*
X15294612Y-14382783D01*
X15294612Y-14382783D02*
X15313660Y-14373259D01*
X15380326Y-14325640D02*
X15456517Y-14325640D01*
X15408898Y-14258973D02*
X15408898Y-14430402D01*
X15408898Y-14430402D02*
X15418421Y-14449449D01*
X15418421Y-14449449D02*
X15437469Y-14458973D01*
X15437469Y-14458973D02*
X15456517Y-14458973D01*
X15599374Y-14449449D02*
X15580326Y-14458973D01*
X15580326Y-14458973D02*
X15542231Y-14458973D01*
X15542231Y-14458973D02*
X15523183Y-14449449D01*
X15523183Y-14449449D02*
X15513660Y-14430402D01*
X15513660Y-14430402D02*
X15513660Y-14354211D01*
X15513660Y-14354211D02*
X15523183Y-14335164D01*
X15523183Y-14335164D02*
X15542231Y-14325640D01*
X15542231Y-14325640D02*
X15580326Y-14325640D01*
X15580326Y-14325640D02*
X15599374Y-14335164D01*
X15599374Y-14335164D02*
X15608898Y-14354211D01*
X15608898Y-14354211D02*
X15608898Y-14373259D01*
X15608898Y-14373259D02*
X15513660Y-14392307D01*
X15780326Y-14458973D02*
X15780326Y-14258973D01*
X15780326Y-14449449D02*
X15761279Y-14458973D01*
X15761279Y-14458973D02*
X15723183Y-14458973D01*
X15723183Y-14458973D02*
X15704136Y-14449449D01*
X15704136Y-14449449D02*
X15694612Y-14439926D01*
X15694612Y-14439926D02*
X15685088Y-14420878D01*
X15685088Y-14420878D02*
X15685088Y-14363735D01*
X15685088Y-14363735D02*
X15694612Y-14344687D01*
X15694612Y-14344687D02*
X15704136Y-14335164D01*
X15704136Y-14335164D02*
X15723183Y-14325640D01*
X15723183Y-14325640D02*
X15761279Y-14325640D01*
X15761279Y-14325640D02*
X15780326Y-14335164D01*
X15856517Y-14535164D02*
X15866041Y-14525640D01*
X15866041Y-14525640D02*
X15885088Y-14497068D01*
X15885088Y-14497068D02*
X15894612Y-14478021D01*
X15894612Y-14478021D02*
X15904136Y-14449449D01*
X15904136Y-14449449D02*
X15913660Y-14401830D01*
X15913660Y-14401830D02*
X15913660Y-14363735D01*
X15913660Y-14363735D02*
X15904136Y-14316116D01*
X15904136Y-14316116D02*
X15894612Y-14287545D01*
X15894612Y-14287545D02*
X15885088Y-14268497D01*
X15885088Y-14268497D02*
X15866041Y-14239926D01*
X15866041Y-14239926D02*
X15856517Y-14230402D01*
D13*
X9005501Y-14536489D02*
X9005501Y-14726489D01*
X8910501Y-14631489D02*
X9100501Y-14631489D01*
D11*
X9466040Y-14722973D02*
X9351754Y-14722973D01*
X9408897Y-14722973D02*
X9408897Y-14522973D01*
X9408897Y-14522973D02*
X9389850Y-14551545D01*
X9389850Y-14551545D02*
X9370802Y-14570592D01*
X9370802Y-14570592D02*
X9351754Y-14580116D01*
X9551754Y-14703926D02*
X9561278Y-14713449D01*
X9561278Y-14713449D02*
X9551754Y-14722973D01*
X9551754Y-14722973D02*
X9542231Y-14713449D01*
X9542231Y-14713449D02*
X9551754Y-14703926D01*
X9551754Y-14703926D02*
X9551754Y-14722973D01*
X9656516Y-14722973D02*
X9694611Y-14722973D01*
X9694611Y-14722973D02*
X9713659Y-14713449D01*
X9713659Y-14713449D02*
X9723183Y-14703926D01*
X9723183Y-14703926D02*
X9742231Y-14675354D01*
X9742231Y-14675354D02*
X9751754Y-14637259D01*
X9751754Y-14637259D02*
X9751754Y-14561068D01*
X9751754Y-14561068D02*
X9742231Y-14542021D01*
X9742231Y-14542021D02*
X9732707Y-14532497D01*
X9732707Y-14532497D02*
X9713659Y-14522973D01*
X9713659Y-14522973D02*
X9675564Y-14522973D01*
X9675564Y-14522973D02*
X9656516Y-14532497D01*
X9656516Y-14532497D02*
X9646992Y-14542021D01*
X9646992Y-14542021D02*
X9637469Y-14561068D01*
X9637469Y-14561068D02*
X9637469Y-14608687D01*
X9637469Y-14608687D02*
X9646992Y-14627735D01*
X9646992Y-14627735D02*
X9656516Y-14637259D01*
X9656516Y-14637259D02*
X9675564Y-14646783D01*
X9675564Y-14646783D02*
X9713659Y-14646783D01*
X9713659Y-14646783D02*
X9732707Y-14637259D01*
X9732707Y-14637259D02*
X9742231Y-14627735D01*
X9742231Y-14627735D02*
X9751754Y-14608687D01*
X9875564Y-14522973D02*
X9894612Y-14522973D01*
X9894612Y-14522973D02*
X9913659Y-14532497D01*
X9913659Y-14532497D02*
X9923183Y-14542021D01*
X9923183Y-14542021D02*
X9932707Y-14561068D01*
X9932707Y-14561068D02*
X9942231Y-14599164D01*
X9942231Y-14599164D02*
X9942231Y-14646783D01*
X9942231Y-14646783D02*
X9932707Y-14684878D01*
X9932707Y-14684878D02*
X9923183Y-14703926D01*
X9923183Y-14703926D02*
X9913659Y-14713449D01*
X9913659Y-14713449D02*
X9894612Y-14722973D01*
X9894612Y-14722973D02*
X9875564Y-14722973D01*
X9875564Y-14722973D02*
X9856516Y-14713449D01*
X9856516Y-14713449D02*
X9846992Y-14703926D01*
X9846992Y-14703926D02*
X9837469Y-14684878D01*
X9837469Y-14684878D02*
X9827945Y-14646783D01*
X9827945Y-14646783D02*
X9827945Y-14599164D01*
X9827945Y-14599164D02*
X9837469Y-14561068D01*
X9837469Y-14561068D02*
X9846992Y-14542021D01*
X9846992Y-14542021D02*
X9856516Y-14532497D01*
X9856516Y-14532497D02*
X9875564Y-14522973D01*
X10066040Y-14522973D02*
X10085088Y-14522973D01*
X10085088Y-14522973D02*
X10104135Y-14532497D01*
X10104135Y-14532497D02*
X10113659Y-14542021D01*
X10113659Y-14542021D02*
X10123183Y-14561068D01*
X10123183Y-14561068D02*
X10132707Y-14599164D01*
X10132707Y-14599164D02*
X10132707Y-14646783D01*
X10132707Y-14646783D02*
X10123183Y-14684878D01*
X10123183Y-14684878D02*
X10113659Y-14703926D01*
X10113659Y-14703926D02*
X10104135Y-14713449D01*
X10104135Y-14713449D02*
X10085088Y-14722973D01*
X10085088Y-14722973D02*
X10066040Y-14722973D01*
X10066040Y-14722973D02*
X10046992Y-14713449D01*
X10046992Y-14713449D02*
X10037469Y-14703926D01*
X10037469Y-14703926D02*
X10027945Y-14684878D01*
X10027945Y-14684878D02*
X10018421Y-14646783D01*
X10018421Y-14646783D02*
X10018421Y-14599164D01*
X10018421Y-14599164D02*
X10027945Y-14561068D01*
X10027945Y-14561068D02*
X10037469Y-14542021D01*
X10037469Y-14542021D02*
X10046992Y-14532497D01*
X10046992Y-14532497D02*
X10066040Y-14522973D01*
X10218421Y-14722973D02*
X10218421Y-14589640D01*
X10218421Y-14608687D02*
X10227945Y-14599164D01*
X10227945Y-14599164D02*
X10246992Y-14589640D01*
X10246992Y-14589640D02*
X10275564Y-14589640D01*
X10275564Y-14589640D02*
X10294612Y-14599164D01*
X10294612Y-14599164D02*
X10304135Y-14618211D01*
X10304135Y-14618211D02*
X10304135Y-14722973D01*
X10304135Y-14618211D02*
X10313659Y-14599164D01*
X10313659Y-14599164D02*
X10332707Y-14589640D01*
X10332707Y-14589640D02*
X10361278Y-14589640D01*
X10361278Y-14589640D02*
X10380326Y-14599164D01*
X10380326Y-14599164D02*
X10389850Y-14618211D01*
X10389850Y-14618211D02*
X10389850Y-14722973D01*
X10485088Y-14722973D02*
X10485088Y-14589640D01*
X10485088Y-14608687D02*
X10494612Y-14599164D01*
X10494612Y-14599164D02*
X10513659Y-14589640D01*
X10513659Y-14589640D02*
X10542231Y-14589640D01*
X10542231Y-14589640D02*
X10561278Y-14599164D01*
X10561278Y-14599164D02*
X10570802Y-14618211D01*
X10570802Y-14618211D02*
X10570802Y-14722973D01*
X10570802Y-14618211D02*
X10580326Y-14599164D01*
X10580326Y-14599164D02*
X10599373Y-14589640D01*
X10599373Y-14589640D02*
X10627945Y-14589640D01*
X10627945Y-14589640D02*
X10646993Y-14599164D01*
X10646993Y-14599164D02*
X10656516Y-14618211D01*
X10656516Y-14618211D02*
X10656516Y-14722973D01*
X11046993Y-14513449D02*
X10875564Y-14770592D01*
X11304135Y-14522973D02*
X11323183Y-14522973D01*
X11323183Y-14522973D02*
X11342231Y-14532497D01*
X11342231Y-14532497D02*
X11351754Y-14542021D01*
X11351754Y-14542021D02*
X11361278Y-14561068D01*
X11361278Y-14561068D02*
X11370802Y-14599164D01*
X11370802Y-14599164D02*
X11370802Y-14646783D01*
X11370802Y-14646783D02*
X11361278Y-14684878D01*
X11361278Y-14684878D02*
X11351754Y-14703926D01*
X11351754Y-14703926D02*
X11342231Y-14713449D01*
X11342231Y-14713449D02*
X11323183Y-14722973D01*
X11323183Y-14722973D02*
X11304135Y-14722973D01*
X11304135Y-14722973D02*
X11285088Y-14713449D01*
X11285088Y-14713449D02*
X11275564Y-14703926D01*
X11275564Y-14703926D02*
X11266040Y-14684878D01*
X11266040Y-14684878D02*
X11256516Y-14646783D01*
X11256516Y-14646783D02*
X11256516Y-14599164D01*
X11256516Y-14599164D02*
X11266040Y-14561068D01*
X11266040Y-14561068D02*
X11275564Y-14542021D01*
X11275564Y-14542021D02*
X11285088Y-14532497D01*
X11285088Y-14532497D02*
X11304135Y-14522973D01*
X11456516Y-14703926D02*
X11466040Y-14713449D01*
X11466040Y-14713449D02*
X11456516Y-14722973D01*
X11456516Y-14722973D02*
X11446993Y-14713449D01*
X11446993Y-14713449D02*
X11456516Y-14703926D01*
X11456516Y-14703926D02*
X11456516Y-14722973D01*
X11589850Y-14522973D02*
X11608897Y-14522973D01*
X11608897Y-14522973D02*
X11627945Y-14532497D01*
X11627945Y-14532497D02*
X11637469Y-14542021D01*
X11637469Y-14542021D02*
X11646993Y-14561068D01*
X11646993Y-14561068D02*
X11656516Y-14599164D01*
X11656516Y-14599164D02*
X11656516Y-14646783D01*
X11656516Y-14646783D02*
X11646993Y-14684878D01*
X11646993Y-14684878D02*
X11637469Y-14703926D01*
X11637469Y-14703926D02*
X11627945Y-14713449D01*
X11627945Y-14713449D02*
X11608897Y-14722973D01*
X11608897Y-14722973D02*
X11589850Y-14722973D01*
X11589850Y-14722973D02*
X11570802Y-14713449D01*
X11570802Y-14713449D02*
X11561278Y-14703926D01*
X11561278Y-14703926D02*
X11551754Y-14684878D01*
X11551754Y-14684878D02*
X11542231Y-14646783D01*
X11542231Y-14646783D02*
X11542231Y-14599164D01*
X11542231Y-14599164D02*
X11551754Y-14561068D01*
X11551754Y-14561068D02*
X11561278Y-14542021D01*
X11561278Y-14542021D02*
X11570802Y-14532497D01*
X11570802Y-14532497D02*
X11589850Y-14522973D01*
X11723183Y-14522973D02*
X11856516Y-14522973D01*
X11856516Y-14522973D02*
X11770802Y-14722973D01*
X12018421Y-14589640D02*
X12018421Y-14722973D01*
X11970802Y-14513449D02*
X11923183Y-14656307D01*
X11923183Y-14656307D02*
X12046993Y-14656307D01*
X12151754Y-14608687D02*
X12132707Y-14599164D01*
X12132707Y-14599164D02*
X12123183Y-14589640D01*
X12123183Y-14589640D02*
X12113659Y-14570592D01*
X12113659Y-14570592D02*
X12113659Y-14561068D01*
X12113659Y-14561068D02*
X12123183Y-14542021D01*
X12123183Y-14542021D02*
X12132707Y-14532497D01*
X12132707Y-14532497D02*
X12151754Y-14522973D01*
X12151754Y-14522973D02*
X12189850Y-14522973D01*
X12189850Y-14522973D02*
X12208897Y-14532497D01*
X12208897Y-14532497D02*
X12218421Y-14542021D01*
X12218421Y-14542021D02*
X12227945Y-14561068D01*
X12227945Y-14561068D02*
X12227945Y-14570592D01*
X12227945Y-14570592D02*
X12218421Y-14589640D01*
X12218421Y-14589640D02*
X12208897Y-14599164D01*
X12208897Y-14599164D02*
X12189850Y-14608687D01*
X12189850Y-14608687D02*
X12151754Y-14608687D01*
X12151754Y-14608687D02*
X12132707Y-14618211D01*
X12132707Y-14618211D02*
X12123183Y-14627735D01*
X12123183Y-14627735D02*
X12113659Y-14646783D01*
X12113659Y-14646783D02*
X12113659Y-14684878D01*
X12113659Y-14684878D02*
X12123183Y-14703926D01*
X12123183Y-14703926D02*
X12132707Y-14713449D01*
X12132707Y-14713449D02*
X12151754Y-14722973D01*
X12151754Y-14722973D02*
X12189850Y-14722973D01*
X12189850Y-14722973D02*
X12208897Y-14713449D01*
X12208897Y-14713449D02*
X12218421Y-14703926D01*
X12218421Y-14703926D02*
X12227945Y-14684878D01*
X12227945Y-14684878D02*
X12227945Y-14646783D01*
X12227945Y-14646783D02*
X12218421Y-14627735D01*
X12218421Y-14627735D02*
X12208897Y-14618211D01*
X12208897Y-14618211D02*
X12189850Y-14608687D01*
X12304135Y-14522973D02*
X12304135Y-14561068D01*
X12380326Y-14522973D02*
X12380326Y-14561068D01*
X12675564Y-14799164D02*
X12666040Y-14789640D01*
X12666040Y-14789640D02*
X12646993Y-14761068D01*
X12646993Y-14761068D02*
X12637469Y-14742021D01*
X12637469Y-14742021D02*
X12627945Y-14713449D01*
X12627945Y-14713449D02*
X12618421Y-14665830D01*
X12618421Y-14665830D02*
X12618421Y-14627735D01*
X12618421Y-14627735D02*
X12627945Y-14580116D01*
X12627945Y-14580116D02*
X12637469Y-14551545D01*
X12637469Y-14551545D02*
X12646993Y-14532497D01*
X12646993Y-14532497D02*
X12666040Y-14503926D01*
X12666040Y-14503926D02*
X12675564Y-14494402D01*
X12856516Y-14722973D02*
X12742231Y-14722973D01*
X12799374Y-14722973D02*
X12799374Y-14522973D01*
X12799374Y-14522973D02*
X12780326Y-14551545D01*
X12780326Y-14551545D02*
X12761278Y-14570592D01*
X12761278Y-14570592D02*
X12742231Y-14580116D01*
X12980326Y-14522973D02*
X12999374Y-14522973D01*
X12999374Y-14522973D02*
X13018421Y-14532497D01*
X13018421Y-14532497D02*
X13027945Y-14542021D01*
X13027945Y-14542021D02*
X13037469Y-14561068D01*
X13037469Y-14561068D02*
X13046993Y-14599164D01*
X13046993Y-14599164D02*
X13046993Y-14646783D01*
X13046993Y-14646783D02*
X13037469Y-14684878D01*
X13037469Y-14684878D02*
X13027945Y-14703926D01*
X13027945Y-14703926D02*
X13018421Y-14713449D01*
X13018421Y-14713449D02*
X12999374Y-14722973D01*
X12999374Y-14722973D02*
X12980326Y-14722973D01*
X12980326Y-14722973D02*
X12961278Y-14713449D01*
X12961278Y-14713449D02*
X12951755Y-14703926D01*
X12951755Y-14703926D02*
X12942231Y-14684878D01*
X12942231Y-14684878D02*
X12932707Y-14646783D01*
X12932707Y-14646783D02*
X12932707Y-14599164D01*
X12932707Y-14599164D02*
X12942231Y-14561068D01*
X12942231Y-14561068D02*
X12951755Y-14542021D01*
X12951755Y-14542021D02*
X12961278Y-14532497D01*
X12961278Y-14532497D02*
X12980326Y-14522973D01*
X13170802Y-14522973D02*
X13189850Y-14522973D01*
X13189850Y-14522973D02*
X13208897Y-14532497D01*
X13208897Y-14532497D02*
X13218421Y-14542021D01*
X13218421Y-14542021D02*
X13227945Y-14561068D01*
X13227945Y-14561068D02*
X13237469Y-14599164D01*
X13237469Y-14599164D02*
X13237469Y-14646783D01*
X13237469Y-14646783D02*
X13227945Y-14684878D01*
X13227945Y-14684878D02*
X13218421Y-14703926D01*
X13218421Y-14703926D02*
X13208897Y-14713449D01*
X13208897Y-14713449D02*
X13189850Y-14722973D01*
X13189850Y-14722973D02*
X13170802Y-14722973D01*
X13170802Y-14722973D02*
X13151755Y-14713449D01*
X13151755Y-14713449D02*
X13142231Y-14703926D01*
X13142231Y-14703926D02*
X13132707Y-14684878D01*
X13132707Y-14684878D02*
X13123183Y-14646783D01*
X13123183Y-14646783D02*
X13123183Y-14599164D01*
X13123183Y-14599164D02*
X13132707Y-14561068D01*
X13132707Y-14561068D02*
X13142231Y-14542021D01*
X13142231Y-14542021D02*
X13151755Y-14532497D01*
X13151755Y-14532497D02*
X13170802Y-14522973D01*
X13475564Y-14722973D02*
X13475564Y-14522973D01*
X13561278Y-14722973D02*
X13561278Y-14618211D01*
X13561278Y-14618211D02*
X13551755Y-14599164D01*
X13551755Y-14599164D02*
X13532707Y-14589640D01*
X13532707Y-14589640D02*
X13504136Y-14589640D01*
X13504136Y-14589640D02*
X13485088Y-14599164D01*
X13485088Y-14599164D02*
X13475564Y-14608687D01*
X13685088Y-14722973D02*
X13666040Y-14713449D01*
X13666040Y-14713449D02*
X13656517Y-14703926D01*
X13656517Y-14703926D02*
X13646993Y-14684878D01*
X13646993Y-14684878D02*
X13646993Y-14627735D01*
X13646993Y-14627735D02*
X13656517Y-14608687D01*
X13656517Y-14608687D02*
X13666040Y-14599164D01*
X13666040Y-14599164D02*
X13685088Y-14589640D01*
X13685088Y-14589640D02*
X13713659Y-14589640D01*
X13713659Y-14589640D02*
X13732707Y-14599164D01*
X13732707Y-14599164D02*
X13742231Y-14608687D01*
X13742231Y-14608687D02*
X13751755Y-14627735D01*
X13751755Y-14627735D02*
X13751755Y-14684878D01*
X13751755Y-14684878D02*
X13742231Y-14703926D01*
X13742231Y-14703926D02*
X13732707Y-14713449D01*
X13732707Y-14713449D02*
X13713659Y-14722973D01*
X13713659Y-14722973D02*
X13685088Y-14722973D01*
X13866040Y-14722973D02*
X13846993Y-14713449D01*
X13846993Y-14713449D02*
X13837469Y-14694402D01*
X13837469Y-14694402D02*
X13837469Y-14522973D01*
X14018421Y-14713449D02*
X13999374Y-14722973D01*
X13999374Y-14722973D02*
X13961278Y-14722973D01*
X13961278Y-14722973D02*
X13942231Y-14713449D01*
X13942231Y-14713449D02*
X13932707Y-14694402D01*
X13932707Y-14694402D02*
X13932707Y-14618211D01*
X13932707Y-14618211D02*
X13942231Y-14599164D01*
X13942231Y-14599164D02*
X13961278Y-14589640D01*
X13961278Y-14589640D02*
X13999374Y-14589640D01*
X13999374Y-14589640D02*
X14018421Y-14599164D01*
X14018421Y-14599164D02*
X14027945Y-14618211D01*
X14027945Y-14618211D02*
X14027945Y-14637259D01*
X14027945Y-14637259D02*
X13932707Y-14656307D01*
X14104136Y-14713449D02*
X14123183Y-14722973D01*
X14123183Y-14722973D02*
X14161278Y-14722973D01*
X14161278Y-14722973D02*
X14180326Y-14713449D01*
X14180326Y-14713449D02*
X14189850Y-14694402D01*
X14189850Y-14694402D02*
X14189850Y-14684878D01*
X14189850Y-14684878D02*
X14180326Y-14665830D01*
X14180326Y-14665830D02*
X14161278Y-14656307D01*
X14161278Y-14656307D02*
X14132707Y-14656307D01*
X14132707Y-14656307D02*
X14113659Y-14646783D01*
X14113659Y-14646783D02*
X14104136Y-14627735D01*
X14104136Y-14627735D02*
X14104136Y-14618211D01*
X14104136Y-14618211D02*
X14113659Y-14599164D01*
X14113659Y-14599164D02*
X14132707Y-14589640D01*
X14132707Y-14589640D02*
X14161278Y-14589640D01*
X14161278Y-14589640D02*
X14180326Y-14599164D01*
X14256517Y-14799164D02*
X14266040Y-14789640D01*
X14266040Y-14789640D02*
X14285088Y-14761068D01*
X14285088Y-14761068D02*
X14294612Y-14742021D01*
X14294612Y-14742021D02*
X14304136Y-14713449D01*
X14304136Y-14713449D02*
X14313659Y-14665830D01*
X14313659Y-14665830D02*
X14313659Y-14627735D01*
X14313659Y-14627735D02*
X14304136Y-14580116D01*
X14304136Y-14580116D02*
X14294612Y-14551545D01*
X14294612Y-14551545D02*
X14285088Y-14532497D01*
X14285088Y-14532497D02*
X14266040Y-14503926D01*
X14266040Y-14503926D02*
X14256517Y-14494402D01*
X14618421Y-14799164D02*
X14608898Y-14789640D01*
X14608898Y-14789640D02*
X14589850Y-14761068D01*
X14589850Y-14761068D02*
X14580326Y-14742021D01*
X14580326Y-14742021D02*
X14570802Y-14713449D01*
X14570802Y-14713449D02*
X14561279Y-14665830D01*
X14561279Y-14665830D02*
X14561279Y-14627735D01*
X14561279Y-14627735D02*
X14570802Y-14580116D01*
X14570802Y-14580116D02*
X14580326Y-14551545D01*
X14580326Y-14551545D02*
X14589850Y-14532497D01*
X14589850Y-14532497D02*
X14608898Y-14503926D01*
X14608898Y-14503926D02*
X14618421Y-14494402D01*
X14694612Y-14589640D02*
X14694612Y-14722973D01*
X14694612Y-14608687D02*
X14704136Y-14599164D01*
X14704136Y-14599164D02*
X14723183Y-14589640D01*
X14723183Y-14589640D02*
X14751755Y-14589640D01*
X14751755Y-14589640D02*
X14770802Y-14599164D01*
X14770802Y-14599164D02*
X14780326Y-14618211D01*
X14780326Y-14618211D02*
X14780326Y-14722973D01*
X14904136Y-14722973D02*
X14885088Y-14713449D01*
X14885088Y-14713449D02*
X14875564Y-14703926D01*
X14875564Y-14703926D02*
X14866040Y-14684878D01*
X14866040Y-14684878D02*
X14866040Y-14627735D01*
X14866040Y-14627735D02*
X14875564Y-14608687D01*
X14875564Y-14608687D02*
X14885088Y-14599164D01*
X14885088Y-14599164D02*
X14904136Y-14589640D01*
X14904136Y-14589640D02*
X14932707Y-14589640D01*
X14932707Y-14589640D02*
X14951755Y-14599164D01*
X14951755Y-14599164D02*
X14961279Y-14608687D01*
X14961279Y-14608687D02*
X14970802Y-14627735D01*
X14970802Y-14627735D02*
X14970802Y-14684878D01*
X14970802Y-14684878D02*
X14961279Y-14703926D01*
X14961279Y-14703926D02*
X14951755Y-14713449D01*
X14951755Y-14713449D02*
X14932707Y-14722973D01*
X14932707Y-14722973D02*
X14904136Y-14722973D01*
X15027945Y-14589640D02*
X15104136Y-14589640D01*
X15056517Y-14522973D02*
X15056517Y-14694402D01*
X15056517Y-14694402D02*
X15066040Y-14713449D01*
X15066040Y-14713449D02*
X15085088Y-14722973D01*
X15085088Y-14722973D02*
X15104136Y-14722973D01*
X15323183Y-14589640D02*
X15323183Y-14789640D01*
X15323183Y-14599164D02*
X15342231Y-14589640D01*
X15342231Y-14589640D02*
X15380326Y-14589640D01*
X15380326Y-14589640D02*
X15399374Y-14599164D01*
X15399374Y-14599164D02*
X15408898Y-14608687D01*
X15408898Y-14608687D02*
X15418421Y-14627735D01*
X15418421Y-14627735D02*
X15418421Y-14684878D01*
X15418421Y-14684878D02*
X15408898Y-14703926D01*
X15408898Y-14703926D02*
X15399374Y-14713449D01*
X15399374Y-14713449D02*
X15380326Y-14722973D01*
X15380326Y-14722973D02*
X15342231Y-14722973D01*
X15342231Y-14722973D02*
X15323183Y-14713449D01*
X15532707Y-14722973D02*
X15513660Y-14713449D01*
X15513660Y-14713449D02*
X15504136Y-14694402D01*
X15504136Y-14694402D02*
X15504136Y-14522973D01*
X15694612Y-14722973D02*
X15694612Y-14618211D01*
X15694612Y-14618211D02*
X15685088Y-14599164D01*
X15685088Y-14599164D02*
X15666041Y-14589640D01*
X15666041Y-14589640D02*
X15627945Y-14589640D01*
X15627945Y-14589640D02*
X15608898Y-14599164D01*
X15694612Y-14713449D02*
X15675564Y-14722973D01*
X15675564Y-14722973D02*
X15627945Y-14722973D01*
X15627945Y-14722973D02*
X15608898Y-14713449D01*
X15608898Y-14713449D02*
X15599374Y-14694402D01*
X15599374Y-14694402D02*
X15599374Y-14675354D01*
X15599374Y-14675354D02*
X15608898Y-14656307D01*
X15608898Y-14656307D02*
X15627945Y-14646783D01*
X15627945Y-14646783D02*
X15675564Y-14646783D01*
X15675564Y-14646783D02*
X15694612Y-14637259D01*
X15761279Y-14589640D02*
X15837469Y-14589640D01*
X15789850Y-14522973D02*
X15789850Y-14694402D01*
X15789850Y-14694402D02*
X15799374Y-14713449D01*
X15799374Y-14713449D02*
X15818421Y-14722973D01*
X15818421Y-14722973D02*
X15837469Y-14722973D01*
X15980326Y-14713449D02*
X15961279Y-14722973D01*
X15961279Y-14722973D02*
X15923183Y-14722973D01*
X15923183Y-14722973D02*
X15904136Y-14713449D01*
X15904136Y-14713449D02*
X15894612Y-14694402D01*
X15894612Y-14694402D02*
X15894612Y-14618211D01*
X15894612Y-14618211D02*
X15904136Y-14599164D01*
X15904136Y-14599164D02*
X15923183Y-14589640D01*
X15923183Y-14589640D02*
X15961279Y-14589640D01*
X15961279Y-14589640D02*
X15980326Y-14599164D01*
X15980326Y-14599164D02*
X15989850Y-14618211D01*
X15989850Y-14618211D02*
X15989850Y-14637259D01*
X15989850Y-14637259D02*
X15894612Y-14656307D01*
X16161279Y-14722973D02*
X16161279Y-14522973D01*
X16161279Y-14713449D02*
X16142231Y-14722973D01*
X16142231Y-14722973D02*
X16104136Y-14722973D01*
X16104136Y-14722973D02*
X16085088Y-14713449D01*
X16085088Y-14713449D02*
X16075564Y-14703926D01*
X16075564Y-14703926D02*
X16066041Y-14684878D01*
X16066041Y-14684878D02*
X16066041Y-14627735D01*
X16066041Y-14627735D02*
X16075564Y-14608687D01*
X16075564Y-14608687D02*
X16085088Y-14599164D01*
X16085088Y-14599164D02*
X16104136Y-14589640D01*
X16104136Y-14589640D02*
X16142231Y-14589640D01*
X16142231Y-14589640D02*
X16161279Y-14599164D01*
X16237469Y-14799164D02*
X16246993Y-14789640D01*
X16246993Y-14789640D02*
X16266041Y-14761068D01*
X16266041Y-14761068D02*
X16275564Y-14742021D01*
X16275564Y-14742021D02*
X16285088Y-14713449D01*
X16285088Y-14713449D02*
X16294612Y-14665830D01*
X16294612Y-14665830D02*
X16294612Y-14627735D01*
X16294612Y-14627735D02*
X16285088Y-14580116D01*
X16285088Y-14580116D02*
X16275564Y-14551545D01*
X16275564Y-14551545D02*
X16266041Y-14532497D01*
X16266041Y-14532497D02*
X16246993Y-14503926D01*
X16246993Y-14503926D02*
X16237469Y-14494402D01*
X9071213Y-15012201D02*
X9071213Y-14870778D01*
X8929790Y-14870778D01*
X8929790Y-15012201D01*
X9071213Y-15012201D01*
X9351754Y-14852021D02*
X9361278Y-14842497D01*
X9361278Y-14842497D02*
X9380326Y-14832973D01*
X9380326Y-14832973D02*
X9427945Y-14832973D01*
X9427945Y-14832973D02*
X9446992Y-14842497D01*
X9446992Y-14842497D02*
X9456516Y-14852021D01*
X9456516Y-14852021D02*
X9466040Y-14871068D01*
X9466040Y-14871068D02*
X9466040Y-14890116D01*
X9466040Y-14890116D02*
X9456516Y-14918687D01*
X9456516Y-14918687D02*
X9342231Y-15032973D01*
X9342231Y-15032973D02*
X9466040Y-15032973D01*
X9551754Y-15013926D02*
X9561278Y-15023449D01*
X9561278Y-15023449D02*
X9551754Y-15032973D01*
X9551754Y-15032973D02*
X9542231Y-15023449D01*
X9542231Y-15023449D02*
X9551754Y-15013926D01*
X9551754Y-15013926D02*
X9551754Y-15032973D01*
X9637469Y-14852021D02*
X9646992Y-14842497D01*
X9646992Y-14842497D02*
X9666040Y-14832973D01*
X9666040Y-14832973D02*
X9713659Y-14832973D01*
X9713659Y-14832973D02*
X9732707Y-14842497D01*
X9732707Y-14842497D02*
X9742231Y-14852021D01*
X9742231Y-14852021D02*
X9751754Y-14871068D01*
X9751754Y-14871068D02*
X9751754Y-14890116D01*
X9751754Y-14890116D02*
X9742231Y-14918687D01*
X9742231Y-14918687D02*
X9627945Y-15032973D01*
X9627945Y-15032973D02*
X9751754Y-15032973D01*
X9875564Y-14832973D02*
X9894612Y-14832973D01*
X9894612Y-14832973D02*
X9913659Y-14842497D01*
X9913659Y-14842497D02*
X9923183Y-14852021D01*
X9923183Y-14852021D02*
X9932707Y-14871068D01*
X9932707Y-14871068D02*
X9942231Y-14909164D01*
X9942231Y-14909164D02*
X9942231Y-14956783D01*
X9942231Y-14956783D02*
X9932707Y-14994878D01*
X9932707Y-14994878D02*
X9923183Y-15013926D01*
X9923183Y-15013926D02*
X9913659Y-15023449D01*
X9913659Y-15023449D02*
X9894612Y-15032973D01*
X9894612Y-15032973D02*
X9875564Y-15032973D01*
X9875564Y-15032973D02*
X9856516Y-15023449D01*
X9856516Y-15023449D02*
X9846992Y-15013926D01*
X9846992Y-15013926D02*
X9837469Y-14994878D01*
X9837469Y-14994878D02*
X9827945Y-14956783D01*
X9827945Y-14956783D02*
X9827945Y-14909164D01*
X9827945Y-14909164D02*
X9837469Y-14871068D01*
X9837469Y-14871068D02*
X9846992Y-14852021D01*
X9846992Y-14852021D02*
X9856516Y-14842497D01*
X9856516Y-14842497D02*
X9875564Y-14832973D01*
X10066040Y-14832973D02*
X10085088Y-14832973D01*
X10085088Y-14832973D02*
X10104135Y-14842497D01*
X10104135Y-14842497D02*
X10113659Y-14852021D01*
X10113659Y-14852021D02*
X10123183Y-14871068D01*
X10123183Y-14871068D02*
X10132707Y-14909164D01*
X10132707Y-14909164D02*
X10132707Y-14956783D01*
X10132707Y-14956783D02*
X10123183Y-14994878D01*
X10123183Y-14994878D02*
X10113659Y-15013926D01*
X10113659Y-15013926D02*
X10104135Y-15023449D01*
X10104135Y-15023449D02*
X10085088Y-15032973D01*
X10085088Y-15032973D02*
X10066040Y-15032973D01*
X10066040Y-15032973D02*
X10046992Y-15023449D01*
X10046992Y-15023449D02*
X10037469Y-15013926D01*
X10037469Y-15013926D02*
X10027945Y-14994878D01*
X10027945Y-14994878D02*
X10018421Y-14956783D01*
X10018421Y-14956783D02*
X10018421Y-14909164D01*
X10018421Y-14909164D02*
X10027945Y-14871068D01*
X10027945Y-14871068D02*
X10037469Y-14852021D01*
X10037469Y-14852021D02*
X10046992Y-14842497D01*
X10046992Y-14842497D02*
X10066040Y-14832973D01*
X10218421Y-15032973D02*
X10218421Y-14899640D01*
X10218421Y-14918687D02*
X10227945Y-14909164D01*
X10227945Y-14909164D02*
X10246992Y-14899640D01*
X10246992Y-14899640D02*
X10275564Y-14899640D01*
X10275564Y-14899640D02*
X10294612Y-14909164D01*
X10294612Y-14909164D02*
X10304135Y-14928211D01*
X10304135Y-14928211D02*
X10304135Y-15032973D01*
X10304135Y-14928211D02*
X10313659Y-14909164D01*
X10313659Y-14909164D02*
X10332707Y-14899640D01*
X10332707Y-14899640D02*
X10361278Y-14899640D01*
X10361278Y-14899640D02*
X10380326Y-14909164D01*
X10380326Y-14909164D02*
X10389850Y-14928211D01*
X10389850Y-14928211D02*
X10389850Y-15032973D01*
X10485088Y-15032973D02*
X10485088Y-14899640D01*
X10485088Y-14918687D02*
X10494612Y-14909164D01*
X10494612Y-14909164D02*
X10513659Y-14899640D01*
X10513659Y-14899640D02*
X10542231Y-14899640D01*
X10542231Y-14899640D02*
X10561278Y-14909164D01*
X10561278Y-14909164D02*
X10570802Y-14928211D01*
X10570802Y-14928211D02*
X10570802Y-15032973D01*
X10570802Y-14928211D02*
X10580326Y-14909164D01*
X10580326Y-14909164D02*
X10599373Y-14899640D01*
X10599373Y-14899640D02*
X10627945Y-14899640D01*
X10627945Y-14899640D02*
X10646993Y-14909164D01*
X10646993Y-14909164D02*
X10656516Y-14928211D01*
X10656516Y-14928211D02*
X10656516Y-15032973D01*
X11046993Y-14823449D02*
X10875564Y-15080592D01*
X11304135Y-14832973D02*
X11323183Y-14832973D01*
X11323183Y-14832973D02*
X11342231Y-14842497D01*
X11342231Y-14842497D02*
X11351754Y-14852021D01*
X11351754Y-14852021D02*
X11361278Y-14871068D01*
X11361278Y-14871068D02*
X11370802Y-14909164D01*
X11370802Y-14909164D02*
X11370802Y-14956783D01*
X11370802Y-14956783D02*
X11361278Y-14994878D01*
X11361278Y-14994878D02*
X11351754Y-15013926D01*
X11351754Y-15013926D02*
X11342231Y-15023449D01*
X11342231Y-15023449D02*
X11323183Y-15032973D01*
X11323183Y-15032973D02*
X11304135Y-15032973D01*
X11304135Y-15032973D02*
X11285088Y-15023449D01*
X11285088Y-15023449D02*
X11275564Y-15013926D01*
X11275564Y-15013926D02*
X11266040Y-14994878D01*
X11266040Y-14994878D02*
X11256516Y-14956783D01*
X11256516Y-14956783D02*
X11256516Y-14909164D01*
X11256516Y-14909164D02*
X11266040Y-14871068D01*
X11266040Y-14871068D02*
X11275564Y-14852021D01*
X11275564Y-14852021D02*
X11285088Y-14842497D01*
X11285088Y-14842497D02*
X11304135Y-14832973D01*
X11456516Y-15013926D02*
X11466040Y-15023449D01*
X11466040Y-15023449D02*
X11456516Y-15032973D01*
X11456516Y-15032973D02*
X11446993Y-15023449D01*
X11446993Y-15023449D02*
X11456516Y-15013926D01*
X11456516Y-15013926D02*
X11456516Y-15032973D01*
X11589850Y-14832973D02*
X11608897Y-14832973D01*
X11608897Y-14832973D02*
X11627945Y-14842497D01*
X11627945Y-14842497D02*
X11637469Y-14852021D01*
X11637469Y-14852021D02*
X11646993Y-14871068D01*
X11646993Y-14871068D02*
X11656516Y-14909164D01*
X11656516Y-14909164D02*
X11656516Y-14956783D01*
X11656516Y-14956783D02*
X11646993Y-14994878D01*
X11646993Y-14994878D02*
X11637469Y-15013926D01*
X11637469Y-15013926D02*
X11627945Y-15023449D01*
X11627945Y-15023449D02*
X11608897Y-15032973D01*
X11608897Y-15032973D02*
X11589850Y-15032973D01*
X11589850Y-15032973D02*
X11570802Y-15023449D01*
X11570802Y-15023449D02*
X11561278Y-15013926D01*
X11561278Y-15013926D02*
X11551754Y-14994878D01*
X11551754Y-14994878D02*
X11542231Y-14956783D01*
X11542231Y-14956783D02*
X11542231Y-14909164D01*
X11542231Y-14909164D02*
X11551754Y-14871068D01*
X11551754Y-14871068D02*
X11561278Y-14852021D01*
X11561278Y-14852021D02*
X11570802Y-14842497D01*
X11570802Y-14842497D02*
X11589850Y-14832973D01*
X11770802Y-14918687D02*
X11751754Y-14909164D01*
X11751754Y-14909164D02*
X11742231Y-14899640D01*
X11742231Y-14899640D02*
X11732707Y-14880592D01*
X11732707Y-14880592D02*
X11732707Y-14871068D01*
X11732707Y-14871068D02*
X11742231Y-14852021D01*
X11742231Y-14852021D02*
X11751754Y-14842497D01*
X11751754Y-14842497D02*
X11770802Y-14832973D01*
X11770802Y-14832973D02*
X11808897Y-14832973D01*
X11808897Y-14832973D02*
X11827945Y-14842497D01*
X11827945Y-14842497D02*
X11837469Y-14852021D01*
X11837469Y-14852021D02*
X11846993Y-14871068D01*
X11846993Y-14871068D02*
X11846993Y-14880592D01*
X11846993Y-14880592D02*
X11837469Y-14899640D01*
X11837469Y-14899640D02*
X11827945Y-14909164D01*
X11827945Y-14909164D02*
X11808897Y-14918687D01*
X11808897Y-14918687D02*
X11770802Y-14918687D01*
X11770802Y-14918687D02*
X11751754Y-14928211D01*
X11751754Y-14928211D02*
X11742231Y-14937735D01*
X11742231Y-14937735D02*
X11732707Y-14956783D01*
X11732707Y-14956783D02*
X11732707Y-14994878D01*
X11732707Y-14994878D02*
X11742231Y-15013926D01*
X11742231Y-15013926D02*
X11751754Y-15023449D01*
X11751754Y-15023449D02*
X11770802Y-15032973D01*
X11770802Y-15032973D02*
X11808897Y-15032973D01*
X11808897Y-15032973D02*
X11827945Y-15023449D01*
X11827945Y-15023449D02*
X11837469Y-15013926D01*
X11837469Y-15013926D02*
X11846993Y-14994878D01*
X11846993Y-14994878D02*
X11846993Y-14956783D01*
X11846993Y-14956783D02*
X11837469Y-14937735D01*
X11837469Y-14937735D02*
X11827945Y-14928211D01*
X11827945Y-14928211D02*
X11808897Y-14918687D01*
X12018421Y-14832973D02*
X11980326Y-14832973D01*
X11980326Y-14832973D02*
X11961278Y-14842497D01*
X11961278Y-14842497D02*
X11951754Y-14852021D01*
X11951754Y-14852021D02*
X11932707Y-14880592D01*
X11932707Y-14880592D02*
X11923183Y-14918687D01*
X11923183Y-14918687D02*
X11923183Y-14994878D01*
X11923183Y-14994878D02*
X11932707Y-15013926D01*
X11932707Y-15013926D02*
X11942231Y-15023449D01*
X11942231Y-15023449D02*
X11961278Y-15032973D01*
X11961278Y-15032973D02*
X11999374Y-15032973D01*
X11999374Y-15032973D02*
X12018421Y-15023449D01*
X12018421Y-15023449D02*
X12027945Y-15013926D01*
X12027945Y-15013926D02*
X12037469Y-14994878D01*
X12037469Y-14994878D02*
X12037469Y-14947259D01*
X12037469Y-14947259D02*
X12027945Y-14928211D01*
X12027945Y-14928211D02*
X12018421Y-14918687D01*
X12018421Y-14918687D02*
X11999374Y-14909164D01*
X11999374Y-14909164D02*
X11961278Y-14909164D01*
X11961278Y-14909164D02*
X11942231Y-14918687D01*
X11942231Y-14918687D02*
X11932707Y-14928211D01*
X11932707Y-14928211D02*
X11923183Y-14947259D01*
X12208897Y-14832973D02*
X12170802Y-14832973D01*
X12170802Y-14832973D02*
X12151754Y-14842497D01*
X12151754Y-14842497D02*
X12142231Y-14852021D01*
X12142231Y-14852021D02*
X12123183Y-14880592D01*
X12123183Y-14880592D02*
X12113659Y-14918687D01*
X12113659Y-14918687D02*
X12113659Y-14994878D01*
X12113659Y-14994878D02*
X12123183Y-15013926D01*
X12123183Y-15013926D02*
X12132707Y-15023449D01*
X12132707Y-15023449D02*
X12151754Y-15032973D01*
X12151754Y-15032973D02*
X12189850Y-15032973D01*
X12189850Y-15032973D02*
X12208897Y-15023449D01*
X12208897Y-15023449D02*
X12218421Y-15013926D01*
X12218421Y-15013926D02*
X12227945Y-14994878D01*
X12227945Y-14994878D02*
X12227945Y-14947259D01*
X12227945Y-14947259D02*
X12218421Y-14928211D01*
X12218421Y-14928211D02*
X12208897Y-14918687D01*
X12208897Y-14918687D02*
X12189850Y-14909164D01*
X12189850Y-14909164D02*
X12151754Y-14909164D01*
X12151754Y-14909164D02*
X12132707Y-14918687D01*
X12132707Y-14918687D02*
X12123183Y-14928211D01*
X12123183Y-14928211D02*
X12113659Y-14947259D01*
X12304135Y-14832973D02*
X12304135Y-14871068D01*
X12380326Y-14832973D02*
X12380326Y-14871068D01*
X12675564Y-15109164D02*
X12666040Y-15099640D01*
X12666040Y-15099640D02*
X12646993Y-15071068D01*
X12646993Y-15071068D02*
X12637469Y-15052021D01*
X12637469Y-15052021D02*
X12627945Y-15023449D01*
X12627945Y-15023449D02*
X12618421Y-14975830D01*
X12618421Y-14975830D02*
X12618421Y-14937735D01*
X12618421Y-14937735D02*
X12627945Y-14890116D01*
X12627945Y-14890116D02*
X12637469Y-14861545D01*
X12637469Y-14861545D02*
X12646993Y-14842497D01*
X12646993Y-14842497D02*
X12666040Y-14813926D01*
X12666040Y-14813926D02*
X12675564Y-14804402D01*
X12742231Y-14852021D02*
X12751755Y-14842497D01*
X12751755Y-14842497D02*
X12770802Y-14832973D01*
X12770802Y-14832973D02*
X12818421Y-14832973D01*
X12818421Y-14832973D02*
X12837469Y-14842497D01*
X12837469Y-14842497D02*
X12846993Y-14852021D01*
X12846993Y-14852021D02*
X12856516Y-14871068D01*
X12856516Y-14871068D02*
X12856516Y-14890116D01*
X12856516Y-14890116D02*
X12846993Y-14918687D01*
X12846993Y-14918687D02*
X12732707Y-15032973D01*
X12732707Y-15032973D02*
X12856516Y-15032973D01*
X13094612Y-15032973D02*
X13094612Y-14832973D01*
X13180326Y-15032973D02*
X13180326Y-14928211D01*
X13180326Y-14928211D02*
X13170802Y-14909164D01*
X13170802Y-14909164D02*
X13151755Y-14899640D01*
X13151755Y-14899640D02*
X13123183Y-14899640D01*
X13123183Y-14899640D02*
X13104136Y-14909164D01*
X13104136Y-14909164D02*
X13094612Y-14918687D01*
X13304136Y-15032973D02*
X13285088Y-15023449D01*
X13285088Y-15023449D02*
X13275564Y-15013926D01*
X13275564Y-15013926D02*
X13266040Y-14994878D01*
X13266040Y-14994878D02*
X13266040Y-14937735D01*
X13266040Y-14937735D02*
X13275564Y-14918687D01*
X13275564Y-14918687D02*
X13285088Y-14909164D01*
X13285088Y-14909164D02*
X13304136Y-14899640D01*
X13304136Y-14899640D02*
X13332707Y-14899640D01*
X13332707Y-14899640D02*
X13351755Y-14909164D01*
X13351755Y-14909164D02*
X13361278Y-14918687D01*
X13361278Y-14918687D02*
X13370802Y-14937735D01*
X13370802Y-14937735D02*
X13370802Y-14994878D01*
X13370802Y-14994878D02*
X13361278Y-15013926D01*
X13361278Y-15013926D02*
X13351755Y-15023449D01*
X13351755Y-15023449D02*
X13332707Y-15032973D01*
X13332707Y-15032973D02*
X13304136Y-15032973D01*
X13485088Y-15032973D02*
X13466040Y-15023449D01*
X13466040Y-15023449D02*
X13456517Y-15004402D01*
X13456517Y-15004402D02*
X13456517Y-14832973D01*
X13637469Y-15023449D02*
X13618421Y-15032973D01*
X13618421Y-15032973D02*
X13580326Y-15032973D01*
X13580326Y-15032973D02*
X13561278Y-15023449D01*
X13561278Y-15023449D02*
X13551755Y-15004402D01*
X13551755Y-15004402D02*
X13551755Y-14928211D01*
X13551755Y-14928211D02*
X13561278Y-14909164D01*
X13561278Y-14909164D02*
X13580326Y-14899640D01*
X13580326Y-14899640D02*
X13618421Y-14899640D01*
X13618421Y-14899640D02*
X13637469Y-14909164D01*
X13637469Y-14909164D02*
X13646993Y-14928211D01*
X13646993Y-14928211D02*
X13646993Y-14947259D01*
X13646993Y-14947259D02*
X13551755Y-14966307D01*
X13723183Y-15023449D02*
X13742231Y-15032973D01*
X13742231Y-15032973D02*
X13780326Y-15032973D01*
X13780326Y-15032973D02*
X13799374Y-15023449D01*
X13799374Y-15023449D02*
X13808898Y-15004402D01*
X13808898Y-15004402D02*
X13808898Y-14994878D01*
X13808898Y-14994878D02*
X13799374Y-14975830D01*
X13799374Y-14975830D02*
X13780326Y-14966307D01*
X13780326Y-14966307D02*
X13751755Y-14966307D01*
X13751755Y-14966307D02*
X13732707Y-14956783D01*
X13732707Y-14956783D02*
X13723183Y-14937735D01*
X13723183Y-14937735D02*
X13723183Y-14928211D01*
X13723183Y-14928211D02*
X13732707Y-14909164D01*
X13732707Y-14909164D02*
X13751755Y-14899640D01*
X13751755Y-14899640D02*
X13780326Y-14899640D01*
X13780326Y-14899640D02*
X13799374Y-14909164D01*
X13875564Y-15109164D02*
X13885088Y-15099640D01*
X13885088Y-15099640D02*
X13904136Y-15071068D01*
X13904136Y-15071068D02*
X13913659Y-15052021D01*
X13913659Y-15052021D02*
X13923183Y-15023449D01*
X13923183Y-15023449D02*
X13932707Y-14975830D01*
X13932707Y-14975830D02*
X13932707Y-14937735D01*
X13932707Y-14937735D02*
X13923183Y-14890116D01*
X13923183Y-14890116D02*
X13913659Y-14861545D01*
X13913659Y-14861545D02*
X13904136Y-14842497D01*
X13904136Y-14842497D02*
X13885088Y-14813926D01*
X13885088Y-14813926D02*
X13875564Y-14804402D01*
X14237469Y-15109164D02*
X14227945Y-15099640D01*
X14227945Y-15099640D02*
X14208898Y-15071068D01*
X14208898Y-15071068D02*
X14199374Y-15052021D01*
X14199374Y-15052021D02*
X14189850Y-15023449D01*
X14189850Y-15023449D02*
X14180326Y-14975830D01*
X14180326Y-14975830D02*
X14180326Y-14937735D01*
X14180326Y-14937735D02*
X14189850Y-14890116D01*
X14189850Y-14890116D02*
X14199374Y-14861545D01*
X14199374Y-14861545D02*
X14208898Y-14842497D01*
X14208898Y-14842497D02*
X14227945Y-14813926D01*
X14227945Y-14813926D02*
X14237469Y-14804402D01*
X14313659Y-14899640D02*
X14313659Y-15032973D01*
X14313659Y-14918687D02*
X14323183Y-14909164D01*
X14323183Y-14909164D02*
X14342231Y-14899640D01*
X14342231Y-14899640D02*
X14370802Y-14899640D01*
X14370802Y-14899640D02*
X14389850Y-14909164D01*
X14389850Y-14909164D02*
X14399374Y-14928211D01*
X14399374Y-14928211D02*
X14399374Y-15032973D01*
X14523183Y-15032973D02*
X14504136Y-15023449D01*
X14504136Y-15023449D02*
X14494612Y-15013926D01*
X14494612Y-15013926D02*
X14485088Y-14994878D01*
X14485088Y-14994878D02*
X14485088Y-14937735D01*
X14485088Y-14937735D02*
X14494612Y-14918687D01*
X14494612Y-14918687D02*
X14504136Y-14909164D01*
X14504136Y-14909164D02*
X14523183Y-14899640D01*
X14523183Y-14899640D02*
X14551755Y-14899640D01*
X14551755Y-14899640D02*
X14570802Y-14909164D01*
X14570802Y-14909164D02*
X14580326Y-14918687D01*
X14580326Y-14918687D02*
X14589850Y-14937735D01*
X14589850Y-14937735D02*
X14589850Y-14994878D01*
X14589850Y-14994878D02*
X14580326Y-15013926D01*
X14580326Y-15013926D02*
X14570802Y-15023449D01*
X14570802Y-15023449D02*
X14551755Y-15032973D01*
X14551755Y-15032973D02*
X14523183Y-15032973D01*
X14646993Y-14899640D02*
X14723183Y-14899640D01*
X14675564Y-14832973D02*
X14675564Y-15004402D01*
X14675564Y-15004402D02*
X14685088Y-15023449D01*
X14685088Y-15023449D02*
X14704136Y-15032973D01*
X14704136Y-15032973D02*
X14723183Y-15032973D01*
X14942231Y-14899640D02*
X14942231Y-15099640D01*
X14942231Y-14909164D02*
X14961279Y-14899640D01*
X14961279Y-14899640D02*
X14999374Y-14899640D01*
X14999374Y-14899640D02*
X15018421Y-14909164D01*
X15018421Y-14909164D02*
X15027945Y-14918687D01*
X15027945Y-14918687D02*
X15037469Y-14937735D01*
X15037469Y-14937735D02*
X15037469Y-14994878D01*
X15037469Y-14994878D02*
X15027945Y-15013926D01*
X15027945Y-15013926D02*
X15018421Y-15023449D01*
X15018421Y-15023449D02*
X14999374Y-15032973D01*
X14999374Y-15032973D02*
X14961279Y-15032973D01*
X14961279Y-15032973D02*
X14942231Y-15023449D01*
X15151755Y-15032973D02*
X15132707Y-15023449D01*
X15132707Y-15023449D02*
X15123183Y-15004402D01*
X15123183Y-15004402D02*
X15123183Y-14832973D01*
X15313660Y-15032973D02*
X15313660Y-14928211D01*
X15313660Y-14928211D02*
X15304136Y-14909164D01*
X15304136Y-14909164D02*
X15285088Y-14899640D01*
X15285088Y-14899640D02*
X15246993Y-14899640D01*
X15246993Y-14899640D02*
X15227945Y-14909164D01*
X15313660Y-15023449D02*
X15294612Y-15032973D01*
X15294612Y-15032973D02*
X15246993Y-15032973D01*
X15246993Y-15032973D02*
X15227945Y-15023449D01*
X15227945Y-15023449D02*
X15218421Y-15004402D01*
X15218421Y-15004402D02*
X15218421Y-14985354D01*
X15218421Y-14985354D02*
X15227945Y-14966307D01*
X15227945Y-14966307D02*
X15246993Y-14956783D01*
X15246993Y-14956783D02*
X15294612Y-14956783D01*
X15294612Y-14956783D02*
X15313660Y-14947259D01*
X15380326Y-14899640D02*
X15456517Y-14899640D01*
X15408898Y-14832973D02*
X15408898Y-15004402D01*
X15408898Y-15004402D02*
X15418421Y-15023449D01*
X15418421Y-15023449D02*
X15437469Y-15032973D01*
X15437469Y-15032973D02*
X15456517Y-15032973D01*
X15599374Y-15023449D02*
X15580326Y-15032973D01*
X15580326Y-15032973D02*
X15542231Y-15032973D01*
X15542231Y-15032973D02*
X15523183Y-15023449D01*
X15523183Y-15023449D02*
X15513660Y-15004402D01*
X15513660Y-15004402D02*
X15513660Y-14928211D01*
X15513660Y-14928211D02*
X15523183Y-14909164D01*
X15523183Y-14909164D02*
X15542231Y-14899640D01*
X15542231Y-14899640D02*
X15580326Y-14899640D01*
X15580326Y-14899640D02*
X15599374Y-14909164D01*
X15599374Y-14909164D02*
X15608898Y-14928211D01*
X15608898Y-14928211D02*
X15608898Y-14947259D01*
X15608898Y-14947259D02*
X15513660Y-14966307D01*
X15780326Y-15032973D02*
X15780326Y-14832973D01*
X15780326Y-15023449D02*
X15761279Y-15032973D01*
X15761279Y-15032973D02*
X15723183Y-15032973D01*
X15723183Y-15032973D02*
X15704136Y-15023449D01*
X15704136Y-15023449D02*
X15694612Y-15013926D01*
X15694612Y-15013926D02*
X15685088Y-14994878D01*
X15685088Y-14994878D02*
X15685088Y-14937735D01*
X15685088Y-14937735D02*
X15694612Y-14918687D01*
X15694612Y-14918687D02*
X15704136Y-14909164D01*
X15704136Y-14909164D02*
X15723183Y-14899640D01*
X15723183Y-14899640D02*
X15761279Y-14899640D01*
X15761279Y-14899640D02*
X15780326Y-14909164D01*
X15856517Y-15109164D02*
X15866041Y-15099640D01*
X15866041Y-15099640D02*
X15885088Y-15071068D01*
X15885088Y-15071068D02*
X15894612Y-15052021D01*
X15894612Y-15052021D02*
X15904136Y-15023449D01*
X15904136Y-15023449D02*
X15913660Y-14975830D01*
X15913660Y-14975830D02*
X15913660Y-14937735D01*
X15913660Y-14937735D02*
X15904136Y-14890116D01*
X15904136Y-14890116D02*
X15894612Y-14861545D01*
X15894612Y-14861545D02*
X15885088Y-14842497D01*
X15885088Y-14842497D02*
X15866041Y-14813926D01*
X15866041Y-14813926D02*
X15856517Y-14804402D01*
X9000501Y-15361489D02*
X9100501Y-15261489D01*
X9000501Y-15161489D01*
X8900501Y-15261489D01*
X9000501Y-15361489D01*
X9342231Y-15152973D02*
X9466040Y-15152973D01*
X9466040Y-15152973D02*
X9399373Y-15229164D01*
X9399373Y-15229164D02*
X9427945Y-15229164D01*
X9427945Y-15229164D02*
X9446992Y-15238687D01*
X9446992Y-15238687D02*
X9456516Y-15248211D01*
X9456516Y-15248211D02*
X9466040Y-15267259D01*
X9466040Y-15267259D02*
X9466040Y-15314878D01*
X9466040Y-15314878D02*
X9456516Y-15333926D01*
X9456516Y-15333926D02*
X9446992Y-15343449D01*
X9446992Y-15343449D02*
X9427945Y-15352973D01*
X9427945Y-15352973D02*
X9370802Y-15352973D01*
X9370802Y-15352973D02*
X9351754Y-15343449D01*
X9351754Y-15343449D02*
X9342231Y-15333926D01*
X9551754Y-15333926D02*
X9561278Y-15343449D01*
X9561278Y-15343449D02*
X9551754Y-15352973D01*
X9551754Y-15352973D02*
X9542231Y-15343449D01*
X9542231Y-15343449D02*
X9551754Y-15333926D01*
X9551754Y-15333926D02*
X9551754Y-15352973D01*
X9685088Y-15152973D02*
X9704135Y-15152973D01*
X9704135Y-15152973D02*
X9723183Y-15162497D01*
X9723183Y-15162497D02*
X9732707Y-15172021D01*
X9732707Y-15172021D02*
X9742231Y-15191068D01*
X9742231Y-15191068D02*
X9751754Y-15229164D01*
X9751754Y-15229164D02*
X9751754Y-15276783D01*
X9751754Y-15276783D02*
X9742231Y-15314878D01*
X9742231Y-15314878D02*
X9732707Y-15333926D01*
X9732707Y-15333926D02*
X9723183Y-15343449D01*
X9723183Y-15343449D02*
X9704135Y-15352973D01*
X9704135Y-15352973D02*
X9685088Y-15352973D01*
X9685088Y-15352973D02*
X9666040Y-15343449D01*
X9666040Y-15343449D02*
X9656516Y-15333926D01*
X9656516Y-15333926D02*
X9646992Y-15314878D01*
X9646992Y-15314878D02*
X9637469Y-15276783D01*
X9637469Y-15276783D02*
X9637469Y-15229164D01*
X9637469Y-15229164D02*
X9646992Y-15191068D01*
X9646992Y-15191068D02*
X9656516Y-15172021D01*
X9656516Y-15172021D02*
X9666040Y-15162497D01*
X9666040Y-15162497D02*
X9685088Y-15152973D01*
X9875564Y-15152973D02*
X9894612Y-15152973D01*
X9894612Y-15152973D02*
X9913659Y-15162497D01*
X9913659Y-15162497D02*
X9923183Y-15172021D01*
X9923183Y-15172021D02*
X9932707Y-15191068D01*
X9932707Y-15191068D02*
X9942231Y-15229164D01*
X9942231Y-15229164D02*
X9942231Y-15276783D01*
X9942231Y-15276783D02*
X9932707Y-15314878D01*
X9932707Y-15314878D02*
X9923183Y-15333926D01*
X9923183Y-15333926D02*
X9913659Y-15343449D01*
X9913659Y-15343449D02*
X9894612Y-15352973D01*
X9894612Y-15352973D02*
X9875564Y-15352973D01*
X9875564Y-15352973D02*
X9856516Y-15343449D01*
X9856516Y-15343449D02*
X9846992Y-15333926D01*
X9846992Y-15333926D02*
X9837469Y-15314878D01*
X9837469Y-15314878D02*
X9827945Y-15276783D01*
X9827945Y-15276783D02*
X9827945Y-15229164D01*
X9827945Y-15229164D02*
X9837469Y-15191068D01*
X9837469Y-15191068D02*
X9846992Y-15172021D01*
X9846992Y-15172021D02*
X9856516Y-15162497D01*
X9856516Y-15162497D02*
X9875564Y-15152973D01*
X10066040Y-15152973D02*
X10085088Y-15152973D01*
X10085088Y-15152973D02*
X10104135Y-15162497D01*
X10104135Y-15162497D02*
X10113659Y-15172021D01*
X10113659Y-15172021D02*
X10123183Y-15191068D01*
X10123183Y-15191068D02*
X10132707Y-15229164D01*
X10132707Y-15229164D02*
X10132707Y-15276783D01*
X10132707Y-15276783D02*
X10123183Y-15314878D01*
X10123183Y-15314878D02*
X10113659Y-15333926D01*
X10113659Y-15333926D02*
X10104135Y-15343449D01*
X10104135Y-15343449D02*
X10085088Y-15352973D01*
X10085088Y-15352973D02*
X10066040Y-15352973D01*
X10066040Y-15352973D02*
X10046992Y-15343449D01*
X10046992Y-15343449D02*
X10037469Y-15333926D01*
X10037469Y-15333926D02*
X10027945Y-15314878D01*
X10027945Y-15314878D02*
X10018421Y-15276783D01*
X10018421Y-15276783D02*
X10018421Y-15229164D01*
X10018421Y-15229164D02*
X10027945Y-15191068D01*
X10027945Y-15191068D02*
X10037469Y-15172021D01*
X10037469Y-15172021D02*
X10046992Y-15162497D01*
X10046992Y-15162497D02*
X10066040Y-15152973D01*
X10218421Y-15352973D02*
X10218421Y-15219640D01*
X10218421Y-15238687D02*
X10227945Y-15229164D01*
X10227945Y-15229164D02*
X10246992Y-15219640D01*
X10246992Y-15219640D02*
X10275564Y-15219640D01*
X10275564Y-15219640D02*
X10294612Y-15229164D01*
X10294612Y-15229164D02*
X10304135Y-15248211D01*
X10304135Y-15248211D02*
X10304135Y-15352973D01*
X10304135Y-15248211D02*
X10313659Y-15229164D01*
X10313659Y-15229164D02*
X10332707Y-15219640D01*
X10332707Y-15219640D02*
X10361278Y-15219640D01*
X10361278Y-15219640D02*
X10380326Y-15229164D01*
X10380326Y-15229164D02*
X10389850Y-15248211D01*
X10389850Y-15248211D02*
X10389850Y-15352973D01*
X10485088Y-15352973D02*
X10485088Y-15219640D01*
X10485088Y-15238687D02*
X10494612Y-15229164D01*
X10494612Y-15229164D02*
X10513659Y-15219640D01*
X10513659Y-15219640D02*
X10542231Y-15219640D01*
X10542231Y-15219640D02*
X10561278Y-15229164D01*
X10561278Y-15229164D02*
X10570802Y-15248211D01*
X10570802Y-15248211D02*
X10570802Y-15352973D01*
X10570802Y-15248211D02*
X10580326Y-15229164D01*
X10580326Y-15229164D02*
X10599373Y-15219640D01*
X10599373Y-15219640D02*
X10627945Y-15219640D01*
X10627945Y-15219640D02*
X10646993Y-15229164D01*
X10646993Y-15229164D02*
X10656516Y-15248211D01*
X10656516Y-15248211D02*
X10656516Y-15352973D01*
X11046993Y-15143449D02*
X10875564Y-15400592D01*
X11304135Y-15152973D02*
X11323183Y-15152973D01*
X11323183Y-15152973D02*
X11342231Y-15162497D01*
X11342231Y-15162497D02*
X11351754Y-15172021D01*
X11351754Y-15172021D02*
X11361278Y-15191068D01*
X11361278Y-15191068D02*
X11370802Y-15229164D01*
X11370802Y-15229164D02*
X11370802Y-15276783D01*
X11370802Y-15276783D02*
X11361278Y-15314878D01*
X11361278Y-15314878D02*
X11351754Y-15333926D01*
X11351754Y-15333926D02*
X11342231Y-15343449D01*
X11342231Y-15343449D02*
X11323183Y-15352973D01*
X11323183Y-15352973D02*
X11304135Y-15352973D01*
X11304135Y-15352973D02*
X11285088Y-15343449D01*
X11285088Y-15343449D02*
X11275564Y-15333926D01*
X11275564Y-15333926D02*
X11266040Y-15314878D01*
X11266040Y-15314878D02*
X11256516Y-15276783D01*
X11256516Y-15276783D02*
X11256516Y-15229164D01*
X11256516Y-15229164D02*
X11266040Y-15191068D01*
X11266040Y-15191068D02*
X11275564Y-15172021D01*
X11275564Y-15172021D02*
X11285088Y-15162497D01*
X11285088Y-15162497D02*
X11304135Y-15152973D01*
X11456516Y-15333926D02*
X11466040Y-15343449D01*
X11466040Y-15343449D02*
X11456516Y-15352973D01*
X11456516Y-15352973D02*
X11446993Y-15343449D01*
X11446993Y-15343449D02*
X11456516Y-15333926D01*
X11456516Y-15333926D02*
X11456516Y-15352973D01*
X11656516Y-15352973D02*
X11542231Y-15352973D01*
X11599373Y-15352973D02*
X11599373Y-15152973D01*
X11599373Y-15152973D02*
X11580326Y-15181545D01*
X11580326Y-15181545D02*
X11561278Y-15200592D01*
X11561278Y-15200592D02*
X11542231Y-15210116D01*
X11846993Y-15352973D02*
X11732707Y-15352973D01*
X11789850Y-15352973D02*
X11789850Y-15152973D01*
X11789850Y-15152973D02*
X11770802Y-15181545D01*
X11770802Y-15181545D02*
X11751754Y-15200592D01*
X11751754Y-15200592D02*
X11732707Y-15210116D01*
X11961278Y-15238687D02*
X11942231Y-15229164D01*
X11942231Y-15229164D02*
X11932707Y-15219640D01*
X11932707Y-15219640D02*
X11923183Y-15200592D01*
X11923183Y-15200592D02*
X11923183Y-15191068D01*
X11923183Y-15191068D02*
X11932707Y-15172021D01*
X11932707Y-15172021D02*
X11942231Y-15162497D01*
X11942231Y-15162497D02*
X11961278Y-15152973D01*
X11961278Y-15152973D02*
X11999374Y-15152973D01*
X11999374Y-15152973D02*
X12018421Y-15162497D01*
X12018421Y-15162497D02*
X12027945Y-15172021D01*
X12027945Y-15172021D02*
X12037469Y-15191068D01*
X12037469Y-15191068D02*
X12037469Y-15200592D01*
X12037469Y-15200592D02*
X12027945Y-15219640D01*
X12027945Y-15219640D02*
X12018421Y-15229164D01*
X12018421Y-15229164D02*
X11999374Y-15238687D01*
X11999374Y-15238687D02*
X11961278Y-15238687D01*
X11961278Y-15238687D02*
X11942231Y-15248211D01*
X11942231Y-15248211D02*
X11932707Y-15257735D01*
X11932707Y-15257735D02*
X11923183Y-15276783D01*
X11923183Y-15276783D02*
X11923183Y-15314878D01*
X11923183Y-15314878D02*
X11932707Y-15333926D01*
X11932707Y-15333926D02*
X11942231Y-15343449D01*
X11942231Y-15343449D02*
X11961278Y-15352973D01*
X11961278Y-15352973D02*
X11999374Y-15352973D01*
X11999374Y-15352973D02*
X12018421Y-15343449D01*
X12018421Y-15343449D02*
X12027945Y-15333926D01*
X12027945Y-15333926D02*
X12037469Y-15314878D01*
X12037469Y-15314878D02*
X12037469Y-15276783D01*
X12037469Y-15276783D02*
X12027945Y-15257735D01*
X12027945Y-15257735D02*
X12018421Y-15248211D01*
X12018421Y-15248211D02*
X11999374Y-15238687D01*
X12227945Y-15352973D02*
X12113659Y-15352973D01*
X12170802Y-15352973D02*
X12170802Y-15152973D01*
X12170802Y-15152973D02*
X12151754Y-15181545D01*
X12151754Y-15181545D02*
X12132707Y-15200592D01*
X12132707Y-15200592D02*
X12113659Y-15210116D01*
X12304135Y-15152973D02*
X12304135Y-15191068D01*
X12380326Y-15152973D02*
X12380326Y-15191068D01*
X12675564Y-15429164D02*
X12666040Y-15419640D01*
X12666040Y-15419640D02*
X12646993Y-15391068D01*
X12646993Y-15391068D02*
X12637469Y-15372021D01*
X12637469Y-15372021D02*
X12627945Y-15343449D01*
X12627945Y-15343449D02*
X12618421Y-15295830D01*
X12618421Y-15295830D02*
X12618421Y-15257735D01*
X12618421Y-15257735D02*
X12627945Y-15210116D01*
X12627945Y-15210116D02*
X12637469Y-15181545D01*
X12637469Y-15181545D02*
X12646993Y-15162497D01*
X12646993Y-15162497D02*
X12666040Y-15133926D01*
X12666040Y-15133926D02*
X12675564Y-15124402D01*
X12856516Y-15352973D02*
X12742231Y-15352973D01*
X12799374Y-15352973D02*
X12799374Y-15152973D01*
X12799374Y-15152973D02*
X12780326Y-15181545D01*
X12780326Y-15181545D02*
X12761278Y-15200592D01*
X12761278Y-15200592D02*
X12742231Y-15210116D01*
X12980326Y-15152973D02*
X12999374Y-15152973D01*
X12999374Y-15152973D02*
X13018421Y-15162497D01*
X13018421Y-15162497D02*
X13027945Y-15172021D01*
X13027945Y-15172021D02*
X13037469Y-15191068D01*
X13037469Y-15191068D02*
X13046993Y-15229164D01*
X13046993Y-15229164D02*
X13046993Y-15276783D01*
X13046993Y-15276783D02*
X13037469Y-15314878D01*
X13037469Y-15314878D02*
X13027945Y-15333926D01*
X13027945Y-15333926D02*
X13018421Y-15343449D01*
X13018421Y-15343449D02*
X12999374Y-15352973D01*
X12999374Y-15352973D02*
X12980326Y-15352973D01*
X12980326Y-15352973D02*
X12961278Y-15343449D01*
X12961278Y-15343449D02*
X12951755Y-15333926D01*
X12951755Y-15333926D02*
X12942231Y-15314878D01*
X12942231Y-15314878D02*
X12932707Y-15276783D01*
X12932707Y-15276783D02*
X12932707Y-15229164D01*
X12932707Y-15229164D02*
X12942231Y-15191068D01*
X12942231Y-15191068D02*
X12951755Y-15172021D01*
X12951755Y-15172021D02*
X12961278Y-15162497D01*
X12961278Y-15162497D02*
X12980326Y-15152973D01*
X13170802Y-15152973D02*
X13189850Y-15152973D01*
X13189850Y-15152973D02*
X13208897Y-15162497D01*
X13208897Y-15162497D02*
X13218421Y-15172021D01*
X13218421Y-15172021D02*
X13227945Y-15191068D01*
X13227945Y-15191068D02*
X13237469Y-15229164D01*
X13237469Y-15229164D02*
X13237469Y-15276783D01*
X13237469Y-15276783D02*
X13227945Y-15314878D01*
X13227945Y-15314878D02*
X13218421Y-15333926D01*
X13218421Y-15333926D02*
X13208897Y-15343449D01*
X13208897Y-15343449D02*
X13189850Y-15352973D01*
X13189850Y-15352973D02*
X13170802Y-15352973D01*
X13170802Y-15352973D02*
X13151755Y-15343449D01*
X13151755Y-15343449D02*
X13142231Y-15333926D01*
X13142231Y-15333926D02*
X13132707Y-15314878D01*
X13132707Y-15314878D02*
X13123183Y-15276783D01*
X13123183Y-15276783D02*
X13123183Y-15229164D01*
X13123183Y-15229164D02*
X13132707Y-15191068D01*
X13132707Y-15191068D02*
X13142231Y-15172021D01*
X13142231Y-15172021D02*
X13151755Y-15162497D01*
X13151755Y-15162497D02*
X13170802Y-15152973D01*
X13475564Y-15352973D02*
X13475564Y-15152973D01*
X13561278Y-15352973D02*
X13561278Y-15248211D01*
X13561278Y-15248211D02*
X13551755Y-15229164D01*
X13551755Y-15229164D02*
X13532707Y-15219640D01*
X13532707Y-15219640D02*
X13504136Y-15219640D01*
X13504136Y-15219640D02*
X13485088Y-15229164D01*
X13485088Y-15229164D02*
X13475564Y-15238687D01*
X13685088Y-15352973D02*
X13666040Y-15343449D01*
X13666040Y-15343449D02*
X13656517Y-15333926D01*
X13656517Y-15333926D02*
X13646993Y-15314878D01*
X13646993Y-15314878D02*
X13646993Y-15257735D01*
X13646993Y-15257735D02*
X13656517Y-15238687D01*
X13656517Y-15238687D02*
X13666040Y-15229164D01*
X13666040Y-15229164D02*
X13685088Y-15219640D01*
X13685088Y-15219640D02*
X13713659Y-15219640D01*
X13713659Y-15219640D02*
X13732707Y-15229164D01*
X13732707Y-15229164D02*
X13742231Y-15238687D01*
X13742231Y-15238687D02*
X13751755Y-15257735D01*
X13751755Y-15257735D02*
X13751755Y-15314878D01*
X13751755Y-15314878D02*
X13742231Y-15333926D01*
X13742231Y-15333926D02*
X13732707Y-15343449D01*
X13732707Y-15343449D02*
X13713659Y-15352973D01*
X13713659Y-15352973D02*
X13685088Y-15352973D01*
X13866040Y-15352973D02*
X13846993Y-15343449D01*
X13846993Y-15343449D02*
X13837469Y-15324402D01*
X13837469Y-15324402D02*
X13837469Y-15152973D01*
X14018421Y-15343449D02*
X13999374Y-15352973D01*
X13999374Y-15352973D02*
X13961278Y-15352973D01*
X13961278Y-15352973D02*
X13942231Y-15343449D01*
X13942231Y-15343449D02*
X13932707Y-15324402D01*
X13932707Y-15324402D02*
X13932707Y-15248211D01*
X13932707Y-15248211D02*
X13942231Y-15229164D01*
X13942231Y-15229164D02*
X13961278Y-15219640D01*
X13961278Y-15219640D02*
X13999374Y-15219640D01*
X13999374Y-15219640D02*
X14018421Y-15229164D01*
X14018421Y-15229164D02*
X14027945Y-15248211D01*
X14027945Y-15248211D02*
X14027945Y-15267259D01*
X14027945Y-15267259D02*
X13932707Y-15286307D01*
X14104136Y-15343449D02*
X14123183Y-15352973D01*
X14123183Y-15352973D02*
X14161278Y-15352973D01*
X14161278Y-15352973D02*
X14180326Y-15343449D01*
X14180326Y-15343449D02*
X14189850Y-15324402D01*
X14189850Y-15324402D02*
X14189850Y-15314878D01*
X14189850Y-15314878D02*
X14180326Y-15295830D01*
X14180326Y-15295830D02*
X14161278Y-15286307D01*
X14161278Y-15286307D02*
X14132707Y-15286307D01*
X14132707Y-15286307D02*
X14113659Y-15276783D01*
X14113659Y-15276783D02*
X14104136Y-15257735D01*
X14104136Y-15257735D02*
X14104136Y-15248211D01*
X14104136Y-15248211D02*
X14113659Y-15229164D01*
X14113659Y-15229164D02*
X14132707Y-15219640D01*
X14132707Y-15219640D02*
X14161278Y-15219640D01*
X14161278Y-15219640D02*
X14180326Y-15229164D01*
X14256517Y-15429164D02*
X14266040Y-15419640D01*
X14266040Y-15419640D02*
X14285088Y-15391068D01*
X14285088Y-15391068D02*
X14294612Y-15372021D01*
X14294612Y-15372021D02*
X14304136Y-15343449D01*
X14304136Y-15343449D02*
X14313659Y-15295830D01*
X14313659Y-15295830D02*
X14313659Y-15257735D01*
X14313659Y-15257735D02*
X14304136Y-15210116D01*
X14304136Y-15210116D02*
X14294612Y-15181545D01*
X14294612Y-15181545D02*
X14285088Y-15162497D01*
X14285088Y-15162497D02*
X14266040Y-15133926D01*
X14266040Y-15133926D02*
X14256517Y-15124402D01*
X14618421Y-15429164D02*
X14608898Y-15419640D01*
X14608898Y-15419640D02*
X14589850Y-15391068D01*
X14589850Y-15391068D02*
X14580326Y-15372021D01*
X14580326Y-15372021D02*
X14570802Y-15343449D01*
X14570802Y-15343449D02*
X14561279Y-15295830D01*
X14561279Y-15295830D02*
X14561279Y-15257735D01*
X14561279Y-15257735D02*
X14570802Y-15210116D01*
X14570802Y-15210116D02*
X14580326Y-15181545D01*
X14580326Y-15181545D02*
X14589850Y-15162497D01*
X14589850Y-15162497D02*
X14608898Y-15133926D01*
X14608898Y-15133926D02*
X14618421Y-15124402D01*
X14694612Y-15219640D02*
X14694612Y-15352973D01*
X14694612Y-15238687D02*
X14704136Y-15229164D01*
X14704136Y-15229164D02*
X14723183Y-15219640D01*
X14723183Y-15219640D02*
X14751755Y-15219640D01*
X14751755Y-15219640D02*
X14770802Y-15229164D01*
X14770802Y-15229164D02*
X14780326Y-15248211D01*
X14780326Y-15248211D02*
X14780326Y-15352973D01*
X14904136Y-15352973D02*
X14885088Y-15343449D01*
X14885088Y-15343449D02*
X14875564Y-15333926D01*
X14875564Y-15333926D02*
X14866040Y-15314878D01*
X14866040Y-15314878D02*
X14866040Y-15257735D01*
X14866040Y-15257735D02*
X14875564Y-15238687D01*
X14875564Y-15238687D02*
X14885088Y-15229164D01*
X14885088Y-15229164D02*
X14904136Y-15219640D01*
X14904136Y-15219640D02*
X14932707Y-15219640D01*
X14932707Y-15219640D02*
X14951755Y-15229164D01*
X14951755Y-15229164D02*
X14961279Y-15238687D01*
X14961279Y-15238687D02*
X14970802Y-15257735D01*
X14970802Y-15257735D02*
X14970802Y-15314878D01*
X14970802Y-15314878D02*
X14961279Y-15333926D01*
X14961279Y-15333926D02*
X14951755Y-15343449D01*
X14951755Y-15343449D02*
X14932707Y-15352973D01*
X14932707Y-15352973D02*
X14904136Y-15352973D01*
X15027945Y-15219640D02*
X15104136Y-15219640D01*
X15056517Y-15152973D02*
X15056517Y-15324402D01*
X15056517Y-15324402D02*
X15066040Y-15343449D01*
X15066040Y-15343449D02*
X15085088Y-15352973D01*
X15085088Y-15352973D02*
X15104136Y-15352973D01*
X15323183Y-15219640D02*
X15323183Y-15419640D01*
X15323183Y-15229164D02*
X15342231Y-15219640D01*
X15342231Y-15219640D02*
X15380326Y-15219640D01*
X15380326Y-15219640D02*
X15399374Y-15229164D01*
X15399374Y-15229164D02*
X15408898Y-15238687D01*
X15408898Y-15238687D02*
X15418421Y-15257735D01*
X15418421Y-15257735D02*
X15418421Y-15314878D01*
X15418421Y-15314878D02*
X15408898Y-15333926D01*
X15408898Y-15333926D02*
X15399374Y-15343449D01*
X15399374Y-15343449D02*
X15380326Y-15352973D01*
X15380326Y-15352973D02*
X15342231Y-15352973D01*
X15342231Y-15352973D02*
X15323183Y-15343449D01*
X15532707Y-15352973D02*
X15513660Y-15343449D01*
X15513660Y-15343449D02*
X15504136Y-15324402D01*
X15504136Y-15324402D02*
X15504136Y-15152973D01*
X15694612Y-15352973D02*
X15694612Y-15248211D01*
X15694612Y-15248211D02*
X15685088Y-15229164D01*
X15685088Y-15229164D02*
X15666041Y-15219640D01*
X15666041Y-15219640D02*
X15627945Y-15219640D01*
X15627945Y-15219640D02*
X15608898Y-15229164D01*
X15694612Y-15343449D02*
X15675564Y-15352973D01*
X15675564Y-15352973D02*
X15627945Y-15352973D01*
X15627945Y-15352973D02*
X15608898Y-15343449D01*
X15608898Y-15343449D02*
X15599374Y-15324402D01*
X15599374Y-15324402D02*
X15599374Y-15305354D01*
X15599374Y-15305354D02*
X15608898Y-15286307D01*
X15608898Y-15286307D02*
X15627945Y-15276783D01*
X15627945Y-15276783D02*
X15675564Y-15276783D01*
X15675564Y-15276783D02*
X15694612Y-15267259D01*
X15761279Y-15219640D02*
X15837469Y-15219640D01*
X15789850Y-15152973D02*
X15789850Y-15324402D01*
X15789850Y-15324402D02*
X15799374Y-15343449D01*
X15799374Y-15343449D02*
X15818421Y-15352973D01*
X15818421Y-15352973D02*
X15837469Y-15352973D01*
X15980326Y-15343449D02*
X15961279Y-15352973D01*
X15961279Y-15352973D02*
X15923183Y-15352973D01*
X15923183Y-15352973D02*
X15904136Y-15343449D01*
X15904136Y-15343449D02*
X15894612Y-15324402D01*
X15894612Y-15324402D02*
X15894612Y-15248211D01*
X15894612Y-15248211D02*
X15904136Y-15229164D01*
X15904136Y-15229164D02*
X15923183Y-15219640D01*
X15923183Y-15219640D02*
X15961279Y-15219640D01*
X15961279Y-15219640D02*
X15980326Y-15229164D01*
X15980326Y-15229164D02*
X15989850Y-15248211D01*
X15989850Y-15248211D02*
X15989850Y-15267259D01*
X15989850Y-15267259D02*
X15894612Y-15286307D01*
X16161279Y-15352973D02*
X16161279Y-15152973D01*
X16161279Y-15343449D02*
X16142231Y-15352973D01*
X16142231Y-15352973D02*
X16104136Y-15352973D01*
X16104136Y-15352973D02*
X16085088Y-15343449D01*
X16085088Y-15343449D02*
X16075564Y-15333926D01*
X16075564Y-15333926D02*
X16066041Y-15314878D01*
X16066041Y-15314878D02*
X16066041Y-15257735D01*
X16066041Y-15257735D02*
X16075564Y-15238687D01*
X16075564Y-15238687D02*
X16085088Y-15229164D01*
X16085088Y-15229164D02*
X16104136Y-15219640D01*
X16104136Y-15219640D02*
X16142231Y-15219640D01*
X16142231Y-15219640D02*
X16161279Y-15229164D01*
X16237469Y-15429164D02*
X16246993Y-15419640D01*
X16246993Y-15419640D02*
X16266041Y-15391068D01*
X16266041Y-15391068D02*
X16275564Y-15372021D01*
X16275564Y-15372021D02*
X16285088Y-15343449D01*
X16285088Y-15343449D02*
X16294612Y-15295830D01*
X16294612Y-15295830D02*
X16294612Y-15257735D01*
X16294612Y-15257735D02*
X16285088Y-15210116D01*
X16285088Y-15210116D02*
X16275564Y-15181545D01*
X16275564Y-15181545D02*
X16266041Y-15162497D01*
X16266041Y-15162497D02*
X16246993Y-15133926D01*
X16246993Y-15133926D02*
X16237469Y-15124402D01*
X8900501Y-15481489D02*
X9100501Y-15681489D01*
X9100501Y-15481489D02*
X8900501Y-15681489D01*
X9100501Y-15581489D02*
G75*
G02*
X8900501Y-15581489I-100000J0D01*
G01*
X8900501Y-15581489D02*
G75*
G02*
X9100501Y-15581489I100000J0D01*
G01*
X9446992Y-15539640D02*
X9446992Y-15672973D01*
X9399373Y-15463449D02*
X9351754Y-15606307D01*
X9351754Y-15606307D02*
X9475564Y-15606307D01*
X9551754Y-15653926D02*
X9561278Y-15663449D01*
X9561278Y-15663449D02*
X9551754Y-15672973D01*
X9551754Y-15672973D02*
X9542231Y-15663449D01*
X9542231Y-15663449D02*
X9551754Y-15653926D01*
X9551754Y-15653926D02*
X9551754Y-15672973D01*
X9751754Y-15672973D02*
X9637469Y-15672973D01*
X9694611Y-15672973D02*
X9694611Y-15472973D01*
X9694611Y-15472973D02*
X9675564Y-15501545D01*
X9675564Y-15501545D02*
X9656516Y-15520592D01*
X9656516Y-15520592D02*
X9637469Y-15530116D01*
X9875564Y-15472973D02*
X9894612Y-15472973D01*
X9894612Y-15472973D02*
X9913659Y-15482497D01*
X9913659Y-15482497D02*
X9923183Y-15492021D01*
X9923183Y-15492021D02*
X9932707Y-15511068D01*
X9932707Y-15511068D02*
X9942231Y-15549164D01*
X9942231Y-15549164D02*
X9942231Y-15596783D01*
X9942231Y-15596783D02*
X9932707Y-15634878D01*
X9932707Y-15634878D02*
X9923183Y-15653926D01*
X9923183Y-15653926D02*
X9913659Y-15663449D01*
X9913659Y-15663449D02*
X9894612Y-15672973D01*
X9894612Y-15672973D02*
X9875564Y-15672973D01*
X9875564Y-15672973D02*
X9856516Y-15663449D01*
X9856516Y-15663449D02*
X9846992Y-15653926D01*
X9846992Y-15653926D02*
X9837469Y-15634878D01*
X9837469Y-15634878D02*
X9827945Y-15596783D01*
X9827945Y-15596783D02*
X9827945Y-15549164D01*
X9827945Y-15549164D02*
X9837469Y-15511068D01*
X9837469Y-15511068D02*
X9846992Y-15492021D01*
X9846992Y-15492021D02*
X9856516Y-15482497D01*
X9856516Y-15482497D02*
X9875564Y-15472973D01*
X10066040Y-15472973D02*
X10085088Y-15472973D01*
X10085088Y-15472973D02*
X10104135Y-15482497D01*
X10104135Y-15482497D02*
X10113659Y-15492021D01*
X10113659Y-15492021D02*
X10123183Y-15511068D01*
X10123183Y-15511068D02*
X10132707Y-15549164D01*
X10132707Y-15549164D02*
X10132707Y-15596783D01*
X10132707Y-15596783D02*
X10123183Y-15634878D01*
X10123183Y-15634878D02*
X10113659Y-15653926D01*
X10113659Y-15653926D02*
X10104135Y-15663449D01*
X10104135Y-15663449D02*
X10085088Y-15672973D01*
X10085088Y-15672973D02*
X10066040Y-15672973D01*
X10066040Y-15672973D02*
X10046992Y-15663449D01*
X10046992Y-15663449D02*
X10037469Y-15653926D01*
X10037469Y-15653926D02*
X10027945Y-15634878D01*
X10027945Y-15634878D02*
X10018421Y-15596783D01*
X10018421Y-15596783D02*
X10018421Y-15549164D01*
X10018421Y-15549164D02*
X10027945Y-15511068D01*
X10027945Y-15511068D02*
X10037469Y-15492021D01*
X10037469Y-15492021D02*
X10046992Y-15482497D01*
X10046992Y-15482497D02*
X10066040Y-15472973D01*
X10218421Y-15672973D02*
X10218421Y-15539640D01*
X10218421Y-15558687D02*
X10227945Y-15549164D01*
X10227945Y-15549164D02*
X10246992Y-15539640D01*
X10246992Y-15539640D02*
X10275564Y-15539640D01*
X10275564Y-15539640D02*
X10294612Y-15549164D01*
X10294612Y-15549164D02*
X10304135Y-15568211D01*
X10304135Y-15568211D02*
X10304135Y-15672973D01*
X10304135Y-15568211D02*
X10313659Y-15549164D01*
X10313659Y-15549164D02*
X10332707Y-15539640D01*
X10332707Y-15539640D02*
X10361278Y-15539640D01*
X10361278Y-15539640D02*
X10380326Y-15549164D01*
X10380326Y-15549164D02*
X10389850Y-15568211D01*
X10389850Y-15568211D02*
X10389850Y-15672973D01*
X10485088Y-15672973D02*
X10485088Y-15539640D01*
X10485088Y-15558687D02*
X10494612Y-15549164D01*
X10494612Y-15549164D02*
X10513659Y-15539640D01*
X10513659Y-15539640D02*
X10542231Y-15539640D01*
X10542231Y-15539640D02*
X10561278Y-15549164D01*
X10561278Y-15549164D02*
X10570802Y-15568211D01*
X10570802Y-15568211D02*
X10570802Y-15672973D01*
X10570802Y-15568211D02*
X10580326Y-15549164D01*
X10580326Y-15549164D02*
X10599373Y-15539640D01*
X10599373Y-15539640D02*
X10627945Y-15539640D01*
X10627945Y-15539640D02*
X10646993Y-15549164D01*
X10646993Y-15549164D02*
X10656516Y-15568211D01*
X10656516Y-15568211D02*
X10656516Y-15672973D01*
X11046993Y-15463449D02*
X10875564Y-15720592D01*
X11304135Y-15472973D02*
X11323183Y-15472973D01*
X11323183Y-15472973D02*
X11342231Y-15482497D01*
X11342231Y-15482497D02*
X11351754Y-15492021D01*
X11351754Y-15492021D02*
X11361278Y-15511068D01*
X11361278Y-15511068D02*
X11370802Y-15549164D01*
X11370802Y-15549164D02*
X11370802Y-15596783D01*
X11370802Y-15596783D02*
X11361278Y-15634878D01*
X11361278Y-15634878D02*
X11351754Y-15653926D01*
X11351754Y-15653926D02*
X11342231Y-15663449D01*
X11342231Y-15663449D02*
X11323183Y-15672973D01*
X11323183Y-15672973D02*
X11304135Y-15672973D01*
X11304135Y-15672973D02*
X11285088Y-15663449D01*
X11285088Y-15663449D02*
X11275564Y-15653926D01*
X11275564Y-15653926D02*
X11266040Y-15634878D01*
X11266040Y-15634878D02*
X11256516Y-15596783D01*
X11256516Y-15596783D02*
X11256516Y-15549164D01*
X11256516Y-15549164D02*
X11266040Y-15511068D01*
X11266040Y-15511068D02*
X11275564Y-15492021D01*
X11275564Y-15492021D02*
X11285088Y-15482497D01*
X11285088Y-15482497D02*
X11304135Y-15472973D01*
X11456516Y-15653926D02*
X11466040Y-15663449D01*
X11466040Y-15663449D02*
X11456516Y-15672973D01*
X11456516Y-15672973D02*
X11446993Y-15663449D01*
X11446993Y-15663449D02*
X11456516Y-15653926D01*
X11456516Y-15653926D02*
X11456516Y-15672973D01*
X11656516Y-15672973D02*
X11542231Y-15672973D01*
X11599373Y-15672973D02*
X11599373Y-15472973D01*
X11599373Y-15472973D02*
X11580326Y-15501545D01*
X11580326Y-15501545D02*
X11561278Y-15520592D01*
X11561278Y-15520592D02*
X11542231Y-15530116D01*
X11827945Y-15472973D02*
X11789850Y-15472973D01*
X11789850Y-15472973D02*
X11770802Y-15482497D01*
X11770802Y-15482497D02*
X11761278Y-15492021D01*
X11761278Y-15492021D02*
X11742231Y-15520592D01*
X11742231Y-15520592D02*
X11732707Y-15558687D01*
X11732707Y-15558687D02*
X11732707Y-15634878D01*
X11732707Y-15634878D02*
X11742231Y-15653926D01*
X11742231Y-15653926D02*
X11751754Y-15663449D01*
X11751754Y-15663449D02*
X11770802Y-15672973D01*
X11770802Y-15672973D02*
X11808897Y-15672973D01*
X11808897Y-15672973D02*
X11827945Y-15663449D01*
X11827945Y-15663449D02*
X11837469Y-15653926D01*
X11837469Y-15653926D02*
X11846993Y-15634878D01*
X11846993Y-15634878D02*
X11846993Y-15587259D01*
X11846993Y-15587259D02*
X11837469Y-15568211D01*
X11837469Y-15568211D02*
X11827945Y-15558687D01*
X11827945Y-15558687D02*
X11808897Y-15549164D01*
X11808897Y-15549164D02*
X11770802Y-15549164D01*
X11770802Y-15549164D02*
X11751754Y-15558687D01*
X11751754Y-15558687D02*
X11742231Y-15568211D01*
X11742231Y-15568211D02*
X11732707Y-15587259D01*
X12037469Y-15672973D02*
X11923183Y-15672973D01*
X11980326Y-15672973D02*
X11980326Y-15472973D01*
X11980326Y-15472973D02*
X11961278Y-15501545D01*
X11961278Y-15501545D02*
X11942231Y-15520592D01*
X11942231Y-15520592D02*
X11923183Y-15530116D01*
X12208897Y-15539640D02*
X12208897Y-15672973D01*
X12161278Y-15463449D02*
X12113659Y-15606307D01*
X12113659Y-15606307D02*
X12237469Y-15606307D01*
X12304135Y-15472973D02*
X12304135Y-15511068D01*
X12380326Y-15472973D02*
X12380326Y-15511068D01*
X12675564Y-15749164D02*
X12666040Y-15739640D01*
X12666040Y-15739640D02*
X12646993Y-15711068D01*
X12646993Y-15711068D02*
X12637469Y-15692021D01*
X12637469Y-15692021D02*
X12627945Y-15663449D01*
X12627945Y-15663449D02*
X12618421Y-15615830D01*
X12618421Y-15615830D02*
X12618421Y-15577735D01*
X12618421Y-15577735D02*
X12627945Y-15530116D01*
X12627945Y-15530116D02*
X12637469Y-15501545D01*
X12637469Y-15501545D02*
X12646993Y-15482497D01*
X12646993Y-15482497D02*
X12666040Y-15453926D01*
X12666040Y-15453926D02*
X12675564Y-15444402D01*
X12846993Y-15472973D02*
X12751755Y-15472973D01*
X12751755Y-15472973D02*
X12742231Y-15568211D01*
X12742231Y-15568211D02*
X12751755Y-15558687D01*
X12751755Y-15558687D02*
X12770802Y-15549164D01*
X12770802Y-15549164D02*
X12818421Y-15549164D01*
X12818421Y-15549164D02*
X12837469Y-15558687D01*
X12837469Y-15558687D02*
X12846993Y-15568211D01*
X12846993Y-15568211D02*
X12856516Y-15587259D01*
X12856516Y-15587259D02*
X12856516Y-15634878D01*
X12856516Y-15634878D02*
X12846993Y-15653926D01*
X12846993Y-15653926D02*
X12837469Y-15663449D01*
X12837469Y-15663449D02*
X12818421Y-15672973D01*
X12818421Y-15672973D02*
X12770802Y-15672973D01*
X12770802Y-15672973D02*
X12751755Y-15663449D01*
X12751755Y-15663449D02*
X12742231Y-15653926D01*
X12980326Y-15472973D02*
X12999374Y-15472973D01*
X12999374Y-15472973D02*
X13018421Y-15482497D01*
X13018421Y-15482497D02*
X13027945Y-15492021D01*
X13027945Y-15492021D02*
X13037469Y-15511068D01*
X13037469Y-15511068D02*
X13046993Y-15549164D01*
X13046993Y-15549164D02*
X13046993Y-15596783D01*
X13046993Y-15596783D02*
X13037469Y-15634878D01*
X13037469Y-15634878D02*
X13027945Y-15653926D01*
X13027945Y-15653926D02*
X13018421Y-15663449D01*
X13018421Y-15663449D02*
X12999374Y-15672973D01*
X12999374Y-15672973D02*
X12980326Y-15672973D01*
X12980326Y-15672973D02*
X12961278Y-15663449D01*
X12961278Y-15663449D02*
X12951755Y-15653926D01*
X12951755Y-15653926D02*
X12942231Y-15634878D01*
X12942231Y-15634878D02*
X12932707Y-15596783D01*
X12932707Y-15596783D02*
X12932707Y-15549164D01*
X12932707Y-15549164D02*
X12942231Y-15511068D01*
X12942231Y-15511068D02*
X12951755Y-15492021D01*
X12951755Y-15492021D02*
X12961278Y-15482497D01*
X12961278Y-15482497D02*
X12980326Y-15472973D01*
X13285088Y-15672973D02*
X13285088Y-15472973D01*
X13370802Y-15672973D02*
X13370802Y-15568211D01*
X13370802Y-15568211D02*
X13361278Y-15549164D01*
X13361278Y-15549164D02*
X13342231Y-15539640D01*
X13342231Y-15539640D02*
X13313659Y-15539640D01*
X13313659Y-15539640D02*
X13294612Y-15549164D01*
X13294612Y-15549164D02*
X13285088Y-15558687D01*
X13494612Y-15672973D02*
X13475564Y-15663449D01*
X13475564Y-15663449D02*
X13466040Y-15653926D01*
X13466040Y-15653926D02*
X13456517Y-15634878D01*
X13456517Y-15634878D02*
X13456517Y-15577735D01*
X13456517Y-15577735D02*
X13466040Y-15558687D01*
X13466040Y-15558687D02*
X13475564Y-15549164D01*
X13475564Y-15549164D02*
X13494612Y-15539640D01*
X13494612Y-15539640D02*
X13523183Y-15539640D01*
X13523183Y-15539640D02*
X13542231Y-15549164D01*
X13542231Y-15549164D02*
X13551755Y-15558687D01*
X13551755Y-15558687D02*
X13561278Y-15577735D01*
X13561278Y-15577735D02*
X13561278Y-15634878D01*
X13561278Y-15634878D02*
X13551755Y-15653926D01*
X13551755Y-15653926D02*
X13542231Y-15663449D01*
X13542231Y-15663449D02*
X13523183Y-15672973D01*
X13523183Y-15672973D02*
X13494612Y-15672973D01*
X13675564Y-15672973D02*
X13656517Y-15663449D01*
X13656517Y-15663449D02*
X13646993Y-15644402D01*
X13646993Y-15644402D02*
X13646993Y-15472973D01*
X13827945Y-15663449D02*
X13808898Y-15672973D01*
X13808898Y-15672973D02*
X13770802Y-15672973D01*
X13770802Y-15672973D02*
X13751755Y-15663449D01*
X13751755Y-15663449D02*
X13742231Y-15644402D01*
X13742231Y-15644402D02*
X13742231Y-15568211D01*
X13742231Y-15568211D02*
X13751755Y-15549164D01*
X13751755Y-15549164D02*
X13770802Y-15539640D01*
X13770802Y-15539640D02*
X13808898Y-15539640D01*
X13808898Y-15539640D02*
X13827945Y-15549164D01*
X13827945Y-15549164D02*
X13837469Y-15568211D01*
X13837469Y-15568211D02*
X13837469Y-15587259D01*
X13837469Y-15587259D02*
X13742231Y-15606307D01*
X13913659Y-15663449D02*
X13932707Y-15672973D01*
X13932707Y-15672973D02*
X13970802Y-15672973D01*
X13970802Y-15672973D02*
X13989850Y-15663449D01*
X13989850Y-15663449D02*
X13999374Y-15644402D01*
X13999374Y-15644402D02*
X13999374Y-15634878D01*
X13999374Y-15634878D02*
X13989850Y-15615830D01*
X13989850Y-15615830D02*
X13970802Y-15606307D01*
X13970802Y-15606307D02*
X13942231Y-15606307D01*
X13942231Y-15606307D02*
X13923183Y-15596783D01*
X13923183Y-15596783D02*
X13913659Y-15577735D01*
X13913659Y-15577735D02*
X13913659Y-15568211D01*
X13913659Y-15568211D02*
X13923183Y-15549164D01*
X13923183Y-15549164D02*
X13942231Y-15539640D01*
X13942231Y-15539640D02*
X13970802Y-15539640D01*
X13970802Y-15539640D02*
X13989850Y-15549164D01*
X14066040Y-15749164D02*
X14075564Y-15739640D01*
X14075564Y-15739640D02*
X14094612Y-15711068D01*
X14094612Y-15711068D02*
X14104136Y-15692021D01*
X14104136Y-15692021D02*
X14113659Y-15663449D01*
X14113659Y-15663449D02*
X14123183Y-15615830D01*
X14123183Y-15615830D02*
X14123183Y-15577735D01*
X14123183Y-15577735D02*
X14113659Y-15530116D01*
X14113659Y-15530116D02*
X14104136Y-15501545D01*
X14104136Y-15501545D02*
X14094612Y-15482497D01*
X14094612Y-15482497D02*
X14075564Y-15453926D01*
X14075564Y-15453926D02*
X14066040Y-15444402D01*
X14427945Y-15749164D02*
X14418421Y-15739640D01*
X14418421Y-15739640D02*
X14399374Y-15711068D01*
X14399374Y-15711068D02*
X14389850Y-15692021D01*
X14389850Y-15692021D02*
X14380326Y-15663449D01*
X14380326Y-15663449D02*
X14370802Y-15615830D01*
X14370802Y-15615830D02*
X14370802Y-15577735D01*
X14370802Y-15577735D02*
X14380326Y-15530116D01*
X14380326Y-15530116D02*
X14389850Y-15501545D01*
X14389850Y-15501545D02*
X14399374Y-15482497D01*
X14399374Y-15482497D02*
X14418421Y-15453926D01*
X14418421Y-15453926D02*
X14427945Y-15444402D01*
X14504136Y-15539640D02*
X14504136Y-15672973D01*
X14504136Y-15558687D02*
X14513659Y-15549164D01*
X14513659Y-15549164D02*
X14532707Y-15539640D01*
X14532707Y-15539640D02*
X14561279Y-15539640D01*
X14561279Y-15539640D02*
X14580326Y-15549164D01*
X14580326Y-15549164D02*
X14589850Y-15568211D01*
X14589850Y-15568211D02*
X14589850Y-15672973D01*
X14713659Y-15672973D02*
X14694612Y-15663449D01*
X14694612Y-15663449D02*
X14685088Y-15653926D01*
X14685088Y-15653926D02*
X14675564Y-15634878D01*
X14675564Y-15634878D02*
X14675564Y-15577735D01*
X14675564Y-15577735D02*
X14685088Y-15558687D01*
X14685088Y-15558687D02*
X14694612Y-15549164D01*
X14694612Y-15549164D02*
X14713659Y-15539640D01*
X14713659Y-15539640D02*
X14742231Y-15539640D01*
X14742231Y-15539640D02*
X14761279Y-15549164D01*
X14761279Y-15549164D02*
X14770802Y-15558687D01*
X14770802Y-15558687D02*
X14780326Y-15577735D01*
X14780326Y-15577735D02*
X14780326Y-15634878D01*
X14780326Y-15634878D02*
X14770802Y-15653926D01*
X14770802Y-15653926D02*
X14761279Y-15663449D01*
X14761279Y-15663449D02*
X14742231Y-15672973D01*
X14742231Y-15672973D02*
X14713659Y-15672973D01*
X14837469Y-15539640D02*
X14913659Y-15539640D01*
X14866040Y-15472973D02*
X14866040Y-15644402D01*
X14866040Y-15644402D02*
X14875564Y-15663449D01*
X14875564Y-15663449D02*
X14894612Y-15672973D01*
X14894612Y-15672973D02*
X14913659Y-15672973D01*
X15132707Y-15539640D02*
X15132707Y-15739640D01*
X15132707Y-15549164D02*
X15151755Y-15539640D01*
X15151755Y-15539640D02*
X15189850Y-15539640D01*
X15189850Y-15539640D02*
X15208898Y-15549164D01*
X15208898Y-15549164D02*
X15218421Y-15558687D01*
X15218421Y-15558687D02*
X15227945Y-15577735D01*
X15227945Y-15577735D02*
X15227945Y-15634878D01*
X15227945Y-15634878D02*
X15218421Y-15653926D01*
X15218421Y-15653926D02*
X15208898Y-15663449D01*
X15208898Y-15663449D02*
X15189850Y-15672973D01*
X15189850Y-15672973D02*
X15151755Y-15672973D01*
X15151755Y-15672973D02*
X15132707Y-15663449D01*
X15342231Y-15672973D02*
X15323183Y-15663449D01*
X15323183Y-15663449D02*
X15313660Y-15644402D01*
X15313660Y-15644402D02*
X15313660Y-15472973D01*
X15504136Y-15672973D02*
X15504136Y-15568211D01*
X15504136Y-15568211D02*
X15494612Y-15549164D01*
X15494612Y-15549164D02*
X15475564Y-15539640D01*
X15475564Y-15539640D02*
X15437469Y-15539640D01*
X15437469Y-15539640D02*
X15418421Y-15549164D01*
X15504136Y-15663449D02*
X15485088Y-15672973D01*
X15485088Y-15672973D02*
X15437469Y-15672973D01*
X15437469Y-15672973D02*
X15418421Y-15663449D01*
X15418421Y-15663449D02*
X15408898Y-15644402D01*
X15408898Y-15644402D02*
X15408898Y-15625354D01*
X15408898Y-15625354D02*
X15418421Y-15606307D01*
X15418421Y-15606307D02*
X15437469Y-15596783D01*
X15437469Y-15596783D02*
X15485088Y-15596783D01*
X15485088Y-15596783D02*
X15504136Y-15587259D01*
X15570802Y-15539640D02*
X15646993Y-15539640D01*
X15599374Y-15472973D02*
X15599374Y-15644402D01*
X15599374Y-15644402D02*
X15608898Y-15663449D01*
X15608898Y-15663449D02*
X15627945Y-15672973D01*
X15627945Y-15672973D02*
X15646993Y-15672973D01*
X15789850Y-15663449D02*
X15770802Y-15672973D01*
X15770802Y-15672973D02*
X15732707Y-15672973D01*
X15732707Y-15672973D02*
X15713660Y-15663449D01*
X15713660Y-15663449D02*
X15704136Y-15644402D01*
X15704136Y-15644402D02*
X15704136Y-15568211D01*
X15704136Y-15568211D02*
X15713660Y-15549164D01*
X15713660Y-15549164D02*
X15732707Y-15539640D01*
X15732707Y-15539640D02*
X15770802Y-15539640D01*
X15770802Y-15539640D02*
X15789850Y-15549164D01*
X15789850Y-15549164D02*
X15799374Y-15568211D01*
X15799374Y-15568211D02*
X15799374Y-15587259D01*
X15799374Y-15587259D02*
X15704136Y-15606307D01*
X15970802Y-15672973D02*
X15970802Y-15472973D01*
X15970802Y-15663449D02*
X15951755Y-15672973D01*
X15951755Y-15672973D02*
X15913660Y-15672973D01*
X15913660Y-15672973D02*
X15894612Y-15663449D01*
X15894612Y-15663449D02*
X15885088Y-15653926D01*
X15885088Y-15653926D02*
X15875564Y-15634878D01*
X15875564Y-15634878D02*
X15875564Y-15577735D01*
X15875564Y-15577735D02*
X15885088Y-15558687D01*
X15885088Y-15558687D02*
X15894612Y-15549164D01*
X15894612Y-15549164D02*
X15913660Y-15539640D01*
X15913660Y-15539640D02*
X15951755Y-15539640D01*
X15951755Y-15539640D02*
X15970802Y-15549164D01*
X16046993Y-15749164D02*
X16056517Y-15739640D01*
X16056517Y-15739640D02*
X16075564Y-15711068D01*
X16075564Y-15711068D02*
X16085088Y-15692021D01*
X16085088Y-15692021D02*
X16094612Y-15663449D01*
X16094612Y-15663449D02*
X16104136Y-15615830D01*
X16104136Y-15615830D02*
X16104136Y-15577735D01*
X16104136Y-15577735D02*
X16094612Y-15530116D01*
X16094612Y-15530116D02*
X16085088Y-15501545D01*
X16085088Y-15501545D02*
X16075564Y-15482497D01*
X16075564Y-15482497D02*
X16056517Y-15453926D01*
X16056517Y-15453926D02*
X16046993Y-15444402D01*
X8900501Y-15801489D02*
X9100501Y-16001489D01*
X9100501Y-15801489D02*
X8900501Y-16001489D01*
X9000501Y-15801489D02*
X9000501Y-16001489D01*
X8900501Y-15901489D02*
X9100501Y-15901489D01*
X9446992Y-15859640D02*
X9446992Y-15992973D01*
X9399373Y-15783449D02*
X9351754Y-15926307D01*
X9351754Y-15926307D02*
X9475564Y-15926307D01*
X9551754Y-15973926D02*
X9561278Y-15983449D01*
X9561278Y-15983449D02*
X9551754Y-15992973D01*
X9551754Y-15992973D02*
X9542231Y-15983449D01*
X9542231Y-15983449D02*
X9551754Y-15973926D01*
X9551754Y-15973926D02*
X9551754Y-15992973D01*
X9627945Y-15792973D02*
X9751754Y-15792973D01*
X9751754Y-15792973D02*
X9685088Y-15869164D01*
X9685088Y-15869164D02*
X9713659Y-15869164D01*
X9713659Y-15869164D02*
X9732707Y-15878687D01*
X9732707Y-15878687D02*
X9742231Y-15888211D01*
X9742231Y-15888211D02*
X9751754Y-15907259D01*
X9751754Y-15907259D02*
X9751754Y-15954878D01*
X9751754Y-15954878D02*
X9742231Y-15973926D01*
X9742231Y-15973926D02*
X9732707Y-15983449D01*
X9732707Y-15983449D02*
X9713659Y-15992973D01*
X9713659Y-15992973D02*
X9656516Y-15992973D01*
X9656516Y-15992973D02*
X9637469Y-15983449D01*
X9637469Y-15983449D02*
X9627945Y-15973926D01*
X9875564Y-15792973D02*
X9894612Y-15792973D01*
X9894612Y-15792973D02*
X9913659Y-15802497D01*
X9913659Y-15802497D02*
X9923183Y-15812021D01*
X9923183Y-15812021D02*
X9932707Y-15831068D01*
X9932707Y-15831068D02*
X9942231Y-15869164D01*
X9942231Y-15869164D02*
X9942231Y-15916783D01*
X9942231Y-15916783D02*
X9932707Y-15954878D01*
X9932707Y-15954878D02*
X9923183Y-15973926D01*
X9923183Y-15973926D02*
X9913659Y-15983449D01*
X9913659Y-15983449D02*
X9894612Y-15992973D01*
X9894612Y-15992973D02*
X9875564Y-15992973D01*
X9875564Y-15992973D02*
X9856516Y-15983449D01*
X9856516Y-15983449D02*
X9846992Y-15973926D01*
X9846992Y-15973926D02*
X9837469Y-15954878D01*
X9837469Y-15954878D02*
X9827945Y-15916783D01*
X9827945Y-15916783D02*
X9827945Y-15869164D01*
X9827945Y-15869164D02*
X9837469Y-15831068D01*
X9837469Y-15831068D02*
X9846992Y-15812021D01*
X9846992Y-15812021D02*
X9856516Y-15802497D01*
X9856516Y-15802497D02*
X9875564Y-15792973D01*
X10066040Y-15792973D02*
X10085088Y-15792973D01*
X10085088Y-15792973D02*
X10104135Y-15802497D01*
X10104135Y-15802497D02*
X10113659Y-15812021D01*
X10113659Y-15812021D02*
X10123183Y-15831068D01*
X10123183Y-15831068D02*
X10132707Y-15869164D01*
X10132707Y-15869164D02*
X10132707Y-15916783D01*
X10132707Y-15916783D02*
X10123183Y-15954878D01*
X10123183Y-15954878D02*
X10113659Y-15973926D01*
X10113659Y-15973926D02*
X10104135Y-15983449D01*
X10104135Y-15983449D02*
X10085088Y-15992973D01*
X10085088Y-15992973D02*
X10066040Y-15992973D01*
X10066040Y-15992973D02*
X10046992Y-15983449D01*
X10046992Y-15983449D02*
X10037469Y-15973926D01*
X10037469Y-15973926D02*
X10027945Y-15954878D01*
X10027945Y-15954878D02*
X10018421Y-15916783D01*
X10018421Y-15916783D02*
X10018421Y-15869164D01*
X10018421Y-15869164D02*
X10027945Y-15831068D01*
X10027945Y-15831068D02*
X10037469Y-15812021D01*
X10037469Y-15812021D02*
X10046992Y-15802497D01*
X10046992Y-15802497D02*
X10066040Y-15792973D01*
X10218421Y-15992973D02*
X10218421Y-15859640D01*
X10218421Y-15878687D02*
X10227945Y-15869164D01*
X10227945Y-15869164D02*
X10246992Y-15859640D01*
X10246992Y-15859640D02*
X10275564Y-15859640D01*
X10275564Y-15859640D02*
X10294612Y-15869164D01*
X10294612Y-15869164D02*
X10304135Y-15888211D01*
X10304135Y-15888211D02*
X10304135Y-15992973D01*
X10304135Y-15888211D02*
X10313659Y-15869164D01*
X10313659Y-15869164D02*
X10332707Y-15859640D01*
X10332707Y-15859640D02*
X10361278Y-15859640D01*
X10361278Y-15859640D02*
X10380326Y-15869164D01*
X10380326Y-15869164D02*
X10389850Y-15888211D01*
X10389850Y-15888211D02*
X10389850Y-15992973D01*
X10485088Y-15992973D02*
X10485088Y-15859640D01*
X10485088Y-15878687D02*
X10494612Y-15869164D01*
X10494612Y-15869164D02*
X10513659Y-15859640D01*
X10513659Y-15859640D02*
X10542231Y-15859640D01*
X10542231Y-15859640D02*
X10561278Y-15869164D01*
X10561278Y-15869164D02*
X10570802Y-15888211D01*
X10570802Y-15888211D02*
X10570802Y-15992973D01*
X10570802Y-15888211D02*
X10580326Y-15869164D01*
X10580326Y-15869164D02*
X10599373Y-15859640D01*
X10599373Y-15859640D02*
X10627945Y-15859640D01*
X10627945Y-15859640D02*
X10646993Y-15869164D01*
X10646993Y-15869164D02*
X10656516Y-15888211D01*
X10656516Y-15888211D02*
X10656516Y-15992973D01*
X11046993Y-15783449D02*
X10875564Y-16040592D01*
X11304135Y-15792973D02*
X11323183Y-15792973D01*
X11323183Y-15792973D02*
X11342231Y-15802497D01*
X11342231Y-15802497D02*
X11351754Y-15812021D01*
X11351754Y-15812021D02*
X11361278Y-15831068D01*
X11361278Y-15831068D02*
X11370802Y-15869164D01*
X11370802Y-15869164D02*
X11370802Y-15916783D01*
X11370802Y-15916783D02*
X11361278Y-15954878D01*
X11361278Y-15954878D02*
X11351754Y-15973926D01*
X11351754Y-15973926D02*
X11342231Y-15983449D01*
X11342231Y-15983449D02*
X11323183Y-15992973D01*
X11323183Y-15992973D02*
X11304135Y-15992973D01*
X11304135Y-15992973D02*
X11285088Y-15983449D01*
X11285088Y-15983449D02*
X11275564Y-15973926D01*
X11275564Y-15973926D02*
X11266040Y-15954878D01*
X11266040Y-15954878D02*
X11256516Y-15916783D01*
X11256516Y-15916783D02*
X11256516Y-15869164D01*
X11256516Y-15869164D02*
X11266040Y-15831068D01*
X11266040Y-15831068D02*
X11275564Y-15812021D01*
X11275564Y-15812021D02*
X11285088Y-15802497D01*
X11285088Y-15802497D02*
X11304135Y-15792973D01*
X11456516Y-15973926D02*
X11466040Y-15983449D01*
X11466040Y-15983449D02*
X11456516Y-15992973D01*
X11456516Y-15992973D02*
X11446993Y-15983449D01*
X11446993Y-15983449D02*
X11456516Y-15973926D01*
X11456516Y-15973926D02*
X11456516Y-15992973D01*
X11656516Y-15992973D02*
X11542231Y-15992973D01*
X11599373Y-15992973D02*
X11599373Y-15792973D01*
X11599373Y-15792973D02*
X11580326Y-15821545D01*
X11580326Y-15821545D02*
X11561278Y-15840592D01*
X11561278Y-15840592D02*
X11542231Y-15850116D01*
X11827945Y-15792973D02*
X11789850Y-15792973D01*
X11789850Y-15792973D02*
X11770802Y-15802497D01*
X11770802Y-15802497D02*
X11761278Y-15812021D01*
X11761278Y-15812021D02*
X11742231Y-15840592D01*
X11742231Y-15840592D02*
X11732707Y-15878687D01*
X11732707Y-15878687D02*
X11732707Y-15954878D01*
X11732707Y-15954878D02*
X11742231Y-15973926D01*
X11742231Y-15973926D02*
X11751754Y-15983449D01*
X11751754Y-15983449D02*
X11770802Y-15992973D01*
X11770802Y-15992973D02*
X11808897Y-15992973D01*
X11808897Y-15992973D02*
X11827945Y-15983449D01*
X11827945Y-15983449D02*
X11837469Y-15973926D01*
X11837469Y-15973926D02*
X11846993Y-15954878D01*
X11846993Y-15954878D02*
X11846993Y-15907259D01*
X11846993Y-15907259D02*
X11837469Y-15888211D01*
X11837469Y-15888211D02*
X11827945Y-15878687D01*
X11827945Y-15878687D02*
X11808897Y-15869164D01*
X11808897Y-15869164D02*
X11770802Y-15869164D01*
X11770802Y-15869164D02*
X11751754Y-15878687D01*
X11751754Y-15878687D02*
X11742231Y-15888211D01*
X11742231Y-15888211D02*
X11732707Y-15907259D01*
X11942231Y-15992973D02*
X11980326Y-15992973D01*
X11980326Y-15992973D02*
X11999374Y-15983449D01*
X11999374Y-15983449D02*
X12008897Y-15973926D01*
X12008897Y-15973926D02*
X12027945Y-15945354D01*
X12027945Y-15945354D02*
X12037469Y-15907259D01*
X12037469Y-15907259D02*
X12037469Y-15831068D01*
X12037469Y-15831068D02*
X12027945Y-15812021D01*
X12027945Y-15812021D02*
X12018421Y-15802497D01*
X12018421Y-15802497D02*
X11999374Y-15792973D01*
X11999374Y-15792973D02*
X11961278Y-15792973D01*
X11961278Y-15792973D02*
X11942231Y-15802497D01*
X11942231Y-15802497D02*
X11932707Y-15812021D01*
X11932707Y-15812021D02*
X11923183Y-15831068D01*
X11923183Y-15831068D02*
X11923183Y-15878687D01*
X11923183Y-15878687D02*
X11932707Y-15897735D01*
X11932707Y-15897735D02*
X11942231Y-15907259D01*
X11942231Y-15907259D02*
X11961278Y-15916783D01*
X11961278Y-15916783D02*
X11999374Y-15916783D01*
X11999374Y-15916783D02*
X12018421Y-15907259D01*
X12018421Y-15907259D02*
X12027945Y-15897735D01*
X12027945Y-15897735D02*
X12037469Y-15878687D01*
X12104135Y-15792973D02*
X12227945Y-15792973D01*
X12227945Y-15792973D02*
X12161278Y-15869164D01*
X12161278Y-15869164D02*
X12189850Y-15869164D01*
X12189850Y-15869164D02*
X12208897Y-15878687D01*
X12208897Y-15878687D02*
X12218421Y-15888211D01*
X12218421Y-15888211D02*
X12227945Y-15907259D01*
X12227945Y-15907259D02*
X12227945Y-15954878D01*
X12227945Y-15954878D02*
X12218421Y-15973926D01*
X12218421Y-15973926D02*
X12208897Y-15983449D01*
X12208897Y-15983449D02*
X12189850Y-15992973D01*
X12189850Y-15992973D02*
X12132707Y-15992973D01*
X12132707Y-15992973D02*
X12113659Y-15983449D01*
X12113659Y-15983449D02*
X12104135Y-15973926D01*
X12304135Y-15792973D02*
X12304135Y-15831068D01*
X12380326Y-15792973D02*
X12380326Y-15831068D01*
X12675564Y-16069164D02*
X12666040Y-16059640D01*
X12666040Y-16059640D02*
X12646993Y-16031068D01*
X12646993Y-16031068D02*
X12637469Y-16012021D01*
X12637469Y-16012021D02*
X12627945Y-15983449D01*
X12627945Y-15983449D02*
X12618421Y-15935830D01*
X12618421Y-15935830D02*
X12618421Y-15897735D01*
X12618421Y-15897735D02*
X12627945Y-15850116D01*
X12627945Y-15850116D02*
X12637469Y-15821545D01*
X12637469Y-15821545D02*
X12646993Y-15802497D01*
X12646993Y-15802497D02*
X12666040Y-15773926D01*
X12666040Y-15773926D02*
X12675564Y-15764402D01*
X12732707Y-15792973D02*
X12866040Y-15792973D01*
X12866040Y-15792973D02*
X12780326Y-15992973D01*
X13094612Y-15992973D02*
X13094612Y-15792973D01*
X13180326Y-15992973D02*
X13180326Y-15888211D01*
X13180326Y-15888211D02*
X13170802Y-15869164D01*
X13170802Y-15869164D02*
X13151755Y-15859640D01*
X13151755Y-15859640D02*
X13123183Y-15859640D01*
X13123183Y-15859640D02*
X13104136Y-15869164D01*
X13104136Y-15869164D02*
X13094612Y-15878687D01*
X13304136Y-15992973D02*
X13285088Y-15983449D01*
X13285088Y-15983449D02*
X13275564Y-15973926D01*
X13275564Y-15973926D02*
X13266040Y-15954878D01*
X13266040Y-15954878D02*
X13266040Y-15897735D01*
X13266040Y-15897735D02*
X13275564Y-15878687D01*
X13275564Y-15878687D02*
X13285088Y-15869164D01*
X13285088Y-15869164D02*
X13304136Y-15859640D01*
X13304136Y-15859640D02*
X13332707Y-15859640D01*
X13332707Y-15859640D02*
X13351755Y-15869164D01*
X13351755Y-15869164D02*
X13361278Y-15878687D01*
X13361278Y-15878687D02*
X13370802Y-15897735D01*
X13370802Y-15897735D02*
X13370802Y-15954878D01*
X13370802Y-15954878D02*
X13361278Y-15973926D01*
X13361278Y-15973926D02*
X13351755Y-15983449D01*
X13351755Y-15983449D02*
X13332707Y-15992973D01*
X13332707Y-15992973D02*
X13304136Y-15992973D01*
X13485088Y-15992973D02*
X13466040Y-15983449D01*
X13466040Y-15983449D02*
X13456517Y-15964402D01*
X13456517Y-15964402D02*
X13456517Y-15792973D01*
X13637469Y-15983449D02*
X13618421Y-15992973D01*
X13618421Y-15992973D02*
X13580326Y-15992973D01*
X13580326Y-15992973D02*
X13561278Y-15983449D01*
X13561278Y-15983449D02*
X13551755Y-15964402D01*
X13551755Y-15964402D02*
X13551755Y-15888211D01*
X13551755Y-15888211D02*
X13561278Y-15869164D01*
X13561278Y-15869164D02*
X13580326Y-15859640D01*
X13580326Y-15859640D02*
X13618421Y-15859640D01*
X13618421Y-15859640D02*
X13637469Y-15869164D01*
X13637469Y-15869164D02*
X13646993Y-15888211D01*
X13646993Y-15888211D02*
X13646993Y-15907259D01*
X13646993Y-15907259D02*
X13551755Y-15926307D01*
X13723183Y-15983449D02*
X13742231Y-15992973D01*
X13742231Y-15992973D02*
X13780326Y-15992973D01*
X13780326Y-15992973D02*
X13799374Y-15983449D01*
X13799374Y-15983449D02*
X13808898Y-15964402D01*
X13808898Y-15964402D02*
X13808898Y-15954878D01*
X13808898Y-15954878D02*
X13799374Y-15935830D01*
X13799374Y-15935830D02*
X13780326Y-15926307D01*
X13780326Y-15926307D02*
X13751755Y-15926307D01*
X13751755Y-15926307D02*
X13732707Y-15916783D01*
X13732707Y-15916783D02*
X13723183Y-15897735D01*
X13723183Y-15897735D02*
X13723183Y-15888211D01*
X13723183Y-15888211D02*
X13732707Y-15869164D01*
X13732707Y-15869164D02*
X13751755Y-15859640D01*
X13751755Y-15859640D02*
X13780326Y-15859640D01*
X13780326Y-15859640D02*
X13799374Y-15869164D01*
X13875564Y-16069164D02*
X13885088Y-16059640D01*
X13885088Y-16059640D02*
X13904136Y-16031068D01*
X13904136Y-16031068D02*
X13913659Y-16012021D01*
X13913659Y-16012021D02*
X13923183Y-15983449D01*
X13923183Y-15983449D02*
X13932707Y-15935830D01*
X13932707Y-15935830D02*
X13932707Y-15897735D01*
X13932707Y-15897735D02*
X13923183Y-15850116D01*
X13923183Y-15850116D02*
X13913659Y-15821545D01*
X13913659Y-15821545D02*
X13904136Y-15802497D01*
X13904136Y-15802497D02*
X13885088Y-15773926D01*
X13885088Y-15773926D02*
X13875564Y-15764402D01*
X14237469Y-16069164D02*
X14227945Y-16059640D01*
X14227945Y-16059640D02*
X14208898Y-16031068D01*
X14208898Y-16031068D02*
X14199374Y-16012021D01*
X14199374Y-16012021D02*
X14189850Y-15983449D01*
X14189850Y-15983449D02*
X14180326Y-15935830D01*
X14180326Y-15935830D02*
X14180326Y-15897735D01*
X14180326Y-15897735D02*
X14189850Y-15850116D01*
X14189850Y-15850116D02*
X14199374Y-15821545D01*
X14199374Y-15821545D02*
X14208898Y-15802497D01*
X14208898Y-15802497D02*
X14227945Y-15773926D01*
X14227945Y-15773926D02*
X14237469Y-15764402D01*
X14313659Y-15859640D02*
X14313659Y-15992973D01*
X14313659Y-15878687D02*
X14323183Y-15869164D01*
X14323183Y-15869164D02*
X14342231Y-15859640D01*
X14342231Y-15859640D02*
X14370802Y-15859640D01*
X14370802Y-15859640D02*
X14389850Y-15869164D01*
X14389850Y-15869164D02*
X14399374Y-15888211D01*
X14399374Y-15888211D02*
X14399374Y-15992973D01*
X14523183Y-15992973D02*
X14504136Y-15983449D01*
X14504136Y-15983449D02*
X14494612Y-15973926D01*
X14494612Y-15973926D02*
X14485088Y-15954878D01*
X14485088Y-15954878D02*
X14485088Y-15897735D01*
X14485088Y-15897735D02*
X14494612Y-15878687D01*
X14494612Y-15878687D02*
X14504136Y-15869164D01*
X14504136Y-15869164D02*
X14523183Y-15859640D01*
X14523183Y-15859640D02*
X14551755Y-15859640D01*
X14551755Y-15859640D02*
X14570802Y-15869164D01*
X14570802Y-15869164D02*
X14580326Y-15878687D01*
X14580326Y-15878687D02*
X14589850Y-15897735D01*
X14589850Y-15897735D02*
X14589850Y-15954878D01*
X14589850Y-15954878D02*
X14580326Y-15973926D01*
X14580326Y-15973926D02*
X14570802Y-15983449D01*
X14570802Y-15983449D02*
X14551755Y-15992973D01*
X14551755Y-15992973D02*
X14523183Y-15992973D01*
X14646993Y-15859640D02*
X14723183Y-15859640D01*
X14675564Y-15792973D02*
X14675564Y-15964402D01*
X14675564Y-15964402D02*
X14685088Y-15983449D01*
X14685088Y-15983449D02*
X14704136Y-15992973D01*
X14704136Y-15992973D02*
X14723183Y-15992973D01*
X14942231Y-15859640D02*
X14942231Y-16059640D01*
X14942231Y-15869164D02*
X14961279Y-15859640D01*
X14961279Y-15859640D02*
X14999374Y-15859640D01*
X14999374Y-15859640D02*
X15018421Y-15869164D01*
X15018421Y-15869164D02*
X15027945Y-15878687D01*
X15027945Y-15878687D02*
X15037469Y-15897735D01*
X15037469Y-15897735D02*
X15037469Y-15954878D01*
X15037469Y-15954878D02*
X15027945Y-15973926D01*
X15027945Y-15973926D02*
X15018421Y-15983449D01*
X15018421Y-15983449D02*
X14999374Y-15992973D01*
X14999374Y-15992973D02*
X14961279Y-15992973D01*
X14961279Y-15992973D02*
X14942231Y-15983449D01*
X15151755Y-15992973D02*
X15132707Y-15983449D01*
X15132707Y-15983449D02*
X15123183Y-15964402D01*
X15123183Y-15964402D02*
X15123183Y-15792973D01*
X15313660Y-15992973D02*
X15313660Y-15888211D01*
X15313660Y-15888211D02*
X15304136Y-15869164D01*
X15304136Y-15869164D02*
X15285088Y-15859640D01*
X15285088Y-15859640D02*
X15246993Y-15859640D01*
X15246993Y-15859640D02*
X15227945Y-15869164D01*
X15313660Y-15983449D02*
X15294612Y-15992973D01*
X15294612Y-15992973D02*
X15246993Y-15992973D01*
X15246993Y-15992973D02*
X15227945Y-15983449D01*
X15227945Y-15983449D02*
X15218421Y-15964402D01*
X15218421Y-15964402D02*
X15218421Y-15945354D01*
X15218421Y-15945354D02*
X15227945Y-15926307D01*
X15227945Y-15926307D02*
X15246993Y-15916783D01*
X15246993Y-15916783D02*
X15294612Y-15916783D01*
X15294612Y-15916783D02*
X15313660Y-15907259D01*
X15380326Y-15859640D02*
X15456517Y-15859640D01*
X15408898Y-15792973D02*
X15408898Y-15964402D01*
X15408898Y-15964402D02*
X15418421Y-15983449D01*
X15418421Y-15983449D02*
X15437469Y-15992973D01*
X15437469Y-15992973D02*
X15456517Y-15992973D01*
X15599374Y-15983449D02*
X15580326Y-15992973D01*
X15580326Y-15992973D02*
X15542231Y-15992973D01*
X15542231Y-15992973D02*
X15523183Y-15983449D01*
X15523183Y-15983449D02*
X15513660Y-15964402D01*
X15513660Y-15964402D02*
X15513660Y-15888211D01*
X15513660Y-15888211D02*
X15523183Y-15869164D01*
X15523183Y-15869164D02*
X15542231Y-15859640D01*
X15542231Y-15859640D02*
X15580326Y-15859640D01*
X15580326Y-15859640D02*
X15599374Y-15869164D01*
X15599374Y-15869164D02*
X15608898Y-15888211D01*
X15608898Y-15888211D02*
X15608898Y-15907259D01*
X15608898Y-15907259D02*
X15513660Y-15926307D01*
X15780326Y-15992973D02*
X15780326Y-15792973D01*
X15780326Y-15983449D02*
X15761279Y-15992973D01*
X15761279Y-15992973D02*
X15723183Y-15992973D01*
X15723183Y-15992973D02*
X15704136Y-15983449D01*
X15704136Y-15983449D02*
X15694612Y-15973926D01*
X15694612Y-15973926D02*
X15685088Y-15954878D01*
X15685088Y-15954878D02*
X15685088Y-15897735D01*
X15685088Y-15897735D02*
X15694612Y-15878687D01*
X15694612Y-15878687D02*
X15704136Y-15869164D01*
X15704136Y-15869164D02*
X15723183Y-15859640D01*
X15723183Y-15859640D02*
X15761279Y-15859640D01*
X15761279Y-15859640D02*
X15780326Y-15869164D01*
X15856517Y-16069164D02*
X15866041Y-16059640D01*
X15866041Y-16059640D02*
X15885088Y-16031068D01*
X15885088Y-16031068D02*
X15894612Y-16012021D01*
X15894612Y-16012021D02*
X15904136Y-15983449D01*
X15904136Y-15983449D02*
X15913660Y-15935830D01*
X15913660Y-15935830D02*
X15913660Y-15897735D01*
X15913660Y-15897735D02*
X15904136Y-15850116D01*
X15904136Y-15850116D02*
X15894612Y-15821545D01*
X15894612Y-15821545D02*
X15885088Y-15802497D01*
X15885088Y-15802497D02*
X15866041Y-15773926D01*
X15866041Y-15773926D02*
X15856517Y-15764402D01*
M02*
