%TF.GenerationSoftware,KiCad,Pcbnew,9.0.2*%
%TF.CreationDate,2025-06-19T22:30:11+08:00*%
%TF.ProjectId,eggada50_wireless_manually_routed,65676761-6461-4353-905f-776972656c65,0.2*%
%TF.SameCoordinates,Original*%
%TF.FileFunction,Copper,L2,Bot*%
%TF.FilePolarity,Positive*%
%FSLAX46Y46*%
G04 Gerber Fmt 4.6, Leading zero omitted, Abs format (unit mm)*
G04 Created by KiCad (PCBNEW 9.0.2) date 2025-06-19 22:30:11*
%MOMM*%
%LPD*%
G01*
G04 APERTURE LIST*
G04 Aperture macros list*
%AMRotRect*
0 Rectangle, with rotation*
0 The origin of the aperture is its center*
0 $1 length*
0 $2 width*
0 $3 Rotation angle, in degrees counterclockwise*
0 Add horizontal line*
21,1,$1,$2,0,0,$3*%
%AMFreePoly0*
4,1,6,0.600000,-1.000000,0.000000,-0.400000,-0.600000,-1.000000,-0.600000,0.250000,0.600000,0.250000,0.600000,-1.000000,0.600000,-1.000000,$1*%
%AMFreePoly1*
4,1,6,0.600000,-0.200000,0.600000,-0.400000,-0.600000,-0.400000,-0.600000,-0.200000,0.000000,0.400000,0.600000,-0.200000,0.600000,-0.200000,$1*%
G04 Aperture macros list end*
%TA.AperFunction,ComponentPad*%
%ADD10O,1.700000X1.700000*%
%TD*%
%TA.AperFunction,ComponentPad*%
%ADD11C,1.700000*%
%TD*%
%TA.AperFunction,SMDPad,CuDef*%
%ADD12R,1.200000X0.600000*%
%TD*%
%TA.AperFunction,SMDPad,CuDef*%
%ADD13R,0.800000X1.000000*%
%TD*%
%TA.AperFunction,SMDPad,CuDef*%
%ADD14R,1.500000X0.700000*%
%TD*%
%TA.AperFunction,SMDPad,CuDef*%
%ADD15R,0.600000X1.200000*%
%TD*%
%TA.AperFunction,ComponentPad*%
%ADD16C,0.800000*%
%TD*%
%TA.AperFunction,SMDPad,CuDef*%
%ADD17FreePoly0,270.000000*%
%TD*%
%TA.AperFunction,ComponentPad*%
%ADD18O,1.750000X1.200000*%
%TD*%
%TA.AperFunction,SMDPad,CuDef*%
%ADD19FreePoly1,270.000000*%
%TD*%
%TA.AperFunction,SMDPad,CuDef*%
%ADD20R,1.000000X1.550000*%
%TD*%
%TA.AperFunction,SMDPad,CuDef*%
%ADD21R,1.200000X0.900000*%
%TD*%
%TA.AperFunction,SMDPad,CuDef*%
%ADD22R,2.550000X2.500000*%
%TD*%
%TA.AperFunction,SMDPad,CuDef*%
%ADD23RotRect,0.900000X1.200000X150.000000*%
%TD*%
%TA.AperFunction,SMDPad,CuDef*%
%ADD24RotRect,2.550000X2.500000X60.000000*%
%TD*%
%TA.AperFunction,ViaPad*%
%ADD25C,0.600000*%
%TD*%
%TA.AperFunction,Conductor*%
%ADD26C,0.250000*%
%TD*%
%TA.AperFunction,Conductor*%
%ADD27C,0.200000*%
%TD*%
G04 APERTURE END LIST*
D10*
%TO.P,DISP1,1*%
%TO.N,DISP1_1*%
X212567000Y-75700000D03*
%TO.P,DISP1,2*%
%TO.N,DISP1_2*%
X215107000Y-75700000D03*
%TO.P,DISP1,3*%
%TO.N,VCC*%
X217647000Y-75700000D03*
%TO.P,DISP1,4*%
%TO.N,DISP1_4*%
X220187000Y-75700000D03*
D11*
%TO.P,DISP1,5*%
%TO.N,DISP1_5*%
X222727000Y-75700000D03*
D12*
%TO.P,DISP1,20*%
%TO.N,CS*%
X222727000Y-78350000D03*
%TO.P,DISP1,21*%
%TO.N,GND*%
X220187000Y-78350000D03*
%TO.P,DISP1,22*%
%TO.N,SCL*%
X215107000Y-78350000D03*
%TO.P,DISP1,23*%
%TO.N,SDA*%
X212567000Y-78350000D03*
%TO.P,DISP1,24*%
%TO.N,DISP1_5*%
X222727000Y-77450000D03*
%TO.P,DISP1,25*%
%TO.N,DISP1_4*%
X220187000Y-77450000D03*
%TO.P,DISP1,26*%
%TO.N,DISP1_2*%
X215107000Y-77450000D03*
%TO.P,DISP1,27*%
%TO.N,DISP1_1*%
X212567000Y-77450000D03*
%TD*%
D13*
%TO.P,PWR1,*%
%TO.N,*%
X228415000Y-81100000D03*
X228415000Y-88400000D03*
X230625000Y-81100000D03*
X230625000Y-88400000D03*
D14*
%TO.P,PWR1,1*%
%TO.N,BAT_P*%
X227765000Y-82500000D03*
%TO.P,PWR1,2*%
%TO.N,RAW*%
X227765000Y-85500000D03*
%TO.P,PWR1,3*%
%TO.N,N/C*%
X227765000Y-87000000D03*
%TD*%
D15*
%TO.P,MCU1,1*%
%TO.N,MCU1_1*%
X223184000Y-43920000D03*
D11*
X225324000Y-43920000D03*
D15*
%TO.P,MCU1,2*%
%TO.N,MCU1_2*%
X223184000Y-46460000D03*
D11*
X225324000Y-46460000D03*
D15*
%TO.P,MCU1,3*%
%TO.N,MCU1_3*%
X223184000Y-49000000D03*
D11*
X225324000Y-49000000D03*
D15*
%TO.P,MCU1,4*%
%TO.N,MCU1_4*%
X223184000Y-51540000D03*
D11*
X225324000Y-51540000D03*
D15*
%TO.P,MCU1,5*%
%TO.N,MCU1_5*%
X223184000Y-54080000D03*
D11*
X225324000Y-54080000D03*
D15*
%TO.P,MCU1,6*%
%TO.N,MCU1_6*%
X223184000Y-56620000D03*
D11*
X225324000Y-56620000D03*
D15*
%TO.P,MCU1,7*%
%TO.N,MCU1_7*%
X223184000Y-59160000D03*
D11*
X225324000Y-59160000D03*
D15*
%TO.P,MCU1,8*%
%TO.N,MCU1_8*%
X223184000Y-61700000D03*
D11*
X225324000Y-61700000D03*
D15*
%TO.P,MCU1,9*%
%TO.N,MCU1_9*%
X223184000Y-64240000D03*
D11*
X225324000Y-64240000D03*
D15*
%TO.P,MCU1,10*%
%TO.N,MCU1_10*%
X223184000Y-66780000D03*
D11*
X225324000Y-66780000D03*
D15*
%TO.P,MCU1,11*%
%TO.N,MCU1_11*%
X223184000Y-69320000D03*
D11*
X225324000Y-69320000D03*
D15*
%TO.P,MCU1,12*%
%TO.N,MCU1_12*%
X223184000Y-71860000D03*
D11*
X225324000Y-71860000D03*
%TO.P,MCU1,13*%
%TO.N,MCU1_13*%
X210084000Y-71860000D03*
D15*
X212224000Y-71860000D03*
D11*
%TO.P,MCU1,14*%
%TO.N,MCU1_14*%
X210084000Y-69320000D03*
D15*
X212224000Y-69320000D03*
D11*
%TO.P,MCU1,15*%
%TO.N,MCU1_15*%
X210084000Y-66780000D03*
D15*
X212224000Y-66780000D03*
D11*
%TO.P,MCU1,16*%
%TO.N,MCU1_16*%
X210084000Y-64240000D03*
D15*
X212224000Y-64240000D03*
D11*
%TO.P,MCU1,17*%
%TO.N,MCU1_17*%
X210084000Y-61700000D03*
D15*
X212224000Y-61700000D03*
D11*
%TO.P,MCU1,18*%
%TO.N,MCU1_18*%
X210084000Y-59160000D03*
D15*
X212224000Y-59160000D03*
D11*
%TO.P,MCU1,19*%
%TO.N,MCU1_19*%
X210084000Y-56620000D03*
D15*
X212224000Y-56620000D03*
D11*
%TO.P,MCU1,20*%
%TO.N,MCU1_20*%
X210084000Y-54080000D03*
D15*
X212224000Y-54080000D03*
D11*
%TO.P,MCU1,21*%
%TO.N,MCU1_21*%
X210084000Y-51540000D03*
D15*
X212224000Y-51540000D03*
D11*
%TO.P,MCU1,22*%
%TO.N,MCU1_22*%
X210084000Y-49000000D03*
D15*
X212224000Y-49000000D03*
D11*
%TO.P,MCU1,23*%
%TO.N,MCU1_23*%
X210084000Y-46460000D03*
D15*
X212224000Y-46460000D03*
D11*
%TO.P,MCU1,24*%
%TO.N,MCU1_24*%
X210084000Y-43920000D03*
D15*
X212224000Y-43920000D03*
%TO.P,MCU1,101*%
%TO.N,LED*%
X213124000Y-43920000D03*
D16*
X221104000Y-43920000D03*
D15*
%TO.P,MCU1,102*%
%TO.N,DAT*%
X213124000Y-46460000D03*
D16*
X221104000Y-46460000D03*
D15*
%TO.P,MCU1,103*%
%TO.N,GND*%
X213124000Y-49000000D03*
D16*
X221104000Y-49000000D03*
D15*
%TO.P,MCU1,104*%
X213124000Y-51540000D03*
D16*
X221104000Y-51540000D03*
D15*
%TO.P,MCU1,105*%
%TO.N,SDA*%
X213124000Y-54080000D03*
D16*
X221104000Y-54080000D03*
D15*
%TO.P,MCU1,106*%
%TO.N,SCL*%
X213124000Y-56620000D03*
D16*
X221104000Y-56620000D03*
D15*
%TO.P,MCU1,107*%
%TO.N,CS*%
X213124000Y-59160000D03*
D16*
X221104000Y-59160000D03*
D15*
%TO.P,MCU1,108*%
%TO.N,R0*%
X213124000Y-61700000D03*
D16*
X221104000Y-61700000D03*
D15*
%TO.P,MCU1,109*%
%TO.N,R1*%
X213124000Y-64240000D03*
D16*
X221104000Y-64240000D03*
D15*
%TO.P,MCU1,110*%
%TO.N,R2*%
X213124000Y-66780000D03*
D16*
X221104000Y-66780000D03*
D15*
%TO.P,MCU1,111*%
%TO.N,R3*%
X213124000Y-69320000D03*
D16*
X221104000Y-69320000D03*
D15*
%TO.P,MCU1,112*%
%TO.N,P9*%
X213124000Y-71860000D03*
D16*
X221104000Y-71860000D03*
%TO.P,MCU1,113*%
%TO.N,P10*%
X214304000Y-71860000D03*
D15*
X222284000Y-71860000D03*
D16*
%TO.P,MCU1,114*%
%TO.N,C6*%
X214304000Y-69320000D03*
D15*
X222284000Y-69320000D03*
D16*
%TO.P,MCU1,115*%
%TO.N,C5*%
X214304000Y-66780000D03*
D15*
X222284000Y-66780000D03*
D16*
%TO.P,MCU1,116*%
%TO.N,C4*%
X214304000Y-64240000D03*
D15*
X222284000Y-64240000D03*
D16*
%TO.P,MCU1,117*%
%TO.N,C3*%
X214304000Y-61700000D03*
D15*
X222284000Y-61700000D03*
D16*
%TO.P,MCU1,118*%
%TO.N,C2*%
X214304000Y-59160000D03*
D15*
X222284000Y-59160000D03*
D16*
%TO.P,MCU1,119*%
%TO.N,C1*%
X214304000Y-56620000D03*
D15*
X222284000Y-56620000D03*
D16*
%TO.P,MCU1,120*%
%TO.N,C0*%
X214304000Y-54080000D03*
D15*
X222284000Y-54080000D03*
D16*
%TO.P,MCU1,121*%
%TO.N,VCC*%
X214304000Y-51540000D03*
D15*
X222284000Y-51540000D03*
D16*
%TO.P,MCU1,122*%
%TO.N,RST*%
X214304000Y-49000000D03*
D15*
X222284000Y-49000000D03*
D16*
%TO.P,MCU1,123*%
%TO.N,GND*%
X214304000Y-46460000D03*
D15*
X222284000Y-46460000D03*
D16*
%TO.P,MCU1,124*%
%TO.N,RAW*%
X214304000Y-43920000D03*
D15*
X222284000Y-43920000D03*
%TD*%
D17*
%TO.P,JST1,1*%
%TO.N,BAT_P*%
X217566000Y-82500000D03*
%TO.P,JST1,2*%
%TO.N,GND*%
X217566000Y-84500000D03*
D18*
%TO.P,JST1,11*%
%TO.N,JST1_1*%
X214750000Y-84500000D03*
%TO.P,JST1,12*%
%TO.N,JST1_2*%
X214750000Y-82500000D03*
D19*
%TO.P,JST1,31*%
%TO.N,JST1_1*%
X216550000Y-84500000D03*
%TO.P,JST1,32*%
%TO.N,JST1_2*%
X216550000Y-82500000D03*
%TD*%
D20*
%TO.P,RST1,1*%
%TO.N,GND*%
X230100000Y-70125000D03*
%TO.P,RST1,2*%
%TO.N,RST*%
X228400000Y-70125000D03*
%TO.P,RST1,3*%
%TO.N,GND*%
X230100000Y-75375000D03*
%TO.P,RST1,4*%
%TO.N,RST*%
X228400000Y-75375000D03*
%TD*%
D21*
%TO.P,D12,1*%
%TO.N,R3*%
X145400000Y-43325000D03*
%TO.P,D12,2*%
%TO.N,ring_top_B*%
X145400000Y-40025000D03*
%TD*%
D22*
%TO.P,S23,1*%
%TO.N,C5*%
X187915000Y-42835000D03*
%TO.P,S23,2*%
%TO.N,inner_top_B*%
X200842000Y-40295000D03*
%TD*%
D21*
%TO.P,D21,1*%
%TO.N,R1*%
X202400000Y-83700000D03*
%TO.P,D21,2*%
%TO.N,inner_bottom_B*%
X202400000Y-80400000D03*
%TD*%
D22*
%TO.P,S22,1*%
%TO.N,C5*%
X187915000Y-61835000D03*
%TO.P,S22,2*%
%TO.N,inner_home_B*%
X200842000Y-59295000D03*
%TD*%
D23*
%TO.P,D24,1*%
%TO.N,R0*%
X201831458Y-102493912D03*
%TO.P,D24,2*%
%TO.N,tucky_default_B*%
X198973574Y-100843912D03*
%TD*%
D21*
%TO.P,D9,1*%
%TO.N,R0*%
X145400000Y-100325000D03*
%TO.P,D9,2*%
%TO.N,ring_mod_B*%
X145400000Y-97025000D03*
%TD*%
%TO.P,D3,1*%
%TO.N,R2*%
X107400000Y-62325000D03*
%TO.P,D3,2*%
%TO.N,outer_home_B*%
X107400000Y-59025000D03*
%TD*%
D22*
%TO.P,S9,1*%
%TO.N,C2*%
X130915000Y-97460000D03*
%TO.P,S9,2*%
%TO.N,ring_mod_B*%
X143842000Y-94920000D03*
%TD*%
%TO.P,S17,1*%
%TO.N,C4*%
X168915000Y-97460000D03*
%TO.P,S17,2*%
%TO.N,index_mod_B*%
X181842000Y-94920000D03*
%TD*%
%TO.P,S7,1*%
%TO.N,C1*%
X111915000Y-57085000D03*
%TO.P,S7,2*%
%TO.N,pinky_home_B*%
X124842000Y-54545000D03*
%TD*%
D21*
%TO.P,D20,1*%
%TO.N,R3*%
X183400000Y-43325000D03*
%TO.P,D20,2*%
%TO.N,index_top_B*%
X183400000Y-40025000D03*
%TD*%
D22*
%TO.P,S10,1*%
%TO.N,C2*%
X130915000Y-78460000D03*
%TO.P,S10,2*%
%TO.N,ring_bottom_B*%
X143842000Y-75920000D03*
%TD*%
%TO.P,S5,1*%
%TO.N,C1*%
X111915000Y-95085000D03*
%TO.P,S5,2*%
%TO.N,pinky_mod_B*%
X124842000Y-92545000D03*
%TD*%
%TO.P,S4,1*%
%TO.N,C0*%
X92915000Y-40460000D03*
%TO.P,S4,2*%
%TO.N,outer_top_B*%
X105842000Y-37920000D03*
%TD*%
%TO.P,S1,1*%
%TO.N,C0*%
X92915000Y-97460000D03*
%TO.P,S1,2*%
%TO.N,outer_mod_B*%
X105842000Y-94920000D03*
%TD*%
D21*
%TO.P,D17,1*%
%TO.N,R0*%
X183400000Y-100325000D03*
%TO.P,D17,2*%
%TO.N,index_mod_B*%
X183400000Y-97025000D03*
%TD*%
D22*
%TO.P,S14,1*%
%TO.N,C3*%
X149915000Y-76085000D03*
%TO.P,S14,2*%
%TO.N,middle_bottom_B*%
X162842000Y-73545000D03*
%TD*%
%TO.P,S13,1*%
%TO.N,C3*%
X149915000Y-95085000D03*
%TO.P,S13,2*%
%TO.N,middle_mod_B*%
X162842000Y-92545000D03*
%TD*%
D21*
%TO.P,D6,1*%
%TO.N,R1*%
X126400000Y-78950000D03*
%TO.P,D6,2*%
%TO.N,pinky_bottom_B*%
X126400000Y-75650000D03*
%TD*%
D22*
%TO.P,S3,1*%
%TO.N,C0*%
X92915000Y-59460000D03*
%TO.P,S3,2*%
%TO.N,outer_home_B*%
X105842000Y-56920000D03*
%TD*%
D21*
%TO.P,D10,1*%
%TO.N,R1*%
X145400000Y-81325000D03*
%TO.P,D10,2*%
%TO.N,ring_bottom_B*%
X145400000Y-78025000D03*
%TD*%
D22*
%TO.P,S15,1*%
%TO.N,C3*%
X149915000Y-57085000D03*
%TO.P,S15,2*%
%TO.N,middle_home_B*%
X162842000Y-54545000D03*
%TD*%
D21*
%TO.P,D15,1*%
%TO.N,R2*%
X164400000Y-59950000D03*
%TO.P,D15,2*%
%TO.N,middle_home_B*%
X164400000Y-56650000D03*
%TD*%
%TO.P,D5,1*%
%TO.N,R0*%
X126400000Y-97950000D03*
%TO.P,D5,2*%
%TO.N,pinky_mod_B*%
X126400000Y-94650000D03*
%TD*%
%TO.P,D22,1*%
%TO.N,R2*%
X202400000Y-64700000D03*
%TO.P,D22,2*%
%TO.N,inner_home_B*%
X202400000Y-61400000D03*
%TD*%
D24*
%TO.P,S25,1*%
%TO.N,C6*%
X208562278Y-123105790D03*
%TO.P,S25,2*%
%TO.N,reachy_default_B*%
X212826074Y-110640680D03*
%TD*%
D22*
%TO.P,S12,1*%
%TO.N,C2*%
X130915000Y-40460000D03*
%TO.P,S12,2*%
%TO.N,ring_top_B*%
X143842000Y-37920000D03*
%TD*%
%TO.P,S21,1*%
%TO.N,C5*%
X187915000Y-80835000D03*
%TO.P,S21,2*%
%TO.N,inner_bottom_B*%
X200842000Y-78295000D03*
%TD*%
D21*
%TO.P,D7,1*%
%TO.N,R2*%
X126400000Y-59950000D03*
%TO.P,D7,2*%
%TO.N,pinky_home_B*%
X126400000Y-56650000D03*
%TD*%
D22*
%TO.P,S16,1*%
%TO.N,C3*%
X149915000Y-38085000D03*
%TO.P,S16,2*%
%TO.N,middle_top_B*%
X162842000Y-35545000D03*
%TD*%
%TO.P,S20,1*%
%TO.N,C4*%
X168915000Y-40460000D03*
%TO.P,S20,2*%
%TO.N,index_top_B*%
X181842000Y-37920000D03*
%TD*%
D24*
%TO.P,S24,1*%
%TO.N,C5*%
X192107795Y-113605790D03*
%TO.P,S24,2*%
%TO.N,tucky_default_B*%
X196371591Y-101140680D03*
%TD*%
D21*
%TO.P,D16,1*%
%TO.N,R3*%
X164400000Y-40950000D03*
%TO.P,D16,2*%
%TO.N,middle_top_B*%
X164400000Y-37650000D03*
%TD*%
D22*
%TO.P,S8,1*%
%TO.N,C1*%
X111915000Y-38085000D03*
%TO.P,S8,2*%
%TO.N,pinky_top_B*%
X124842000Y-35545000D03*
%TD*%
D21*
%TO.P,D18,1*%
%TO.N,R1*%
X183400000Y-81325000D03*
%TO.P,D18,2*%
%TO.N,index_bottom_B*%
X183400000Y-78025000D03*
%TD*%
%TO.P,D23,1*%
%TO.N,R3*%
X202400000Y-45700000D03*
%TO.P,D23,2*%
%TO.N,inner_top_B*%
X202400000Y-42400000D03*
%TD*%
D22*
%TO.P,S2,1*%
%TO.N,C0*%
X92915000Y-78460000D03*
%TO.P,S2,2*%
%TO.N,outer_bottom_B*%
X105842000Y-75920000D03*
%TD*%
D21*
%TO.P,D11,1*%
%TO.N,R2*%
X145400000Y-62325000D03*
%TO.P,D11,2*%
%TO.N,ring_home_B*%
X145400000Y-59025000D03*
%TD*%
D22*
%TO.P,S19,1*%
%TO.N,C4*%
X168915000Y-59460000D03*
%TO.P,S19,2*%
%TO.N,index_home_B*%
X181842000Y-56920000D03*
%TD*%
D21*
%TO.P,D8,1*%
%TO.N,R3*%
X126400000Y-40950000D03*
%TO.P,D8,2*%
%TO.N,pinky_top_B*%
X126400000Y-37650000D03*
%TD*%
D22*
%TO.P,S18,1*%
%TO.N,C4*%
X168915000Y-78460000D03*
%TO.P,S18,2*%
%TO.N,index_bottom_B*%
X181842000Y-75920000D03*
%TD*%
D21*
%TO.P,D4,1*%
%TO.N,R3*%
X107400000Y-43325000D03*
%TO.P,D4,2*%
%TO.N,outer_top_B*%
X107400000Y-40025000D03*
%TD*%
D22*
%TO.P,S6,1*%
%TO.N,C1*%
X111915000Y-76085000D03*
%TO.P,S6,2*%
%TO.N,pinky_bottom_B*%
X124842000Y-73545000D03*
%TD*%
%TO.P,S11,1*%
%TO.N,C2*%
X130915000Y-59460000D03*
%TO.P,S11,2*%
%TO.N,ring_home_B*%
X143842000Y-56920000D03*
%TD*%
D21*
%TO.P,D1,1*%
%TO.N,R0*%
X107400000Y-100325000D03*
%TO.P,D1,2*%
%TO.N,outer_mod_B*%
X107400000Y-97025000D03*
%TD*%
%TO.P,D2,1*%
%TO.N,R1*%
X107400000Y-81325000D03*
%TO.P,D2,2*%
%TO.N,outer_bottom_B*%
X107400000Y-78025000D03*
%TD*%
%TO.P,D13,1*%
%TO.N,R0*%
X164400000Y-97950000D03*
%TO.P,D13,2*%
%TO.N,middle_mod_B*%
X164400000Y-94650000D03*
%TD*%
%TO.P,D14,1*%
%TO.N,R1*%
X164400000Y-78950000D03*
%TO.P,D14,2*%
%TO.N,middle_bottom_B*%
X164400000Y-75650000D03*
%TD*%
D23*
%TO.P,D25,1*%
%TO.N,R0*%
X218285941Y-111993912D03*
%TO.P,D25,2*%
%TO.N,reachy_default_B*%
X215428057Y-110343912D03*
%TD*%
D21*
%TO.P,D19,1*%
%TO.N,R2*%
X183400000Y-62325000D03*
%TO.P,D19,2*%
%TO.N,index_home_B*%
X183400000Y-59025000D03*
%TD*%
D25*
%TO.N,CS*%
X222570000Y-60420000D03*
X220530000Y-73130000D03*
X210230000Y-73840000D03*
%TO.N,C4*%
X182967000Y-50510000D03*
%TO.N,C3*%
X164130000Y-50279000D03*
X164085000Y-70830000D03*
%TO.N,R3*%
X187630000Y-47830000D03*
%TO.N,C5*%
X189200000Y-103150000D03*
%TO.N,R3*%
X128505000Y-45405000D03*
%TO.N,C3*%
X160780000Y-89780000D03*
%TO.N,R1*%
X130600000Y-83700000D03*
%TO.N,C2*%
X144999000Y-91020000D03*
%TO.N,R3*%
X168590000Y-46120000D03*
%TO.N,R0*%
X170975000Y-102700000D03*
X149600000Y-100325000D03*
X130610000Y-103050000D03*
%TO.N,R1*%
X187610000Y-86450000D03*
X168600000Y-84250000D03*
X149650000Y-81325000D03*
%TO.N,C1*%
X126085000Y-69060000D03*
X126085000Y-88760000D03*
%TO.N,R1*%
X111620000Y-81325000D03*
%TO.N,R2*%
X187620000Y-68320000D03*
X168615000Y-64165000D03*
X149650000Y-62325000D03*
X130600000Y-64620000D03*
X111600000Y-62325000D03*
%TO.N,R3*%
X111640000Y-43325000D03*
X99520000Y-46260000D03*
%TO.N,C2*%
X137480000Y-46330000D03*
%TO.N,C1*%
X124900000Y-43040000D03*
%TO.N,SDA*%
X218811000Y-54869000D03*
%TO.N,SCL*%
X218840000Y-57350000D03*
X218910000Y-78440000D03*
%TO.N,SDA*%
X218950000Y-79330000D03*
%TO.N,GND*%
X217600000Y-80120000D03*
%TO.N,BAT_P*%
X218490000Y-81960000D03*
X226360000Y-82460000D03*
%TO.N,R3*%
X217610000Y-69725000D03*
X207530000Y-49910000D03*
%TO.N,RST*%
X228170000Y-71400000D03*
%TO.N,GND*%
X230120000Y-71590000D03*
%TO.N,C0*%
X106999000Y-69320000D03*
%TO.N,C1*%
X126085000Y-51840000D03*
%TO.N,C2*%
X144999000Y-72850000D03*
X144999000Y-48740000D03*
%TO.N,C3*%
X156880000Y-32900000D03*
%TO.N,C4*%
X182967000Y-91660000D03*
X176860000Y-35200000D03*
X182967000Y-72420000D03*
%TO.N,C5*%
X202085000Y-56360000D03*
X202085000Y-74660000D03*
X195170000Y-38050000D03*
%TO.N,C6*%
X214350000Y-108460000D03*
%TO.N,R0*%
X110490000Y-102590000D03*
X221950000Y-111990000D03*
%TO.N,R1*%
X105080000Y-84200000D03*
%TO.N,R2*%
X104340000Y-65360000D03*
%TO.N,R3*%
X150890000Y-43325000D03*
%TO.N,RAW*%
X226190000Y-85520000D03*
%TD*%
D26*
%TO.N,CS*%
X222570000Y-60420000D02*
X222000000Y-60420000D01*
X222000000Y-60420000D02*
X221104000Y-59524000D01*
X221104000Y-59524000D02*
X221104000Y-59160000D01*
D27*
X221500000Y-74100000D02*
X220530000Y-73130000D01*
X221500000Y-77725000D02*
X221500000Y-74100000D01*
D26*
X219820000Y-73840000D02*
X210230000Y-73840000D01*
X220530000Y-73130000D02*
X219820000Y-73840000D01*
D27*
%TO.N,C4*%
X190500000Y-50490000D02*
X182987000Y-50490000D01*
X182987000Y-50490000D02*
X182967000Y-50510000D01*
X191980000Y-51970000D02*
X190500000Y-50490000D01*
X198726240Y-51970000D02*
X191980000Y-51970000D01*
X175060000Y-50510000D02*
X182967000Y-50510000D01*
X168915000Y-56655000D02*
X175060000Y-50510000D01*
%TO.N,C3*%
X192230000Y-51040000D02*
X191041000Y-49851000D01*
X200336240Y-51040000D02*
X192230000Y-51040000D01*
X191041000Y-49851000D02*
X164558000Y-49851000D01*
X164558000Y-49851000D02*
X164130000Y-50279000D01*
X209845240Y-60549000D02*
X200336240Y-51040000D01*
X221133000Y-60549000D02*
X209845240Y-60549000D01*
X222284000Y-61700000D02*
X221133000Y-60549000D01*
X164109000Y-50300000D02*
X164130000Y-50279000D01*
X149915000Y-51895000D02*
X151510000Y-50300000D01*
X151510000Y-50300000D02*
X164109000Y-50300000D01*
X149915000Y-57085000D02*
X149915000Y-51895000D01*
X153730000Y-70820000D02*
X164075000Y-70820000D01*
X164075000Y-70820000D02*
X164085000Y-70830000D01*
%TO.N,C1*%
X209607240Y-55469000D02*
X221133000Y-55469000D01*
X203187240Y-49049000D02*
X209607240Y-55469000D01*
X186829000Y-49049000D02*
X203187240Y-49049000D01*
X185760000Y-47980000D02*
X186829000Y-49049000D01*
X135150000Y-47980000D02*
X185760000Y-47980000D01*
X131290000Y-51840000D02*
X135150000Y-47980000D01*
X126085000Y-51840000D02*
X131290000Y-51840000D01*
X221133000Y-55469000D02*
X222284000Y-56620000D01*
%TO.N,C0*%
X185722900Y-47340000D02*
X92985000Y-47340000D01*
X186813900Y-48431000D02*
X185722900Y-47340000D01*
X204369000Y-48431000D02*
X186813900Y-48431000D01*
X204380000Y-48420000D02*
X204369000Y-48431000D01*
%TO.N,C2*%
X191850000Y-49450000D02*
X145709000Y-49450000D01*
X201846240Y-50010000D02*
X192410000Y-50010000D01*
X209845240Y-58009000D02*
X201846240Y-50010000D01*
X192410000Y-50010000D02*
X191850000Y-49450000D01*
X221133000Y-58009000D02*
X209845240Y-58009000D01*
X222284000Y-59160000D02*
X221133000Y-58009000D01*
X145709000Y-49450000D02*
X144999000Y-48740000D01*
%TO.N,R3*%
X187630000Y-47830000D02*
X200270000Y-47830000D01*
X186780000Y-47830000D02*
X187630000Y-47830000D01*
X200270000Y-47830000D02*
X202400000Y-45700000D01*
X183400000Y-44450000D02*
X186780000Y-47830000D01*
X183400000Y-43325000D02*
X183400000Y-44450000D01*
%TO.N,C5*%
X187770000Y-109267995D02*
X192107795Y-113605790D01*
X187770000Y-104580000D02*
X187770000Y-109267995D01*
X189200000Y-103150000D02*
X187770000Y-104580000D01*
%TO.N,R0*%
X201090000Y-97830000D02*
X201831458Y-98571458D01*
X201831458Y-98571458D02*
X201831458Y-102493912D01*
X185925000Y-97800000D02*
X201090000Y-97800000D01*
X183400000Y-100325000D02*
X185925000Y-97800000D01*
X201090000Y-97800000D02*
X201090000Y-97830000D01*
%TO.N,R3*%
X128505000Y-45405000D02*
X130031000Y-46931000D01*
X141794000Y-46931000D02*
X145400000Y-43325000D01*
X130031000Y-46931000D02*
X141794000Y-46931000D01*
X126400000Y-43300000D02*
X128505000Y-45405000D01*
%TO.N,C4*%
X182907000Y-91720000D02*
X182967000Y-91660000D01*
X168915000Y-93875000D02*
X171070000Y-91720000D01*
X171070000Y-91720000D02*
X182907000Y-91720000D01*
X168915000Y-97460000D02*
X168915000Y-93875000D01*
%TO.N,C3*%
X151260000Y-89780000D02*
X160780000Y-89780000D01*
X149915000Y-95085000D02*
X149915000Y-91125000D01*
X149915000Y-91125000D02*
X151260000Y-89780000D01*
%TO.N,R1*%
X130600000Y-83700000D02*
X128310000Y-83700000D01*
X128310000Y-83700000D02*
X126400000Y-81790000D01*
X143025000Y-83700000D02*
X130600000Y-83700000D01*
X145400000Y-81325000D02*
X143025000Y-83700000D01*
X126400000Y-81790000D02*
X126400000Y-78950000D01*
%TO.N,C2*%
X135905000Y-91020000D02*
X144999000Y-91020000D01*
X130915000Y-97460000D02*
X130915000Y-96010000D01*
X130915000Y-96010000D02*
X135905000Y-91020000D01*
%TO.N,R0*%
X122870000Y-102590000D02*
X126400000Y-99060000D01*
X110490000Y-102590000D02*
X122870000Y-102590000D01*
X202523912Y-102493912D02*
X201831458Y-102493912D01*
X210020000Y-109990000D02*
X202523912Y-102493912D01*
X212151000Y-107859000D02*
X210020000Y-109990000D01*
X214598943Y-107859000D02*
X212151000Y-107859000D01*
%TO.N,R3*%
X183400000Y-43325000D02*
X183815000Y-43325000D01*
X168590000Y-46120000D02*
X167240000Y-46120000D01*
X164400000Y-43280000D02*
X164400000Y-40950000D01*
X180605000Y-46120000D02*
X168590000Y-46120000D01*
X183400000Y-43325000D02*
X180605000Y-46120000D01*
X167240000Y-46120000D02*
X164400000Y-43280000D01*
%TO.N,R0*%
X170975000Y-102700000D02*
X181710000Y-102700000D01*
X170965000Y-102710000D02*
X170975000Y-102700000D01*
X167210000Y-102710000D02*
X170965000Y-102710000D01*
X164400000Y-99900000D02*
X167210000Y-102710000D01*
X164400000Y-97950000D02*
X164400000Y-99900000D01*
X149600000Y-100325000D02*
X162025000Y-100325000D01*
X145400000Y-100325000D02*
X149600000Y-100325000D01*
X162025000Y-100325000D02*
X164400000Y-97950000D01*
X130390000Y-103050000D02*
X130610000Y-103050000D01*
X130610000Y-103050000D02*
X142675000Y-103050000D01*
X126400000Y-99060000D02*
X130390000Y-103050000D01*
X142675000Y-103050000D02*
X145400000Y-100325000D01*
X126400000Y-97950000D02*
X126400000Y-99060000D01*
%TO.N,R1*%
X186310000Y-86450000D02*
X187610000Y-86450000D01*
X199650000Y-86450000D02*
X202400000Y-83700000D01*
X187610000Y-86450000D02*
X199650000Y-86450000D01*
X186290000Y-86470000D02*
X186310000Y-86450000D01*
X183400000Y-83580000D02*
X186290000Y-86470000D01*
X183400000Y-81325000D02*
X183400000Y-83580000D01*
X168600000Y-84250000D02*
X180475000Y-84250000D01*
X180475000Y-84250000D02*
X183400000Y-81325000D01*
X167980000Y-84250000D02*
X168600000Y-84250000D01*
X164400000Y-80670000D02*
X167980000Y-84250000D01*
X164400000Y-78950000D02*
X164400000Y-80670000D01*
X149650000Y-81325000D02*
X145400000Y-81325000D01*
X162025000Y-81325000D02*
X149650000Y-81325000D01*
X164400000Y-78950000D02*
X162025000Y-81325000D01*
%TO.N,C1*%
X111915000Y-72115000D02*
X114970000Y-69060000D01*
X111915000Y-76085000D02*
X111915000Y-72115000D01*
X114970000Y-69060000D02*
X126085000Y-69060000D01*
X126065000Y-88740000D02*
X126085000Y-88760000D01*
X115280000Y-88740000D02*
X126065000Y-88740000D01*
%TO.N,R1*%
X111620000Y-81325000D02*
X124025000Y-81325000D01*
X107400000Y-81325000D02*
X111620000Y-81325000D01*
X124025000Y-81325000D02*
X126400000Y-78950000D01*
%TO.N,R2*%
X187620000Y-68320000D02*
X200260000Y-68320000D01*
X205279000Y-64700000D02*
X208510000Y-67931000D01*
X202400000Y-64700000D02*
X205279000Y-64700000D01*
X208510000Y-67931000D02*
X219953000Y-67931000D01*
X200260000Y-68320000D02*
X202400000Y-66180000D01*
X186740000Y-68320000D02*
X187620000Y-68320000D01*
X183400000Y-64980000D02*
X186740000Y-68320000D01*
X202400000Y-66180000D02*
X202400000Y-64700000D01*
X183400000Y-62325000D02*
X183400000Y-64980000D01*
X168615000Y-64165000D02*
X170050000Y-65600000D01*
X180125000Y-65600000D02*
X183400000Y-62325000D01*
X170050000Y-65600000D02*
X180125000Y-65600000D01*
X164400000Y-59950000D02*
X168615000Y-64165000D01*
X149650000Y-62325000D02*
X162025000Y-62325000D01*
X162025000Y-62325000D02*
X164400000Y-59950000D01*
X145400000Y-62325000D02*
X149650000Y-62325000D01*
X130600000Y-64620000D02*
X143920000Y-64620000D01*
X145400000Y-63140000D02*
X145400000Y-62325000D01*
X143920000Y-64620000D02*
X145400000Y-63140000D01*
X129060000Y-64620000D02*
X130600000Y-64620000D01*
X126400000Y-61960000D02*
X129060000Y-64620000D01*
X126400000Y-59950000D02*
X126400000Y-61960000D01*
X111600000Y-62325000D02*
X124025000Y-62325000D01*
X124025000Y-62325000D02*
X126400000Y-59950000D01*
X107400000Y-62325000D02*
X111600000Y-62325000D01*
%TO.N,R3*%
X111640000Y-43325000D02*
X112245000Y-43325000D01*
X112245000Y-43325000D02*
X113750000Y-44830000D01*
X107400000Y-43325000D02*
X111640000Y-43325000D01*
X104465000Y-46260000D02*
X107400000Y-43325000D01*
X99520000Y-46260000D02*
X104465000Y-46260000D01*
%TO.N,C2*%
X133290000Y-46330000D02*
X137480000Y-46330000D01*
X130915000Y-43955000D02*
X133290000Y-46330000D01*
X130915000Y-40460000D02*
X130915000Y-43955000D01*
%TO.N,C1*%
X111915000Y-92105000D02*
X115280000Y-88740000D01*
X111915000Y-95085000D02*
X111915000Y-92105000D01*
X114495108Y-43040000D02*
X124900000Y-43040000D01*
X111915000Y-40459892D02*
X114495108Y-43040000D01*
%TO.N,R3*%
X124870000Y-44830000D02*
X126400000Y-43300000D01*
X126400000Y-43300000D02*
X126400000Y-40950000D01*
X113750000Y-44830000D02*
X124870000Y-44830000D01*
D26*
%TO.N,GND*%
X213124000Y-48150000D02*
X213124000Y-49000000D01*
X212798000Y-47824000D02*
X213124000Y-48150000D01*
X209596884Y-47824000D02*
X212798000Y-47824000D01*
X208908000Y-47135116D02*
X209596884Y-47824000D01*
X208908000Y-45972884D02*
X208908000Y-47135116D01*
X209596884Y-45284000D02*
X208908000Y-45972884D01*
X213693685Y-45284000D02*
X209596884Y-45284000D01*
X214304000Y-45894315D02*
X213693685Y-45284000D01*
X214304000Y-46460000D02*
X214304000Y-45894315D01*
D27*
%TO.N,BAT_P*%
X226400000Y-82500000D02*
X226360000Y-82460000D01*
X227765000Y-82500000D02*
X226400000Y-82500000D01*
%TO.N,GND*%
X215580794Y-80120000D02*
X217600000Y-80120000D01*
X213574000Y-82126794D02*
X215580794Y-80120000D01*
X213574000Y-82873206D02*
X213574000Y-82126794D01*
X214299794Y-83599000D02*
X213574000Y-82873206D01*
X216665000Y-83599000D02*
X214299794Y-83599000D01*
X217566000Y-84500000D02*
X216665000Y-83599000D01*
D26*
%TO.N,CS*%
X219890000Y-59390000D02*
X220874000Y-59390000D01*
X215099305Y-59390000D02*
X219890000Y-59390000D01*
D27*
%TO.N,SDA*%
X218811000Y-54869000D02*
X218252000Y-54310000D01*
D26*
X217950000Y-54310000D02*
X220874000Y-54310000D01*
D27*
X218252000Y-54310000D02*
X217950000Y-54310000D01*
%TO.N,SCL*%
X218840000Y-56870000D02*
X218860000Y-56850000D01*
D26*
X218860000Y-56850000D02*
X220874000Y-56850000D01*
D27*
X218840000Y-57350000D02*
X218840000Y-56870000D01*
D26*
%TO.N,SDA*%
X215099305Y-54310000D02*
X217950000Y-54310000D01*
D27*
%TO.N,SCL*%
X218820000Y-78350000D02*
X218910000Y-78440000D01*
X215107000Y-78350000D02*
X218820000Y-78350000D01*
%TO.N,SDA*%
X213547000Y-79330000D02*
X218950000Y-79330000D01*
X212567000Y-78350000D02*
X213547000Y-79330000D01*
%TO.N,CS*%
X222125000Y-78350000D02*
X221500000Y-77725000D01*
X222727000Y-78350000D02*
X222125000Y-78350000D01*
%TO.N,GND*%
X226524000Y-78951000D02*
X230100000Y-75375000D01*
X220788000Y-78951000D02*
X226524000Y-78951000D01*
X220187000Y-78350000D02*
X220788000Y-78951000D01*
X219760000Y-80120000D02*
X217600000Y-80120000D01*
X220187000Y-79693000D02*
X219760000Y-80120000D01*
X220187000Y-78350000D02*
X220187000Y-79693000D01*
%TO.N,BAT_P*%
X218106000Y-81960000D02*
X217566000Y-82500000D01*
X218490000Y-81960000D02*
X218106000Y-81960000D01*
X226320000Y-82500000D02*
X217566000Y-82500000D01*
X226360000Y-82460000D02*
X226320000Y-82500000D01*
%TO.N,R3*%
X203320000Y-45700000D02*
X207530000Y-49910000D01*
X202400000Y-45700000D02*
X203320000Y-45700000D01*
%TO.N,RST*%
X227140000Y-74115000D02*
X228400000Y-75375000D01*
X227140000Y-72430000D02*
X227140000Y-74115000D01*
X228170000Y-71400000D02*
X227140000Y-72430000D01*
X228400000Y-71170000D02*
X228170000Y-71400000D01*
X228400000Y-70125000D02*
X228400000Y-71170000D01*
%TO.N,GND*%
X230100000Y-71570000D02*
X230120000Y-71590000D01*
X230100000Y-70125000D02*
X230100000Y-71570000D01*
X229899000Y-75174000D02*
X230100000Y-75375000D01*
X230120000Y-71590000D02*
X229899000Y-71811000D01*
X229899000Y-71811000D02*
X229899000Y-75174000D01*
D26*
%TO.N,C0*%
X220298695Y-53860000D02*
X214524000Y-53860000D01*
D27*
X106989000Y-69310000D02*
X106999000Y-69320000D01*
X204380000Y-48420000D02*
X208889000Y-52929000D01*
X221133000Y-52929000D02*
X222284000Y-54080000D01*
D26*
X222479000Y-54080000D02*
X222129305Y-54080000D01*
D27*
X92915000Y-69310000D02*
X92915000Y-97460000D01*
D26*
X221404305Y-53355000D02*
X220803695Y-53355000D01*
D27*
X92915000Y-47270000D02*
X92985000Y-47340000D01*
X208889000Y-52929000D02*
X221133000Y-52929000D01*
D26*
X222129305Y-54080000D02*
X221404305Y-53355000D01*
D27*
X92915000Y-69310000D02*
X106989000Y-69310000D01*
X92915000Y-47270000D02*
X92915000Y-69310000D01*
D26*
X220803695Y-53355000D02*
X220298695Y-53860000D01*
D27*
X92915000Y-40460000D02*
X92915000Y-47270000D01*
%TO.N,outer_mod_B*%
X107400000Y-96478000D02*
X107400000Y-97025000D01*
X105842000Y-94920000D02*
X107400000Y-96478000D01*
D26*
%TO.N,GND*%
X214003695Y-49725000D02*
X214604305Y-49725000D01*
X214604305Y-52265000D02*
X215099305Y-51770000D01*
X214003695Y-52265000D02*
X214604305Y-52265000D01*
X212929000Y-49000000D02*
X213278695Y-49000000D01*
X215099305Y-51770000D02*
X220874000Y-51770000D01*
X214604305Y-49725000D02*
X215099305Y-49230000D01*
X220803695Y-45735000D02*
X220298695Y-46240000D01*
X212929000Y-51540000D02*
X213278695Y-51540000D01*
X213278695Y-51540000D02*
X214003695Y-52265000D01*
X221404305Y-45735000D02*
X220803695Y-45735000D01*
X222479000Y-46460000D02*
X222129305Y-46460000D01*
X213278695Y-49000000D02*
X214003695Y-49725000D01*
X222129305Y-46460000D02*
X221404305Y-45735000D01*
X220298695Y-46240000D02*
X214524000Y-46240000D01*
X215099305Y-49230000D02*
X220874000Y-49230000D01*
D27*
%TO.N,outer_bottom_B*%
X105842000Y-76467000D02*
X107400000Y-78025000D01*
X105842000Y-75920000D02*
X105842000Y-76467000D01*
%TO.N,outer_home_B*%
X105842000Y-57467000D02*
X107400000Y-59025000D01*
X105842000Y-56920000D02*
X105842000Y-57467000D01*
%TO.N,outer_top_B*%
X105842000Y-38467000D02*
X107400000Y-40025000D01*
X105842000Y-37920000D02*
X105842000Y-38467000D01*
%TO.N,C1*%
X115710000Y-51840000D02*
X126085000Y-51840000D01*
D26*
X220803695Y-55895000D02*
X220298695Y-56400000D01*
D27*
X111915000Y-57085000D02*
X111915000Y-55635000D01*
X111915000Y-55635000D02*
X115710000Y-51840000D01*
D26*
X222479000Y-56620000D02*
X222129305Y-56620000D01*
X220298695Y-56400000D02*
X214524000Y-56400000D01*
X222129305Y-56620000D02*
X221404305Y-55895000D01*
X221404305Y-55895000D02*
X220803695Y-55895000D01*
D27*
%TO.N,pinky_mod_B*%
X124842000Y-92545000D02*
X126400000Y-94103000D01*
X126400000Y-94103000D02*
X126400000Y-94650000D01*
%TO.N,pinky_bottom_B*%
X124842000Y-73545000D02*
X124842000Y-74092000D01*
X124842000Y-74092000D02*
X126400000Y-75650000D01*
%TO.N,pinky_home_B*%
X124842000Y-54545000D02*
X124842000Y-55092000D01*
X124842000Y-55092000D02*
X126400000Y-56650000D01*
%TO.N,pinky_top_B*%
X124842000Y-35545000D02*
X124842000Y-36092000D01*
X124842000Y-36092000D02*
X126400000Y-37650000D01*
D26*
%TO.N,C2*%
X220803695Y-58435000D02*
X220298695Y-58940000D01*
D27*
X142319000Y-51420000D02*
X144999000Y-48740000D01*
D26*
X222129305Y-59160000D02*
X221839652Y-58870348D01*
X221839652Y-58870348D02*
X221404305Y-58435000D01*
D27*
X130915000Y-77010000D02*
X135075000Y-72850000D01*
D26*
X221404305Y-58435000D02*
X220803695Y-58435000D01*
X220298695Y-58940000D02*
X214524000Y-58940000D01*
D27*
X130915000Y-78460000D02*
X130915000Y-77010000D01*
X137505000Y-51420000D02*
X142319000Y-51420000D01*
D26*
X222479000Y-59160000D02*
X222129305Y-59160000D01*
D27*
X135075000Y-72850000D02*
X144999000Y-72850000D01*
X130915000Y-58010000D02*
X137505000Y-51420000D01*
X130915000Y-59460000D02*
X130915000Y-58010000D01*
%TO.N,ring_mod_B*%
X145400000Y-96478000D02*
X145400000Y-97025000D01*
X143842000Y-94920000D02*
X145400000Y-96478000D01*
%TO.N,ring_bottom_B*%
X145400000Y-77478000D02*
X145400000Y-78025000D01*
X143842000Y-75920000D02*
X145400000Y-77478000D01*
%TO.N,ring_home_B*%
X143842000Y-56920000D02*
X143842000Y-57467000D01*
X143842000Y-57467000D02*
X145400000Y-59025000D01*
%TO.N,ring_top_B*%
X143842000Y-37920000D02*
X145400000Y-39478000D01*
X145400000Y-39478000D02*
X145400000Y-40025000D01*
%TO.N,C3*%
X149915000Y-38085000D02*
X149915000Y-36635000D01*
D26*
X222479000Y-61700000D02*
X222129305Y-61700000D01*
D27*
X153650000Y-32900000D02*
X156880000Y-32900000D01*
D26*
X220298695Y-61480000D02*
X214524000Y-61480000D01*
X221404305Y-60975000D02*
X220803695Y-60975000D01*
D27*
X149915000Y-74635000D02*
X153730000Y-70820000D01*
X149915000Y-36635000D02*
X153650000Y-32900000D01*
X149915000Y-76085000D02*
X149915000Y-74635000D01*
D26*
X220803695Y-60975000D02*
X220298695Y-61480000D01*
X222129305Y-61700000D02*
X221404305Y-60975000D01*
D27*
%TO.N,middle_mod_B*%
X162842000Y-93092000D02*
X164400000Y-94650000D01*
X162842000Y-92545000D02*
X162842000Y-93092000D01*
%TO.N,middle_bottom_B*%
X164400000Y-75103000D02*
X164400000Y-75650000D01*
X162842000Y-73545000D02*
X164400000Y-75103000D01*
%TO.N,middle_home_B*%
X162842000Y-55092000D02*
X164400000Y-56650000D01*
X162842000Y-54545000D02*
X162842000Y-55092000D01*
%TO.N,middle_top_B*%
X162842000Y-35545000D02*
X162842000Y-36092000D01*
X162842000Y-36092000D02*
X164400000Y-37650000D01*
D26*
%TO.N,C4*%
X221404305Y-63515000D02*
X220803695Y-63515000D01*
D27*
X172725000Y-35200000D02*
X176860000Y-35200000D01*
X168915000Y-39010000D02*
X172725000Y-35200000D01*
X168915000Y-40460000D02*
X168915000Y-39010000D01*
D26*
X220298695Y-64020000D02*
X214524000Y-64020000D01*
X222129305Y-64240000D02*
X221404305Y-63515000D01*
X222479000Y-64240000D02*
X222129305Y-64240000D01*
X220803695Y-63515000D02*
X220298695Y-64020000D01*
D27*
X168915000Y-78460000D02*
X168915000Y-77010000D01*
X173505000Y-72420000D02*
X182967000Y-72420000D01*
X168915000Y-77010000D02*
X173505000Y-72420000D01*
%TO.N,index_mod_B*%
X181842000Y-95467000D02*
X183400000Y-97025000D01*
X181842000Y-94920000D02*
X181842000Y-95467000D01*
%TO.N,index_bottom_B*%
X181842000Y-75920000D02*
X181842000Y-76467000D01*
X181842000Y-76467000D02*
X183400000Y-78025000D01*
%TO.N,index_home_B*%
X183400000Y-58478000D02*
X183400000Y-59025000D01*
X181842000Y-56920000D02*
X183400000Y-58478000D01*
%TO.N,index_top_B*%
X181842000Y-38467000D02*
X183400000Y-40025000D01*
X181842000Y-37920000D02*
X181842000Y-38467000D01*
%TO.N,C5*%
X190330000Y-38050000D02*
X195170000Y-38050000D01*
X187915000Y-40465000D02*
X190330000Y-38050000D01*
X187915000Y-60385000D02*
X191940000Y-56360000D01*
D26*
X220298695Y-66560000D02*
X214524000Y-66560000D01*
D27*
X202085000Y-56360000D02*
X208933000Y-63208000D01*
X192640000Y-74660000D02*
X202085000Y-74660000D01*
X208933000Y-63208000D02*
X208933000Y-65355000D01*
X208933000Y-65355000D02*
X209207000Y-65629000D01*
D26*
X221404305Y-66055000D02*
X220803695Y-66055000D01*
D27*
X209207000Y-65629000D02*
X221133000Y-65629000D01*
X187915000Y-80835000D02*
X187915000Y-79385000D01*
D26*
X222129305Y-66780000D02*
X221404305Y-66055000D01*
D27*
X187915000Y-79385000D02*
X192640000Y-74660000D01*
D26*
X222479000Y-66780000D02*
X222129305Y-66780000D01*
X220803695Y-66055000D02*
X220298695Y-66560000D01*
D27*
X221133000Y-65629000D02*
X222284000Y-66780000D01*
X191940000Y-56360000D02*
X202085000Y-56360000D01*
X187915000Y-42835000D02*
X187915000Y-40465000D01*
X187915000Y-61835000D02*
X187915000Y-60385000D01*
%TO.N,inner_bottom_B*%
X200842000Y-78842000D02*
X202400000Y-80400000D01*
X200842000Y-78295000D02*
X200842000Y-78842000D01*
%TO.N,inner_home_B*%
X200842000Y-59295000D02*
X202400000Y-60853000D01*
X202400000Y-60853000D02*
X202400000Y-61400000D01*
%TO.N,inner_top_B*%
X200842000Y-40842000D02*
X202400000Y-42400000D01*
X200842000Y-40295000D02*
X200842000Y-40842000D01*
%TO.N,tucky_default_B*%
X198676806Y-101140680D02*
X198973574Y-100843912D01*
X196371591Y-101140680D02*
X198676806Y-101140680D01*
%TO.N,C6*%
X206784074Y-121327586D02*
X208562278Y-123105790D01*
X214350000Y-108460000D02*
X212406862Y-108460000D01*
D26*
X221404305Y-68595000D02*
X220803695Y-68595000D01*
D27*
X206784074Y-114082788D02*
X206784074Y-121327586D01*
D26*
X220298695Y-69100000D02*
X214524000Y-69100000D01*
X220803695Y-68595000D02*
X220298695Y-69100000D01*
X222479000Y-69320000D02*
X222129305Y-69320000D01*
D27*
X212406862Y-108460000D02*
X206784074Y-114082788D01*
D26*
X222129305Y-69320000D02*
X221404305Y-68595000D01*
D27*
%TO.N,reachy_default_B*%
X215131289Y-110640680D02*
X215428057Y-110343912D01*
X212826074Y-110640680D02*
X215131289Y-110640680D01*
%TO.N,R0*%
X221676088Y-111993912D02*
X218285941Y-111993912D01*
X108225000Y-100325000D02*
X110490000Y-102590000D01*
X221680000Y-111990000D02*
X221676088Y-111993912D01*
D26*
X214003695Y-62425000D02*
X214604305Y-62425000D01*
D27*
X107400000Y-100325000D02*
X108225000Y-100325000D01*
D26*
X214604305Y-62425000D02*
X215099305Y-61930000D01*
D27*
X181710000Y-102700000D02*
X183400000Y-101010000D01*
X214598943Y-107859000D02*
X218285941Y-111545998D01*
D26*
X212929000Y-61700000D02*
X213278695Y-61700000D01*
D27*
X218285941Y-111545998D02*
X218285941Y-111993912D01*
D26*
X215099305Y-61930000D02*
X220874000Y-61930000D01*
X213278695Y-61700000D02*
X214003695Y-62425000D01*
D27*
X183400000Y-101010000D02*
X183400000Y-100325000D01*
X221950000Y-111990000D02*
X221680000Y-111990000D01*
D26*
%TO.N,R1*%
X214003695Y-64965000D02*
X214604305Y-64965000D01*
D27*
X107400000Y-81880000D02*
X107400000Y-81325000D01*
D26*
X215099305Y-64470000D02*
X220874000Y-64470000D01*
D27*
X226475000Y-69796760D02*
X226475000Y-66303240D01*
D26*
X214604305Y-64965000D02*
X215099305Y-64470000D01*
D27*
X202400000Y-83700000D02*
X203301000Y-82799000D01*
X203301000Y-82799000D02*
X203301000Y-76409437D01*
X226475000Y-66303240D02*
X225800760Y-65629000D01*
X221104000Y-64805685D02*
X221104000Y-64240000D01*
X203301000Y-76409437D02*
X209239437Y-70471000D01*
X209239437Y-70471000D02*
X225800760Y-70471000D01*
X105080000Y-84200000D02*
X107400000Y-81880000D01*
X225800760Y-65629000D02*
X221927315Y-65629000D01*
D26*
X213278695Y-64240000D02*
X214003695Y-64965000D01*
D27*
X225800760Y-70471000D02*
X226475000Y-69796760D01*
D26*
X212929000Y-64240000D02*
X213278695Y-64240000D01*
D27*
X221927315Y-65629000D02*
X221104000Y-64805685D01*
%TO.N,R2*%
X104340000Y-65360000D02*
X104365000Y-65360000D01*
D26*
X215099305Y-67010000D02*
X220874000Y-67010000D01*
X214604305Y-67505000D02*
X215099305Y-67010000D01*
D27*
X104365000Y-65360000D02*
X107400000Y-62325000D01*
X164400000Y-59950000D02*
X164810000Y-59950000D01*
D26*
X214003695Y-67505000D02*
X214604305Y-67505000D01*
X213278695Y-66780000D02*
X214003695Y-67505000D01*
X212929000Y-66780000D02*
X213278695Y-66780000D01*
D27*
X219953000Y-67931000D02*
X221104000Y-66780000D01*
D26*
%TO.N,R3*%
X212929000Y-69320000D02*
X213278695Y-69320000D01*
X215099305Y-69550000D02*
X220874000Y-69550000D01*
D27*
X162025000Y-43325000D02*
X164400000Y-40950000D01*
X145400000Y-43325000D02*
X150890000Y-43325000D01*
D26*
X214604305Y-70045000D02*
X215099305Y-69550000D01*
D27*
X126400000Y-41040000D02*
X126400000Y-40950000D01*
X126400000Y-40950000D02*
X126980000Y-40950000D01*
D26*
X214003695Y-70045000D02*
X214604305Y-70045000D01*
X213278695Y-69320000D02*
X214003695Y-70045000D01*
D27*
X107400000Y-43780000D02*
X107400000Y-43325000D01*
X150890000Y-43325000D02*
X162025000Y-43325000D01*
X164400000Y-40950000D02*
X164840000Y-40950000D01*
D26*
%TO.N,RAW*%
X222129305Y-43920000D02*
X221404305Y-43195000D01*
D27*
X227765000Y-85500000D02*
X226210000Y-85500000D01*
D26*
X221404305Y-43195000D02*
X220803695Y-43195000D01*
X222479000Y-43920000D02*
X222129305Y-43920000D01*
X220298695Y-43700000D02*
X214524000Y-43700000D01*
X220803695Y-43195000D02*
X220298695Y-43700000D01*
D27*
X226210000Y-85500000D02*
X226190000Y-85520000D01*
D26*
%TO.N,RST*%
X222129305Y-49000000D02*
X221404305Y-48275000D01*
X220298695Y-48780000D02*
X214524000Y-48780000D01*
X220803695Y-48275000D02*
X220298695Y-48780000D01*
X221404305Y-48275000D02*
X220803695Y-48275000D01*
X222479000Y-49000000D02*
X222129305Y-49000000D01*
%TO.N,VCC*%
X220803695Y-50815000D02*
X220298695Y-51320000D01*
X222479000Y-51540000D02*
X222129305Y-51540000D01*
X221404305Y-50815000D02*
X220803695Y-50815000D01*
X220298695Y-51320000D02*
X214524000Y-51320000D01*
X222129305Y-51540000D02*
X221404305Y-50815000D01*
%TO.N,P10*%
X222479000Y-71860000D02*
X222129305Y-71860000D01*
X221404305Y-71135000D02*
X220803695Y-71135000D01*
X220298695Y-71640000D02*
X214524000Y-71640000D01*
X220803695Y-71135000D02*
X220298695Y-71640000D01*
X222129305Y-71860000D02*
X221404305Y-71135000D01*
%TO.N,LED*%
X214003695Y-44645000D02*
X214604305Y-44645000D01*
X214604305Y-44645000D02*
X215099305Y-44150000D01*
X213278695Y-43920000D02*
X214003695Y-44645000D01*
X212929000Y-43920000D02*
X213278695Y-43920000D01*
X215099305Y-44150000D02*
X220874000Y-44150000D01*
%TO.N,DAT*%
X212929000Y-46460000D02*
X213278695Y-46460000D01*
X214003695Y-47185000D02*
X214604305Y-47185000D01*
X214604305Y-47185000D02*
X215099305Y-46690000D01*
X213278695Y-46460000D02*
X214003695Y-47185000D01*
X215099305Y-46690000D02*
X220874000Y-46690000D01*
%TO.N,SDA*%
X214604305Y-54805000D02*
X215099305Y-54310000D01*
X212929000Y-54080000D02*
X213278695Y-54080000D01*
X214003695Y-54805000D02*
X214604305Y-54805000D01*
X213278695Y-54080000D02*
X214003695Y-54805000D01*
%TO.N,SCL*%
X214604305Y-57345000D02*
X215099305Y-56850000D01*
X212929000Y-56620000D02*
X213278695Y-56620000D01*
X214003695Y-57345000D02*
X214604305Y-57345000D01*
X215099305Y-56850000D02*
X218860000Y-56850000D01*
X213278695Y-56620000D02*
X214003695Y-57345000D01*
%TO.N,CS*%
X212929000Y-59160000D02*
X213278695Y-59160000D01*
X213278695Y-59160000D02*
X214003695Y-59885000D01*
X214604305Y-59885000D02*
X215099305Y-59390000D01*
X214003695Y-59885000D02*
X214604305Y-59885000D01*
%TO.N,P9*%
X215099305Y-72090000D02*
X220874000Y-72090000D01*
X214604305Y-72585000D02*
X215099305Y-72090000D01*
X213278695Y-71860000D02*
X214003695Y-72585000D01*
X214003695Y-72585000D02*
X214604305Y-72585000D01*
X212929000Y-71860000D02*
X213278695Y-71860000D01*
%TO.N,MCU1_24*%
X210084000Y-43920000D02*
X212204000Y-43920000D01*
%TO.N,MCU1_1*%
X225324000Y-43920000D02*
X223204000Y-43920000D01*
%TO.N,MCU1_23*%
X210084000Y-46460000D02*
X212204000Y-46460000D01*
%TO.N,MCU1_2*%
X225324000Y-46460000D02*
X223204000Y-46460000D01*
%TO.N,MCU1_22*%
X210084000Y-49000000D02*
X212204000Y-49000000D01*
%TO.N,MCU1_3*%
X225324000Y-49000000D02*
X223204000Y-49000000D01*
%TO.N,MCU1_21*%
X210084000Y-51540000D02*
X212204000Y-51540000D01*
%TO.N,MCU1_4*%
X225324000Y-51540000D02*
X223204000Y-51540000D01*
%TO.N,MCU1_20*%
X210084000Y-54080000D02*
X212204000Y-54080000D01*
%TO.N,MCU1_5*%
X225324000Y-54080000D02*
X223204000Y-54080000D01*
%TO.N,MCU1_19*%
X210084000Y-56620000D02*
X212204000Y-56620000D01*
%TO.N,MCU1_6*%
X225324000Y-56620000D02*
X223204000Y-56620000D01*
%TO.N,MCU1_18*%
X210084000Y-59160000D02*
X212204000Y-59160000D01*
%TO.N,MCU1_7*%
X225324000Y-59160000D02*
X223204000Y-59160000D01*
%TO.N,MCU1_17*%
X210084000Y-61700000D02*
X212204000Y-61700000D01*
%TO.N,MCU1_8*%
X225324000Y-61700000D02*
X223204000Y-61700000D01*
%TO.N,MCU1_16*%
X210084000Y-64240000D02*
X212204000Y-64240000D01*
%TO.N,MCU1_9*%
X225324000Y-64240000D02*
X223204000Y-64240000D01*
%TO.N,MCU1_15*%
X210084000Y-66780000D02*
X212204000Y-66780000D01*
%TO.N,MCU1_10*%
X225324000Y-66780000D02*
X223204000Y-66780000D01*
%TO.N,MCU1_14*%
X210084000Y-69320000D02*
X212204000Y-69320000D01*
%TO.N,MCU1_11*%
X225324000Y-69320000D02*
X223204000Y-69320000D01*
%TO.N,MCU1_13*%
X210084000Y-71860000D02*
X212204000Y-71860000D01*
%TO.N,MCU1_12*%
X225324000Y-71860000D02*
X223204000Y-71860000D01*
%TO.N,DISP1_1*%
X212567000Y-75700000D02*
X212567000Y-77450000D01*
%TO.N,DISP1_2*%
X215107000Y-75700000D02*
X215107000Y-77450000D01*
%TO.N,DISP1_4*%
X220187000Y-75700000D02*
X220187000Y-77450000D01*
%TO.N,DISP1_5*%
X222727000Y-75700000D02*
X222727000Y-77450000D01*
%TO.N,JST1_1*%
X216550000Y-84500000D02*
X214750000Y-84500000D01*
%TO.N,JST1_2*%
X216550000Y-82500000D02*
X214750000Y-82500000D01*
D27*
%TO.N,C1*%
X111915000Y-38085000D02*
X111915000Y-40459892D01*
%TO.N,C4*%
X209845240Y-63089000D02*
X221133000Y-63089000D01*
X168915000Y-59460000D02*
X168915000Y-56655000D01*
X221133000Y-63089000D02*
X222284000Y-64240000D01*
X198726240Y-51970000D02*
X209845240Y-63089000D01*
%TD*%
M02*
