%TF.GenerationSoftware,KiCad,Pcbnew,9.0.2*%
%TF.CreationDate,2025-06-19T22:30:11+08:00*%
%TF.ProjectId,eggada50_wireless_manually_routed,65676761-6461-4353-905f-776972656c65,0.2*%
%TF.SameCoordinates,Original*%
%TF.FileFunction,Copper,L1,Top*%
%TF.FilePolarity,Positive*%
%FSLAX46Y46*%
G04 Gerber Fmt 4.6, Leading zero omitted, Abs format (unit mm)*
G04 Created by KiCad (PCBNEW 9.0.2) date 2025-06-19 22:30:11*
%MOMM*%
%LPD*%
G01*
G04 APERTURE LIST*
G04 Aperture macros list*
%AMRotRect*
0 Rectangle, with rotation*
0 The origin of the aperture is its center*
0 $1 length*
0 $2 width*
0 $3 Rotation angle, in degrees counterclockwise*
0 Add horizontal line*
21,1,$1,$2,0,0,$3*%
%AMFreePoly0*
4,1,6,0.600000,-1.000000,0.000000,-0.400000,-0.600000,-1.000000,-0.600000,0.250000,0.600000,0.250000,0.600000,-1.000000,0.600000,-1.000000,$1*%
%AMFreePoly1*
4,1,6,0.600000,-0.200000,0.600000,-0.400000,-0.600000,-0.400000,-0.600000,-0.200000,0.000000,0.400000,0.600000,-0.200000,0.600000,-0.200000,$1*%
G04 Aperture macros list end*
%TA.AperFunction,SMDPad,CuDef*%
%ADD10R,2.550000X2.500000*%
%TD*%
%TA.AperFunction,SMDPad,CuDef*%
%ADD11R,1.200000X0.900000*%
%TD*%
%TA.AperFunction,SMDPad,CuDef*%
%ADD12RotRect,2.550000X2.500000X60.000000*%
%TD*%
%TA.AperFunction,ComponentPad*%
%ADD13O,1.700000X1.700000*%
%TD*%
%TA.AperFunction,ComponentPad*%
%ADD14C,1.700000*%
%TD*%
%TA.AperFunction,SMDPad,CuDef*%
%ADD15R,1.200000X0.600000*%
%TD*%
%TA.AperFunction,SMDPad,CuDef*%
%ADD16R,0.800000X1.000000*%
%TD*%
%TA.AperFunction,SMDPad,CuDef*%
%ADD17R,1.500000X0.700000*%
%TD*%
%TA.AperFunction,SMDPad,CuDef*%
%ADD18R,0.600000X1.200000*%
%TD*%
%TA.AperFunction,ComponentPad*%
%ADD19C,0.800000*%
%TD*%
%TA.AperFunction,SMDPad,CuDef*%
%ADD20FreePoly0,270.000000*%
%TD*%
%TA.AperFunction,ComponentPad*%
%ADD21O,1.750000X1.200000*%
%TD*%
%TA.AperFunction,SMDPad,CuDef*%
%ADD22FreePoly1,270.000000*%
%TD*%
%TA.AperFunction,SMDPad,CuDef*%
%ADD23RotRect,0.900000X1.200000X150.000000*%
%TD*%
%TA.AperFunction,SMDPad,CuDef*%
%ADD24R,1.000000X1.550000*%
%TD*%
%TA.AperFunction,ViaPad*%
%ADD25C,0.600000*%
%TD*%
%TA.AperFunction,Conductor*%
%ADD26C,0.250000*%
%TD*%
%TA.AperFunction,Conductor*%
%ADD27C,0.200000*%
%TD*%
G04 APERTURE END LIST*
D10*
%TO.P,S31,1*%
%TO.N,C1*%
X126085000Y-76085000D03*
%TO.P,S31,2*%
%TO.N,pinky_bottom_F*%
X113158000Y-73545000D03*
%TD*%
D11*
%TO.P,D29,1*%
%TO.N,R3*%
X92600000Y-43325000D03*
%TO.P,D29,2*%
%TO.N,outer_top_F*%
X92600000Y-40025000D03*
%TD*%
D12*
%TO.P,S50,1*%
%TO.N,C6*%
X215647278Y-110834210D03*
%TO.P,S50,2*%
%TO.N,reachy_default_F*%
X206984074Y-120759320D03*
%TD*%
D13*
%TO.P,DISP1,1*%
%TO.N,DISP1_1*%
X212567000Y-75700000D03*
%TO.P,DISP1,2*%
%TO.N,DISP1_2*%
X215107000Y-75700000D03*
%TO.P,DISP1,3*%
%TO.N,VCC*%
X217647000Y-75700000D03*
%TO.P,DISP1,4*%
%TO.N,DISP1_4*%
X220187000Y-75700000D03*
D14*
%TO.P,DISP1,5*%
%TO.N,DISP1_5*%
X222727000Y-75700000D03*
D15*
%TO.P,DISP1,10*%
%TO.N,CS*%
X212567000Y-78350000D03*
%TO.P,DISP1,11*%
%TO.N,GND*%
X215107000Y-78350000D03*
%TO.P,DISP1,12*%
%TO.N,SCL*%
X220187000Y-78350000D03*
%TO.P,DISP1,13*%
%TO.N,SDA*%
X222727000Y-78350000D03*
%TO.P,DISP1,14*%
%TO.N,DISP1_1*%
X212567000Y-77450000D03*
%TO.P,DISP1,15*%
%TO.N,DISP1_2*%
X215107000Y-77450000D03*
%TO.P,DISP1,16*%
%TO.N,DISP1_4*%
X220187000Y-77450000D03*
%TO.P,DISP1,17*%
%TO.N,DISP1_5*%
X222727000Y-77450000D03*
%TD*%
D16*
%TO.P,PWR1,*%
%TO.N,*%
X228415000Y-81100000D03*
X228415000Y-88400000D03*
X230625000Y-81100000D03*
X230625000Y-88400000D03*
D17*
%TO.P,PWR1,1*%
%TO.N,N/C*%
X227765000Y-87000000D03*
%TO.P,PWR1,2*%
%TO.N,RAW*%
X227765000Y-84000000D03*
%TO.P,PWR1,3*%
%TO.N,BAT_P*%
X227765000Y-82500000D03*
%TD*%
D10*
%TO.P,S33,1*%
%TO.N,C1*%
X126085000Y-38085000D03*
%TO.P,S33,2*%
%TO.N,pinky_top_F*%
X113158000Y-35545000D03*
%TD*%
%TO.P,S26,1*%
%TO.N,C0*%
X107085000Y-97460000D03*
%TO.P,S26,2*%
%TO.N,outer_mod_F*%
X94158000Y-94920000D03*
%TD*%
D11*
%TO.P,D38,1*%
%TO.N,R0*%
X149600000Y-97950000D03*
%TO.P,D38,2*%
%TO.N,middle_mod_F*%
X149600000Y-94650000D03*
%TD*%
D10*
%TO.P,S43,1*%
%TO.N,C4*%
X183085000Y-78460000D03*
%TO.P,S43,2*%
%TO.N,index_bottom_F*%
X170158000Y-75920000D03*
%TD*%
D11*
%TO.P,D43,1*%
%TO.N,R1*%
X168600000Y-81325000D03*
%TO.P,D43,2*%
%TO.N,index_bottom_F*%
X168600000Y-78025000D03*
%TD*%
%TO.P,D35,1*%
%TO.N,R1*%
X130600000Y-81325000D03*
%TO.P,D35,2*%
%TO.N,ring_bottom_F*%
X130600000Y-78025000D03*
%TD*%
D18*
%TO.P,MCU1,1*%
%TO.N,MCU1_1*%
X223184000Y-43920000D03*
D14*
X225324000Y-43920000D03*
D18*
%TO.P,MCU1,2*%
%TO.N,MCU1_2*%
X223184000Y-46460000D03*
D14*
X225324000Y-46460000D03*
D18*
%TO.P,MCU1,3*%
%TO.N,MCU1_3*%
X223184000Y-49000000D03*
D14*
X225324000Y-49000000D03*
D18*
%TO.P,MCU1,4*%
%TO.N,MCU1_4*%
X223184000Y-51540000D03*
D14*
X225324000Y-51540000D03*
D18*
%TO.P,MCU1,5*%
%TO.N,MCU1_5*%
X223184000Y-54080000D03*
D14*
X225324000Y-54080000D03*
D18*
%TO.P,MCU1,6*%
%TO.N,MCU1_6*%
X223184000Y-56620000D03*
D14*
X225324000Y-56620000D03*
D18*
%TO.P,MCU1,7*%
%TO.N,MCU1_7*%
X223184000Y-59160000D03*
D14*
X225324000Y-59160000D03*
D18*
%TO.P,MCU1,8*%
%TO.N,MCU1_8*%
X223184000Y-61700000D03*
D14*
X225324000Y-61700000D03*
D18*
%TO.P,MCU1,9*%
%TO.N,MCU1_9*%
X223184000Y-64240000D03*
D14*
X225324000Y-64240000D03*
D18*
%TO.P,MCU1,10*%
%TO.N,MCU1_10*%
X223184000Y-66780000D03*
D14*
X225324000Y-66780000D03*
D18*
%TO.P,MCU1,11*%
%TO.N,MCU1_11*%
X223184000Y-69320000D03*
D14*
X225324000Y-69320000D03*
D18*
%TO.P,MCU1,12*%
%TO.N,MCU1_12*%
X223184000Y-71860000D03*
D14*
X225324000Y-71860000D03*
%TO.P,MCU1,13*%
%TO.N,MCU1_13*%
X210084000Y-71860000D03*
D18*
X212224000Y-71860000D03*
D14*
%TO.P,MCU1,14*%
%TO.N,MCU1_14*%
X210084000Y-69320000D03*
D18*
X212224000Y-69320000D03*
D14*
%TO.P,MCU1,15*%
%TO.N,MCU1_15*%
X210084000Y-66780000D03*
D18*
X212224000Y-66780000D03*
D14*
%TO.P,MCU1,16*%
%TO.N,MCU1_16*%
X210084000Y-64240000D03*
D18*
X212224000Y-64240000D03*
D14*
%TO.P,MCU1,17*%
%TO.N,MCU1_17*%
X210084000Y-61700000D03*
D18*
X212224000Y-61700000D03*
D14*
%TO.P,MCU1,18*%
%TO.N,MCU1_18*%
X210084000Y-59160000D03*
D18*
X212224000Y-59160000D03*
D14*
%TO.P,MCU1,19*%
%TO.N,MCU1_19*%
X210084000Y-56620000D03*
D18*
X212224000Y-56620000D03*
D14*
%TO.P,MCU1,20*%
%TO.N,MCU1_20*%
X210084000Y-54080000D03*
D18*
X212224000Y-54080000D03*
D14*
%TO.P,MCU1,21*%
%TO.N,MCU1_21*%
X210084000Y-51540000D03*
D18*
X212224000Y-51540000D03*
D14*
%TO.P,MCU1,22*%
%TO.N,MCU1_22*%
X210084000Y-49000000D03*
D18*
X212224000Y-49000000D03*
D14*
%TO.P,MCU1,23*%
%TO.N,MCU1_23*%
X210084000Y-46460000D03*
D18*
X212224000Y-46460000D03*
D14*
%TO.P,MCU1,24*%
%TO.N,MCU1_24*%
X210084000Y-43920000D03*
D18*
X212224000Y-43920000D03*
D19*
%TO.P,MCU1,101*%
%TO.N,LED*%
X221104000Y-43920000D03*
D18*
X222284000Y-43920000D03*
D19*
%TO.P,MCU1,102*%
%TO.N,DAT*%
X221104000Y-46460000D03*
D18*
X222284000Y-46460000D03*
D19*
%TO.P,MCU1,103*%
%TO.N,GND*%
X221104000Y-49000000D03*
D18*
X222284000Y-49000000D03*
D19*
%TO.P,MCU1,104*%
X221104000Y-51540000D03*
D18*
X222284000Y-51540000D03*
D19*
%TO.P,MCU1,105*%
%TO.N,SDA*%
X221104000Y-54080000D03*
D18*
X222284000Y-54080000D03*
D19*
%TO.P,MCU1,106*%
%TO.N,SCL*%
X221104000Y-56620000D03*
D18*
X222284000Y-56620000D03*
D19*
%TO.P,MCU1,107*%
%TO.N,CS*%
X221104000Y-59160000D03*
D18*
X222284000Y-59160000D03*
D19*
%TO.P,MCU1,108*%
%TO.N,R0*%
X221104000Y-61700000D03*
D18*
X222284000Y-61700000D03*
D19*
%TO.P,MCU1,109*%
%TO.N,R1*%
X221104000Y-64240000D03*
D18*
X222284000Y-64240000D03*
D19*
%TO.P,MCU1,110*%
%TO.N,R2*%
X221104000Y-66780000D03*
D18*
X222284000Y-66780000D03*
D19*
%TO.P,MCU1,111*%
%TO.N,R3*%
X221104000Y-69320000D03*
D18*
X222284000Y-69320000D03*
D19*
%TO.P,MCU1,112*%
%TO.N,P9*%
X221104000Y-71860000D03*
D18*
X222284000Y-71860000D03*
%TO.P,MCU1,113*%
%TO.N,P10*%
X213124000Y-71860000D03*
D19*
X214304000Y-71860000D03*
D18*
%TO.P,MCU1,114*%
%TO.N,C6*%
X213124000Y-69320000D03*
D19*
X214304000Y-69320000D03*
D18*
%TO.P,MCU1,115*%
%TO.N,C5*%
X213124000Y-66780000D03*
D19*
X214304000Y-66780000D03*
D18*
%TO.P,MCU1,116*%
%TO.N,C4*%
X213124000Y-64240000D03*
D19*
X214304000Y-64240000D03*
D18*
%TO.P,MCU1,117*%
%TO.N,C3*%
X213124000Y-61700000D03*
D19*
X214304000Y-61700000D03*
D18*
%TO.P,MCU1,118*%
%TO.N,C2*%
X213124000Y-59160000D03*
D19*
X214304000Y-59160000D03*
D18*
%TO.P,MCU1,119*%
%TO.N,C1*%
X213124000Y-56620000D03*
D19*
X214304000Y-56620000D03*
D18*
%TO.P,MCU1,120*%
%TO.N,C0*%
X213124000Y-54080000D03*
D19*
X214304000Y-54080000D03*
D18*
%TO.P,MCU1,121*%
%TO.N,VCC*%
X213124000Y-51540000D03*
D19*
X214304000Y-51540000D03*
D18*
%TO.P,MCU1,122*%
%TO.N,RST*%
X213124000Y-49000000D03*
D19*
X214304000Y-49000000D03*
D18*
%TO.P,MCU1,123*%
%TO.N,GND*%
X213124000Y-46460000D03*
D19*
X214304000Y-46460000D03*
D18*
%TO.P,MCU1,124*%
%TO.N,RAW*%
X213124000Y-43920000D03*
D19*
X214304000Y-43920000D03*
%TD*%
D10*
%TO.P,S38,1*%
%TO.N,C3*%
X164085000Y-95085000D03*
%TO.P,S38,2*%
%TO.N,middle_mod_F*%
X151158000Y-92545000D03*
%TD*%
%TO.P,S29,1*%
%TO.N,C0*%
X107085000Y-40460000D03*
%TO.P,S29,2*%
%TO.N,outer_top_F*%
X94158000Y-37920000D03*
%TD*%
%TO.P,S46,1*%
%TO.N,C5*%
X202085000Y-80835000D03*
%TO.P,S46,2*%
%TO.N,inner_bottom_F*%
X189158000Y-78295000D03*
%TD*%
%TO.P,S34,1*%
%TO.N,C2*%
X145085000Y-97460000D03*
%TO.P,S34,2*%
%TO.N,ring_mod_F*%
X132158000Y-94920000D03*
%TD*%
D11*
%TO.P,D47,1*%
%TO.N,R2*%
X187600000Y-64700000D03*
%TO.P,D47,2*%
%TO.N,inner_home_F*%
X187600000Y-61400000D03*
%TD*%
D20*
%TO.P,JST1,1*%
%TO.N,BAT_P*%
X217566000Y-84500000D03*
%TO.P,JST1,2*%
%TO.N,GND*%
X217566000Y-82500000D03*
D21*
%TO.P,JST1,11*%
%TO.N,JST1_1*%
X214750000Y-84500000D03*
%TO.P,JST1,12*%
%TO.N,JST1_2*%
X214750000Y-82500000D03*
D22*
%TO.P,JST1,21*%
%TO.N,JST1_1*%
X216550000Y-84500000D03*
%TO.P,JST1,22*%
%TO.N,JST1_2*%
X216550000Y-82500000D03*
%TD*%
D11*
%TO.P,D32,1*%
%TO.N,R2*%
X111600000Y-59950000D03*
%TO.P,D32,2*%
%TO.N,pinky_home_F*%
X111600000Y-56650000D03*
%TD*%
D10*
%TO.P,S40,1*%
%TO.N,C3*%
X164085000Y-57085000D03*
%TO.P,S40,2*%
%TO.N,middle_home_F*%
X151158000Y-54545000D03*
%TD*%
D23*
%TO.P,D50,1*%
%TO.N,R0*%
X210885941Y-124811088D03*
%TO.P,D50,2*%
%TO.N,reachy_default_F*%
X208028057Y-123161088D03*
%TD*%
D10*
%TO.P,S48,1*%
%TO.N,C5*%
X202085000Y-42835000D03*
%TO.P,S48,2*%
%TO.N,inner_top_F*%
X189158000Y-40295000D03*
%TD*%
D11*
%TO.P,D45,1*%
%TO.N,R3*%
X168600000Y-43325000D03*
%TO.P,D45,2*%
%TO.N,index_top_F*%
X168600000Y-40025000D03*
%TD*%
D10*
%TO.P,S39,1*%
%TO.N,C3*%
X164085000Y-76085000D03*
%TO.P,S39,2*%
%TO.N,middle_bottom_F*%
X151158000Y-73545000D03*
%TD*%
D11*
%TO.P,D26,1*%
%TO.N,R0*%
X92600000Y-100325000D03*
%TO.P,D26,2*%
%TO.N,outer_mod_F*%
X92600000Y-97025000D03*
%TD*%
D10*
%TO.P,S44,1*%
%TO.N,C4*%
X183085000Y-59460000D03*
%TO.P,S44,2*%
%TO.N,index_home_F*%
X170158000Y-56920000D03*
%TD*%
%TO.P,S47,1*%
%TO.N,C5*%
X202085000Y-61835000D03*
%TO.P,S47,2*%
%TO.N,inner_home_F*%
X189158000Y-59295000D03*
%TD*%
D11*
%TO.P,D41,1*%
%TO.N,R3*%
X149600000Y-40950000D03*
%TO.P,D41,2*%
%TO.N,middle_top_F*%
X149600000Y-37650000D03*
%TD*%
D10*
%TO.P,S35,1*%
%TO.N,C2*%
X145085000Y-78460000D03*
%TO.P,S35,2*%
%TO.N,ring_bottom_F*%
X132158000Y-75920000D03*
%TD*%
D11*
%TO.P,D46,1*%
%TO.N,R1*%
X187600000Y-83700000D03*
%TO.P,D46,2*%
%TO.N,inner_bottom_F*%
X187600000Y-80400000D03*
%TD*%
D10*
%TO.P,S32,1*%
%TO.N,C1*%
X126085000Y-57085000D03*
%TO.P,S32,2*%
%TO.N,pinky_home_F*%
X113158000Y-54545000D03*
%TD*%
%TO.P,S36,1*%
%TO.N,C2*%
X145085000Y-59460000D03*
%TO.P,S36,2*%
%TO.N,ring_home_F*%
X132158000Y-56920000D03*
%TD*%
D11*
%TO.P,D40,1*%
%TO.N,R2*%
X149600000Y-59950000D03*
%TO.P,D40,2*%
%TO.N,middle_home_F*%
X149600000Y-56650000D03*
%TD*%
D12*
%TO.P,S49,1*%
%TO.N,C5*%
X199192795Y-101334210D03*
%TO.P,S49,2*%
%TO.N,tucky_default_F*%
X190529591Y-111259320D03*
%TD*%
D10*
%TO.P,S28,1*%
%TO.N,C0*%
X107085000Y-59460000D03*
%TO.P,S28,2*%
%TO.N,outer_home_F*%
X94158000Y-56920000D03*
%TD*%
D24*
%TO.P,RST1,1*%
%TO.N,GND*%
X230100000Y-75375000D03*
%TO.P,RST1,2*%
%TO.N,RST*%
X228400000Y-75375000D03*
%TO.P,RST1,3*%
%TO.N,GND*%
X230100000Y-70125000D03*
%TO.P,RST1,4*%
%TO.N,RST*%
X228400000Y-70125000D03*
%TD*%
D11*
%TO.P,D44,1*%
%TO.N,R2*%
X168600000Y-62325000D03*
%TO.P,D44,2*%
%TO.N,index_home_F*%
X168600000Y-59025000D03*
%TD*%
D10*
%TO.P,S37,1*%
%TO.N,C2*%
X145085000Y-40460000D03*
%TO.P,S37,2*%
%TO.N,ring_top_F*%
X132158000Y-37920000D03*
%TD*%
D11*
%TO.P,D31,1*%
%TO.N,R1*%
X111600000Y-78950000D03*
%TO.P,D31,2*%
%TO.N,pinky_bottom_F*%
X111600000Y-75650000D03*
%TD*%
%TO.P,D42,1*%
%TO.N,R0*%
X168600000Y-100325000D03*
%TO.P,D42,2*%
%TO.N,index_mod_F*%
X168600000Y-97025000D03*
%TD*%
%TO.P,D34,1*%
%TO.N,R0*%
X130600000Y-100325000D03*
%TO.P,D34,2*%
%TO.N,ring_mod_F*%
X130600000Y-97025000D03*
%TD*%
D10*
%TO.P,S30,1*%
%TO.N,C1*%
X126085000Y-95085000D03*
%TO.P,S30,2*%
%TO.N,pinky_mod_F*%
X113158000Y-92545000D03*
%TD*%
%TO.P,S42,1*%
%TO.N,C4*%
X183085000Y-97460000D03*
%TO.P,S42,2*%
%TO.N,index_mod_F*%
X170158000Y-94920000D03*
%TD*%
D11*
%TO.P,D39,1*%
%TO.N,R1*%
X149600000Y-78950000D03*
%TO.P,D39,2*%
%TO.N,middle_bottom_F*%
X149600000Y-75650000D03*
%TD*%
%TO.P,D28,1*%
%TO.N,R2*%
X92600000Y-62325000D03*
%TO.P,D28,2*%
%TO.N,outer_home_F*%
X92600000Y-59025000D03*
%TD*%
D10*
%TO.P,S27,1*%
%TO.N,C0*%
X107085000Y-78460000D03*
%TO.P,S27,2*%
%TO.N,outer_bottom_F*%
X94158000Y-75920000D03*
%TD*%
%TO.P,S45,1*%
%TO.N,C4*%
X183085000Y-40460000D03*
%TO.P,S45,2*%
%TO.N,index_top_F*%
X170158000Y-37920000D03*
%TD*%
D11*
%TO.P,D36,1*%
%TO.N,R2*%
X130600000Y-62325000D03*
%TO.P,D36,2*%
%TO.N,ring_home_F*%
X130600000Y-59025000D03*
%TD*%
%TO.P,D27,1*%
%TO.N,R1*%
X92600000Y-81325000D03*
%TO.P,D27,2*%
%TO.N,outer_bottom_F*%
X92600000Y-78025000D03*
%TD*%
%TO.P,D33,1*%
%TO.N,R3*%
X111600000Y-40950000D03*
%TO.P,D33,2*%
%TO.N,pinky_top_F*%
X111600000Y-37650000D03*
%TD*%
%TO.P,D37,1*%
%TO.N,R3*%
X130600000Y-43325000D03*
%TO.P,D37,2*%
%TO.N,ring_top_F*%
X130600000Y-40025000D03*
%TD*%
D23*
%TO.P,D49,1*%
%TO.N,R0*%
X194431458Y-115311088D03*
%TO.P,D49,2*%
%TO.N,tucky_default_F*%
X191573574Y-113661088D03*
%TD*%
D11*
%TO.P,D30,1*%
%TO.N,R0*%
X111600000Y-97950000D03*
%TO.P,D30,2*%
%TO.N,pinky_mod_F*%
X111600000Y-94650000D03*
%TD*%
D10*
%TO.P,S41,1*%
%TO.N,C3*%
X164085000Y-38085000D03*
%TO.P,S41,2*%
%TO.N,middle_top_F*%
X151158000Y-35545000D03*
%TD*%
D11*
%TO.P,D48,1*%
%TO.N,R3*%
X187600000Y-45700000D03*
%TO.P,D48,2*%
%TO.N,inner_top_F*%
X187600000Y-42400000D03*
%TD*%
D25*
%TO.N,CS*%
X222570000Y-60420000D03*
X220530000Y-73130000D03*
X210230000Y-73840000D03*
%TO.N,C4*%
X182967000Y-50510000D03*
%TO.N,C3*%
X164130000Y-50279000D03*
X164085000Y-70830000D03*
%TO.N,R3*%
X187630000Y-47830000D03*
%TO.N,C5*%
X189200000Y-103150000D03*
%TO.N,R3*%
X128505000Y-45405000D03*
%TO.N,C3*%
X160780000Y-89780000D03*
%TO.N,R1*%
X130600000Y-83700000D03*
%TO.N,C2*%
X144999000Y-91020000D03*
%TO.N,R3*%
X168590000Y-46120000D03*
%TO.N,R0*%
X170975000Y-102700000D03*
X149600000Y-100325000D03*
X130610000Y-103050000D03*
%TO.N,R1*%
X187610000Y-86450000D03*
X168600000Y-84250000D03*
X149650000Y-81325000D03*
%TO.N,C1*%
X126085000Y-69060000D03*
X126085000Y-88760000D03*
%TO.N,R1*%
X111620000Y-81325000D03*
%TO.N,R2*%
X187620000Y-68320000D03*
X168615000Y-64165000D03*
X149650000Y-62325000D03*
X130600000Y-64620000D03*
X111600000Y-62325000D03*
%TO.N,R3*%
X111640000Y-43325000D03*
X99520000Y-46260000D03*
%TO.N,C2*%
X137480000Y-46330000D03*
%TO.N,C1*%
X124900000Y-43040000D03*
%TO.N,SDA*%
X218811000Y-54869000D03*
%TO.N,SCL*%
X218840000Y-57350000D03*
X218910000Y-78440000D03*
%TO.N,SDA*%
X218950000Y-79330000D03*
%TO.N,GND*%
X217600000Y-80120000D03*
%TO.N,BAT_P*%
X218490000Y-81960000D03*
X226360000Y-82460000D03*
%TO.N,R3*%
X217610000Y-69725000D03*
X207530000Y-49910000D03*
%TO.N,RST*%
X228170000Y-71400000D03*
%TO.N,GND*%
X230120000Y-71590000D03*
%TO.N,C0*%
X106999000Y-69320000D03*
%TO.N,C1*%
X126085000Y-51840000D03*
%TO.N,C2*%
X144999000Y-72850000D03*
X144999000Y-48740000D03*
%TO.N,C3*%
X156880000Y-32900000D03*
%TO.N,C4*%
X182967000Y-91660000D03*
X176860000Y-35200000D03*
X182967000Y-72420000D03*
%TO.N,C5*%
X202085000Y-56360000D03*
X202085000Y-74660000D03*
X195170000Y-38050000D03*
%TO.N,C6*%
X214350000Y-108460000D03*
%TO.N,R0*%
X110490000Y-102590000D03*
X221950000Y-111990000D03*
%TO.N,R1*%
X105080000Y-84200000D03*
%TO.N,R2*%
X104340000Y-65360000D03*
%TO.N,R3*%
X150890000Y-43325000D03*
%TO.N,RAW*%
X226190000Y-85520000D03*
%TD*%
D26*
%TO.N,CS*%
X221357280Y-60420000D02*
X222570000Y-60420000D01*
X219977000Y-61800280D02*
X221357280Y-60420000D01*
X219977000Y-72597000D02*
X219977000Y-61800280D01*
X211767000Y-78350000D02*
X212567000Y-78350000D01*
X210230000Y-76813000D02*
X211767000Y-78350000D01*
X210230000Y-73840000D02*
X210230000Y-76813000D01*
X220510000Y-73130000D02*
X220530000Y-73130000D01*
X219977000Y-72597000D02*
X220510000Y-73130000D01*
D27*
%TO.N,C4*%
X182967000Y-50510000D02*
X182967000Y-50880000D01*
%TO.N,C3*%
X164085000Y-38085000D02*
X164085000Y-57085000D01*
X164085000Y-70830000D02*
X164085000Y-57085000D01*
X164085000Y-76085000D02*
X164085000Y-70830000D01*
%TO.N,C4*%
X182967000Y-50880000D02*
X182967000Y-72420000D01*
%TO.N,R3*%
X187600000Y-47800000D02*
X187630000Y-47830000D01*
X187600000Y-45700000D02*
X187600000Y-47800000D01*
%TO.N,C5*%
X199192795Y-101334210D02*
X191015790Y-101334210D01*
X191015790Y-101334210D02*
X189200000Y-103150000D01*
%TO.N,R3*%
X130600000Y-43325000D02*
X128520000Y-45405000D01*
X128520000Y-45405000D02*
X128505000Y-45405000D01*
%TO.N,C3*%
X160780000Y-90330000D02*
X160780000Y-89780000D01*
%TO.N,R1*%
X130600000Y-81325000D02*
X130600000Y-83700000D01*
%TO.N,C2*%
X144999000Y-91020000D02*
X144999000Y-91280000D01*
%TO.N,R3*%
X168600000Y-43325000D02*
X168600000Y-46110000D01*
X168600000Y-46110000D02*
X168590000Y-46120000D01*
%TO.N,C3*%
X160780000Y-86940000D02*
X160780000Y-86010000D01*
X160780000Y-86010000D02*
X164085000Y-82705000D01*
X160780000Y-89780000D02*
X160780000Y-86940000D01*
X164085000Y-93635000D02*
X160780000Y-90330000D01*
X164085000Y-95085000D02*
X164085000Y-93635000D01*
X164085000Y-82705000D02*
X164085000Y-76085000D01*
%TO.N,R0*%
X149600000Y-97950000D02*
X149600000Y-100325000D01*
X130600000Y-103040000D02*
X130610000Y-103050000D01*
X130600000Y-100325000D02*
X130600000Y-103040000D01*
%TO.N,R1*%
X187600000Y-86440000D02*
X187610000Y-86450000D01*
X187600000Y-83700000D02*
X187600000Y-86440000D01*
X168600000Y-81325000D02*
X168600000Y-84250000D01*
X149600000Y-81275000D02*
X149650000Y-81325000D01*
X149600000Y-78950000D02*
X149600000Y-81275000D01*
%TO.N,C1*%
X126085000Y-69060000D02*
X126085000Y-76085000D01*
X126085000Y-88760000D02*
X126085000Y-95085000D01*
%TO.N,R1*%
X111600000Y-78950000D02*
X111600000Y-81305000D01*
X111600000Y-81305000D02*
X111620000Y-81325000D01*
%TO.N,R2*%
X187600000Y-68300000D02*
X187620000Y-68320000D01*
X187600000Y-64700000D02*
X187600000Y-68300000D01*
X168600000Y-62325000D02*
X168600000Y-64150000D01*
X168600000Y-64150000D02*
X168615000Y-64165000D01*
X149600000Y-62275000D02*
X149650000Y-62325000D01*
X149600000Y-59950000D02*
X149600000Y-62275000D01*
X130600000Y-62325000D02*
X130600000Y-64620000D01*
X111600000Y-59950000D02*
X111600000Y-62325000D01*
%TO.N,R3*%
X111600000Y-40950000D02*
X111600000Y-43285000D01*
X111600000Y-43285000D02*
X111640000Y-43325000D01*
X95535000Y-46260000D02*
X99520000Y-46260000D01*
X92600000Y-43325000D02*
X95535000Y-46260000D01*
%TO.N,C2*%
X142589000Y-46330000D02*
X144999000Y-48740000D01*
X137480000Y-46330000D02*
X142589000Y-46330000D01*
%TO.N,C1*%
X126015000Y-43040000D02*
X126085000Y-42970000D01*
X124900000Y-43040000D02*
X126015000Y-43040000D01*
X126085000Y-42970000D02*
X126085000Y-44540000D01*
X126085000Y-38085000D02*
X126085000Y-42970000D01*
%TO.N,SDA*%
X219441000Y-55499000D02*
X218811000Y-54869000D01*
X219441000Y-72910943D02*
X219441000Y-55499000D01*
X221338000Y-74807943D02*
X219441000Y-72910943D01*
X221338000Y-77563000D02*
X221338000Y-74807943D01*
X222125000Y-78350000D02*
X221338000Y-77563000D01*
X222727000Y-78350000D02*
X222125000Y-78350000D01*
%TO.N,SCL*%
X218910000Y-57420000D02*
X218840000Y-57350000D01*
X218910000Y-78440000D02*
X218910000Y-57420000D01*
%TO.N,SDA*%
X218950000Y-79330000D02*
X221747000Y-79330000D01*
%TO.N,VCC*%
X218211000Y-54163900D02*
X215587100Y-51540000D01*
X218211000Y-75136000D02*
X218211000Y-54163900D01*
X215587100Y-51540000D02*
X214304000Y-51540000D01*
X217647000Y-75700000D02*
X218211000Y-75136000D01*
%TO.N,SCL*%
X220097000Y-78440000D02*
X220187000Y-78350000D01*
X218910000Y-78440000D02*
X220097000Y-78440000D01*
%TO.N,SDA*%
X221747000Y-79330000D02*
X222727000Y-78350000D01*
%TO.N,GND*%
X216710000Y-78350000D02*
X215107000Y-78350000D01*
X217600000Y-79240000D02*
X216710000Y-78350000D01*
X217600000Y-80120000D02*
X217600000Y-79240000D01*
X217566000Y-82500000D02*
X217566000Y-80154000D01*
X217566000Y-80154000D02*
X217600000Y-80120000D01*
%TO.N,BAT_P*%
X218490000Y-83576000D02*
X218490000Y-81960000D01*
X217566000Y-84500000D02*
X218490000Y-83576000D01*
X226400000Y-82500000D02*
X226360000Y-82460000D01*
X227765000Y-82500000D02*
X226400000Y-82500000D01*
D26*
%TO.N,GND*%
X221104000Y-50496000D02*
X221852000Y-49748000D01*
X221104000Y-51540000D02*
X221104000Y-50496000D01*
X221852000Y-49748000D02*
X222468000Y-50364000D01*
X230100000Y-54652884D02*
X230100000Y-70125000D01*
X225811116Y-50364000D02*
X230100000Y-54652884D01*
X222468000Y-50364000D02*
X225811116Y-50364000D01*
X221104000Y-49000000D02*
X221852000Y-49748000D01*
D27*
%TO.N,R3*%
X217610000Y-54130000D02*
X217610000Y-69725000D01*
X216409000Y-52929000D02*
X217610000Y-54130000D01*
X209829000Y-52929000D02*
X216409000Y-52929000D01*
X207530000Y-50630000D02*
X209829000Y-52929000D01*
X207530000Y-49910000D02*
X207530000Y-50630000D01*
D26*
%TO.N,RST*%
X228400000Y-58032884D02*
X228400000Y-70125000D01*
X225623116Y-55256000D02*
X228400000Y-58032884D01*
X220560000Y-55256000D02*
X225623116Y-55256000D01*
X214304000Y-49000000D02*
X220560000Y-55256000D01*
D27*
X228170000Y-71400000D02*
X227080000Y-72490000D01*
%TO.N,GND*%
X229899000Y-75174000D02*
X229899000Y-71811000D01*
X229899000Y-71811000D02*
X230120000Y-71590000D01*
X230100000Y-75375000D02*
X229899000Y-75174000D01*
X230100000Y-71570000D02*
X230120000Y-71590000D01*
X230100000Y-70125000D02*
X230100000Y-71570000D01*
%TO.N,RST*%
X227080000Y-74055000D02*
X228400000Y-75375000D01*
X228400000Y-71170000D02*
X228170000Y-71400000D01*
X227080000Y-72490000D02*
X227080000Y-74055000D01*
X228400000Y-70125000D02*
X228400000Y-71170000D01*
D26*
%TO.N,C0*%
X213124000Y-54080000D02*
X214304000Y-54080000D01*
D27*
X106999000Y-40546000D02*
X106999000Y-69320000D01*
X106999000Y-69320000D02*
X106999000Y-97374000D01*
X107085000Y-40460000D02*
X106999000Y-40546000D01*
X106999000Y-97374000D02*
X107085000Y-97460000D01*
D26*
%TO.N,GND*%
X222284000Y-49000000D02*
X221104000Y-49000000D01*
X222284000Y-51540000D02*
X221104000Y-51540000D01*
X213124000Y-46460000D02*
X214304000Y-46460000D01*
D27*
%TO.N,C1*%
X126085000Y-57085000D02*
X126085000Y-69060000D01*
X126085000Y-49110000D02*
X126085000Y-50320000D01*
X126085000Y-76085000D02*
X126085000Y-80960000D01*
X126085000Y-50320000D02*
X126085000Y-51840000D01*
D26*
X213124000Y-56620000D02*
X214304000Y-56620000D01*
D27*
X126085000Y-80960000D02*
X126085000Y-88760000D01*
X126085000Y-44540000D02*
X126085000Y-49110000D01*
X126085000Y-51840000D02*
X126085000Y-57085000D01*
%TO.N,C2*%
X144999000Y-97374000D02*
X145085000Y-97460000D01*
X144999000Y-72850000D02*
X144999000Y-91020000D01*
D26*
X213124000Y-59160000D02*
X214304000Y-59160000D01*
D27*
X145085000Y-40460000D02*
X144999000Y-40546000D01*
X144999000Y-51420000D02*
X144999000Y-72850000D01*
X144999000Y-91280000D02*
X144999000Y-97374000D01*
X144999000Y-48210000D02*
X144999000Y-48740000D01*
X144999000Y-40546000D02*
X144999000Y-48210000D01*
X144999000Y-48740000D02*
X144999000Y-51420000D01*
D26*
%TO.N,C3*%
X213124000Y-61700000D02*
X214304000Y-61700000D01*
D27*
X163967000Y-94967000D02*
X164085000Y-95085000D01*
X156880000Y-32900000D02*
X160350000Y-32900000D01*
X164085000Y-36635000D02*
X164085000Y-38085000D01*
X160350000Y-32900000D02*
X164085000Y-36635000D01*
X164085000Y-38085000D02*
X163967000Y-38203000D01*
%TO.N,C4*%
X179275000Y-35200000D02*
X183085000Y-39010000D01*
X182967000Y-72420000D02*
X182967000Y-91660000D01*
X182967000Y-50290000D02*
X182967000Y-50510000D01*
X183085000Y-39010000D02*
X183085000Y-40460000D01*
D26*
X213124000Y-64240000D02*
X214304000Y-64240000D01*
D27*
X182967000Y-40578000D02*
X182967000Y-50290000D01*
X182967000Y-91660000D02*
X182967000Y-97342000D01*
X182967000Y-97342000D02*
X183085000Y-97460000D01*
X176860000Y-35200000D02*
X179275000Y-35200000D01*
X183085000Y-40460000D02*
X182967000Y-40578000D01*
%TO.N,C5*%
X202085000Y-74660000D02*
X202085000Y-96120000D01*
X202085000Y-41385000D02*
X202085000Y-42835000D01*
X202085000Y-42835000D02*
X202085000Y-56360000D01*
X195170000Y-38050000D02*
X198750000Y-38050000D01*
X202085000Y-98442005D02*
X199192795Y-101334210D01*
X202085000Y-56360000D02*
X202085000Y-74660000D01*
X198750000Y-38050000D02*
X202085000Y-41385000D01*
D26*
X213124000Y-66780000D02*
X214304000Y-66780000D01*
D27*
X202085000Y-96120000D02*
X202085000Y-98442005D01*
%TO.N,C6*%
X213574000Y-107684000D02*
X213574000Y-82126794D01*
X213860000Y-81840794D02*
X213860000Y-73295364D01*
X215647278Y-110834210D02*
X214350000Y-109536932D01*
X214350000Y-108460000D02*
X213574000Y-107684000D01*
X214350000Y-109536932D02*
X214350000Y-108460000D01*
X213574000Y-82126794D02*
X213860000Y-81840794D01*
X215005000Y-70021000D02*
X214304000Y-69320000D01*
X213860000Y-73295364D02*
X215005000Y-72150364D01*
D26*
X213124000Y-69320000D02*
X214304000Y-69320000D01*
D27*
X215005000Y-72150364D02*
X215005000Y-70021000D01*
%TO.N,R0*%
X200161088Y-115311088D02*
X204630000Y-119780000D01*
X194431458Y-115311088D02*
X200161088Y-115311088D01*
X204630000Y-119780000D02*
X204630000Y-124570000D01*
X210437029Y-125260000D02*
X210885941Y-124811088D01*
X205320000Y-125260000D02*
X210437029Y-125260000D01*
X110660000Y-102590000D02*
X111600000Y-101650000D01*
X220403000Y-72150364D02*
X220403000Y-62401000D01*
X168600000Y-100325000D02*
X170975000Y-102700000D01*
X110490000Y-102590000D02*
X110660000Y-102590000D01*
X111600000Y-101650000D02*
X111600000Y-97950000D01*
X224250000Y-109690000D02*
X224250000Y-74400000D01*
X94865000Y-102590000D02*
X110490000Y-102590000D01*
X217770000Y-120470000D02*
X221950000Y-116290000D01*
X224250000Y-74400000D02*
X222652636Y-74400000D01*
X210885941Y-124811088D02*
X213428912Y-124811088D01*
X222652636Y-74400000D02*
X220403000Y-72150364D01*
X92600000Y-100325000D02*
X94865000Y-102590000D01*
X213428912Y-124811088D02*
X217770000Y-120470000D01*
X221950000Y-116290000D02*
X221950000Y-111990000D01*
D26*
X222284000Y-61700000D02*
X221104000Y-61700000D01*
D27*
X204630000Y-124570000D02*
X205320000Y-125260000D01*
X221950000Y-111990000D02*
X224250000Y-109690000D01*
X220403000Y-62401000D02*
X221104000Y-61700000D01*
%TO.N,R1*%
X130385000Y-81110000D02*
X130600000Y-81325000D01*
D26*
X222284000Y-64240000D02*
X221104000Y-64240000D01*
D27*
X111580000Y-78970000D02*
X111600000Y-78950000D01*
X149630000Y-78980000D02*
X149600000Y-78950000D01*
X95475000Y-84200000D02*
X105080000Y-84200000D01*
X92600000Y-81325000D02*
X95475000Y-84200000D01*
D26*
%TO.N,R2*%
X222284000Y-66780000D02*
X221104000Y-66780000D01*
D27*
X92600000Y-62325000D02*
X95635000Y-65360000D01*
X95635000Y-65360000D02*
X104340000Y-65360000D01*
X111580000Y-59970000D02*
X111600000Y-59950000D01*
X149440000Y-60110000D02*
X149600000Y-59950000D01*
%TO.N,R3*%
X111520000Y-41030000D02*
X111600000Y-40950000D01*
X149600000Y-40950000D02*
X149600000Y-42035000D01*
X149600000Y-42035000D02*
X150890000Y-43325000D01*
D26*
X222284000Y-69320000D02*
X221104000Y-69320000D01*
D27*
%TO.N,outer_mod_F*%
X94158000Y-95467000D02*
X92600000Y-97025000D01*
X94158000Y-94920000D02*
X94158000Y-95467000D01*
%TO.N,outer_bottom_F*%
X92600000Y-77478000D02*
X92600000Y-78025000D01*
X94158000Y-75920000D02*
X92600000Y-77478000D01*
%TO.N,outer_home_F*%
X94158000Y-57467000D02*
X92600000Y-59025000D01*
X94158000Y-56920000D02*
X94158000Y-57467000D01*
%TO.N,outer_top_F*%
X94158000Y-38467000D02*
X92600000Y-40025000D01*
X94158000Y-37920000D02*
X94158000Y-38467000D01*
%TO.N,pinky_mod_F*%
X113158000Y-93092000D02*
X111600000Y-94650000D01*
X113158000Y-92545000D02*
X113158000Y-93092000D01*
%TO.N,pinky_bottom_F*%
X113158000Y-73545000D02*
X113158000Y-74092000D01*
X113158000Y-74092000D02*
X111600000Y-75650000D01*
%TO.N,pinky_home_F*%
X113158000Y-55092000D02*
X111600000Y-56650000D01*
X113158000Y-54545000D02*
X113158000Y-55092000D01*
%TO.N,pinky_top_F*%
X113158000Y-36092000D02*
X111600000Y-37650000D01*
X113158000Y-35545000D02*
X113158000Y-36092000D01*
%TO.N,ring_mod_F*%
X132158000Y-94920000D02*
X132158000Y-95467000D01*
X132158000Y-95467000D02*
X130600000Y-97025000D01*
%TO.N,ring_bottom_F*%
X132158000Y-76467000D02*
X130600000Y-78025000D01*
X132158000Y-75920000D02*
X132158000Y-76467000D01*
%TO.N,ring_home_F*%
X132158000Y-56920000D02*
X132158000Y-57467000D01*
X132158000Y-57467000D02*
X130600000Y-59025000D01*
%TO.N,ring_top_F*%
X132158000Y-38467000D02*
X130600000Y-40025000D01*
X132158000Y-37920000D02*
X132158000Y-38467000D01*
%TO.N,middle_mod_F*%
X151158000Y-93092000D02*
X149600000Y-94650000D01*
X151158000Y-92545000D02*
X151158000Y-93092000D01*
%TO.N,middle_bottom_F*%
X151158000Y-74092000D02*
X151158000Y-73545000D01*
X149600000Y-75650000D02*
X151158000Y-74092000D01*
%TO.N,middle_home_F*%
X151158000Y-54545000D02*
X151158000Y-55092000D01*
X151158000Y-55092000D02*
X149600000Y-56650000D01*
%TO.N,middle_top_F*%
X151158000Y-35545000D02*
X151158000Y-36092000D01*
X151158000Y-36092000D02*
X149600000Y-37650000D01*
%TO.N,index_mod_F*%
X170158000Y-94920000D02*
X170158000Y-95467000D01*
X170158000Y-95467000D02*
X168600000Y-97025000D01*
%TO.N,index_bottom_F*%
X170158000Y-75920000D02*
X170158000Y-76467000D01*
X170158000Y-76467000D02*
X168600000Y-78025000D01*
%TO.N,index_home_F*%
X168600000Y-58478000D02*
X168600000Y-59025000D01*
X170158000Y-56920000D02*
X168600000Y-58478000D01*
%TO.N,index_top_F*%
X170158000Y-38467000D02*
X168600000Y-40025000D01*
X170158000Y-37920000D02*
X170158000Y-38467000D01*
%TO.N,inner_bottom_F*%
X189158000Y-78295000D02*
X189158000Y-78842000D01*
X189158000Y-78842000D02*
X187600000Y-80400000D01*
%TO.N,inner_home_F*%
X189158000Y-59295000D02*
X187600000Y-60853000D01*
X187600000Y-60853000D02*
X187600000Y-61400000D01*
%TO.N,inner_top_F*%
X189158000Y-40842000D02*
X187600000Y-42400000D01*
X189158000Y-40295000D02*
X189158000Y-40842000D01*
%TO.N,tucky_default_F*%
X191573574Y-112303303D02*
X191573574Y-113661088D01*
X190529591Y-111259320D02*
X191573574Y-112303303D01*
%TO.N,reachy_default_F*%
X206984074Y-120759320D02*
X208028057Y-121803303D01*
X208028057Y-121803303D02*
X208028057Y-123161088D01*
%TO.N,RAW*%
X226190000Y-84420000D02*
X226620000Y-83990000D01*
X229201000Y-56329240D02*
X225562760Y-52691000D01*
X229201000Y-81357000D02*
X229201000Y-56329240D01*
D26*
X213124000Y-43920000D02*
X214304000Y-43920000D01*
D27*
X225562760Y-52691000D02*
X221263636Y-52691000D01*
X215005000Y-44621000D02*
X214304000Y-43920000D01*
X226620000Y-83990000D02*
X226630000Y-84000000D01*
X221263636Y-52691000D02*
X215005000Y-46432364D01*
X215005000Y-46432364D02*
X215005000Y-44621000D01*
X229856785Y-84051000D02*
X230326000Y-83581785D01*
X230326000Y-83581785D02*
X230326000Y-82482000D01*
X227765000Y-84000000D02*
X227816000Y-84051000D01*
X230326000Y-82482000D02*
X229201000Y-81357000D01*
X226190000Y-85520000D02*
X226190000Y-84420000D01*
X227816000Y-84051000D02*
X229856785Y-84051000D01*
X226630000Y-84000000D02*
X227765000Y-84000000D01*
D26*
%TO.N,RST*%
X213124000Y-49000000D02*
X214304000Y-49000000D01*
%TO.N,VCC*%
X213124000Y-51540000D02*
X214304000Y-51540000D01*
%TO.N,P10*%
X213124000Y-71860000D02*
X214304000Y-71860000D01*
%TO.N,LED*%
X222284000Y-43920000D02*
X221104000Y-43920000D01*
%TO.N,DAT*%
X222284000Y-46460000D02*
X221104000Y-46460000D01*
%TO.N,SDA*%
X222284000Y-54080000D02*
X221104000Y-54080000D01*
%TO.N,SCL*%
X222284000Y-56620000D02*
X221104000Y-56620000D01*
%TO.N,CS*%
X222284000Y-59160000D02*
X221104000Y-59160000D01*
%TO.N,P9*%
X222284000Y-71860000D02*
X221104000Y-71860000D01*
%TO.N,MCU1_24*%
X210084000Y-43920000D02*
X212204000Y-43920000D01*
%TO.N,MCU1_1*%
X223204000Y-43920000D02*
X225324000Y-43920000D01*
%TO.N,MCU1_23*%
X210084000Y-46460000D02*
X212204000Y-46460000D01*
%TO.N,MCU1_2*%
X223204000Y-46460000D02*
X225324000Y-46460000D01*
%TO.N,MCU1_22*%
X210084000Y-49000000D02*
X212204000Y-49000000D01*
%TO.N,MCU1_3*%
X223204000Y-49000000D02*
X225324000Y-49000000D01*
%TO.N,MCU1_21*%
X210084000Y-51540000D02*
X212204000Y-51540000D01*
%TO.N,MCU1_4*%
X223204000Y-51540000D02*
X225324000Y-51540000D01*
%TO.N,MCU1_20*%
X210084000Y-54080000D02*
X212204000Y-54080000D01*
%TO.N,MCU1_5*%
X223204000Y-54080000D02*
X225324000Y-54080000D01*
%TO.N,MCU1_19*%
X210084000Y-56620000D02*
X212204000Y-56620000D01*
%TO.N,MCU1_6*%
X223204000Y-56620000D02*
X225324000Y-56620000D01*
%TO.N,MCU1_18*%
X210084000Y-59160000D02*
X212204000Y-59160000D01*
%TO.N,MCU1_7*%
X223204000Y-59160000D02*
X225324000Y-59160000D01*
%TO.N,MCU1_17*%
X210084000Y-61700000D02*
X212204000Y-61700000D01*
%TO.N,MCU1_8*%
X223204000Y-61700000D02*
X225324000Y-61700000D01*
%TO.N,MCU1_16*%
X210084000Y-64240000D02*
X212204000Y-64240000D01*
%TO.N,MCU1_9*%
X223204000Y-64240000D02*
X225324000Y-64240000D01*
%TO.N,MCU1_15*%
X210084000Y-66780000D02*
X212204000Y-66780000D01*
%TO.N,MCU1_10*%
X223204000Y-66780000D02*
X225324000Y-66780000D01*
%TO.N,MCU1_14*%
X210084000Y-69320000D02*
X212204000Y-69320000D01*
%TO.N,MCU1_11*%
X223204000Y-69320000D02*
X225324000Y-69320000D01*
%TO.N,MCU1_13*%
X210084000Y-71860000D02*
X212204000Y-71860000D01*
%TO.N,MCU1_12*%
X223204000Y-71860000D02*
X225324000Y-71860000D01*
%TO.N,DISP1_1*%
X212567000Y-75700000D02*
X212567000Y-77450000D01*
%TO.N,DISP1_2*%
X215107000Y-75700000D02*
X215107000Y-77450000D01*
%TO.N,DISP1_4*%
X220187000Y-75700000D02*
X220187000Y-77450000D01*
%TO.N,DISP1_5*%
X222727000Y-75700000D02*
X222727000Y-77450000D01*
%TO.N,JST1_1*%
X216550000Y-84500000D02*
X214750000Y-84500000D01*
%TO.N,JST1_2*%
X216550000Y-82500000D02*
X214750000Y-82500000D01*
%TD*%
M02*
