M48
; DRILL file {KiCad 9.0.2} date 2025-06-19T22:30:13+0800
; FORMAT={-:-/ absolute / metric / decimal}
; #@! TF.CreationDate,2025-06-19T22:30:13+08:00
; #@! TF.GenerationSoftware,Kicad,Pcbnew,9.0.2
; #@! TF.FileFunction,Plated,1,2,PTH
FMAT,2
METRIC
; #@! TA.AperFunction,Plated,PTH,ViaDrill
T1C0.300
; #@! TA.AperFunction,Plated,PTH,ComponentDrill
T2C0.400
; #@! TA.AperFunction,Plated,PTH,ComponentDrill
T3C0.750
; #@! TA.AperFunction,Plated,PTH,ComponentDrill
T4C1.000
%
G90
G05
T1
X99.52Y-46.26
X104.34Y-65.36
X105.08Y-84.2
X106.999Y-69.32
X110.49Y-102.59
X111.6Y-62.325
X111.62Y-81.325
X111.64Y-43.325
X124.9Y-43.04
X126.085Y-51.84
X126.085Y-69.06
X126.085Y-88.76
X128.505Y-45.405
X130.6Y-64.62
X130.6Y-83.7
X130.61Y-103.05
X137.48Y-46.33
X144.999Y-48.74
X144.999Y-72.85
X144.999Y-91.02
X149.6Y-100.325
X149.65Y-62.325
X149.65Y-81.325
X150.89Y-43.325
X156.88Y-32.9
X160.78Y-89.78
X164.085Y-70.83
X164.13Y-50.279
X168.59Y-46.12
X168.6Y-84.25
X168.615Y-64.165
X170.975Y-102.7
X176.86Y-35.2
X182.967Y-50.51
X182.967Y-72.42
X182.967Y-91.66
X187.61Y-86.45
X187.62Y-68.32
X187.63Y-47.83
X189.2Y-103.15
X195.17Y-38.05
X202.085Y-56.36
X202.085Y-74.66
X207.53Y-49.91
X210.23Y-73.84
X214.35Y-108.46
X217.6Y-80.12
X217.61Y-69.725
X218.49Y-81.96
X218.811Y-54.869
X218.84Y-57.35
X218.91Y-78.44
X218.95Y-79.33
X220.53Y-73.13
X221.95Y-111.99
X222.57Y-60.42
X226.19Y-85.52
X226.36Y-82.46
X228.17Y-71.4
X230.12Y-71.59
T2
X214.304Y-43.92
X214.304Y-46.46
X214.304Y-49.0
X214.304Y-51.54
X214.304Y-54.08
X214.304Y-56.62
X214.304Y-59.16
X214.304Y-61.7
X214.304Y-64.24
X214.304Y-66.78
X214.304Y-69.32
X214.304Y-71.86
X221.104Y-43.92
X221.104Y-46.46
X221.104Y-49.0
X221.104Y-51.54
X221.104Y-54.08
X221.104Y-56.62
X221.104Y-59.16
X221.104Y-61.7
X221.104Y-64.24
X221.104Y-66.78
X221.104Y-69.32
X221.104Y-71.86
T3
X214.75Y-82.5
X214.75Y-84.5
T4
X210.084Y-43.92
X210.084Y-46.46
X210.084Y-49.0
X210.084Y-51.54
X210.084Y-54.08
X210.084Y-56.62
X210.084Y-59.16
X210.084Y-61.7
X210.084Y-64.24
X210.084Y-66.78
X210.084Y-69.32
X210.084Y-71.86
X212.567Y-75.7
X215.107Y-75.7
X217.647Y-75.7
X220.187Y-75.7
X222.727Y-75.7
X225.324Y-43.92
X225.324Y-46.46
X225.324Y-49.0
X225.324Y-51.54
X225.324Y-54.08
X225.324Y-56.62
X225.324Y-59.16
X225.324Y-61.7
X225.324Y-64.24
X225.324Y-66.78
X225.324Y-69.32
X225.324Y-71.86
M30
