%TF.GenerationSoftware,KiCad,Pcbnew,8.0.8+1*%
%TF.CreationDate,2025-06-17T15:49:25+00:00*%
%TF.ProjectId,controller_overlay,636f6e74-726f-46c6-9c65-725f6f766572,0.2*%
%TF.SameCoordinates,Original*%
%TF.FileFunction,Drillmap*%
%TF.FilePolarity,Positive*%
%FSLAX45Y45*%
G04 Gerber Fmt 4.5, Leading zero omitted, Abs format (unit mm)*
G04 Created by KiCad (PCBNEW 8.0.8+1) date 2025-06-17 15:49:25*
%MOMM*%
%LPD*%
G01*
G04 APERTURE LIST*
%ADD10C,0.150000*%
%ADD11C,0.200000*%
%ADD12C,0.220000*%
G04 APERTURE END LIST*
D10*
X20511300Y-9127028D02*
X20511300Y-3924000D01*
X20561300Y-3874000D02*
X23101300Y-3874000D01*
X23151300Y-3924000D02*
X23151300Y-10593498D01*
X23076300Y-10636799D02*
X20536300Y-9170329D01*
X20511300Y-3924000D02*
G75*
G02*
X20561300Y-3874000I50000J0D01*
G01*
X23101300Y-3874000D02*
G75*
G02*
X23151300Y-3924000I0J-50000D01*
G01*
X23151300Y-10593498D02*
G75*
G02*
X23076301Y-10636798I-50000J2D01*
G01*
X20536300Y-9170329D02*
G75*
G02*
X20511302Y-9127028I25000J43299D01*
G01*
X20886200Y-8922600D02*
G75*
G02*
X20666200Y-8922600I-110000J0D01*
G01*
X20666200Y-8922600D02*
G75*
G02*
X20886200Y-8922600I110000J0D01*
G01*
X22979400Y-10124500D02*
G75*
G02*
X22759400Y-10124500I-110000J0D01*
G01*
X22759400Y-10124500D02*
G75*
G02*
X22979400Y-10124500I110000J0D01*
G01*
D11*
D12*
X20666200Y-8812600D02*
X20886200Y-9032600D01*
X20886200Y-8812600D02*
X20666200Y-9032600D01*
X22759400Y-10014500D02*
X22979400Y-10234500D01*
X22979400Y-10014500D02*
X22759400Y-10234500D01*
D11*
X20764577Y-10962480D02*
X20764577Y-10762480D01*
X20764577Y-10762480D02*
X20812196Y-10762480D01*
X20812196Y-10762480D02*
X20840767Y-10772004D01*
X20840767Y-10772004D02*
X20859815Y-10791051D01*
X20859815Y-10791051D02*
X20869339Y-10810099D01*
X20869339Y-10810099D02*
X20878863Y-10848194D01*
X20878863Y-10848194D02*
X20878863Y-10876765D01*
X20878863Y-10876765D02*
X20869339Y-10914861D01*
X20869339Y-10914861D02*
X20859815Y-10933908D01*
X20859815Y-10933908D02*
X20840767Y-10952956D01*
X20840767Y-10952956D02*
X20812196Y-10962480D01*
X20812196Y-10962480D02*
X20764577Y-10962480D01*
X20964577Y-10962480D02*
X20964577Y-10829146D01*
X20964577Y-10867242D02*
X20974101Y-10848194D01*
X20974101Y-10848194D02*
X20983624Y-10838670D01*
X20983624Y-10838670D02*
X21002672Y-10829146D01*
X21002672Y-10829146D02*
X21021720Y-10829146D01*
X21088386Y-10962480D02*
X21088386Y-10829146D01*
X21088386Y-10762480D02*
X21078863Y-10772004D01*
X21078863Y-10772004D02*
X21088386Y-10781527D01*
X21088386Y-10781527D02*
X21097910Y-10772004D01*
X21097910Y-10772004D02*
X21088386Y-10762480D01*
X21088386Y-10762480D02*
X21088386Y-10781527D01*
X21212196Y-10962480D02*
X21193148Y-10952956D01*
X21193148Y-10952956D02*
X21183624Y-10933908D01*
X21183624Y-10933908D02*
X21183624Y-10762480D01*
X21316958Y-10962480D02*
X21297910Y-10952956D01*
X21297910Y-10952956D02*
X21288386Y-10933908D01*
X21288386Y-10933908D02*
X21288386Y-10762480D01*
X21545529Y-10962480D02*
X21545529Y-10762480D01*
X21545529Y-10762480D02*
X21612196Y-10905337D01*
X21612196Y-10905337D02*
X21678863Y-10762480D01*
X21678863Y-10762480D02*
X21678863Y-10962480D01*
X21859815Y-10962480D02*
X21859815Y-10857718D01*
X21859815Y-10857718D02*
X21850291Y-10838670D01*
X21850291Y-10838670D02*
X21831244Y-10829146D01*
X21831244Y-10829146D02*
X21793148Y-10829146D01*
X21793148Y-10829146D02*
X21774101Y-10838670D01*
X21859815Y-10952956D02*
X21840767Y-10962480D01*
X21840767Y-10962480D02*
X21793148Y-10962480D01*
X21793148Y-10962480D02*
X21774101Y-10952956D01*
X21774101Y-10952956D02*
X21764577Y-10933908D01*
X21764577Y-10933908D02*
X21764577Y-10914861D01*
X21764577Y-10914861D02*
X21774101Y-10895813D01*
X21774101Y-10895813D02*
X21793148Y-10886289D01*
X21793148Y-10886289D02*
X21840767Y-10886289D01*
X21840767Y-10886289D02*
X21859815Y-10876765D01*
X21955053Y-10829146D02*
X21955053Y-11029146D01*
X21955053Y-10838670D02*
X21974101Y-10829146D01*
X21974101Y-10829146D02*
X22012196Y-10829146D01*
X22012196Y-10829146D02*
X22031244Y-10838670D01*
X22031244Y-10838670D02*
X22040767Y-10848194D01*
X22040767Y-10848194D02*
X22050291Y-10867242D01*
X22050291Y-10867242D02*
X22050291Y-10924384D01*
X22050291Y-10924384D02*
X22040767Y-10943432D01*
X22040767Y-10943432D02*
X22031244Y-10952956D01*
X22031244Y-10952956D02*
X22012196Y-10962480D01*
X22012196Y-10962480D02*
X21974101Y-10962480D01*
X21974101Y-10962480D02*
X21955053Y-10952956D01*
X22136005Y-10943432D02*
X22145529Y-10952956D01*
X22145529Y-10952956D02*
X22136005Y-10962480D01*
X22136005Y-10962480D02*
X22126482Y-10952956D01*
X22126482Y-10952956D02*
X22136005Y-10943432D01*
X22136005Y-10943432D02*
X22136005Y-10962480D01*
X22136005Y-10838670D02*
X22145529Y-10848194D01*
X22145529Y-10848194D02*
X22136005Y-10857718D01*
X22136005Y-10857718D02*
X22126482Y-10848194D01*
X22126482Y-10848194D02*
X22136005Y-10838670D01*
X22136005Y-10838670D02*
X22136005Y-10857718D01*
X20303800Y-11190996D02*
X20503800Y-11390996D01*
X20503800Y-11190996D02*
X20303800Y-11390996D01*
X20755053Y-11201527D02*
X20764577Y-11192003D01*
X20764577Y-11192003D02*
X20783624Y-11182480D01*
X20783624Y-11182480D02*
X20831244Y-11182480D01*
X20831244Y-11182480D02*
X20850291Y-11192003D01*
X20850291Y-11192003D02*
X20859815Y-11201527D01*
X20859815Y-11201527D02*
X20869339Y-11220575D01*
X20869339Y-11220575D02*
X20869339Y-11239622D01*
X20869339Y-11239622D02*
X20859815Y-11268194D01*
X20859815Y-11268194D02*
X20745529Y-11382480D01*
X20745529Y-11382480D02*
X20869339Y-11382480D01*
X20955053Y-11363432D02*
X20964577Y-11372956D01*
X20964577Y-11372956D02*
X20955053Y-11382480D01*
X20955053Y-11382480D02*
X20945529Y-11372956D01*
X20945529Y-11372956D02*
X20955053Y-11363432D01*
X20955053Y-11363432D02*
X20955053Y-11382480D01*
X21040767Y-11201527D02*
X21050291Y-11192003D01*
X21050291Y-11192003D02*
X21069339Y-11182480D01*
X21069339Y-11182480D02*
X21116958Y-11182480D01*
X21116958Y-11182480D02*
X21136005Y-11192003D01*
X21136005Y-11192003D02*
X21145529Y-11201527D01*
X21145529Y-11201527D02*
X21155053Y-11220575D01*
X21155053Y-11220575D02*
X21155053Y-11239622D01*
X21155053Y-11239622D02*
X21145529Y-11268194D01*
X21145529Y-11268194D02*
X21031244Y-11382480D01*
X21031244Y-11382480D02*
X21155053Y-11382480D01*
X21278863Y-11182480D02*
X21297910Y-11182480D01*
X21297910Y-11182480D02*
X21316958Y-11192003D01*
X21316958Y-11192003D02*
X21326482Y-11201527D01*
X21326482Y-11201527D02*
X21336005Y-11220575D01*
X21336005Y-11220575D02*
X21345529Y-11258670D01*
X21345529Y-11258670D02*
X21345529Y-11306289D01*
X21345529Y-11306289D02*
X21336005Y-11344384D01*
X21336005Y-11344384D02*
X21326482Y-11363432D01*
X21326482Y-11363432D02*
X21316958Y-11372956D01*
X21316958Y-11372956D02*
X21297910Y-11382480D01*
X21297910Y-11382480D02*
X21278863Y-11382480D01*
X21278863Y-11382480D02*
X21259815Y-11372956D01*
X21259815Y-11372956D02*
X21250291Y-11363432D01*
X21250291Y-11363432D02*
X21240767Y-11344384D01*
X21240767Y-11344384D02*
X21231244Y-11306289D01*
X21231244Y-11306289D02*
X21231244Y-11258670D01*
X21231244Y-11258670D02*
X21240767Y-11220575D01*
X21240767Y-11220575D02*
X21250291Y-11201527D01*
X21250291Y-11201527D02*
X21259815Y-11192003D01*
X21259815Y-11192003D02*
X21278863Y-11182480D01*
X21469339Y-11182480D02*
X21488386Y-11182480D01*
X21488386Y-11182480D02*
X21507434Y-11192003D01*
X21507434Y-11192003D02*
X21516958Y-11201527D01*
X21516958Y-11201527D02*
X21526482Y-11220575D01*
X21526482Y-11220575D02*
X21536005Y-11258670D01*
X21536005Y-11258670D02*
X21536005Y-11306289D01*
X21536005Y-11306289D02*
X21526482Y-11344384D01*
X21526482Y-11344384D02*
X21516958Y-11363432D01*
X21516958Y-11363432D02*
X21507434Y-11372956D01*
X21507434Y-11372956D02*
X21488386Y-11382480D01*
X21488386Y-11382480D02*
X21469339Y-11382480D01*
X21469339Y-11382480D02*
X21450291Y-11372956D01*
X21450291Y-11372956D02*
X21440767Y-11363432D01*
X21440767Y-11363432D02*
X21431244Y-11344384D01*
X21431244Y-11344384D02*
X21421720Y-11306289D01*
X21421720Y-11306289D02*
X21421720Y-11258670D01*
X21421720Y-11258670D02*
X21431244Y-11220575D01*
X21431244Y-11220575D02*
X21440767Y-11201527D01*
X21440767Y-11201527D02*
X21450291Y-11192003D01*
X21450291Y-11192003D02*
X21469339Y-11182480D01*
X21621720Y-11382480D02*
X21621720Y-11249146D01*
X21621720Y-11268194D02*
X21631244Y-11258670D01*
X21631244Y-11258670D02*
X21650291Y-11249146D01*
X21650291Y-11249146D02*
X21678863Y-11249146D01*
X21678863Y-11249146D02*
X21697910Y-11258670D01*
X21697910Y-11258670D02*
X21707434Y-11277718D01*
X21707434Y-11277718D02*
X21707434Y-11382480D01*
X21707434Y-11277718D02*
X21716958Y-11258670D01*
X21716958Y-11258670D02*
X21736005Y-11249146D01*
X21736005Y-11249146D02*
X21764577Y-11249146D01*
X21764577Y-11249146D02*
X21783625Y-11258670D01*
X21783625Y-11258670D02*
X21793148Y-11277718D01*
X21793148Y-11277718D02*
X21793148Y-11382480D01*
X21888386Y-11382480D02*
X21888386Y-11249146D01*
X21888386Y-11268194D02*
X21897910Y-11258670D01*
X21897910Y-11258670D02*
X21916958Y-11249146D01*
X21916958Y-11249146D02*
X21945529Y-11249146D01*
X21945529Y-11249146D02*
X21964577Y-11258670D01*
X21964577Y-11258670D02*
X21974101Y-11277718D01*
X21974101Y-11277718D02*
X21974101Y-11382480D01*
X21974101Y-11277718D02*
X21983625Y-11258670D01*
X21983625Y-11258670D02*
X22002672Y-11249146D01*
X22002672Y-11249146D02*
X22031244Y-11249146D01*
X22031244Y-11249146D02*
X22050291Y-11258670D01*
X22050291Y-11258670D02*
X22059815Y-11277718D01*
X22059815Y-11277718D02*
X22059815Y-11382480D01*
X22450291Y-11172956D02*
X22278863Y-11430099D01*
X22707434Y-11182480D02*
X22726482Y-11182480D01*
X22726482Y-11182480D02*
X22745529Y-11192003D01*
X22745529Y-11192003D02*
X22755053Y-11201527D01*
X22755053Y-11201527D02*
X22764577Y-11220575D01*
X22764577Y-11220575D02*
X22774101Y-11258670D01*
X22774101Y-11258670D02*
X22774101Y-11306289D01*
X22774101Y-11306289D02*
X22764577Y-11344384D01*
X22764577Y-11344384D02*
X22755053Y-11363432D01*
X22755053Y-11363432D02*
X22745529Y-11372956D01*
X22745529Y-11372956D02*
X22726482Y-11382480D01*
X22726482Y-11382480D02*
X22707434Y-11382480D01*
X22707434Y-11382480D02*
X22688386Y-11372956D01*
X22688386Y-11372956D02*
X22678863Y-11363432D01*
X22678863Y-11363432D02*
X22669339Y-11344384D01*
X22669339Y-11344384D02*
X22659815Y-11306289D01*
X22659815Y-11306289D02*
X22659815Y-11258670D01*
X22659815Y-11258670D02*
X22669339Y-11220575D01*
X22669339Y-11220575D02*
X22678863Y-11201527D01*
X22678863Y-11201527D02*
X22688386Y-11192003D01*
X22688386Y-11192003D02*
X22707434Y-11182480D01*
X22859815Y-11363432D02*
X22869339Y-11372956D01*
X22869339Y-11372956D02*
X22859815Y-11382480D01*
X22859815Y-11382480D02*
X22850291Y-11372956D01*
X22850291Y-11372956D02*
X22859815Y-11363432D01*
X22859815Y-11363432D02*
X22859815Y-11382480D01*
X22993148Y-11182480D02*
X23012196Y-11182480D01*
X23012196Y-11182480D02*
X23031244Y-11192003D01*
X23031244Y-11192003D02*
X23040767Y-11201527D01*
X23040767Y-11201527D02*
X23050291Y-11220575D01*
X23050291Y-11220575D02*
X23059815Y-11258670D01*
X23059815Y-11258670D02*
X23059815Y-11306289D01*
X23059815Y-11306289D02*
X23050291Y-11344384D01*
X23050291Y-11344384D02*
X23040767Y-11363432D01*
X23040767Y-11363432D02*
X23031244Y-11372956D01*
X23031244Y-11372956D02*
X23012196Y-11382480D01*
X23012196Y-11382480D02*
X22993148Y-11382480D01*
X22993148Y-11382480D02*
X22974101Y-11372956D01*
X22974101Y-11372956D02*
X22964577Y-11363432D01*
X22964577Y-11363432D02*
X22955053Y-11344384D01*
X22955053Y-11344384D02*
X22945529Y-11306289D01*
X22945529Y-11306289D02*
X22945529Y-11258670D01*
X22945529Y-11258670D02*
X22955053Y-11220575D01*
X22955053Y-11220575D02*
X22964577Y-11201527D01*
X22964577Y-11201527D02*
X22974101Y-11192003D01*
X22974101Y-11192003D02*
X22993148Y-11182480D01*
X23174101Y-11268194D02*
X23155053Y-11258670D01*
X23155053Y-11258670D02*
X23145529Y-11249146D01*
X23145529Y-11249146D02*
X23136006Y-11230099D01*
X23136006Y-11230099D02*
X23136006Y-11220575D01*
X23136006Y-11220575D02*
X23145529Y-11201527D01*
X23145529Y-11201527D02*
X23155053Y-11192003D01*
X23155053Y-11192003D02*
X23174101Y-11182480D01*
X23174101Y-11182480D02*
X23212196Y-11182480D01*
X23212196Y-11182480D02*
X23231244Y-11192003D01*
X23231244Y-11192003D02*
X23240767Y-11201527D01*
X23240767Y-11201527D02*
X23250291Y-11220575D01*
X23250291Y-11220575D02*
X23250291Y-11230099D01*
X23250291Y-11230099D02*
X23240767Y-11249146D01*
X23240767Y-11249146D02*
X23231244Y-11258670D01*
X23231244Y-11258670D02*
X23212196Y-11268194D01*
X23212196Y-11268194D02*
X23174101Y-11268194D01*
X23174101Y-11268194D02*
X23155053Y-11277718D01*
X23155053Y-11277718D02*
X23145529Y-11287242D01*
X23145529Y-11287242D02*
X23136006Y-11306289D01*
X23136006Y-11306289D02*
X23136006Y-11344384D01*
X23136006Y-11344384D02*
X23145529Y-11363432D01*
X23145529Y-11363432D02*
X23155053Y-11372956D01*
X23155053Y-11372956D02*
X23174101Y-11382480D01*
X23174101Y-11382480D02*
X23212196Y-11382480D01*
X23212196Y-11382480D02*
X23231244Y-11372956D01*
X23231244Y-11372956D02*
X23240767Y-11363432D01*
X23240767Y-11363432D02*
X23250291Y-11344384D01*
X23250291Y-11344384D02*
X23250291Y-11306289D01*
X23250291Y-11306289D02*
X23240767Y-11287242D01*
X23240767Y-11287242D02*
X23231244Y-11277718D01*
X23231244Y-11277718D02*
X23212196Y-11268194D01*
X23421720Y-11182480D02*
X23383625Y-11182480D01*
X23383625Y-11182480D02*
X23364577Y-11192003D01*
X23364577Y-11192003D02*
X23355053Y-11201527D01*
X23355053Y-11201527D02*
X23336006Y-11230099D01*
X23336006Y-11230099D02*
X23326482Y-11268194D01*
X23326482Y-11268194D02*
X23326482Y-11344384D01*
X23326482Y-11344384D02*
X23336006Y-11363432D01*
X23336006Y-11363432D02*
X23345529Y-11372956D01*
X23345529Y-11372956D02*
X23364577Y-11382480D01*
X23364577Y-11382480D02*
X23402672Y-11382480D01*
X23402672Y-11382480D02*
X23421720Y-11372956D01*
X23421720Y-11372956D02*
X23431244Y-11363432D01*
X23431244Y-11363432D02*
X23440767Y-11344384D01*
X23440767Y-11344384D02*
X23440767Y-11296765D01*
X23440767Y-11296765D02*
X23431244Y-11277718D01*
X23431244Y-11277718D02*
X23421720Y-11268194D01*
X23421720Y-11268194D02*
X23402672Y-11258670D01*
X23402672Y-11258670D02*
X23364577Y-11258670D01*
X23364577Y-11258670D02*
X23345529Y-11268194D01*
X23345529Y-11268194D02*
X23336006Y-11277718D01*
X23336006Y-11277718D02*
X23326482Y-11296765D01*
X23612196Y-11182480D02*
X23574101Y-11182480D01*
X23574101Y-11182480D02*
X23555053Y-11192003D01*
X23555053Y-11192003D02*
X23545529Y-11201527D01*
X23545529Y-11201527D02*
X23526482Y-11230099D01*
X23526482Y-11230099D02*
X23516958Y-11268194D01*
X23516958Y-11268194D02*
X23516958Y-11344384D01*
X23516958Y-11344384D02*
X23526482Y-11363432D01*
X23526482Y-11363432D02*
X23536006Y-11372956D01*
X23536006Y-11372956D02*
X23555053Y-11382480D01*
X23555053Y-11382480D02*
X23593148Y-11382480D01*
X23593148Y-11382480D02*
X23612196Y-11372956D01*
X23612196Y-11372956D02*
X23621720Y-11363432D01*
X23621720Y-11363432D02*
X23631244Y-11344384D01*
X23631244Y-11344384D02*
X23631244Y-11296765D01*
X23631244Y-11296765D02*
X23621720Y-11277718D01*
X23621720Y-11277718D02*
X23612196Y-11268194D01*
X23612196Y-11268194D02*
X23593148Y-11258670D01*
X23593148Y-11258670D02*
X23555053Y-11258670D01*
X23555053Y-11258670D02*
X23536006Y-11268194D01*
X23536006Y-11268194D02*
X23526482Y-11277718D01*
X23526482Y-11277718D02*
X23516958Y-11296765D01*
X23707434Y-11182480D02*
X23707434Y-11220575D01*
X23783625Y-11182480D02*
X23783625Y-11220575D01*
X24078863Y-11458670D02*
X24069339Y-11449146D01*
X24069339Y-11449146D02*
X24050291Y-11420575D01*
X24050291Y-11420575D02*
X24040768Y-11401527D01*
X24040768Y-11401527D02*
X24031244Y-11372956D01*
X24031244Y-11372956D02*
X24021720Y-11325337D01*
X24021720Y-11325337D02*
X24021720Y-11287242D01*
X24021720Y-11287242D02*
X24031244Y-11239622D01*
X24031244Y-11239622D02*
X24040768Y-11211051D01*
X24040768Y-11211051D02*
X24050291Y-11192003D01*
X24050291Y-11192003D02*
X24069339Y-11163432D01*
X24069339Y-11163432D02*
X24078863Y-11153908D01*
X24145529Y-11201527D02*
X24155053Y-11192003D01*
X24155053Y-11192003D02*
X24174101Y-11182480D01*
X24174101Y-11182480D02*
X24221720Y-11182480D01*
X24221720Y-11182480D02*
X24240768Y-11192003D01*
X24240768Y-11192003D02*
X24250291Y-11201527D01*
X24250291Y-11201527D02*
X24259815Y-11220575D01*
X24259815Y-11220575D02*
X24259815Y-11239622D01*
X24259815Y-11239622D02*
X24250291Y-11268194D01*
X24250291Y-11268194D02*
X24136006Y-11382480D01*
X24136006Y-11382480D02*
X24259815Y-11382480D01*
X24497910Y-11382480D02*
X24497910Y-11182480D01*
X24583625Y-11382480D02*
X24583625Y-11277718D01*
X24583625Y-11277718D02*
X24574101Y-11258670D01*
X24574101Y-11258670D02*
X24555053Y-11249146D01*
X24555053Y-11249146D02*
X24526482Y-11249146D01*
X24526482Y-11249146D02*
X24507434Y-11258670D01*
X24507434Y-11258670D02*
X24497910Y-11268194D01*
X24707434Y-11382480D02*
X24688387Y-11372956D01*
X24688387Y-11372956D02*
X24678863Y-11363432D01*
X24678863Y-11363432D02*
X24669339Y-11344384D01*
X24669339Y-11344384D02*
X24669339Y-11287242D01*
X24669339Y-11287242D02*
X24678863Y-11268194D01*
X24678863Y-11268194D02*
X24688387Y-11258670D01*
X24688387Y-11258670D02*
X24707434Y-11249146D01*
X24707434Y-11249146D02*
X24736006Y-11249146D01*
X24736006Y-11249146D02*
X24755053Y-11258670D01*
X24755053Y-11258670D02*
X24764577Y-11268194D01*
X24764577Y-11268194D02*
X24774101Y-11287242D01*
X24774101Y-11287242D02*
X24774101Y-11344384D01*
X24774101Y-11344384D02*
X24764577Y-11363432D01*
X24764577Y-11363432D02*
X24755053Y-11372956D01*
X24755053Y-11372956D02*
X24736006Y-11382480D01*
X24736006Y-11382480D02*
X24707434Y-11382480D01*
X24888387Y-11382480D02*
X24869339Y-11372956D01*
X24869339Y-11372956D02*
X24859815Y-11353908D01*
X24859815Y-11353908D02*
X24859815Y-11182480D01*
X25040768Y-11372956D02*
X25021720Y-11382480D01*
X25021720Y-11382480D02*
X24983625Y-11382480D01*
X24983625Y-11382480D02*
X24964577Y-11372956D01*
X24964577Y-11372956D02*
X24955053Y-11353908D01*
X24955053Y-11353908D02*
X24955053Y-11277718D01*
X24955053Y-11277718D02*
X24964577Y-11258670D01*
X24964577Y-11258670D02*
X24983625Y-11249146D01*
X24983625Y-11249146D02*
X25021720Y-11249146D01*
X25021720Y-11249146D02*
X25040768Y-11258670D01*
X25040768Y-11258670D02*
X25050291Y-11277718D01*
X25050291Y-11277718D02*
X25050291Y-11296765D01*
X25050291Y-11296765D02*
X24955053Y-11315813D01*
X25126482Y-11372956D02*
X25145530Y-11382480D01*
X25145530Y-11382480D02*
X25183625Y-11382480D01*
X25183625Y-11382480D02*
X25202672Y-11372956D01*
X25202672Y-11372956D02*
X25212196Y-11353908D01*
X25212196Y-11353908D02*
X25212196Y-11344384D01*
X25212196Y-11344384D02*
X25202672Y-11325337D01*
X25202672Y-11325337D02*
X25183625Y-11315813D01*
X25183625Y-11315813D02*
X25155053Y-11315813D01*
X25155053Y-11315813D02*
X25136006Y-11306289D01*
X25136006Y-11306289D02*
X25126482Y-11287242D01*
X25126482Y-11287242D02*
X25126482Y-11277718D01*
X25126482Y-11277718D02*
X25136006Y-11258670D01*
X25136006Y-11258670D02*
X25155053Y-11249146D01*
X25155053Y-11249146D02*
X25183625Y-11249146D01*
X25183625Y-11249146D02*
X25202672Y-11258670D01*
X25278863Y-11458670D02*
X25288387Y-11449146D01*
X25288387Y-11449146D02*
X25307434Y-11420575D01*
X25307434Y-11420575D02*
X25316958Y-11401527D01*
X25316958Y-11401527D02*
X25326482Y-11372956D01*
X25326482Y-11372956D02*
X25336006Y-11325337D01*
X25336006Y-11325337D02*
X25336006Y-11287242D01*
X25336006Y-11287242D02*
X25326482Y-11239622D01*
X25326482Y-11239622D02*
X25316958Y-11211051D01*
X25316958Y-11211051D02*
X25307434Y-11192003D01*
X25307434Y-11192003D02*
X25288387Y-11163432D01*
X25288387Y-11163432D02*
X25278863Y-11153908D01*
X25640768Y-11458670D02*
X25631244Y-11449146D01*
X25631244Y-11449146D02*
X25612196Y-11420575D01*
X25612196Y-11420575D02*
X25602672Y-11401527D01*
X25602672Y-11401527D02*
X25593149Y-11372956D01*
X25593149Y-11372956D02*
X25583625Y-11325337D01*
X25583625Y-11325337D02*
X25583625Y-11287242D01*
X25583625Y-11287242D02*
X25593149Y-11239622D01*
X25593149Y-11239622D02*
X25602672Y-11211051D01*
X25602672Y-11211051D02*
X25612196Y-11192003D01*
X25612196Y-11192003D02*
X25631244Y-11163432D01*
X25631244Y-11163432D02*
X25640768Y-11153908D01*
X25716958Y-11249146D02*
X25716958Y-11382480D01*
X25716958Y-11268194D02*
X25726482Y-11258670D01*
X25726482Y-11258670D02*
X25745530Y-11249146D01*
X25745530Y-11249146D02*
X25774101Y-11249146D01*
X25774101Y-11249146D02*
X25793149Y-11258670D01*
X25793149Y-11258670D02*
X25802672Y-11277718D01*
X25802672Y-11277718D02*
X25802672Y-11382480D01*
X25926482Y-11382480D02*
X25907434Y-11372956D01*
X25907434Y-11372956D02*
X25897911Y-11363432D01*
X25897911Y-11363432D02*
X25888387Y-11344384D01*
X25888387Y-11344384D02*
X25888387Y-11287242D01*
X25888387Y-11287242D02*
X25897911Y-11268194D01*
X25897911Y-11268194D02*
X25907434Y-11258670D01*
X25907434Y-11258670D02*
X25926482Y-11249146D01*
X25926482Y-11249146D02*
X25955053Y-11249146D01*
X25955053Y-11249146D02*
X25974101Y-11258670D01*
X25974101Y-11258670D02*
X25983625Y-11268194D01*
X25983625Y-11268194D02*
X25993149Y-11287242D01*
X25993149Y-11287242D02*
X25993149Y-11344384D01*
X25993149Y-11344384D02*
X25983625Y-11363432D01*
X25983625Y-11363432D02*
X25974101Y-11372956D01*
X25974101Y-11372956D02*
X25955053Y-11382480D01*
X25955053Y-11382480D02*
X25926482Y-11382480D01*
X26050292Y-11249146D02*
X26126482Y-11249146D01*
X26078863Y-11182480D02*
X26078863Y-11353908D01*
X26078863Y-11353908D02*
X26088387Y-11372956D01*
X26088387Y-11372956D02*
X26107434Y-11382480D01*
X26107434Y-11382480D02*
X26126482Y-11382480D01*
X26345530Y-11249146D02*
X26345530Y-11449146D01*
X26345530Y-11258670D02*
X26364577Y-11249146D01*
X26364577Y-11249146D02*
X26402673Y-11249146D01*
X26402673Y-11249146D02*
X26421720Y-11258670D01*
X26421720Y-11258670D02*
X26431244Y-11268194D01*
X26431244Y-11268194D02*
X26440768Y-11287242D01*
X26440768Y-11287242D02*
X26440768Y-11344384D01*
X26440768Y-11344384D02*
X26431244Y-11363432D01*
X26431244Y-11363432D02*
X26421720Y-11372956D01*
X26421720Y-11372956D02*
X26402673Y-11382480D01*
X26402673Y-11382480D02*
X26364577Y-11382480D01*
X26364577Y-11382480D02*
X26345530Y-11372956D01*
X26555053Y-11382480D02*
X26536006Y-11372956D01*
X26536006Y-11372956D02*
X26526482Y-11353908D01*
X26526482Y-11353908D02*
X26526482Y-11182480D01*
X26716958Y-11382480D02*
X26716958Y-11277718D01*
X26716958Y-11277718D02*
X26707434Y-11258670D01*
X26707434Y-11258670D02*
X26688387Y-11249146D01*
X26688387Y-11249146D02*
X26650292Y-11249146D01*
X26650292Y-11249146D02*
X26631244Y-11258670D01*
X26716958Y-11372956D02*
X26697911Y-11382480D01*
X26697911Y-11382480D02*
X26650292Y-11382480D01*
X26650292Y-11382480D02*
X26631244Y-11372956D01*
X26631244Y-11372956D02*
X26621720Y-11353908D01*
X26621720Y-11353908D02*
X26621720Y-11334861D01*
X26621720Y-11334861D02*
X26631244Y-11315813D01*
X26631244Y-11315813D02*
X26650292Y-11306289D01*
X26650292Y-11306289D02*
X26697911Y-11306289D01*
X26697911Y-11306289D02*
X26716958Y-11296765D01*
X26783625Y-11249146D02*
X26859815Y-11249146D01*
X26812196Y-11182480D02*
X26812196Y-11353908D01*
X26812196Y-11353908D02*
X26821720Y-11372956D01*
X26821720Y-11372956D02*
X26840768Y-11382480D01*
X26840768Y-11382480D02*
X26859815Y-11382480D01*
X27002673Y-11372956D02*
X26983625Y-11382480D01*
X26983625Y-11382480D02*
X26945530Y-11382480D01*
X26945530Y-11382480D02*
X26926482Y-11372956D01*
X26926482Y-11372956D02*
X26916958Y-11353908D01*
X26916958Y-11353908D02*
X26916958Y-11277718D01*
X26916958Y-11277718D02*
X26926482Y-11258670D01*
X26926482Y-11258670D02*
X26945530Y-11249146D01*
X26945530Y-11249146D02*
X26983625Y-11249146D01*
X26983625Y-11249146D02*
X27002673Y-11258670D01*
X27002673Y-11258670D02*
X27012196Y-11277718D01*
X27012196Y-11277718D02*
X27012196Y-11296765D01*
X27012196Y-11296765D02*
X26916958Y-11315813D01*
X27183625Y-11382480D02*
X27183625Y-11182480D01*
X27183625Y-11372956D02*
X27164577Y-11382480D01*
X27164577Y-11382480D02*
X27126482Y-11382480D01*
X27126482Y-11382480D02*
X27107434Y-11372956D01*
X27107434Y-11372956D02*
X27097911Y-11363432D01*
X27097911Y-11363432D02*
X27088387Y-11344384D01*
X27088387Y-11344384D02*
X27088387Y-11287242D01*
X27088387Y-11287242D02*
X27097911Y-11268194D01*
X27097911Y-11268194D02*
X27107434Y-11258670D01*
X27107434Y-11258670D02*
X27126482Y-11249146D01*
X27126482Y-11249146D02*
X27164577Y-11249146D01*
X27164577Y-11249146D02*
X27183625Y-11258670D01*
X27259815Y-11458670D02*
X27269339Y-11449146D01*
X27269339Y-11449146D02*
X27288387Y-11420575D01*
X27288387Y-11420575D02*
X27297911Y-11401527D01*
X27297911Y-11401527D02*
X27307434Y-11372956D01*
X27307434Y-11372956D02*
X27316958Y-11325337D01*
X27316958Y-11325337D02*
X27316958Y-11287242D01*
X27316958Y-11287242D02*
X27307434Y-11239622D01*
X27307434Y-11239622D02*
X27297911Y-11211051D01*
X27297911Y-11211051D02*
X27288387Y-11192003D01*
X27288387Y-11192003D02*
X27269339Y-11163432D01*
X27269339Y-11163432D02*
X27259815Y-11153908D01*
M02*
