%TF.GenerationSoftware,KiCad,Pcbnew,8.0.8+1*%
%TF.CreationDate,2025-06-17T15:49:25+00:00*%
%TF.ProjectId,controller_overlay,636f6e74-726f-46c6-9c65-725f6f766572,0.2*%
%TF.SameCoordinates,Original*%
%TF.FileFunction,Drillmap*%
%TF.FilePolarity,Positive*%
%FSLAX45Y45*%
G04 Gerber Fmt 4.5, Leading zero omitted, Abs format (unit mm)*
G04 Created by KiCad (PCBNEW 8.0.8+1) date 2025-06-17 15:49:25*
%MOMM*%
%LPD*%
G01*
G04 APERTURE LIST*
%ADD10C,0.150000*%
%ADD11C,0.200000*%
G04 APERTURE END LIST*
D10*
X20511300Y-9127028D02*
X20511300Y-3924000D01*
X20561300Y-3874000D02*
X23101300Y-3874000D01*
X23151300Y-3924000D02*
X23151300Y-10593498D01*
X23076300Y-10636799D02*
X20536300Y-9170329D01*
X20511300Y-3924000D02*
G75*
G02*
X20561300Y-3874000I50000J0D01*
G01*
X23101300Y-3874000D02*
G75*
G02*
X23151300Y-3924000I0J-50000D01*
G01*
X23151300Y-10593498D02*
G75*
G02*
X23076301Y-10636798I-50000J2D01*
G01*
X20536300Y-9170329D02*
G75*
G02*
X20511302Y-9127028I25000J43299D01*
G01*
X20886200Y-8922600D02*
G75*
G02*
X20666200Y-8922600I-110000J0D01*
G01*
X20666200Y-8922600D02*
G75*
G02*
X20886200Y-8922600I110000J0D01*
G01*
X22979400Y-10124500D02*
G75*
G02*
X22759400Y-10124500I-110000J0D01*
G01*
X22759400Y-10124500D02*
G75*
G02*
X22979400Y-10124500I110000J0D01*
G01*
D11*
X20764577Y-10962480D02*
X20764577Y-10762480D01*
X20764577Y-10762480D02*
X20812196Y-10762480D01*
X20812196Y-10762480D02*
X20840767Y-10772004D01*
X20840767Y-10772004D02*
X20859815Y-10791051D01*
X20859815Y-10791051D02*
X20869339Y-10810099D01*
X20869339Y-10810099D02*
X20878863Y-10848194D01*
X20878863Y-10848194D02*
X20878863Y-10876765D01*
X20878863Y-10876765D02*
X20869339Y-10914861D01*
X20869339Y-10914861D02*
X20859815Y-10933908D01*
X20859815Y-10933908D02*
X20840767Y-10952956D01*
X20840767Y-10952956D02*
X20812196Y-10962480D01*
X20812196Y-10962480D02*
X20764577Y-10962480D01*
X20964577Y-10962480D02*
X20964577Y-10829146D01*
X20964577Y-10867242D02*
X20974101Y-10848194D01*
X20974101Y-10848194D02*
X20983624Y-10838670D01*
X20983624Y-10838670D02*
X21002672Y-10829146D01*
X21002672Y-10829146D02*
X21021720Y-10829146D01*
X21088386Y-10962480D02*
X21088386Y-10829146D01*
X21088386Y-10762480D02*
X21078863Y-10772004D01*
X21078863Y-10772004D02*
X21088386Y-10781527D01*
X21088386Y-10781527D02*
X21097910Y-10772004D01*
X21097910Y-10772004D02*
X21088386Y-10762480D01*
X21088386Y-10762480D02*
X21088386Y-10781527D01*
X21212196Y-10962480D02*
X21193148Y-10952956D01*
X21193148Y-10952956D02*
X21183624Y-10933908D01*
X21183624Y-10933908D02*
X21183624Y-10762480D01*
X21316958Y-10962480D02*
X21297910Y-10952956D01*
X21297910Y-10952956D02*
X21288386Y-10933908D01*
X21288386Y-10933908D02*
X21288386Y-10762480D01*
X21545529Y-10962480D02*
X21545529Y-10762480D01*
X21545529Y-10762480D02*
X21612196Y-10905337D01*
X21612196Y-10905337D02*
X21678863Y-10762480D01*
X21678863Y-10762480D02*
X21678863Y-10962480D01*
X21859815Y-10962480D02*
X21859815Y-10857718D01*
X21859815Y-10857718D02*
X21850291Y-10838670D01*
X21850291Y-10838670D02*
X21831244Y-10829146D01*
X21831244Y-10829146D02*
X21793148Y-10829146D01*
X21793148Y-10829146D02*
X21774101Y-10838670D01*
X21859815Y-10952956D02*
X21840767Y-10962480D01*
X21840767Y-10962480D02*
X21793148Y-10962480D01*
X21793148Y-10962480D02*
X21774101Y-10952956D01*
X21774101Y-10952956D02*
X21764577Y-10933908D01*
X21764577Y-10933908D02*
X21764577Y-10914861D01*
X21764577Y-10914861D02*
X21774101Y-10895813D01*
X21774101Y-10895813D02*
X21793148Y-10886289D01*
X21793148Y-10886289D02*
X21840767Y-10886289D01*
X21840767Y-10886289D02*
X21859815Y-10876765D01*
X21955053Y-10829146D02*
X21955053Y-11029146D01*
X21955053Y-10838670D02*
X21974101Y-10829146D01*
X21974101Y-10829146D02*
X22012196Y-10829146D01*
X22012196Y-10829146D02*
X22031244Y-10838670D01*
X22031244Y-10838670D02*
X22040767Y-10848194D01*
X22040767Y-10848194D02*
X22050291Y-10867242D01*
X22050291Y-10867242D02*
X22050291Y-10924384D01*
X22050291Y-10924384D02*
X22040767Y-10943432D01*
X22040767Y-10943432D02*
X22031244Y-10952956D01*
X22031244Y-10952956D02*
X22012196Y-10962480D01*
X22012196Y-10962480D02*
X21974101Y-10962480D01*
X21974101Y-10962480D02*
X21955053Y-10952956D01*
X22136005Y-10943432D02*
X22145529Y-10952956D01*
X22145529Y-10952956D02*
X22136005Y-10962480D01*
X22136005Y-10962480D02*
X22126482Y-10952956D01*
X22126482Y-10952956D02*
X22136005Y-10943432D01*
X22136005Y-10943432D02*
X22136005Y-10962480D01*
X22136005Y-10838670D02*
X22145529Y-10848194D01*
X22145529Y-10848194D02*
X22136005Y-10857718D01*
X22136005Y-10857718D02*
X22126482Y-10848194D01*
X22126482Y-10848194D02*
X22136005Y-10838670D01*
X22136005Y-10838670D02*
X22136005Y-10857718D01*
M02*
