%TF.GenerationSoftware,KiCad,Pcbnew,9.0.2*%
%TF.CreationDate,2025-06-15T23:24:52+08:00*%
%TF.ProjectId,eggada50_wireless_autorouted_manually_routed,65676761-6461-4353-905f-776972656c65,0.2*%
%TF.SameCoordinates,Original*%
%TF.FileFunction,Legend,Top*%
%TF.FilePolarity,Positive*%
%FSLAX46Y46*%
G04 Gerber Fmt 4.6, Leading zero omitted, Abs format (unit mm)*
G04 Created by KiCad (PCBNEW 9.0.2) date 2025-06-15 23:24:52*
%MOMM*%
%LPD*%
G01*
G04 APERTURE LIST*
%ADD10C,0.150000*%
%ADD11C,0.100000*%
%ADD12C,0.120000*%
G04 APERTURE END LIST*
D10*
X228880952Y-79204819D02*
X229071428Y-79204819D01*
X229071428Y-79204819D02*
X229166666Y-79252438D01*
X229166666Y-79252438D02*
X229261904Y-79347676D01*
X229261904Y-79347676D02*
X229309523Y-79538152D01*
X229309523Y-79538152D02*
X229309523Y-79871485D01*
X229309523Y-79871485D02*
X229261904Y-80061961D01*
X229261904Y-80061961D02*
X229166666Y-80157200D01*
X229166666Y-80157200D02*
X229071428Y-80204819D01*
X229071428Y-80204819D02*
X228880952Y-80204819D01*
X228880952Y-80204819D02*
X228785714Y-80157200D01*
X228785714Y-80157200D02*
X228690476Y-80061961D01*
X228690476Y-80061961D02*
X228642857Y-79871485D01*
X228642857Y-79871485D02*
X228642857Y-79538152D01*
X228642857Y-79538152D02*
X228690476Y-79347676D01*
X228690476Y-79347676D02*
X228785714Y-79252438D01*
X228785714Y-79252438D02*
X228880952Y-79204819D01*
X229738095Y-80204819D02*
X229738095Y-79204819D01*
X229738095Y-79204819D02*
X230309523Y-80204819D01*
X230309523Y-80204819D02*
X230309523Y-79204819D01*
X228547619Y-89204819D02*
X228738095Y-89204819D01*
X228738095Y-89204819D02*
X228833333Y-89252438D01*
X228833333Y-89252438D02*
X228928571Y-89347676D01*
X228928571Y-89347676D02*
X228976190Y-89538152D01*
X228976190Y-89538152D02*
X228976190Y-89871485D01*
X228976190Y-89871485D02*
X228928571Y-90061961D01*
X228928571Y-90061961D02*
X228833333Y-90157200D01*
X228833333Y-90157200D02*
X228738095Y-90204819D01*
X228738095Y-90204819D02*
X228547619Y-90204819D01*
X228547619Y-90204819D02*
X228452381Y-90157200D01*
X228452381Y-90157200D02*
X228357143Y-90061961D01*
X228357143Y-90061961D02*
X228309524Y-89871485D01*
X228309524Y-89871485D02*
X228309524Y-89538152D01*
X228309524Y-89538152D02*
X228357143Y-89347676D01*
X228357143Y-89347676D02*
X228452381Y-89252438D01*
X228452381Y-89252438D02*
X228547619Y-89204819D01*
X229738095Y-89681009D02*
X229404762Y-89681009D01*
X229404762Y-90204819D02*
X229404762Y-89204819D01*
X229404762Y-89204819D02*
X229880952Y-89204819D01*
X230595238Y-89681009D02*
X230261905Y-89681009D01*
X230261905Y-90204819D02*
X230261905Y-89204819D01*
X230261905Y-89204819D02*
X230738095Y-89204819D01*
X218392095Y-51042438D02*
X218296857Y-50994819D01*
X218296857Y-50994819D02*
X218154000Y-50994819D01*
X218154000Y-50994819D02*
X218011143Y-51042438D01*
X218011143Y-51042438D02*
X217915905Y-51137676D01*
X217915905Y-51137676D02*
X217868286Y-51232914D01*
X217868286Y-51232914D02*
X217820667Y-51423390D01*
X217820667Y-51423390D02*
X217820667Y-51566247D01*
X217820667Y-51566247D02*
X217868286Y-51756723D01*
X217868286Y-51756723D02*
X217915905Y-51851961D01*
X217915905Y-51851961D02*
X218011143Y-51947200D01*
X218011143Y-51947200D02*
X218154000Y-51994819D01*
X218154000Y-51994819D02*
X218249238Y-51994819D01*
X218249238Y-51994819D02*
X218392095Y-51947200D01*
X218392095Y-51947200D02*
X218439714Y-51899580D01*
X218439714Y-51899580D02*
X218439714Y-51566247D01*
X218439714Y-51566247D02*
X218249238Y-51566247D01*
X218868286Y-51994819D02*
X218868286Y-50994819D01*
X218868286Y-50994819D02*
X219439714Y-51994819D01*
X219439714Y-51994819D02*
X219439714Y-50994819D01*
X219915905Y-51994819D02*
X219915905Y-50994819D01*
X219915905Y-50994819D02*
X220154000Y-50994819D01*
X220154000Y-50994819D02*
X220296857Y-51042438D01*
X220296857Y-51042438D02*
X220392095Y-51137676D01*
X220392095Y-51137676D02*
X220439714Y-51232914D01*
X220439714Y-51232914D02*
X220487333Y-51423390D01*
X220487333Y-51423390D02*
X220487333Y-51566247D01*
X220487333Y-51566247D02*
X220439714Y-51756723D01*
X220439714Y-51756723D02*
X220392095Y-51851961D01*
X220392095Y-51851961D02*
X220296857Y-51947200D01*
X220296857Y-51947200D02*
X220154000Y-51994819D01*
X220154000Y-51994819D02*
X219915905Y-51994819D01*
X218392095Y-48502438D02*
X218296857Y-48454819D01*
X218296857Y-48454819D02*
X218154000Y-48454819D01*
X218154000Y-48454819D02*
X218011143Y-48502438D01*
X218011143Y-48502438D02*
X217915905Y-48597676D01*
X217915905Y-48597676D02*
X217868286Y-48692914D01*
X217868286Y-48692914D02*
X217820667Y-48883390D01*
X217820667Y-48883390D02*
X217820667Y-49026247D01*
X217820667Y-49026247D02*
X217868286Y-49216723D01*
X217868286Y-49216723D02*
X217915905Y-49311961D01*
X217915905Y-49311961D02*
X218011143Y-49407200D01*
X218011143Y-49407200D02*
X218154000Y-49454819D01*
X218154000Y-49454819D02*
X218249238Y-49454819D01*
X218249238Y-49454819D02*
X218392095Y-49407200D01*
X218392095Y-49407200D02*
X218439714Y-49359580D01*
X218439714Y-49359580D02*
X218439714Y-49026247D01*
X218439714Y-49026247D02*
X218249238Y-49026247D01*
X218868286Y-49454819D02*
X218868286Y-48454819D01*
X218868286Y-48454819D02*
X219439714Y-49454819D01*
X219439714Y-49454819D02*
X219439714Y-48454819D01*
X219915905Y-49454819D02*
X219915905Y-48454819D01*
X219915905Y-48454819D02*
X220154000Y-48454819D01*
X220154000Y-48454819D02*
X220296857Y-48502438D01*
X220296857Y-48502438D02*
X220392095Y-48597676D01*
X220392095Y-48597676D02*
X220439714Y-48692914D01*
X220439714Y-48692914D02*
X220487333Y-48883390D01*
X220487333Y-48883390D02*
X220487333Y-49026247D01*
X220487333Y-49026247D02*
X220439714Y-49216723D01*
X220439714Y-49216723D02*
X220392095Y-49311961D01*
X220392095Y-49311961D02*
X220296857Y-49407200D01*
X220296857Y-49407200D02*
X220154000Y-49454819D01*
X220154000Y-49454819D02*
X219915905Y-49454819D01*
X218082571Y-46914819D02*
X218082571Y-45914819D01*
X218082571Y-45914819D02*
X218320666Y-45914819D01*
X218320666Y-45914819D02*
X218463523Y-45962438D01*
X218463523Y-45962438D02*
X218558761Y-46057676D01*
X218558761Y-46057676D02*
X218606380Y-46152914D01*
X218606380Y-46152914D02*
X218653999Y-46343390D01*
X218653999Y-46343390D02*
X218653999Y-46486247D01*
X218653999Y-46486247D02*
X218606380Y-46676723D01*
X218606380Y-46676723D02*
X218558761Y-46771961D01*
X218558761Y-46771961D02*
X218463523Y-46867200D01*
X218463523Y-46867200D02*
X218320666Y-46914819D01*
X218320666Y-46914819D02*
X218082571Y-46914819D01*
X219034952Y-46629104D02*
X219511142Y-46629104D01*
X218939714Y-46914819D02*
X219273047Y-45914819D01*
X219273047Y-45914819D02*
X219606380Y-46914819D01*
X219796857Y-45914819D02*
X220368285Y-45914819D01*
X220082571Y-46914819D02*
X220082571Y-45914819D01*
X215497333Y-59519580D02*
X215449714Y-59567200D01*
X215449714Y-59567200D02*
X215306857Y-59614819D01*
X215306857Y-59614819D02*
X215211619Y-59614819D01*
X215211619Y-59614819D02*
X215068762Y-59567200D01*
X215068762Y-59567200D02*
X214973524Y-59471961D01*
X214973524Y-59471961D02*
X214925905Y-59376723D01*
X214925905Y-59376723D02*
X214878286Y-59186247D01*
X214878286Y-59186247D02*
X214878286Y-59043390D01*
X214878286Y-59043390D02*
X214925905Y-58852914D01*
X214925905Y-58852914D02*
X214973524Y-58757676D01*
X214973524Y-58757676D02*
X215068762Y-58662438D01*
X215068762Y-58662438D02*
X215211619Y-58614819D01*
X215211619Y-58614819D02*
X215306857Y-58614819D01*
X215306857Y-58614819D02*
X215449714Y-58662438D01*
X215449714Y-58662438D02*
X215497333Y-58710057D01*
X215878286Y-58710057D02*
X215925905Y-58662438D01*
X215925905Y-58662438D02*
X216021143Y-58614819D01*
X216021143Y-58614819D02*
X216259238Y-58614819D01*
X216259238Y-58614819D02*
X216354476Y-58662438D01*
X216354476Y-58662438D02*
X216402095Y-58710057D01*
X216402095Y-58710057D02*
X216449714Y-58805295D01*
X216449714Y-58805295D02*
X216449714Y-58900533D01*
X216449714Y-58900533D02*
X216402095Y-59043390D01*
X216402095Y-59043390D02*
X215830667Y-59614819D01*
X215830667Y-59614819D02*
X216449714Y-59614819D01*
X215497333Y-62059580D02*
X215449714Y-62107200D01*
X215449714Y-62107200D02*
X215306857Y-62154819D01*
X215306857Y-62154819D02*
X215211619Y-62154819D01*
X215211619Y-62154819D02*
X215068762Y-62107200D01*
X215068762Y-62107200D02*
X214973524Y-62011961D01*
X214973524Y-62011961D02*
X214925905Y-61916723D01*
X214925905Y-61916723D02*
X214878286Y-61726247D01*
X214878286Y-61726247D02*
X214878286Y-61583390D01*
X214878286Y-61583390D02*
X214925905Y-61392914D01*
X214925905Y-61392914D02*
X214973524Y-61297676D01*
X214973524Y-61297676D02*
X215068762Y-61202438D01*
X215068762Y-61202438D02*
X215211619Y-61154819D01*
X215211619Y-61154819D02*
X215306857Y-61154819D01*
X215306857Y-61154819D02*
X215449714Y-61202438D01*
X215449714Y-61202438D02*
X215497333Y-61250057D01*
X215830667Y-61154819D02*
X216449714Y-61154819D01*
X216449714Y-61154819D02*
X216116381Y-61535771D01*
X216116381Y-61535771D02*
X216259238Y-61535771D01*
X216259238Y-61535771D02*
X216354476Y-61583390D01*
X216354476Y-61583390D02*
X216402095Y-61631009D01*
X216402095Y-61631009D02*
X216449714Y-61726247D01*
X216449714Y-61726247D02*
X216449714Y-61964342D01*
X216449714Y-61964342D02*
X216402095Y-62059580D01*
X216402095Y-62059580D02*
X216354476Y-62107200D01*
X216354476Y-62107200D02*
X216259238Y-62154819D01*
X216259238Y-62154819D02*
X215973524Y-62154819D01*
X215973524Y-62154819D02*
X215878286Y-62107200D01*
X215878286Y-62107200D02*
X215830667Y-62059580D01*
X215497333Y-69679580D02*
X215449714Y-69727200D01*
X215449714Y-69727200D02*
X215306857Y-69774819D01*
X215306857Y-69774819D02*
X215211619Y-69774819D01*
X215211619Y-69774819D02*
X215068762Y-69727200D01*
X215068762Y-69727200D02*
X214973524Y-69631961D01*
X214973524Y-69631961D02*
X214925905Y-69536723D01*
X214925905Y-69536723D02*
X214878286Y-69346247D01*
X214878286Y-69346247D02*
X214878286Y-69203390D01*
X214878286Y-69203390D02*
X214925905Y-69012914D01*
X214925905Y-69012914D02*
X214973524Y-68917676D01*
X214973524Y-68917676D02*
X215068762Y-68822438D01*
X215068762Y-68822438D02*
X215211619Y-68774819D01*
X215211619Y-68774819D02*
X215306857Y-68774819D01*
X215306857Y-68774819D02*
X215449714Y-68822438D01*
X215449714Y-68822438D02*
X215497333Y-68870057D01*
X216354476Y-68774819D02*
X216164000Y-68774819D01*
X216164000Y-68774819D02*
X216068762Y-68822438D01*
X216068762Y-68822438D02*
X216021143Y-68870057D01*
X216021143Y-68870057D02*
X215925905Y-69012914D01*
X215925905Y-69012914D02*
X215878286Y-69203390D01*
X215878286Y-69203390D02*
X215878286Y-69584342D01*
X215878286Y-69584342D02*
X215925905Y-69679580D01*
X215925905Y-69679580D02*
X215973524Y-69727200D01*
X215973524Y-69727200D02*
X216068762Y-69774819D01*
X216068762Y-69774819D02*
X216259238Y-69774819D01*
X216259238Y-69774819D02*
X216354476Y-69727200D01*
X216354476Y-69727200D02*
X216402095Y-69679580D01*
X216402095Y-69679580D02*
X216449714Y-69584342D01*
X216449714Y-69584342D02*
X216449714Y-69346247D01*
X216449714Y-69346247D02*
X216402095Y-69251009D01*
X216402095Y-69251009D02*
X216354476Y-69203390D01*
X216354476Y-69203390D02*
X216259238Y-69155771D01*
X216259238Y-69155771D02*
X216068762Y-69155771D01*
X216068762Y-69155771D02*
X215973524Y-69203390D01*
X215973524Y-69203390D02*
X215925905Y-69251009D01*
X215925905Y-69251009D02*
X215878286Y-69346247D01*
X215497333Y-54439580D02*
X215449714Y-54487200D01*
X215449714Y-54487200D02*
X215306857Y-54534819D01*
X215306857Y-54534819D02*
X215211619Y-54534819D01*
X215211619Y-54534819D02*
X215068762Y-54487200D01*
X215068762Y-54487200D02*
X214973524Y-54391961D01*
X214973524Y-54391961D02*
X214925905Y-54296723D01*
X214925905Y-54296723D02*
X214878286Y-54106247D01*
X214878286Y-54106247D02*
X214878286Y-53963390D01*
X214878286Y-53963390D02*
X214925905Y-53772914D01*
X214925905Y-53772914D02*
X214973524Y-53677676D01*
X214973524Y-53677676D02*
X215068762Y-53582438D01*
X215068762Y-53582438D02*
X215211619Y-53534819D01*
X215211619Y-53534819D02*
X215306857Y-53534819D01*
X215306857Y-53534819D02*
X215449714Y-53582438D01*
X215449714Y-53582438D02*
X215497333Y-53630057D01*
X216116381Y-53534819D02*
X216211619Y-53534819D01*
X216211619Y-53534819D02*
X216306857Y-53582438D01*
X216306857Y-53582438D02*
X216354476Y-53630057D01*
X216354476Y-53630057D02*
X216402095Y-53725295D01*
X216402095Y-53725295D02*
X216449714Y-53915771D01*
X216449714Y-53915771D02*
X216449714Y-54153866D01*
X216449714Y-54153866D02*
X216402095Y-54344342D01*
X216402095Y-54344342D02*
X216354476Y-54439580D01*
X216354476Y-54439580D02*
X216306857Y-54487200D01*
X216306857Y-54487200D02*
X216211619Y-54534819D01*
X216211619Y-54534819D02*
X216116381Y-54534819D01*
X216116381Y-54534819D02*
X216021143Y-54487200D01*
X216021143Y-54487200D02*
X215973524Y-54439580D01*
X215973524Y-54439580D02*
X215925905Y-54344342D01*
X215925905Y-54344342D02*
X215878286Y-54153866D01*
X215878286Y-54153866D02*
X215878286Y-53915771D01*
X215878286Y-53915771D02*
X215925905Y-53725295D01*
X215925905Y-53725295D02*
X215973524Y-53630057D01*
X215973524Y-53630057D02*
X216021143Y-53582438D01*
X216021143Y-53582438D02*
X216116381Y-53534819D01*
X215492095Y-45962438D02*
X215396857Y-45914819D01*
X215396857Y-45914819D02*
X215254000Y-45914819D01*
X215254000Y-45914819D02*
X215111143Y-45962438D01*
X215111143Y-45962438D02*
X215015905Y-46057676D01*
X215015905Y-46057676D02*
X214968286Y-46152914D01*
X214968286Y-46152914D02*
X214920667Y-46343390D01*
X214920667Y-46343390D02*
X214920667Y-46486247D01*
X214920667Y-46486247D02*
X214968286Y-46676723D01*
X214968286Y-46676723D02*
X215015905Y-46771961D01*
X215015905Y-46771961D02*
X215111143Y-46867200D01*
X215111143Y-46867200D02*
X215254000Y-46914819D01*
X215254000Y-46914819D02*
X215349238Y-46914819D01*
X215349238Y-46914819D02*
X215492095Y-46867200D01*
X215492095Y-46867200D02*
X215539714Y-46819580D01*
X215539714Y-46819580D02*
X215539714Y-46486247D01*
X215539714Y-46486247D02*
X215349238Y-46486247D01*
X215968286Y-46914819D02*
X215968286Y-45914819D01*
X215968286Y-45914819D02*
X216539714Y-46914819D01*
X216539714Y-46914819D02*
X216539714Y-45914819D01*
X217015905Y-46914819D02*
X217015905Y-45914819D01*
X217015905Y-45914819D02*
X217254000Y-45914819D01*
X217254000Y-45914819D02*
X217396857Y-45962438D01*
X217396857Y-45962438D02*
X217492095Y-46057676D01*
X217492095Y-46057676D02*
X217539714Y-46152914D01*
X217539714Y-46152914D02*
X217587333Y-46343390D01*
X217587333Y-46343390D02*
X217587333Y-46486247D01*
X217587333Y-46486247D02*
X217539714Y-46676723D01*
X217539714Y-46676723D02*
X217492095Y-46771961D01*
X217492095Y-46771961D02*
X217396857Y-46867200D01*
X217396857Y-46867200D02*
X217254000Y-46914819D01*
X217254000Y-46914819D02*
X217015905Y-46914819D01*
X219577333Y-67234819D02*
X219244000Y-66758628D01*
X219005905Y-67234819D02*
X219005905Y-66234819D01*
X219005905Y-66234819D02*
X219386857Y-66234819D01*
X219386857Y-66234819D02*
X219482095Y-66282438D01*
X219482095Y-66282438D02*
X219529714Y-66330057D01*
X219529714Y-66330057D02*
X219577333Y-66425295D01*
X219577333Y-66425295D02*
X219577333Y-66568152D01*
X219577333Y-66568152D02*
X219529714Y-66663390D01*
X219529714Y-66663390D02*
X219482095Y-66711009D01*
X219482095Y-66711009D02*
X219386857Y-66758628D01*
X219386857Y-66758628D02*
X219005905Y-66758628D01*
X219958286Y-66330057D02*
X220005905Y-66282438D01*
X220005905Y-66282438D02*
X220101143Y-66234819D01*
X220101143Y-66234819D02*
X220339238Y-66234819D01*
X220339238Y-66234819D02*
X220434476Y-66282438D01*
X220434476Y-66282438D02*
X220482095Y-66330057D01*
X220482095Y-66330057D02*
X220529714Y-66425295D01*
X220529714Y-66425295D02*
X220529714Y-66520533D01*
X220529714Y-66520533D02*
X220482095Y-66663390D01*
X220482095Y-66663390D02*
X219910667Y-67234819D01*
X219910667Y-67234819D02*
X220529714Y-67234819D01*
X219577333Y-69774819D02*
X219244000Y-69298628D01*
X219005905Y-69774819D02*
X219005905Y-68774819D01*
X219005905Y-68774819D02*
X219386857Y-68774819D01*
X219386857Y-68774819D02*
X219482095Y-68822438D01*
X219482095Y-68822438D02*
X219529714Y-68870057D01*
X219529714Y-68870057D02*
X219577333Y-68965295D01*
X219577333Y-68965295D02*
X219577333Y-69108152D01*
X219577333Y-69108152D02*
X219529714Y-69203390D01*
X219529714Y-69203390D02*
X219482095Y-69251009D01*
X219482095Y-69251009D02*
X219386857Y-69298628D01*
X219386857Y-69298628D02*
X219005905Y-69298628D01*
X219910667Y-68774819D02*
X220529714Y-68774819D01*
X220529714Y-68774819D02*
X220196381Y-69155771D01*
X220196381Y-69155771D02*
X220339238Y-69155771D01*
X220339238Y-69155771D02*
X220434476Y-69203390D01*
X220434476Y-69203390D02*
X220482095Y-69251009D01*
X220482095Y-69251009D02*
X220529714Y-69346247D01*
X220529714Y-69346247D02*
X220529714Y-69584342D01*
X220529714Y-69584342D02*
X220482095Y-69679580D01*
X220482095Y-69679580D02*
X220434476Y-69727200D01*
X220434476Y-69727200D02*
X220339238Y-69774819D01*
X220339238Y-69774819D02*
X220053524Y-69774819D01*
X220053524Y-69774819D02*
X219958286Y-69727200D01*
X219958286Y-69727200D02*
X219910667Y-69679580D01*
X219577333Y-59519580D02*
X219529714Y-59567200D01*
X219529714Y-59567200D02*
X219386857Y-59614819D01*
X219386857Y-59614819D02*
X219291619Y-59614819D01*
X219291619Y-59614819D02*
X219148762Y-59567200D01*
X219148762Y-59567200D02*
X219053524Y-59471961D01*
X219053524Y-59471961D02*
X219005905Y-59376723D01*
X219005905Y-59376723D02*
X218958286Y-59186247D01*
X218958286Y-59186247D02*
X218958286Y-59043390D01*
X218958286Y-59043390D02*
X219005905Y-58852914D01*
X219005905Y-58852914D02*
X219053524Y-58757676D01*
X219053524Y-58757676D02*
X219148762Y-58662438D01*
X219148762Y-58662438D02*
X219291619Y-58614819D01*
X219291619Y-58614819D02*
X219386857Y-58614819D01*
X219386857Y-58614819D02*
X219529714Y-58662438D01*
X219529714Y-58662438D02*
X219577333Y-58710057D01*
X219958286Y-59567200D02*
X220101143Y-59614819D01*
X220101143Y-59614819D02*
X220339238Y-59614819D01*
X220339238Y-59614819D02*
X220434476Y-59567200D01*
X220434476Y-59567200D02*
X220482095Y-59519580D01*
X220482095Y-59519580D02*
X220529714Y-59424342D01*
X220529714Y-59424342D02*
X220529714Y-59329104D01*
X220529714Y-59329104D02*
X220482095Y-59233866D01*
X220482095Y-59233866D02*
X220434476Y-59186247D01*
X220434476Y-59186247D02*
X220339238Y-59138628D01*
X220339238Y-59138628D02*
X220148762Y-59091009D01*
X220148762Y-59091009D02*
X220053524Y-59043390D01*
X220053524Y-59043390D02*
X220005905Y-58995771D01*
X220005905Y-58995771D02*
X219958286Y-58900533D01*
X219958286Y-58900533D02*
X219958286Y-58805295D01*
X219958286Y-58805295D02*
X220005905Y-58710057D01*
X220005905Y-58710057D02*
X220053524Y-58662438D01*
X220053524Y-58662438D02*
X220148762Y-58614819D01*
X220148762Y-58614819D02*
X220386857Y-58614819D01*
X220386857Y-58614819D02*
X220529714Y-58662438D01*
X217963524Y-57027200D02*
X218106381Y-57074819D01*
X218106381Y-57074819D02*
X218344476Y-57074819D01*
X218344476Y-57074819D02*
X218439714Y-57027200D01*
X218439714Y-57027200D02*
X218487333Y-56979580D01*
X218487333Y-56979580D02*
X218534952Y-56884342D01*
X218534952Y-56884342D02*
X218534952Y-56789104D01*
X218534952Y-56789104D02*
X218487333Y-56693866D01*
X218487333Y-56693866D02*
X218439714Y-56646247D01*
X218439714Y-56646247D02*
X218344476Y-56598628D01*
X218344476Y-56598628D02*
X218154000Y-56551009D01*
X218154000Y-56551009D02*
X218058762Y-56503390D01*
X218058762Y-56503390D02*
X218011143Y-56455771D01*
X218011143Y-56455771D02*
X217963524Y-56360533D01*
X217963524Y-56360533D02*
X217963524Y-56265295D01*
X217963524Y-56265295D02*
X218011143Y-56170057D01*
X218011143Y-56170057D02*
X218058762Y-56122438D01*
X218058762Y-56122438D02*
X218154000Y-56074819D01*
X218154000Y-56074819D02*
X218392095Y-56074819D01*
X218392095Y-56074819D02*
X218534952Y-56122438D01*
X219534952Y-56979580D02*
X219487333Y-57027200D01*
X219487333Y-57027200D02*
X219344476Y-57074819D01*
X219344476Y-57074819D02*
X219249238Y-57074819D01*
X219249238Y-57074819D02*
X219106381Y-57027200D01*
X219106381Y-57027200D02*
X219011143Y-56931961D01*
X219011143Y-56931961D02*
X218963524Y-56836723D01*
X218963524Y-56836723D02*
X218915905Y-56646247D01*
X218915905Y-56646247D02*
X218915905Y-56503390D01*
X218915905Y-56503390D02*
X218963524Y-56312914D01*
X218963524Y-56312914D02*
X219011143Y-56217676D01*
X219011143Y-56217676D02*
X219106381Y-56122438D01*
X219106381Y-56122438D02*
X219249238Y-56074819D01*
X219249238Y-56074819D02*
X219344476Y-56074819D01*
X219344476Y-56074819D02*
X219487333Y-56122438D01*
X219487333Y-56122438D02*
X219534952Y-56170057D01*
X220439714Y-57074819D02*
X219963524Y-57074819D01*
X219963524Y-57074819D02*
X219963524Y-56074819D01*
X214920667Y-50994819D02*
X215254000Y-51994819D01*
X215254000Y-51994819D02*
X215587333Y-50994819D01*
X216492095Y-51899580D02*
X216444476Y-51947200D01*
X216444476Y-51947200D02*
X216301619Y-51994819D01*
X216301619Y-51994819D02*
X216206381Y-51994819D01*
X216206381Y-51994819D02*
X216063524Y-51947200D01*
X216063524Y-51947200D02*
X215968286Y-51851961D01*
X215968286Y-51851961D02*
X215920667Y-51756723D01*
X215920667Y-51756723D02*
X215873048Y-51566247D01*
X215873048Y-51566247D02*
X215873048Y-51423390D01*
X215873048Y-51423390D02*
X215920667Y-51232914D01*
X215920667Y-51232914D02*
X215968286Y-51137676D01*
X215968286Y-51137676D02*
X216063524Y-51042438D01*
X216063524Y-51042438D02*
X216206381Y-50994819D01*
X216206381Y-50994819D02*
X216301619Y-50994819D01*
X216301619Y-50994819D02*
X216444476Y-51042438D01*
X216444476Y-51042438D02*
X216492095Y-51090057D01*
X217492095Y-51899580D02*
X217444476Y-51947200D01*
X217444476Y-51947200D02*
X217301619Y-51994819D01*
X217301619Y-51994819D02*
X217206381Y-51994819D01*
X217206381Y-51994819D02*
X217063524Y-51947200D01*
X217063524Y-51947200D02*
X216968286Y-51851961D01*
X216968286Y-51851961D02*
X216920667Y-51756723D01*
X216920667Y-51756723D02*
X216873048Y-51566247D01*
X216873048Y-51566247D02*
X216873048Y-51423390D01*
X216873048Y-51423390D02*
X216920667Y-51232914D01*
X216920667Y-51232914D02*
X216968286Y-51137676D01*
X216968286Y-51137676D02*
X217063524Y-51042438D01*
X217063524Y-51042438D02*
X217206381Y-50994819D01*
X217206381Y-50994819D02*
X217301619Y-50994819D01*
X217301619Y-50994819D02*
X217444476Y-51042438D01*
X217444476Y-51042438D02*
X217492095Y-51090057D01*
X215706380Y-49454819D02*
X215373047Y-48978628D01*
X215134952Y-49454819D02*
X215134952Y-48454819D01*
X215134952Y-48454819D02*
X215515904Y-48454819D01*
X215515904Y-48454819D02*
X215611142Y-48502438D01*
X215611142Y-48502438D02*
X215658761Y-48550057D01*
X215658761Y-48550057D02*
X215706380Y-48645295D01*
X215706380Y-48645295D02*
X215706380Y-48788152D01*
X215706380Y-48788152D02*
X215658761Y-48883390D01*
X215658761Y-48883390D02*
X215611142Y-48931009D01*
X215611142Y-48931009D02*
X215515904Y-48978628D01*
X215515904Y-48978628D02*
X215134952Y-48978628D01*
X216087333Y-49407200D02*
X216230190Y-49454819D01*
X216230190Y-49454819D02*
X216468285Y-49454819D01*
X216468285Y-49454819D02*
X216563523Y-49407200D01*
X216563523Y-49407200D02*
X216611142Y-49359580D01*
X216611142Y-49359580D02*
X216658761Y-49264342D01*
X216658761Y-49264342D02*
X216658761Y-49169104D01*
X216658761Y-49169104D02*
X216611142Y-49073866D01*
X216611142Y-49073866D02*
X216563523Y-49026247D01*
X216563523Y-49026247D02*
X216468285Y-48978628D01*
X216468285Y-48978628D02*
X216277809Y-48931009D01*
X216277809Y-48931009D02*
X216182571Y-48883390D01*
X216182571Y-48883390D02*
X216134952Y-48835771D01*
X216134952Y-48835771D02*
X216087333Y-48740533D01*
X216087333Y-48740533D02*
X216087333Y-48645295D01*
X216087333Y-48645295D02*
X216134952Y-48550057D01*
X216134952Y-48550057D02*
X216182571Y-48502438D01*
X216182571Y-48502438D02*
X216277809Y-48454819D01*
X216277809Y-48454819D02*
X216515904Y-48454819D01*
X216515904Y-48454819D02*
X216658761Y-48502438D01*
X216944476Y-48454819D02*
X217515904Y-48454819D01*
X217230190Y-49454819D02*
X217230190Y-48454819D01*
X219577333Y-64694819D02*
X219244000Y-64218628D01*
X219005905Y-64694819D02*
X219005905Y-63694819D01*
X219005905Y-63694819D02*
X219386857Y-63694819D01*
X219386857Y-63694819D02*
X219482095Y-63742438D01*
X219482095Y-63742438D02*
X219529714Y-63790057D01*
X219529714Y-63790057D02*
X219577333Y-63885295D01*
X219577333Y-63885295D02*
X219577333Y-64028152D01*
X219577333Y-64028152D02*
X219529714Y-64123390D01*
X219529714Y-64123390D02*
X219482095Y-64171009D01*
X219482095Y-64171009D02*
X219386857Y-64218628D01*
X219386857Y-64218628D02*
X219005905Y-64218628D01*
X220529714Y-64694819D02*
X219958286Y-64694819D01*
X220244000Y-64694819D02*
X220244000Y-63694819D01*
X220244000Y-63694819D02*
X220148762Y-63837676D01*
X220148762Y-63837676D02*
X220053524Y-63932914D01*
X220053524Y-63932914D02*
X219958286Y-63980533D01*
X215039714Y-72314819D02*
X215039714Y-71314819D01*
X215039714Y-71314819D02*
X215420666Y-71314819D01*
X215420666Y-71314819D02*
X215515904Y-71362438D01*
X215515904Y-71362438D02*
X215563523Y-71410057D01*
X215563523Y-71410057D02*
X215611142Y-71505295D01*
X215611142Y-71505295D02*
X215611142Y-71648152D01*
X215611142Y-71648152D02*
X215563523Y-71743390D01*
X215563523Y-71743390D02*
X215515904Y-71791009D01*
X215515904Y-71791009D02*
X215420666Y-71838628D01*
X215420666Y-71838628D02*
X215039714Y-71838628D01*
X216563523Y-72314819D02*
X215992095Y-72314819D01*
X216277809Y-72314819D02*
X216277809Y-71314819D01*
X216277809Y-71314819D02*
X216182571Y-71457676D01*
X216182571Y-71457676D02*
X216087333Y-71552914D01*
X216087333Y-71552914D02*
X215992095Y-71600533D01*
X217182571Y-71314819D02*
X217277809Y-71314819D01*
X217277809Y-71314819D02*
X217373047Y-71362438D01*
X217373047Y-71362438D02*
X217420666Y-71410057D01*
X217420666Y-71410057D02*
X217468285Y-71505295D01*
X217468285Y-71505295D02*
X217515904Y-71695771D01*
X217515904Y-71695771D02*
X217515904Y-71933866D01*
X217515904Y-71933866D02*
X217468285Y-72124342D01*
X217468285Y-72124342D02*
X217420666Y-72219580D01*
X217420666Y-72219580D02*
X217373047Y-72267200D01*
X217373047Y-72267200D02*
X217277809Y-72314819D01*
X217277809Y-72314819D02*
X217182571Y-72314819D01*
X217182571Y-72314819D02*
X217087333Y-72267200D01*
X217087333Y-72267200D02*
X217039714Y-72219580D01*
X217039714Y-72219580D02*
X216992095Y-72124342D01*
X216992095Y-72124342D02*
X216944476Y-71933866D01*
X216944476Y-71933866D02*
X216944476Y-71695771D01*
X216944476Y-71695771D02*
X216992095Y-71505295D01*
X216992095Y-71505295D02*
X217039714Y-71410057D01*
X217039714Y-71410057D02*
X217087333Y-71362438D01*
X217087333Y-71362438D02*
X217182571Y-71314819D01*
X215497333Y-64599580D02*
X215449714Y-64647200D01*
X215449714Y-64647200D02*
X215306857Y-64694819D01*
X215306857Y-64694819D02*
X215211619Y-64694819D01*
X215211619Y-64694819D02*
X215068762Y-64647200D01*
X215068762Y-64647200D02*
X214973524Y-64551961D01*
X214973524Y-64551961D02*
X214925905Y-64456723D01*
X214925905Y-64456723D02*
X214878286Y-64266247D01*
X214878286Y-64266247D02*
X214878286Y-64123390D01*
X214878286Y-64123390D02*
X214925905Y-63932914D01*
X214925905Y-63932914D02*
X214973524Y-63837676D01*
X214973524Y-63837676D02*
X215068762Y-63742438D01*
X215068762Y-63742438D02*
X215211619Y-63694819D01*
X215211619Y-63694819D02*
X215306857Y-63694819D01*
X215306857Y-63694819D02*
X215449714Y-63742438D01*
X215449714Y-63742438D02*
X215497333Y-63790057D01*
X216354476Y-64028152D02*
X216354476Y-64694819D01*
X216116381Y-63647200D02*
X215878286Y-64361485D01*
X215878286Y-64361485D02*
X216497333Y-64361485D01*
X215563523Y-44374819D02*
X215230190Y-43898628D01*
X214992095Y-44374819D02*
X214992095Y-43374819D01*
X214992095Y-43374819D02*
X215373047Y-43374819D01*
X215373047Y-43374819D02*
X215468285Y-43422438D01*
X215468285Y-43422438D02*
X215515904Y-43470057D01*
X215515904Y-43470057D02*
X215563523Y-43565295D01*
X215563523Y-43565295D02*
X215563523Y-43708152D01*
X215563523Y-43708152D02*
X215515904Y-43803390D01*
X215515904Y-43803390D02*
X215468285Y-43851009D01*
X215468285Y-43851009D02*
X215373047Y-43898628D01*
X215373047Y-43898628D02*
X214992095Y-43898628D01*
X215944476Y-44089104D02*
X216420666Y-44089104D01*
X215849238Y-44374819D02*
X216182571Y-43374819D01*
X216182571Y-43374819D02*
X216515904Y-44374819D01*
X216754000Y-43374819D02*
X216992095Y-44374819D01*
X216992095Y-44374819D02*
X217182571Y-43660533D01*
X217182571Y-43660533D02*
X217373047Y-44374819D01*
X217373047Y-44374819D02*
X217611143Y-43374819D01*
X219577333Y-62154819D02*
X219244000Y-61678628D01*
X219005905Y-62154819D02*
X219005905Y-61154819D01*
X219005905Y-61154819D02*
X219386857Y-61154819D01*
X219386857Y-61154819D02*
X219482095Y-61202438D01*
X219482095Y-61202438D02*
X219529714Y-61250057D01*
X219529714Y-61250057D02*
X219577333Y-61345295D01*
X219577333Y-61345295D02*
X219577333Y-61488152D01*
X219577333Y-61488152D02*
X219529714Y-61583390D01*
X219529714Y-61583390D02*
X219482095Y-61631009D01*
X219482095Y-61631009D02*
X219386857Y-61678628D01*
X219386857Y-61678628D02*
X219005905Y-61678628D01*
X220196381Y-61154819D02*
X220291619Y-61154819D01*
X220291619Y-61154819D02*
X220386857Y-61202438D01*
X220386857Y-61202438D02*
X220434476Y-61250057D01*
X220434476Y-61250057D02*
X220482095Y-61345295D01*
X220482095Y-61345295D02*
X220529714Y-61535771D01*
X220529714Y-61535771D02*
X220529714Y-61773866D01*
X220529714Y-61773866D02*
X220482095Y-61964342D01*
X220482095Y-61964342D02*
X220434476Y-62059580D01*
X220434476Y-62059580D02*
X220386857Y-62107200D01*
X220386857Y-62107200D02*
X220291619Y-62154819D01*
X220291619Y-62154819D02*
X220196381Y-62154819D01*
X220196381Y-62154819D02*
X220101143Y-62107200D01*
X220101143Y-62107200D02*
X220053524Y-62059580D01*
X220053524Y-62059580D02*
X220005905Y-61964342D01*
X220005905Y-61964342D02*
X219958286Y-61773866D01*
X219958286Y-61773866D02*
X219958286Y-61535771D01*
X219958286Y-61535771D02*
X220005905Y-61345295D01*
X220005905Y-61345295D02*
X220053524Y-61250057D01*
X220053524Y-61250057D02*
X220101143Y-61202438D01*
X220101143Y-61202438D02*
X220196381Y-61154819D01*
X218511142Y-44374819D02*
X218034952Y-44374819D01*
X218034952Y-44374819D02*
X218034952Y-43374819D01*
X218844476Y-43851009D02*
X219177809Y-43851009D01*
X219320666Y-44374819D02*
X218844476Y-44374819D01*
X218844476Y-44374819D02*
X218844476Y-43374819D01*
X218844476Y-43374819D02*
X219320666Y-43374819D01*
X219749238Y-44374819D02*
X219749238Y-43374819D01*
X219749238Y-43374819D02*
X219987333Y-43374819D01*
X219987333Y-43374819D02*
X220130190Y-43422438D01*
X220130190Y-43422438D02*
X220225428Y-43517676D01*
X220225428Y-43517676D02*
X220273047Y-43612914D01*
X220273047Y-43612914D02*
X220320666Y-43803390D01*
X220320666Y-43803390D02*
X220320666Y-43946247D01*
X220320666Y-43946247D02*
X220273047Y-44136723D01*
X220273047Y-44136723D02*
X220225428Y-44231961D01*
X220225428Y-44231961D02*
X220130190Y-44327200D01*
X220130190Y-44327200D02*
X219987333Y-44374819D01*
X219987333Y-44374819D02*
X219749238Y-44374819D01*
X215497333Y-56979580D02*
X215449714Y-57027200D01*
X215449714Y-57027200D02*
X215306857Y-57074819D01*
X215306857Y-57074819D02*
X215211619Y-57074819D01*
X215211619Y-57074819D02*
X215068762Y-57027200D01*
X215068762Y-57027200D02*
X214973524Y-56931961D01*
X214973524Y-56931961D02*
X214925905Y-56836723D01*
X214925905Y-56836723D02*
X214878286Y-56646247D01*
X214878286Y-56646247D02*
X214878286Y-56503390D01*
X214878286Y-56503390D02*
X214925905Y-56312914D01*
X214925905Y-56312914D02*
X214973524Y-56217676D01*
X214973524Y-56217676D02*
X215068762Y-56122438D01*
X215068762Y-56122438D02*
X215211619Y-56074819D01*
X215211619Y-56074819D02*
X215306857Y-56074819D01*
X215306857Y-56074819D02*
X215449714Y-56122438D01*
X215449714Y-56122438D02*
X215497333Y-56170057D01*
X216449714Y-57074819D02*
X215878286Y-57074819D01*
X216164000Y-57074819D02*
X216164000Y-56074819D01*
X216164000Y-56074819D02*
X216068762Y-56217676D01*
X216068762Y-56217676D02*
X215973524Y-56312914D01*
X215973524Y-56312914D02*
X215878286Y-56360533D01*
X217939714Y-54487200D02*
X218082571Y-54534819D01*
X218082571Y-54534819D02*
X218320666Y-54534819D01*
X218320666Y-54534819D02*
X218415904Y-54487200D01*
X218415904Y-54487200D02*
X218463523Y-54439580D01*
X218463523Y-54439580D02*
X218511142Y-54344342D01*
X218511142Y-54344342D02*
X218511142Y-54249104D01*
X218511142Y-54249104D02*
X218463523Y-54153866D01*
X218463523Y-54153866D02*
X218415904Y-54106247D01*
X218415904Y-54106247D02*
X218320666Y-54058628D01*
X218320666Y-54058628D02*
X218130190Y-54011009D01*
X218130190Y-54011009D02*
X218034952Y-53963390D01*
X218034952Y-53963390D02*
X217987333Y-53915771D01*
X217987333Y-53915771D02*
X217939714Y-53820533D01*
X217939714Y-53820533D02*
X217939714Y-53725295D01*
X217939714Y-53725295D02*
X217987333Y-53630057D01*
X217987333Y-53630057D02*
X218034952Y-53582438D01*
X218034952Y-53582438D02*
X218130190Y-53534819D01*
X218130190Y-53534819D02*
X218368285Y-53534819D01*
X218368285Y-53534819D02*
X218511142Y-53582438D01*
X218939714Y-54534819D02*
X218939714Y-53534819D01*
X218939714Y-53534819D02*
X219177809Y-53534819D01*
X219177809Y-53534819D02*
X219320666Y-53582438D01*
X219320666Y-53582438D02*
X219415904Y-53677676D01*
X219415904Y-53677676D02*
X219463523Y-53772914D01*
X219463523Y-53772914D02*
X219511142Y-53963390D01*
X219511142Y-53963390D02*
X219511142Y-54106247D01*
X219511142Y-54106247D02*
X219463523Y-54296723D01*
X219463523Y-54296723D02*
X219415904Y-54391961D01*
X219415904Y-54391961D02*
X219320666Y-54487200D01*
X219320666Y-54487200D02*
X219177809Y-54534819D01*
X219177809Y-54534819D02*
X218939714Y-54534819D01*
X219892095Y-54249104D02*
X220368285Y-54249104D01*
X219796857Y-54534819D02*
X220130190Y-53534819D01*
X220130190Y-53534819D02*
X220463523Y-54534819D01*
X219005905Y-72314819D02*
X219005905Y-71314819D01*
X219005905Y-71314819D02*
X219386857Y-71314819D01*
X219386857Y-71314819D02*
X219482095Y-71362438D01*
X219482095Y-71362438D02*
X219529714Y-71410057D01*
X219529714Y-71410057D02*
X219577333Y-71505295D01*
X219577333Y-71505295D02*
X219577333Y-71648152D01*
X219577333Y-71648152D02*
X219529714Y-71743390D01*
X219529714Y-71743390D02*
X219482095Y-71791009D01*
X219482095Y-71791009D02*
X219386857Y-71838628D01*
X219386857Y-71838628D02*
X219005905Y-71838628D01*
X220053524Y-72314819D02*
X220244000Y-72314819D01*
X220244000Y-72314819D02*
X220339238Y-72267200D01*
X220339238Y-72267200D02*
X220386857Y-72219580D01*
X220386857Y-72219580D02*
X220482095Y-72076723D01*
X220482095Y-72076723D02*
X220529714Y-71886247D01*
X220529714Y-71886247D02*
X220529714Y-71505295D01*
X220529714Y-71505295D02*
X220482095Y-71410057D01*
X220482095Y-71410057D02*
X220434476Y-71362438D01*
X220434476Y-71362438D02*
X220339238Y-71314819D01*
X220339238Y-71314819D02*
X220148762Y-71314819D01*
X220148762Y-71314819D02*
X220053524Y-71362438D01*
X220053524Y-71362438D02*
X220005905Y-71410057D01*
X220005905Y-71410057D02*
X219958286Y-71505295D01*
X219958286Y-71505295D02*
X219958286Y-71743390D01*
X219958286Y-71743390D02*
X220005905Y-71838628D01*
X220005905Y-71838628D02*
X220053524Y-71886247D01*
X220053524Y-71886247D02*
X220148762Y-71933866D01*
X220148762Y-71933866D02*
X220339238Y-71933866D01*
X220339238Y-71933866D02*
X220434476Y-71886247D01*
X220434476Y-71886247D02*
X220482095Y-71838628D01*
X220482095Y-71838628D02*
X220529714Y-71743390D01*
X215497333Y-67139580D02*
X215449714Y-67187200D01*
X215449714Y-67187200D02*
X215306857Y-67234819D01*
X215306857Y-67234819D02*
X215211619Y-67234819D01*
X215211619Y-67234819D02*
X215068762Y-67187200D01*
X215068762Y-67187200D02*
X214973524Y-67091961D01*
X214973524Y-67091961D02*
X214925905Y-66996723D01*
X214925905Y-66996723D02*
X214878286Y-66806247D01*
X214878286Y-66806247D02*
X214878286Y-66663390D01*
X214878286Y-66663390D02*
X214925905Y-66472914D01*
X214925905Y-66472914D02*
X214973524Y-66377676D01*
X214973524Y-66377676D02*
X215068762Y-66282438D01*
X215068762Y-66282438D02*
X215211619Y-66234819D01*
X215211619Y-66234819D02*
X215306857Y-66234819D01*
X215306857Y-66234819D02*
X215449714Y-66282438D01*
X215449714Y-66282438D02*
X215497333Y-66330057D01*
X216402095Y-66234819D02*
X215925905Y-66234819D01*
X215925905Y-66234819D02*
X215878286Y-66711009D01*
X215878286Y-66711009D02*
X215925905Y-66663390D01*
X215925905Y-66663390D02*
X216021143Y-66615771D01*
X216021143Y-66615771D02*
X216259238Y-66615771D01*
X216259238Y-66615771D02*
X216354476Y-66663390D01*
X216354476Y-66663390D02*
X216402095Y-66711009D01*
X216402095Y-66711009D02*
X216449714Y-66806247D01*
X216449714Y-66806247D02*
X216449714Y-67044342D01*
X216449714Y-67044342D02*
X216402095Y-67139580D01*
X216402095Y-67139580D02*
X216354476Y-67187200D01*
X216354476Y-67187200D02*
X216259238Y-67234819D01*
X216259238Y-67234819D02*
X216021143Y-67234819D01*
X216021143Y-67234819D02*
X215925905Y-67187200D01*
X215925905Y-67187200D02*
X215878286Y-67139580D01*
D11*
%TO.C,D31*%
X111200000Y-77050000D02*
X112000000Y-77050000D01*
X111600000Y-77050000D02*
X111600000Y-76550000D01*
X111600000Y-77650000D02*
X111050000Y-77650000D01*
X111600000Y-77650000D02*
X111200000Y-77050000D01*
X111600000Y-77650000D02*
X112150000Y-77650000D01*
X111600000Y-78050000D02*
X111600000Y-77650000D01*
X112000000Y-77050000D02*
X111600000Y-77650000D01*
%TO.C,D28*%
X92200000Y-60425000D02*
X93000000Y-60425000D01*
X92600000Y-60425000D02*
X92600000Y-59925000D01*
X92600000Y-61025000D02*
X92050000Y-61025000D01*
X92600000Y-61025000D02*
X92200000Y-60425000D01*
X92600000Y-61025000D02*
X93150000Y-61025000D01*
X92600000Y-61425000D02*
X92600000Y-61025000D01*
X93000000Y-60425000D02*
X92600000Y-61025000D01*
%TO.C,D33*%
X111200000Y-39050000D02*
X112000000Y-39050000D01*
X111600000Y-39050000D02*
X111600000Y-38550000D01*
X111600000Y-39650000D02*
X111050000Y-39650000D01*
X111600000Y-39650000D02*
X111200000Y-39050000D01*
X111600000Y-39650000D02*
X112150000Y-39650000D01*
X111600000Y-40050000D02*
X111600000Y-39650000D01*
X112000000Y-39050000D02*
X111600000Y-39650000D01*
%TO.C,D47*%
X187200000Y-62800000D02*
X188000000Y-62800000D01*
X187600000Y-62800000D02*
X187600000Y-62300000D01*
X187600000Y-63400000D02*
X187050000Y-63400000D01*
X187600000Y-63400000D02*
X187200000Y-62800000D01*
X187600000Y-63400000D02*
X188150000Y-63400000D01*
X187600000Y-63800000D02*
X187600000Y-63400000D01*
X188000000Y-62800000D02*
X187600000Y-63400000D01*
D12*
%TO.C,PWR1*%
X228075000Y-83350000D02*
X228075000Y-83150000D01*
X228075000Y-86350000D02*
X228075000Y-84650000D01*
X229125000Y-88200000D02*
X229915000Y-88200000D01*
X229915000Y-81300000D02*
X229125000Y-81300000D01*
X230925000Y-87600000D02*
X230925000Y-81900000D01*
%TO.C,DISP1*%
X211237000Y-74370000D02*
X211237000Y-77030000D01*
X224057000Y-74370000D02*
X211237000Y-74370000D01*
X224057000Y-74370000D02*
X224057000Y-77030000D01*
X224057000Y-77030000D02*
X211237000Y-77030000D01*
D11*
%TO.C,D37*%
X130200000Y-41425000D02*
X131000000Y-41425000D01*
X130600000Y-41425000D02*
X130600000Y-40925000D01*
X130600000Y-42025000D02*
X130050000Y-42025000D01*
X130600000Y-42025000D02*
X130200000Y-41425000D01*
X130600000Y-42025000D02*
X131150000Y-42025000D01*
X130600000Y-42425000D02*
X130600000Y-42025000D01*
X131000000Y-41425000D02*
X130600000Y-42025000D01*
%TO.C,D41*%
X149200000Y-39050000D02*
X150000000Y-39050000D01*
X149600000Y-39050000D02*
X149600000Y-38550000D01*
X149600000Y-39650000D02*
X149050000Y-39650000D01*
X149600000Y-39650000D02*
X149200000Y-39050000D01*
X149600000Y-39650000D02*
X150150000Y-39650000D01*
X149600000Y-40050000D02*
X149600000Y-39650000D01*
X150000000Y-39050000D02*
X149600000Y-39650000D01*
D12*
%TO.C,JST1*%
X213290000Y-80440000D02*
X214290000Y-80440000D01*
X213290000Y-81360000D02*
X213290000Y-80440000D01*
X213290000Y-85560000D02*
X213290000Y-86560000D01*
X213290000Y-86560000D02*
X214290000Y-86560000D01*
X221110000Y-80440000D02*
X220110000Y-80440000D01*
X221110000Y-81360000D02*
X221110000Y-80440000D01*
X221110000Y-85640000D02*
X221110000Y-86560000D01*
X221110000Y-86560000D02*
X220110000Y-86560000D01*
D11*
X221650000Y-82500000D02*
X222650000Y-82500000D01*
X222150000Y-82000000D02*
X222150000Y-83000000D01*
X222150000Y-85000000D02*
X222150000Y-84000000D01*
%TO.C,D26*%
X92200000Y-98425000D02*
X93000000Y-98425000D01*
X92600000Y-98425000D02*
X92600000Y-97925000D01*
X92600000Y-99025000D02*
X92050000Y-99025000D01*
X92600000Y-99025000D02*
X92200000Y-98425000D01*
X92600000Y-99025000D02*
X93150000Y-99025000D01*
X92600000Y-99425000D02*
X92600000Y-99025000D01*
X93000000Y-98425000D02*
X92600000Y-99025000D01*
%TO.C,RST1*%
X227750000Y-70650000D02*
X227750000Y-70400000D01*
X227750000Y-74850000D02*
X227750000Y-75100000D01*
X228000000Y-70400000D02*
X227750000Y-70400000D01*
X228000000Y-75100000D02*
X227750000Y-75100000D01*
X231000000Y-70400000D02*
X231250000Y-70400000D01*
X231000000Y-75100000D02*
X231250000Y-75100000D01*
X231250000Y-70650000D02*
X231250000Y-70400000D01*
X231250000Y-74850000D02*
X231250000Y-75100000D01*
%TO.C,D40*%
X149200000Y-58050000D02*
X150000000Y-58050000D01*
X149600000Y-58050000D02*
X149600000Y-57550000D01*
X149600000Y-58650000D02*
X149050000Y-58650000D01*
X149600000Y-58650000D02*
X149200000Y-58050000D01*
X149600000Y-58650000D02*
X150150000Y-58650000D01*
X149600000Y-59050000D02*
X149600000Y-58650000D01*
X150000000Y-58050000D02*
X149600000Y-58650000D01*
%TO.C,D34*%
X130200000Y-98425000D02*
X131000000Y-98425000D01*
X130600000Y-98425000D02*
X130600000Y-97925000D01*
X130600000Y-99025000D02*
X130050000Y-99025000D01*
X130600000Y-99025000D02*
X130200000Y-98425000D01*
X130600000Y-99025000D02*
X131150000Y-99025000D01*
X130600000Y-99425000D02*
X130600000Y-99025000D01*
X131000000Y-98425000D02*
X130600000Y-99025000D01*
%TO.C,D32*%
X111200000Y-58050000D02*
X112000000Y-58050000D01*
X111600000Y-58050000D02*
X111600000Y-57550000D01*
X111600000Y-58650000D02*
X111050000Y-58650000D01*
X111600000Y-58650000D02*
X111200000Y-58050000D01*
X111600000Y-58650000D02*
X112150000Y-58650000D01*
X111600000Y-59050000D02*
X111600000Y-58650000D01*
X112000000Y-58050000D02*
X111600000Y-58650000D01*
%TO.C,D38*%
X149200000Y-96050000D02*
X150000000Y-96050000D01*
X149600000Y-96050000D02*
X149600000Y-95550000D01*
X149600000Y-96650000D02*
X149050000Y-96650000D01*
X149600000Y-96650000D02*
X149200000Y-96050000D01*
X149600000Y-96650000D02*
X150150000Y-96650000D01*
X149600000Y-97050000D02*
X149600000Y-96650000D01*
X150000000Y-96050000D02*
X149600000Y-96650000D01*
%TO.C,D48*%
X187200000Y-43800000D02*
X188000000Y-43800000D01*
X187600000Y-43800000D02*
X187600000Y-43300000D01*
X187600000Y-44400000D02*
X187050000Y-44400000D01*
X187600000Y-44400000D02*
X187200000Y-43800000D01*
X187600000Y-44400000D02*
X188150000Y-44400000D01*
X187600000Y-44800000D02*
X187600000Y-44400000D01*
X188000000Y-43800000D02*
X187600000Y-44400000D01*
%TO.C,D45*%
X168200000Y-41425000D02*
X169000000Y-41425000D01*
X168600000Y-41425000D02*
X168600000Y-40925000D01*
X168600000Y-42025000D02*
X168050000Y-42025000D01*
X168600000Y-42025000D02*
X168200000Y-41425000D01*
X168600000Y-42025000D02*
X169150000Y-42025000D01*
X168600000Y-42425000D02*
X168600000Y-42025000D01*
X169000000Y-41425000D02*
X168600000Y-42025000D01*
D12*
%TO.C,MCU1*%
X208754000Y-42590000D02*
X208754000Y-73190000D01*
X208754000Y-42590000D02*
X211414000Y-42590000D01*
X208754000Y-73190000D02*
X211414000Y-73190000D01*
X211414000Y-42590000D02*
X211414000Y-73190000D01*
X223994000Y-42590000D02*
X223994000Y-73190000D01*
X223994000Y-42590000D02*
X226654000Y-42590000D01*
X223994000Y-45190000D02*
X226654000Y-45190000D01*
X223994000Y-73190000D02*
X226654000Y-73190000D01*
X226654000Y-42590000D02*
X226654000Y-73190000D01*
D11*
%TO.C,D29*%
X92200000Y-41425000D02*
X93000000Y-41425000D01*
X92600000Y-41425000D02*
X92600000Y-40925000D01*
X92600000Y-42025000D02*
X92050000Y-42025000D01*
X92600000Y-42025000D02*
X92200000Y-41425000D01*
X92600000Y-42025000D02*
X93150000Y-42025000D01*
X92600000Y-42425000D02*
X92600000Y-42025000D01*
X93000000Y-41425000D02*
X92600000Y-42025000D01*
%TO.C,D36*%
X130200000Y-60425000D02*
X131000000Y-60425000D01*
X130600000Y-60425000D02*
X130600000Y-59925000D01*
X130600000Y-61025000D02*
X130050000Y-61025000D01*
X130600000Y-61025000D02*
X130200000Y-60425000D01*
X130600000Y-61025000D02*
X131150000Y-61025000D01*
X130600000Y-61425000D02*
X130600000Y-61025000D01*
X131000000Y-60425000D02*
X130600000Y-61025000D01*
%TO.C,D35*%
X130200000Y-79425000D02*
X131000000Y-79425000D01*
X130600000Y-79425000D02*
X130600000Y-78925000D01*
X130600000Y-80025000D02*
X130050000Y-80025000D01*
X130600000Y-80025000D02*
X130200000Y-79425000D01*
X130600000Y-80025000D02*
X131150000Y-80025000D01*
X130600000Y-80425000D02*
X130600000Y-80025000D01*
X131000000Y-79425000D02*
X130600000Y-80025000D01*
%TO.C,D46*%
X187200000Y-81800000D02*
X188000000Y-81800000D01*
X187600000Y-81800000D02*
X187600000Y-81300000D01*
X187600000Y-82400000D02*
X187050000Y-82400000D01*
X187600000Y-82400000D02*
X187200000Y-81800000D01*
X187600000Y-82400000D02*
X188150000Y-82400000D01*
X187600000Y-82800000D02*
X187600000Y-82400000D01*
X188000000Y-81800000D02*
X187600000Y-82400000D01*
%TO.C,D39*%
X149200000Y-77050000D02*
X150000000Y-77050000D01*
X149600000Y-77050000D02*
X149600000Y-76550000D01*
X149600000Y-77650000D02*
X149050000Y-77650000D01*
X149600000Y-77650000D02*
X149200000Y-77050000D01*
X149600000Y-77650000D02*
X150150000Y-77650000D01*
X149600000Y-78050000D02*
X149600000Y-77650000D01*
X150000000Y-77050000D02*
X149600000Y-77650000D01*
%TO.C,D30*%
X111200000Y-96050000D02*
X112000000Y-96050000D01*
X111600000Y-96050000D02*
X111600000Y-95550000D01*
X111600000Y-96650000D02*
X111050000Y-96650000D01*
X111600000Y-96650000D02*
X111200000Y-96050000D01*
X111600000Y-96650000D02*
X112150000Y-96650000D01*
X111600000Y-97050000D02*
X111600000Y-96650000D01*
X112000000Y-96050000D02*
X111600000Y-96650000D01*
%TO.C,D27*%
X92200000Y-79425000D02*
X93000000Y-79425000D01*
X92600000Y-79425000D02*
X92600000Y-78925000D01*
X92600000Y-80025000D02*
X92050000Y-80025000D01*
X92600000Y-80025000D02*
X92200000Y-79425000D01*
X92600000Y-80025000D02*
X93150000Y-80025000D01*
X92600000Y-80425000D02*
X92600000Y-80025000D01*
X93000000Y-79425000D02*
X92600000Y-80025000D01*
%TO.C,D50*%
X209040494Y-124207510D02*
X209440494Y-123514690D01*
X209240494Y-123861100D02*
X208807481Y-123611100D01*
X209440494Y-123514690D02*
X209760109Y-124161100D01*
X209760109Y-124161100D02*
X209040494Y-124207510D01*
X209760109Y-124161100D02*
X209485109Y-124637414D01*
X209760109Y-124161100D02*
X210035109Y-123684786D01*
X210106519Y-124361100D02*
X209760109Y-124161100D01*
%TO.C,D49*%
X192585994Y-114707510D02*
X192985994Y-114014690D01*
X192785994Y-114361100D02*
X192352981Y-114111100D01*
X192985994Y-114014690D02*
X193305609Y-114661100D01*
X193305609Y-114661100D02*
X192585994Y-114707510D01*
X193305609Y-114661100D02*
X193030609Y-115137414D01*
X193305609Y-114661100D02*
X193580609Y-114184786D01*
X193652019Y-114861100D02*
X193305609Y-114661100D01*
%TO.C,D44*%
X168200000Y-60425000D02*
X169000000Y-60425000D01*
X168600000Y-60425000D02*
X168600000Y-59925000D01*
X168600000Y-61025000D02*
X168050000Y-61025000D01*
X168600000Y-61025000D02*
X168200000Y-60425000D01*
X168600000Y-61025000D02*
X169150000Y-61025000D01*
X168600000Y-61425000D02*
X168600000Y-61025000D01*
X169000000Y-60425000D02*
X168600000Y-61025000D01*
%TO.C,D42*%
X168200000Y-98425000D02*
X169000000Y-98425000D01*
X168600000Y-98425000D02*
X168600000Y-97925000D01*
X168600000Y-99025000D02*
X168050000Y-99025000D01*
X168600000Y-99025000D02*
X168200000Y-98425000D01*
X168600000Y-99025000D02*
X169150000Y-99025000D01*
X168600000Y-99425000D02*
X168600000Y-99025000D01*
X169000000Y-98425000D02*
X168600000Y-99025000D01*
%TO.C,D43*%
X168200000Y-79425000D02*
X169000000Y-79425000D01*
X168600000Y-79425000D02*
X168600000Y-78925000D01*
X168600000Y-80025000D02*
X168050000Y-80025000D01*
X168600000Y-80025000D02*
X168200000Y-79425000D01*
X168600000Y-80025000D02*
X169150000Y-80025000D01*
X168600000Y-80425000D02*
X168600000Y-80025000D01*
X169000000Y-79425000D02*
X168600000Y-80025000D01*
%TD*%
M02*
