%TF.GenerationSoftware,KiCad,Pcbnew,9.0.2*%
%TF.CreationDate,2025-06-15T23:24:52+08:00*%
%TF.ProjectId,eggada50_wireless_autorouted_manually_routed,65676761-6461-4353-905f-776972656c65,0.2*%
%TF.SameCoordinates,Original*%
%TF.FileFunction,Paste,Top*%
%TF.FilePolarity,Positive*%
%FSLAX46Y46*%
G04 Gerber Fmt 4.6, Leading zero omitted, Abs format (unit mm)*
G04 Created by KiCad (PCBNEW 9.0.2) date 2025-06-15 23:24:52*
%MOMM*%
%LPD*%
G01*
G04 APERTURE LIST*
G04 Aperture macros list*
%AMRotRect*
0 Rectangle, with rotation*
0 The origin of the aperture is its center*
0 $1 length*
0 $2 width*
0 $3 Rotation angle, in degrees counterclockwise*
0 Add horizontal line*
21,1,$1,$2,0,0,$3*%
%AMFreePoly0*
4,1,6,0.600000,-1.000000,0.000000,-0.400000,-0.600000,-1.000000,-0.600000,0.250000,0.600000,0.250000,0.600000,-1.000000,0.600000,-1.000000,$1*%
%AMFreePoly1*
4,1,6,0.600000,-0.200000,0.600000,-0.400000,-0.600000,-0.400000,-0.600000,-0.200000,0.000000,0.400000,0.600000,-0.200000,0.600000,-0.200000,$1*%
G04 Aperture macros list end*
%ADD10R,1.200000X0.900000*%
%ADD11R,2.550000X2.500000*%
%ADD12R,0.800000X1.000000*%
%ADD13R,1.500000X0.700000*%
%ADD14R,1.200000X0.600000*%
%ADD15FreePoly0,270.000000*%
%ADD16FreePoly1,270.000000*%
%ADD17R,1.000000X1.550000*%
%ADD18RotRect,2.550000X2.500000X60.000000*%
%ADD19R,0.600000X1.200000*%
%ADD20RotRect,0.900000X1.200000X150.000000*%
G04 APERTURE END LIST*
D10*
%TO.C,D31*%
X111600000Y-78950000D03*
X111600000Y-75650000D03*
%TD*%
D11*
%TO.C,S35*%
X145085000Y-78460000D03*
X132158000Y-75920000D03*
%TD*%
D10*
%TO.C,D28*%
X92600000Y-62325000D03*
X92600000Y-59025000D03*
%TD*%
%TO.C,D33*%
X111600000Y-40950000D03*
X111600000Y-37650000D03*
%TD*%
%TO.C,D47*%
X187600000Y-64700000D03*
X187600000Y-61400000D03*
%TD*%
D12*
%TO.C,PWR1*%
X228415000Y-81100000D03*
X228415000Y-88400000D03*
X230625000Y-81100000D03*
X230625000Y-88400000D03*
D13*
X227765000Y-87000000D03*
X227765000Y-84000000D03*
X227765000Y-82500000D03*
%TD*%
D14*
%TO.C,DISP1*%
X212567000Y-78350000D03*
X215107000Y-78350000D03*
X220187000Y-78350000D03*
X222727000Y-78350000D03*
X212567000Y-77450000D03*
X215107000Y-77450000D03*
X220187000Y-77450000D03*
X222727000Y-77450000D03*
%TD*%
D11*
%TO.C,S42*%
X183085000Y-97460000D03*
X170158000Y-94920000D03*
%TD*%
D10*
%TO.C,D37*%
X130600000Y-43325000D03*
X130600000Y-40025000D03*
%TD*%
%TO.C,D41*%
X149600000Y-40950000D03*
X149600000Y-37650000D03*
%TD*%
D11*
%TO.C,S27*%
X107085000Y-78460000D03*
X94158000Y-75920000D03*
%TD*%
%TO.C,S31*%
X126085000Y-76085000D03*
X113158000Y-73545000D03*
%TD*%
D15*
%TO.C,JST1*%
X217566000Y-84500000D03*
X217566000Y-82500000D03*
D16*
X216550000Y-84500000D03*
X216550000Y-82500000D03*
%TD*%
D10*
%TO.C,D26*%
X92600000Y-100325000D03*
X92600000Y-97025000D03*
%TD*%
D17*
%TO.C,RST1*%
X230350000Y-75375000D03*
X228650000Y-75375000D03*
X230350000Y-70125000D03*
X228650000Y-70125000D03*
%TD*%
D11*
%TO.C,S28*%
X107085000Y-59460000D03*
X94158000Y-56920000D03*
%TD*%
%TO.C,S38*%
X164085000Y-95085000D03*
X151158000Y-92545000D03*
%TD*%
D10*
%TO.C,D40*%
X149600000Y-59950000D03*
X149600000Y-56650000D03*
%TD*%
D11*
%TO.C,S47*%
X202085000Y-61835000D03*
X189158000Y-59295000D03*
%TD*%
%TO.C,S33*%
X126085000Y-38085000D03*
X113158000Y-35545000D03*
%TD*%
D10*
%TO.C,D34*%
X130600000Y-100325000D03*
X130600000Y-97025000D03*
%TD*%
D11*
%TO.C,S46*%
X202085000Y-80835000D03*
X189158000Y-78295000D03*
%TD*%
D10*
%TO.C,D32*%
X111600000Y-59950000D03*
X111600000Y-56650000D03*
%TD*%
%TO.C,D38*%
X149600000Y-97950000D03*
X149600000Y-94650000D03*
%TD*%
D11*
%TO.C,S37*%
X145085000Y-40460000D03*
X132158000Y-37920000D03*
%TD*%
D18*
%TO.C,S50*%
X215647295Y-110834210D03*
X206984091Y-120759320D03*
%TD*%
D10*
%TO.C,D48*%
X187600000Y-45700000D03*
X187600000Y-42400000D03*
%TD*%
%TO.C,D45*%
X168600000Y-43325000D03*
X168600000Y-40025000D03*
%TD*%
D11*
%TO.C,S39*%
X164085000Y-76085000D03*
X151158000Y-73545000D03*
%TD*%
D19*
%TO.C,MCU1*%
X223184000Y-43920000D03*
X223184000Y-46460000D03*
X223184000Y-49000000D03*
X223184000Y-51540000D03*
X223184000Y-54080000D03*
X223184000Y-56620000D03*
X223184000Y-59160000D03*
X223184000Y-61700000D03*
X223184000Y-64240000D03*
X223184000Y-66780000D03*
X223184000Y-69320000D03*
X223184000Y-71860000D03*
X212224000Y-71860000D03*
X212224000Y-69320000D03*
X212224000Y-66780000D03*
X212224000Y-64240000D03*
X212224000Y-61700000D03*
X212224000Y-59160000D03*
X212224000Y-56620000D03*
X212224000Y-54080000D03*
X212224000Y-51540000D03*
X212224000Y-49000000D03*
X212224000Y-46460000D03*
X212224000Y-43920000D03*
X222284000Y-43920000D03*
X222284000Y-46460000D03*
X222284000Y-49000000D03*
X222284000Y-51540000D03*
X222284000Y-54080000D03*
X222284000Y-56620000D03*
X222284000Y-59160000D03*
X222284000Y-61700000D03*
X222284000Y-64240000D03*
X222284000Y-66780000D03*
X222284000Y-69320000D03*
X222284000Y-71860000D03*
X213124000Y-71860000D03*
X213124000Y-69320000D03*
X213124000Y-66780000D03*
X213124000Y-64240000D03*
X213124000Y-61700000D03*
X213124000Y-59160000D03*
X213124000Y-56620000D03*
X213124000Y-54080000D03*
X213124000Y-51540000D03*
X213124000Y-49000000D03*
X213124000Y-46460000D03*
X213124000Y-43920000D03*
%TD*%
D11*
%TO.C,S34*%
X145085000Y-97460000D03*
X132158000Y-94920000D03*
%TD*%
D10*
%TO.C,D29*%
X92600000Y-43325000D03*
X92600000Y-40025000D03*
%TD*%
D18*
%TO.C,S49*%
X199192795Y-101334210D03*
X190529591Y-111259320D03*
%TD*%
D10*
%TO.C,D36*%
X130600000Y-62325000D03*
X130600000Y-59025000D03*
%TD*%
%TO.C,D35*%
X130600000Y-81325000D03*
X130600000Y-78025000D03*
%TD*%
D11*
%TO.C,S32*%
X126085000Y-57085000D03*
X113158000Y-54545000D03*
%TD*%
%TO.C,S44*%
X183085000Y-59460000D03*
X170158000Y-56920000D03*
%TD*%
D10*
%TO.C,D46*%
X187600000Y-83700000D03*
X187600000Y-80400000D03*
%TD*%
D11*
%TO.C,S48*%
X202085000Y-42835000D03*
X189158000Y-40295000D03*
%TD*%
D10*
%TO.C,D39*%
X149600000Y-78950000D03*
X149600000Y-75650000D03*
%TD*%
%TO.C,D30*%
X111600000Y-97950000D03*
X111600000Y-94650000D03*
%TD*%
D11*
%TO.C,S45*%
X183085000Y-40460000D03*
X170158000Y-37920000D03*
%TD*%
D10*
%TO.C,D27*%
X92600000Y-81325000D03*
X92600000Y-78025000D03*
%TD*%
D20*
%TO.C,D50*%
X210885942Y-124811100D03*
X208028058Y-123161100D03*
%TD*%
D11*
%TO.C,S40*%
X164085000Y-57085000D03*
X151158000Y-54545000D03*
%TD*%
%TO.C,S36*%
X145085000Y-59460000D03*
X132158000Y-56920000D03*
%TD*%
%TO.C,S29*%
X107085000Y-40460000D03*
X94158000Y-37920000D03*
%TD*%
D20*
%TO.C,D49*%
X194431442Y-115311100D03*
X191573558Y-113661100D03*
%TD*%
D10*
%TO.C,D44*%
X168600000Y-62325000D03*
X168600000Y-59025000D03*
%TD*%
D11*
%TO.C,S41*%
X164085000Y-38085000D03*
X151158000Y-35545000D03*
%TD*%
%TO.C,S43*%
X183085000Y-78460000D03*
X170158000Y-75920000D03*
%TD*%
D10*
%TO.C,D42*%
X168600000Y-100325000D03*
X168600000Y-97025000D03*
%TD*%
D11*
%TO.C,S26*%
X107085000Y-97460000D03*
X94158000Y-94920000D03*
%TD*%
%TO.C,S30*%
X126085000Y-95085000D03*
X113158000Y-92545000D03*
%TD*%
D10*
%TO.C,D43*%
X168600000Y-81325000D03*
X168600000Y-78025000D03*
%TD*%
M02*
