%TF.GenerationSoftware,KiCad,Pcbnew,9.0.2*%
%TF.CreationDate,2025-06-15T23:24:52+08:00*%
%TF.ProjectId,eggada50_wireless_autorouted_manually_routed,65676761-6461-4353-905f-776972656c65,0.2*%
%TF.SameCoordinates,Original*%
%TF.FileFunction,Soldermask,Top*%
%TF.FilePolarity,Negative*%
%FSLAX46Y46*%
G04 Gerber Fmt 4.6, Leading zero omitted, Abs format (unit mm)*
G04 Created by KiCad (PCBNEW 9.0.2) date 2025-06-15 23:24:52*
%MOMM*%
%LPD*%
G01*
G04 APERTURE LIST*
G04 Aperture macros list*
%AMRoundRect*
0 Rectangle with rounded corners*
0 $1 Rounding radius*
0 $2 $3 $4 $5 $6 $7 $8 $9 X,Y pos of 4 corners*
0 Add a 4 corners polygon primitive as box body*
4,1,4,$2,$3,$4,$5,$6,$7,$8,$9,$2,$3,0*
0 Add four circle primitives for the rounded corners*
1,1,$1+$1,$2,$3*
1,1,$1+$1,$4,$5*
1,1,$1+$1,$6,$7*
1,1,$1+$1,$8,$9*
0 Add four rect primitives between the rounded corners*
20,1,$1+$1,$2,$3,$4,$5,0*
20,1,$1+$1,$4,$5,$6,$7,0*
20,1,$1+$1,$6,$7,$8,$9,0*
20,1,$1+$1,$8,$9,$2,$3,0*%
%AMFreePoly0*
4,1,16,0.635355,0.285355,0.650000,0.250000,0.650000,-1.000000,0.635355,-1.035355,0.600000,-1.050000,0.564645,-1.035355,0.000000,-0.470710,-0.564645,-1.035355,-0.600000,-1.050000,-0.635355,-1.035355,-0.650000,-1.000000,-0.650000,0.250000,-0.635355,0.285355,-0.600000,0.300000,0.600000,0.300000,0.635355,0.285355,0.635355,0.285355,$1*%
%AMFreePoly1*
4,1,14,0.035355,0.435355,0.635355,-0.164645,0.650000,-0.200000,0.650000,-0.400000,0.635355,-0.435355,0.600000,-0.450000,-0.600000,-0.450000,-0.635355,-0.435355,-0.650000,-0.400000,-0.650000,-0.200000,-0.635355,-0.164645,-0.035355,0.435355,0.000000,0.450000,0.035355,0.435355,0.035355,0.435355,$1*%
G04 Aperture macros list end*
%ADD10RoundRect,0.050000X0.600000X-0.450000X0.600000X0.450000X-0.600000X0.450000X-0.600000X-0.450000X0*%
%ADD11C,2.000000*%
%ADD12C,3.100000*%
%ADD13C,4.200000*%
%ADD14RoundRect,0.050000X-1.275000X-1.250000X1.275000X-1.250000X1.275000X1.250000X-1.275000X1.250000X0*%
%ADD15RoundRect,0.050000X0.400000X-0.500000X0.400000X0.500000X-0.400000X0.500000X-0.400000X-0.500000X0*%
%ADD16C,1.000000*%
%ADD17RoundRect,0.050000X0.750000X-0.350000X0.750000X0.350000X-0.750000X0.350000X-0.750000X-0.350000X0*%
%ADD18C,4.400000*%
%ADD19O,1.800000X1.800000*%
%ADD20C,1.800000*%
%ADD21RoundRect,0.050000X0.600000X-0.300000X0.600000X0.300000X-0.600000X0.300000X-0.600000X-0.300000X0*%
%ADD22C,2.300000*%
%ADD23FreePoly0,270.000000*%
%ADD24O,1.850000X1.300000*%
%ADD25FreePoly1,270.000000*%
%ADD26C,0.850000*%
%ADD27RoundRect,0.050000X0.500000X-0.775000X0.500000X0.775000X-0.500000X0.775000X-0.500000X-0.775000X0*%
%ADD28RoundRect,0.050000X0.445032X-1.729182X1.720032X0.479182X-0.445032X1.729182X-1.720032X-0.479182X0*%
%ADD29RoundRect,0.050000X-0.300000X-0.600000X0.300000X-0.600000X0.300000X0.600000X-0.300000X0.600000X0*%
%ADD30C,0.900000*%
%ADD31RoundRect,0.050000X0.689711X0.294615X-0.089711X0.744615X-0.689711X-0.294615X0.089711X-0.744615X0*%
G04 APERTURE END LIST*
D10*
%TO.C,D31*%
X111600000Y-78950000D03*
X111600000Y-75650000D03*
%TD*%
D11*
%TO.C,S35*%
X132920000Y-81000000D03*
D12*
X135460000Y-75920000D03*
D13*
X138000000Y-81000000D03*
D12*
X141810000Y-78460000D03*
D11*
X143080000Y-81000000D03*
D14*
X145085000Y-78460000D03*
X132158000Y-75920000D03*
%TD*%
D10*
%TO.C,D28*%
X92600000Y-62325000D03*
X92600000Y-59025000D03*
%TD*%
%TO.C,D33*%
X111600000Y-40950000D03*
X111600000Y-37650000D03*
%TD*%
%TO.C,D47*%
X187600000Y-64700000D03*
X187600000Y-61400000D03*
%TD*%
D15*
%TO.C,PWR1*%
X228415000Y-81100000D03*
X228415000Y-88400000D03*
D16*
X229525000Y-83250000D03*
X229525000Y-86250000D03*
D15*
X230625000Y-81100000D03*
X230625000Y-88400000D03*
D17*
X227765000Y-87000000D03*
X227765000Y-84000000D03*
X227765000Y-82500000D03*
%TD*%
D18*
%TO.C,MH6*%
X147500000Y-69125000D03*
%TD*%
D19*
%TO.C,DISP1*%
X212567000Y-75700000D03*
X215107000Y-75700000D03*
X217647000Y-75700000D03*
X220187000Y-75700000D03*
D20*
X222727000Y-75700000D03*
D21*
X212567000Y-78350000D03*
X215107000Y-78350000D03*
X220187000Y-78350000D03*
X222727000Y-78350000D03*
X212567000Y-77450000D03*
X215107000Y-77450000D03*
X220187000Y-77450000D03*
X222727000Y-77450000D03*
%TD*%
D18*
%TO.C,MH5*%
X185468000Y-53736000D03*
%TD*%
D11*
%TO.C,S42*%
X170920000Y-100000000D03*
D12*
X173460000Y-94920000D03*
D13*
X176000000Y-100000000D03*
D12*
X179810000Y-97460000D03*
D11*
X181080000Y-100000000D03*
D14*
X183085000Y-97460000D03*
X170158000Y-94920000D03*
%TD*%
D10*
%TO.C,D37*%
X130600000Y-43325000D03*
X130600000Y-40025000D03*
%TD*%
%TO.C,D41*%
X149600000Y-40950000D03*
X149600000Y-37650000D03*
%TD*%
D11*
%TO.C,S27*%
X94920000Y-81000000D03*
D12*
X97460000Y-75920000D03*
D13*
X100000000Y-81000000D03*
D12*
X103810000Y-78460000D03*
D11*
X105080000Y-81000000D03*
D14*
X107085000Y-78460000D03*
X94158000Y-75920000D03*
%TD*%
D18*
%TO.C,MH8*%
X210827200Y-105262800D03*
%TD*%
D11*
%TO.C,S31*%
X113920000Y-78625000D03*
D12*
X116460000Y-73545000D03*
D13*
X119000000Y-78625000D03*
D12*
X122810000Y-76085000D03*
D11*
X124080000Y-78625000D03*
D14*
X126085000Y-76085000D03*
X113158000Y-73545000D03*
%TD*%
D18*
%TO.C,MH7*%
X166468000Y-89261000D03*
%TD*%
D22*
%TO.C,MH1*%
X207762000Y-89226000D03*
%TD*%
D23*
%TO.C,JST1*%
X217566000Y-84500000D03*
X217566000Y-82500000D03*
D24*
X214750000Y-84500000D03*
X214750000Y-82500000D03*
D25*
X216550000Y-84500000D03*
X216550000Y-82500000D03*
%TD*%
D10*
%TO.C,D26*%
X92600000Y-100325000D03*
X92600000Y-97025000D03*
%TD*%
D26*
%TO.C,RST1*%
X230875000Y-72750000D03*
X228125000Y-72750000D03*
D27*
X230350000Y-75375000D03*
X228650000Y-75375000D03*
X230350000Y-70125000D03*
X228650000Y-70125000D03*
%TD*%
D11*
%TO.C,S28*%
X94920000Y-62000000D03*
D12*
X97460000Y-56920000D03*
D13*
X100000000Y-62000000D03*
D12*
X103810000Y-59460000D03*
D11*
X105080000Y-62000000D03*
D14*
X107085000Y-59460000D03*
X94158000Y-56920000D03*
%TD*%
D11*
%TO.C,S38*%
X151920000Y-97625000D03*
D12*
X154460000Y-92545000D03*
D13*
X157000000Y-97625000D03*
D12*
X160810000Y-95085000D03*
D11*
X162080000Y-97625000D03*
D14*
X164085000Y-95085000D03*
X151158000Y-92545000D03*
%TD*%
D10*
%TO.C,D40*%
X149600000Y-59950000D03*
X149600000Y-56650000D03*
%TD*%
D11*
%TO.C,S47*%
X189920000Y-64375000D03*
D12*
X192460000Y-59295000D03*
D13*
X195000000Y-64375000D03*
D12*
X198810000Y-61835000D03*
D11*
X200080000Y-64375000D03*
D14*
X202085000Y-61835000D03*
X189158000Y-59295000D03*
%TD*%
D11*
%TO.C,S33*%
X113920000Y-40625000D03*
D12*
X116460000Y-35545000D03*
D13*
X119000000Y-40625000D03*
D12*
X122810000Y-38085000D03*
D11*
X124080000Y-40625000D03*
D14*
X126085000Y-38085000D03*
X113158000Y-35545000D03*
%TD*%
D10*
%TO.C,D34*%
X130600000Y-100325000D03*
X130600000Y-97025000D03*
%TD*%
D11*
%TO.C,S46*%
X189920000Y-83375000D03*
D12*
X192460000Y-78295000D03*
D13*
X195000000Y-83375000D03*
D12*
X198810000Y-80835000D03*
D11*
X200080000Y-83375000D03*
D14*
X202085000Y-80835000D03*
X189158000Y-78295000D03*
%TD*%
D18*
%TO.C,MH4*%
X109500000Y-88125000D03*
%TD*%
D10*
%TO.C,D32*%
X111600000Y-59950000D03*
X111600000Y-56650000D03*
%TD*%
%TO.C,D38*%
X149600000Y-97950000D03*
X149600000Y-94650000D03*
%TD*%
D11*
%TO.C,S37*%
X132920000Y-43000000D03*
D12*
X135460000Y-37920000D03*
D13*
X138000000Y-43000000D03*
D12*
X141810000Y-40460000D03*
D11*
X143080000Y-43000000D03*
D14*
X145085000Y-40460000D03*
X132158000Y-37920000D03*
%TD*%
D11*
%TO.C,S50*%
X211764500Y-122639409D03*
D12*
X208635091Y-117899705D03*
D13*
X214304500Y-118240000D03*
D12*
X214009795Y-113670443D03*
D11*
X216844500Y-113840591D03*
D28*
X215647295Y-110834210D03*
X206984091Y-120759320D03*
%TD*%
D10*
%TO.C,D48*%
X187600000Y-45700000D03*
X187600000Y-42400000D03*
%TD*%
%TO.C,D45*%
X168600000Y-43325000D03*
X168600000Y-40025000D03*
%TD*%
D11*
%TO.C,S39*%
X151920000Y-78625000D03*
D12*
X154460000Y-73545000D03*
D13*
X157000000Y-78625000D03*
D12*
X160810000Y-76085000D03*
D11*
X162080000Y-78625000D03*
D14*
X164085000Y-76085000D03*
X151158000Y-73545000D03*
%TD*%
D18*
%TO.C,MH9*%
X201327200Y-121717200D03*
%TD*%
D29*
%TO.C,MCU1*%
X223184000Y-43920000D03*
D20*
X225324000Y-43920000D03*
D29*
X223184000Y-46460000D03*
D20*
X225324000Y-46460000D03*
D29*
X223184000Y-49000000D03*
D20*
X225324000Y-49000000D03*
D29*
X223184000Y-51540000D03*
D20*
X225324000Y-51540000D03*
D29*
X223184000Y-54080000D03*
D20*
X225324000Y-54080000D03*
D29*
X223184000Y-56620000D03*
D20*
X225324000Y-56620000D03*
D29*
X223184000Y-59160000D03*
D20*
X225324000Y-59160000D03*
D29*
X223184000Y-61700000D03*
D20*
X225324000Y-61700000D03*
D29*
X223184000Y-64240000D03*
D20*
X225324000Y-64240000D03*
D29*
X223184000Y-66780000D03*
D20*
X225324000Y-66780000D03*
D29*
X223184000Y-69320000D03*
D20*
X225324000Y-69320000D03*
D29*
X223184000Y-71860000D03*
D20*
X225324000Y-71860000D03*
X210084000Y-71860000D03*
D29*
X212224000Y-71860000D03*
D20*
X210084000Y-69320000D03*
D29*
X212224000Y-69320000D03*
D20*
X210084000Y-66780000D03*
D29*
X212224000Y-66780000D03*
D20*
X210084000Y-64240000D03*
D29*
X212224000Y-64240000D03*
D20*
X210084000Y-61700000D03*
D29*
X212224000Y-61700000D03*
D20*
X210084000Y-59160000D03*
D29*
X212224000Y-59160000D03*
D20*
X210084000Y-56620000D03*
D29*
X212224000Y-56620000D03*
D20*
X210084000Y-54080000D03*
D29*
X212224000Y-54080000D03*
D20*
X210084000Y-51540000D03*
D29*
X212224000Y-51540000D03*
D20*
X210084000Y-49000000D03*
D29*
X212224000Y-49000000D03*
D20*
X210084000Y-46460000D03*
D29*
X212224000Y-46460000D03*
D20*
X210084000Y-43920000D03*
D29*
X212224000Y-43920000D03*
D30*
X221104000Y-43920000D03*
D29*
X222284000Y-43920000D03*
D30*
X221104000Y-46460000D03*
D29*
X222284000Y-46460000D03*
D30*
X221104000Y-49000000D03*
D29*
X222284000Y-49000000D03*
D30*
X221104000Y-51540000D03*
D29*
X222284000Y-51540000D03*
D30*
X221104000Y-54080000D03*
D29*
X222284000Y-54080000D03*
D30*
X221104000Y-56620000D03*
D29*
X222284000Y-56620000D03*
D30*
X221104000Y-59160000D03*
D29*
X222284000Y-59160000D03*
D30*
X221104000Y-61700000D03*
D29*
X222284000Y-61700000D03*
D30*
X221104000Y-64240000D03*
D29*
X222284000Y-64240000D03*
D30*
X221104000Y-66780000D03*
D29*
X222284000Y-66780000D03*
D30*
X221104000Y-69320000D03*
D29*
X222284000Y-69320000D03*
D30*
X221104000Y-71860000D03*
D29*
X222284000Y-71860000D03*
X213124000Y-71860000D03*
D30*
X214304000Y-71860000D03*
D29*
X213124000Y-69320000D03*
D30*
X214304000Y-69320000D03*
D29*
X213124000Y-66780000D03*
D30*
X214304000Y-66780000D03*
D29*
X213124000Y-64240000D03*
D30*
X214304000Y-64240000D03*
D29*
X213124000Y-61700000D03*
D30*
X214304000Y-61700000D03*
D29*
X213124000Y-59160000D03*
D30*
X214304000Y-59160000D03*
D29*
X213124000Y-56620000D03*
D30*
X214304000Y-56620000D03*
D29*
X213124000Y-54080000D03*
D30*
X214304000Y-54080000D03*
D29*
X213124000Y-51540000D03*
D30*
X214304000Y-51540000D03*
D29*
X213124000Y-49000000D03*
D30*
X214304000Y-49000000D03*
D29*
X213124000Y-46460000D03*
D30*
X214304000Y-46460000D03*
D29*
X213124000Y-43920000D03*
D30*
X214304000Y-43920000D03*
%TD*%
D11*
%TO.C,S34*%
X132920000Y-100000000D03*
D12*
X135460000Y-94920000D03*
D13*
X138000000Y-100000000D03*
D12*
X141810000Y-97460000D03*
D11*
X143080000Y-100000000D03*
D14*
X145085000Y-97460000D03*
X132158000Y-94920000D03*
%TD*%
D10*
%TO.C,D29*%
X92600000Y-43325000D03*
X92600000Y-40025000D03*
%TD*%
D11*
%TO.C,S49*%
X195310000Y-113139409D03*
D12*
X192180591Y-108399705D03*
D13*
X197850000Y-108740000D03*
D12*
X197555295Y-104170443D03*
D11*
X200390000Y-104340591D03*
D28*
X199192795Y-101334210D03*
X190529591Y-111259320D03*
%TD*%
D10*
%TO.C,D36*%
X130600000Y-62325000D03*
X130600000Y-59025000D03*
%TD*%
%TO.C,D35*%
X130600000Y-81325000D03*
X130600000Y-78025000D03*
%TD*%
D11*
%TO.C,S32*%
X113920000Y-59625000D03*
D12*
X116460000Y-54545000D03*
D13*
X119000000Y-59625000D03*
D12*
X122810000Y-57085000D03*
D11*
X124080000Y-59625000D03*
D14*
X126085000Y-57085000D03*
X113158000Y-54545000D03*
%TD*%
D11*
%TO.C,S44*%
X170920000Y-62000000D03*
D12*
X173460000Y-56920000D03*
D13*
X176000000Y-62000000D03*
D12*
X179810000Y-59460000D03*
D11*
X181080000Y-62000000D03*
D14*
X183085000Y-59460000D03*
X170158000Y-56920000D03*
%TD*%
D10*
%TO.C,D46*%
X187600000Y-83700000D03*
X187600000Y-80400000D03*
%TD*%
D11*
%TO.C,S48*%
X189920000Y-45375000D03*
D12*
X192460000Y-40295000D03*
D13*
X195000000Y-45375000D03*
D12*
X198810000Y-42835000D03*
D11*
X200080000Y-45375000D03*
D14*
X202085000Y-42835000D03*
X189158000Y-40295000D03*
%TD*%
D10*
%TO.C,D39*%
X149600000Y-78950000D03*
X149600000Y-75650000D03*
%TD*%
D18*
%TO.C,MH3*%
X109500000Y-50125000D03*
%TD*%
D10*
%TO.C,D30*%
X111600000Y-97950000D03*
X111600000Y-94650000D03*
%TD*%
D11*
%TO.C,S45*%
X170920000Y-43000000D03*
D12*
X173460000Y-37920000D03*
D13*
X176000000Y-43000000D03*
D12*
X179810000Y-40460000D03*
D11*
X181080000Y-43000000D03*
D14*
X183085000Y-40460000D03*
X170158000Y-37920000D03*
%TD*%
D10*
%TO.C,D27*%
X92600000Y-81325000D03*
X92600000Y-78025000D03*
%TD*%
D31*
%TO.C,D50*%
X210885942Y-124811100D03*
X208028058Y-123161100D03*
%TD*%
D11*
%TO.C,S40*%
X151920000Y-59625000D03*
D12*
X154460000Y-54545000D03*
D13*
X157000000Y-59625000D03*
D12*
X160810000Y-57085000D03*
D11*
X162080000Y-59625000D03*
D14*
X164085000Y-57085000D03*
X151158000Y-54545000D03*
%TD*%
D22*
%TO.C,MH2*%
X228694000Y-101245000D03*
%TD*%
D11*
%TO.C,S36*%
X132920000Y-62000000D03*
D12*
X135460000Y-56920000D03*
D13*
X138000000Y-62000000D03*
D12*
X141810000Y-59460000D03*
D11*
X143080000Y-62000000D03*
D14*
X145085000Y-59460000D03*
X132158000Y-56920000D03*
%TD*%
D11*
%TO.C,S29*%
X94920000Y-43000000D03*
D12*
X97460000Y-37920000D03*
D13*
X100000000Y-43000000D03*
D12*
X103810000Y-40460000D03*
D11*
X105080000Y-43000000D03*
D14*
X107085000Y-40460000D03*
X94158000Y-37920000D03*
%TD*%
D31*
%TO.C,D49*%
X194431442Y-115311100D03*
X191573558Y-113661100D03*
%TD*%
D10*
%TO.C,D44*%
X168600000Y-62325000D03*
X168600000Y-59025000D03*
%TD*%
D11*
%TO.C,S41*%
X151920000Y-40625000D03*
D12*
X154460000Y-35545000D03*
D13*
X157000000Y-40625000D03*
D12*
X160810000Y-38085000D03*
D11*
X162080000Y-40625000D03*
D14*
X164085000Y-38085000D03*
X151158000Y-35545000D03*
%TD*%
D11*
%TO.C,S43*%
X170920000Y-81000000D03*
D12*
X173460000Y-75920000D03*
D13*
X176000000Y-81000000D03*
D12*
X179810000Y-78460000D03*
D11*
X181080000Y-81000000D03*
D14*
X183085000Y-78460000D03*
X170158000Y-75920000D03*
%TD*%
D10*
%TO.C,D42*%
X168600000Y-100325000D03*
X168600000Y-97025000D03*
%TD*%
D11*
%TO.C,S26*%
X94920000Y-100000000D03*
D12*
X97460000Y-94920000D03*
D13*
X100000000Y-100000000D03*
D12*
X103810000Y-97460000D03*
D11*
X105080000Y-100000000D03*
D14*
X107085000Y-97460000D03*
X94158000Y-94920000D03*
%TD*%
D11*
%TO.C,S30*%
X113920000Y-97625000D03*
D12*
X116460000Y-92545000D03*
D13*
X119000000Y-97625000D03*
D12*
X122810000Y-95085000D03*
D11*
X124080000Y-97625000D03*
D14*
X126085000Y-95085000D03*
X113158000Y-92545000D03*
%TD*%
D11*
%TO.C,S10*%
X132920000Y-81000000D03*
D12*
X134190000Y-78460000D03*
D13*
X138000000Y-81000000D03*
D12*
X140540000Y-75920000D03*
D11*
X143080000Y-81000000D03*
%TD*%
%TO.C,S6*%
X113920000Y-78625000D03*
D12*
X115190000Y-76085000D03*
D13*
X119000000Y-78625000D03*
D12*
X121540000Y-73545000D03*
D11*
X124080000Y-78625000D03*
%TD*%
%TO.C,S23*%
X189920000Y-45375000D03*
D12*
X191190000Y-42835000D03*
D13*
X195000000Y-45375000D03*
D12*
X197540000Y-40295000D03*
D11*
X200080000Y-45375000D03*
%TD*%
%TO.C,S19*%
X170920000Y-62000000D03*
D12*
X172190000Y-59460000D03*
D13*
X176000000Y-62000000D03*
D12*
X178540000Y-56920000D03*
D11*
X181080000Y-62000000D03*
%TD*%
%TO.C,S20*%
X170920000Y-43000000D03*
D12*
X172190000Y-40460000D03*
D13*
X176000000Y-43000000D03*
D12*
X178540000Y-37920000D03*
D11*
X181080000Y-43000000D03*
%TD*%
%TO.C,S13*%
X151920000Y-97625000D03*
D12*
X153190000Y-95085000D03*
D13*
X157000000Y-97625000D03*
D12*
X159540000Y-92545000D03*
D11*
X162080000Y-97625000D03*
%TD*%
%TO.C,S11*%
X132920000Y-62000000D03*
D12*
X134190000Y-59460000D03*
D13*
X138000000Y-62000000D03*
D12*
X140540000Y-56920000D03*
D11*
X143080000Y-62000000D03*
%TD*%
%TO.C,S4*%
X94920000Y-43000000D03*
D12*
X96190000Y-40460000D03*
D13*
X100000000Y-43000000D03*
D12*
X102540000Y-37920000D03*
D11*
X105080000Y-43000000D03*
%TD*%
%TO.C,S17*%
X170920000Y-100000000D03*
D12*
X172190000Y-97460000D03*
D13*
X176000000Y-100000000D03*
D12*
X178540000Y-94920000D03*
D11*
X181080000Y-100000000D03*
%TD*%
%TO.C,S16*%
X151920000Y-40625000D03*
D12*
X153190000Y-38085000D03*
D13*
X157000000Y-40625000D03*
D12*
X159540000Y-35545000D03*
D11*
X162080000Y-40625000D03*
%TD*%
%TO.C,S1*%
X94920000Y-100000000D03*
D12*
X96190000Y-97460000D03*
D13*
X100000000Y-100000000D03*
D12*
X102540000Y-94920000D03*
D11*
X105080000Y-100000000D03*
%TD*%
%TO.C,S15*%
X151920000Y-59625000D03*
D12*
X153190000Y-57085000D03*
D13*
X157000000Y-59625000D03*
D12*
X159540000Y-54545000D03*
D11*
X162080000Y-59625000D03*
%TD*%
%TO.C,S25*%
X211764500Y-122639409D03*
D12*
X210199795Y-120269557D03*
D13*
X214304500Y-118240000D03*
D12*
X211175091Y-113500295D03*
D11*
X216844500Y-113840591D03*
%TD*%
%TO.C,S18*%
X170920000Y-81000000D03*
D12*
X172190000Y-78460000D03*
D13*
X176000000Y-81000000D03*
D12*
X178540000Y-75920000D03*
D11*
X181080000Y-81000000D03*
%TD*%
%TO.C,S24*%
X195310000Y-113139409D03*
D12*
X193745295Y-110769557D03*
D13*
X197850000Y-108740000D03*
D12*
X194720591Y-104000295D03*
D11*
X200390000Y-104340591D03*
%TD*%
%TO.C,S8*%
X113920000Y-40625000D03*
D12*
X115190000Y-38085000D03*
D13*
X119000000Y-40625000D03*
D12*
X121540000Y-35545000D03*
D11*
X124080000Y-40625000D03*
%TD*%
%TO.C,S22*%
X189920000Y-64375000D03*
D12*
X191190000Y-61835000D03*
D13*
X195000000Y-64375000D03*
D12*
X197540000Y-59295000D03*
D11*
X200080000Y-64375000D03*
%TD*%
%TO.C,S21*%
X189920000Y-83375000D03*
D12*
X191190000Y-80835000D03*
D13*
X195000000Y-83375000D03*
D12*
X197540000Y-78295000D03*
D11*
X200080000Y-83375000D03*
%TD*%
%TO.C,S12*%
X132920000Y-43000000D03*
D12*
X134190000Y-40460000D03*
D13*
X138000000Y-43000000D03*
D12*
X140540000Y-37920000D03*
D11*
X143080000Y-43000000D03*
%TD*%
%TO.C,S5*%
X113920000Y-97625000D03*
D12*
X115190000Y-95085000D03*
D13*
X119000000Y-97625000D03*
D12*
X121540000Y-92545000D03*
D11*
X124080000Y-97625000D03*
%TD*%
%TO.C,S14*%
X151920000Y-78625000D03*
D12*
X153190000Y-76085000D03*
D13*
X157000000Y-78625000D03*
D12*
X159540000Y-73545000D03*
D11*
X162080000Y-78625000D03*
%TD*%
%TO.C,S2*%
X94920000Y-81000000D03*
D12*
X96190000Y-78460000D03*
D13*
X100000000Y-81000000D03*
D12*
X102540000Y-75920000D03*
D11*
X105080000Y-81000000D03*
%TD*%
%TO.C,S9*%
X132920000Y-100000000D03*
D12*
X134190000Y-97460000D03*
D13*
X138000000Y-100000000D03*
D12*
X140540000Y-94920000D03*
D11*
X143080000Y-100000000D03*
%TD*%
%TO.C,S3*%
X94920000Y-62000000D03*
D12*
X96190000Y-59460000D03*
D13*
X100000000Y-62000000D03*
D12*
X102540000Y-56920000D03*
D11*
X105080000Y-62000000D03*
%TD*%
%TO.C,S7*%
X113920000Y-59625000D03*
D12*
X115190000Y-57085000D03*
D13*
X119000000Y-59625000D03*
D12*
X121540000Y-54545000D03*
D11*
X124080000Y-59625000D03*
%TD*%
D10*
%TO.C,D43*%
X168600000Y-81325000D03*
X168600000Y-78025000D03*
%TD*%
M02*
