%TF.GenerationSoftware,KiCad,Pcbnew,8.0.8+1*%
%TF.CreationDate,2025-06-17T15:49:18+00:00*%
%TF.ProjectId,backplate,6261636b-706c-4617-9465-2e6b69636164,0.2*%
%TF.SameCoordinates,Original*%
%TF.FileFunction,Drillmap*%
%TF.FilePolarity,Positive*%
%FSLAX45Y45*%
G04 Gerber Fmt 4.5, Leading zero omitted, Abs format (unit mm)*
G04 Created by KiCad (PCBNEW 8.0.8+1) date 2025-06-17 15:49:18*
%MOMM*%
%LPD*%
G01*
G04 APERTURE LIST*
%ADD10C,0.150000*%
%ADD11C,0.200000*%
%ADD12C,0.220000*%
G04 APERTURE END LIST*
D10*
X9108199Y-10874001D02*
X9108001Y-3449001D01*
X9158001Y-3399000D02*
X10958000Y-3399000D01*
X11008000Y-3349000D02*
X11008000Y-3223800D01*
X11058000Y-3173800D02*
X12758200Y-3173800D01*
X12808200Y-3223800D02*
X12808200Y-3349000D01*
X12858200Y-3399000D02*
X14758000Y-3399000D01*
X14808000Y-3349000D02*
X14808000Y-3223800D01*
X14858000Y-3173800D02*
X16558200Y-3173800D01*
X16608200Y-3223800D02*
X16608200Y-3349000D01*
X16658200Y-3399000D02*
X18458200Y-3399000D01*
X18508200Y-3449000D02*
X18508200Y-3598800D01*
X18558200Y-3648800D02*
X20358222Y-3648800D01*
X20408222Y-3698778D02*
X20408278Y-3824022D01*
X23119800Y-10734660D02*
X21553171Y-13431110D01*
X18316542Y-11620019D02*
X21484938Y-13449293D01*
X18311391Y-11617429D02*
X16717699Y-10928109D01*
X9158199Y-10924000D02*
X16697850Y-10924000D01*
X20458278Y-3874000D02*
X23101300Y-3874000D01*
X23151300Y-3924000D02*
X23151300Y-10666703D01*
X23144601Y-10691703D02*
X23119800Y-10734660D01*
X9108001Y-3449001D02*
G75*
G02*
X9158001Y-3399001I49999J1D01*
G01*
X11008000Y-3349000D02*
G75*
G02*
X10958000Y-3399000I-50000J0D01*
G01*
X11008000Y-3223800D02*
G75*
G02*
X11058000Y-3173800I50000J0D01*
G01*
X12758200Y-3173800D02*
G75*
G02*
X12808200Y-3223800I0J-50000D01*
G01*
X12858200Y-3399000D02*
G75*
G02*
X12808200Y-3349000I0J50000D01*
G01*
X14808000Y-3349000D02*
G75*
G02*
X14758000Y-3399000I-50000J0D01*
G01*
X14808000Y-3223800D02*
G75*
G02*
X14858000Y-3173800I50000J0D01*
G01*
X16558200Y-3173800D02*
G75*
G02*
X16608200Y-3223800I0J-50000D01*
G01*
X16658200Y-3399000D02*
G75*
G02*
X16608200Y-3349000I0J50000D01*
G01*
X18458200Y-3399000D02*
G75*
G02*
X18508200Y-3449000I0J-50000D01*
G01*
X18558200Y-3648800D02*
G75*
G02*
X18508200Y-3598800I0J50000D01*
G01*
X20358222Y-3648800D02*
G75*
G02*
X20408220Y-3698778I-2J-50000D01*
G01*
X20458278Y-3874000D02*
G75*
G02*
X20408280Y-3824022I2J50000D01*
G01*
X23101300Y-3874000D02*
G75*
G02*
X23151300Y-3924000I0J-50000D01*
G01*
X23151300Y-10666703D02*
G75*
G02*
X23144600Y-10691702I-50000J3D01*
G01*
X21553171Y-13431110D02*
G75*
G02*
X21484940Y-13449290I-43231J25120D01*
G01*
X18311391Y-11617429D02*
G75*
G02*
X18316542Y-11620019I-19851J-45891D01*
G01*
X16697850Y-10924000D02*
G75*
G02*
X16717699Y-10928109I0J-50000D01*
G01*
X9158199Y-10924000D02*
G75*
G02*
X9108200Y-10874001I1J50000D01*
G01*
X11060000Y-5012500D02*
G75*
G02*
X10840000Y-5012500I-110000J0D01*
G01*
X10840000Y-5012500D02*
G75*
G02*
X11060000Y-5012500I110000J0D01*
G01*
X11060000Y-8812500D02*
G75*
G02*
X10840000Y-8812500I-110000J0D01*
G01*
X10840000Y-8812500D02*
G75*
G02*
X11060000Y-8812500I110000J0D01*
G01*
X18656800Y-5373600D02*
G75*
G02*
X18436800Y-5373600I-110000J0D01*
G01*
X18436800Y-5373600D02*
G75*
G02*
X18656800Y-5373600I110000J0D01*
G01*
X14860000Y-6912500D02*
G75*
G02*
X14640000Y-6912500I-110000J0D01*
G01*
X14640000Y-6912500D02*
G75*
G02*
X14860000Y-6912500I110000J0D01*
G01*
X16756800Y-8926100D02*
G75*
G02*
X16536800Y-8926100I-110000J0D01*
G01*
X16536800Y-8926100D02*
G75*
G02*
X16756800Y-8926100I110000J0D01*
G01*
X21192724Y-10526276D02*
G75*
G02*
X20972724Y-10526276I-110000J0D01*
G01*
X20972724Y-10526276D02*
G75*
G02*
X21192724Y-10526276I110000J0D01*
G01*
X20242724Y-12171724D02*
G75*
G02*
X20022724Y-12171724I-110000J0D01*
G01*
X20022724Y-12171724D02*
G75*
G02*
X20242724Y-12171724I110000J0D01*
G01*
D11*
D12*
X10840000Y-4902500D02*
X11060000Y-5122500D01*
X11060000Y-4902500D02*
X10840000Y-5122500D01*
X10840000Y-8702500D02*
X11060000Y-8922500D01*
X11060000Y-8702500D02*
X10840000Y-8922500D01*
X14640000Y-6802500D02*
X14860000Y-7022500D01*
X14860000Y-6802500D02*
X14640000Y-7022500D01*
X16536800Y-8816100D02*
X16756800Y-9036100D01*
X16756800Y-8816100D02*
X16536800Y-9036100D01*
X18436800Y-5263600D02*
X18656800Y-5483600D01*
X18656800Y-5263600D02*
X18436800Y-5483600D01*
X20022724Y-12061724D02*
X20242724Y-12281724D01*
X20242724Y-12061724D02*
X20022724Y-12281724D01*
X20972724Y-10416276D02*
X21192724Y-10636276D01*
X21192724Y-10416276D02*
X20972724Y-10636276D01*
D11*
X9361278Y-13774973D02*
X9361278Y-13574973D01*
X9361278Y-13574973D02*
X9408897Y-13574973D01*
X9408897Y-13574973D02*
X9437469Y-13584497D01*
X9437469Y-13584497D02*
X9456516Y-13603545D01*
X9456516Y-13603545D02*
X9466040Y-13622592D01*
X9466040Y-13622592D02*
X9475564Y-13660687D01*
X9475564Y-13660687D02*
X9475564Y-13689259D01*
X9475564Y-13689259D02*
X9466040Y-13727354D01*
X9466040Y-13727354D02*
X9456516Y-13746402D01*
X9456516Y-13746402D02*
X9437469Y-13765449D01*
X9437469Y-13765449D02*
X9408897Y-13774973D01*
X9408897Y-13774973D02*
X9361278Y-13774973D01*
X9561278Y-13774973D02*
X9561278Y-13641640D01*
X9561278Y-13679735D02*
X9570802Y-13660687D01*
X9570802Y-13660687D02*
X9580326Y-13651164D01*
X9580326Y-13651164D02*
X9599373Y-13641640D01*
X9599373Y-13641640D02*
X9618421Y-13641640D01*
X9685088Y-13774973D02*
X9685088Y-13641640D01*
X9685088Y-13574973D02*
X9675564Y-13584497D01*
X9675564Y-13584497D02*
X9685088Y-13594021D01*
X9685088Y-13594021D02*
X9694611Y-13584497D01*
X9694611Y-13584497D02*
X9685088Y-13574973D01*
X9685088Y-13574973D02*
X9685088Y-13594021D01*
X9808897Y-13774973D02*
X9789850Y-13765449D01*
X9789850Y-13765449D02*
X9780326Y-13746402D01*
X9780326Y-13746402D02*
X9780326Y-13574973D01*
X9913659Y-13774973D02*
X9894611Y-13765449D01*
X9894611Y-13765449D02*
X9885088Y-13746402D01*
X9885088Y-13746402D02*
X9885088Y-13574973D01*
X10142231Y-13774973D02*
X10142231Y-13574973D01*
X10142231Y-13574973D02*
X10208897Y-13717830D01*
X10208897Y-13717830D02*
X10275564Y-13574973D01*
X10275564Y-13574973D02*
X10275564Y-13774973D01*
X10456516Y-13774973D02*
X10456516Y-13670211D01*
X10456516Y-13670211D02*
X10446992Y-13651164D01*
X10446992Y-13651164D02*
X10427945Y-13641640D01*
X10427945Y-13641640D02*
X10389850Y-13641640D01*
X10389850Y-13641640D02*
X10370802Y-13651164D01*
X10456516Y-13765449D02*
X10437469Y-13774973D01*
X10437469Y-13774973D02*
X10389850Y-13774973D01*
X10389850Y-13774973D02*
X10370802Y-13765449D01*
X10370802Y-13765449D02*
X10361278Y-13746402D01*
X10361278Y-13746402D02*
X10361278Y-13727354D01*
X10361278Y-13727354D02*
X10370802Y-13708307D01*
X10370802Y-13708307D02*
X10389850Y-13698783D01*
X10389850Y-13698783D02*
X10437469Y-13698783D01*
X10437469Y-13698783D02*
X10456516Y-13689259D01*
X10551754Y-13641640D02*
X10551754Y-13841640D01*
X10551754Y-13651164D02*
X10570802Y-13641640D01*
X10570802Y-13641640D02*
X10608897Y-13641640D01*
X10608897Y-13641640D02*
X10627945Y-13651164D01*
X10627945Y-13651164D02*
X10637469Y-13660687D01*
X10637469Y-13660687D02*
X10646992Y-13679735D01*
X10646992Y-13679735D02*
X10646992Y-13736878D01*
X10646992Y-13736878D02*
X10637469Y-13755926D01*
X10637469Y-13755926D02*
X10627945Y-13765449D01*
X10627945Y-13765449D02*
X10608897Y-13774973D01*
X10608897Y-13774973D02*
X10570802Y-13774973D01*
X10570802Y-13774973D02*
X10551754Y-13765449D01*
X10732707Y-13755926D02*
X10742231Y-13765449D01*
X10742231Y-13765449D02*
X10732707Y-13774973D01*
X10732707Y-13774973D02*
X10723183Y-13765449D01*
X10723183Y-13765449D02*
X10732707Y-13755926D01*
X10732707Y-13755926D02*
X10732707Y-13774973D01*
X10732707Y-13651164D02*
X10742231Y-13660687D01*
X10742231Y-13660687D02*
X10732707Y-13670211D01*
X10732707Y-13670211D02*
X10723183Y-13660687D01*
X10723183Y-13660687D02*
X10732707Y-13651164D01*
X10732707Y-13651164D02*
X10732707Y-13670211D01*
X8900501Y-14003489D02*
X9100501Y-14203489D01*
X9100501Y-14003489D02*
X8900501Y-14203489D01*
X9351754Y-14014021D02*
X9361278Y-14004497D01*
X9361278Y-14004497D02*
X9380326Y-13994973D01*
X9380326Y-13994973D02*
X9427945Y-13994973D01*
X9427945Y-13994973D02*
X9446992Y-14004497D01*
X9446992Y-14004497D02*
X9456516Y-14014021D01*
X9456516Y-14014021D02*
X9466040Y-14033068D01*
X9466040Y-14033068D02*
X9466040Y-14052116D01*
X9466040Y-14052116D02*
X9456516Y-14080687D01*
X9456516Y-14080687D02*
X9342231Y-14194973D01*
X9342231Y-14194973D02*
X9466040Y-14194973D01*
X9551754Y-14175926D02*
X9561278Y-14185449D01*
X9561278Y-14185449D02*
X9551754Y-14194973D01*
X9551754Y-14194973D02*
X9542231Y-14185449D01*
X9542231Y-14185449D02*
X9551754Y-14175926D01*
X9551754Y-14175926D02*
X9551754Y-14194973D01*
X9637469Y-14014021D02*
X9646992Y-14004497D01*
X9646992Y-14004497D02*
X9666040Y-13994973D01*
X9666040Y-13994973D02*
X9713659Y-13994973D01*
X9713659Y-13994973D02*
X9732707Y-14004497D01*
X9732707Y-14004497D02*
X9742231Y-14014021D01*
X9742231Y-14014021D02*
X9751754Y-14033068D01*
X9751754Y-14033068D02*
X9751754Y-14052116D01*
X9751754Y-14052116D02*
X9742231Y-14080687D01*
X9742231Y-14080687D02*
X9627945Y-14194973D01*
X9627945Y-14194973D02*
X9751754Y-14194973D01*
X9875564Y-13994973D02*
X9894612Y-13994973D01*
X9894612Y-13994973D02*
X9913659Y-14004497D01*
X9913659Y-14004497D02*
X9923183Y-14014021D01*
X9923183Y-14014021D02*
X9932707Y-14033068D01*
X9932707Y-14033068D02*
X9942231Y-14071164D01*
X9942231Y-14071164D02*
X9942231Y-14118783D01*
X9942231Y-14118783D02*
X9932707Y-14156878D01*
X9932707Y-14156878D02*
X9923183Y-14175926D01*
X9923183Y-14175926D02*
X9913659Y-14185449D01*
X9913659Y-14185449D02*
X9894612Y-14194973D01*
X9894612Y-14194973D02*
X9875564Y-14194973D01*
X9875564Y-14194973D02*
X9856516Y-14185449D01*
X9856516Y-14185449D02*
X9846992Y-14175926D01*
X9846992Y-14175926D02*
X9837469Y-14156878D01*
X9837469Y-14156878D02*
X9827945Y-14118783D01*
X9827945Y-14118783D02*
X9827945Y-14071164D01*
X9827945Y-14071164D02*
X9837469Y-14033068D01*
X9837469Y-14033068D02*
X9846992Y-14014021D01*
X9846992Y-14014021D02*
X9856516Y-14004497D01*
X9856516Y-14004497D02*
X9875564Y-13994973D01*
X10066040Y-13994973D02*
X10085088Y-13994973D01*
X10085088Y-13994973D02*
X10104135Y-14004497D01*
X10104135Y-14004497D02*
X10113659Y-14014021D01*
X10113659Y-14014021D02*
X10123183Y-14033068D01*
X10123183Y-14033068D02*
X10132707Y-14071164D01*
X10132707Y-14071164D02*
X10132707Y-14118783D01*
X10132707Y-14118783D02*
X10123183Y-14156878D01*
X10123183Y-14156878D02*
X10113659Y-14175926D01*
X10113659Y-14175926D02*
X10104135Y-14185449D01*
X10104135Y-14185449D02*
X10085088Y-14194973D01*
X10085088Y-14194973D02*
X10066040Y-14194973D01*
X10066040Y-14194973D02*
X10046992Y-14185449D01*
X10046992Y-14185449D02*
X10037469Y-14175926D01*
X10037469Y-14175926D02*
X10027945Y-14156878D01*
X10027945Y-14156878D02*
X10018421Y-14118783D01*
X10018421Y-14118783D02*
X10018421Y-14071164D01*
X10018421Y-14071164D02*
X10027945Y-14033068D01*
X10027945Y-14033068D02*
X10037469Y-14014021D01*
X10037469Y-14014021D02*
X10046992Y-14004497D01*
X10046992Y-14004497D02*
X10066040Y-13994973D01*
X10218421Y-14194973D02*
X10218421Y-14061640D01*
X10218421Y-14080687D02*
X10227945Y-14071164D01*
X10227945Y-14071164D02*
X10246992Y-14061640D01*
X10246992Y-14061640D02*
X10275564Y-14061640D01*
X10275564Y-14061640D02*
X10294612Y-14071164D01*
X10294612Y-14071164D02*
X10304135Y-14090211D01*
X10304135Y-14090211D02*
X10304135Y-14194973D01*
X10304135Y-14090211D02*
X10313659Y-14071164D01*
X10313659Y-14071164D02*
X10332707Y-14061640D01*
X10332707Y-14061640D02*
X10361278Y-14061640D01*
X10361278Y-14061640D02*
X10380326Y-14071164D01*
X10380326Y-14071164D02*
X10389850Y-14090211D01*
X10389850Y-14090211D02*
X10389850Y-14194973D01*
X10485088Y-14194973D02*
X10485088Y-14061640D01*
X10485088Y-14080687D02*
X10494612Y-14071164D01*
X10494612Y-14071164D02*
X10513659Y-14061640D01*
X10513659Y-14061640D02*
X10542231Y-14061640D01*
X10542231Y-14061640D02*
X10561278Y-14071164D01*
X10561278Y-14071164D02*
X10570802Y-14090211D01*
X10570802Y-14090211D02*
X10570802Y-14194973D01*
X10570802Y-14090211D02*
X10580326Y-14071164D01*
X10580326Y-14071164D02*
X10599373Y-14061640D01*
X10599373Y-14061640D02*
X10627945Y-14061640D01*
X10627945Y-14061640D02*
X10646993Y-14071164D01*
X10646993Y-14071164D02*
X10656516Y-14090211D01*
X10656516Y-14090211D02*
X10656516Y-14194973D01*
X11046993Y-13985449D02*
X10875564Y-14242592D01*
X11304135Y-13994973D02*
X11323183Y-13994973D01*
X11323183Y-13994973D02*
X11342231Y-14004497D01*
X11342231Y-14004497D02*
X11351754Y-14014021D01*
X11351754Y-14014021D02*
X11361278Y-14033068D01*
X11361278Y-14033068D02*
X11370802Y-14071164D01*
X11370802Y-14071164D02*
X11370802Y-14118783D01*
X11370802Y-14118783D02*
X11361278Y-14156878D01*
X11361278Y-14156878D02*
X11351754Y-14175926D01*
X11351754Y-14175926D02*
X11342231Y-14185449D01*
X11342231Y-14185449D02*
X11323183Y-14194973D01*
X11323183Y-14194973D02*
X11304135Y-14194973D01*
X11304135Y-14194973D02*
X11285088Y-14185449D01*
X11285088Y-14185449D02*
X11275564Y-14175926D01*
X11275564Y-14175926D02*
X11266040Y-14156878D01*
X11266040Y-14156878D02*
X11256516Y-14118783D01*
X11256516Y-14118783D02*
X11256516Y-14071164D01*
X11256516Y-14071164D02*
X11266040Y-14033068D01*
X11266040Y-14033068D02*
X11275564Y-14014021D01*
X11275564Y-14014021D02*
X11285088Y-14004497D01*
X11285088Y-14004497D02*
X11304135Y-13994973D01*
X11456516Y-14175926D02*
X11466040Y-14185449D01*
X11466040Y-14185449D02*
X11456516Y-14194973D01*
X11456516Y-14194973D02*
X11446993Y-14185449D01*
X11446993Y-14185449D02*
X11456516Y-14175926D01*
X11456516Y-14175926D02*
X11456516Y-14194973D01*
X11589850Y-13994973D02*
X11608897Y-13994973D01*
X11608897Y-13994973D02*
X11627945Y-14004497D01*
X11627945Y-14004497D02*
X11637469Y-14014021D01*
X11637469Y-14014021D02*
X11646993Y-14033068D01*
X11646993Y-14033068D02*
X11656516Y-14071164D01*
X11656516Y-14071164D02*
X11656516Y-14118783D01*
X11656516Y-14118783D02*
X11646993Y-14156878D01*
X11646993Y-14156878D02*
X11637469Y-14175926D01*
X11637469Y-14175926D02*
X11627945Y-14185449D01*
X11627945Y-14185449D02*
X11608897Y-14194973D01*
X11608897Y-14194973D02*
X11589850Y-14194973D01*
X11589850Y-14194973D02*
X11570802Y-14185449D01*
X11570802Y-14185449D02*
X11561278Y-14175926D01*
X11561278Y-14175926D02*
X11551754Y-14156878D01*
X11551754Y-14156878D02*
X11542231Y-14118783D01*
X11542231Y-14118783D02*
X11542231Y-14071164D01*
X11542231Y-14071164D02*
X11551754Y-14033068D01*
X11551754Y-14033068D02*
X11561278Y-14014021D01*
X11561278Y-14014021D02*
X11570802Y-14004497D01*
X11570802Y-14004497D02*
X11589850Y-13994973D01*
X11770802Y-14080687D02*
X11751754Y-14071164D01*
X11751754Y-14071164D02*
X11742231Y-14061640D01*
X11742231Y-14061640D02*
X11732707Y-14042592D01*
X11732707Y-14042592D02*
X11732707Y-14033068D01*
X11732707Y-14033068D02*
X11742231Y-14014021D01*
X11742231Y-14014021D02*
X11751754Y-14004497D01*
X11751754Y-14004497D02*
X11770802Y-13994973D01*
X11770802Y-13994973D02*
X11808897Y-13994973D01*
X11808897Y-13994973D02*
X11827945Y-14004497D01*
X11827945Y-14004497D02*
X11837469Y-14014021D01*
X11837469Y-14014021D02*
X11846993Y-14033068D01*
X11846993Y-14033068D02*
X11846993Y-14042592D01*
X11846993Y-14042592D02*
X11837469Y-14061640D01*
X11837469Y-14061640D02*
X11827945Y-14071164D01*
X11827945Y-14071164D02*
X11808897Y-14080687D01*
X11808897Y-14080687D02*
X11770802Y-14080687D01*
X11770802Y-14080687D02*
X11751754Y-14090211D01*
X11751754Y-14090211D02*
X11742231Y-14099735D01*
X11742231Y-14099735D02*
X11732707Y-14118783D01*
X11732707Y-14118783D02*
X11732707Y-14156878D01*
X11732707Y-14156878D02*
X11742231Y-14175926D01*
X11742231Y-14175926D02*
X11751754Y-14185449D01*
X11751754Y-14185449D02*
X11770802Y-14194973D01*
X11770802Y-14194973D02*
X11808897Y-14194973D01*
X11808897Y-14194973D02*
X11827945Y-14185449D01*
X11827945Y-14185449D02*
X11837469Y-14175926D01*
X11837469Y-14175926D02*
X11846993Y-14156878D01*
X11846993Y-14156878D02*
X11846993Y-14118783D01*
X11846993Y-14118783D02*
X11837469Y-14099735D01*
X11837469Y-14099735D02*
X11827945Y-14090211D01*
X11827945Y-14090211D02*
X11808897Y-14080687D01*
X12018421Y-13994973D02*
X11980326Y-13994973D01*
X11980326Y-13994973D02*
X11961278Y-14004497D01*
X11961278Y-14004497D02*
X11951754Y-14014021D01*
X11951754Y-14014021D02*
X11932707Y-14042592D01*
X11932707Y-14042592D02*
X11923183Y-14080687D01*
X11923183Y-14080687D02*
X11923183Y-14156878D01*
X11923183Y-14156878D02*
X11932707Y-14175926D01*
X11932707Y-14175926D02*
X11942231Y-14185449D01*
X11942231Y-14185449D02*
X11961278Y-14194973D01*
X11961278Y-14194973D02*
X11999374Y-14194973D01*
X11999374Y-14194973D02*
X12018421Y-14185449D01*
X12018421Y-14185449D02*
X12027945Y-14175926D01*
X12027945Y-14175926D02*
X12037469Y-14156878D01*
X12037469Y-14156878D02*
X12037469Y-14109259D01*
X12037469Y-14109259D02*
X12027945Y-14090211D01*
X12027945Y-14090211D02*
X12018421Y-14080687D01*
X12018421Y-14080687D02*
X11999374Y-14071164D01*
X11999374Y-14071164D02*
X11961278Y-14071164D01*
X11961278Y-14071164D02*
X11942231Y-14080687D01*
X11942231Y-14080687D02*
X11932707Y-14090211D01*
X11932707Y-14090211D02*
X11923183Y-14109259D01*
X12208897Y-13994973D02*
X12170802Y-13994973D01*
X12170802Y-13994973D02*
X12151754Y-14004497D01*
X12151754Y-14004497D02*
X12142231Y-14014021D01*
X12142231Y-14014021D02*
X12123183Y-14042592D01*
X12123183Y-14042592D02*
X12113659Y-14080687D01*
X12113659Y-14080687D02*
X12113659Y-14156878D01*
X12113659Y-14156878D02*
X12123183Y-14175926D01*
X12123183Y-14175926D02*
X12132707Y-14185449D01*
X12132707Y-14185449D02*
X12151754Y-14194973D01*
X12151754Y-14194973D02*
X12189850Y-14194973D01*
X12189850Y-14194973D02*
X12208897Y-14185449D01*
X12208897Y-14185449D02*
X12218421Y-14175926D01*
X12218421Y-14175926D02*
X12227945Y-14156878D01*
X12227945Y-14156878D02*
X12227945Y-14109259D01*
X12227945Y-14109259D02*
X12218421Y-14090211D01*
X12218421Y-14090211D02*
X12208897Y-14080687D01*
X12208897Y-14080687D02*
X12189850Y-14071164D01*
X12189850Y-14071164D02*
X12151754Y-14071164D01*
X12151754Y-14071164D02*
X12132707Y-14080687D01*
X12132707Y-14080687D02*
X12123183Y-14090211D01*
X12123183Y-14090211D02*
X12113659Y-14109259D01*
X12304135Y-13994973D02*
X12304135Y-14033068D01*
X12380326Y-13994973D02*
X12380326Y-14033068D01*
X12675564Y-14271164D02*
X12666040Y-14261640D01*
X12666040Y-14261640D02*
X12646993Y-14233068D01*
X12646993Y-14233068D02*
X12637469Y-14214021D01*
X12637469Y-14214021D02*
X12627945Y-14185449D01*
X12627945Y-14185449D02*
X12618421Y-14137830D01*
X12618421Y-14137830D02*
X12618421Y-14099735D01*
X12618421Y-14099735D02*
X12627945Y-14052116D01*
X12627945Y-14052116D02*
X12637469Y-14023545D01*
X12637469Y-14023545D02*
X12646993Y-14004497D01*
X12646993Y-14004497D02*
X12666040Y-13975926D01*
X12666040Y-13975926D02*
X12675564Y-13966402D01*
X12732707Y-13994973D02*
X12866040Y-13994973D01*
X12866040Y-13994973D02*
X12780326Y-14194973D01*
X13094612Y-14194973D02*
X13094612Y-13994973D01*
X13180326Y-14194973D02*
X13180326Y-14090211D01*
X13180326Y-14090211D02*
X13170802Y-14071164D01*
X13170802Y-14071164D02*
X13151755Y-14061640D01*
X13151755Y-14061640D02*
X13123183Y-14061640D01*
X13123183Y-14061640D02*
X13104136Y-14071164D01*
X13104136Y-14071164D02*
X13094612Y-14080687D01*
X13304136Y-14194973D02*
X13285088Y-14185449D01*
X13285088Y-14185449D02*
X13275564Y-14175926D01*
X13275564Y-14175926D02*
X13266040Y-14156878D01*
X13266040Y-14156878D02*
X13266040Y-14099735D01*
X13266040Y-14099735D02*
X13275564Y-14080687D01*
X13275564Y-14080687D02*
X13285088Y-14071164D01*
X13285088Y-14071164D02*
X13304136Y-14061640D01*
X13304136Y-14061640D02*
X13332707Y-14061640D01*
X13332707Y-14061640D02*
X13351755Y-14071164D01*
X13351755Y-14071164D02*
X13361278Y-14080687D01*
X13361278Y-14080687D02*
X13370802Y-14099735D01*
X13370802Y-14099735D02*
X13370802Y-14156878D01*
X13370802Y-14156878D02*
X13361278Y-14175926D01*
X13361278Y-14175926D02*
X13351755Y-14185449D01*
X13351755Y-14185449D02*
X13332707Y-14194973D01*
X13332707Y-14194973D02*
X13304136Y-14194973D01*
X13485088Y-14194973D02*
X13466040Y-14185449D01*
X13466040Y-14185449D02*
X13456517Y-14166402D01*
X13456517Y-14166402D02*
X13456517Y-13994973D01*
X13637469Y-14185449D02*
X13618421Y-14194973D01*
X13618421Y-14194973D02*
X13580326Y-14194973D01*
X13580326Y-14194973D02*
X13561278Y-14185449D01*
X13561278Y-14185449D02*
X13551755Y-14166402D01*
X13551755Y-14166402D02*
X13551755Y-14090211D01*
X13551755Y-14090211D02*
X13561278Y-14071164D01*
X13561278Y-14071164D02*
X13580326Y-14061640D01*
X13580326Y-14061640D02*
X13618421Y-14061640D01*
X13618421Y-14061640D02*
X13637469Y-14071164D01*
X13637469Y-14071164D02*
X13646993Y-14090211D01*
X13646993Y-14090211D02*
X13646993Y-14109259D01*
X13646993Y-14109259D02*
X13551755Y-14128307D01*
X13723183Y-14185449D02*
X13742231Y-14194973D01*
X13742231Y-14194973D02*
X13780326Y-14194973D01*
X13780326Y-14194973D02*
X13799374Y-14185449D01*
X13799374Y-14185449D02*
X13808898Y-14166402D01*
X13808898Y-14166402D02*
X13808898Y-14156878D01*
X13808898Y-14156878D02*
X13799374Y-14137830D01*
X13799374Y-14137830D02*
X13780326Y-14128307D01*
X13780326Y-14128307D02*
X13751755Y-14128307D01*
X13751755Y-14128307D02*
X13732707Y-14118783D01*
X13732707Y-14118783D02*
X13723183Y-14099735D01*
X13723183Y-14099735D02*
X13723183Y-14090211D01*
X13723183Y-14090211D02*
X13732707Y-14071164D01*
X13732707Y-14071164D02*
X13751755Y-14061640D01*
X13751755Y-14061640D02*
X13780326Y-14061640D01*
X13780326Y-14061640D02*
X13799374Y-14071164D01*
X13875564Y-14271164D02*
X13885088Y-14261640D01*
X13885088Y-14261640D02*
X13904136Y-14233068D01*
X13904136Y-14233068D02*
X13913659Y-14214021D01*
X13913659Y-14214021D02*
X13923183Y-14185449D01*
X13923183Y-14185449D02*
X13932707Y-14137830D01*
X13932707Y-14137830D02*
X13932707Y-14099735D01*
X13932707Y-14099735D02*
X13923183Y-14052116D01*
X13923183Y-14052116D02*
X13913659Y-14023545D01*
X13913659Y-14023545D02*
X13904136Y-14004497D01*
X13904136Y-14004497D02*
X13885088Y-13975926D01*
X13885088Y-13975926D02*
X13875564Y-13966402D01*
X14237469Y-14271164D02*
X14227945Y-14261640D01*
X14227945Y-14261640D02*
X14208898Y-14233068D01*
X14208898Y-14233068D02*
X14199374Y-14214021D01*
X14199374Y-14214021D02*
X14189850Y-14185449D01*
X14189850Y-14185449D02*
X14180326Y-14137830D01*
X14180326Y-14137830D02*
X14180326Y-14099735D01*
X14180326Y-14099735D02*
X14189850Y-14052116D01*
X14189850Y-14052116D02*
X14199374Y-14023545D01*
X14199374Y-14023545D02*
X14208898Y-14004497D01*
X14208898Y-14004497D02*
X14227945Y-13975926D01*
X14227945Y-13975926D02*
X14237469Y-13966402D01*
X14313659Y-14061640D02*
X14313659Y-14194973D01*
X14313659Y-14080687D02*
X14323183Y-14071164D01*
X14323183Y-14071164D02*
X14342231Y-14061640D01*
X14342231Y-14061640D02*
X14370802Y-14061640D01*
X14370802Y-14061640D02*
X14389850Y-14071164D01*
X14389850Y-14071164D02*
X14399374Y-14090211D01*
X14399374Y-14090211D02*
X14399374Y-14194973D01*
X14523183Y-14194973D02*
X14504136Y-14185449D01*
X14504136Y-14185449D02*
X14494612Y-14175926D01*
X14494612Y-14175926D02*
X14485088Y-14156878D01*
X14485088Y-14156878D02*
X14485088Y-14099735D01*
X14485088Y-14099735D02*
X14494612Y-14080687D01*
X14494612Y-14080687D02*
X14504136Y-14071164D01*
X14504136Y-14071164D02*
X14523183Y-14061640D01*
X14523183Y-14061640D02*
X14551755Y-14061640D01*
X14551755Y-14061640D02*
X14570802Y-14071164D01*
X14570802Y-14071164D02*
X14580326Y-14080687D01*
X14580326Y-14080687D02*
X14589850Y-14099735D01*
X14589850Y-14099735D02*
X14589850Y-14156878D01*
X14589850Y-14156878D02*
X14580326Y-14175926D01*
X14580326Y-14175926D02*
X14570802Y-14185449D01*
X14570802Y-14185449D02*
X14551755Y-14194973D01*
X14551755Y-14194973D02*
X14523183Y-14194973D01*
X14646993Y-14061640D02*
X14723183Y-14061640D01*
X14675564Y-13994973D02*
X14675564Y-14166402D01*
X14675564Y-14166402D02*
X14685088Y-14185449D01*
X14685088Y-14185449D02*
X14704136Y-14194973D01*
X14704136Y-14194973D02*
X14723183Y-14194973D01*
X14942231Y-14061640D02*
X14942231Y-14261640D01*
X14942231Y-14071164D02*
X14961279Y-14061640D01*
X14961279Y-14061640D02*
X14999374Y-14061640D01*
X14999374Y-14061640D02*
X15018421Y-14071164D01*
X15018421Y-14071164D02*
X15027945Y-14080687D01*
X15027945Y-14080687D02*
X15037469Y-14099735D01*
X15037469Y-14099735D02*
X15037469Y-14156878D01*
X15037469Y-14156878D02*
X15027945Y-14175926D01*
X15027945Y-14175926D02*
X15018421Y-14185449D01*
X15018421Y-14185449D02*
X14999374Y-14194973D01*
X14999374Y-14194973D02*
X14961279Y-14194973D01*
X14961279Y-14194973D02*
X14942231Y-14185449D01*
X15151755Y-14194973D02*
X15132707Y-14185449D01*
X15132707Y-14185449D02*
X15123183Y-14166402D01*
X15123183Y-14166402D02*
X15123183Y-13994973D01*
X15313660Y-14194973D02*
X15313660Y-14090211D01*
X15313660Y-14090211D02*
X15304136Y-14071164D01*
X15304136Y-14071164D02*
X15285088Y-14061640D01*
X15285088Y-14061640D02*
X15246993Y-14061640D01*
X15246993Y-14061640D02*
X15227945Y-14071164D01*
X15313660Y-14185449D02*
X15294612Y-14194973D01*
X15294612Y-14194973D02*
X15246993Y-14194973D01*
X15246993Y-14194973D02*
X15227945Y-14185449D01*
X15227945Y-14185449D02*
X15218421Y-14166402D01*
X15218421Y-14166402D02*
X15218421Y-14147354D01*
X15218421Y-14147354D02*
X15227945Y-14128307D01*
X15227945Y-14128307D02*
X15246993Y-14118783D01*
X15246993Y-14118783D02*
X15294612Y-14118783D01*
X15294612Y-14118783D02*
X15313660Y-14109259D01*
X15380326Y-14061640D02*
X15456517Y-14061640D01*
X15408898Y-13994973D02*
X15408898Y-14166402D01*
X15408898Y-14166402D02*
X15418421Y-14185449D01*
X15418421Y-14185449D02*
X15437469Y-14194973D01*
X15437469Y-14194973D02*
X15456517Y-14194973D01*
X15599374Y-14185449D02*
X15580326Y-14194973D01*
X15580326Y-14194973D02*
X15542231Y-14194973D01*
X15542231Y-14194973D02*
X15523183Y-14185449D01*
X15523183Y-14185449D02*
X15513660Y-14166402D01*
X15513660Y-14166402D02*
X15513660Y-14090211D01*
X15513660Y-14090211D02*
X15523183Y-14071164D01*
X15523183Y-14071164D02*
X15542231Y-14061640D01*
X15542231Y-14061640D02*
X15580326Y-14061640D01*
X15580326Y-14061640D02*
X15599374Y-14071164D01*
X15599374Y-14071164D02*
X15608898Y-14090211D01*
X15608898Y-14090211D02*
X15608898Y-14109259D01*
X15608898Y-14109259D02*
X15513660Y-14128307D01*
X15780326Y-14194973D02*
X15780326Y-13994973D01*
X15780326Y-14185449D02*
X15761279Y-14194973D01*
X15761279Y-14194973D02*
X15723183Y-14194973D01*
X15723183Y-14194973D02*
X15704136Y-14185449D01*
X15704136Y-14185449D02*
X15694612Y-14175926D01*
X15694612Y-14175926D02*
X15685088Y-14156878D01*
X15685088Y-14156878D02*
X15685088Y-14099735D01*
X15685088Y-14099735D02*
X15694612Y-14080687D01*
X15694612Y-14080687D02*
X15704136Y-14071164D01*
X15704136Y-14071164D02*
X15723183Y-14061640D01*
X15723183Y-14061640D02*
X15761279Y-14061640D01*
X15761279Y-14061640D02*
X15780326Y-14071164D01*
X15856517Y-14271164D02*
X15866041Y-14261640D01*
X15866041Y-14261640D02*
X15885088Y-14233068D01*
X15885088Y-14233068D02*
X15894612Y-14214021D01*
X15894612Y-14214021D02*
X15904136Y-14185449D01*
X15904136Y-14185449D02*
X15913660Y-14137830D01*
X15913660Y-14137830D02*
X15913660Y-14099735D01*
X15913660Y-14099735D02*
X15904136Y-14052116D01*
X15904136Y-14052116D02*
X15894612Y-14023545D01*
X15894612Y-14023545D02*
X15885088Y-14004497D01*
X15885088Y-14004497D02*
X15866041Y-13975926D01*
X15866041Y-13975926D02*
X15856517Y-13966402D01*
M02*
