M48
; DRILL file {KiCad 8.0.8+1} date 2025-06-17T15:49:30+0000
; FORMAT={-:-/ absolute / metric / decimal}
; #@! TF.CreationDate,2025-06-17T15:49:30+00:00
; #@! TF.GenerationSoftware,Kicad,Pcbnew,8.0.8+1
; #@! TF.FileFunction,NonPlated,1,2,NPTH
FMAT,2
METRIC
; #@! TA.AperFunction,NonPlated,NPTH,ComponentDrill
T1C0.750
; #@! TA.AperFunction,NonPlated,NPTH,ComponentDrill
T2C0.900
; #@! TA.AperFunction,NonPlated,NPTH,ComponentDrill
T3C1.900
; #@! TA.AperFunction,NonPlated,NPTH,ComponentDrill
T4C2.200
; #@! TA.AperFunction,NonPlated,NPTH,ComponentDrill
T5C3.000
; #@! TA.AperFunction,NonPlated,NPTH,ComponentDrill
T6C4.100
; #@! TA.AperFunction,NonPlated,NPTH,ComponentDrill
T7C4.300
%
G90
G05
T1
X227.875Y-72.75
X230.625Y-72.75
T2
X229.525Y-83.25
X229.525Y-86.25
T3
X94.92Y-43.0
X94.92Y-43.0
X94.92Y-62.0
X94.92Y-62.0
X94.92Y-81.0
X94.92Y-81.0
X94.92Y-100.0
X94.92Y-100.0
X105.08Y-43.0
X105.08Y-43.0
X105.08Y-62.0
X105.08Y-62.0
X105.08Y-81.0
X105.08Y-81.0
X105.08Y-100.0
X105.08Y-100.0
X113.92Y-40.625
X113.92Y-40.625
X113.92Y-59.625
X113.92Y-59.625
X113.92Y-78.625
X113.92Y-78.625
X113.92Y-97.625
X113.92Y-97.625
X124.08Y-40.625
X124.08Y-40.625
X124.08Y-59.625
X124.08Y-59.625
X124.08Y-78.625
X124.08Y-78.625
X124.08Y-97.625
X124.08Y-97.625
X132.92Y-43.0
X132.92Y-43.0
X132.92Y-62.0
X132.92Y-62.0
X132.92Y-81.0
X132.92Y-81.0
X132.92Y-100.0
X132.92Y-100.0
X143.08Y-43.0
X143.08Y-43.0
X143.08Y-62.0
X143.08Y-62.0
X143.08Y-81.0
X143.08Y-81.0
X143.08Y-100.0
X143.08Y-100.0
X151.92Y-40.625
X151.92Y-40.625
X151.92Y-59.625
X151.92Y-59.625
X151.92Y-78.625
X151.92Y-78.625
X151.92Y-97.625
X151.92Y-97.625
X162.08Y-40.625
X162.08Y-40.625
X162.08Y-59.625
X162.08Y-59.625
X162.08Y-78.625
X162.08Y-78.625
X162.08Y-97.625
X162.08Y-97.625
X170.92Y-43.0
X170.92Y-43.0
X170.92Y-62.0
X170.92Y-62.0
X170.92Y-81.0
X170.92Y-81.0
X170.92Y-100.0
X170.92Y-100.0
X181.08Y-43.0
X181.08Y-43.0
X181.08Y-62.0
X181.08Y-62.0
X181.08Y-81.0
X181.08Y-81.0
X181.08Y-100.0
X181.08Y-100.0
X189.92Y-45.375
X189.92Y-45.375
X189.92Y-64.375
X189.92Y-64.375
X189.92Y-83.375
X189.92Y-83.375
X195.31Y-113.139
X195.31Y-113.139
X200.08Y-45.375
X200.08Y-45.375
X200.08Y-64.375
X200.08Y-64.375
X200.08Y-83.375
X200.08Y-83.375
X200.39Y-104.341
X200.39Y-104.341
X211.764Y-122.639
X211.764Y-122.639
X216.844Y-113.841
X216.844Y-113.841
T4
X207.762Y-89.226
X228.694Y-101.245
T5
X96.19Y-40.46
X96.19Y-59.46
X96.19Y-78.46
X96.19Y-97.46
X97.46Y-37.92
X97.46Y-56.92
X97.46Y-75.92
X97.46Y-94.92
X102.54Y-37.92
X102.54Y-56.92
X102.54Y-75.92
X102.54Y-94.92
X103.81Y-40.46
X103.81Y-59.46
X103.81Y-78.46
X103.81Y-97.46
X115.19Y-38.085
X115.19Y-57.085
X115.19Y-76.085
X115.19Y-95.085
X116.46Y-35.545
X116.46Y-54.545
X116.46Y-73.545
X116.46Y-92.545
X121.54Y-35.545
X121.54Y-54.545
X121.54Y-73.545
X121.54Y-92.545
X122.81Y-38.085
X122.81Y-57.085
X122.81Y-76.085
X122.81Y-95.085
X134.19Y-40.46
X134.19Y-59.46
X134.19Y-78.46
X134.19Y-97.46
X135.46Y-37.92
X135.46Y-56.92
X135.46Y-75.92
X135.46Y-94.92
X140.54Y-37.92
X140.54Y-56.92
X140.54Y-75.92
X140.54Y-94.92
X141.81Y-40.46
X141.81Y-59.46
X141.81Y-78.46
X141.81Y-97.46
X153.19Y-38.085
X153.19Y-57.085
X153.19Y-76.085
X153.19Y-95.085
X154.46Y-35.545
X154.46Y-54.545
X154.46Y-73.545
X154.46Y-92.545
X159.54Y-35.545
X159.54Y-54.545
X159.54Y-73.545
X159.54Y-92.545
X160.81Y-38.085
X160.81Y-57.085
X160.81Y-76.085
X160.81Y-95.085
X172.19Y-40.46
X172.19Y-59.46
X172.19Y-78.46
X172.19Y-97.46
X173.46Y-37.92
X173.46Y-56.92
X173.46Y-75.92
X173.46Y-94.92
X178.54Y-37.92
X178.54Y-56.92
X178.54Y-75.92
X178.54Y-94.92
X179.81Y-40.46
X179.81Y-59.46
X179.81Y-78.46
X179.81Y-97.46
X191.19Y-42.835
X191.19Y-61.835
X191.19Y-80.835
X192.181Y-108.4
X192.46Y-40.295
X192.46Y-59.295
X192.46Y-78.295
X193.745Y-110.77
X194.721Y-104.0
X197.54Y-40.295
X197.54Y-59.295
X197.54Y-78.295
X197.555Y-104.17
X198.81Y-42.835
X198.81Y-61.835
X198.81Y-80.835
X208.635Y-117.9
X210.2Y-120.27
X211.175Y-113.5
X214.01Y-113.67
T6
X100.0Y-43.0
X100.0Y-43.0
X100.0Y-62.0
X100.0Y-62.0
X100.0Y-81.0
X100.0Y-81.0
X100.0Y-100.0
X100.0Y-100.0
X119.0Y-40.625
X119.0Y-40.625
X119.0Y-59.625
X119.0Y-59.625
X119.0Y-78.625
X119.0Y-78.625
X119.0Y-97.625
X119.0Y-97.625
X138.0Y-43.0
X138.0Y-43.0
X138.0Y-62.0
X138.0Y-62.0
X138.0Y-81.0
X138.0Y-81.0
X138.0Y-100.0
X138.0Y-100.0
X157.0Y-40.625
X157.0Y-40.625
X157.0Y-59.625
X157.0Y-59.625
X157.0Y-78.625
X157.0Y-78.625
X157.0Y-97.625
X157.0Y-97.625
X176.0Y-43.0
X176.0Y-43.0
X176.0Y-62.0
X176.0Y-62.0
X176.0Y-81.0
X176.0Y-81.0
X176.0Y-100.0
X176.0Y-100.0
X195.0Y-45.375
X195.0Y-45.375
X195.0Y-64.375
X195.0Y-64.375
X195.0Y-83.375
X195.0Y-83.375
X197.85Y-108.74
X197.85Y-108.74
X214.304Y-118.24
X214.304Y-118.24
T7
X109.5Y-50.125
X109.5Y-88.125
X147.5Y-69.125
X166.468Y-89.261
X185.468Y-53.736
X201.327Y-121.717
X210.827Y-105.263
M30
