%TF.GenerationSoftware,KiCad,Pcbnew,8.0.8+1*%
%TF.CreationDate,2025-06-17T15:49:30+00:00*%
%TF.ProjectId,eggada50_wireless,65676761-6461-4353-905f-776972656c65,0.2*%
%TF.SameCoordinates,Original*%
%TF.FileFunction,Drillmap*%
%TF.FilePolarity,Positive*%
%FSLAX45Y45*%
G04 Gerber Fmt 4.5, Leading zero omitted, Abs format (unit mm)*
G04 Created by KiCad (PCBNEW 8.0.8+1) date 2025-06-17 15:49:30*
%MOMM*%
%LPD*%
G01*
G04 APERTURE LIST*
%ADD10C,0.150000*%
%ADD11C,0.200000*%
%ADD12C,0.100000*%
G04 APERTURE END LIST*
D10*
X9108199Y-10874001D02*
X9108001Y-3449001D01*
X9158001Y-3399000D02*
X10958000Y-3399000D01*
X11008000Y-3349000D02*
X11008000Y-3223800D01*
X11058000Y-3173800D02*
X12758200Y-3173800D01*
X12808200Y-3223800D02*
X12808200Y-3349000D01*
X12858200Y-3399000D02*
X14758000Y-3399000D01*
X14808000Y-3349000D02*
X14808000Y-3223800D01*
X14858000Y-3173800D02*
X16558200Y-3173800D01*
X16608200Y-3223800D02*
X16608200Y-3349000D01*
X16658200Y-3399000D02*
X18458200Y-3399000D01*
X18508200Y-3449000D02*
X18508200Y-3598800D01*
X18558200Y-3648800D02*
X20358222Y-3648800D01*
X20408222Y-3698778D02*
X20408278Y-3824022D01*
X23119800Y-10734660D02*
X21553171Y-13431110D01*
X18316542Y-11620019D02*
X21484938Y-13449293D01*
X18311391Y-11617429D02*
X16717699Y-10928109D01*
X9158199Y-10924000D02*
X16697850Y-10924000D01*
X20458278Y-3874000D02*
X23101300Y-3874000D01*
X23151300Y-3924000D02*
X23151300Y-10666703D01*
X23144601Y-10691703D02*
X23119800Y-10734660D01*
X9108001Y-3449001D02*
G75*
G02*
X9158001Y-3399001I49999J1D01*
G01*
X11008000Y-3349000D02*
G75*
G02*
X10958000Y-3399000I-50000J0D01*
G01*
X11008000Y-3223800D02*
G75*
G02*
X11058000Y-3173800I50000J0D01*
G01*
X12758200Y-3173800D02*
G75*
G02*
X12808200Y-3223800I0J-50000D01*
G01*
X12858200Y-3399000D02*
G75*
G02*
X12808200Y-3349000I0J50000D01*
G01*
X14808000Y-3349000D02*
G75*
G02*
X14758000Y-3399000I-50000J0D01*
G01*
X14808000Y-3223800D02*
G75*
G02*
X14858000Y-3173800I50000J0D01*
G01*
X16558200Y-3173800D02*
G75*
G02*
X16608200Y-3223800I0J-50000D01*
G01*
X16658200Y-3399000D02*
G75*
G02*
X16608200Y-3349000I0J50000D01*
G01*
X18458200Y-3399000D02*
G75*
G02*
X18508200Y-3449000I0J-50000D01*
G01*
X18558200Y-3648800D02*
G75*
G02*
X18508200Y-3598800I0J50000D01*
G01*
X20358222Y-3648800D02*
G75*
G02*
X20408220Y-3698778I-2J-50000D01*
G01*
X20458278Y-3874000D02*
G75*
G02*
X20408280Y-3824022I2J50000D01*
G01*
X23101300Y-3874000D02*
G75*
G02*
X23151300Y-3924000I0J-50000D01*
G01*
X23151300Y-10666703D02*
G75*
G02*
X23144600Y-10691702I-50000J3D01*
G01*
X21553171Y-13431110D02*
G75*
G02*
X21484940Y-13449290I-43231J25120D01*
G01*
X18311391Y-11617429D02*
G75*
G02*
X18316542Y-11620019I-19851J-45891D01*
G01*
X16697850Y-10924000D02*
G75*
G02*
X16717699Y-10928109I0J-50000D01*
G01*
X9158199Y-10924000D02*
G75*
G02*
X9108200Y-10874001I1J50000D01*
G01*
D11*
D12*
X21410400Y-4372000D02*
X21450400Y-4412000D01*
X21450400Y-4372000D02*
X21410400Y-4412000D01*
X21410400Y-4626000D02*
X21450400Y-4666000D01*
X21450400Y-4626000D02*
X21410400Y-4666000D01*
X21410400Y-4880000D02*
X21450400Y-4920000D01*
X21450400Y-4880000D02*
X21410400Y-4920000D01*
X21410400Y-5134000D02*
X21450400Y-5174000D01*
X21450400Y-5134000D02*
X21410400Y-5174000D01*
X21410400Y-5388000D02*
X21450400Y-5428000D01*
X21450400Y-5388000D02*
X21410400Y-5428000D01*
X21410400Y-5642000D02*
X21450400Y-5682000D01*
X21450400Y-5642000D02*
X21410400Y-5682000D01*
X21410400Y-5896000D02*
X21450400Y-5936000D01*
X21450400Y-5896000D02*
X21410400Y-5936000D01*
X21410400Y-6150000D02*
X21450400Y-6190000D01*
X21450400Y-6150000D02*
X21410400Y-6190000D01*
X21410400Y-6404000D02*
X21450400Y-6444000D01*
X21450400Y-6404000D02*
X21410400Y-6444000D01*
X21410400Y-6658000D02*
X21450400Y-6698000D01*
X21450400Y-6658000D02*
X21410400Y-6698000D01*
X21410400Y-6912000D02*
X21450400Y-6952000D01*
X21450400Y-6912000D02*
X21410400Y-6952000D01*
X21410400Y-7166000D02*
X21450400Y-7206000D01*
X21450400Y-7166000D02*
X21410400Y-7206000D01*
X22090400Y-4372000D02*
X22130400Y-4412000D01*
X22130400Y-4372000D02*
X22090400Y-4412000D01*
X22090400Y-4626000D02*
X22130400Y-4666000D01*
X22130400Y-4626000D02*
X22090400Y-4666000D01*
X22090400Y-4880000D02*
X22130400Y-4920000D01*
X22130400Y-4880000D02*
X22090400Y-4920000D01*
X22090400Y-5134000D02*
X22130400Y-5174000D01*
X22130400Y-5134000D02*
X22090400Y-5174000D01*
X22090400Y-5388000D02*
X22130400Y-5428000D01*
X22130400Y-5388000D02*
X22090400Y-5428000D01*
X22090400Y-5642000D02*
X22130400Y-5682000D01*
X22130400Y-5642000D02*
X22090400Y-5682000D01*
X22090400Y-5896000D02*
X22130400Y-5936000D01*
X22130400Y-5896000D02*
X22090400Y-5936000D01*
X22090400Y-6150000D02*
X22130400Y-6190000D01*
X22130400Y-6150000D02*
X22090400Y-6190000D01*
X22090400Y-6404000D02*
X22130400Y-6444000D01*
X22130400Y-6404000D02*
X22090400Y-6444000D01*
X22090400Y-6658000D02*
X22130400Y-6698000D01*
X22130400Y-6658000D02*
X22090400Y-6698000D01*
X22090400Y-6912000D02*
X22130400Y-6952000D01*
X22130400Y-6912000D02*
X22090400Y-6952000D01*
X22090400Y-7166000D02*
X22130400Y-7206000D01*
X22130400Y-7166000D02*
X22090400Y-7206000D01*
X21512500Y-8250000D02*
G75*
G02*
X21437500Y-8250000I-37500J0D01*
G01*
X21437500Y-8250000D02*
G75*
G02*
X21512500Y-8250000I37500J0D01*
G01*
X21512500Y-8450000D02*
G75*
G02*
X21437500Y-8450000I-37500J0D01*
G01*
X21437500Y-8450000D02*
G75*
G02*
X21512500Y-8450000I37500J0D01*
G01*
X21008400Y-4342000D02*
X21008400Y-4442000D01*
X20958400Y-4392000D02*
X21058400Y-4392000D01*
X21008400Y-4596000D02*
X21008400Y-4696000D01*
X20958400Y-4646000D02*
X21058400Y-4646000D01*
X21008400Y-4850000D02*
X21008400Y-4950000D01*
X20958400Y-4900000D02*
X21058400Y-4900000D01*
X21008400Y-5104000D02*
X21008400Y-5204000D01*
X20958400Y-5154000D02*
X21058400Y-5154000D01*
X21008400Y-5358000D02*
X21008400Y-5458000D01*
X20958400Y-5408000D02*
X21058400Y-5408000D01*
X21008400Y-5612000D02*
X21008400Y-5712000D01*
X20958400Y-5662000D02*
X21058400Y-5662000D01*
X21008400Y-5866000D02*
X21008400Y-5966000D01*
X20958400Y-5916000D02*
X21058400Y-5916000D01*
X21008400Y-6120000D02*
X21008400Y-6220000D01*
X20958400Y-6170000D02*
X21058400Y-6170000D01*
X21008400Y-6374000D02*
X21008400Y-6474000D01*
X20958400Y-6424000D02*
X21058400Y-6424000D01*
X21008400Y-6628000D02*
X21008400Y-6728000D01*
X20958400Y-6678000D02*
X21058400Y-6678000D01*
X21008400Y-6882000D02*
X21008400Y-6982000D01*
X20958400Y-6932000D02*
X21058400Y-6932000D01*
X21008400Y-7136000D02*
X21008400Y-7236000D01*
X20958400Y-7186000D02*
X21058400Y-7186000D01*
X21256700Y-7520000D02*
X21256700Y-7620000D01*
X21206700Y-7570000D02*
X21306700Y-7570000D01*
X21510700Y-7520000D02*
X21510700Y-7620000D01*
X21460700Y-7570000D02*
X21560700Y-7570000D01*
X21764700Y-7520000D02*
X21764700Y-7620000D01*
X21714700Y-7570000D02*
X21814700Y-7570000D01*
X22018700Y-7520000D02*
X22018700Y-7620000D01*
X21968700Y-7570000D02*
X22068700Y-7570000D01*
X22272700Y-7520000D02*
X22272700Y-7620000D01*
X22222700Y-7570000D02*
X22322700Y-7570000D01*
X22532400Y-4342000D02*
X22532400Y-4442000D01*
X22482400Y-4392000D02*
X22582400Y-4392000D01*
X22532400Y-4596000D02*
X22532400Y-4696000D01*
X22482400Y-4646000D02*
X22582400Y-4646000D01*
X22532400Y-4850000D02*
X22532400Y-4950000D01*
X22482400Y-4900000D02*
X22582400Y-4900000D01*
X22532400Y-5104000D02*
X22532400Y-5204000D01*
X22482400Y-5154000D02*
X22582400Y-5154000D01*
X22532400Y-5358000D02*
X22532400Y-5458000D01*
X22482400Y-5408000D02*
X22582400Y-5408000D01*
X22532400Y-5612000D02*
X22532400Y-5712000D01*
X22482400Y-5662000D02*
X22582400Y-5662000D01*
X22532400Y-5866000D02*
X22532400Y-5966000D01*
X22482400Y-5916000D02*
X22582400Y-5916000D01*
X22532400Y-6120000D02*
X22532400Y-6220000D01*
X22482400Y-6170000D02*
X22582400Y-6170000D01*
X22532400Y-6374000D02*
X22532400Y-6474000D01*
X22482400Y-6424000D02*
X22582400Y-6424000D01*
X22532400Y-6628000D02*
X22532400Y-6728000D01*
X22482400Y-6678000D02*
X22582400Y-6678000D01*
X22532400Y-6882000D02*
X22532400Y-6982000D01*
X22482400Y-6932000D02*
X22582400Y-6932000D01*
X22532400Y-7136000D02*
X22532400Y-7236000D01*
X22482400Y-7186000D02*
X22582400Y-7186000D01*
D11*
X9361278Y-13774973D02*
X9361278Y-13574973D01*
X9361278Y-13574973D02*
X9408897Y-13574973D01*
X9408897Y-13574973D02*
X9437469Y-13584497D01*
X9437469Y-13584497D02*
X9456516Y-13603545D01*
X9456516Y-13603545D02*
X9466040Y-13622592D01*
X9466040Y-13622592D02*
X9475564Y-13660687D01*
X9475564Y-13660687D02*
X9475564Y-13689259D01*
X9475564Y-13689259D02*
X9466040Y-13727354D01*
X9466040Y-13727354D02*
X9456516Y-13746402D01*
X9456516Y-13746402D02*
X9437469Y-13765449D01*
X9437469Y-13765449D02*
X9408897Y-13774973D01*
X9408897Y-13774973D02*
X9361278Y-13774973D01*
X9561278Y-13774973D02*
X9561278Y-13641640D01*
X9561278Y-13679735D02*
X9570802Y-13660687D01*
X9570802Y-13660687D02*
X9580326Y-13651164D01*
X9580326Y-13651164D02*
X9599373Y-13641640D01*
X9599373Y-13641640D02*
X9618421Y-13641640D01*
X9685088Y-13774973D02*
X9685088Y-13641640D01*
X9685088Y-13574973D02*
X9675564Y-13584497D01*
X9675564Y-13584497D02*
X9685088Y-13594021D01*
X9685088Y-13594021D02*
X9694611Y-13584497D01*
X9694611Y-13584497D02*
X9685088Y-13574973D01*
X9685088Y-13574973D02*
X9685088Y-13594021D01*
X9808897Y-13774973D02*
X9789850Y-13765449D01*
X9789850Y-13765449D02*
X9780326Y-13746402D01*
X9780326Y-13746402D02*
X9780326Y-13574973D01*
X9913659Y-13774973D02*
X9894611Y-13765449D01*
X9894611Y-13765449D02*
X9885088Y-13746402D01*
X9885088Y-13746402D02*
X9885088Y-13574973D01*
X10142231Y-13774973D02*
X10142231Y-13574973D01*
X10142231Y-13574973D02*
X10208897Y-13717830D01*
X10208897Y-13717830D02*
X10275564Y-13574973D01*
X10275564Y-13574973D02*
X10275564Y-13774973D01*
X10456516Y-13774973D02*
X10456516Y-13670211D01*
X10456516Y-13670211D02*
X10446992Y-13651164D01*
X10446992Y-13651164D02*
X10427945Y-13641640D01*
X10427945Y-13641640D02*
X10389850Y-13641640D01*
X10389850Y-13641640D02*
X10370802Y-13651164D01*
X10456516Y-13765449D02*
X10437469Y-13774973D01*
X10437469Y-13774973D02*
X10389850Y-13774973D01*
X10389850Y-13774973D02*
X10370802Y-13765449D01*
X10370802Y-13765449D02*
X10361278Y-13746402D01*
X10361278Y-13746402D02*
X10361278Y-13727354D01*
X10361278Y-13727354D02*
X10370802Y-13708307D01*
X10370802Y-13708307D02*
X10389850Y-13698783D01*
X10389850Y-13698783D02*
X10437469Y-13698783D01*
X10437469Y-13698783D02*
X10456516Y-13689259D01*
X10551754Y-13641640D02*
X10551754Y-13841640D01*
X10551754Y-13651164D02*
X10570802Y-13641640D01*
X10570802Y-13641640D02*
X10608897Y-13641640D01*
X10608897Y-13641640D02*
X10627945Y-13651164D01*
X10627945Y-13651164D02*
X10637469Y-13660687D01*
X10637469Y-13660687D02*
X10646992Y-13679735D01*
X10646992Y-13679735D02*
X10646992Y-13736878D01*
X10646992Y-13736878D02*
X10637469Y-13755926D01*
X10637469Y-13755926D02*
X10627945Y-13765449D01*
X10627945Y-13765449D02*
X10608897Y-13774973D01*
X10608897Y-13774973D02*
X10570802Y-13774973D01*
X10570802Y-13774973D02*
X10551754Y-13765449D01*
X10732707Y-13755926D02*
X10742231Y-13765449D01*
X10742231Y-13765449D02*
X10732707Y-13774973D01*
X10732707Y-13774973D02*
X10723183Y-13765449D01*
X10723183Y-13765449D02*
X10732707Y-13755926D01*
X10732707Y-13755926D02*
X10732707Y-13774973D01*
X10732707Y-13651164D02*
X10742231Y-13660687D01*
X10742231Y-13660687D02*
X10732707Y-13670211D01*
X10732707Y-13670211D02*
X10723183Y-13660687D01*
X10723183Y-13660687D02*
X10732707Y-13651164D01*
X10732707Y-13651164D02*
X10732707Y-13670211D01*
D12*
X9060501Y-14083489D02*
X9100501Y-14123489D01*
X9100501Y-14083489D02*
X9060501Y-14123489D01*
D11*
X9399373Y-13994973D02*
X9418421Y-13994973D01*
X9418421Y-13994973D02*
X9437469Y-14004497D01*
X9437469Y-14004497D02*
X9446992Y-14014021D01*
X9446992Y-14014021D02*
X9456516Y-14033068D01*
X9456516Y-14033068D02*
X9466040Y-14071164D01*
X9466040Y-14071164D02*
X9466040Y-14118783D01*
X9466040Y-14118783D02*
X9456516Y-14156878D01*
X9456516Y-14156878D02*
X9446992Y-14175926D01*
X9446992Y-14175926D02*
X9437469Y-14185449D01*
X9437469Y-14185449D02*
X9418421Y-14194973D01*
X9418421Y-14194973D02*
X9399373Y-14194973D01*
X9399373Y-14194973D02*
X9380326Y-14185449D01*
X9380326Y-14185449D02*
X9370802Y-14175926D01*
X9370802Y-14175926D02*
X9361278Y-14156878D01*
X9361278Y-14156878D02*
X9351754Y-14118783D01*
X9351754Y-14118783D02*
X9351754Y-14071164D01*
X9351754Y-14071164D02*
X9361278Y-14033068D01*
X9361278Y-14033068D02*
X9370802Y-14014021D01*
X9370802Y-14014021D02*
X9380326Y-14004497D01*
X9380326Y-14004497D02*
X9399373Y-13994973D01*
X9551754Y-14175926D02*
X9561278Y-14185449D01*
X9561278Y-14185449D02*
X9551754Y-14194973D01*
X9551754Y-14194973D02*
X9542231Y-14185449D01*
X9542231Y-14185449D02*
X9551754Y-14175926D01*
X9551754Y-14175926D02*
X9551754Y-14194973D01*
X9732707Y-14061640D02*
X9732707Y-14194973D01*
X9685088Y-13985449D02*
X9637469Y-14128307D01*
X9637469Y-14128307D02*
X9761278Y-14128307D01*
X9875564Y-13994973D02*
X9894612Y-13994973D01*
X9894612Y-13994973D02*
X9913659Y-14004497D01*
X9913659Y-14004497D02*
X9923183Y-14014021D01*
X9923183Y-14014021D02*
X9932707Y-14033068D01*
X9932707Y-14033068D02*
X9942231Y-14071164D01*
X9942231Y-14071164D02*
X9942231Y-14118783D01*
X9942231Y-14118783D02*
X9932707Y-14156878D01*
X9932707Y-14156878D02*
X9923183Y-14175926D01*
X9923183Y-14175926D02*
X9913659Y-14185449D01*
X9913659Y-14185449D02*
X9894612Y-14194973D01*
X9894612Y-14194973D02*
X9875564Y-14194973D01*
X9875564Y-14194973D02*
X9856516Y-14185449D01*
X9856516Y-14185449D02*
X9846992Y-14175926D01*
X9846992Y-14175926D02*
X9837469Y-14156878D01*
X9837469Y-14156878D02*
X9827945Y-14118783D01*
X9827945Y-14118783D02*
X9827945Y-14071164D01*
X9827945Y-14071164D02*
X9837469Y-14033068D01*
X9837469Y-14033068D02*
X9846992Y-14014021D01*
X9846992Y-14014021D02*
X9856516Y-14004497D01*
X9856516Y-14004497D02*
X9875564Y-13994973D01*
X10066040Y-13994973D02*
X10085088Y-13994973D01*
X10085088Y-13994973D02*
X10104135Y-14004497D01*
X10104135Y-14004497D02*
X10113659Y-14014021D01*
X10113659Y-14014021D02*
X10123183Y-14033068D01*
X10123183Y-14033068D02*
X10132707Y-14071164D01*
X10132707Y-14071164D02*
X10132707Y-14118783D01*
X10132707Y-14118783D02*
X10123183Y-14156878D01*
X10123183Y-14156878D02*
X10113659Y-14175926D01*
X10113659Y-14175926D02*
X10104135Y-14185449D01*
X10104135Y-14185449D02*
X10085088Y-14194973D01*
X10085088Y-14194973D02*
X10066040Y-14194973D01*
X10066040Y-14194973D02*
X10046992Y-14185449D01*
X10046992Y-14185449D02*
X10037469Y-14175926D01*
X10037469Y-14175926D02*
X10027945Y-14156878D01*
X10027945Y-14156878D02*
X10018421Y-14118783D01*
X10018421Y-14118783D02*
X10018421Y-14071164D01*
X10018421Y-14071164D02*
X10027945Y-14033068D01*
X10027945Y-14033068D02*
X10037469Y-14014021D01*
X10037469Y-14014021D02*
X10046992Y-14004497D01*
X10046992Y-14004497D02*
X10066040Y-13994973D01*
X10218421Y-14194973D02*
X10218421Y-14061640D01*
X10218421Y-14080687D02*
X10227945Y-14071164D01*
X10227945Y-14071164D02*
X10246992Y-14061640D01*
X10246992Y-14061640D02*
X10275564Y-14061640D01*
X10275564Y-14061640D02*
X10294612Y-14071164D01*
X10294612Y-14071164D02*
X10304135Y-14090211D01*
X10304135Y-14090211D02*
X10304135Y-14194973D01*
X10304135Y-14090211D02*
X10313659Y-14071164D01*
X10313659Y-14071164D02*
X10332707Y-14061640D01*
X10332707Y-14061640D02*
X10361278Y-14061640D01*
X10361278Y-14061640D02*
X10380326Y-14071164D01*
X10380326Y-14071164D02*
X10389850Y-14090211D01*
X10389850Y-14090211D02*
X10389850Y-14194973D01*
X10485088Y-14194973D02*
X10485088Y-14061640D01*
X10485088Y-14080687D02*
X10494612Y-14071164D01*
X10494612Y-14071164D02*
X10513659Y-14061640D01*
X10513659Y-14061640D02*
X10542231Y-14061640D01*
X10542231Y-14061640D02*
X10561278Y-14071164D01*
X10561278Y-14071164D02*
X10570802Y-14090211D01*
X10570802Y-14090211D02*
X10570802Y-14194973D01*
X10570802Y-14090211D02*
X10580326Y-14071164D01*
X10580326Y-14071164D02*
X10599373Y-14061640D01*
X10599373Y-14061640D02*
X10627945Y-14061640D01*
X10627945Y-14061640D02*
X10646993Y-14071164D01*
X10646993Y-14071164D02*
X10656516Y-14090211D01*
X10656516Y-14090211D02*
X10656516Y-14194973D01*
X11046993Y-13985449D02*
X10875564Y-14242592D01*
X11304135Y-13994973D02*
X11323183Y-13994973D01*
X11323183Y-13994973D02*
X11342231Y-14004497D01*
X11342231Y-14004497D02*
X11351754Y-14014021D01*
X11351754Y-14014021D02*
X11361278Y-14033068D01*
X11361278Y-14033068D02*
X11370802Y-14071164D01*
X11370802Y-14071164D02*
X11370802Y-14118783D01*
X11370802Y-14118783D02*
X11361278Y-14156878D01*
X11361278Y-14156878D02*
X11351754Y-14175926D01*
X11351754Y-14175926D02*
X11342231Y-14185449D01*
X11342231Y-14185449D02*
X11323183Y-14194973D01*
X11323183Y-14194973D02*
X11304135Y-14194973D01*
X11304135Y-14194973D02*
X11285088Y-14185449D01*
X11285088Y-14185449D02*
X11275564Y-14175926D01*
X11275564Y-14175926D02*
X11266040Y-14156878D01*
X11266040Y-14156878D02*
X11256516Y-14118783D01*
X11256516Y-14118783D02*
X11256516Y-14071164D01*
X11256516Y-14071164D02*
X11266040Y-14033068D01*
X11266040Y-14033068D02*
X11275564Y-14014021D01*
X11275564Y-14014021D02*
X11285088Y-14004497D01*
X11285088Y-14004497D02*
X11304135Y-13994973D01*
X11456516Y-14175926D02*
X11466040Y-14185449D01*
X11466040Y-14185449D02*
X11456516Y-14194973D01*
X11456516Y-14194973D02*
X11446993Y-14185449D01*
X11446993Y-14185449D02*
X11456516Y-14175926D01*
X11456516Y-14175926D02*
X11456516Y-14194973D01*
X11589850Y-13994973D02*
X11608897Y-13994973D01*
X11608897Y-13994973D02*
X11627945Y-14004497D01*
X11627945Y-14004497D02*
X11637469Y-14014021D01*
X11637469Y-14014021D02*
X11646993Y-14033068D01*
X11646993Y-14033068D02*
X11656516Y-14071164D01*
X11656516Y-14071164D02*
X11656516Y-14118783D01*
X11656516Y-14118783D02*
X11646993Y-14156878D01*
X11646993Y-14156878D02*
X11637469Y-14175926D01*
X11637469Y-14175926D02*
X11627945Y-14185449D01*
X11627945Y-14185449D02*
X11608897Y-14194973D01*
X11608897Y-14194973D02*
X11589850Y-14194973D01*
X11589850Y-14194973D02*
X11570802Y-14185449D01*
X11570802Y-14185449D02*
X11561278Y-14175926D01*
X11561278Y-14175926D02*
X11551754Y-14156878D01*
X11551754Y-14156878D02*
X11542231Y-14118783D01*
X11542231Y-14118783D02*
X11542231Y-14071164D01*
X11542231Y-14071164D02*
X11551754Y-14033068D01*
X11551754Y-14033068D02*
X11561278Y-14014021D01*
X11561278Y-14014021D02*
X11570802Y-14004497D01*
X11570802Y-14004497D02*
X11589850Y-13994973D01*
X11846993Y-14194973D02*
X11732707Y-14194973D01*
X11789850Y-14194973D02*
X11789850Y-13994973D01*
X11789850Y-13994973D02*
X11770802Y-14023545D01*
X11770802Y-14023545D02*
X11751754Y-14042592D01*
X11751754Y-14042592D02*
X11732707Y-14052116D01*
X12027945Y-13994973D02*
X11932707Y-13994973D01*
X11932707Y-13994973D02*
X11923183Y-14090211D01*
X11923183Y-14090211D02*
X11932707Y-14080687D01*
X11932707Y-14080687D02*
X11951754Y-14071164D01*
X11951754Y-14071164D02*
X11999374Y-14071164D01*
X11999374Y-14071164D02*
X12018421Y-14080687D01*
X12018421Y-14080687D02*
X12027945Y-14090211D01*
X12027945Y-14090211D02*
X12037469Y-14109259D01*
X12037469Y-14109259D02*
X12037469Y-14156878D01*
X12037469Y-14156878D02*
X12027945Y-14175926D01*
X12027945Y-14175926D02*
X12018421Y-14185449D01*
X12018421Y-14185449D02*
X11999374Y-14194973D01*
X11999374Y-14194973D02*
X11951754Y-14194973D01*
X11951754Y-14194973D02*
X11932707Y-14185449D01*
X11932707Y-14185449D02*
X11923183Y-14175926D01*
X12104135Y-13994973D02*
X12237469Y-13994973D01*
X12237469Y-13994973D02*
X12151754Y-14194973D01*
X12304135Y-13994973D02*
X12304135Y-14033068D01*
X12380326Y-13994973D02*
X12380326Y-14033068D01*
X12675564Y-14271164D02*
X12666040Y-14261640D01*
X12666040Y-14261640D02*
X12646993Y-14233068D01*
X12646993Y-14233068D02*
X12637469Y-14214021D01*
X12637469Y-14214021D02*
X12627945Y-14185449D01*
X12627945Y-14185449D02*
X12618421Y-14137830D01*
X12618421Y-14137830D02*
X12618421Y-14099735D01*
X12618421Y-14099735D02*
X12627945Y-14052116D01*
X12627945Y-14052116D02*
X12637469Y-14023545D01*
X12637469Y-14023545D02*
X12646993Y-14004497D01*
X12646993Y-14004497D02*
X12666040Y-13975926D01*
X12666040Y-13975926D02*
X12675564Y-13966402D01*
X12742231Y-14014021D02*
X12751755Y-14004497D01*
X12751755Y-14004497D02*
X12770802Y-13994973D01*
X12770802Y-13994973D02*
X12818421Y-13994973D01*
X12818421Y-13994973D02*
X12837469Y-14004497D01*
X12837469Y-14004497D02*
X12846993Y-14014021D01*
X12846993Y-14014021D02*
X12856516Y-14033068D01*
X12856516Y-14033068D02*
X12856516Y-14052116D01*
X12856516Y-14052116D02*
X12846993Y-14080687D01*
X12846993Y-14080687D02*
X12732707Y-14194973D01*
X12732707Y-14194973D02*
X12856516Y-14194973D01*
X13027945Y-14061640D02*
X13027945Y-14194973D01*
X12980326Y-13985449D02*
X12932707Y-14128307D01*
X12932707Y-14128307D02*
X13056516Y-14128307D01*
X13285088Y-14194973D02*
X13285088Y-13994973D01*
X13370802Y-14194973D02*
X13370802Y-14090211D01*
X13370802Y-14090211D02*
X13361278Y-14071164D01*
X13361278Y-14071164D02*
X13342231Y-14061640D01*
X13342231Y-14061640D02*
X13313659Y-14061640D01*
X13313659Y-14061640D02*
X13294612Y-14071164D01*
X13294612Y-14071164D02*
X13285088Y-14080687D01*
X13494612Y-14194973D02*
X13475564Y-14185449D01*
X13475564Y-14185449D02*
X13466040Y-14175926D01*
X13466040Y-14175926D02*
X13456517Y-14156878D01*
X13456517Y-14156878D02*
X13456517Y-14099735D01*
X13456517Y-14099735D02*
X13466040Y-14080687D01*
X13466040Y-14080687D02*
X13475564Y-14071164D01*
X13475564Y-14071164D02*
X13494612Y-14061640D01*
X13494612Y-14061640D02*
X13523183Y-14061640D01*
X13523183Y-14061640D02*
X13542231Y-14071164D01*
X13542231Y-14071164D02*
X13551755Y-14080687D01*
X13551755Y-14080687D02*
X13561278Y-14099735D01*
X13561278Y-14099735D02*
X13561278Y-14156878D01*
X13561278Y-14156878D02*
X13551755Y-14175926D01*
X13551755Y-14175926D02*
X13542231Y-14185449D01*
X13542231Y-14185449D02*
X13523183Y-14194973D01*
X13523183Y-14194973D02*
X13494612Y-14194973D01*
X13675564Y-14194973D02*
X13656517Y-14185449D01*
X13656517Y-14185449D02*
X13646993Y-14166402D01*
X13646993Y-14166402D02*
X13646993Y-13994973D01*
X13827945Y-14185449D02*
X13808898Y-14194973D01*
X13808898Y-14194973D02*
X13770802Y-14194973D01*
X13770802Y-14194973D02*
X13751755Y-14185449D01*
X13751755Y-14185449D02*
X13742231Y-14166402D01*
X13742231Y-14166402D02*
X13742231Y-14090211D01*
X13742231Y-14090211D02*
X13751755Y-14071164D01*
X13751755Y-14071164D02*
X13770802Y-14061640D01*
X13770802Y-14061640D02*
X13808898Y-14061640D01*
X13808898Y-14061640D02*
X13827945Y-14071164D01*
X13827945Y-14071164D02*
X13837469Y-14090211D01*
X13837469Y-14090211D02*
X13837469Y-14109259D01*
X13837469Y-14109259D02*
X13742231Y-14128307D01*
X13913659Y-14185449D02*
X13932707Y-14194973D01*
X13932707Y-14194973D02*
X13970802Y-14194973D01*
X13970802Y-14194973D02*
X13989850Y-14185449D01*
X13989850Y-14185449D02*
X13999374Y-14166402D01*
X13999374Y-14166402D02*
X13999374Y-14156878D01*
X13999374Y-14156878D02*
X13989850Y-14137830D01*
X13989850Y-14137830D02*
X13970802Y-14128307D01*
X13970802Y-14128307D02*
X13942231Y-14128307D01*
X13942231Y-14128307D02*
X13923183Y-14118783D01*
X13923183Y-14118783D02*
X13913659Y-14099735D01*
X13913659Y-14099735D02*
X13913659Y-14090211D01*
X13913659Y-14090211D02*
X13923183Y-14071164D01*
X13923183Y-14071164D02*
X13942231Y-14061640D01*
X13942231Y-14061640D02*
X13970802Y-14061640D01*
X13970802Y-14061640D02*
X13989850Y-14071164D01*
X14066040Y-14271164D02*
X14075564Y-14261640D01*
X14075564Y-14261640D02*
X14094612Y-14233068D01*
X14094612Y-14233068D02*
X14104136Y-14214021D01*
X14104136Y-14214021D02*
X14113659Y-14185449D01*
X14113659Y-14185449D02*
X14123183Y-14137830D01*
X14123183Y-14137830D02*
X14123183Y-14099735D01*
X14123183Y-14099735D02*
X14113659Y-14052116D01*
X14113659Y-14052116D02*
X14104136Y-14023545D01*
X14104136Y-14023545D02*
X14094612Y-14004497D01*
X14094612Y-14004497D02*
X14075564Y-13975926D01*
X14075564Y-13975926D02*
X14066040Y-13966402D01*
D12*
X9100501Y-14367489D02*
G75*
G02*
X9025501Y-14367489I-37500J0D01*
G01*
X9025501Y-14367489D02*
G75*
G02*
X9100501Y-14367489I37500J0D01*
G01*
D11*
X9399373Y-14258973D02*
X9418421Y-14258973D01*
X9418421Y-14258973D02*
X9437469Y-14268497D01*
X9437469Y-14268497D02*
X9446992Y-14278021D01*
X9446992Y-14278021D02*
X9456516Y-14297068D01*
X9456516Y-14297068D02*
X9466040Y-14335164D01*
X9466040Y-14335164D02*
X9466040Y-14382783D01*
X9466040Y-14382783D02*
X9456516Y-14420878D01*
X9456516Y-14420878D02*
X9446992Y-14439926D01*
X9446992Y-14439926D02*
X9437469Y-14449449D01*
X9437469Y-14449449D02*
X9418421Y-14458973D01*
X9418421Y-14458973D02*
X9399373Y-14458973D01*
X9399373Y-14458973D02*
X9380326Y-14449449D01*
X9380326Y-14449449D02*
X9370802Y-14439926D01*
X9370802Y-14439926D02*
X9361278Y-14420878D01*
X9361278Y-14420878D02*
X9351754Y-14382783D01*
X9351754Y-14382783D02*
X9351754Y-14335164D01*
X9351754Y-14335164D02*
X9361278Y-14297068D01*
X9361278Y-14297068D02*
X9370802Y-14278021D01*
X9370802Y-14278021D02*
X9380326Y-14268497D01*
X9380326Y-14268497D02*
X9399373Y-14258973D01*
X9551754Y-14439926D02*
X9561278Y-14449449D01*
X9561278Y-14449449D02*
X9551754Y-14458973D01*
X9551754Y-14458973D02*
X9542231Y-14449449D01*
X9542231Y-14449449D02*
X9551754Y-14439926D01*
X9551754Y-14439926D02*
X9551754Y-14458973D01*
X9627945Y-14258973D02*
X9761278Y-14258973D01*
X9761278Y-14258973D02*
X9675564Y-14458973D01*
X9932707Y-14258973D02*
X9837469Y-14258973D01*
X9837469Y-14258973D02*
X9827945Y-14354211D01*
X9827945Y-14354211D02*
X9837469Y-14344687D01*
X9837469Y-14344687D02*
X9856516Y-14335164D01*
X9856516Y-14335164D02*
X9904135Y-14335164D01*
X9904135Y-14335164D02*
X9923183Y-14344687D01*
X9923183Y-14344687D02*
X9932707Y-14354211D01*
X9932707Y-14354211D02*
X9942231Y-14373259D01*
X9942231Y-14373259D02*
X9942231Y-14420878D01*
X9942231Y-14420878D02*
X9932707Y-14439926D01*
X9932707Y-14439926D02*
X9923183Y-14449449D01*
X9923183Y-14449449D02*
X9904135Y-14458973D01*
X9904135Y-14458973D02*
X9856516Y-14458973D01*
X9856516Y-14458973D02*
X9837469Y-14449449D01*
X9837469Y-14449449D02*
X9827945Y-14439926D01*
X10066040Y-14258973D02*
X10085088Y-14258973D01*
X10085088Y-14258973D02*
X10104135Y-14268497D01*
X10104135Y-14268497D02*
X10113659Y-14278021D01*
X10113659Y-14278021D02*
X10123183Y-14297068D01*
X10123183Y-14297068D02*
X10132707Y-14335164D01*
X10132707Y-14335164D02*
X10132707Y-14382783D01*
X10132707Y-14382783D02*
X10123183Y-14420878D01*
X10123183Y-14420878D02*
X10113659Y-14439926D01*
X10113659Y-14439926D02*
X10104135Y-14449449D01*
X10104135Y-14449449D02*
X10085088Y-14458973D01*
X10085088Y-14458973D02*
X10066040Y-14458973D01*
X10066040Y-14458973D02*
X10046992Y-14449449D01*
X10046992Y-14449449D02*
X10037469Y-14439926D01*
X10037469Y-14439926D02*
X10027945Y-14420878D01*
X10027945Y-14420878D02*
X10018421Y-14382783D01*
X10018421Y-14382783D02*
X10018421Y-14335164D01*
X10018421Y-14335164D02*
X10027945Y-14297068D01*
X10027945Y-14297068D02*
X10037469Y-14278021D01*
X10037469Y-14278021D02*
X10046992Y-14268497D01*
X10046992Y-14268497D02*
X10066040Y-14258973D01*
X10218421Y-14458973D02*
X10218421Y-14325640D01*
X10218421Y-14344687D02*
X10227945Y-14335164D01*
X10227945Y-14335164D02*
X10246992Y-14325640D01*
X10246992Y-14325640D02*
X10275564Y-14325640D01*
X10275564Y-14325640D02*
X10294612Y-14335164D01*
X10294612Y-14335164D02*
X10304135Y-14354211D01*
X10304135Y-14354211D02*
X10304135Y-14458973D01*
X10304135Y-14354211D02*
X10313659Y-14335164D01*
X10313659Y-14335164D02*
X10332707Y-14325640D01*
X10332707Y-14325640D02*
X10361278Y-14325640D01*
X10361278Y-14325640D02*
X10380326Y-14335164D01*
X10380326Y-14335164D02*
X10389850Y-14354211D01*
X10389850Y-14354211D02*
X10389850Y-14458973D01*
X10485088Y-14458973D02*
X10485088Y-14325640D01*
X10485088Y-14344687D02*
X10494612Y-14335164D01*
X10494612Y-14335164D02*
X10513659Y-14325640D01*
X10513659Y-14325640D02*
X10542231Y-14325640D01*
X10542231Y-14325640D02*
X10561278Y-14335164D01*
X10561278Y-14335164D02*
X10570802Y-14354211D01*
X10570802Y-14354211D02*
X10570802Y-14458973D01*
X10570802Y-14354211D02*
X10580326Y-14335164D01*
X10580326Y-14335164D02*
X10599373Y-14325640D01*
X10599373Y-14325640D02*
X10627945Y-14325640D01*
X10627945Y-14325640D02*
X10646993Y-14335164D01*
X10646993Y-14335164D02*
X10656516Y-14354211D01*
X10656516Y-14354211D02*
X10656516Y-14458973D01*
X11046993Y-14249449D02*
X10875564Y-14506592D01*
X11304135Y-14258973D02*
X11323183Y-14258973D01*
X11323183Y-14258973D02*
X11342231Y-14268497D01*
X11342231Y-14268497D02*
X11351754Y-14278021D01*
X11351754Y-14278021D02*
X11361278Y-14297068D01*
X11361278Y-14297068D02*
X11370802Y-14335164D01*
X11370802Y-14335164D02*
X11370802Y-14382783D01*
X11370802Y-14382783D02*
X11361278Y-14420878D01*
X11361278Y-14420878D02*
X11351754Y-14439926D01*
X11351754Y-14439926D02*
X11342231Y-14449449D01*
X11342231Y-14449449D02*
X11323183Y-14458973D01*
X11323183Y-14458973D02*
X11304135Y-14458973D01*
X11304135Y-14458973D02*
X11285088Y-14449449D01*
X11285088Y-14449449D02*
X11275564Y-14439926D01*
X11275564Y-14439926D02*
X11266040Y-14420878D01*
X11266040Y-14420878D02*
X11256516Y-14382783D01*
X11256516Y-14382783D02*
X11256516Y-14335164D01*
X11256516Y-14335164D02*
X11266040Y-14297068D01*
X11266040Y-14297068D02*
X11275564Y-14278021D01*
X11275564Y-14278021D02*
X11285088Y-14268497D01*
X11285088Y-14268497D02*
X11304135Y-14258973D01*
X11456516Y-14439926D02*
X11466040Y-14449449D01*
X11466040Y-14449449D02*
X11456516Y-14458973D01*
X11456516Y-14458973D02*
X11446993Y-14449449D01*
X11446993Y-14449449D02*
X11456516Y-14439926D01*
X11456516Y-14439926D02*
X11456516Y-14458973D01*
X11589850Y-14258973D02*
X11608897Y-14258973D01*
X11608897Y-14258973D02*
X11627945Y-14268497D01*
X11627945Y-14268497D02*
X11637469Y-14278021D01*
X11637469Y-14278021D02*
X11646993Y-14297068D01*
X11646993Y-14297068D02*
X11656516Y-14335164D01*
X11656516Y-14335164D02*
X11656516Y-14382783D01*
X11656516Y-14382783D02*
X11646993Y-14420878D01*
X11646993Y-14420878D02*
X11637469Y-14439926D01*
X11637469Y-14439926D02*
X11627945Y-14449449D01*
X11627945Y-14449449D02*
X11608897Y-14458973D01*
X11608897Y-14458973D02*
X11589850Y-14458973D01*
X11589850Y-14458973D02*
X11570802Y-14449449D01*
X11570802Y-14449449D02*
X11561278Y-14439926D01*
X11561278Y-14439926D02*
X11551754Y-14420878D01*
X11551754Y-14420878D02*
X11542231Y-14382783D01*
X11542231Y-14382783D02*
X11542231Y-14335164D01*
X11542231Y-14335164D02*
X11551754Y-14297068D01*
X11551754Y-14297068D02*
X11561278Y-14278021D01*
X11561278Y-14278021D02*
X11570802Y-14268497D01*
X11570802Y-14268497D02*
X11589850Y-14258973D01*
X11732707Y-14278021D02*
X11742231Y-14268497D01*
X11742231Y-14268497D02*
X11761278Y-14258973D01*
X11761278Y-14258973D02*
X11808897Y-14258973D01*
X11808897Y-14258973D02*
X11827945Y-14268497D01*
X11827945Y-14268497D02*
X11837469Y-14278021D01*
X11837469Y-14278021D02*
X11846993Y-14297068D01*
X11846993Y-14297068D02*
X11846993Y-14316116D01*
X11846993Y-14316116D02*
X11837469Y-14344687D01*
X11837469Y-14344687D02*
X11723183Y-14458973D01*
X11723183Y-14458973D02*
X11846993Y-14458973D01*
X11942231Y-14458973D02*
X11980326Y-14458973D01*
X11980326Y-14458973D02*
X11999374Y-14449449D01*
X11999374Y-14449449D02*
X12008897Y-14439926D01*
X12008897Y-14439926D02*
X12027945Y-14411354D01*
X12027945Y-14411354D02*
X12037469Y-14373259D01*
X12037469Y-14373259D02*
X12037469Y-14297068D01*
X12037469Y-14297068D02*
X12027945Y-14278021D01*
X12027945Y-14278021D02*
X12018421Y-14268497D01*
X12018421Y-14268497D02*
X11999374Y-14258973D01*
X11999374Y-14258973D02*
X11961278Y-14258973D01*
X11961278Y-14258973D02*
X11942231Y-14268497D01*
X11942231Y-14268497D02*
X11932707Y-14278021D01*
X11932707Y-14278021D02*
X11923183Y-14297068D01*
X11923183Y-14297068D02*
X11923183Y-14344687D01*
X11923183Y-14344687D02*
X11932707Y-14363735D01*
X11932707Y-14363735D02*
X11942231Y-14373259D01*
X11942231Y-14373259D02*
X11961278Y-14382783D01*
X11961278Y-14382783D02*
X11999374Y-14382783D01*
X11999374Y-14382783D02*
X12018421Y-14373259D01*
X12018421Y-14373259D02*
X12027945Y-14363735D01*
X12027945Y-14363735D02*
X12037469Y-14344687D01*
X12218421Y-14258973D02*
X12123183Y-14258973D01*
X12123183Y-14258973D02*
X12113659Y-14354211D01*
X12113659Y-14354211D02*
X12123183Y-14344687D01*
X12123183Y-14344687D02*
X12142231Y-14335164D01*
X12142231Y-14335164D02*
X12189850Y-14335164D01*
X12189850Y-14335164D02*
X12208897Y-14344687D01*
X12208897Y-14344687D02*
X12218421Y-14354211D01*
X12218421Y-14354211D02*
X12227945Y-14373259D01*
X12227945Y-14373259D02*
X12227945Y-14420878D01*
X12227945Y-14420878D02*
X12218421Y-14439926D01*
X12218421Y-14439926D02*
X12208897Y-14449449D01*
X12208897Y-14449449D02*
X12189850Y-14458973D01*
X12189850Y-14458973D02*
X12142231Y-14458973D01*
X12142231Y-14458973D02*
X12123183Y-14449449D01*
X12123183Y-14449449D02*
X12113659Y-14439926D01*
X12304135Y-14258973D02*
X12304135Y-14297068D01*
X12380326Y-14258973D02*
X12380326Y-14297068D01*
X12675564Y-14535164D02*
X12666040Y-14525640D01*
X12666040Y-14525640D02*
X12646993Y-14497068D01*
X12646993Y-14497068D02*
X12637469Y-14478021D01*
X12637469Y-14478021D02*
X12627945Y-14449449D01*
X12627945Y-14449449D02*
X12618421Y-14401830D01*
X12618421Y-14401830D02*
X12618421Y-14363735D01*
X12618421Y-14363735D02*
X12627945Y-14316116D01*
X12627945Y-14316116D02*
X12637469Y-14287545D01*
X12637469Y-14287545D02*
X12646993Y-14268497D01*
X12646993Y-14268497D02*
X12666040Y-14239926D01*
X12666040Y-14239926D02*
X12675564Y-14230402D01*
X12742231Y-14278021D02*
X12751755Y-14268497D01*
X12751755Y-14268497D02*
X12770802Y-14258973D01*
X12770802Y-14258973D02*
X12818421Y-14258973D01*
X12818421Y-14258973D02*
X12837469Y-14268497D01*
X12837469Y-14268497D02*
X12846993Y-14278021D01*
X12846993Y-14278021D02*
X12856516Y-14297068D01*
X12856516Y-14297068D02*
X12856516Y-14316116D01*
X12856516Y-14316116D02*
X12846993Y-14344687D01*
X12846993Y-14344687D02*
X12732707Y-14458973D01*
X12732707Y-14458973D02*
X12856516Y-14458973D01*
X13094612Y-14458973D02*
X13094612Y-14258973D01*
X13180326Y-14458973D02*
X13180326Y-14354211D01*
X13180326Y-14354211D02*
X13170802Y-14335164D01*
X13170802Y-14335164D02*
X13151755Y-14325640D01*
X13151755Y-14325640D02*
X13123183Y-14325640D01*
X13123183Y-14325640D02*
X13104136Y-14335164D01*
X13104136Y-14335164D02*
X13094612Y-14344687D01*
X13304136Y-14458973D02*
X13285088Y-14449449D01*
X13285088Y-14449449D02*
X13275564Y-14439926D01*
X13275564Y-14439926D02*
X13266040Y-14420878D01*
X13266040Y-14420878D02*
X13266040Y-14363735D01*
X13266040Y-14363735D02*
X13275564Y-14344687D01*
X13275564Y-14344687D02*
X13285088Y-14335164D01*
X13285088Y-14335164D02*
X13304136Y-14325640D01*
X13304136Y-14325640D02*
X13332707Y-14325640D01*
X13332707Y-14325640D02*
X13351755Y-14335164D01*
X13351755Y-14335164D02*
X13361278Y-14344687D01*
X13361278Y-14344687D02*
X13370802Y-14363735D01*
X13370802Y-14363735D02*
X13370802Y-14420878D01*
X13370802Y-14420878D02*
X13361278Y-14439926D01*
X13361278Y-14439926D02*
X13351755Y-14449449D01*
X13351755Y-14449449D02*
X13332707Y-14458973D01*
X13332707Y-14458973D02*
X13304136Y-14458973D01*
X13485088Y-14458973D02*
X13466040Y-14449449D01*
X13466040Y-14449449D02*
X13456517Y-14430402D01*
X13456517Y-14430402D02*
X13456517Y-14258973D01*
X13637469Y-14449449D02*
X13618421Y-14458973D01*
X13618421Y-14458973D02*
X13580326Y-14458973D01*
X13580326Y-14458973D02*
X13561278Y-14449449D01*
X13561278Y-14449449D02*
X13551755Y-14430402D01*
X13551755Y-14430402D02*
X13551755Y-14354211D01*
X13551755Y-14354211D02*
X13561278Y-14335164D01*
X13561278Y-14335164D02*
X13580326Y-14325640D01*
X13580326Y-14325640D02*
X13618421Y-14325640D01*
X13618421Y-14325640D02*
X13637469Y-14335164D01*
X13637469Y-14335164D02*
X13646993Y-14354211D01*
X13646993Y-14354211D02*
X13646993Y-14373259D01*
X13646993Y-14373259D02*
X13551755Y-14392307D01*
X13723183Y-14449449D02*
X13742231Y-14458973D01*
X13742231Y-14458973D02*
X13780326Y-14458973D01*
X13780326Y-14458973D02*
X13799374Y-14449449D01*
X13799374Y-14449449D02*
X13808898Y-14430402D01*
X13808898Y-14430402D02*
X13808898Y-14420878D01*
X13808898Y-14420878D02*
X13799374Y-14401830D01*
X13799374Y-14401830D02*
X13780326Y-14392307D01*
X13780326Y-14392307D02*
X13751755Y-14392307D01*
X13751755Y-14392307D02*
X13732707Y-14382783D01*
X13732707Y-14382783D02*
X13723183Y-14363735D01*
X13723183Y-14363735D02*
X13723183Y-14354211D01*
X13723183Y-14354211D02*
X13732707Y-14335164D01*
X13732707Y-14335164D02*
X13751755Y-14325640D01*
X13751755Y-14325640D02*
X13780326Y-14325640D01*
X13780326Y-14325640D02*
X13799374Y-14335164D01*
X13875564Y-14535164D02*
X13885088Y-14525640D01*
X13885088Y-14525640D02*
X13904136Y-14497068D01*
X13904136Y-14497068D02*
X13913659Y-14478021D01*
X13913659Y-14478021D02*
X13923183Y-14449449D01*
X13923183Y-14449449D02*
X13932707Y-14401830D01*
X13932707Y-14401830D02*
X13932707Y-14363735D01*
X13932707Y-14363735D02*
X13923183Y-14316116D01*
X13923183Y-14316116D02*
X13913659Y-14287545D01*
X13913659Y-14287545D02*
X13904136Y-14268497D01*
X13904136Y-14268497D02*
X13885088Y-14239926D01*
X13885088Y-14239926D02*
X13875564Y-14230402D01*
D12*
X9050501Y-14581489D02*
X9050501Y-14681489D01*
X9000501Y-14631489D02*
X9100501Y-14631489D01*
D11*
X9466040Y-14722973D02*
X9351754Y-14722973D01*
X9408897Y-14722973D02*
X9408897Y-14522973D01*
X9408897Y-14522973D02*
X9389850Y-14551545D01*
X9389850Y-14551545D02*
X9370802Y-14570592D01*
X9370802Y-14570592D02*
X9351754Y-14580116D01*
X9551754Y-14703926D02*
X9561278Y-14713449D01*
X9561278Y-14713449D02*
X9551754Y-14722973D01*
X9551754Y-14722973D02*
X9542231Y-14713449D01*
X9542231Y-14713449D02*
X9551754Y-14703926D01*
X9551754Y-14703926D02*
X9551754Y-14722973D01*
X9685088Y-14522973D02*
X9704135Y-14522973D01*
X9704135Y-14522973D02*
X9723183Y-14532497D01*
X9723183Y-14532497D02*
X9732707Y-14542021D01*
X9732707Y-14542021D02*
X9742231Y-14561068D01*
X9742231Y-14561068D02*
X9751754Y-14599164D01*
X9751754Y-14599164D02*
X9751754Y-14646783D01*
X9751754Y-14646783D02*
X9742231Y-14684878D01*
X9742231Y-14684878D02*
X9732707Y-14703926D01*
X9732707Y-14703926D02*
X9723183Y-14713449D01*
X9723183Y-14713449D02*
X9704135Y-14722973D01*
X9704135Y-14722973D02*
X9685088Y-14722973D01*
X9685088Y-14722973D02*
X9666040Y-14713449D01*
X9666040Y-14713449D02*
X9656516Y-14703926D01*
X9656516Y-14703926D02*
X9646992Y-14684878D01*
X9646992Y-14684878D02*
X9637469Y-14646783D01*
X9637469Y-14646783D02*
X9637469Y-14599164D01*
X9637469Y-14599164D02*
X9646992Y-14561068D01*
X9646992Y-14561068D02*
X9656516Y-14542021D01*
X9656516Y-14542021D02*
X9666040Y-14532497D01*
X9666040Y-14532497D02*
X9685088Y-14522973D01*
X9875564Y-14522973D02*
X9894612Y-14522973D01*
X9894612Y-14522973D02*
X9913659Y-14532497D01*
X9913659Y-14532497D02*
X9923183Y-14542021D01*
X9923183Y-14542021D02*
X9932707Y-14561068D01*
X9932707Y-14561068D02*
X9942231Y-14599164D01*
X9942231Y-14599164D02*
X9942231Y-14646783D01*
X9942231Y-14646783D02*
X9932707Y-14684878D01*
X9932707Y-14684878D02*
X9923183Y-14703926D01*
X9923183Y-14703926D02*
X9913659Y-14713449D01*
X9913659Y-14713449D02*
X9894612Y-14722973D01*
X9894612Y-14722973D02*
X9875564Y-14722973D01*
X9875564Y-14722973D02*
X9856516Y-14713449D01*
X9856516Y-14713449D02*
X9846992Y-14703926D01*
X9846992Y-14703926D02*
X9837469Y-14684878D01*
X9837469Y-14684878D02*
X9827945Y-14646783D01*
X9827945Y-14646783D02*
X9827945Y-14599164D01*
X9827945Y-14599164D02*
X9837469Y-14561068D01*
X9837469Y-14561068D02*
X9846992Y-14542021D01*
X9846992Y-14542021D02*
X9856516Y-14532497D01*
X9856516Y-14532497D02*
X9875564Y-14522973D01*
X10066040Y-14522973D02*
X10085088Y-14522973D01*
X10085088Y-14522973D02*
X10104135Y-14532497D01*
X10104135Y-14532497D02*
X10113659Y-14542021D01*
X10113659Y-14542021D02*
X10123183Y-14561068D01*
X10123183Y-14561068D02*
X10132707Y-14599164D01*
X10132707Y-14599164D02*
X10132707Y-14646783D01*
X10132707Y-14646783D02*
X10123183Y-14684878D01*
X10123183Y-14684878D02*
X10113659Y-14703926D01*
X10113659Y-14703926D02*
X10104135Y-14713449D01*
X10104135Y-14713449D02*
X10085088Y-14722973D01*
X10085088Y-14722973D02*
X10066040Y-14722973D01*
X10066040Y-14722973D02*
X10046992Y-14713449D01*
X10046992Y-14713449D02*
X10037469Y-14703926D01*
X10037469Y-14703926D02*
X10027945Y-14684878D01*
X10027945Y-14684878D02*
X10018421Y-14646783D01*
X10018421Y-14646783D02*
X10018421Y-14599164D01*
X10018421Y-14599164D02*
X10027945Y-14561068D01*
X10027945Y-14561068D02*
X10037469Y-14542021D01*
X10037469Y-14542021D02*
X10046992Y-14532497D01*
X10046992Y-14532497D02*
X10066040Y-14522973D01*
X10218421Y-14722973D02*
X10218421Y-14589640D01*
X10218421Y-14608687D02*
X10227945Y-14599164D01*
X10227945Y-14599164D02*
X10246992Y-14589640D01*
X10246992Y-14589640D02*
X10275564Y-14589640D01*
X10275564Y-14589640D02*
X10294612Y-14599164D01*
X10294612Y-14599164D02*
X10304135Y-14618211D01*
X10304135Y-14618211D02*
X10304135Y-14722973D01*
X10304135Y-14618211D02*
X10313659Y-14599164D01*
X10313659Y-14599164D02*
X10332707Y-14589640D01*
X10332707Y-14589640D02*
X10361278Y-14589640D01*
X10361278Y-14589640D02*
X10380326Y-14599164D01*
X10380326Y-14599164D02*
X10389850Y-14618211D01*
X10389850Y-14618211D02*
X10389850Y-14722973D01*
X10485088Y-14722973D02*
X10485088Y-14589640D01*
X10485088Y-14608687D02*
X10494612Y-14599164D01*
X10494612Y-14599164D02*
X10513659Y-14589640D01*
X10513659Y-14589640D02*
X10542231Y-14589640D01*
X10542231Y-14589640D02*
X10561278Y-14599164D01*
X10561278Y-14599164D02*
X10570802Y-14618211D01*
X10570802Y-14618211D02*
X10570802Y-14722973D01*
X10570802Y-14618211D02*
X10580326Y-14599164D01*
X10580326Y-14599164D02*
X10599373Y-14589640D01*
X10599373Y-14589640D02*
X10627945Y-14589640D01*
X10627945Y-14589640D02*
X10646993Y-14599164D01*
X10646993Y-14599164D02*
X10656516Y-14618211D01*
X10656516Y-14618211D02*
X10656516Y-14722973D01*
X11046993Y-14513449D02*
X10875564Y-14770592D01*
X11304135Y-14522973D02*
X11323183Y-14522973D01*
X11323183Y-14522973D02*
X11342231Y-14532497D01*
X11342231Y-14532497D02*
X11351754Y-14542021D01*
X11351754Y-14542021D02*
X11361278Y-14561068D01*
X11361278Y-14561068D02*
X11370802Y-14599164D01*
X11370802Y-14599164D02*
X11370802Y-14646783D01*
X11370802Y-14646783D02*
X11361278Y-14684878D01*
X11361278Y-14684878D02*
X11351754Y-14703926D01*
X11351754Y-14703926D02*
X11342231Y-14713449D01*
X11342231Y-14713449D02*
X11323183Y-14722973D01*
X11323183Y-14722973D02*
X11304135Y-14722973D01*
X11304135Y-14722973D02*
X11285088Y-14713449D01*
X11285088Y-14713449D02*
X11275564Y-14703926D01*
X11275564Y-14703926D02*
X11266040Y-14684878D01*
X11266040Y-14684878D02*
X11256516Y-14646783D01*
X11256516Y-14646783D02*
X11256516Y-14599164D01*
X11256516Y-14599164D02*
X11266040Y-14561068D01*
X11266040Y-14561068D02*
X11275564Y-14542021D01*
X11275564Y-14542021D02*
X11285088Y-14532497D01*
X11285088Y-14532497D02*
X11304135Y-14522973D01*
X11456516Y-14703926D02*
X11466040Y-14713449D01*
X11466040Y-14713449D02*
X11456516Y-14722973D01*
X11456516Y-14722973D02*
X11446993Y-14713449D01*
X11446993Y-14713449D02*
X11456516Y-14703926D01*
X11456516Y-14703926D02*
X11456516Y-14722973D01*
X11589850Y-14522973D02*
X11608897Y-14522973D01*
X11608897Y-14522973D02*
X11627945Y-14532497D01*
X11627945Y-14532497D02*
X11637469Y-14542021D01*
X11637469Y-14542021D02*
X11646993Y-14561068D01*
X11646993Y-14561068D02*
X11656516Y-14599164D01*
X11656516Y-14599164D02*
X11656516Y-14646783D01*
X11656516Y-14646783D02*
X11646993Y-14684878D01*
X11646993Y-14684878D02*
X11637469Y-14703926D01*
X11637469Y-14703926D02*
X11627945Y-14713449D01*
X11627945Y-14713449D02*
X11608897Y-14722973D01*
X11608897Y-14722973D02*
X11589850Y-14722973D01*
X11589850Y-14722973D02*
X11570802Y-14713449D01*
X11570802Y-14713449D02*
X11561278Y-14703926D01*
X11561278Y-14703926D02*
X11551754Y-14684878D01*
X11551754Y-14684878D02*
X11542231Y-14646783D01*
X11542231Y-14646783D02*
X11542231Y-14599164D01*
X11542231Y-14599164D02*
X11551754Y-14561068D01*
X11551754Y-14561068D02*
X11561278Y-14542021D01*
X11561278Y-14542021D02*
X11570802Y-14532497D01*
X11570802Y-14532497D02*
X11589850Y-14522973D01*
X11723183Y-14522973D02*
X11846993Y-14522973D01*
X11846993Y-14522973D02*
X11780326Y-14599164D01*
X11780326Y-14599164D02*
X11808897Y-14599164D01*
X11808897Y-14599164D02*
X11827945Y-14608687D01*
X11827945Y-14608687D02*
X11837469Y-14618211D01*
X11837469Y-14618211D02*
X11846993Y-14637259D01*
X11846993Y-14637259D02*
X11846993Y-14684878D01*
X11846993Y-14684878D02*
X11837469Y-14703926D01*
X11837469Y-14703926D02*
X11827945Y-14713449D01*
X11827945Y-14713449D02*
X11808897Y-14722973D01*
X11808897Y-14722973D02*
X11751754Y-14722973D01*
X11751754Y-14722973D02*
X11732707Y-14713449D01*
X11732707Y-14713449D02*
X11723183Y-14703926D01*
X11942231Y-14722973D02*
X11980326Y-14722973D01*
X11980326Y-14722973D02*
X11999374Y-14713449D01*
X11999374Y-14713449D02*
X12008897Y-14703926D01*
X12008897Y-14703926D02*
X12027945Y-14675354D01*
X12027945Y-14675354D02*
X12037469Y-14637259D01*
X12037469Y-14637259D02*
X12037469Y-14561068D01*
X12037469Y-14561068D02*
X12027945Y-14542021D01*
X12027945Y-14542021D02*
X12018421Y-14532497D01*
X12018421Y-14532497D02*
X11999374Y-14522973D01*
X11999374Y-14522973D02*
X11961278Y-14522973D01*
X11961278Y-14522973D02*
X11942231Y-14532497D01*
X11942231Y-14532497D02*
X11932707Y-14542021D01*
X11932707Y-14542021D02*
X11923183Y-14561068D01*
X11923183Y-14561068D02*
X11923183Y-14608687D01*
X11923183Y-14608687D02*
X11932707Y-14627735D01*
X11932707Y-14627735D02*
X11942231Y-14637259D01*
X11942231Y-14637259D02*
X11961278Y-14646783D01*
X11961278Y-14646783D02*
X11999374Y-14646783D01*
X11999374Y-14646783D02*
X12018421Y-14637259D01*
X12018421Y-14637259D02*
X12027945Y-14627735D01*
X12027945Y-14627735D02*
X12037469Y-14608687D01*
X12208897Y-14589640D02*
X12208897Y-14722973D01*
X12161278Y-14513449D02*
X12113659Y-14656307D01*
X12113659Y-14656307D02*
X12237469Y-14656307D01*
X12304135Y-14522973D02*
X12304135Y-14561068D01*
X12380326Y-14522973D02*
X12380326Y-14561068D01*
X12675564Y-14799164D02*
X12666040Y-14789640D01*
X12666040Y-14789640D02*
X12646993Y-14761068D01*
X12646993Y-14761068D02*
X12637469Y-14742021D01*
X12637469Y-14742021D02*
X12627945Y-14713449D01*
X12627945Y-14713449D02*
X12618421Y-14665830D01*
X12618421Y-14665830D02*
X12618421Y-14627735D01*
X12618421Y-14627735D02*
X12627945Y-14580116D01*
X12627945Y-14580116D02*
X12637469Y-14551545D01*
X12637469Y-14551545D02*
X12646993Y-14532497D01*
X12646993Y-14532497D02*
X12666040Y-14503926D01*
X12666040Y-14503926D02*
X12675564Y-14494402D01*
X12742231Y-14542021D02*
X12751755Y-14532497D01*
X12751755Y-14532497D02*
X12770802Y-14522973D01*
X12770802Y-14522973D02*
X12818421Y-14522973D01*
X12818421Y-14522973D02*
X12837469Y-14532497D01*
X12837469Y-14532497D02*
X12846993Y-14542021D01*
X12846993Y-14542021D02*
X12856516Y-14561068D01*
X12856516Y-14561068D02*
X12856516Y-14580116D01*
X12856516Y-14580116D02*
X12846993Y-14608687D01*
X12846993Y-14608687D02*
X12732707Y-14722973D01*
X12732707Y-14722973D02*
X12856516Y-14722973D01*
X12951755Y-14722973D02*
X12989850Y-14722973D01*
X12989850Y-14722973D02*
X13008897Y-14713449D01*
X13008897Y-14713449D02*
X13018421Y-14703926D01*
X13018421Y-14703926D02*
X13037469Y-14675354D01*
X13037469Y-14675354D02*
X13046993Y-14637259D01*
X13046993Y-14637259D02*
X13046993Y-14561068D01*
X13046993Y-14561068D02*
X13037469Y-14542021D01*
X13037469Y-14542021D02*
X13027945Y-14532497D01*
X13027945Y-14532497D02*
X13008897Y-14522973D01*
X13008897Y-14522973D02*
X12970802Y-14522973D01*
X12970802Y-14522973D02*
X12951755Y-14532497D01*
X12951755Y-14532497D02*
X12942231Y-14542021D01*
X12942231Y-14542021D02*
X12932707Y-14561068D01*
X12932707Y-14561068D02*
X12932707Y-14608687D01*
X12932707Y-14608687D02*
X12942231Y-14627735D01*
X12942231Y-14627735D02*
X12951755Y-14637259D01*
X12951755Y-14637259D02*
X12970802Y-14646783D01*
X12970802Y-14646783D02*
X13008897Y-14646783D01*
X13008897Y-14646783D02*
X13027945Y-14637259D01*
X13027945Y-14637259D02*
X13037469Y-14627735D01*
X13037469Y-14627735D02*
X13046993Y-14608687D01*
X13285088Y-14722973D02*
X13285088Y-14522973D01*
X13370802Y-14722973D02*
X13370802Y-14618211D01*
X13370802Y-14618211D02*
X13361278Y-14599164D01*
X13361278Y-14599164D02*
X13342231Y-14589640D01*
X13342231Y-14589640D02*
X13313659Y-14589640D01*
X13313659Y-14589640D02*
X13294612Y-14599164D01*
X13294612Y-14599164D02*
X13285088Y-14608687D01*
X13494612Y-14722973D02*
X13475564Y-14713449D01*
X13475564Y-14713449D02*
X13466040Y-14703926D01*
X13466040Y-14703926D02*
X13456517Y-14684878D01*
X13456517Y-14684878D02*
X13456517Y-14627735D01*
X13456517Y-14627735D02*
X13466040Y-14608687D01*
X13466040Y-14608687D02*
X13475564Y-14599164D01*
X13475564Y-14599164D02*
X13494612Y-14589640D01*
X13494612Y-14589640D02*
X13523183Y-14589640D01*
X13523183Y-14589640D02*
X13542231Y-14599164D01*
X13542231Y-14599164D02*
X13551755Y-14608687D01*
X13551755Y-14608687D02*
X13561278Y-14627735D01*
X13561278Y-14627735D02*
X13561278Y-14684878D01*
X13561278Y-14684878D02*
X13551755Y-14703926D01*
X13551755Y-14703926D02*
X13542231Y-14713449D01*
X13542231Y-14713449D02*
X13523183Y-14722973D01*
X13523183Y-14722973D02*
X13494612Y-14722973D01*
X13675564Y-14722973D02*
X13656517Y-14713449D01*
X13656517Y-14713449D02*
X13646993Y-14694402D01*
X13646993Y-14694402D02*
X13646993Y-14522973D01*
X13827945Y-14713449D02*
X13808898Y-14722973D01*
X13808898Y-14722973D02*
X13770802Y-14722973D01*
X13770802Y-14722973D02*
X13751755Y-14713449D01*
X13751755Y-14713449D02*
X13742231Y-14694402D01*
X13742231Y-14694402D02*
X13742231Y-14618211D01*
X13742231Y-14618211D02*
X13751755Y-14599164D01*
X13751755Y-14599164D02*
X13770802Y-14589640D01*
X13770802Y-14589640D02*
X13808898Y-14589640D01*
X13808898Y-14589640D02*
X13827945Y-14599164D01*
X13827945Y-14599164D02*
X13837469Y-14618211D01*
X13837469Y-14618211D02*
X13837469Y-14637259D01*
X13837469Y-14637259D02*
X13742231Y-14656307D01*
X13913659Y-14713449D02*
X13932707Y-14722973D01*
X13932707Y-14722973D02*
X13970802Y-14722973D01*
X13970802Y-14722973D02*
X13989850Y-14713449D01*
X13989850Y-14713449D02*
X13999374Y-14694402D01*
X13999374Y-14694402D02*
X13999374Y-14684878D01*
X13999374Y-14684878D02*
X13989850Y-14665830D01*
X13989850Y-14665830D02*
X13970802Y-14656307D01*
X13970802Y-14656307D02*
X13942231Y-14656307D01*
X13942231Y-14656307D02*
X13923183Y-14646783D01*
X13923183Y-14646783D02*
X13913659Y-14627735D01*
X13913659Y-14627735D02*
X13913659Y-14618211D01*
X13913659Y-14618211D02*
X13923183Y-14599164D01*
X13923183Y-14599164D02*
X13942231Y-14589640D01*
X13942231Y-14589640D02*
X13970802Y-14589640D01*
X13970802Y-14589640D02*
X13989850Y-14599164D01*
X14066040Y-14799164D02*
X14075564Y-14789640D01*
X14075564Y-14789640D02*
X14094612Y-14761068D01*
X14094612Y-14761068D02*
X14104136Y-14742021D01*
X14104136Y-14742021D02*
X14113659Y-14713449D01*
X14113659Y-14713449D02*
X14123183Y-14665830D01*
X14123183Y-14665830D02*
X14123183Y-14627735D01*
X14123183Y-14627735D02*
X14113659Y-14580116D01*
X14113659Y-14580116D02*
X14104136Y-14551545D01*
X14104136Y-14551545D02*
X14094612Y-14532497D01*
X14094612Y-14532497D02*
X14075564Y-14503926D01*
X14075564Y-14503926D02*
X14066040Y-14494402D01*
M02*
