M48
; DRILL file {KiCad 8.0.8+1} date 2025-06-17T15:49:30+0000
; FORMAT={-:-/ absolute / metric / decimal}
; #@! TF.CreationDate,2025-06-17T15:49:30+00:00
; #@! TF.GenerationSoftware,Kicad,Pcbnew,8.0.8+1
; #@! TF.FileFunction,Plated,1,2,PTH
FMAT,2
METRIC
; #@! TA.AperFunction,Plated,PTH,ComponentDrill
T1C0.400
; #@! TA.AperFunction,Plated,PTH,ComponentDrill
T2C0.750
; #@! TA.AperFunction,Plated,PTH,ComponentDrill
T3C1.000
%
G90
G05
T1
X214.304Y-43.92
X214.304Y-46.46
X214.304Y-49.0
X214.304Y-51.54
X214.304Y-54.08
X214.304Y-56.62
X214.304Y-59.16
X214.304Y-61.7
X214.304Y-64.24
X214.304Y-66.78
X214.304Y-69.32
X214.304Y-71.86
X221.104Y-43.92
X221.104Y-46.46
X221.104Y-49.0
X221.104Y-51.54
X221.104Y-54.08
X221.104Y-56.62
X221.104Y-59.16
X221.104Y-61.7
X221.104Y-64.24
X221.104Y-66.78
X221.104Y-69.32
X221.104Y-71.86
T2
X214.75Y-82.5
X214.75Y-84.5
T3
X210.084Y-43.92
X210.084Y-46.46
X210.084Y-49.0
X210.084Y-51.54
X210.084Y-54.08
X210.084Y-56.62
X210.084Y-59.16
X210.084Y-61.7
X210.084Y-64.24
X210.084Y-66.78
X210.084Y-69.32
X210.084Y-71.86
X212.567Y-75.7
X215.107Y-75.7
X217.647Y-75.7
X220.187Y-75.7
X222.727Y-75.7
X225.324Y-43.92
X225.324Y-46.46
X225.324Y-49.0
X225.324Y-51.54
X225.324Y-54.08
X225.324Y-56.62
X225.324Y-59.16
X225.324Y-61.7
X225.324Y-64.24
X225.324Y-66.78
X225.324Y-69.32
X225.324Y-71.86
M30
