G04 #@! TF.GenerationSoftware,KiCad,Pcbnew,8.0.8+1*
G04 #@! TF.CreationDate,2025-06-17T15:49:30+00:00*
G04 #@! TF.ProjectId,eggada50_wireless,65676761-6461-4353-905f-776972656c65,0.2*
G04 #@! TF.SameCoordinates,Original*
G04 #@! TF.FileFunction,Copper,L1,Top*
G04 #@! TF.FilePolarity,Positive*
%FSLAX46Y46*%
G04 Gerber Fmt 4.6, Leading zero omitted, Abs format (unit mm)*
G04 Created by KiCad (PCBNEW 8.0.8+1) date 2025-06-17 15:49:30*
%MOMM*%
%LPD*%
G01*
G04 APERTURE LIST*
G04 #@! TA.AperFunction,SMDPad,CuDef*
%ADD10R,2.550000X2.500000*%
G04 #@! TD*
G04 #@! TA.AperFunction,SMDPad,CuDef*
%ADD11R,1.200000X0.900000*%
G04 #@! TD*
G04 #@! TA.AperFunction,ComponentPad*
%ADD12C,1.700000*%
G04 #@! TD*
G04 #@! TA.AperFunction,ComponentPad*
%ADD13C,0.800000*%
G04 #@! TD*
G04 #@! TA.AperFunction,SMDPad,CuDef*
%ADD14R,0.600000X1.200000*%
G04 #@! TD*
G04 #@! TA.AperFunction,SMDPad,CuDef*
%ADD15R,1.200000X0.600000*%
G04 #@! TD*
G04 #@! TA.AperFunction,ComponentPad*
%ADD16O,1.700000X1.700000*%
G04 #@! TD*
G04 #@! TA.AperFunction,SMDPad,CuDef*
%ADD17R,0.800000X1.000000*%
G04 #@! TD*
G04 #@! TA.AperFunction,SMDPad,CuDef*
%ADD18R,1.500000X0.700000*%
G04 #@! TD*
G04 #@! TA.AperFunction,SMDPad,CuDef*
%ADD19R,1.000000X1.550000*%
G04 #@! TD*
G04 #@! TA.AperFunction,ComponentPad*
%ADD20O,1.750000X1.200000*%
G04 #@! TD*
G04 #@! TA.AperFunction,Conductor*
%ADD21C,0.250000*%
G04 #@! TD*
G04 APERTURE END LIST*
D10*
X107085000Y-97460000D03*
X94158000Y-94920000D03*
X107085000Y-78460000D03*
X94158000Y-75920000D03*
X107085000Y-59460000D03*
X94158000Y-56920000D03*
X107085000Y-40460000D03*
X94158000Y-37920000D03*
X126085000Y-95085000D03*
X113158000Y-92545000D03*
X126085000Y-76085000D03*
X113158000Y-73545000D03*
X126085000Y-57085000D03*
X113158000Y-54545000D03*
X126085000Y-38085000D03*
X113158000Y-35545000D03*
X145085000Y-97460000D03*
X132158000Y-94920000D03*
X145085000Y-78460000D03*
X132158000Y-75920000D03*
X145085000Y-59460000D03*
X132158000Y-56920000D03*
X145085000Y-40460000D03*
X132158000Y-37920000D03*
X164085000Y-95085000D03*
X151158000Y-92545000D03*
X164085000Y-76085000D03*
X151158000Y-73545000D03*
X164085000Y-57085000D03*
X151158000Y-54545000D03*
X164085000Y-38085000D03*
X151158000Y-35545000D03*
X183085000Y-97460000D03*
X170158000Y-94920000D03*
X183085000Y-78460000D03*
X170158000Y-75920000D03*
X183085000Y-59460000D03*
X170158000Y-56920000D03*
X183085000Y-40460000D03*
X170158000Y-37920000D03*
X202085000Y-80835000D03*
X189158000Y-78295000D03*
X202085000Y-61835000D03*
X189158000Y-59295000D03*
X202085000Y-42835000D03*
X189158000Y-40295000D03*
G04 #@! TA.AperFunction,SMDPad,CuDef*
G36*
X199637827Y-103063392D02*
G01*
X197472763Y-101813392D01*
X198747763Y-99605028D01*
X200912827Y-100855028D01*
X199637827Y-103063392D01*
G37*
G04 #@! TD.AperFunction*
G04 #@! TA.AperFunction,SMDPad,CuDef*
G36*
X190974623Y-112988502D02*
G01*
X188809559Y-111738502D01*
X190084559Y-109530138D01*
X192249623Y-110780138D01*
X190974623Y-112988502D01*
G37*
G04 #@! TD.AperFunction*
G04 #@! TA.AperFunction,SMDPad,CuDef*
G36*
X216092310Y-112563392D02*
G01*
X213927246Y-111313392D01*
X215202246Y-109105028D01*
X217367310Y-110355028D01*
X216092310Y-112563392D01*
G37*
G04 #@! TD.AperFunction*
G04 #@! TA.AperFunction,SMDPad,CuDef*
G36*
X207429106Y-122488502D02*
G01*
X205264042Y-121238502D01*
X206539042Y-119030138D01*
X208704106Y-120280138D01*
X207429106Y-122488502D01*
G37*
G04 #@! TD.AperFunction*
D11*
X92600000Y-100325000D03*
X92600000Y-97025000D03*
X92600000Y-81325000D03*
X92600000Y-78025000D03*
X92600000Y-62325000D03*
X92600000Y-59025000D03*
X92600000Y-43325000D03*
X92600000Y-40025000D03*
X111600000Y-97950000D03*
X111600000Y-94650000D03*
X111600000Y-78950000D03*
X111600000Y-75650000D03*
X111600000Y-59950000D03*
X111600000Y-56650000D03*
X111600000Y-40950000D03*
X111600000Y-37650000D03*
X130600000Y-100325000D03*
X130600000Y-97025000D03*
X130600000Y-81325000D03*
X130600000Y-78025000D03*
X130600000Y-62325000D03*
X130600000Y-59025000D03*
X130600000Y-43325000D03*
X130600000Y-40025000D03*
X149600000Y-97950000D03*
X149600000Y-94650000D03*
X149600000Y-78950000D03*
X149600000Y-75650000D03*
X149600000Y-59950000D03*
X149600000Y-56650000D03*
X149600000Y-40950000D03*
X149600000Y-37650000D03*
X168600000Y-100325000D03*
X168600000Y-97025000D03*
X168600000Y-81325000D03*
X168600000Y-78025000D03*
X168600000Y-62325000D03*
X168600000Y-59025000D03*
X168600000Y-43325000D03*
X168600000Y-40025000D03*
X187600000Y-83700000D03*
X187600000Y-80400000D03*
X187600000Y-64700000D03*
X187600000Y-61400000D03*
X187600000Y-45700000D03*
X187600000Y-42400000D03*
G04 #@! TA.AperFunction,SMDPad,CuDef*
G36*
X195121169Y-115016473D02*
G01*
X194521169Y-116055703D01*
X193741747Y-115605703D01*
X194341747Y-114566473D01*
X195121169Y-115016473D01*
G37*
G04 #@! TD.AperFunction*
G04 #@! TA.AperFunction,SMDPad,CuDef*
G36*
X192263285Y-113366473D02*
G01*
X191663285Y-114405703D01*
X190883863Y-113955703D01*
X191483863Y-112916473D01*
X192263285Y-113366473D01*
G37*
G04 #@! TD.AperFunction*
G04 #@! TA.AperFunction,SMDPad,CuDef*
G36*
X211575652Y-124516473D02*
G01*
X210975652Y-125555703D01*
X210196230Y-125105703D01*
X210796230Y-124066473D01*
X211575652Y-124516473D01*
G37*
G04 #@! TD.AperFunction*
G04 #@! TA.AperFunction,SMDPad,CuDef*
G36*
X208717768Y-122866473D02*
G01*
X208117768Y-123905703D01*
X207338346Y-123455703D01*
X207938346Y-122416473D01*
X208717768Y-122866473D01*
G37*
G04 #@! TD.AperFunction*
D12*
X210084000Y-43920000D03*
X225324000Y-43920000D03*
D13*
X214304000Y-43920000D03*
X221104000Y-43920000D03*
D14*
X212224000Y-43920000D03*
X213124000Y-43920000D03*
X222284000Y-43920000D03*
X223184000Y-43920000D03*
D12*
X210084000Y-46460000D03*
X225324000Y-46460000D03*
D13*
X214304000Y-46460000D03*
X221104000Y-46460000D03*
D14*
X212224000Y-46460000D03*
X213124000Y-46460000D03*
X222284000Y-46460000D03*
X223184000Y-46460000D03*
D12*
X210084000Y-49000000D03*
X225324000Y-49000000D03*
D13*
X214304000Y-49000000D03*
X221104000Y-49000000D03*
D14*
X212224000Y-49000000D03*
X213124000Y-49000000D03*
X222284000Y-49000000D03*
X223184000Y-49000000D03*
D12*
X210084000Y-51540000D03*
X225324000Y-51540000D03*
D13*
X214304000Y-51540000D03*
X221104000Y-51540000D03*
D14*
X212224000Y-51540000D03*
X213124000Y-51540000D03*
X222284000Y-51540000D03*
X223184000Y-51540000D03*
D12*
X210084000Y-54080000D03*
X225324000Y-54080000D03*
D13*
X214304000Y-54080000D03*
X221104000Y-54080000D03*
D14*
X212224000Y-54080000D03*
X213124000Y-54080000D03*
X222284000Y-54080000D03*
X223184000Y-54080000D03*
D12*
X210084000Y-56620000D03*
X225324000Y-56620000D03*
D13*
X214304000Y-56620000D03*
X221104000Y-56620000D03*
D14*
X212224000Y-56620000D03*
X213124000Y-56620000D03*
X222284000Y-56620000D03*
X223184000Y-56620000D03*
D12*
X210084000Y-59160000D03*
X225324000Y-59160000D03*
D13*
X214304000Y-59160000D03*
X221104000Y-59160000D03*
D14*
X212224000Y-59160000D03*
X213124000Y-59160000D03*
X222284000Y-59160000D03*
X223184000Y-59160000D03*
D12*
X210084000Y-61700000D03*
X225324000Y-61700000D03*
D13*
X214304000Y-61700000D03*
X221104000Y-61700000D03*
D14*
X212224000Y-61700000D03*
X213124000Y-61700000D03*
X222284000Y-61700000D03*
X223184000Y-61700000D03*
D12*
X210084000Y-64240000D03*
X225324000Y-64240000D03*
D13*
X214304000Y-64240000D03*
X221104000Y-64240000D03*
D14*
X212224000Y-64240000D03*
X213124000Y-64240000D03*
X222284000Y-64240000D03*
X223184000Y-64240000D03*
D12*
X210084000Y-66780000D03*
X225324000Y-66780000D03*
D13*
X214304000Y-66780000D03*
X221104000Y-66780000D03*
D14*
X212224000Y-66780000D03*
X213124000Y-66780000D03*
X222284000Y-66780000D03*
X223184000Y-66780000D03*
D12*
X210084000Y-69320000D03*
X225324000Y-69320000D03*
D13*
X214304000Y-69320000D03*
X221104000Y-69320000D03*
D14*
X212224000Y-69320000D03*
X213124000Y-69320000D03*
X222284000Y-69320000D03*
X223184000Y-69320000D03*
D12*
X210084000Y-71860000D03*
X225324000Y-71860000D03*
D13*
X214304000Y-71860000D03*
X221104000Y-71860000D03*
D14*
X212224000Y-71860000D03*
X213124000Y-71860000D03*
X222284000Y-71860000D03*
X223184000Y-71860000D03*
D15*
X212567000Y-77450000D03*
X215107000Y-77450000D03*
X220187000Y-77450000D03*
X222727000Y-77450000D03*
X212567000Y-78350000D03*
X215107000Y-78350000D03*
X220187000Y-78350000D03*
X222727000Y-78350000D03*
D16*
X212567000Y-75700000D03*
X215107000Y-75700000D03*
X217647000Y-75700000D03*
X220187000Y-75700000D03*
D12*
X222727000Y-75700000D03*
D17*
X230625000Y-81100000D03*
X228415000Y-81100000D03*
X228415000Y-88400000D03*
X230625000Y-88400000D03*
D18*
X227765000Y-87000000D03*
X227765000Y-84000000D03*
X227765000Y-82500000D03*
D19*
X230100000Y-75375000D03*
X228400000Y-75375000D03*
X230100000Y-70125000D03*
X228400000Y-70125000D03*
D20*
X214750000Y-84500000D03*
X214750000Y-82500000D03*
G04 #@! TA.AperFunction,SMDPad,CuDef*
G36*
X216350000Y-85100000D02*
G01*
X216150000Y-85100000D01*
X216150000Y-83900000D01*
X216350000Y-83900000D01*
X216950000Y-84500000D01*
X216350000Y-85100000D01*
G37*
G04 #@! TD.AperFunction*
G04 #@! TA.AperFunction,SMDPad,CuDef*
G36*
X216350000Y-83100000D02*
G01*
X216150000Y-83100000D01*
X216150000Y-81900000D01*
X216350000Y-81900000D01*
X216950000Y-82500000D01*
X216350000Y-83100000D01*
G37*
G04 #@! TD.AperFunction*
G04 #@! TA.AperFunction,SMDPad,CuDef*
G36*
X216566000Y-85100000D02*
G01*
X217166000Y-84500000D01*
X216566000Y-83900000D01*
X217816000Y-83900000D01*
X217816000Y-85100000D01*
X216566000Y-85100000D01*
G37*
G04 #@! TD.AperFunction*
G04 #@! TA.AperFunction,SMDPad,CuDef*
G36*
X216566000Y-83100000D02*
G01*
X217166000Y-82500000D01*
X216566000Y-81900000D01*
X217816000Y-81900000D01*
X217816000Y-83100000D01*
X216566000Y-83100000D01*
G37*
G04 #@! TD.AperFunction*
D21*
X222284000Y-43920000D02*
X221104000Y-43920000D01*
X213124000Y-43920000D02*
X214304000Y-43920000D01*
X210084000Y-43920000D02*
X212204000Y-43920000D01*
X223204000Y-43920000D02*
X225324000Y-43920000D01*
X222284000Y-46460000D02*
X221104000Y-46460000D01*
X213124000Y-46460000D02*
X214304000Y-46460000D01*
X210084000Y-46460000D02*
X212204000Y-46460000D01*
X223204000Y-46460000D02*
X225324000Y-46460000D01*
X222284000Y-49000000D02*
X221104000Y-49000000D01*
X213124000Y-49000000D02*
X214304000Y-49000000D01*
X210084000Y-49000000D02*
X212204000Y-49000000D01*
X223204000Y-49000000D02*
X225324000Y-49000000D01*
X222284000Y-51540000D02*
X221104000Y-51540000D01*
X213124000Y-51540000D02*
X214304000Y-51540000D01*
X210084000Y-51540000D02*
X212204000Y-51540000D01*
X223204000Y-51540000D02*
X225324000Y-51540000D01*
X222284000Y-54080000D02*
X221104000Y-54080000D01*
X213124000Y-54080000D02*
X214304000Y-54080000D01*
X210084000Y-54080000D02*
X212204000Y-54080000D01*
X223204000Y-54080000D02*
X225324000Y-54080000D01*
X222284000Y-56620000D02*
X221104000Y-56620000D01*
X213124000Y-56620000D02*
X214304000Y-56620000D01*
X210084000Y-56620000D02*
X212204000Y-56620000D01*
X223204000Y-56620000D02*
X225324000Y-56620000D01*
X222284000Y-59160000D02*
X221104000Y-59160000D01*
X213124000Y-59160000D02*
X214304000Y-59160000D01*
X210084000Y-59160000D02*
X212204000Y-59160000D01*
X223204000Y-59160000D02*
X225324000Y-59160000D01*
X222284000Y-61700000D02*
X221104000Y-61700000D01*
X213124000Y-61700000D02*
X214304000Y-61700000D01*
X210084000Y-61700000D02*
X212204000Y-61700000D01*
X223204000Y-61700000D02*
X225324000Y-61700000D01*
X222284000Y-64240000D02*
X221104000Y-64240000D01*
X213124000Y-64240000D02*
X214304000Y-64240000D01*
X210084000Y-64240000D02*
X212204000Y-64240000D01*
X223204000Y-64240000D02*
X225324000Y-64240000D01*
X222284000Y-66780000D02*
X221104000Y-66780000D01*
X213124000Y-66780000D02*
X214304000Y-66780000D01*
X210084000Y-66780000D02*
X212204000Y-66780000D01*
X223204000Y-66780000D02*
X225324000Y-66780000D01*
X222284000Y-69320000D02*
X221104000Y-69320000D01*
X213124000Y-69320000D02*
X214304000Y-69320000D01*
X210084000Y-69320000D02*
X212204000Y-69320000D01*
X223204000Y-69320000D02*
X225324000Y-69320000D01*
X222284000Y-71860000D02*
X221104000Y-71860000D01*
X213124000Y-71860000D02*
X214304000Y-71860000D01*
X210084000Y-71860000D02*
X212204000Y-71860000D01*
X223204000Y-71860000D02*
X225324000Y-71860000D01*
X212567000Y-75700000D02*
X212567000Y-77450000D01*
X215107000Y-75700000D02*
X215107000Y-77450000D01*
X220187000Y-75700000D02*
X220187000Y-77450000D01*
X222727000Y-75700000D02*
X222727000Y-77450000D01*
X216550000Y-84500000D02*
X214750000Y-84500000D01*
X216550000Y-82500000D02*
X214750000Y-82500000D01*
M02*
