G04 #@! TF.GenerationSoftware,KiCad,Pcbnew,8.0.8+1*
G04 #@! TF.CreationDate,2025-06-17T15:49:30+00:00*
G04 #@! TF.ProjectId,eggada50_wireless,65676761-6461-4353-905f-776972656c65,0.2*
G04 #@! TF.SameCoordinates,Original*
G04 #@! TF.FileFunction,Copper,L2,Bot*
G04 #@! TF.FilePolarity,Positive*
%FSLAX46Y46*%
G04 Gerber Fmt 4.6, Leading zero omitted, Abs format (unit mm)*
G04 Created by KiCad (PCBNEW 8.0.8+1) date 2025-06-17 15:49:30*
%MOMM*%
%LPD*%
G01*
G04 APERTURE LIST*
G04 #@! TA.AperFunction,SMDPad,CuDef*
%ADD10R,2.550000X2.500000*%
G04 #@! TD*
G04 #@! TA.AperFunction,SMDPad,CuDef*
%ADD11R,1.200000X0.900000*%
G04 #@! TD*
G04 #@! TA.AperFunction,ComponentPad*
%ADD12C,1.700000*%
G04 #@! TD*
G04 #@! TA.AperFunction,ComponentPad*
%ADD13C,0.800000*%
G04 #@! TD*
G04 #@! TA.AperFunction,SMDPad,CuDef*
%ADD14R,0.600000X1.200000*%
G04 #@! TD*
G04 #@! TA.AperFunction,SMDPad,CuDef*
%ADD15R,1.200000X0.600000*%
G04 #@! TD*
G04 #@! TA.AperFunction,ComponentPad*
%ADD16O,1.700000X1.700000*%
G04 #@! TD*
G04 #@! TA.AperFunction,SMDPad,CuDef*
%ADD17R,0.800000X1.000000*%
G04 #@! TD*
G04 #@! TA.AperFunction,SMDPad,CuDef*
%ADD18R,1.500000X0.700000*%
G04 #@! TD*
G04 #@! TA.AperFunction,SMDPad,CuDef*
%ADD19R,1.000000X1.550000*%
G04 #@! TD*
G04 #@! TA.AperFunction,ComponentPad*
%ADD20O,1.750000X1.200000*%
G04 #@! TD*
G04 #@! TA.AperFunction,Conductor*
%ADD21C,0.250000*%
G04 #@! TD*
G04 APERTURE END LIST*
D10*
X92915000Y-97460000D03*
X105842000Y-94920000D03*
X92915000Y-78460000D03*
X105842000Y-75920000D03*
X92915000Y-59460000D03*
X105842000Y-56920000D03*
X92915000Y-40460000D03*
X105842000Y-37920000D03*
X111915000Y-95085000D03*
X124842000Y-92545000D03*
X111915000Y-76085000D03*
X124842000Y-73545000D03*
X111915000Y-57085000D03*
X124842000Y-54545000D03*
X111915000Y-38085000D03*
X124842000Y-35545000D03*
X130915000Y-97460000D03*
X143842000Y-94920000D03*
X130915000Y-78460000D03*
X143842000Y-75920000D03*
X130915000Y-59460000D03*
X143842000Y-56920000D03*
X130915000Y-40460000D03*
X143842000Y-37920000D03*
X149915000Y-95085000D03*
X162842000Y-92545000D03*
X149915000Y-76085000D03*
X162842000Y-73545000D03*
X149915000Y-57085000D03*
X162842000Y-54545000D03*
X149915000Y-38085000D03*
X162842000Y-35545000D03*
X168915000Y-97460000D03*
X181842000Y-94920000D03*
X168915000Y-78460000D03*
X181842000Y-75920000D03*
X168915000Y-59460000D03*
X181842000Y-56920000D03*
X168915000Y-40460000D03*
X181842000Y-37920000D03*
X187915000Y-80835000D03*
X200842000Y-78295000D03*
X187915000Y-61835000D03*
X200842000Y-59295000D03*
X187915000Y-42835000D03*
X200842000Y-40295000D03*
G04 #@! TA.AperFunction,SMDPad,CuDef*
G36*
X192552827Y-115334972D02*
G01*
X190387763Y-114084972D01*
X191662763Y-111876608D01*
X193827827Y-113126608D01*
X192552827Y-115334972D01*
G37*
G04 #@! TD.AperFunction*
G04 #@! TA.AperFunction,SMDPad,CuDef*
G36*
X196816623Y-102869862D02*
G01*
X194651559Y-101619862D01*
X195926559Y-99411498D01*
X198091623Y-100661498D01*
X196816623Y-102869862D01*
G37*
G04 #@! TD.AperFunction*
G04 #@! TA.AperFunction,SMDPad,CuDef*
G36*
X209007310Y-124834972D02*
G01*
X206842246Y-123584972D01*
X208117246Y-121376608D01*
X210282310Y-122626608D01*
X209007310Y-124834972D01*
G37*
G04 #@! TD.AperFunction*
G04 #@! TA.AperFunction,SMDPad,CuDef*
G36*
X213271106Y-112369862D02*
G01*
X211106042Y-111119862D01*
X212381042Y-108911498D01*
X214546106Y-110161498D01*
X213271106Y-112369862D01*
G37*
G04 #@! TD.AperFunction*
D11*
X107400000Y-97025000D03*
X107400000Y-100325000D03*
X107400000Y-78025000D03*
X107400000Y-81325000D03*
X107400000Y-59025000D03*
X107400000Y-62325000D03*
X107400000Y-40025000D03*
X107400000Y-43325000D03*
X126400000Y-94650000D03*
X126400000Y-97950000D03*
X126400000Y-75650000D03*
X126400000Y-78950000D03*
X126400000Y-56650000D03*
X126400000Y-59950000D03*
X126400000Y-37650000D03*
X126400000Y-40950000D03*
X145400000Y-97025000D03*
X145400000Y-100325000D03*
X145400000Y-78025000D03*
X145400000Y-81325000D03*
X145400000Y-59025000D03*
X145400000Y-62325000D03*
X145400000Y-40025000D03*
X145400000Y-43325000D03*
X164400000Y-94650000D03*
X164400000Y-97950000D03*
X164400000Y-75650000D03*
X164400000Y-78950000D03*
X164400000Y-56650000D03*
X164400000Y-59950000D03*
X164400000Y-37650000D03*
X164400000Y-40950000D03*
X183400000Y-97025000D03*
X183400000Y-100325000D03*
X183400000Y-78025000D03*
X183400000Y-81325000D03*
X183400000Y-59025000D03*
X183400000Y-62325000D03*
X183400000Y-40025000D03*
X183400000Y-43325000D03*
X202400000Y-80400000D03*
X202400000Y-83700000D03*
X202400000Y-61400000D03*
X202400000Y-64700000D03*
X202400000Y-42400000D03*
X202400000Y-45700000D03*
G04 #@! TA.AperFunction,SMDPad,CuDef*
G36*
X199663285Y-100549297D02*
G01*
X199063285Y-101588527D01*
X198283863Y-101138527D01*
X198883863Y-100099297D01*
X199663285Y-100549297D01*
G37*
G04 #@! TD.AperFunction*
G04 #@! TA.AperFunction,SMDPad,CuDef*
G36*
X202521169Y-102199297D02*
G01*
X201921169Y-103238527D01*
X201141747Y-102788527D01*
X201741747Y-101749297D01*
X202521169Y-102199297D01*
G37*
G04 #@! TD.AperFunction*
G04 #@! TA.AperFunction,SMDPad,CuDef*
G36*
X216117768Y-110049297D02*
G01*
X215517768Y-111088527D01*
X214738346Y-110638527D01*
X215338346Y-109599297D01*
X216117768Y-110049297D01*
G37*
G04 #@! TD.AperFunction*
G04 #@! TA.AperFunction,SMDPad,CuDef*
G36*
X218975652Y-111699297D02*
G01*
X218375652Y-112738527D01*
X217596230Y-112288527D01*
X218196230Y-111249297D01*
X218975652Y-111699297D01*
G37*
G04 #@! TD.AperFunction*
D12*
X210084000Y-43920000D03*
X225324000Y-43920000D03*
D13*
X214304000Y-43920000D03*
X221104000Y-43920000D03*
D14*
X212224000Y-43920000D03*
X213124000Y-43920000D03*
X222284000Y-43920000D03*
X223184000Y-43920000D03*
D12*
X210084000Y-46460000D03*
X225324000Y-46460000D03*
D13*
X214304000Y-46460000D03*
X221104000Y-46460000D03*
D14*
X212224000Y-46460000D03*
X213124000Y-46460000D03*
X222284000Y-46460000D03*
X223184000Y-46460000D03*
D12*
X210084000Y-49000000D03*
X225324000Y-49000000D03*
D13*
X214304000Y-49000000D03*
X221104000Y-49000000D03*
D14*
X212224000Y-49000000D03*
X213124000Y-49000000D03*
X222284000Y-49000000D03*
X223184000Y-49000000D03*
D12*
X210084000Y-51540000D03*
X225324000Y-51540000D03*
D13*
X214304000Y-51540000D03*
X221104000Y-51540000D03*
D14*
X212224000Y-51540000D03*
X213124000Y-51540000D03*
X222284000Y-51540000D03*
X223184000Y-51540000D03*
D12*
X210084000Y-54080000D03*
X225324000Y-54080000D03*
D13*
X214304000Y-54080000D03*
X221104000Y-54080000D03*
D14*
X212224000Y-54080000D03*
X213124000Y-54080000D03*
X222284000Y-54080000D03*
X223184000Y-54080000D03*
D12*
X210084000Y-56620000D03*
X225324000Y-56620000D03*
D13*
X214304000Y-56620000D03*
X221104000Y-56620000D03*
D14*
X212224000Y-56620000D03*
X213124000Y-56620000D03*
X222284000Y-56620000D03*
X223184000Y-56620000D03*
D12*
X210084000Y-59160000D03*
X225324000Y-59160000D03*
D13*
X214304000Y-59160000D03*
X221104000Y-59160000D03*
D14*
X212224000Y-59160000D03*
X213124000Y-59160000D03*
X222284000Y-59160000D03*
X223184000Y-59160000D03*
D12*
X210084000Y-61700000D03*
X225324000Y-61700000D03*
D13*
X214304000Y-61700000D03*
X221104000Y-61700000D03*
D14*
X212224000Y-61700000D03*
X213124000Y-61700000D03*
X222284000Y-61700000D03*
X223184000Y-61700000D03*
D12*
X210084000Y-64240000D03*
X225324000Y-64240000D03*
D13*
X214304000Y-64240000D03*
X221104000Y-64240000D03*
D14*
X212224000Y-64240000D03*
X213124000Y-64240000D03*
X222284000Y-64240000D03*
X223184000Y-64240000D03*
D12*
X210084000Y-66780000D03*
X225324000Y-66780000D03*
D13*
X214304000Y-66780000D03*
X221104000Y-66780000D03*
D14*
X212224000Y-66780000D03*
X213124000Y-66780000D03*
X222284000Y-66780000D03*
X223184000Y-66780000D03*
D12*
X210084000Y-69320000D03*
X225324000Y-69320000D03*
D13*
X214304000Y-69320000D03*
X221104000Y-69320000D03*
D14*
X212224000Y-69320000D03*
X213124000Y-69320000D03*
X222284000Y-69320000D03*
X223184000Y-69320000D03*
D12*
X210084000Y-71860000D03*
X225324000Y-71860000D03*
D13*
X214304000Y-71860000D03*
X221104000Y-71860000D03*
D14*
X212224000Y-71860000D03*
X213124000Y-71860000D03*
X222284000Y-71860000D03*
X223184000Y-71860000D03*
D15*
X222727000Y-77450000D03*
X220187000Y-77450000D03*
X215107000Y-77450000D03*
X212567000Y-77450000D03*
X222727000Y-78350000D03*
X220187000Y-78350000D03*
X215107000Y-78350000D03*
X212567000Y-78350000D03*
D16*
X212567000Y-75700000D03*
X215107000Y-75700000D03*
X217647000Y-75700000D03*
X220187000Y-75700000D03*
D12*
X222727000Y-75700000D03*
D17*
X228415000Y-81100000D03*
X230625000Y-81100000D03*
X228415000Y-88400000D03*
X230625000Y-88400000D03*
D18*
X227765000Y-82500000D03*
X227765000Y-85500000D03*
X227765000Y-87000000D03*
D19*
X230100000Y-70125000D03*
X228400000Y-70125000D03*
X230100000Y-75375000D03*
X228400000Y-75375000D03*
D20*
X214750000Y-84500000D03*
X214750000Y-82500000D03*
G04 #@! TA.AperFunction,SMDPad,CuDef*
G36*
X216350000Y-85100000D02*
G01*
X216150000Y-85100000D01*
X216150000Y-83900000D01*
X216350000Y-83900000D01*
X216950000Y-84500000D01*
X216350000Y-85100000D01*
G37*
G04 #@! TD.AperFunction*
G04 #@! TA.AperFunction,SMDPad,CuDef*
G36*
X216350000Y-83100000D02*
G01*
X216150000Y-83100000D01*
X216150000Y-81900000D01*
X216350000Y-81900000D01*
X216950000Y-82500000D01*
X216350000Y-83100000D01*
G37*
G04 #@! TD.AperFunction*
G04 #@! TA.AperFunction,SMDPad,CuDef*
G36*
X216566000Y-83100000D02*
G01*
X217166000Y-82500000D01*
X216566000Y-81900000D01*
X217816000Y-81900000D01*
X217816000Y-83100000D01*
X216566000Y-83100000D01*
G37*
G04 #@! TD.AperFunction*
G04 #@! TA.AperFunction,SMDPad,CuDef*
G36*
X216566000Y-85100000D02*
G01*
X217166000Y-84500000D01*
X216566000Y-83900000D01*
X217816000Y-83900000D01*
X217816000Y-85100000D01*
X216566000Y-85100000D01*
G37*
G04 #@! TD.AperFunction*
D21*
X210084000Y-43920000D02*
X212204000Y-43920000D01*
X225324000Y-43920000D02*
X223204000Y-43920000D01*
X215099305Y-44150000D02*
X220874000Y-44150000D01*
X212929000Y-43920000D02*
X213278695Y-43920000D01*
X214003695Y-44645000D02*
X214604305Y-44645000D01*
X213278695Y-43920000D02*
X214003695Y-44645000D01*
X214604305Y-44645000D02*
X215099305Y-44150000D01*
X222479000Y-43920000D02*
X222129305Y-43920000D01*
X220298695Y-43700000D02*
X214524000Y-43700000D01*
X222129305Y-43920000D02*
X221404305Y-43195000D01*
X221404305Y-43195000D02*
X220803695Y-43195000D01*
X220803695Y-43195000D02*
X220298695Y-43700000D01*
X210084000Y-46460000D02*
X212204000Y-46460000D01*
X225324000Y-46460000D02*
X223204000Y-46460000D01*
X215099305Y-46690000D02*
X220874000Y-46690000D01*
X212929000Y-46460000D02*
X213278695Y-46460000D01*
X214003695Y-47185000D02*
X214604305Y-47185000D01*
X213278695Y-46460000D02*
X214003695Y-47185000D01*
X214604305Y-47185000D02*
X215099305Y-46690000D01*
X222479000Y-46460000D02*
X222129305Y-46460000D01*
X220298695Y-46240000D02*
X214524000Y-46240000D01*
X222129305Y-46460000D02*
X221404305Y-45735000D01*
X221404305Y-45735000D02*
X220803695Y-45735000D01*
X220803695Y-45735000D02*
X220298695Y-46240000D01*
X210084000Y-49000000D02*
X212204000Y-49000000D01*
X225324000Y-49000000D02*
X223204000Y-49000000D01*
X215099305Y-49230000D02*
X220874000Y-49230000D01*
X212929000Y-49000000D02*
X213278695Y-49000000D01*
X214003695Y-49725000D02*
X214604305Y-49725000D01*
X213278695Y-49000000D02*
X214003695Y-49725000D01*
X214604305Y-49725000D02*
X215099305Y-49230000D01*
X222479000Y-49000000D02*
X222129305Y-49000000D01*
X220298695Y-48780000D02*
X214524000Y-48780000D01*
X222129305Y-49000000D02*
X221404305Y-48275000D01*
X221404305Y-48275000D02*
X220803695Y-48275000D01*
X220803695Y-48275000D02*
X220298695Y-48780000D01*
X210084000Y-51540000D02*
X212204000Y-51540000D01*
X225324000Y-51540000D02*
X223204000Y-51540000D01*
X215099305Y-51770000D02*
X220874000Y-51770000D01*
X212929000Y-51540000D02*
X213278695Y-51540000D01*
X214003695Y-52265000D02*
X214604305Y-52265000D01*
X213278695Y-51540000D02*
X214003695Y-52265000D01*
X214604305Y-52265000D02*
X215099305Y-51770000D01*
X222479000Y-51540000D02*
X222129305Y-51540000D01*
X220298695Y-51320000D02*
X214524000Y-51320000D01*
X222129305Y-51540000D02*
X221404305Y-50815000D01*
X221404305Y-50815000D02*
X220803695Y-50815000D01*
X220803695Y-50815000D02*
X220298695Y-51320000D01*
X210084000Y-54080000D02*
X212204000Y-54080000D01*
X225324000Y-54080000D02*
X223204000Y-54080000D01*
X215099305Y-54310000D02*
X220874000Y-54310000D01*
X212929000Y-54080000D02*
X213278695Y-54080000D01*
X214003695Y-54805000D02*
X214604305Y-54805000D01*
X213278695Y-54080000D02*
X214003695Y-54805000D01*
X214604305Y-54805000D02*
X215099305Y-54310000D01*
X222479000Y-54080000D02*
X222129305Y-54080000D01*
X220298695Y-53860000D02*
X214524000Y-53860000D01*
X222129305Y-54080000D02*
X221404305Y-53355000D01*
X221404305Y-53355000D02*
X220803695Y-53355000D01*
X220803695Y-53355000D02*
X220298695Y-53860000D01*
X210084000Y-56620000D02*
X212204000Y-56620000D01*
X225324000Y-56620000D02*
X223204000Y-56620000D01*
X215099305Y-56850000D02*
X220874000Y-56850000D01*
X212929000Y-56620000D02*
X213278695Y-56620000D01*
X214003695Y-57345000D02*
X214604305Y-57345000D01*
X213278695Y-56620000D02*
X214003695Y-57345000D01*
X214604305Y-57345000D02*
X215099305Y-56850000D01*
X222479000Y-56620000D02*
X222129305Y-56620000D01*
X220298695Y-56400000D02*
X214524000Y-56400000D01*
X222129305Y-56620000D02*
X221404305Y-55895000D01*
X221404305Y-55895000D02*
X220803695Y-55895000D01*
X220803695Y-55895000D02*
X220298695Y-56400000D01*
X210084000Y-59160000D02*
X212204000Y-59160000D01*
X225324000Y-59160000D02*
X223204000Y-59160000D01*
X215099305Y-59390000D02*
X220874000Y-59390000D01*
X212929000Y-59160000D02*
X213278695Y-59160000D01*
X214003695Y-59885000D02*
X214604305Y-59885000D01*
X213278695Y-59160000D02*
X214003695Y-59885000D01*
X214604305Y-59885000D02*
X215099305Y-59390000D01*
X222479000Y-59160000D02*
X222129305Y-59160000D01*
X220298695Y-58940000D02*
X214524000Y-58940000D01*
X222129305Y-59160000D02*
X221404305Y-58435000D01*
X221404305Y-58435000D02*
X220803695Y-58435000D01*
X220803695Y-58435000D02*
X220298695Y-58940000D01*
X210084000Y-61700000D02*
X212204000Y-61700000D01*
X225324000Y-61700000D02*
X223204000Y-61700000D01*
X215099305Y-61930000D02*
X220874000Y-61930000D01*
X212929000Y-61700000D02*
X213278695Y-61700000D01*
X214003695Y-62425000D02*
X214604305Y-62425000D01*
X213278695Y-61700000D02*
X214003695Y-62425000D01*
X214604305Y-62425000D02*
X215099305Y-61930000D01*
X222479000Y-61700000D02*
X222129305Y-61700000D01*
X220298695Y-61480000D02*
X214524000Y-61480000D01*
X222129305Y-61700000D02*
X221404305Y-60975000D01*
X221404305Y-60975000D02*
X220803695Y-60975000D01*
X220803695Y-60975000D02*
X220298695Y-61480000D01*
X210084000Y-64240000D02*
X212204000Y-64240000D01*
X225324000Y-64240000D02*
X223204000Y-64240000D01*
X215099305Y-64470000D02*
X220874000Y-64470000D01*
X212929000Y-64240000D02*
X213278695Y-64240000D01*
X214003695Y-64965000D02*
X214604305Y-64965000D01*
X213278695Y-64240000D02*
X214003695Y-64965000D01*
X214604305Y-64965000D02*
X215099305Y-64470000D01*
X222479000Y-64240000D02*
X222129305Y-64240000D01*
X220298695Y-64020000D02*
X214524000Y-64020000D01*
X222129305Y-64240000D02*
X221404305Y-63515000D01*
X221404305Y-63515000D02*
X220803695Y-63515000D01*
X220803695Y-63515000D02*
X220298695Y-64020000D01*
X210084000Y-66780000D02*
X212204000Y-66780000D01*
X225324000Y-66780000D02*
X223204000Y-66780000D01*
X215099305Y-67010000D02*
X220874000Y-67010000D01*
X212929000Y-66780000D02*
X213278695Y-66780000D01*
X214003695Y-67505000D02*
X214604305Y-67505000D01*
X213278695Y-66780000D02*
X214003695Y-67505000D01*
X214604305Y-67505000D02*
X215099305Y-67010000D01*
X222479000Y-66780000D02*
X222129305Y-66780000D01*
X220298695Y-66560000D02*
X214524000Y-66560000D01*
X222129305Y-66780000D02*
X221404305Y-66055000D01*
X221404305Y-66055000D02*
X220803695Y-66055000D01*
X220803695Y-66055000D02*
X220298695Y-66560000D01*
X210084000Y-69320000D02*
X212204000Y-69320000D01*
X225324000Y-69320000D02*
X223204000Y-69320000D01*
X215099305Y-69550000D02*
X220874000Y-69550000D01*
X212929000Y-69320000D02*
X213278695Y-69320000D01*
X214003695Y-70045000D02*
X214604305Y-70045000D01*
X213278695Y-69320000D02*
X214003695Y-70045000D01*
X214604305Y-70045000D02*
X215099305Y-69550000D01*
X222479000Y-69320000D02*
X222129305Y-69320000D01*
X220298695Y-69100000D02*
X214524000Y-69100000D01*
X222129305Y-69320000D02*
X221404305Y-68595000D01*
X221404305Y-68595000D02*
X220803695Y-68595000D01*
X220803695Y-68595000D02*
X220298695Y-69100000D01*
X210084000Y-71860000D02*
X212204000Y-71860000D01*
X225324000Y-71860000D02*
X223204000Y-71860000D01*
X215099305Y-72090000D02*
X220874000Y-72090000D01*
X212929000Y-71860000D02*
X213278695Y-71860000D01*
X214003695Y-72585000D02*
X214604305Y-72585000D01*
X213278695Y-71860000D02*
X214003695Y-72585000D01*
X214604305Y-72585000D02*
X215099305Y-72090000D01*
X222479000Y-71860000D02*
X222129305Y-71860000D01*
X220298695Y-71640000D02*
X214524000Y-71640000D01*
X222129305Y-71860000D02*
X221404305Y-71135000D01*
X221404305Y-71135000D02*
X220803695Y-71135000D01*
X220803695Y-71135000D02*
X220298695Y-71640000D01*
X212567000Y-75700000D02*
X212567000Y-77450000D01*
X215107000Y-75700000D02*
X215107000Y-77450000D01*
X220187000Y-75700000D02*
X220187000Y-77450000D01*
X222727000Y-75700000D02*
X222727000Y-77450000D01*
X216550000Y-84500000D02*
X214750000Y-84500000D01*
X216550000Y-82500000D02*
X214750000Y-82500000D01*
M02*
