M48
; DRILL file {KiCad 8.0.8+1} date 2025-06-17T16:01:52+0000
; FORMAT={-:-/ absolute / metric / decimal}
; #@! TF.CreationDate,2025-06-17T16:01:52+00:00
; #@! TF.GenerationSoftware,Kicad,Pcbnew,8.0.8+1
; #@! TF.FileFunction,Plated,1,2,PTH
FMAT,2
METRIC
; #@! TA.AperFunction,Plated,PTH,ViaDrill
T1C0.300
; #@! TA.AperFunction,Plated,PTH,ComponentDrill
T2C0.400
; #@! TA.AperFunction,Plated,PTH,ComponentDrill
T3C0.900
; #@! TA.AperFunction,Plated,PTH,ComponentDrill
T4C1.000
%
G90
G05
T1
X92.6Y-45.606
X92.6Y-80.37
X95.94Y-47.05
X95.94Y-66.05
X95.94Y-85.05
X95.94Y-104.05
X102.155Y-64.016
X104.06Y-47.05
X104.06Y-66.05
X104.06Y-85.05
X104.06Y-104.05
X108.904Y-53.27
X110.924Y-80.732
X111.6Y-99.573
X111.641Y-42.086
X111.641Y-61.332
X114.94Y-44.675
X114.94Y-63.675
X114.94Y-82.675
X114.94Y-101.675
X123.06Y-44.675
X123.06Y-63.675
X123.06Y-82.675
X123.06Y-101.675
X123.137Y-104.05
X126.085Y-33.49
X126.085Y-52.345
X126.085Y-71.492
X126.085Y-88.715
X127.673Y-83.403
X128.292Y-80.19
X128.293Y-41.381
X128.473Y-97.069
X129.698Y-61.385
X133.94Y-47.05
X133.94Y-66.05
X133.94Y-85.05
X133.94Y-104.05
X140.654Y-82.711
X142.06Y-47.05
X142.06Y-66.05
X142.06Y-85.05
X142.06Y-104.05
X145.085Y-35.811
X145.085Y-51.228
X145.085Y-91.5
X148.698Y-80.573
X149.538Y-99.978
X149.545Y-42.086
X149.945Y-61.331
X152.94Y-44.675
X152.94Y-63.675
X152.94Y-82.675
X152.94Y-101.675
X161.06Y-44.675
X161.06Y-63.675
X161.06Y-82.675
X161.06Y-101.675
X162.375Y-65.351
X162.935Y-67.094
X163.561Y-88.715
X164.085Y-33.464
X164.085Y-51.851
X164.344Y-79.968
X166.538Y-41.381
X166.538Y-60.871
X166.791Y-97.069
X170.133Y-83.623
X171.94Y-47.05
X171.94Y-66.05
X171.94Y-85.05
X171.94Y-104.05
X180.06Y-47.05
X180.06Y-66.05
X180.06Y-85.05
X180.06Y-104.05
X182.524Y-54.79
X183.085Y-61.222
X183.943Y-35.856
X185.687Y-62.674
X185.689Y-44.05
X185.689Y-81.92
X186.025Y-86.108
X189.134Y-67.031
X190.94Y-49.425
X190.94Y-68.425
X190.94Y-87.425
X193.831Y-101.748
X199.06Y-49.425
X199.06Y-68.425
X199.06Y-87.425
X199.327Y-114.281
X202.085Y-37.874
X202.085Y-74.793
X203.113Y-88.715
X203.113Y-90.949
X203.387Y-107.249
X205.014Y-102.637
X205.43Y-72.019
X208.017Y-45.7
X213.944Y-108.746
X215.782Y-123.781
X215.8Y-55.13
X215.8Y-57.755
X218.856Y-69.771
X219.842Y-116.749
X223.964Y-108.206
T2
X214.304Y-43.92
X214.304Y-46.46
X214.304Y-49.0
X214.304Y-51.54
X214.304Y-54.08
X214.304Y-56.62
X214.304Y-59.16
X214.304Y-61.7
X214.304Y-64.24
X214.304Y-66.78
X214.304Y-69.32
X214.304Y-71.86
X221.104Y-43.92
X221.104Y-46.46
X221.104Y-49.0
X221.104Y-51.54
X221.104Y-54.08
X221.104Y-56.62
X221.104Y-59.16
X221.104Y-61.7
X221.104Y-64.24
X221.104Y-66.78
X221.104Y-69.32
X221.104Y-71.86
T4
X210.084Y-43.92
X210.084Y-46.46
X210.084Y-49.0
X210.084Y-51.54
X210.084Y-54.08
X210.084Y-56.62
X210.084Y-59.16
X210.084Y-61.7
X210.084Y-64.24
X210.084Y-66.78
X210.084Y-69.32
X210.084Y-71.86
X210.837Y-79.008
X213.377Y-79.008
X215.917Y-79.008
X218.457Y-79.008
X222.35Y-75.251
X222.35Y-81.751
X225.324Y-43.92
X225.324Y-46.46
X225.324Y-49.0
X225.324Y-51.54
X225.324Y-54.08
X225.324Y-56.62
X225.324Y-59.16
X225.324Y-61.7
X225.324Y-64.24
X225.324Y-66.78
X225.324Y-69.32
X225.324Y-71.86
T3
X214.21Y-86.26G85X212.51Y-86.26
G05
X214.21Y-90.86G85X212.51Y-90.86
G05
X218.21Y-86.26G85X217.61Y-86.26
G05
X218.21Y-90.86G85X217.61Y-90.86
G05
X221.21Y-86.26G85X220.61Y-86.26
G05
X221.21Y-90.86G85X220.61Y-90.86
G05
M30
