%TF.GenerationSoftware,KiCad,Pcbnew,8.0.8+1*%
%TF.CreationDate,2025-06-17T16:01:52+00:00*%
%TF.ProjectId,eggada50_autorouted,65676761-6461-4353-905f-6175746f726f,0.2*%
%TF.SameCoordinates,Original*%
%TF.FileFunction,Drillmap*%
%TF.FilePolarity,Positive*%
%FSLAX45Y45*%
G04 Gerber Fmt 4.5, Leading zero omitted, Abs format (unit mm)*
G04 Created by KiCad (PCBNEW 8.0.8+1) date 2025-06-17 16:01:52*
%MOMM*%
%LPD*%
G01*
G04 APERTURE LIST*
%ADD10C,0.150000*%
%ADD11C,0.120000*%
%ADD12C,0.200000*%
%ADD13C,0.190000*%
%ADD14C,0.220000*%
%ADD15C,0.300000*%
%ADD16C,0.410000*%
%ADD17C,0.430000*%
G04 APERTURE END LIST*
D10*
X9158199Y-10924000D02*
X16697850Y-10924000D01*
X11008000Y-3349000D02*
X11008000Y-3223800D01*
X20408222Y-3698778D02*
X20408278Y-3824022D01*
X11058000Y-3173800D02*
X12758200Y-3173800D01*
X11008000Y-3349000D02*
G75*
G02*
X10958000Y-3399000I-50000J0D01*
G01*
X16658200Y-3399000D02*
X18458200Y-3399000D01*
X18311391Y-11617429D02*
G75*
G02*
X18316542Y-11620018I-19871J-45941D01*
G01*
X9108199Y-10874001D02*
X9108001Y-3449001D01*
X14858000Y-3173800D02*
X16558200Y-3173800D01*
X16658200Y-3399000D02*
G75*
G02*
X16608200Y-3349000I0J50000D01*
G01*
X23119800Y-10734660D02*
X21553171Y-13431110D01*
X11008000Y-3223800D02*
G75*
G02*
X11058000Y-3173800I50000J0D01*
G01*
X18558200Y-3648800D02*
X20358222Y-3648800D01*
X9108001Y-3449001D02*
G75*
G02*
X9158001Y-3399001I49999J1D01*
G01*
X23144601Y-10691703D02*
X23119800Y-10734660D01*
X9158199Y-10924000D02*
G75*
G02*
X9108200Y-10874001I1J50000D01*
G01*
X18316542Y-11620019D02*
X21484938Y-13449293D01*
X9158001Y-3399000D02*
X10958000Y-3399000D01*
X12858200Y-3399000D02*
X14758000Y-3399000D01*
X14808000Y-3349000D02*
X14808000Y-3223800D01*
X16558200Y-3173800D02*
G75*
G02*
X16608200Y-3223800I0J-50000D01*
G01*
X20358222Y-3648800D02*
G75*
G02*
X20408220Y-3698778I-2J-50000D01*
G01*
X18311391Y-11617429D02*
X16717699Y-10928109D01*
X12808200Y-3223800D02*
X12808200Y-3349000D01*
X20458278Y-3874000D02*
X23101300Y-3874000D01*
X18558200Y-3648800D02*
G75*
G02*
X18508200Y-3598800I0J50000D01*
G01*
X23151300Y-3924000D02*
X23151300Y-10666703D01*
X14808000Y-3349000D02*
G75*
G02*
X14758000Y-3399000I-50000J0D01*
G01*
X18458200Y-3399000D02*
G75*
G02*
X18508200Y-3449000I0J-50000D01*
G01*
X12858200Y-3399000D02*
G75*
G02*
X12808200Y-3349000I0J50000D01*
G01*
X23101300Y-3874000D02*
G75*
G02*
X23151300Y-3924000I0J-50000D01*
G01*
X20458278Y-3874000D02*
G75*
G02*
X20408280Y-3824022I2J50000D01*
G01*
X12758200Y-3173800D02*
G75*
G02*
X12808200Y-3223800I0J-50000D01*
G01*
X16608200Y-3223800D02*
X16608200Y-3349000D01*
X14808000Y-3223800D02*
G75*
G02*
X14858000Y-3173800I50000J0D01*
G01*
X23151300Y-10666703D02*
G75*
G02*
X23144602Y-10691703I-50020J3D01*
G01*
X18508200Y-3449000D02*
X18508200Y-3598800D01*
X21553171Y-13431110D02*
G75*
G02*
X21484940Y-13449290I-43231J25120D01*
G01*
X16697850Y-10924000D02*
G75*
G02*
X16717699Y-10928109I0J-50000D01*
G01*
D11*
X13980000Y-10630000D02*
X13620000Y-10630000D01*
X13620000Y-10320000D01*
X13980000Y-10320000D01*
X13980000Y-10630000D01*
X10180000Y-4930000D02*
X9820000Y-4930000D01*
X9820000Y-4620000D01*
X10180000Y-4620000D01*
X10180000Y-4930000D01*
X10180000Y-6830000D02*
X9820000Y-6830000D01*
X9820000Y-6520000D01*
X10180000Y-6520000D01*
X10180000Y-6830000D01*
X10180000Y-8730000D02*
X9820000Y-8730000D01*
X9820000Y-8420000D01*
X10180000Y-8420000D01*
X10180000Y-8730000D01*
X17780000Y-8730000D02*
X17420000Y-8730000D01*
X17420000Y-8420000D01*
X17780000Y-8420000D01*
X17780000Y-8730000D01*
X20420594Y-11033115D02*
X20240594Y-11344885D01*
X19972126Y-11189885D01*
X20152126Y-10878115D01*
X20420594Y-11033115D01*
X12080000Y-6592500D02*
X11720000Y-6592500D01*
X11720000Y-6282500D01*
X12080000Y-6282500D01*
X12080000Y-6592500D01*
X19680000Y-5167500D02*
X19320000Y-5167500D01*
X19320000Y-4857500D01*
X19680000Y-4857500D01*
X19680000Y-5167500D01*
X15880000Y-8492500D02*
X15520000Y-8492500D01*
X15520000Y-8182500D01*
X15880000Y-8182500D01*
X15880000Y-8492500D01*
X15880000Y-10392500D02*
X15520000Y-10392500D01*
X15520000Y-10082500D01*
X15880000Y-10082500D01*
X15880000Y-10392500D01*
X12080000Y-4692500D02*
X11720000Y-4692500D01*
X11720000Y-4382500D01*
X12080000Y-4382500D01*
X12080000Y-4692500D01*
X15880000Y-4692500D02*
X15520000Y-4692500D01*
X15520000Y-4382500D01*
X15880000Y-4382500D01*
X15880000Y-4692500D01*
X19680000Y-8967500D02*
X19320000Y-8967500D01*
X19320000Y-8657500D01*
X19680000Y-8657500D01*
X19680000Y-8967500D01*
X19680000Y-7067500D02*
X19320000Y-7067500D01*
X19320000Y-6757500D01*
X19680000Y-6757500D01*
X19680000Y-7067500D01*
X12080000Y-8492500D02*
X11720000Y-8492500D01*
X11720000Y-8182500D01*
X12080000Y-8182500D01*
X12080000Y-8492500D01*
X13980000Y-6830000D02*
X13620000Y-6830000D01*
X13620000Y-6520000D01*
X13980000Y-6520000D01*
X13980000Y-6830000D01*
X12080000Y-10392500D02*
X11720000Y-10392500D01*
X11720000Y-10082500D01*
X12080000Y-10082500D01*
X12080000Y-10392500D01*
X13980000Y-4930000D02*
X13620000Y-4930000D01*
X13620000Y-4620000D01*
X13980000Y-4620000D01*
X13980000Y-4930000D01*
X17780000Y-6830000D02*
X17420000Y-6830000D01*
X17420000Y-6520000D01*
X17780000Y-6520000D01*
X17780000Y-6830000D01*
X17780000Y-10630000D02*
X17420000Y-10630000D01*
X17420000Y-10320000D01*
X17780000Y-10320000D01*
X17780000Y-10630000D01*
X17780000Y-4930000D02*
X17420000Y-4930000D01*
X17420000Y-4620000D01*
X17780000Y-4620000D01*
X17780000Y-4930000D01*
X22066044Y-11983115D02*
X21886044Y-12294885D01*
X21617576Y-12139885D01*
X21797576Y-11828115D01*
X22066044Y-11983115D01*
X13980000Y-8730000D02*
X13620000Y-8730000D01*
X13620000Y-8420000D01*
X13980000Y-8420000D01*
X13980000Y-8730000D01*
X10180000Y-10630000D02*
X9820000Y-10630000D01*
X9820000Y-10320000D01*
X10180000Y-10320000D01*
X10180000Y-10630000D01*
X15880000Y-6592500D02*
X15520000Y-6592500D01*
X15520000Y-6282500D01*
X15880000Y-6282500D01*
X15880000Y-6592500D01*
D12*
D10*
X21476000Y-8781000D02*
X21626000Y-8931000D01*
X21626000Y-8781000D02*
X21476000Y-8931000D01*
X22176000Y-8781000D02*
X22326000Y-8931000D01*
X22326000Y-8781000D02*
X22176000Y-8931000D01*
D13*
X9587000Y-4300000D02*
G75*
G02*
X9397000Y-4300000I-95000J0D01*
G01*
X9397000Y-4300000D02*
G75*
G02*
X9587000Y-4300000I95000J0D01*
G01*
X9587000Y-4300000D02*
G75*
G02*
X9397000Y-4300000I-95000J0D01*
G01*
X9397000Y-4300000D02*
G75*
G02*
X9587000Y-4300000I95000J0D01*
G01*
X9587000Y-6200000D02*
G75*
G02*
X9397000Y-6200000I-95000J0D01*
G01*
X9397000Y-6200000D02*
G75*
G02*
X9587000Y-6200000I95000J0D01*
G01*
X9587000Y-6200000D02*
G75*
G02*
X9397000Y-6200000I-95000J0D01*
G01*
X9397000Y-6200000D02*
G75*
G02*
X9587000Y-6200000I95000J0D01*
G01*
X9587000Y-8100000D02*
G75*
G02*
X9397000Y-8100000I-95000J0D01*
G01*
X9397000Y-8100000D02*
G75*
G02*
X9587000Y-8100000I95000J0D01*
G01*
X9587000Y-8100000D02*
G75*
G02*
X9397000Y-8100000I-95000J0D01*
G01*
X9397000Y-8100000D02*
G75*
G02*
X9587000Y-8100000I95000J0D01*
G01*
X9587000Y-10000000D02*
G75*
G02*
X9397000Y-10000000I-95000J0D01*
G01*
X9397000Y-10000000D02*
G75*
G02*
X9587000Y-10000000I95000J0D01*
G01*
X9587000Y-10000000D02*
G75*
G02*
X9397000Y-10000000I-95000J0D01*
G01*
X9397000Y-10000000D02*
G75*
G02*
X9587000Y-10000000I95000J0D01*
G01*
X10603000Y-4300000D02*
G75*
G02*
X10413000Y-4300000I-95000J0D01*
G01*
X10413000Y-4300000D02*
G75*
G02*
X10603000Y-4300000I95000J0D01*
G01*
X10603000Y-4300000D02*
G75*
G02*
X10413000Y-4300000I-95000J0D01*
G01*
X10413000Y-4300000D02*
G75*
G02*
X10603000Y-4300000I95000J0D01*
G01*
X10603000Y-6200000D02*
G75*
G02*
X10413000Y-6200000I-95000J0D01*
G01*
X10413000Y-6200000D02*
G75*
G02*
X10603000Y-6200000I95000J0D01*
G01*
X10603000Y-6200000D02*
G75*
G02*
X10413000Y-6200000I-95000J0D01*
G01*
X10413000Y-6200000D02*
G75*
G02*
X10603000Y-6200000I95000J0D01*
G01*
X10603000Y-8100000D02*
G75*
G02*
X10413000Y-8100000I-95000J0D01*
G01*
X10413000Y-8100000D02*
G75*
G02*
X10603000Y-8100000I95000J0D01*
G01*
X10603000Y-8100000D02*
G75*
G02*
X10413000Y-8100000I-95000J0D01*
G01*
X10413000Y-8100000D02*
G75*
G02*
X10603000Y-8100000I95000J0D01*
G01*
X10603000Y-10000000D02*
G75*
G02*
X10413000Y-10000000I-95000J0D01*
G01*
X10413000Y-10000000D02*
G75*
G02*
X10603000Y-10000000I95000J0D01*
G01*
X10603000Y-10000000D02*
G75*
G02*
X10413000Y-10000000I-95000J0D01*
G01*
X10413000Y-10000000D02*
G75*
G02*
X10603000Y-10000000I95000J0D01*
G01*
X11487000Y-4062500D02*
G75*
G02*
X11297000Y-4062500I-95000J0D01*
G01*
X11297000Y-4062500D02*
G75*
G02*
X11487000Y-4062500I95000J0D01*
G01*
X11487000Y-4062500D02*
G75*
G02*
X11297000Y-4062500I-95000J0D01*
G01*
X11297000Y-4062500D02*
G75*
G02*
X11487000Y-4062500I95000J0D01*
G01*
X11487000Y-5962500D02*
G75*
G02*
X11297000Y-5962500I-95000J0D01*
G01*
X11297000Y-5962500D02*
G75*
G02*
X11487000Y-5962500I95000J0D01*
G01*
X11487000Y-5962500D02*
G75*
G02*
X11297000Y-5962500I-95000J0D01*
G01*
X11297000Y-5962500D02*
G75*
G02*
X11487000Y-5962500I95000J0D01*
G01*
X11487000Y-7862500D02*
G75*
G02*
X11297000Y-7862500I-95000J0D01*
G01*
X11297000Y-7862500D02*
G75*
G02*
X11487000Y-7862500I95000J0D01*
G01*
X11487000Y-7862500D02*
G75*
G02*
X11297000Y-7862500I-95000J0D01*
G01*
X11297000Y-7862500D02*
G75*
G02*
X11487000Y-7862500I95000J0D01*
G01*
X11487000Y-9762500D02*
G75*
G02*
X11297000Y-9762500I-95000J0D01*
G01*
X11297000Y-9762500D02*
G75*
G02*
X11487000Y-9762500I95000J0D01*
G01*
X11487000Y-9762500D02*
G75*
G02*
X11297000Y-9762500I-95000J0D01*
G01*
X11297000Y-9762500D02*
G75*
G02*
X11487000Y-9762500I95000J0D01*
G01*
X12503000Y-4062500D02*
G75*
G02*
X12313000Y-4062500I-95000J0D01*
G01*
X12313000Y-4062500D02*
G75*
G02*
X12503000Y-4062500I95000J0D01*
G01*
X12503000Y-4062500D02*
G75*
G02*
X12313000Y-4062500I-95000J0D01*
G01*
X12313000Y-4062500D02*
G75*
G02*
X12503000Y-4062500I95000J0D01*
G01*
X12503000Y-5962500D02*
G75*
G02*
X12313000Y-5962500I-95000J0D01*
G01*
X12313000Y-5962500D02*
G75*
G02*
X12503000Y-5962500I95000J0D01*
G01*
X12503000Y-5962500D02*
G75*
G02*
X12313000Y-5962500I-95000J0D01*
G01*
X12313000Y-5962500D02*
G75*
G02*
X12503000Y-5962500I95000J0D01*
G01*
X12503000Y-7862500D02*
G75*
G02*
X12313000Y-7862500I-95000J0D01*
G01*
X12313000Y-7862500D02*
G75*
G02*
X12503000Y-7862500I95000J0D01*
G01*
X12503000Y-7862500D02*
G75*
G02*
X12313000Y-7862500I-95000J0D01*
G01*
X12313000Y-7862500D02*
G75*
G02*
X12503000Y-7862500I95000J0D01*
G01*
X12503000Y-9762500D02*
G75*
G02*
X12313000Y-9762500I-95000J0D01*
G01*
X12313000Y-9762500D02*
G75*
G02*
X12503000Y-9762500I95000J0D01*
G01*
X12503000Y-9762500D02*
G75*
G02*
X12313000Y-9762500I-95000J0D01*
G01*
X12313000Y-9762500D02*
G75*
G02*
X12503000Y-9762500I95000J0D01*
G01*
X13387000Y-4300000D02*
G75*
G02*
X13197000Y-4300000I-95000J0D01*
G01*
X13197000Y-4300000D02*
G75*
G02*
X13387000Y-4300000I95000J0D01*
G01*
X13387000Y-4300000D02*
G75*
G02*
X13197000Y-4300000I-95000J0D01*
G01*
X13197000Y-4300000D02*
G75*
G02*
X13387000Y-4300000I95000J0D01*
G01*
X13387000Y-6200000D02*
G75*
G02*
X13197000Y-6200000I-95000J0D01*
G01*
X13197000Y-6200000D02*
G75*
G02*
X13387000Y-6200000I95000J0D01*
G01*
X13387000Y-6200000D02*
G75*
G02*
X13197000Y-6200000I-95000J0D01*
G01*
X13197000Y-6200000D02*
G75*
G02*
X13387000Y-6200000I95000J0D01*
G01*
X13387000Y-8100000D02*
G75*
G02*
X13197000Y-8100000I-95000J0D01*
G01*
X13197000Y-8100000D02*
G75*
G02*
X13387000Y-8100000I95000J0D01*
G01*
X13387000Y-8100000D02*
G75*
G02*
X13197000Y-8100000I-95000J0D01*
G01*
X13197000Y-8100000D02*
G75*
G02*
X13387000Y-8100000I95000J0D01*
G01*
X13387000Y-10000000D02*
G75*
G02*
X13197000Y-10000000I-95000J0D01*
G01*
X13197000Y-10000000D02*
G75*
G02*
X13387000Y-10000000I95000J0D01*
G01*
X13387000Y-10000000D02*
G75*
G02*
X13197000Y-10000000I-95000J0D01*
G01*
X13197000Y-10000000D02*
G75*
G02*
X13387000Y-10000000I95000J0D01*
G01*
X14403000Y-4300000D02*
G75*
G02*
X14213000Y-4300000I-95000J0D01*
G01*
X14213000Y-4300000D02*
G75*
G02*
X14403000Y-4300000I95000J0D01*
G01*
X14403000Y-4300000D02*
G75*
G02*
X14213000Y-4300000I-95000J0D01*
G01*
X14213000Y-4300000D02*
G75*
G02*
X14403000Y-4300000I95000J0D01*
G01*
X14403000Y-6200000D02*
G75*
G02*
X14213000Y-6200000I-95000J0D01*
G01*
X14213000Y-6200000D02*
G75*
G02*
X14403000Y-6200000I95000J0D01*
G01*
X14403000Y-6200000D02*
G75*
G02*
X14213000Y-6200000I-95000J0D01*
G01*
X14213000Y-6200000D02*
G75*
G02*
X14403000Y-6200000I95000J0D01*
G01*
X14403000Y-8100000D02*
G75*
G02*
X14213000Y-8100000I-95000J0D01*
G01*
X14213000Y-8100000D02*
G75*
G02*
X14403000Y-8100000I95000J0D01*
G01*
X14403000Y-8100000D02*
G75*
G02*
X14213000Y-8100000I-95000J0D01*
G01*
X14213000Y-8100000D02*
G75*
G02*
X14403000Y-8100000I95000J0D01*
G01*
X14403000Y-10000000D02*
G75*
G02*
X14213000Y-10000000I-95000J0D01*
G01*
X14213000Y-10000000D02*
G75*
G02*
X14403000Y-10000000I95000J0D01*
G01*
X14403000Y-10000000D02*
G75*
G02*
X14213000Y-10000000I-95000J0D01*
G01*
X14213000Y-10000000D02*
G75*
G02*
X14403000Y-10000000I95000J0D01*
G01*
X15287000Y-4062500D02*
G75*
G02*
X15097000Y-4062500I-95000J0D01*
G01*
X15097000Y-4062500D02*
G75*
G02*
X15287000Y-4062500I95000J0D01*
G01*
X15287000Y-4062500D02*
G75*
G02*
X15097000Y-4062500I-95000J0D01*
G01*
X15097000Y-4062500D02*
G75*
G02*
X15287000Y-4062500I95000J0D01*
G01*
X15287000Y-5962500D02*
G75*
G02*
X15097000Y-5962500I-95000J0D01*
G01*
X15097000Y-5962500D02*
G75*
G02*
X15287000Y-5962500I95000J0D01*
G01*
X15287000Y-5962500D02*
G75*
G02*
X15097000Y-5962500I-95000J0D01*
G01*
X15097000Y-5962500D02*
G75*
G02*
X15287000Y-5962500I95000J0D01*
G01*
X15287000Y-7862500D02*
G75*
G02*
X15097000Y-7862500I-95000J0D01*
G01*
X15097000Y-7862500D02*
G75*
G02*
X15287000Y-7862500I95000J0D01*
G01*
X15287000Y-7862500D02*
G75*
G02*
X15097000Y-7862500I-95000J0D01*
G01*
X15097000Y-7862500D02*
G75*
G02*
X15287000Y-7862500I95000J0D01*
G01*
X15287000Y-9762500D02*
G75*
G02*
X15097000Y-9762500I-95000J0D01*
G01*
X15097000Y-9762500D02*
G75*
G02*
X15287000Y-9762500I95000J0D01*
G01*
X15287000Y-9762500D02*
G75*
G02*
X15097000Y-9762500I-95000J0D01*
G01*
X15097000Y-9762500D02*
G75*
G02*
X15287000Y-9762500I95000J0D01*
G01*
X16303000Y-4062500D02*
G75*
G02*
X16113000Y-4062500I-95000J0D01*
G01*
X16113000Y-4062500D02*
G75*
G02*
X16303000Y-4062500I95000J0D01*
G01*
X16303000Y-4062500D02*
G75*
G02*
X16113000Y-4062500I-95000J0D01*
G01*
X16113000Y-4062500D02*
G75*
G02*
X16303000Y-4062500I95000J0D01*
G01*
X16303000Y-5962500D02*
G75*
G02*
X16113000Y-5962500I-95000J0D01*
G01*
X16113000Y-5962500D02*
G75*
G02*
X16303000Y-5962500I95000J0D01*
G01*
X16303000Y-5962500D02*
G75*
G02*
X16113000Y-5962500I-95000J0D01*
G01*
X16113000Y-5962500D02*
G75*
G02*
X16303000Y-5962500I95000J0D01*
G01*
X16303000Y-7862500D02*
G75*
G02*
X16113000Y-7862500I-95000J0D01*
G01*
X16113000Y-7862500D02*
G75*
G02*
X16303000Y-7862500I95000J0D01*
G01*
X16303000Y-7862500D02*
G75*
G02*
X16113000Y-7862500I-95000J0D01*
G01*
X16113000Y-7862500D02*
G75*
G02*
X16303000Y-7862500I95000J0D01*
G01*
X16303000Y-9762500D02*
G75*
G02*
X16113000Y-9762500I-95000J0D01*
G01*
X16113000Y-9762500D02*
G75*
G02*
X16303000Y-9762500I95000J0D01*
G01*
X16303000Y-9762500D02*
G75*
G02*
X16113000Y-9762500I-95000J0D01*
G01*
X16113000Y-9762500D02*
G75*
G02*
X16303000Y-9762500I95000J0D01*
G01*
X17187000Y-4300000D02*
G75*
G02*
X16997000Y-4300000I-95000J0D01*
G01*
X16997000Y-4300000D02*
G75*
G02*
X17187000Y-4300000I95000J0D01*
G01*
X17187000Y-4300000D02*
G75*
G02*
X16997000Y-4300000I-95000J0D01*
G01*
X16997000Y-4300000D02*
G75*
G02*
X17187000Y-4300000I95000J0D01*
G01*
X17187000Y-6200000D02*
G75*
G02*
X16997000Y-6200000I-95000J0D01*
G01*
X16997000Y-6200000D02*
G75*
G02*
X17187000Y-6200000I95000J0D01*
G01*
X17187000Y-6200000D02*
G75*
G02*
X16997000Y-6200000I-95000J0D01*
G01*
X16997000Y-6200000D02*
G75*
G02*
X17187000Y-6200000I95000J0D01*
G01*
X17187000Y-8100000D02*
G75*
G02*
X16997000Y-8100000I-95000J0D01*
G01*
X16997000Y-8100000D02*
G75*
G02*
X17187000Y-8100000I95000J0D01*
G01*
X17187000Y-8100000D02*
G75*
G02*
X16997000Y-8100000I-95000J0D01*
G01*
X16997000Y-8100000D02*
G75*
G02*
X17187000Y-8100000I95000J0D01*
G01*
X17187000Y-10000000D02*
G75*
G02*
X16997000Y-10000000I-95000J0D01*
G01*
X16997000Y-10000000D02*
G75*
G02*
X17187000Y-10000000I95000J0D01*
G01*
X17187000Y-10000000D02*
G75*
G02*
X16997000Y-10000000I-95000J0D01*
G01*
X16997000Y-10000000D02*
G75*
G02*
X17187000Y-10000000I95000J0D01*
G01*
X18203000Y-4300000D02*
G75*
G02*
X18013000Y-4300000I-95000J0D01*
G01*
X18013000Y-4300000D02*
G75*
G02*
X18203000Y-4300000I95000J0D01*
G01*
X18203000Y-4300000D02*
G75*
G02*
X18013000Y-4300000I-95000J0D01*
G01*
X18013000Y-4300000D02*
G75*
G02*
X18203000Y-4300000I95000J0D01*
G01*
X18203000Y-6200000D02*
G75*
G02*
X18013000Y-6200000I-95000J0D01*
G01*
X18013000Y-6200000D02*
G75*
G02*
X18203000Y-6200000I95000J0D01*
G01*
X18203000Y-6200000D02*
G75*
G02*
X18013000Y-6200000I-95000J0D01*
G01*
X18013000Y-6200000D02*
G75*
G02*
X18203000Y-6200000I95000J0D01*
G01*
X18203000Y-8100000D02*
G75*
G02*
X18013000Y-8100000I-95000J0D01*
G01*
X18013000Y-8100000D02*
G75*
G02*
X18203000Y-8100000I95000J0D01*
G01*
X18203000Y-8100000D02*
G75*
G02*
X18013000Y-8100000I-95000J0D01*
G01*
X18013000Y-8100000D02*
G75*
G02*
X18203000Y-8100000I95000J0D01*
G01*
X18203000Y-10000000D02*
G75*
G02*
X18013000Y-10000000I-95000J0D01*
G01*
X18013000Y-10000000D02*
G75*
G02*
X18203000Y-10000000I95000J0D01*
G01*
X18203000Y-10000000D02*
G75*
G02*
X18013000Y-10000000I-95000J0D01*
G01*
X18013000Y-10000000D02*
G75*
G02*
X18203000Y-10000000I95000J0D01*
G01*
X19087000Y-4537500D02*
G75*
G02*
X18897000Y-4537500I-95000J0D01*
G01*
X18897000Y-4537500D02*
G75*
G02*
X19087000Y-4537500I95000J0D01*
G01*
X19087000Y-4537500D02*
G75*
G02*
X18897000Y-4537500I-95000J0D01*
G01*
X18897000Y-4537500D02*
G75*
G02*
X19087000Y-4537500I95000J0D01*
G01*
X19087000Y-6437500D02*
G75*
G02*
X18897000Y-6437500I-95000J0D01*
G01*
X18897000Y-6437500D02*
G75*
G02*
X19087000Y-6437500I95000J0D01*
G01*
X19087000Y-6437500D02*
G75*
G02*
X18897000Y-6437500I-95000J0D01*
G01*
X18897000Y-6437500D02*
G75*
G02*
X19087000Y-6437500I95000J0D01*
G01*
X19087000Y-8337500D02*
G75*
G02*
X18897000Y-8337500I-95000J0D01*
G01*
X18897000Y-8337500D02*
G75*
G02*
X19087000Y-8337500I95000J0D01*
G01*
X19087000Y-8337500D02*
G75*
G02*
X18897000Y-8337500I-95000J0D01*
G01*
X18897000Y-8337500D02*
G75*
G02*
X19087000Y-8337500I95000J0D01*
G01*
X19626000Y-11313941D02*
G75*
G02*
X19436000Y-11313941I-95000J0D01*
G01*
X19436000Y-11313941D02*
G75*
G02*
X19626000Y-11313941I95000J0D01*
G01*
X19626000Y-11313941D02*
G75*
G02*
X19436000Y-11313941I-95000J0D01*
G01*
X19436000Y-11313941D02*
G75*
G02*
X19626000Y-11313941I95000J0D01*
G01*
X20103000Y-4537500D02*
G75*
G02*
X19913000Y-4537500I-95000J0D01*
G01*
X19913000Y-4537500D02*
G75*
G02*
X20103000Y-4537500I95000J0D01*
G01*
X20103000Y-4537500D02*
G75*
G02*
X19913000Y-4537500I-95000J0D01*
G01*
X19913000Y-4537500D02*
G75*
G02*
X20103000Y-4537500I95000J0D01*
G01*
X20103000Y-6437500D02*
G75*
G02*
X19913000Y-6437500I-95000J0D01*
G01*
X19913000Y-6437500D02*
G75*
G02*
X20103000Y-6437500I95000J0D01*
G01*
X20103000Y-6437500D02*
G75*
G02*
X19913000Y-6437500I-95000J0D01*
G01*
X19913000Y-6437500D02*
G75*
G02*
X20103000Y-6437500I95000J0D01*
G01*
X20103000Y-8337500D02*
G75*
G02*
X19913000Y-8337500I-95000J0D01*
G01*
X19913000Y-8337500D02*
G75*
G02*
X20103000Y-8337500I95000J0D01*
G01*
X20103000Y-8337500D02*
G75*
G02*
X19913000Y-8337500I-95000J0D01*
G01*
X19913000Y-8337500D02*
G75*
G02*
X20103000Y-8337500I95000J0D01*
G01*
X20134000Y-10434059D02*
G75*
G02*
X19944000Y-10434059I-95000J0D01*
G01*
X19944000Y-10434059D02*
G75*
G02*
X20134000Y-10434059I95000J0D01*
G01*
X20134000Y-10434059D02*
G75*
G02*
X19944000Y-10434059I-95000J0D01*
G01*
X19944000Y-10434059D02*
G75*
G02*
X20134000Y-10434059I95000J0D01*
G01*
X21271450Y-12263941D02*
G75*
G02*
X21081450Y-12263941I-95000J0D01*
G01*
X21081450Y-12263941D02*
G75*
G02*
X21271450Y-12263941I95000J0D01*
G01*
X21271450Y-12263941D02*
G75*
G02*
X21081450Y-12263941I-95000J0D01*
G01*
X21081450Y-12263941D02*
G75*
G02*
X21271450Y-12263941I95000J0D01*
G01*
X21779450Y-11384059D02*
G75*
G02*
X21589450Y-11384059I-95000J0D01*
G01*
X21589450Y-11384059D02*
G75*
G02*
X21779450Y-11384059I95000J0D01*
G01*
X21779450Y-11384059D02*
G75*
G02*
X21589450Y-11384059I-95000J0D01*
G01*
X21589450Y-11384059D02*
G75*
G02*
X21779450Y-11384059I95000J0D01*
G01*
D14*
X20776200Y-8812600D02*
X20776200Y-9032600D01*
X20666200Y-8922600D02*
X20886200Y-8922600D01*
X22869400Y-10014500D02*
X22869400Y-10234500D01*
X22759400Y-10124500D02*
X22979400Y-10124500D01*
D15*
X9725067Y-4152067D02*
X9725067Y-3939933D01*
X9512933Y-3939933D01*
X9512933Y-4152067D01*
X9725067Y-4152067D01*
X9725067Y-6052067D02*
X9725067Y-5839933D01*
X9512933Y-5839933D01*
X9512933Y-6052067D01*
X9725067Y-6052067D01*
X9725067Y-7952067D02*
X9725067Y-7739933D01*
X9512933Y-7739933D01*
X9512933Y-7952067D01*
X9725067Y-7952067D01*
X9725067Y-9852067D02*
X9725067Y-9639933D01*
X9512933Y-9639933D01*
X9512933Y-9852067D01*
X9725067Y-9852067D01*
X9852067Y-3898067D02*
X9852067Y-3685933D01*
X9639933Y-3685933D01*
X9639933Y-3898067D01*
X9852067Y-3898067D01*
X9852067Y-5798067D02*
X9852067Y-5585933D01*
X9639933Y-5585933D01*
X9639933Y-5798067D01*
X9852067Y-5798067D01*
X9852067Y-7698067D02*
X9852067Y-7485933D01*
X9639933Y-7485933D01*
X9639933Y-7698067D01*
X9852067Y-7698067D01*
X9852067Y-9598067D02*
X9852067Y-9385933D01*
X9639933Y-9385933D01*
X9639933Y-9598067D01*
X9852067Y-9598067D01*
X10360067Y-3898067D02*
X10360067Y-3685933D01*
X10147933Y-3685933D01*
X10147933Y-3898067D01*
X10360067Y-3898067D01*
X10360067Y-5798067D02*
X10360067Y-5585933D01*
X10147933Y-5585933D01*
X10147933Y-5798067D01*
X10360067Y-5798067D01*
X10360067Y-7698067D02*
X10360067Y-7485933D01*
X10147933Y-7485933D01*
X10147933Y-7698067D01*
X10360067Y-7698067D01*
X10360067Y-9598067D02*
X10360067Y-9385933D01*
X10147933Y-9385933D01*
X10147933Y-9598067D01*
X10360067Y-9598067D01*
X10487067Y-4152067D02*
X10487067Y-3939933D01*
X10274933Y-3939933D01*
X10274933Y-4152067D01*
X10487067Y-4152067D01*
X10487067Y-6052067D02*
X10487067Y-5839933D01*
X10274933Y-5839933D01*
X10274933Y-6052067D01*
X10487067Y-6052067D01*
X10487067Y-7952067D02*
X10487067Y-7739933D01*
X10274933Y-7739933D01*
X10274933Y-7952067D01*
X10487067Y-7952067D01*
X10487067Y-9852067D02*
X10487067Y-9639933D01*
X10274933Y-9639933D01*
X10274933Y-9852067D01*
X10487067Y-9852067D01*
X11625067Y-3914567D02*
X11625067Y-3702433D01*
X11412933Y-3702433D01*
X11412933Y-3914567D01*
X11625067Y-3914567D01*
X11625067Y-5814567D02*
X11625067Y-5602433D01*
X11412933Y-5602433D01*
X11412933Y-5814567D01*
X11625067Y-5814567D01*
X11625067Y-7714567D02*
X11625067Y-7502433D01*
X11412933Y-7502433D01*
X11412933Y-7714567D01*
X11625067Y-7714567D01*
X11625067Y-9614567D02*
X11625067Y-9402433D01*
X11412933Y-9402433D01*
X11412933Y-9614567D01*
X11625067Y-9614567D01*
X11752067Y-3660567D02*
X11752067Y-3448433D01*
X11539933Y-3448433D01*
X11539933Y-3660567D01*
X11752067Y-3660567D01*
X11752067Y-5560567D02*
X11752067Y-5348433D01*
X11539933Y-5348433D01*
X11539933Y-5560567D01*
X11752067Y-5560567D01*
X11752067Y-7460567D02*
X11752067Y-7248433D01*
X11539933Y-7248433D01*
X11539933Y-7460567D01*
X11752067Y-7460567D01*
X11752067Y-9360567D02*
X11752067Y-9148433D01*
X11539933Y-9148433D01*
X11539933Y-9360567D01*
X11752067Y-9360567D01*
X12260067Y-3660567D02*
X12260067Y-3448433D01*
X12047933Y-3448433D01*
X12047933Y-3660567D01*
X12260067Y-3660567D01*
X12260067Y-5560567D02*
X12260067Y-5348433D01*
X12047933Y-5348433D01*
X12047933Y-5560567D01*
X12260067Y-5560567D01*
X12260067Y-7460567D02*
X12260067Y-7248433D01*
X12047933Y-7248433D01*
X12047933Y-7460567D01*
X12260067Y-7460567D01*
X12260067Y-9360567D02*
X12260067Y-9148433D01*
X12047933Y-9148433D01*
X12047933Y-9360567D01*
X12260067Y-9360567D01*
X12387067Y-3914567D02*
X12387067Y-3702433D01*
X12174933Y-3702433D01*
X12174933Y-3914567D01*
X12387067Y-3914567D01*
X12387067Y-5814567D02*
X12387067Y-5602433D01*
X12174933Y-5602433D01*
X12174933Y-5814567D01*
X12387067Y-5814567D01*
X12387067Y-7714567D02*
X12387067Y-7502433D01*
X12174933Y-7502433D01*
X12174933Y-7714567D01*
X12387067Y-7714567D01*
X12387067Y-9614567D02*
X12387067Y-9402433D01*
X12174933Y-9402433D01*
X12174933Y-9614567D01*
X12387067Y-9614567D01*
X13525067Y-4152067D02*
X13525067Y-3939933D01*
X13312933Y-3939933D01*
X13312933Y-4152067D01*
X13525067Y-4152067D01*
X13525067Y-6052067D02*
X13525067Y-5839933D01*
X13312933Y-5839933D01*
X13312933Y-6052067D01*
X13525067Y-6052067D01*
X13525067Y-7952067D02*
X13525067Y-7739933D01*
X13312933Y-7739933D01*
X13312933Y-7952067D01*
X13525067Y-7952067D01*
X13525067Y-9852067D02*
X13525067Y-9639933D01*
X13312933Y-9639933D01*
X13312933Y-9852067D01*
X13525067Y-9852067D01*
X13652067Y-3898067D02*
X13652067Y-3685933D01*
X13439933Y-3685933D01*
X13439933Y-3898067D01*
X13652067Y-3898067D01*
X13652067Y-5798067D02*
X13652067Y-5585933D01*
X13439933Y-5585933D01*
X13439933Y-5798067D01*
X13652067Y-5798067D01*
X13652067Y-7698067D02*
X13652067Y-7485933D01*
X13439933Y-7485933D01*
X13439933Y-7698067D01*
X13652067Y-7698067D01*
X13652067Y-9598067D02*
X13652067Y-9385933D01*
X13439933Y-9385933D01*
X13439933Y-9598067D01*
X13652067Y-9598067D01*
X14160067Y-3898067D02*
X14160067Y-3685933D01*
X13947933Y-3685933D01*
X13947933Y-3898067D01*
X14160067Y-3898067D01*
X14160067Y-5798067D02*
X14160067Y-5585933D01*
X13947933Y-5585933D01*
X13947933Y-5798067D01*
X14160067Y-5798067D01*
X14160067Y-7698067D02*
X14160067Y-7485933D01*
X13947933Y-7485933D01*
X13947933Y-7698067D01*
X14160067Y-7698067D01*
X14160067Y-9598067D02*
X14160067Y-9385933D01*
X13947933Y-9385933D01*
X13947933Y-9598067D01*
X14160067Y-9598067D01*
X14287067Y-4152067D02*
X14287067Y-3939933D01*
X14074933Y-3939933D01*
X14074933Y-4152067D01*
X14287067Y-4152067D01*
X14287067Y-6052067D02*
X14287067Y-5839933D01*
X14074933Y-5839933D01*
X14074933Y-6052067D01*
X14287067Y-6052067D01*
X14287067Y-7952067D02*
X14287067Y-7739933D01*
X14074933Y-7739933D01*
X14074933Y-7952067D01*
X14287067Y-7952067D01*
X14287067Y-9852067D02*
X14287067Y-9639933D01*
X14074933Y-9639933D01*
X14074933Y-9852067D01*
X14287067Y-9852067D01*
X15425067Y-3914567D02*
X15425067Y-3702433D01*
X15212933Y-3702433D01*
X15212933Y-3914567D01*
X15425067Y-3914567D01*
X15425067Y-5814567D02*
X15425067Y-5602433D01*
X15212933Y-5602433D01*
X15212933Y-5814567D01*
X15425067Y-5814567D01*
X15425067Y-7714567D02*
X15425067Y-7502433D01*
X15212933Y-7502433D01*
X15212933Y-7714567D01*
X15425067Y-7714567D01*
X15425067Y-9614567D02*
X15425067Y-9402433D01*
X15212933Y-9402433D01*
X15212933Y-9614567D01*
X15425067Y-9614567D01*
X15552067Y-3660567D02*
X15552067Y-3448433D01*
X15339933Y-3448433D01*
X15339933Y-3660567D01*
X15552067Y-3660567D01*
X15552067Y-5560567D02*
X15552067Y-5348433D01*
X15339933Y-5348433D01*
X15339933Y-5560567D01*
X15552067Y-5560567D01*
X15552067Y-7460567D02*
X15552067Y-7248433D01*
X15339933Y-7248433D01*
X15339933Y-7460567D01*
X15552067Y-7460567D01*
X15552067Y-9360567D02*
X15552067Y-9148433D01*
X15339933Y-9148433D01*
X15339933Y-9360567D01*
X15552067Y-9360567D01*
X16060067Y-3660567D02*
X16060067Y-3448433D01*
X15847933Y-3448433D01*
X15847933Y-3660567D01*
X16060067Y-3660567D01*
X16060067Y-5560567D02*
X16060067Y-5348433D01*
X15847933Y-5348433D01*
X15847933Y-5560567D01*
X16060067Y-5560567D01*
X16060067Y-7460567D02*
X16060067Y-7248433D01*
X15847933Y-7248433D01*
X15847933Y-7460567D01*
X16060067Y-7460567D01*
X16060067Y-9360567D02*
X16060067Y-9148433D01*
X15847933Y-9148433D01*
X15847933Y-9360567D01*
X16060067Y-9360567D01*
X16187067Y-3914567D02*
X16187067Y-3702433D01*
X15974933Y-3702433D01*
X15974933Y-3914567D01*
X16187067Y-3914567D01*
X16187067Y-5814567D02*
X16187067Y-5602433D01*
X15974933Y-5602433D01*
X15974933Y-5814567D01*
X16187067Y-5814567D01*
X16187067Y-7714567D02*
X16187067Y-7502433D01*
X15974933Y-7502433D01*
X15974933Y-7714567D01*
X16187067Y-7714567D01*
X16187067Y-9614567D02*
X16187067Y-9402433D01*
X15974933Y-9402433D01*
X15974933Y-9614567D01*
X16187067Y-9614567D01*
X17325067Y-4152067D02*
X17325067Y-3939933D01*
X17112933Y-3939933D01*
X17112933Y-4152067D01*
X17325067Y-4152067D01*
X17325067Y-6052067D02*
X17325067Y-5839933D01*
X17112933Y-5839933D01*
X17112933Y-6052067D01*
X17325067Y-6052067D01*
X17325067Y-7952067D02*
X17325067Y-7739933D01*
X17112933Y-7739933D01*
X17112933Y-7952067D01*
X17325067Y-7952067D01*
X17325067Y-9852067D02*
X17325067Y-9639933D01*
X17112933Y-9639933D01*
X17112933Y-9852067D01*
X17325067Y-9852067D01*
X17452067Y-3898067D02*
X17452067Y-3685933D01*
X17239933Y-3685933D01*
X17239933Y-3898067D01*
X17452067Y-3898067D01*
X17452067Y-5798067D02*
X17452067Y-5585933D01*
X17239933Y-5585933D01*
X17239933Y-5798067D01*
X17452067Y-5798067D01*
X17452067Y-7698067D02*
X17452067Y-7485933D01*
X17239933Y-7485933D01*
X17239933Y-7698067D01*
X17452067Y-7698067D01*
X17452067Y-9598067D02*
X17452067Y-9385933D01*
X17239933Y-9385933D01*
X17239933Y-9598067D01*
X17452067Y-9598067D01*
X17960067Y-3898067D02*
X17960067Y-3685933D01*
X17747933Y-3685933D01*
X17747933Y-3898067D01*
X17960067Y-3898067D01*
X17960067Y-5798067D02*
X17960067Y-5585933D01*
X17747933Y-5585933D01*
X17747933Y-5798067D01*
X17960067Y-5798067D01*
X17960067Y-7698067D02*
X17960067Y-7485933D01*
X17747933Y-7485933D01*
X17747933Y-7698067D01*
X17960067Y-7698067D01*
X17960067Y-9598067D02*
X17960067Y-9385933D01*
X17747933Y-9385933D01*
X17747933Y-9598067D01*
X17960067Y-9598067D01*
X18087067Y-4152067D02*
X18087067Y-3939933D01*
X17874933Y-3939933D01*
X17874933Y-4152067D01*
X18087067Y-4152067D01*
X18087067Y-6052067D02*
X18087067Y-5839933D01*
X17874933Y-5839933D01*
X17874933Y-6052067D01*
X18087067Y-6052067D01*
X18087067Y-7952067D02*
X18087067Y-7739933D01*
X17874933Y-7739933D01*
X17874933Y-7952067D01*
X18087067Y-7952067D01*
X18087067Y-9852067D02*
X18087067Y-9639933D01*
X17874933Y-9639933D01*
X17874933Y-9852067D01*
X18087067Y-9852067D01*
X19225067Y-4389567D02*
X19225067Y-4177433D01*
X19012933Y-4177433D01*
X19012933Y-4389567D01*
X19225067Y-4389567D01*
X19225067Y-6289567D02*
X19225067Y-6077433D01*
X19012933Y-6077433D01*
X19012933Y-6289567D01*
X19225067Y-6289567D01*
X19225067Y-8189567D02*
X19225067Y-7977433D01*
X19012933Y-7977433D01*
X19012933Y-8189567D01*
X19225067Y-8189567D01*
X19324126Y-10946038D02*
X19324126Y-10733904D01*
X19111992Y-10733904D01*
X19111992Y-10946038D01*
X19324126Y-10946038D01*
X19352067Y-4135567D02*
X19352067Y-3923433D01*
X19139933Y-3923433D01*
X19139933Y-4135567D01*
X19352067Y-4135567D01*
X19352067Y-6035567D02*
X19352067Y-5823433D01*
X19139933Y-5823433D01*
X19139933Y-6035567D01*
X19352067Y-6035567D01*
X19352067Y-7935567D02*
X19352067Y-7723433D01*
X19139933Y-7723433D01*
X19139933Y-7935567D01*
X19352067Y-7935567D01*
X19480597Y-11183023D02*
X19480597Y-10970889D01*
X19268463Y-10970889D01*
X19268463Y-11183023D01*
X19480597Y-11183023D01*
X19578126Y-10506097D02*
X19578126Y-10293963D01*
X19365992Y-10293963D01*
X19365992Y-10506097D01*
X19578126Y-10506097D01*
X19860067Y-4135567D02*
X19860067Y-3923433D01*
X19647933Y-3923433D01*
X19647933Y-4135567D01*
X19860067Y-4135567D01*
X19860067Y-6035567D02*
X19860067Y-5823433D01*
X19647933Y-5823433D01*
X19647933Y-6035567D01*
X19860067Y-6035567D01*
X19860067Y-7935567D02*
X19860067Y-7723433D01*
X19647933Y-7723433D01*
X19647933Y-7935567D01*
X19860067Y-7935567D01*
X19861597Y-10523111D02*
X19861597Y-10310977D01*
X19649463Y-10310977D01*
X19649463Y-10523111D01*
X19861597Y-10523111D01*
X19987067Y-4389567D02*
X19987067Y-4177433D01*
X19774933Y-4177433D01*
X19774933Y-4389567D01*
X19987067Y-4389567D01*
X19987067Y-6289567D02*
X19987067Y-6077433D01*
X19774933Y-6077433D01*
X19774933Y-6289567D01*
X19987067Y-6289567D01*
X19987067Y-8189567D02*
X19987067Y-7977433D01*
X19774933Y-7977433D01*
X19774933Y-8189567D01*
X19987067Y-8189567D01*
X20969576Y-11896037D02*
X20969576Y-11683903D01*
X20757442Y-11683903D01*
X20757442Y-11896037D01*
X20969576Y-11896037D01*
X21126047Y-12133023D02*
X21126047Y-11920889D01*
X20913913Y-11920889D01*
X20913913Y-12133023D01*
X21126047Y-12133023D01*
X21223576Y-11456096D02*
X21223576Y-11243962D01*
X21011442Y-11243962D01*
X21011442Y-11456096D01*
X21223576Y-11456096D01*
X21507047Y-11473111D02*
X21507047Y-11260977D01*
X21294913Y-11260977D01*
X21294913Y-11473111D01*
X21507047Y-11473111D01*
D16*
X10000000Y-4505000D02*
X10205000Y-4300000D01*
X10000000Y-4095000D01*
X9795000Y-4300000D01*
X10000000Y-4505000D01*
X10000000Y-4505000D02*
X10205000Y-4300000D01*
X10000000Y-4095000D01*
X9795000Y-4300000D01*
X10000000Y-4505000D01*
X10000000Y-6405000D02*
X10205000Y-6200000D01*
X10000000Y-5995000D01*
X9795000Y-6200000D01*
X10000000Y-6405000D01*
X10000000Y-6405000D02*
X10205000Y-6200000D01*
X10000000Y-5995000D01*
X9795000Y-6200000D01*
X10000000Y-6405000D01*
X10000000Y-8305000D02*
X10205000Y-8100000D01*
X10000000Y-7895000D01*
X9795000Y-8100000D01*
X10000000Y-8305000D01*
X10000000Y-8305000D02*
X10205000Y-8100000D01*
X10000000Y-7895000D01*
X9795000Y-8100000D01*
X10000000Y-8305000D01*
X10000000Y-10205000D02*
X10205000Y-10000000D01*
X10000000Y-9795000D01*
X9795000Y-10000000D01*
X10000000Y-10205000D01*
X10000000Y-10205000D02*
X10205000Y-10000000D01*
X10000000Y-9795000D01*
X9795000Y-10000000D01*
X10000000Y-10205000D01*
X11900000Y-4267500D02*
X12105000Y-4062500D01*
X11900000Y-3857500D01*
X11695000Y-4062500D01*
X11900000Y-4267500D01*
X11900000Y-4267500D02*
X12105000Y-4062500D01*
X11900000Y-3857500D01*
X11695000Y-4062500D01*
X11900000Y-4267500D01*
X11900000Y-6167500D02*
X12105000Y-5962500D01*
X11900000Y-5757500D01*
X11695000Y-5962500D01*
X11900000Y-6167500D01*
X11900000Y-6167500D02*
X12105000Y-5962500D01*
X11900000Y-5757500D01*
X11695000Y-5962500D01*
X11900000Y-6167500D01*
X11900000Y-8067500D02*
X12105000Y-7862500D01*
X11900000Y-7657500D01*
X11695000Y-7862500D01*
X11900000Y-8067500D01*
X11900000Y-8067500D02*
X12105000Y-7862500D01*
X11900000Y-7657500D01*
X11695000Y-7862500D01*
X11900000Y-8067500D01*
X11900000Y-9967500D02*
X12105000Y-9762500D01*
X11900000Y-9557500D01*
X11695000Y-9762500D01*
X11900000Y-9967500D01*
X11900000Y-9967500D02*
X12105000Y-9762500D01*
X11900000Y-9557500D01*
X11695000Y-9762500D01*
X11900000Y-9967500D01*
X13800000Y-4505000D02*
X14005000Y-4300000D01*
X13800000Y-4095000D01*
X13595000Y-4300000D01*
X13800000Y-4505000D01*
X13800000Y-4505000D02*
X14005000Y-4300000D01*
X13800000Y-4095000D01*
X13595000Y-4300000D01*
X13800000Y-4505000D01*
X13800000Y-6405000D02*
X14005000Y-6200000D01*
X13800000Y-5995000D01*
X13595000Y-6200000D01*
X13800000Y-6405000D01*
X13800000Y-6405000D02*
X14005000Y-6200000D01*
X13800000Y-5995000D01*
X13595000Y-6200000D01*
X13800000Y-6405000D01*
X13800000Y-8305000D02*
X14005000Y-8100000D01*
X13800000Y-7895000D01*
X13595000Y-8100000D01*
X13800000Y-8305000D01*
X13800000Y-8305000D02*
X14005000Y-8100000D01*
X13800000Y-7895000D01*
X13595000Y-8100000D01*
X13800000Y-8305000D01*
X13800000Y-10205000D02*
X14005000Y-10000000D01*
X13800000Y-9795000D01*
X13595000Y-10000000D01*
X13800000Y-10205000D01*
X13800000Y-10205000D02*
X14005000Y-10000000D01*
X13800000Y-9795000D01*
X13595000Y-10000000D01*
X13800000Y-10205000D01*
X15700000Y-4267500D02*
X15905000Y-4062500D01*
X15700000Y-3857500D01*
X15495000Y-4062500D01*
X15700000Y-4267500D01*
X15700000Y-4267500D02*
X15905000Y-4062500D01*
X15700000Y-3857500D01*
X15495000Y-4062500D01*
X15700000Y-4267500D01*
X15700000Y-6167500D02*
X15905000Y-5962500D01*
X15700000Y-5757500D01*
X15495000Y-5962500D01*
X15700000Y-6167500D01*
X15700000Y-6167500D02*
X15905000Y-5962500D01*
X15700000Y-5757500D01*
X15495000Y-5962500D01*
X15700000Y-6167500D01*
X15700000Y-8067500D02*
X15905000Y-7862500D01*
X15700000Y-7657500D01*
X15495000Y-7862500D01*
X15700000Y-8067500D01*
X15700000Y-8067500D02*
X15905000Y-7862500D01*
X15700000Y-7657500D01*
X15495000Y-7862500D01*
X15700000Y-8067500D01*
X15700000Y-9967500D02*
X15905000Y-9762500D01*
X15700000Y-9557500D01*
X15495000Y-9762500D01*
X15700000Y-9967500D01*
X15700000Y-9967500D02*
X15905000Y-9762500D01*
X15700000Y-9557500D01*
X15495000Y-9762500D01*
X15700000Y-9967500D01*
X17600000Y-4505000D02*
X17805000Y-4300000D01*
X17600000Y-4095000D01*
X17395000Y-4300000D01*
X17600000Y-4505000D01*
X17600000Y-4505000D02*
X17805000Y-4300000D01*
X17600000Y-4095000D01*
X17395000Y-4300000D01*
X17600000Y-4505000D01*
X17600000Y-6405000D02*
X17805000Y-6200000D01*
X17600000Y-5995000D01*
X17395000Y-6200000D01*
X17600000Y-6405000D01*
X17600000Y-6405000D02*
X17805000Y-6200000D01*
X17600000Y-5995000D01*
X17395000Y-6200000D01*
X17600000Y-6405000D01*
X17600000Y-8305000D02*
X17805000Y-8100000D01*
X17600000Y-7895000D01*
X17395000Y-8100000D01*
X17600000Y-8305000D01*
X17600000Y-8305000D02*
X17805000Y-8100000D01*
X17600000Y-7895000D01*
X17395000Y-8100000D01*
X17600000Y-8305000D01*
X17600000Y-10205000D02*
X17805000Y-10000000D01*
X17600000Y-9795000D01*
X17395000Y-10000000D01*
X17600000Y-10205000D01*
X17600000Y-10205000D02*
X17805000Y-10000000D01*
X17600000Y-9795000D01*
X17395000Y-10000000D01*
X17600000Y-10205000D01*
X19500000Y-4742500D02*
X19705000Y-4537500D01*
X19500000Y-4332500D01*
X19295000Y-4537500D01*
X19500000Y-4742500D01*
X19500000Y-4742500D02*
X19705000Y-4537500D01*
X19500000Y-4332500D01*
X19295000Y-4537500D01*
X19500000Y-4742500D01*
X19500000Y-6642500D02*
X19705000Y-6437500D01*
X19500000Y-6232500D01*
X19295000Y-6437500D01*
X19500000Y-6642500D01*
X19500000Y-6642500D02*
X19705000Y-6437500D01*
X19500000Y-6232500D01*
X19295000Y-6437500D01*
X19500000Y-6642500D01*
X19500000Y-8542500D02*
X19705000Y-8337500D01*
X19500000Y-8132500D01*
X19295000Y-8337500D01*
X19500000Y-8542500D01*
X19500000Y-8542500D02*
X19705000Y-8337500D01*
X19500000Y-8132500D01*
X19295000Y-8337500D01*
X19500000Y-8542500D01*
X19785000Y-11079000D02*
X19990000Y-10874000D01*
X19785000Y-10669000D01*
X19580000Y-10874000D01*
X19785000Y-11079000D01*
X19785000Y-11079000D02*
X19990000Y-10874000D01*
X19785000Y-10669000D01*
X19580000Y-10874000D01*
X19785000Y-11079000D01*
X21430450Y-12029000D02*
X21635450Y-11824000D01*
X21430450Y-11619000D01*
X21225450Y-11824000D01*
X21430450Y-12029000D01*
X21430450Y-12029000D02*
X21635450Y-11824000D01*
X21430450Y-11619000D01*
X21225450Y-11824000D01*
X21430450Y-12029000D01*
D17*
X10735000Y-4797500D02*
X11165000Y-5227500D01*
X11165000Y-4797500D02*
X10735000Y-5227500D01*
X11165000Y-5012500D02*
G75*
G02*
X10735000Y-5012500I-215000J0D01*
G01*
X10735000Y-5012500D02*
G75*
G02*
X11165000Y-5012500I215000J0D01*
G01*
X10735000Y-8597500D02*
X11165000Y-9027500D01*
X11165000Y-8597500D02*
X10735000Y-9027500D01*
X11165000Y-8812500D02*
G75*
G02*
X10735000Y-8812500I-215000J0D01*
G01*
X10735000Y-8812500D02*
G75*
G02*
X11165000Y-8812500I215000J0D01*
G01*
X14535000Y-6697500D02*
X14965000Y-7127500D01*
X14965000Y-6697500D02*
X14535000Y-7127500D01*
X14965000Y-6912500D02*
G75*
G02*
X14535000Y-6912500I-215000J0D01*
G01*
X14535000Y-6912500D02*
G75*
G02*
X14965000Y-6912500I215000J0D01*
G01*
X16431800Y-8711100D02*
X16861800Y-9141100D01*
X16861800Y-8711100D02*
X16431800Y-9141100D01*
X16861800Y-8926100D02*
G75*
G02*
X16431800Y-8926100I-215000J0D01*
G01*
X16431800Y-8926100D02*
G75*
G02*
X16861800Y-8926100I215000J0D01*
G01*
X18331800Y-5158600D02*
X18761800Y-5588600D01*
X18761800Y-5158600D02*
X18331800Y-5588600D01*
X18761800Y-5373600D02*
G75*
G02*
X18331800Y-5373600I-215000J0D01*
G01*
X18331800Y-5373600D02*
G75*
G02*
X18761800Y-5373600I215000J0D01*
G01*
X19917720Y-11956720D02*
X20347720Y-12386720D01*
X20347720Y-11956720D02*
X19917720Y-12386720D01*
X20347720Y-12171720D02*
G75*
G02*
X19917720Y-12171720I-215000J0D01*
G01*
X19917720Y-12171720D02*
G75*
G02*
X20347720Y-12171720I215000J0D01*
G01*
X20867720Y-10311280D02*
X21297720Y-10741280D01*
X21297720Y-10311280D02*
X20867720Y-10741280D01*
X21297720Y-10526280D02*
G75*
G02*
X20867720Y-10526280I-215000J0D01*
G01*
X20867720Y-10526280D02*
G75*
G02*
X21297720Y-10526280I215000J0D01*
G01*
D12*
X9361278Y-13774973D02*
X9361278Y-13574973D01*
X9361278Y-13574973D02*
X9408897Y-13574973D01*
X9408897Y-13574973D02*
X9437469Y-13584497D01*
X9437469Y-13584497D02*
X9456516Y-13603545D01*
X9456516Y-13603545D02*
X9466040Y-13622592D01*
X9466040Y-13622592D02*
X9475564Y-13660687D01*
X9475564Y-13660687D02*
X9475564Y-13689259D01*
X9475564Y-13689259D02*
X9466040Y-13727354D01*
X9466040Y-13727354D02*
X9456516Y-13746402D01*
X9456516Y-13746402D02*
X9437469Y-13765449D01*
X9437469Y-13765449D02*
X9408897Y-13774973D01*
X9408897Y-13774973D02*
X9361278Y-13774973D01*
X9561278Y-13774973D02*
X9561278Y-13641640D01*
X9561278Y-13679735D02*
X9570802Y-13660687D01*
X9570802Y-13660687D02*
X9580326Y-13651164D01*
X9580326Y-13651164D02*
X9599373Y-13641640D01*
X9599373Y-13641640D02*
X9618421Y-13641640D01*
X9685088Y-13774973D02*
X9685088Y-13641640D01*
X9685088Y-13574973D02*
X9675564Y-13584497D01*
X9675564Y-13584497D02*
X9685088Y-13594021D01*
X9685088Y-13594021D02*
X9694611Y-13584497D01*
X9694611Y-13584497D02*
X9685088Y-13574973D01*
X9685088Y-13574973D02*
X9685088Y-13594021D01*
X9808897Y-13774973D02*
X9789850Y-13765449D01*
X9789850Y-13765449D02*
X9780326Y-13746402D01*
X9780326Y-13746402D02*
X9780326Y-13574973D01*
X9913659Y-13774973D02*
X9894611Y-13765449D01*
X9894611Y-13765449D02*
X9885088Y-13746402D01*
X9885088Y-13746402D02*
X9885088Y-13574973D01*
X10142231Y-13774973D02*
X10142231Y-13574973D01*
X10142231Y-13574973D02*
X10208897Y-13717830D01*
X10208897Y-13717830D02*
X10275564Y-13574973D01*
X10275564Y-13574973D02*
X10275564Y-13774973D01*
X10456516Y-13774973D02*
X10456516Y-13670211D01*
X10456516Y-13670211D02*
X10446992Y-13651164D01*
X10446992Y-13651164D02*
X10427945Y-13641640D01*
X10427945Y-13641640D02*
X10389850Y-13641640D01*
X10389850Y-13641640D02*
X10370802Y-13651164D01*
X10456516Y-13765449D02*
X10437469Y-13774973D01*
X10437469Y-13774973D02*
X10389850Y-13774973D01*
X10389850Y-13774973D02*
X10370802Y-13765449D01*
X10370802Y-13765449D02*
X10361278Y-13746402D01*
X10361278Y-13746402D02*
X10361278Y-13727354D01*
X10361278Y-13727354D02*
X10370802Y-13708307D01*
X10370802Y-13708307D02*
X10389850Y-13698783D01*
X10389850Y-13698783D02*
X10437469Y-13698783D01*
X10437469Y-13698783D02*
X10456516Y-13689259D01*
X10551754Y-13641640D02*
X10551754Y-13841640D01*
X10551754Y-13651164D02*
X10570802Y-13641640D01*
X10570802Y-13641640D02*
X10608897Y-13641640D01*
X10608897Y-13641640D02*
X10627945Y-13651164D01*
X10627945Y-13651164D02*
X10637469Y-13660687D01*
X10637469Y-13660687D02*
X10646992Y-13679735D01*
X10646992Y-13679735D02*
X10646992Y-13736878D01*
X10646992Y-13736878D02*
X10637469Y-13755926D01*
X10637469Y-13755926D02*
X10627945Y-13765449D01*
X10627945Y-13765449D02*
X10608897Y-13774973D01*
X10608897Y-13774973D02*
X10570802Y-13774973D01*
X10570802Y-13774973D02*
X10551754Y-13765449D01*
X10732707Y-13755926D02*
X10742231Y-13765449D01*
X10742231Y-13765449D02*
X10732707Y-13774973D01*
X10732707Y-13774973D02*
X10723183Y-13765449D01*
X10723183Y-13765449D02*
X10732707Y-13755926D01*
X10732707Y-13755926D02*
X10732707Y-13774973D01*
X10732707Y-13651164D02*
X10742231Y-13660687D01*
X10742231Y-13660687D02*
X10732707Y-13670211D01*
X10732707Y-13670211D02*
X10723183Y-13660687D01*
X10723183Y-13660687D02*
X10732707Y-13651164D01*
X10732707Y-13651164D02*
X10732707Y-13670211D01*
D10*
X8950501Y-14028489D02*
X9100501Y-14178489D01*
X9100501Y-14028489D02*
X8950501Y-14178489D01*
D12*
X9466040Y-14194973D02*
X9351754Y-14194973D01*
X9408897Y-14194973D02*
X9408897Y-13994973D01*
X9408897Y-13994973D02*
X9389850Y-14023545D01*
X9389850Y-14023545D02*
X9370802Y-14042592D01*
X9370802Y-14042592D02*
X9351754Y-14052116D01*
X9551754Y-14175926D02*
X9561278Y-14185449D01*
X9561278Y-14185449D02*
X9551754Y-14194973D01*
X9551754Y-14194973D02*
X9542231Y-14185449D01*
X9542231Y-14185449D02*
X9551754Y-14175926D01*
X9551754Y-14175926D02*
X9551754Y-14194973D01*
X9742231Y-13994973D02*
X9646992Y-13994973D01*
X9646992Y-13994973D02*
X9637469Y-14090211D01*
X9637469Y-14090211D02*
X9646992Y-14080687D01*
X9646992Y-14080687D02*
X9666040Y-14071164D01*
X9666040Y-14071164D02*
X9713659Y-14071164D01*
X9713659Y-14071164D02*
X9732707Y-14080687D01*
X9732707Y-14080687D02*
X9742231Y-14090211D01*
X9742231Y-14090211D02*
X9751754Y-14109259D01*
X9751754Y-14109259D02*
X9751754Y-14156878D01*
X9751754Y-14156878D02*
X9742231Y-14175926D01*
X9742231Y-14175926D02*
X9732707Y-14185449D01*
X9732707Y-14185449D02*
X9713659Y-14194973D01*
X9713659Y-14194973D02*
X9666040Y-14194973D01*
X9666040Y-14194973D02*
X9646992Y-14185449D01*
X9646992Y-14185449D02*
X9637469Y-14175926D01*
X9875564Y-13994973D02*
X9894612Y-13994973D01*
X9894612Y-13994973D02*
X9913659Y-14004497D01*
X9913659Y-14004497D02*
X9923183Y-14014021D01*
X9923183Y-14014021D02*
X9932707Y-14033068D01*
X9932707Y-14033068D02*
X9942231Y-14071164D01*
X9942231Y-14071164D02*
X9942231Y-14118783D01*
X9942231Y-14118783D02*
X9932707Y-14156878D01*
X9932707Y-14156878D02*
X9923183Y-14175926D01*
X9923183Y-14175926D02*
X9913659Y-14185449D01*
X9913659Y-14185449D02*
X9894612Y-14194973D01*
X9894612Y-14194973D02*
X9875564Y-14194973D01*
X9875564Y-14194973D02*
X9856516Y-14185449D01*
X9856516Y-14185449D02*
X9846992Y-14175926D01*
X9846992Y-14175926D02*
X9837469Y-14156878D01*
X9837469Y-14156878D02*
X9827945Y-14118783D01*
X9827945Y-14118783D02*
X9827945Y-14071164D01*
X9827945Y-14071164D02*
X9837469Y-14033068D01*
X9837469Y-14033068D02*
X9846992Y-14014021D01*
X9846992Y-14014021D02*
X9856516Y-14004497D01*
X9856516Y-14004497D02*
X9875564Y-13994973D01*
X10066040Y-13994973D02*
X10085088Y-13994973D01*
X10085088Y-13994973D02*
X10104135Y-14004497D01*
X10104135Y-14004497D02*
X10113659Y-14014021D01*
X10113659Y-14014021D02*
X10123183Y-14033068D01*
X10123183Y-14033068D02*
X10132707Y-14071164D01*
X10132707Y-14071164D02*
X10132707Y-14118783D01*
X10132707Y-14118783D02*
X10123183Y-14156878D01*
X10123183Y-14156878D02*
X10113659Y-14175926D01*
X10113659Y-14175926D02*
X10104135Y-14185449D01*
X10104135Y-14185449D02*
X10085088Y-14194973D01*
X10085088Y-14194973D02*
X10066040Y-14194973D01*
X10066040Y-14194973D02*
X10046992Y-14185449D01*
X10046992Y-14185449D02*
X10037469Y-14175926D01*
X10037469Y-14175926D02*
X10027945Y-14156878D01*
X10027945Y-14156878D02*
X10018421Y-14118783D01*
X10018421Y-14118783D02*
X10018421Y-14071164D01*
X10018421Y-14071164D02*
X10027945Y-14033068D01*
X10027945Y-14033068D02*
X10037469Y-14014021D01*
X10037469Y-14014021D02*
X10046992Y-14004497D01*
X10046992Y-14004497D02*
X10066040Y-13994973D01*
X10218421Y-14194973D02*
X10218421Y-14061640D01*
X10218421Y-14080687D02*
X10227945Y-14071164D01*
X10227945Y-14071164D02*
X10246992Y-14061640D01*
X10246992Y-14061640D02*
X10275564Y-14061640D01*
X10275564Y-14061640D02*
X10294612Y-14071164D01*
X10294612Y-14071164D02*
X10304135Y-14090211D01*
X10304135Y-14090211D02*
X10304135Y-14194973D01*
X10304135Y-14090211D02*
X10313659Y-14071164D01*
X10313659Y-14071164D02*
X10332707Y-14061640D01*
X10332707Y-14061640D02*
X10361278Y-14061640D01*
X10361278Y-14061640D02*
X10380326Y-14071164D01*
X10380326Y-14071164D02*
X10389850Y-14090211D01*
X10389850Y-14090211D02*
X10389850Y-14194973D01*
X10485088Y-14194973D02*
X10485088Y-14061640D01*
X10485088Y-14080687D02*
X10494612Y-14071164D01*
X10494612Y-14071164D02*
X10513659Y-14061640D01*
X10513659Y-14061640D02*
X10542231Y-14061640D01*
X10542231Y-14061640D02*
X10561278Y-14071164D01*
X10561278Y-14071164D02*
X10570802Y-14090211D01*
X10570802Y-14090211D02*
X10570802Y-14194973D01*
X10570802Y-14090211D02*
X10580326Y-14071164D01*
X10580326Y-14071164D02*
X10599373Y-14061640D01*
X10599373Y-14061640D02*
X10627945Y-14061640D01*
X10627945Y-14061640D02*
X10646993Y-14071164D01*
X10646993Y-14071164D02*
X10656516Y-14090211D01*
X10656516Y-14090211D02*
X10656516Y-14194973D01*
X11046993Y-13985449D02*
X10875564Y-14242592D01*
X11304135Y-13994973D02*
X11323183Y-13994973D01*
X11323183Y-13994973D02*
X11342231Y-14004497D01*
X11342231Y-14004497D02*
X11351754Y-14014021D01*
X11351754Y-14014021D02*
X11361278Y-14033068D01*
X11361278Y-14033068D02*
X11370802Y-14071164D01*
X11370802Y-14071164D02*
X11370802Y-14118783D01*
X11370802Y-14118783D02*
X11361278Y-14156878D01*
X11361278Y-14156878D02*
X11351754Y-14175926D01*
X11351754Y-14175926D02*
X11342231Y-14185449D01*
X11342231Y-14185449D02*
X11323183Y-14194973D01*
X11323183Y-14194973D02*
X11304135Y-14194973D01*
X11304135Y-14194973D02*
X11285088Y-14185449D01*
X11285088Y-14185449D02*
X11275564Y-14175926D01*
X11275564Y-14175926D02*
X11266040Y-14156878D01*
X11266040Y-14156878D02*
X11256516Y-14118783D01*
X11256516Y-14118783D02*
X11256516Y-14071164D01*
X11256516Y-14071164D02*
X11266040Y-14033068D01*
X11266040Y-14033068D02*
X11275564Y-14014021D01*
X11275564Y-14014021D02*
X11285088Y-14004497D01*
X11285088Y-14004497D02*
X11304135Y-13994973D01*
X11456516Y-14175926D02*
X11466040Y-14185449D01*
X11466040Y-14185449D02*
X11456516Y-14194973D01*
X11456516Y-14194973D02*
X11446993Y-14185449D01*
X11446993Y-14185449D02*
X11456516Y-14175926D01*
X11456516Y-14175926D02*
X11456516Y-14194973D01*
X11589850Y-13994973D02*
X11608897Y-13994973D01*
X11608897Y-13994973D02*
X11627945Y-14004497D01*
X11627945Y-14004497D02*
X11637469Y-14014021D01*
X11637469Y-14014021D02*
X11646993Y-14033068D01*
X11646993Y-14033068D02*
X11656516Y-14071164D01*
X11656516Y-14071164D02*
X11656516Y-14118783D01*
X11656516Y-14118783D02*
X11646993Y-14156878D01*
X11646993Y-14156878D02*
X11637469Y-14175926D01*
X11637469Y-14175926D02*
X11627945Y-14185449D01*
X11627945Y-14185449D02*
X11608897Y-14194973D01*
X11608897Y-14194973D02*
X11589850Y-14194973D01*
X11589850Y-14194973D02*
X11570802Y-14185449D01*
X11570802Y-14185449D02*
X11561278Y-14175926D01*
X11561278Y-14175926D02*
X11551754Y-14156878D01*
X11551754Y-14156878D02*
X11542231Y-14118783D01*
X11542231Y-14118783D02*
X11542231Y-14071164D01*
X11542231Y-14071164D02*
X11551754Y-14033068D01*
X11551754Y-14033068D02*
X11561278Y-14014021D01*
X11561278Y-14014021D02*
X11570802Y-14004497D01*
X11570802Y-14004497D02*
X11589850Y-13994973D01*
X11837469Y-13994973D02*
X11742231Y-13994973D01*
X11742231Y-13994973D02*
X11732707Y-14090211D01*
X11732707Y-14090211D02*
X11742231Y-14080687D01*
X11742231Y-14080687D02*
X11761278Y-14071164D01*
X11761278Y-14071164D02*
X11808897Y-14071164D01*
X11808897Y-14071164D02*
X11827945Y-14080687D01*
X11827945Y-14080687D02*
X11837469Y-14090211D01*
X11837469Y-14090211D02*
X11846993Y-14109259D01*
X11846993Y-14109259D02*
X11846993Y-14156878D01*
X11846993Y-14156878D02*
X11837469Y-14175926D01*
X11837469Y-14175926D02*
X11827945Y-14185449D01*
X11827945Y-14185449D02*
X11808897Y-14194973D01*
X11808897Y-14194973D02*
X11761278Y-14194973D01*
X11761278Y-14194973D02*
X11742231Y-14185449D01*
X11742231Y-14185449D02*
X11732707Y-14175926D01*
X11942231Y-14194973D02*
X11980326Y-14194973D01*
X11980326Y-14194973D02*
X11999374Y-14185449D01*
X11999374Y-14185449D02*
X12008897Y-14175926D01*
X12008897Y-14175926D02*
X12027945Y-14147354D01*
X12027945Y-14147354D02*
X12037469Y-14109259D01*
X12037469Y-14109259D02*
X12037469Y-14033068D01*
X12037469Y-14033068D02*
X12027945Y-14014021D01*
X12027945Y-14014021D02*
X12018421Y-14004497D01*
X12018421Y-14004497D02*
X11999374Y-13994973D01*
X11999374Y-13994973D02*
X11961278Y-13994973D01*
X11961278Y-13994973D02*
X11942231Y-14004497D01*
X11942231Y-14004497D02*
X11932707Y-14014021D01*
X11932707Y-14014021D02*
X11923183Y-14033068D01*
X11923183Y-14033068D02*
X11923183Y-14080687D01*
X11923183Y-14080687D02*
X11932707Y-14099735D01*
X11932707Y-14099735D02*
X11942231Y-14109259D01*
X11942231Y-14109259D02*
X11961278Y-14118783D01*
X11961278Y-14118783D02*
X11999374Y-14118783D01*
X11999374Y-14118783D02*
X12018421Y-14109259D01*
X12018421Y-14109259D02*
X12027945Y-14099735D01*
X12027945Y-14099735D02*
X12037469Y-14080687D01*
X12227945Y-14194973D02*
X12113659Y-14194973D01*
X12170802Y-14194973D02*
X12170802Y-13994973D01*
X12170802Y-13994973D02*
X12151754Y-14023545D01*
X12151754Y-14023545D02*
X12132707Y-14042592D01*
X12132707Y-14042592D02*
X12113659Y-14052116D01*
X12304135Y-13994973D02*
X12304135Y-14033068D01*
X12380326Y-13994973D02*
X12380326Y-14033068D01*
X12675564Y-14271164D02*
X12666040Y-14261640D01*
X12666040Y-14261640D02*
X12646993Y-14233068D01*
X12646993Y-14233068D02*
X12637469Y-14214021D01*
X12637469Y-14214021D02*
X12627945Y-14185449D01*
X12627945Y-14185449D02*
X12618421Y-14137830D01*
X12618421Y-14137830D02*
X12618421Y-14099735D01*
X12618421Y-14099735D02*
X12627945Y-14052116D01*
X12627945Y-14052116D02*
X12637469Y-14023545D01*
X12637469Y-14023545D02*
X12646993Y-14004497D01*
X12646993Y-14004497D02*
X12666040Y-13975926D01*
X12666040Y-13975926D02*
X12675564Y-13966402D01*
X12742231Y-14014021D02*
X12751755Y-14004497D01*
X12751755Y-14004497D02*
X12770802Y-13994973D01*
X12770802Y-13994973D02*
X12818421Y-13994973D01*
X12818421Y-13994973D02*
X12837469Y-14004497D01*
X12837469Y-14004497D02*
X12846993Y-14014021D01*
X12846993Y-14014021D02*
X12856516Y-14033068D01*
X12856516Y-14033068D02*
X12856516Y-14052116D01*
X12856516Y-14052116D02*
X12846993Y-14080687D01*
X12846993Y-14080687D02*
X12732707Y-14194973D01*
X12732707Y-14194973D02*
X12856516Y-14194973D01*
X13094612Y-14194973D02*
X13094612Y-13994973D01*
X13180326Y-14194973D02*
X13180326Y-14090211D01*
X13180326Y-14090211D02*
X13170802Y-14071164D01*
X13170802Y-14071164D02*
X13151755Y-14061640D01*
X13151755Y-14061640D02*
X13123183Y-14061640D01*
X13123183Y-14061640D02*
X13104136Y-14071164D01*
X13104136Y-14071164D02*
X13094612Y-14080687D01*
X13304136Y-14194973D02*
X13285088Y-14185449D01*
X13285088Y-14185449D02*
X13275564Y-14175926D01*
X13275564Y-14175926D02*
X13266040Y-14156878D01*
X13266040Y-14156878D02*
X13266040Y-14099735D01*
X13266040Y-14099735D02*
X13275564Y-14080687D01*
X13275564Y-14080687D02*
X13285088Y-14071164D01*
X13285088Y-14071164D02*
X13304136Y-14061640D01*
X13304136Y-14061640D02*
X13332707Y-14061640D01*
X13332707Y-14061640D02*
X13351755Y-14071164D01*
X13351755Y-14071164D02*
X13361278Y-14080687D01*
X13361278Y-14080687D02*
X13370802Y-14099735D01*
X13370802Y-14099735D02*
X13370802Y-14156878D01*
X13370802Y-14156878D02*
X13361278Y-14175926D01*
X13361278Y-14175926D02*
X13351755Y-14185449D01*
X13351755Y-14185449D02*
X13332707Y-14194973D01*
X13332707Y-14194973D02*
X13304136Y-14194973D01*
X13485088Y-14194973D02*
X13466040Y-14185449D01*
X13466040Y-14185449D02*
X13456517Y-14166402D01*
X13456517Y-14166402D02*
X13456517Y-13994973D01*
X13637469Y-14185449D02*
X13618421Y-14194973D01*
X13618421Y-14194973D02*
X13580326Y-14194973D01*
X13580326Y-14194973D02*
X13561278Y-14185449D01*
X13561278Y-14185449D02*
X13551755Y-14166402D01*
X13551755Y-14166402D02*
X13551755Y-14090211D01*
X13551755Y-14090211D02*
X13561278Y-14071164D01*
X13561278Y-14071164D02*
X13580326Y-14061640D01*
X13580326Y-14061640D02*
X13618421Y-14061640D01*
X13618421Y-14061640D02*
X13637469Y-14071164D01*
X13637469Y-14071164D02*
X13646993Y-14090211D01*
X13646993Y-14090211D02*
X13646993Y-14109259D01*
X13646993Y-14109259D02*
X13551755Y-14128307D01*
X13723183Y-14185449D02*
X13742231Y-14194973D01*
X13742231Y-14194973D02*
X13780326Y-14194973D01*
X13780326Y-14194973D02*
X13799374Y-14185449D01*
X13799374Y-14185449D02*
X13808898Y-14166402D01*
X13808898Y-14166402D02*
X13808898Y-14156878D01*
X13808898Y-14156878D02*
X13799374Y-14137830D01*
X13799374Y-14137830D02*
X13780326Y-14128307D01*
X13780326Y-14128307D02*
X13751755Y-14128307D01*
X13751755Y-14128307D02*
X13732707Y-14118783D01*
X13732707Y-14118783D02*
X13723183Y-14099735D01*
X13723183Y-14099735D02*
X13723183Y-14090211D01*
X13723183Y-14090211D02*
X13732707Y-14071164D01*
X13732707Y-14071164D02*
X13751755Y-14061640D01*
X13751755Y-14061640D02*
X13780326Y-14061640D01*
X13780326Y-14061640D02*
X13799374Y-14071164D01*
X13875564Y-14271164D02*
X13885088Y-14261640D01*
X13885088Y-14261640D02*
X13904136Y-14233068D01*
X13904136Y-14233068D02*
X13913659Y-14214021D01*
X13913659Y-14214021D02*
X13923183Y-14185449D01*
X13923183Y-14185449D02*
X13932707Y-14137830D01*
X13932707Y-14137830D02*
X13932707Y-14099735D01*
X13932707Y-14099735D02*
X13923183Y-14052116D01*
X13923183Y-14052116D02*
X13913659Y-14023545D01*
X13913659Y-14023545D02*
X13904136Y-14004497D01*
X13904136Y-14004497D02*
X13885088Y-13975926D01*
X13885088Y-13975926D02*
X13875564Y-13966402D01*
X14237469Y-14271164D02*
X14227945Y-14261640D01*
X14227945Y-14261640D02*
X14208898Y-14233068D01*
X14208898Y-14233068D02*
X14199374Y-14214021D01*
X14199374Y-14214021D02*
X14189850Y-14185449D01*
X14189850Y-14185449D02*
X14180326Y-14137830D01*
X14180326Y-14137830D02*
X14180326Y-14099735D01*
X14180326Y-14099735D02*
X14189850Y-14052116D01*
X14189850Y-14052116D02*
X14199374Y-14023545D01*
X14199374Y-14023545D02*
X14208898Y-14004497D01*
X14208898Y-14004497D02*
X14227945Y-13975926D01*
X14227945Y-13975926D02*
X14237469Y-13966402D01*
X14313659Y-14061640D02*
X14313659Y-14194973D01*
X14313659Y-14080687D02*
X14323183Y-14071164D01*
X14323183Y-14071164D02*
X14342231Y-14061640D01*
X14342231Y-14061640D02*
X14370802Y-14061640D01*
X14370802Y-14061640D02*
X14389850Y-14071164D01*
X14389850Y-14071164D02*
X14399374Y-14090211D01*
X14399374Y-14090211D02*
X14399374Y-14194973D01*
X14523183Y-14194973D02*
X14504136Y-14185449D01*
X14504136Y-14185449D02*
X14494612Y-14175926D01*
X14494612Y-14175926D02*
X14485088Y-14156878D01*
X14485088Y-14156878D02*
X14485088Y-14099735D01*
X14485088Y-14099735D02*
X14494612Y-14080687D01*
X14494612Y-14080687D02*
X14504136Y-14071164D01*
X14504136Y-14071164D02*
X14523183Y-14061640D01*
X14523183Y-14061640D02*
X14551755Y-14061640D01*
X14551755Y-14061640D02*
X14570802Y-14071164D01*
X14570802Y-14071164D02*
X14580326Y-14080687D01*
X14580326Y-14080687D02*
X14589850Y-14099735D01*
X14589850Y-14099735D02*
X14589850Y-14156878D01*
X14589850Y-14156878D02*
X14580326Y-14175926D01*
X14580326Y-14175926D02*
X14570802Y-14185449D01*
X14570802Y-14185449D02*
X14551755Y-14194973D01*
X14551755Y-14194973D02*
X14523183Y-14194973D01*
X14646993Y-14061640D02*
X14723183Y-14061640D01*
X14675564Y-13994973D02*
X14675564Y-14166402D01*
X14675564Y-14166402D02*
X14685088Y-14185449D01*
X14685088Y-14185449D02*
X14704136Y-14194973D01*
X14704136Y-14194973D02*
X14723183Y-14194973D01*
X14942231Y-14061640D02*
X14942231Y-14261640D01*
X14942231Y-14071164D02*
X14961279Y-14061640D01*
X14961279Y-14061640D02*
X14999374Y-14061640D01*
X14999374Y-14061640D02*
X15018421Y-14071164D01*
X15018421Y-14071164D02*
X15027945Y-14080687D01*
X15027945Y-14080687D02*
X15037469Y-14099735D01*
X15037469Y-14099735D02*
X15037469Y-14156878D01*
X15037469Y-14156878D02*
X15027945Y-14175926D01*
X15027945Y-14175926D02*
X15018421Y-14185449D01*
X15018421Y-14185449D02*
X14999374Y-14194973D01*
X14999374Y-14194973D02*
X14961279Y-14194973D01*
X14961279Y-14194973D02*
X14942231Y-14185449D01*
X15151755Y-14194973D02*
X15132707Y-14185449D01*
X15132707Y-14185449D02*
X15123183Y-14166402D01*
X15123183Y-14166402D02*
X15123183Y-13994973D01*
X15313660Y-14194973D02*
X15313660Y-14090211D01*
X15313660Y-14090211D02*
X15304136Y-14071164D01*
X15304136Y-14071164D02*
X15285088Y-14061640D01*
X15285088Y-14061640D02*
X15246993Y-14061640D01*
X15246993Y-14061640D02*
X15227945Y-14071164D01*
X15313660Y-14185449D02*
X15294612Y-14194973D01*
X15294612Y-14194973D02*
X15246993Y-14194973D01*
X15246993Y-14194973D02*
X15227945Y-14185449D01*
X15227945Y-14185449D02*
X15218421Y-14166402D01*
X15218421Y-14166402D02*
X15218421Y-14147354D01*
X15218421Y-14147354D02*
X15227945Y-14128307D01*
X15227945Y-14128307D02*
X15246993Y-14118783D01*
X15246993Y-14118783D02*
X15294612Y-14118783D01*
X15294612Y-14118783D02*
X15313660Y-14109259D01*
X15380326Y-14061640D02*
X15456517Y-14061640D01*
X15408898Y-13994973D02*
X15408898Y-14166402D01*
X15408898Y-14166402D02*
X15418421Y-14185449D01*
X15418421Y-14185449D02*
X15437469Y-14194973D01*
X15437469Y-14194973D02*
X15456517Y-14194973D01*
X15599374Y-14185449D02*
X15580326Y-14194973D01*
X15580326Y-14194973D02*
X15542231Y-14194973D01*
X15542231Y-14194973D02*
X15523183Y-14185449D01*
X15523183Y-14185449D02*
X15513660Y-14166402D01*
X15513660Y-14166402D02*
X15513660Y-14090211D01*
X15513660Y-14090211D02*
X15523183Y-14071164D01*
X15523183Y-14071164D02*
X15542231Y-14061640D01*
X15542231Y-14061640D02*
X15580326Y-14061640D01*
X15580326Y-14061640D02*
X15599374Y-14071164D01*
X15599374Y-14071164D02*
X15608898Y-14090211D01*
X15608898Y-14090211D02*
X15608898Y-14109259D01*
X15608898Y-14109259D02*
X15513660Y-14128307D01*
X15780326Y-14194973D02*
X15780326Y-13994973D01*
X15780326Y-14185449D02*
X15761279Y-14194973D01*
X15761279Y-14194973D02*
X15723183Y-14194973D01*
X15723183Y-14194973D02*
X15704136Y-14185449D01*
X15704136Y-14185449D02*
X15694612Y-14175926D01*
X15694612Y-14175926D02*
X15685088Y-14156878D01*
X15685088Y-14156878D02*
X15685088Y-14099735D01*
X15685088Y-14099735D02*
X15694612Y-14080687D01*
X15694612Y-14080687D02*
X15704136Y-14071164D01*
X15704136Y-14071164D02*
X15723183Y-14061640D01*
X15723183Y-14061640D02*
X15761279Y-14061640D01*
X15761279Y-14061640D02*
X15780326Y-14071164D01*
X15856517Y-14271164D02*
X15866041Y-14261640D01*
X15866041Y-14261640D02*
X15885088Y-14233068D01*
X15885088Y-14233068D02*
X15894612Y-14214021D01*
X15894612Y-14214021D02*
X15904136Y-14185449D01*
X15904136Y-14185449D02*
X15913660Y-14137830D01*
X15913660Y-14137830D02*
X15913660Y-14099735D01*
X15913660Y-14099735D02*
X15904136Y-14052116D01*
X15904136Y-14052116D02*
X15894612Y-14023545D01*
X15894612Y-14023545D02*
X15885088Y-14004497D01*
X15885088Y-14004497D02*
X15866041Y-13975926D01*
X15866041Y-13975926D02*
X15856517Y-13966402D01*
D13*
X9100501Y-14373489D02*
G75*
G02*
X8910501Y-14373489I-95000J0D01*
G01*
X8910501Y-14373489D02*
G75*
G02*
X9100501Y-14373489I95000J0D01*
G01*
D12*
X9466040Y-14464973D02*
X9351754Y-14464973D01*
X9408897Y-14464973D02*
X9408897Y-14264973D01*
X9408897Y-14264973D02*
X9389850Y-14293545D01*
X9389850Y-14293545D02*
X9370802Y-14312592D01*
X9370802Y-14312592D02*
X9351754Y-14322116D01*
X9551754Y-14445926D02*
X9561278Y-14455449D01*
X9561278Y-14455449D02*
X9551754Y-14464973D01*
X9551754Y-14464973D02*
X9542231Y-14455449D01*
X9542231Y-14455449D02*
X9551754Y-14445926D01*
X9551754Y-14445926D02*
X9551754Y-14464973D01*
X9656516Y-14464973D02*
X9694611Y-14464973D01*
X9694611Y-14464973D02*
X9713659Y-14455449D01*
X9713659Y-14455449D02*
X9723183Y-14445926D01*
X9723183Y-14445926D02*
X9742231Y-14417354D01*
X9742231Y-14417354D02*
X9751754Y-14379259D01*
X9751754Y-14379259D02*
X9751754Y-14303068D01*
X9751754Y-14303068D02*
X9742231Y-14284021D01*
X9742231Y-14284021D02*
X9732707Y-14274497D01*
X9732707Y-14274497D02*
X9713659Y-14264973D01*
X9713659Y-14264973D02*
X9675564Y-14264973D01*
X9675564Y-14264973D02*
X9656516Y-14274497D01*
X9656516Y-14274497D02*
X9646992Y-14284021D01*
X9646992Y-14284021D02*
X9637469Y-14303068D01*
X9637469Y-14303068D02*
X9637469Y-14350687D01*
X9637469Y-14350687D02*
X9646992Y-14369735D01*
X9646992Y-14369735D02*
X9656516Y-14379259D01*
X9656516Y-14379259D02*
X9675564Y-14388783D01*
X9675564Y-14388783D02*
X9713659Y-14388783D01*
X9713659Y-14388783D02*
X9732707Y-14379259D01*
X9732707Y-14379259D02*
X9742231Y-14369735D01*
X9742231Y-14369735D02*
X9751754Y-14350687D01*
X9875564Y-14264973D02*
X9894612Y-14264973D01*
X9894612Y-14264973D02*
X9913659Y-14274497D01*
X9913659Y-14274497D02*
X9923183Y-14284021D01*
X9923183Y-14284021D02*
X9932707Y-14303068D01*
X9932707Y-14303068D02*
X9942231Y-14341164D01*
X9942231Y-14341164D02*
X9942231Y-14388783D01*
X9942231Y-14388783D02*
X9932707Y-14426878D01*
X9932707Y-14426878D02*
X9923183Y-14445926D01*
X9923183Y-14445926D02*
X9913659Y-14455449D01*
X9913659Y-14455449D02*
X9894612Y-14464973D01*
X9894612Y-14464973D02*
X9875564Y-14464973D01*
X9875564Y-14464973D02*
X9856516Y-14455449D01*
X9856516Y-14455449D02*
X9846992Y-14445926D01*
X9846992Y-14445926D02*
X9837469Y-14426878D01*
X9837469Y-14426878D02*
X9827945Y-14388783D01*
X9827945Y-14388783D02*
X9827945Y-14341164D01*
X9827945Y-14341164D02*
X9837469Y-14303068D01*
X9837469Y-14303068D02*
X9846992Y-14284021D01*
X9846992Y-14284021D02*
X9856516Y-14274497D01*
X9856516Y-14274497D02*
X9875564Y-14264973D01*
X10066040Y-14264973D02*
X10085088Y-14264973D01*
X10085088Y-14264973D02*
X10104135Y-14274497D01*
X10104135Y-14274497D02*
X10113659Y-14284021D01*
X10113659Y-14284021D02*
X10123183Y-14303068D01*
X10123183Y-14303068D02*
X10132707Y-14341164D01*
X10132707Y-14341164D02*
X10132707Y-14388783D01*
X10132707Y-14388783D02*
X10123183Y-14426878D01*
X10123183Y-14426878D02*
X10113659Y-14445926D01*
X10113659Y-14445926D02*
X10104135Y-14455449D01*
X10104135Y-14455449D02*
X10085088Y-14464973D01*
X10085088Y-14464973D02*
X10066040Y-14464973D01*
X10066040Y-14464973D02*
X10046992Y-14455449D01*
X10046992Y-14455449D02*
X10037469Y-14445926D01*
X10037469Y-14445926D02*
X10027945Y-14426878D01*
X10027945Y-14426878D02*
X10018421Y-14388783D01*
X10018421Y-14388783D02*
X10018421Y-14341164D01*
X10018421Y-14341164D02*
X10027945Y-14303068D01*
X10027945Y-14303068D02*
X10037469Y-14284021D01*
X10037469Y-14284021D02*
X10046992Y-14274497D01*
X10046992Y-14274497D02*
X10066040Y-14264973D01*
X10218421Y-14464973D02*
X10218421Y-14331640D01*
X10218421Y-14350687D02*
X10227945Y-14341164D01*
X10227945Y-14341164D02*
X10246992Y-14331640D01*
X10246992Y-14331640D02*
X10275564Y-14331640D01*
X10275564Y-14331640D02*
X10294612Y-14341164D01*
X10294612Y-14341164D02*
X10304135Y-14360211D01*
X10304135Y-14360211D02*
X10304135Y-14464973D01*
X10304135Y-14360211D02*
X10313659Y-14341164D01*
X10313659Y-14341164D02*
X10332707Y-14331640D01*
X10332707Y-14331640D02*
X10361278Y-14331640D01*
X10361278Y-14331640D02*
X10380326Y-14341164D01*
X10380326Y-14341164D02*
X10389850Y-14360211D01*
X10389850Y-14360211D02*
X10389850Y-14464973D01*
X10485088Y-14464973D02*
X10485088Y-14331640D01*
X10485088Y-14350687D02*
X10494612Y-14341164D01*
X10494612Y-14341164D02*
X10513659Y-14331640D01*
X10513659Y-14331640D02*
X10542231Y-14331640D01*
X10542231Y-14331640D02*
X10561278Y-14341164D01*
X10561278Y-14341164D02*
X10570802Y-14360211D01*
X10570802Y-14360211D02*
X10570802Y-14464973D01*
X10570802Y-14360211D02*
X10580326Y-14341164D01*
X10580326Y-14341164D02*
X10599373Y-14331640D01*
X10599373Y-14331640D02*
X10627945Y-14331640D01*
X10627945Y-14331640D02*
X10646993Y-14341164D01*
X10646993Y-14341164D02*
X10656516Y-14360211D01*
X10656516Y-14360211D02*
X10656516Y-14464973D01*
X11046993Y-14255449D02*
X10875564Y-14512592D01*
X11304135Y-14264973D02*
X11323183Y-14264973D01*
X11323183Y-14264973D02*
X11342231Y-14274497D01*
X11342231Y-14274497D02*
X11351754Y-14284021D01*
X11351754Y-14284021D02*
X11361278Y-14303068D01*
X11361278Y-14303068D02*
X11370802Y-14341164D01*
X11370802Y-14341164D02*
X11370802Y-14388783D01*
X11370802Y-14388783D02*
X11361278Y-14426878D01*
X11361278Y-14426878D02*
X11351754Y-14445926D01*
X11351754Y-14445926D02*
X11342231Y-14455449D01*
X11342231Y-14455449D02*
X11323183Y-14464973D01*
X11323183Y-14464973D02*
X11304135Y-14464973D01*
X11304135Y-14464973D02*
X11285088Y-14455449D01*
X11285088Y-14455449D02*
X11275564Y-14445926D01*
X11275564Y-14445926D02*
X11266040Y-14426878D01*
X11266040Y-14426878D02*
X11256516Y-14388783D01*
X11256516Y-14388783D02*
X11256516Y-14341164D01*
X11256516Y-14341164D02*
X11266040Y-14303068D01*
X11266040Y-14303068D02*
X11275564Y-14284021D01*
X11275564Y-14284021D02*
X11285088Y-14274497D01*
X11285088Y-14274497D02*
X11304135Y-14264973D01*
X11456516Y-14445926D02*
X11466040Y-14455449D01*
X11466040Y-14455449D02*
X11456516Y-14464973D01*
X11456516Y-14464973D02*
X11446993Y-14455449D01*
X11446993Y-14455449D02*
X11456516Y-14445926D01*
X11456516Y-14445926D02*
X11456516Y-14464973D01*
X11589850Y-14264973D02*
X11608897Y-14264973D01*
X11608897Y-14264973D02*
X11627945Y-14274497D01*
X11627945Y-14274497D02*
X11637469Y-14284021D01*
X11637469Y-14284021D02*
X11646993Y-14303068D01*
X11646993Y-14303068D02*
X11656516Y-14341164D01*
X11656516Y-14341164D02*
X11656516Y-14388783D01*
X11656516Y-14388783D02*
X11646993Y-14426878D01*
X11646993Y-14426878D02*
X11637469Y-14445926D01*
X11637469Y-14445926D02*
X11627945Y-14455449D01*
X11627945Y-14455449D02*
X11608897Y-14464973D01*
X11608897Y-14464973D02*
X11589850Y-14464973D01*
X11589850Y-14464973D02*
X11570802Y-14455449D01*
X11570802Y-14455449D02*
X11561278Y-14445926D01*
X11561278Y-14445926D02*
X11551754Y-14426878D01*
X11551754Y-14426878D02*
X11542231Y-14388783D01*
X11542231Y-14388783D02*
X11542231Y-14341164D01*
X11542231Y-14341164D02*
X11551754Y-14303068D01*
X11551754Y-14303068D02*
X11561278Y-14284021D01*
X11561278Y-14284021D02*
X11570802Y-14274497D01*
X11570802Y-14274497D02*
X11589850Y-14264973D01*
X11723183Y-14264973D02*
X11856516Y-14264973D01*
X11856516Y-14264973D02*
X11770802Y-14464973D01*
X12018421Y-14331640D02*
X12018421Y-14464973D01*
X11970802Y-14255449D02*
X11923183Y-14398307D01*
X11923183Y-14398307D02*
X12046993Y-14398307D01*
X12151754Y-14350687D02*
X12132707Y-14341164D01*
X12132707Y-14341164D02*
X12123183Y-14331640D01*
X12123183Y-14331640D02*
X12113659Y-14312592D01*
X12113659Y-14312592D02*
X12113659Y-14303068D01*
X12113659Y-14303068D02*
X12123183Y-14284021D01*
X12123183Y-14284021D02*
X12132707Y-14274497D01*
X12132707Y-14274497D02*
X12151754Y-14264973D01*
X12151754Y-14264973D02*
X12189850Y-14264973D01*
X12189850Y-14264973D02*
X12208897Y-14274497D01*
X12208897Y-14274497D02*
X12218421Y-14284021D01*
X12218421Y-14284021D02*
X12227945Y-14303068D01*
X12227945Y-14303068D02*
X12227945Y-14312592D01*
X12227945Y-14312592D02*
X12218421Y-14331640D01*
X12218421Y-14331640D02*
X12208897Y-14341164D01*
X12208897Y-14341164D02*
X12189850Y-14350687D01*
X12189850Y-14350687D02*
X12151754Y-14350687D01*
X12151754Y-14350687D02*
X12132707Y-14360211D01*
X12132707Y-14360211D02*
X12123183Y-14369735D01*
X12123183Y-14369735D02*
X12113659Y-14388783D01*
X12113659Y-14388783D02*
X12113659Y-14426878D01*
X12113659Y-14426878D02*
X12123183Y-14445926D01*
X12123183Y-14445926D02*
X12132707Y-14455449D01*
X12132707Y-14455449D02*
X12151754Y-14464973D01*
X12151754Y-14464973D02*
X12189850Y-14464973D01*
X12189850Y-14464973D02*
X12208897Y-14455449D01*
X12208897Y-14455449D02*
X12218421Y-14445926D01*
X12218421Y-14445926D02*
X12227945Y-14426878D01*
X12227945Y-14426878D02*
X12227945Y-14388783D01*
X12227945Y-14388783D02*
X12218421Y-14369735D01*
X12218421Y-14369735D02*
X12208897Y-14360211D01*
X12208897Y-14360211D02*
X12189850Y-14350687D01*
X12304135Y-14264973D02*
X12304135Y-14303068D01*
X12380326Y-14264973D02*
X12380326Y-14303068D01*
X12675564Y-14541164D02*
X12666040Y-14531640D01*
X12666040Y-14531640D02*
X12646993Y-14503068D01*
X12646993Y-14503068D02*
X12637469Y-14484021D01*
X12637469Y-14484021D02*
X12627945Y-14455449D01*
X12627945Y-14455449D02*
X12618421Y-14407830D01*
X12618421Y-14407830D02*
X12618421Y-14369735D01*
X12618421Y-14369735D02*
X12627945Y-14322116D01*
X12627945Y-14322116D02*
X12637469Y-14293545D01*
X12637469Y-14293545D02*
X12646993Y-14274497D01*
X12646993Y-14274497D02*
X12666040Y-14245926D01*
X12666040Y-14245926D02*
X12675564Y-14236402D01*
X12856516Y-14464973D02*
X12742231Y-14464973D01*
X12799374Y-14464973D02*
X12799374Y-14264973D01*
X12799374Y-14264973D02*
X12780326Y-14293545D01*
X12780326Y-14293545D02*
X12761278Y-14312592D01*
X12761278Y-14312592D02*
X12742231Y-14322116D01*
X12980326Y-14264973D02*
X12999374Y-14264973D01*
X12999374Y-14264973D02*
X13018421Y-14274497D01*
X13018421Y-14274497D02*
X13027945Y-14284021D01*
X13027945Y-14284021D02*
X13037469Y-14303068D01*
X13037469Y-14303068D02*
X13046993Y-14341164D01*
X13046993Y-14341164D02*
X13046993Y-14388783D01*
X13046993Y-14388783D02*
X13037469Y-14426878D01*
X13037469Y-14426878D02*
X13027945Y-14445926D01*
X13027945Y-14445926D02*
X13018421Y-14455449D01*
X13018421Y-14455449D02*
X12999374Y-14464973D01*
X12999374Y-14464973D02*
X12980326Y-14464973D01*
X12980326Y-14464973D02*
X12961278Y-14455449D01*
X12961278Y-14455449D02*
X12951755Y-14445926D01*
X12951755Y-14445926D02*
X12942231Y-14426878D01*
X12942231Y-14426878D02*
X12932707Y-14388783D01*
X12932707Y-14388783D02*
X12932707Y-14341164D01*
X12932707Y-14341164D02*
X12942231Y-14303068D01*
X12942231Y-14303068D02*
X12951755Y-14284021D01*
X12951755Y-14284021D02*
X12961278Y-14274497D01*
X12961278Y-14274497D02*
X12980326Y-14264973D01*
X13170802Y-14264973D02*
X13189850Y-14264973D01*
X13189850Y-14264973D02*
X13208897Y-14274497D01*
X13208897Y-14274497D02*
X13218421Y-14284021D01*
X13218421Y-14284021D02*
X13227945Y-14303068D01*
X13227945Y-14303068D02*
X13237469Y-14341164D01*
X13237469Y-14341164D02*
X13237469Y-14388783D01*
X13237469Y-14388783D02*
X13227945Y-14426878D01*
X13227945Y-14426878D02*
X13218421Y-14445926D01*
X13218421Y-14445926D02*
X13208897Y-14455449D01*
X13208897Y-14455449D02*
X13189850Y-14464973D01*
X13189850Y-14464973D02*
X13170802Y-14464973D01*
X13170802Y-14464973D02*
X13151755Y-14455449D01*
X13151755Y-14455449D02*
X13142231Y-14445926D01*
X13142231Y-14445926D02*
X13132707Y-14426878D01*
X13132707Y-14426878D02*
X13123183Y-14388783D01*
X13123183Y-14388783D02*
X13123183Y-14341164D01*
X13123183Y-14341164D02*
X13132707Y-14303068D01*
X13132707Y-14303068D02*
X13142231Y-14284021D01*
X13142231Y-14284021D02*
X13151755Y-14274497D01*
X13151755Y-14274497D02*
X13170802Y-14264973D01*
X13475564Y-14464973D02*
X13475564Y-14264973D01*
X13561278Y-14464973D02*
X13561278Y-14360211D01*
X13561278Y-14360211D02*
X13551755Y-14341164D01*
X13551755Y-14341164D02*
X13532707Y-14331640D01*
X13532707Y-14331640D02*
X13504136Y-14331640D01*
X13504136Y-14331640D02*
X13485088Y-14341164D01*
X13485088Y-14341164D02*
X13475564Y-14350687D01*
X13685088Y-14464973D02*
X13666040Y-14455449D01*
X13666040Y-14455449D02*
X13656517Y-14445926D01*
X13656517Y-14445926D02*
X13646993Y-14426878D01*
X13646993Y-14426878D02*
X13646993Y-14369735D01*
X13646993Y-14369735D02*
X13656517Y-14350687D01*
X13656517Y-14350687D02*
X13666040Y-14341164D01*
X13666040Y-14341164D02*
X13685088Y-14331640D01*
X13685088Y-14331640D02*
X13713659Y-14331640D01*
X13713659Y-14331640D02*
X13732707Y-14341164D01*
X13732707Y-14341164D02*
X13742231Y-14350687D01*
X13742231Y-14350687D02*
X13751755Y-14369735D01*
X13751755Y-14369735D02*
X13751755Y-14426878D01*
X13751755Y-14426878D02*
X13742231Y-14445926D01*
X13742231Y-14445926D02*
X13732707Y-14455449D01*
X13732707Y-14455449D02*
X13713659Y-14464973D01*
X13713659Y-14464973D02*
X13685088Y-14464973D01*
X13866040Y-14464973D02*
X13846993Y-14455449D01*
X13846993Y-14455449D02*
X13837469Y-14436402D01*
X13837469Y-14436402D02*
X13837469Y-14264973D01*
X14018421Y-14455449D02*
X13999374Y-14464973D01*
X13999374Y-14464973D02*
X13961278Y-14464973D01*
X13961278Y-14464973D02*
X13942231Y-14455449D01*
X13942231Y-14455449D02*
X13932707Y-14436402D01*
X13932707Y-14436402D02*
X13932707Y-14360211D01*
X13932707Y-14360211D02*
X13942231Y-14341164D01*
X13942231Y-14341164D02*
X13961278Y-14331640D01*
X13961278Y-14331640D02*
X13999374Y-14331640D01*
X13999374Y-14331640D02*
X14018421Y-14341164D01*
X14018421Y-14341164D02*
X14027945Y-14360211D01*
X14027945Y-14360211D02*
X14027945Y-14379259D01*
X14027945Y-14379259D02*
X13932707Y-14398307D01*
X14104136Y-14455449D02*
X14123183Y-14464973D01*
X14123183Y-14464973D02*
X14161278Y-14464973D01*
X14161278Y-14464973D02*
X14180326Y-14455449D01*
X14180326Y-14455449D02*
X14189850Y-14436402D01*
X14189850Y-14436402D02*
X14189850Y-14426878D01*
X14189850Y-14426878D02*
X14180326Y-14407830D01*
X14180326Y-14407830D02*
X14161278Y-14398307D01*
X14161278Y-14398307D02*
X14132707Y-14398307D01*
X14132707Y-14398307D02*
X14113659Y-14388783D01*
X14113659Y-14388783D02*
X14104136Y-14369735D01*
X14104136Y-14369735D02*
X14104136Y-14360211D01*
X14104136Y-14360211D02*
X14113659Y-14341164D01*
X14113659Y-14341164D02*
X14132707Y-14331640D01*
X14132707Y-14331640D02*
X14161278Y-14331640D01*
X14161278Y-14331640D02*
X14180326Y-14341164D01*
X14256517Y-14541164D02*
X14266040Y-14531640D01*
X14266040Y-14531640D02*
X14285088Y-14503068D01*
X14285088Y-14503068D02*
X14294612Y-14484021D01*
X14294612Y-14484021D02*
X14304136Y-14455449D01*
X14304136Y-14455449D02*
X14313659Y-14407830D01*
X14313659Y-14407830D02*
X14313659Y-14369735D01*
X14313659Y-14369735D02*
X14304136Y-14322116D01*
X14304136Y-14322116D02*
X14294612Y-14293545D01*
X14294612Y-14293545D02*
X14285088Y-14274497D01*
X14285088Y-14274497D02*
X14266040Y-14245926D01*
X14266040Y-14245926D02*
X14256517Y-14236402D01*
X14618421Y-14541164D02*
X14608898Y-14531640D01*
X14608898Y-14531640D02*
X14589850Y-14503068D01*
X14589850Y-14503068D02*
X14580326Y-14484021D01*
X14580326Y-14484021D02*
X14570802Y-14455449D01*
X14570802Y-14455449D02*
X14561279Y-14407830D01*
X14561279Y-14407830D02*
X14561279Y-14369735D01*
X14561279Y-14369735D02*
X14570802Y-14322116D01*
X14570802Y-14322116D02*
X14580326Y-14293545D01*
X14580326Y-14293545D02*
X14589850Y-14274497D01*
X14589850Y-14274497D02*
X14608898Y-14245926D01*
X14608898Y-14245926D02*
X14618421Y-14236402D01*
X14694612Y-14331640D02*
X14694612Y-14464973D01*
X14694612Y-14350687D02*
X14704136Y-14341164D01*
X14704136Y-14341164D02*
X14723183Y-14331640D01*
X14723183Y-14331640D02*
X14751755Y-14331640D01*
X14751755Y-14331640D02*
X14770802Y-14341164D01*
X14770802Y-14341164D02*
X14780326Y-14360211D01*
X14780326Y-14360211D02*
X14780326Y-14464973D01*
X14904136Y-14464973D02*
X14885088Y-14455449D01*
X14885088Y-14455449D02*
X14875564Y-14445926D01*
X14875564Y-14445926D02*
X14866040Y-14426878D01*
X14866040Y-14426878D02*
X14866040Y-14369735D01*
X14866040Y-14369735D02*
X14875564Y-14350687D01*
X14875564Y-14350687D02*
X14885088Y-14341164D01*
X14885088Y-14341164D02*
X14904136Y-14331640D01*
X14904136Y-14331640D02*
X14932707Y-14331640D01*
X14932707Y-14331640D02*
X14951755Y-14341164D01*
X14951755Y-14341164D02*
X14961279Y-14350687D01*
X14961279Y-14350687D02*
X14970802Y-14369735D01*
X14970802Y-14369735D02*
X14970802Y-14426878D01*
X14970802Y-14426878D02*
X14961279Y-14445926D01*
X14961279Y-14445926D02*
X14951755Y-14455449D01*
X14951755Y-14455449D02*
X14932707Y-14464973D01*
X14932707Y-14464973D02*
X14904136Y-14464973D01*
X15027945Y-14331640D02*
X15104136Y-14331640D01*
X15056517Y-14264973D02*
X15056517Y-14436402D01*
X15056517Y-14436402D02*
X15066040Y-14455449D01*
X15066040Y-14455449D02*
X15085088Y-14464973D01*
X15085088Y-14464973D02*
X15104136Y-14464973D01*
X15323183Y-14331640D02*
X15323183Y-14531640D01*
X15323183Y-14341164D02*
X15342231Y-14331640D01*
X15342231Y-14331640D02*
X15380326Y-14331640D01*
X15380326Y-14331640D02*
X15399374Y-14341164D01*
X15399374Y-14341164D02*
X15408898Y-14350687D01*
X15408898Y-14350687D02*
X15418421Y-14369735D01*
X15418421Y-14369735D02*
X15418421Y-14426878D01*
X15418421Y-14426878D02*
X15408898Y-14445926D01*
X15408898Y-14445926D02*
X15399374Y-14455449D01*
X15399374Y-14455449D02*
X15380326Y-14464973D01*
X15380326Y-14464973D02*
X15342231Y-14464973D01*
X15342231Y-14464973D02*
X15323183Y-14455449D01*
X15532707Y-14464973D02*
X15513660Y-14455449D01*
X15513660Y-14455449D02*
X15504136Y-14436402D01*
X15504136Y-14436402D02*
X15504136Y-14264973D01*
X15694612Y-14464973D02*
X15694612Y-14360211D01*
X15694612Y-14360211D02*
X15685088Y-14341164D01*
X15685088Y-14341164D02*
X15666041Y-14331640D01*
X15666041Y-14331640D02*
X15627945Y-14331640D01*
X15627945Y-14331640D02*
X15608898Y-14341164D01*
X15694612Y-14455449D02*
X15675564Y-14464973D01*
X15675564Y-14464973D02*
X15627945Y-14464973D01*
X15627945Y-14464973D02*
X15608898Y-14455449D01*
X15608898Y-14455449D02*
X15599374Y-14436402D01*
X15599374Y-14436402D02*
X15599374Y-14417354D01*
X15599374Y-14417354D02*
X15608898Y-14398307D01*
X15608898Y-14398307D02*
X15627945Y-14388783D01*
X15627945Y-14388783D02*
X15675564Y-14388783D01*
X15675564Y-14388783D02*
X15694612Y-14379259D01*
X15761279Y-14331640D02*
X15837469Y-14331640D01*
X15789850Y-14264973D02*
X15789850Y-14436402D01*
X15789850Y-14436402D02*
X15799374Y-14455449D01*
X15799374Y-14455449D02*
X15818421Y-14464973D01*
X15818421Y-14464973D02*
X15837469Y-14464973D01*
X15980326Y-14455449D02*
X15961279Y-14464973D01*
X15961279Y-14464973D02*
X15923183Y-14464973D01*
X15923183Y-14464973D02*
X15904136Y-14455449D01*
X15904136Y-14455449D02*
X15894612Y-14436402D01*
X15894612Y-14436402D02*
X15894612Y-14360211D01*
X15894612Y-14360211D02*
X15904136Y-14341164D01*
X15904136Y-14341164D02*
X15923183Y-14331640D01*
X15923183Y-14331640D02*
X15961279Y-14331640D01*
X15961279Y-14331640D02*
X15980326Y-14341164D01*
X15980326Y-14341164D02*
X15989850Y-14360211D01*
X15989850Y-14360211D02*
X15989850Y-14379259D01*
X15989850Y-14379259D02*
X15894612Y-14398307D01*
X16161279Y-14464973D02*
X16161279Y-14264973D01*
X16161279Y-14455449D02*
X16142231Y-14464973D01*
X16142231Y-14464973D02*
X16104136Y-14464973D01*
X16104136Y-14464973D02*
X16085088Y-14455449D01*
X16085088Y-14455449D02*
X16075564Y-14445926D01*
X16075564Y-14445926D02*
X16066041Y-14426878D01*
X16066041Y-14426878D02*
X16066041Y-14369735D01*
X16066041Y-14369735D02*
X16075564Y-14350687D01*
X16075564Y-14350687D02*
X16085088Y-14341164D01*
X16085088Y-14341164D02*
X16104136Y-14331640D01*
X16104136Y-14331640D02*
X16142231Y-14331640D01*
X16142231Y-14331640D02*
X16161279Y-14341164D01*
X16237469Y-14541164D02*
X16246993Y-14531640D01*
X16246993Y-14531640D02*
X16266041Y-14503068D01*
X16266041Y-14503068D02*
X16275564Y-14484021D01*
X16275564Y-14484021D02*
X16285088Y-14455449D01*
X16285088Y-14455449D02*
X16294612Y-14407830D01*
X16294612Y-14407830D02*
X16294612Y-14369735D01*
X16294612Y-14369735D02*
X16285088Y-14322116D01*
X16285088Y-14322116D02*
X16275564Y-14293545D01*
X16275564Y-14293545D02*
X16266041Y-14274497D01*
X16266041Y-14274497D02*
X16246993Y-14245926D01*
X16246993Y-14245926D02*
X16237469Y-14236402D01*
X9000501Y-14583489D02*
X9000501Y-14783489D01*
X8900501Y-14683489D02*
X9100501Y-14683489D01*
X9351754Y-14594021D02*
X9361278Y-14584497D01*
X9361278Y-14584497D02*
X9380326Y-14574973D01*
X9380326Y-14574973D02*
X9427945Y-14574973D01*
X9427945Y-14574973D02*
X9446992Y-14584497D01*
X9446992Y-14584497D02*
X9456516Y-14594021D01*
X9456516Y-14594021D02*
X9466040Y-14613068D01*
X9466040Y-14613068D02*
X9466040Y-14632116D01*
X9466040Y-14632116D02*
X9456516Y-14660687D01*
X9456516Y-14660687D02*
X9342231Y-14774973D01*
X9342231Y-14774973D02*
X9466040Y-14774973D01*
X9551754Y-14755926D02*
X9561278Y-14765449D01*
X9561278Y-14765449D02*
X9551754Y-14774973D01*
X9551754Y-14774973D02*
X9542231Y-14765449D01*
X9542231Y-14765449D02*
X9551754Y-14755926D01*
X9551754Y-14755926D02*
X9551754Y-14774973D01*
X9637469Y-14594021D02*
X9646992Y-14584497D01*
X9646992Y-14584497D02*
X9666040Y-14574973D01*
X9666040Y-14574973D02*
X9713659Y-14574973D01*
X9713659Y-14574973D02*
X9732707Y-14584497D01*
X9732707Y-14584497D02*
X9742231Y-14594021D01*
X9742231Y-14594021D02*
X9751754Y-14613068D01*
X9751754Y-14613068D02*
X9751754Y-14632116D01*
X9751754Y-14632116D02*
X9742231Y-14660687D01*
X9742231Y-14660687D02*
X9627945Y-14774973D01*
X9627945Y-14774973D02*
X9751754Y-14774973D01*
X9875564Y-14574973D02*
X9894612Y-14574973D01*
X9894612Y-14574973D02*
X9913659Y-14584497D01*
X9913659Y-14584497D02*
X9923183Y-14594021D01*
X9923183Y-14594021D02*
X9932707Y-14613068D01*
X9932707Y-14613068D02*
X9942231Y-14651164D01*
X9942231Y-14651164D02*
X9942231Y-14698783D01*
X9942231Y-14698783D02*
X9932707Y-14736878D01*
X9932707Y-14736878D02*
X9923183Y-14755926D01*
X9923183Y-14755926D02*
X9913659Y-14765449D01*
X9913659Y-14765449D02*
X9894612Y-14774973D01*
X9894612Y-14774973D02*
X9875564Y-14774973D01*
X9875564Y-14774973D02*
X9856516Y-14765449D01*
X9856516Y-14765449D02*
X9846992Y-14755926D01*
X9846992Y-14755926D02*
X9837469Y-14736878D01*
X9837469Y-14736878D02*
X9827945Y-14698783D01*
X9827945Y-14698783D02*
X9827945Y-14651164D01*
X9827945Y-14651164D02*
X9837469Y-14613068D01*
X9837469Y-14613068D02*
X9846992Y-14594021D01*
X9846992Y-14594021D02*
X9856516Y-14584497D01*
X9856516Y-14584497D02*
X9875564Y-14574973D01*
X10066040Y-14574973D02*
X10085088Y-14574973D01*
X10085088Y-14574973D02*
X10104135Y-14584497D01*
X10104135Y-14584497D02*
X10113659Y-14594021D01*
X10113659Y-14594021D02*
X10123183Y-14613068D01*
X10123183Y-14613068D02*
X10132707Y-14651164D01*
X10132707Y-14651164D02*
X10132707Y-14698783D01*
X10132707Y-14698783D02*
X10123183Y-14736878D01*
X10123183Y-14736878D02*
X10113659Y-14755926D01*
X10113659Y-14755926D02*
X10104135Y-14765449D01*
X10104135Y-14765449D02*
X10085088Y-14774973D01*
X10085088Y-14774973D02*
X10066040Y-14774973D01*
X10066040Y-14774973D02*
X10046992Y-14765449D01*
X10046992Y-14765449D02*
X10037469Y-14755926D01*
X10037469Y-14755926D02*
X10027945Y-14736878D01*
X10027945Y-14736878D02*
X10018421Y-14698783D01*
X10018421Y-14698783D02*
X10018421Y-14651164D01*
X10018421Y-14651164D02*
X10027945Y-14613068D01*
X10027945Y-14613068D02*
X10037469Y-14594021D01*
X10037469Y-14594021D02*
X10046992Y-14584497D01*
X10046992Y-14584497D02*
X10066040Y-14574973D01*
X10218421Y-14774973D02*
X10218421Y-14641640D01*
X10218421Y-14660687D02*
X10227945Y-14651164D01*
X10227945Y-14651164D02*
X10246992Y-14641640D01*
X10246992Y-14641640D02*
X10275564Y-14641640D01*
X10275564Y-14641640D02*
X10294612Y-14651164D01*
X10294612Y-14651164D02*
X10304135Y-14670211D01*
X10304135Y-14670211D02*
X10304135Y-14774973D01*
X10304135Y-14670211D02*
X10313659Y-14651164D01*
X10313659Y-14651164D02*
X10332707Y-14641640D01*
X10332707Y-14641640D02*
X10361278Y-14641640D01*
X10361278Y-14641640D02*
X10380326Y-14651164D01*
X10380326Y-14651164D02*
X10389850Y-14670211D01*
X10389850Y-14670211D02*
X10389850Y-14774973D01*
X10485088Y-14774973D02*
X10485088Y-14641640D01*
X10485088Y-14660687D02*
X10494612Y-14651164D01*
X10494612Y-14651164D02*
X10513659Y-14641640D01*
X10513659Y-14641640D02*
X10542231Y-14641640D01*
X10542231Y-14641640D02*
X10561278Y-14651164D01*
X10561278Y-14651164D02*
X10570802Y-14670211D01*
X10570802Y-14670211D02*
X10570802Y-14774973D01*
X10570802Y-14670211D02*
X10580326Y-14651164D01*
X10580326Y-14651164D02*
X10599373Y-14641640D01*
X10599373Y-14641640D02*
X10627945Y-14641640D01*
X10627945Y-14641640D02*
X10646993Y-14651164D01*
X10646993Y-14651164D02*
X10656516Y-14670211D01*
X10656516Y-14670211D02*
X10656516Y-14774973D01*
X11046993Y-14565449D02*
X10875564Y-14822592D01*
X11304135Y-14574973D02*
X11323183Y-14574973D01*
X11323183Y-14574973D02*
X11342231Y-14584497D01*
X11342231Y-14584497D02*
X11351754Y-14594021D01*
X11351754Y-14594021D02*
X11361278Y-14613068D01*
X11361278Y-14613068D02*
X11370802Y-14651164D01*
X11370802Y-14651164D02*
X11370802Y-14698783D01*
X11370802Y-14698783D02*
X11361278Y-14736878D01*
X11361278Y-14736878D02*
X11351754Y-14755926D01*
X11351754Y-14755926D02*
X11342231Y-14765449D01*
X11342231Y-14765449D02*
X11323183Y-14774973D01*
X11323183Y-14774973D02*
X11304135Y-14774973D01*
X11304135Y-14774973D02*
X11285088Y-14765449D01*
X11285088Y-14765449D02*
X11275564Y-14755926D01*
X11275564Y-14755926D02*
X11266040Y-14736878D01*
X11266040Y-14736878D02*
X11256516Y-14698783D01*
X11256516Y-14698783D02*
X11256516Y-14651164D01*
X11256516Y-14651164D02*
X11266040Y-14613068D01*
X11266040Y-14613068D02*
X11275564Y-14594021D01*
X11275564Y-14594021D02*
X11285088Y-14584497D01*
X11285088Y-14584497D02*
X11304135Y-14574973D01*
X11456516Y-14755926D02*
X11466040Y-14765449D01*
X11466040Y-14765449D02*
X11456516Y-14774973D01*
X11456516Y-14774973D02*
X11446993Y-14765449D01*
X11446993Y-14765449D02*
X11456516Y-14755926D01*
X11456516Y-14755926D02*
X11456516Y-14774973D01*
X11589850Y-14574973D02*
X11608897Y-14574973D01*
X11608897Y-14574973D02*
X11627945Y-14584497D01*
X11627945Y-14584497D02*
X11637469Y-14594021D01*
X11637469Y-14594021D02*
X11646993Y-14613068D01*
X11646993Y-14613068D02*
X11656516Y-14651164D01*
X11656516Y-14651164D02*
X11656516Y-14698783D01*
X11656516Y-14698783D02*
X11646993Y-14736878D01*
X11646993Y-14736878D02*
X11637469Y-14755926D01*
X11637469Y-14755926D02*
X11627945Y-14765449D01*
X11627945Y-14765449D02*
X11608897Y-14774973D01*
X11608897Y-14774973D02*
X11589850Y-14774973D01*
X11589850Y-14774973D02*
X11570802Y-14765449D01*
X11570802Y-14765449D02*
X11561278Y-14755926D01*
X11561278Y-14755926D02*
X11551754Y-14736878D01*
X11551754Y-14736878D02*
X11542231Y-14698783D01*
X11542231Y-14698783D02*
X11542231Y-14651164D01*
X11542231Y-14651164D02*
X11551754Y-14613068D01*
X11551754Y-14613068D02*
X11561278Y-14594021D01*
X11561278Y-14594021D02*
X11570802Y-14584497D01*
X11570802Y-14584497D02*
X11589850Y-14574973D01*
X11770802Y-14660687D02*
X11751754Y-14651164D01*
X11751754Y-14651164D02*
X11742231Y-14641640D01*
X11742231Y-14641640D02*
X11732707Y-14622592D01*
X11732707Y-14622592D02*
X11732707Y-14613068D01*
X11732707Y-14613068D02*
X11742231Y-14594021D01*
X11742231Y-14594021D02*
X11751754Y-14584497D01*
X11751754Y-14584497D02*
X11770802Y-14574973D01*
X11770802Y-14574973D02*
X11808897Y-14574973D01*
X11808897Y-14574973D02*
X11827945Y-14584497D01*
X11827945Y-14584497D02*
X11837469Y-14594021D01*
X11837469Y-14594021D02*
X11846993Y-14613068D01*
X11846993Y-14613068D02*
X11846993Y-14622592D01*
X11846993Y-14622592D02*
X11837469Y-14641640D01*
X11837469Y-14641640D02*
X11827945Y-14651164D01*
X11827945Y-14651164D02*
X11808897Y-14660687D01*
X11808897Y-14660687D02*
X11770802Y-14660687D01*
X11770802Y-14660687D02*
X11751754Y-14670211D01*
X11751754Y-14670211D02*
X11742231Y-14679735D01*
X11742231Y-14679735D02*
X11732707Y-14698783D01*
X11732707Y-14698783D02*
X11732707Y-14736878D01*
X11732707Y-14736878D02*
X11742231Y-14755926D01*
X11742231Y-14755926D02*
X11751754Y-14765449D01*
X11751754Y-14765449D02*
X11770802Y-14774973D01*
X11770802Y-14774973D02*
X11808897Y-14774973D01*
X11808897Y-14774973D02*
X11827945Y-14765449D01*
X11827945Y-14765449D02*
X11837469Y-14755926D01*
X11837469Y-14755926D02*
X11846993Y-14736878D01*
X11846993Y-14736878D02*
X11846993Y-14698783D01*
X11846993Y-14698783D02*
X11837469Y-14679735D01*
X11837469Y-14679735D02*
X11827945Y-14670211D01*
X11827945Y-14670211D02*
X11808897Y-14660687D01*
X12018421Y-14574973D02*
X11980326Y-14574973D01*
X11980326Y-14574973D02*
X11961278Y-14584497D01*
X11961278Y-14584497D02*
X11951754Y-14594021D01*
X11951754Y-14594021D02*
X11932707Y-14622592D01*
X11932707Y-14622592D02*
X11923183Y-14660687D01*
X11923183Y-14660687D02*
X11923183Y-14736878D01*
X11923183Y-14736878D02*
X11932707Y-14755926D01*
X11932707Y-14755926D02*
X11942231Y-14765449D01*
X11942231Y-14765449D02*
X11961278Y-14774973D01*
X11961278Y-14774973D02*
X11999374Y-14774973D01*
X11999374Y-14774973D02*
X12018421Y-14765449D01*
X12018421Y-14765449D02*
X12027945Y-14755926D01*
X12027945Y-14755926D02*
X12037469Y-14736878D01*
X12037469Y-14736878D02*
X12037469Y-14689259D01*
X12037469Y-14689259D02*
X12027945Y-14670211D01*
X12027945Y-14670211D02*
X12018421Y-14660687D01*
X12018421Y-14660687D02*
X11999374Y-14651164D01*
X11999374Y-14651164D02*
X11961278Y-14651164D01*
X11961278Y-14651164D02*
X11942231Y-14660687D01*
X11942231Y-14660687D02*
X11932707Y-14670211D01*
X11932707Y-14670211D02*
X11923183Y-14689259D01*
X12208897Y-14574973D02*
X12170802Y-14574973D01*
X12170802Y-14574973D02*
X12151754Y-14584497D01*
X12151754Y-14584497D02*
X12142231Y-14594021D01*
X12142231Y-14594021D02*
X12123183Y-14622592D01*
X12123183Y-14622592D02*
X12113659Y-14660687D01*
X12113659Y-14660687D02*
X12113659Y-14736878D01*
X12113659Y-14736878D02*
X12123183Y-14755926D01*
X12123183Y-14755926D02*
X12132707Y-14765449D01*
X12132707Y-14765449D02*
X12151754Y-14774973D01*
X12151754Y-14774973D02*
X12189850Y-14774973D01*
X12189850Y-14774973D02*
X12208897Y-14765449D01*
X12208897Y-14765449D02*
X12218421Y-14755926D01*
X12218421Y-14755926D02*
X12227945Y-14736878D01*
X12227945Y-14736878D02*
X12227945Y-14689259D01*
X12227945Y-14689259D02*
X12218421Y-14670211D01*
X12218421Y-14670211D02*
X12208897Y-14660687D01*
X12208897Y-14660687D02*
X12189850Y-14651164D01*
X12189850Y-14651164D02*
X12151754Y-14651164D01*
X12151754Y-14651164D02*
X12132707Y-14660687D01*
X12132707Y-14660687D02*
X12123183Y-14670211D01*
X12123183Y-14670211D02*
X12113659Y-14689259D01*
X12304135Y-14574973D02*
X12304135Y-14613068D01*
X12380326Y-14574973D02*
X12380326Y-14613068D01*
X12675564Y-14851164D02*
X12666040Y-14841640D01*
X12666040Y-14841640D02*
X12646993Y-14813068D01*
X12646993Y-14813068D02*
X12637469Y-14794021D01*
X12637469Y-14794021D02*
X12627945Y-14765449D01*
X12627945Y-14765449D02*
X12618421Y-14717830D01*
X12618421Y-14717830D02*
X12618421Y-14679735D01*
X12618421Y-14679735D02*
X12627945Y-14632116D01*
X12627945Y-14632116D02*
X12637469Y-14603545D01*
X12637469Y-14603545D02*
X12646993Y-14584497D01*
X12646993Y-14584497D02*
X12666040Y-14555926D01*
X12666040Y-14555926D02*
X12675564Y-14546402D01*
X12742231Y-14594021D02*
X12751755Y-14584497D01*
X12751755Y-14584497D02*
X12770802Y-14574973D01*
X12770802Y-14574973D02*
X12818421Y-14574973D01*
X12818421Y-14574973D02*
X12837469Y-14584497D01*
X12837469Y-14584497D02*
X12846993Y-14594021D01*
X12846993Y-14594021D02*
X12856516Y-14613068D01*
X12856516Y-14613068D02*
X12856516Y-14632116D01*
X12856516Y-14632116D02*
X12846993Y-14660687D01*
X12846993Y-14660687D02*
X12732707Y-14774973D01*
X12732707Y-14774973D02*
X12856516Y-14774973D01*
X13094612Y-14774973D02*
X13094612Y-14574973D01*
X13180326Y-14774973D02*
X13180326Y-14670211D01*
X13180326Y-14670211D02*
X13170802Y-14651164D01*
X13170802Y-14651164D02*
X13151755Y-14641640D01*
X13151755Y-14641640D02*
X13123183Y-14641640D01*
X13123183Y-14641640D02*
X13104136Y-14651164D01*
X13104136Y-14651164D02*
X13094612Y-14660687D01*
X13304136Y-14774973D02*
X13285088Y-14765449D01*
X13285088Y-14765449D02*
X13275564Y-14755926D01*
X13275564Y-14755926D02*
X13266040Y-14736878D01*
X13266040Y-14736878D02*
X13266040Y-14679735D01*
X13266040Y-14679735D02*
X13275564Y-14660687D01*
X13275564Y-14660687D02*
X13285088Y-14651164D01*
X13285088Y-14651164D02*
X13304136Y-14641640D01*
X13304136Y-14641640D02*
X13332707Y-14641640D01*
X13332707Y-14641640D02*
X13351755Y-14651164D01*
X13351755Y-14651164D02*
X13361278Y-14660687D01*
X13361278Y-14660687D02*
X13370802Y-14679735D01*
X13370802Y-14679735D02*
X13370802Y-14736878D01*
X13370802Y-14736878D02*
X13361278Y-14755926D01*
X13361278Y-14755926D02*
X13351755Y-14765449D01*
X13351755Y-14765449D02*
X13332707Y-14774973D01*
X13332707Y-14774973D02*
X13304136Y-14774973D01*
X13485088Y-14774973D02*
X13466040Y-14765449D01*
X13466040Y-14765449D02*
X13456517Y-14746402D01*
X13456517Y-14746402D02*
X13456517Y-14574973D01*
X13637469Y-14765449D02*
X13618421Y-14774973D01*
X13618421Y-14774973D02*
X13580326Y-14774973D01*
X13580326Y-14774973D02*
X13561278Y-14765449D01*
X13561278Y-14765449D02*
X13551755Y-14746402D01*
X13551755Y-14746402D02*
X13551755Y-14670211D01*
X13551755Y-14670211D02*
X13561278Y-14651164D01*
X13561278Y-14651164D02*
X13580326Y-14641640D01*
X13580326Y-14641640D02*
X13618421Y-14641640D01*
X13618421Y-14641640D02*
X13637469Y-14651164D01*
X13637469Y-14651164D02*
X13646993Y-14670211D01*
X13646993Y-14670211D02*
X13646993Y-14689259D01*
X13646993Y-14689259D02*
X13551755Y-14708307D01*
X13723183Y-14765449D02*
X13742231Y-14774973D01*
X13742231Y-14774973D02*
X13780326Y-14774973D01*
X13780326Y-14774973D02*
X13799374Y-14765449D01*
X13799374Y-14765449D02*
X13808898Y-14746402D01*
X13808898Y-14746402D02*
X13808898Y-14736878D01*
X13808898Y-14736878D02*
X13799374Y-14717830D01*
X13799374Y-14717830D02*
X13780326Y-14708307D01*
X13780326Y-14708307D02*
X13751755Y-14708307D01*
X13751755Y-14708307D02*
X13732707Y-14698783D01*
X13732707Y-14698783D02*
X13723183Y-14679735D01*
X13723183Y-14679735D02*
X13723183Y-14670211D01*
X13723183Y-14670211D02*
X13732707Y-14651164D01*
X13732707Y-14651164D02*
X13751755Y-14641640D01*
X13751755Y-14641640D02*
X13780326Y-14641640D01*
X13780326Y-14641640D02*
X13799374Y-14651164D01*
X13875564Y-14851164D02*
X13885088Y-14841640D01*
X13885088Y-14841640D02*
X13904136Y-14813068D01*
X13904136Y-14813068D02*
X13913659Y-14794021D01*
X13913659Y-14794021D02*
X13923183Y-14765449D01*
X13923183Y-14765449D02*
X13932707Y-14717830D01*
X13932707Y-14717830D02*
X13932707Y-14679735D01*
X13932707Y-14679735D02*
X13923183Y-14632116D01*
X13923183Y-14632116D02*
X13913659Y-14603545D01*
X13913659Y-14603545D02*
X13904136Y-14584497D01*
X13904136Y-14584497D02*
X13885088Y-14555926D01*
X13885088Y-14555926D02*
X13875564Y-14546402D01*
X14237469Y-14851164D02*
X14227945Y-14841640D01*
X14227945Y-14841640D02*
X14208898Y-14813068D01*
X14208898Y-14813068D02*
X14199374Y-14794021D01*
X14199374Y-14794021D02*
X14189850Y-14765449D01*
X14189850Y-14765449D02*
X14180326Y-14717830D01*
X14180326Y-14717830D02*
X14180326Y-14679735D01*
X14180326Y-14679735D02*
X14189850Y-14632116D01*
X14189850Y-14632116D02*
X14199374Y-14603545D01*
X14199374Y-14603545D02*
X14208898Y-14584497D01*
X14208898Y-14584497D02*
X14227945Y-14555926D01*
X14227945Y-14555926D02*
X14237469Y-14546402D01*
X14313659Y-14641640D02*
X14313659Y-14774973D01*
X14313659Y-14660687D02*
X14323183Y-14651164D01*
X14323183Y-14651164D02*
X14342231Y-14641640D01*
X14342231Y-14641640D02*
X14370802Y-14641640D01*
X14370802Y-14641640D02*
X14389850Y-14651164D01*
X14389850Y-14651164D02*
X14399374Y-14670211D01*
X14399374Y-14670211D02*
X14399374Y-14774973D01*
X14523183Y-14774973D02*
X14504136Y-14765449D01*
X14504136Y-14765449D02*
X14494612Y-14755926D01*
X14494612Y-14755926D02*
X14485088Y-14736878D01*
X14485088Y-14736878D02*
X14485088Y-14679735D01*
X14485088Y-14679735D02*
X14494612Y-14660687D01*
X14494612Y-14660687D02*
X14504136Y-14651164D01*
X14504136Y-14651164D02*
X14523183Y-14641640D01*
X14523183Y-14641640D02*
X14551755Y-14641640D01*
X14551755Y-14641640D02*
X14570802Y-14651164D01*
X14570802Y-14651164D02*
X14580326Y-14660687D01*
X14580326Y-14660687D02*
X14589850Y-14679735D01*
X14589850Y-14679735D02*
X14589850Y-14736878D01*
X14589850Y-14736878D02*
X14580326Y-14755926D01*
X14580326Y-14755926D02*
X14570802Y-14765449D01*
X14570802Y-14765449D02*
X14551755Y-14774973D01*
X14551755Y-14774973D02*
X14523183Y-14774973D01*
X14646993Y-14641640D02*
X14723183Y-14641640D01*
X14675564Y-14574973D02*
X14675564Y-14746402D01*
X14675564Y-14746402D02*
X14685088Y-14765449D01*
X14685088Y-14765449D02*
X14704136Y-14774973D01*
X14704136Y-14774973D02*
X14723183Y-14774973D01*
X14942231Y-14641640D02*
X14942231Y-14841640D01*
X14942231Y-14651164D02*
X14961279Y-14641640D01*
X14961279Y-14641640D02*
X14999374Y-14641640D01*
X14999374Y-14641640D02*
X15018421Y-14651164D01*
X15018421Y-14651164D02*
X15027945Y-14660687D01*
X15027945Y-14660687D02*
X15037469Y-14679735D01*
X15037469Y-14679735D02*
X15037469Y-14736878D01*
X15037469Y-14736878D02*
X15027945Y-14755926D01*
X15027945Y-14755926D02*
X15018421Y-14765449D01*
X15018421Y-14765449D02*
X14999374Y-14774973D01*
X14999374Y-14774973D02*
X14961279Y-14774973D01*
X14961279Y-14774973D02*
X14942231Y-14765449D01*
X15151755Y-14774973D02*
X15132707Y-14765449D01*
X15132707Y-14765449D02*
X15123183Y-14746402D01*
X15123183Y-14746402D02*
X15123183Y-14574973D01*
X15313660Y-14774973D02*
X15313660Y-14670211D01*
X15313660Y-14670211D02*
X15304136Y-14651164D01*
X15304136Y-14651164D02*
X15285088Y-14641640D01*
X15285088Y-14641640D02*
X15246993Y-14641640D01*
X15246993Y-14641640D02*
X15227945Y-14651164D01*
X15313660Y-14765449D02*
X15294612Y-14774973D01*
X15294612Y-14774973D02*
X15246993Y-14774973D01*
X15246993Y-14774973D02*
X15227945Y-14765449D01*
X15227945Y-14765449D02*
X15218421Y-14746402D01*
X15218421Y-14746402D02*
X15218421Y-14727354D01*
X15218421Y-14727354D02*
X15227945Y-14708307D01*
X15227945Y-14708307D02*
X15246993Y-14698783D01*
X15246993Y-14698783D02*
X15294612Y-14698783D01*
X15294612Y-14698783D02*
X15313660Y-14689259D01*
X15380326Y-14641640D02*
X15456517Y-14641640D01*
X15408898Y-14574973D02*
X15408898Y-14746402D01*
X15408898Y-14746402D02*
X15418421Y-14765449D01*
X15418421Y-14765449D02*
X15437469Y-14774973D01*
X15437469Y-14774973D02*
X15456517Y-14774973D01*
X15599374Y-14765449D02*
X15580326Y-14774973D01*
X15580326Y-14774973D02*
X15542231Y-14774973D01*
X15542231Y-14774973D02*
X15523183Y-14765449D01*
X15523183Y-14765449D02*
X15513660Y-14746402D01*
X15513660Y-14746402D02*
X15513660Y-14670211D01*
X15513660Y-14670211D02*
X15523183Y-14651164D01*
X15523183Y-14651164D02*
X15542231Y-14641640D01*
X15542231Y-14641640D02*
X15580326Y-14641640D01*
X15580326Y-14641640D02*
X15599374Y-14651164D01*
X15599374Y-14651164D02*
X15608898Y-14670211D01*
X15608898Y-14670211D02*
X15608898Y-14689259D01*
X15608898Y-14689259D02*
X15513660Y-14708307D01*
X15780326Y-14774973D02*
X15780326Y-14574973D01*
X15780326Y-14765449D02*
X15761279Y-14774973D01*
X15761279Y-14774973D02*
X15723183Y-14774973D01*
X15723183Y-14774973D02*
X15704136Y-14765449D01*
X15704136Y-14765449D02*
X15694612Y-14755926D01*
X15694612Y-14755926D02*
X15685088Y-14736878D01*
X15685088Y-14736878D02*
X15685088Y-14679735D01*
X15685088Y-14679735D02*
X15694612Y-14660687D01*
X15694612Y-14660687D02*
X15704136Y-14651164D01*
X15704136Y-14651164D02*
X15723183Y-14641640D01*
X15723183Y-14641640D02*
X15761279Y-14641640D01*
X15761279Y-14641640D02*
X15780326Y-14651164D01*
X15856517Y-14851164D02*
X15866041Y-14841640D01*
X15866041Y-14841640D02*
X15885088Y-14813068D01*
X15885088Y-14813068D02*
X15894612Y-14794021D01*
X15894612Y-14794021D02*
X15904136Y-14765449D01*
X15904136Y-14765449D02*
X15913660Y-14717830D01*
X15913660Y-14717830D02*
X15913660Y-14679735D01*
X15913660Y-14679735D02*
X15904136Y-14632116D01*
X15904136Y-14632116D02*
X15894612Y-14603545D01*
X15894612Y-14603545D02*
X15885088Y-14584497D01*
X15885088Y-14584497D02*
X15866041Y-14555926D01*
X15866041Y-14555926D02*
X15856517Y-14546402D01*
X9071213Y-15074201D02*
X9071213Y-14932778D01*
X8929790Y-14932778D01*
X8929790Y-15074201D01*
X9071213Y-15074201D01*
X9342231Y-14894973D02*
X9466040Y-14894973D01*
X9466040Y-14894973D02*
X9399373Y-14971164D01*
X9399373Y-14971164D02*
X9427945Y-14971164D01*
X9427945Y-14971164D02*
X9446992Y-14980687D01*
X9446992Y-14980687D02*
X9456516Y-14990211D01*
X9456516Y-14990211D02*
X9466040Y-15009259D01*
X9466040Y-15009259D02*
X9466040Y-15056878D01*
X9466040Y-15056878D02*
X9456516Y-15075926D01*
X9456516Y-15075926D02*
X9446992Y-15085449D01*
X9446992Y-15085449D02*
X9427945Y-15094973D01*
X9427945Y-15094973D02*
X9370802Y-15094973D01*
X9370802Y-15094973D02*
X9351754Y-15085449D01*
X9351754Y-15085449D02*
X9342231Y-15075926D01*
X9551754Y-15075926D02*
X9561278Y-15085449D01*
X9561278Y-15085449D02*
X9551754Y-15094973D01*
X9551754Y-15094973D02*
X9542231Y-15085449D01*
X9542231Y-15085449D02*
X9551754Y-15075926D01*
X9551754Y-15075926D02*
X9551754Y-15094973D01*
X9685088Y-14894973D02*
X9704135Y-14894973D01*
X9704135Y-14894973D02*
X9723183Y-14904497D01*
X9723183Y-14904497D02*
X9732707Y-14914021D01*
X9732707Y-14914021D02*
X9742231Y-14933068D01*
X9742231Y-14933068D02*
X9751754Y-14971164D01*
X9751754Y-14971164D02*
X9751754Y-15018783D01*
X9751754Y-15018783D02*
X9742231Y-15056878D01*
X9742231Y-15056878D02*
X9732707Y-15075926D01*
X9732707Y-15075926D02*
X9723183Y-15085449D01*
X9723183Y-15085449D02*
X9704135Y-15094973D01*
X9704135Y-15094973D02*
X9685088Y-15094973D01*
X9685088Y-15094973D02*
X9666040Y-15085449D01*
X9666040Y-15085449D02*
X9656516Y-15075926D01*
X9656516Y-15075926D02*
X9646992Y-15056878D01*
X9646992Y-15056878D02*
X9637469Y-15018783D01*
X9637469Y-15018783D02*
X9637469Y-14971164D01*
X9637469Y-14971164D02*
X9646992Y-14933068D01*
X9646992Y-14933068D02*
X9656516Y-14914021D01*
X9656516Y-14914021D02*
X9666040Y-14904497D01*
X9666040Y-14904497D02*
X9685088Y-14894973D01*
X9875564Y-14894973D02*
X9894612Y-14894973D01*
X9894612Y-14894973D02*
X9913659Y-14904497D01*
X9913659Y-14904497D02*
X9923183Y-14914021D01*
X9923183Y-14914021D02*
X9932707Y-14933068D01*
X9932707Y-14933068D02*
X9942231Y-14971164D01*
X9942231Y-14971164D02*
X9942231Y-15018783D01*
X9942231Y-15018783D02*
X9932707Y-15056878D01*
X9932707Y-15056878D02*
X9923183Y-15075926D01*
X9923183Y-15075926D02*
X9913659Y-15085449D01*
X9913659Y-15085449D02*
X9894612Y-15094973D01*
X9894612Y-15094973D02*
X9875564Y-15094973D01*
X9875564Y-15094973D02*
X9856516Y-15085449D01*
X9856516Y-15085449D02*
X9846992Y-15075926D01*
X9846992Y-15075926D02*
X9837469Y-15056878D01*
X9837469Y-15056878D02*
X9827945Y-15018783D01*
X9827945Y-15018783D02*
X9827945Y-14971164D01*
X9827945Y-14971164D02*
X9837469Y-14933068D01*
X9837469Y-14933068D02*
X9846992Y-14914021D01*
X9846992Y-14914021D02*
X9856516Y-14904497D01*
X9856516Y-14904497D02*
X9875564Y-14894973D01*
X10066040Y-14894973D02*
X10085088Y-14894973D01*
X10085088Y-14894973D02*
X10104135Y-14904497D01*
X10104135Y-14904497D02*
X10113659Y-14914021D01*
X10113659Y-14914021D02*
X10123183Y-14933068D01*
X10123183Y-14933068D02*
X10132707Y-14971164D01*
X10132707Y-14971164D02*
X10132707Y-15018783D01*
X10132707Y-15018783D02*
X10123183Y-15056878D01*
X10123183Y-15056878D02*
X10113659Y-15075926D01*
X10113659Y-15075926D02*
X10104135Y-15085449D01*
X10104135Y-15085449D02*
X10085088Y-15094973D01*
X10085088Y-15094973D02*
X10066040Y-15094973D01*
X10066040Y-15094973D02*
X10046992Y-15085449D01*
X10046992Y-15085449D02*
X10037469Y-15075926D01*
X10037469Y-15075926D02*
X10027945Y-15056878D01*
X10027945Y-15056878D02*
X10018421Y-15018783D01*
X10018421Y-15018783D02*
X10018421Y-14971164D01*
X10018421Y-14971164D02*
X10027945Y-14933068D01*
X10027945Y-14933068D02*
X10037469Y-14914021D01*
X10037469Y-14914021D02*
X10046992Y-14904497D01*
X10046992Y-14904497D02*
X10066040Y-14894973D01*
X10218421Y-15094973D02*
X10218421Y-14961640D01*
X10218421Y-14980687D02*
X10227945Y-14971164D01*
X10227945Y-14971164D02*
X10246992Y-14961640D01*
X10246992Y-14961640D02*
X10275564Y-14961640D01*
X10275564Y-14961640D02*
X10294612Y-14971164D01*
X10294612Y-14971164D02*
X10304135Y-14990211D01*
X10304135Y-14990211D02*
X10304135Y-15094973D01*
X10304135Y-14990211D02*
X10313659Y-14971164D01*
X10313659Y-14971164D02*
X10332707Y-14961640D01*
X10332707Y-14961640D02*
X10361278Y-14961640D01*
X10361278Y-14961640D02*
X10380326Y-14971164D01*
X10380326Y-14971164D02*
X10389850Y-14990211D01*
X10389850Y-14990211D02*
X10389850Y-15094973D01*
X10485088Y-15094973D02*
X10485088Y-14961640D01*
X10485088Y-14980687D02*
X10494612Y-14971164D01*
X10494612Y-14971164D02*
X10513659Y-14961640D01*
X10513659Y-14961640D02*
X10542231Y-14961640D01*
X10542231Y-14961640D02*
X10561278Y-14971164D01*
X10561278Y-14971164D02*
X10570802Y-14990211D01*
X10570802Y-14990211D02*
X10570802Y-15094973D01*
X10570802Y-14990211D02*
X10580326Y-14971164D01*
X10580326Y-14971164D02*
X10599373Y-14961640D01*
X10599373Y-14961640D02*
X10627945Y-14961640D01*
X10627945Y-14961640D02*
X10646993Y-14971164D01*
X10646993Y-14971164D02*
X10656516Y-14990211D01*
X10656516Y-14990211D02*
X10656516Y-15094973D01*
X11046993Y-14885449D02*
X10875564Y-15142592D01*
X11304135Y-14894973D02*
X11323183Y-14894973D01*
X11323183Y-14894973D02*
X11342231Y-14904497D01*
X11342231Y-14904497D02*
X11351754Y-14914021D01*
X11351754Y-14914021D02*
X11361278Y-14933068D01*
X11361278Y-14933068D02*
X11370802Y-14971164D01*
X11370802Y-14971164D02*
X11370802Y-15018783D01*
X11370802Y-15018783D02*
X11361278Y-15056878D01*
X11361278Y-15056878D02*
X11351754Y-15075926D01*
X11351754Y-15075926D02*
X11342231Y-15085449D01*
X11342231Y-15085449D02*
X11323183Y-15094973D01*
X11323183Y-15094973D02*
X11304135Y-15094973D01*
X11304135Y-15094973D02*
X11285088Y-15085449D01*
X11285088Y-15085449D02*
X11275564Y-15075926D01*
X11275564Y-15075926D02*
X11266040Y-15056878D01*
X11266040Y-15056878D02*
X11256516Y-15018783D01*
X11256516Y-15018783D02*
X11256516Y-14971164D01*
X11256516Y-14971164D02*
X11266040Y-14933068D01*
X11266040Y-14933068D02*
X11275564Y-14914021D01*
X11275564Y-14914021D02*
X11285088Y-14904497D01*
X11285088Y-14904497D02*
X11304135Y-14894973D01*
X11456516Y-15075926D02*
X11466040Y-15085449D01*
X11466040Y-15085449D02*
X11456516Y-15094973D01*
X11456516Y-15094973D02*
X11446993Y-15085449D01*
X11446993Y-15085449D02*
X11456516Y-15075926D01*
X11456516Y-15075926D02*
X11456516Y-15094973D01*
X11656516Y-15094973D02*
X11542231Y-15094973D01*
X11599373Y-15094973D02*
X11599373Y-14894973D01*
X11599373Y-14894973D02*
X11580326Y-14923545D01*
X11580326Y-14923545D02*
X11561278Y-14942592D01*
X11561278Y-14942592D02*
X11542231Y-14952116D01*
X11846993Y-15094973D02*
X11732707Y-15094973D01*
X11789850Y-15094973D02*
X11789850Y-14894973D01*
X11789850Y-14894973D02*
X11770802Y-14923545D01*
X11770802Y-14923545D02*
X11751754Y-14942592D01*
X11751754Y-14942592D02*
X11732707Y-14952116D01*
X11961278Y-14980687D02*
X11942231Y-14971164D01*
X11942231Y-14971164D02*
X11932707Y-14961640D01*
X11932707Y-14961640D02*
X11923183Y-14942592D01*
X11923183Y-14942592D02*
X11923183Y-14933068D01*
X11923183Y-14933068D02*
X11932707Y-14914021D01*
X11932707Y-14914021D02*
X11942231Y-14904497D01*
X11942231Y-14904497D02*
X11961278Y-14894973D01*
X11961278Y-14894973D02*
X11999374Y-14894973D01*
X11999374Y-14894973D02*
X12018421Y-14904497D01*
X12018421Y-14904497D02*
X12027945Y-14914021D01*
X12027945Y-14914021D02*
X12037469Y-14933068D01*
X12037469Y-14933068D02*
X12037469Y-14942592D01*
X12037469Y-14942592D02*
X12027945Y-14961640D01*
X12027945Y-14961640D02*
X12018421Y-14971164D01*
X12018421Y-14971164D02*
X11999374Y-14980687D01*
X11999374Y-14980687D02*
X11961278Y-14980687D01*
X11961278Y-14980687D02*
X11942231Y-14990211D01*
X11942231Y-14990211D02*
X11932707Y-14999735D01*
X11932707Y-14999735D02*
X11923183Y-15018783D01*
X11923183Y-15018783D02*
X11923183Y-15056878D01*
X11923183Y-15056878D02*
X11932707Y-15075926D01*
X11932707Y-15075926D02*
X11942231Y-15085449D01*
X11942231Y-15085449D02*
X11961278Y-15094973D01*
X11961278Y-15094973D02*
X11999374Y-15094973D01*
X11999374Y-15094973D02*
X12018421Y-15085449D01*
X12018421Y-15085449D02*
X12027945Y-15075926D01*
X12027945Y-15075926D02*
X12037469Y-15056878D01*
X12037469Y-15056878D02*
X12037469Y-15018783D01*
X12037469Y-15018783D02*
X12027945Y-14999735D01*
X12027945Y-14999735D02*
X12018421Y-14990211D01*
X12018421Y-14990211D02*
X11999374Y-14980687D01*
X12227945Y-15094973D02*
X12113659Y-15094973D01*
X12170802Y-15094973D02*
X12170802Y-14894973D01*
X12170802Y-14894973D02*
X12151754Y-14923545D01*
X12151754Y-14923545D02*
X12132707Y-14942592D01*
X12132707Y-14942592D02*
X12113659Y-14952116D01*
X12304135Y-14894973D02*
X12304135Y-14933068D01*
X12380326Y-14894973D02*
X12380326Y-14933068D01*
X12675564Y-15171164D02*
X12666040Y-15161640D01*
X12666040Y-15161640D02*
X12646993Y-15133068D01*
X12646993Y-15133068D02*
X12637469Y-15114021D01*
X12637469Y-15114021D02*
X12627945Y-15085449D01*
X12627945Y-15085449D02*
X12618421Y-15037830D01*
X12618421Y-15037830D02*
X12618421Y-14999735D01*
X12618421Y-14999735D02*
X12627945Y-14952116D01*
X12627945Y-14952116D02*
X12637469Y-14923545D01*
X12637469Y-14923545D02*
X12646993Y-14904497D01*
X12646993Y-14904497D02*
X12666040Y-14875926D01*
X12666040Y-14875926D02*
X12675564Y-14866402D01*
X12856516Y-15094973D02*
X12742231Y-15094973D01*
X12799374Y-15094973D02*
X12799374Y-14894973D01*
X12799374Y-14894973D02*
X12780326Y-14923545D01*
X12780326Y-14923545D02*
X12761278Y-14942592D01*
X12761278Y-14942592D02*
X12742231Y-14952116D01*
X12980326Y-14894973D02*
X12999374Y-14894973D01*
X12999374Y-14894973D02*
X13018421Y-14904497D01*
X13018421Y-14904497D02*
X13027945Y-14914021D01*
X13027945Y-14914021D02*
X13037469Y-14933068D01*
X13037469Y-14933068D02*
X13046993Y-14971164D01*
X13046993Y-14971164D02*
X13046993Y-15018783D01*
X13046993Y-15018783D02*
X13037469Y-15056878D01*
X13037469Y-15056878D02*
X13027945Y-15075926D01*
X13027945Y-15075926D02*
X13018421Y-15085449D01*
X13018421Y-15085449D02*
X12999374Y-15094973D01*
X12999374Y-15094973D02*
X12980326Y-15094973D01*
X12980326Y-15094973D02*
X12961278Y-15085449D01*
X12961278Y-15085449D02*
X12951755Y-15075926D01*
X12951755Y-15075926D02*
X12942231Y-15056878D01*
X12942231Y-15056878D02*
X12932707Y-15018783D01*
X12932707Y-15018783D02*
X12932707Y-14971164D01*
X12932707Y-14971164D02*
X12942231Y-14933068D01*
X12942231Y-14933068D02*
X12951755Y-14914021D01*
X12951755Y-14914021D02*
X12961278Y-14904497D01*
X12961278Y-14904497D02*
X12980326Y-14894973D01*
X13170802Y-14894973D02*
X13189850Y-14894973D01*
X13189850Y-14894973D02*
X13208897Y-14904497D01*
X13208897Y-14904497D02*
X13218421Y-14914021D01*
X13218421Y-14914021D02*
X13227945Y-14933068D01*
X13227945Y-14933068D02*
X13237469Y-14971164D01*
X13237469Y-14971164D02*
X13237469Y-15018783D01*
X13237469Y-15018783D02*
X13227945Y-15056878D01*
X13227945Y-15056878D02*
X13218421Y-15075926D01*
X13218421Y-15075926D02*
X13208897Y-15085449D01*
X13208897Y-15085449D02*
X13189850Y-15094973D01*
X13189850Y-15094973D02*
X13170802Y-15094973D01*
X13170802Y-15094973D02*
X13151755Y-15085449D01*
X13151755Y-15085449D02*
X13142231Y-15075926D01*
X13142231Y-15075926D02*
X13132707Y-15056878D01*
X13132707Y-15056878D02*
X13123183Y-15018783D01*
X13123183Y-15018783D02*
X13123183Y-14971164D01*
X13123183Y-14971164D02*
X13132707Y-14933068D01*
X13132707Y-14933068D02*
X13142231Y-14914021D01*
X13142231Y-14914021D02*
X13151755Y-14904497D01*
X13151755Y-14904497D02*
X13170802Y-14894973D01*
X13475564Y-15094973D02*
X13475564Y-14894973D01*
X13561278Y-15094973D02*
X13561278Y-14990211D01*
X13561278Y-14990211D02*
X13551755Y-14971164D01*
X13551755Y-14971164D02*
X13532707Y-14961640D01*
X13532707Y-14961640D02*
X13504136Y-14961640D01*
X13504136Y-14961640D02*
X13485088Y-14971164D01*
X13485088Y-14971164D02*
X13475564Y-14980687D01*
X13685088Y-15094973D02*
X13666040Y-15085449D01*
X13666040Y-15085449D02*
X13656517Y-15075926D01*
X13656517Y-15075926D02*
X13646993Y-15056878D01*
X13646993Y-15056878D02*
X13646993Y-14999735D01*
X13646993Y-14999735D02*
X13656517Y-14980687D01*
X13656517Y-14980687D02*
X13666040Y-14971164D01*
X13666040Y-14971164D02*
X13685088Y-14961640D01*
X13685088Y-14961640D02*
X13713659Y-14961640D01*
X13713659Y-14961640D02*
X13732707Y-14971164D01*
X13732707Y-14971164D02*
X13742231Y-14980687D01*
X13742231Y-14980687D02*
X13751755Y-14999735D01*
X13751755Y-14999735D02*
X13751755Y-15056878D01*
X13751755Y-15056878D02*
X13742231Y-15075926D01*
X13742231Y-15075926D02*
X13732707Y-15085449D01*
X13732707Y-15085449D02*
X13713659Y-15094973D01*
X13713659Y-15094973D02*
X13685088Y-15094973D01*
X13866040Y-15094973D02*
X13846993Y-15085449D01*
X13846993Y-15085449D02*
X13837469Y-15066402D01*
X13837469Y-15066402D02*
X13837469Y-14894973D01*
X14018421Y-15085449D02*
X13999374Y-15094973D01*
X13999374Y-15094973D02*
X13961278Y-15094973D01*
X13961278Y-15094973D02*
X13942231Y-15085449D01*
X13942231Y-15085449D02*
X13932707Y-15066402D01*
X13932707Y-15066402D02*
X13932707Y-14990211D01*
X13932707Y-14990211D02*
X13942231Y-14971164D01*
X13942231Y-14971164D02*
X13961278Y-14961640D01*
X13961278Y-14961640D02*
X13999374Y-14961640D01*
X13999374Y-14961640D02*
X14018421Y-14971164D01*
X14018421Y-14971164D02*
X14027945Y-14990211D01*
X14027945Y-14990211D02*
X14027945Y-15009259D01*
X14027945Y-15009259D02*
X13932707Y-15028307D01*
X14104136Y-15085449D02*
X14123183Y-15094973D01*
X14123183Y-15094973D02*
X14161278Y-15094973D01*
X14161278Y-15094973D02*
X14180326Y-15085449D01*
X14180326Y-15085449D02*
X14189850Y-15066402D01*
X14189850Y-15066402D02*
X14189850Y-15056878D01*
X14189850Y-15056878D02*
X14180326Y-15037830D01*
X14180326Y-15037830D02*
X14161278Y-15028307D01*
X14161278Y-15028307D02*
X14132707Y-15028307D01*
X14132707Y-15028307D02*
X14113659Y-15018783D01*
X14113659Y-15018783D02*
X14104136Y-14999735D01*
X14104136Y-14999735D02*
X14104136Y-14990211D01*
X14104136Y-14990211D02*
X14113659Y-14971164D01*
X14113659Y-14971164D02*
X14132707Y-14961640D01*
X14132707Y-14961640D02*
X14161278Y-14961640D01*
X14161278Y-14961640D02*
X14180326Y-14971164D01*
X14256517Y-15171164D02*
X14266040Y-15161640D01*
X14266040Y-15161640D02*
X14285088Y-15133068D01*
X14285088Y-15133068D02*
X14294612Y-15114021D01*
X14294612Y-15114021D02*
X14304136Y-15085449D01*
X14304136Y-15085449D02*
X14313659Y-15037830D01*
X14313659Y-15037830D02*
X14313659Y-14999735D01*
X14313659Y-14999735D02*
X14304136Y-14952116D01*
X14304136Y-14952116D02*
X14294612Y-14923545D01*
X14294612Y-14923545D02*
X14285088Y-14904497D01*
X14285088Y-14904497D02*
X14266040Y-14875926D01*
X14266040Y-14875926D02*
X14256517Y-14866402D01*
X14618421Y-15171164D02*
X14608898Y-15161640D01*
X14608898Y-15161640D02*
X14589850Y-15133068D01*
X14589850Y-15133068D02*
X14580326Y-15114021D01*
X14580326Y-15114021D02*
X14570802Y-15085449D01*
X14570802Y-15085449D02*
X14561279Y-15037830D01*
X14561279Y-15037830D02*
X14561279Y-14999735D01*
X14561279Y-14999735D02*
X14570802Y-14952116D01*
X14570802Y-14952116D02*
X14580326Y-14923545D01*
X14580326Y-14923545D02*
X14589850Y-14904497D01*
X14589850Y-14904497D02*
X14608898Y-14875926D01*
X14608898Y-14875926D02*
X14618421Y-14866402D01*
X14694612Y-14961640D02*
X14694612Y-15094973D01*
X14694612Y-14980687D02*
X14704136Y-14971164D01*
X14704136Y-14971164D02*
X14723183Y-14961640D01*
X14723183Y-14961640D02*
X14751755Y-14961640D01*
X14751755Y-14961640D02*
X14770802Y-14971164D01*
X14770802Y-14971164D02*
X14780326Y-14990211D01*
X14780326Y-14990211D02*
X14780326Y-15094973D01*
X14904136Y-15094973D02*
X14885088Y-15085449D01*
X14885088Y-15085449D02*
X14875564Y-15075926D01*
X14875564Y-15075926D02*
X14866040Y-15056878D01*
X14866040Y-15056878D02*
X14866040Y-14999735D01*
X14866040Y-14999735D02*
X14875564Y-14980687D01*
X14875564Y-14980687D02*
X14885088Y-14971164D01*
X14885088Y-14971164D02*
X14904136Y-14961640D01*
X14904136Y-14961640D02*
X14932707Y-14961640D01*
X14932707Y-14961640D02*
X14951755Y-14971164D01*
X14951755Y-14971164D02*
X14961279Y-14980687D01*
X14961279Y-14980687D02*
X14970802Y-14999735D01*
X14970802Y-14999735D02*
X14970802Y-15056878D01*
X14970802Y-15056878D02*
X14961279Y-15075926D01*
X14961279Y-15075926D02*
X14951755Y-15085449D01*
X14951755Y-15085449D02*
X14932707Y-15094973D01*
X14932707Y-15094973D02*
X14904136Y-15094973D01*
X15027945Y-14961640D02*
X15104136Y-14961640D01*
X15056517Y-14894973D02*
X15056517Y-15066402D01*
X15056517Y-15066402D02*
X15066040Y-15085449D01*
X15066040Y-15085449D02*
X15085088Y-15094973D01*
X15085088Y-15094973D02*
X15104136Y-15094973D01*
X15323183Y-14961640D02*
X15323183Y-15161640D01*
X15323183Y-14971164D02*
X15342231Y-14961640D01*
X15342231Y-14961640D02*
X15380326Y-14961640D01*
X15380326Y-14961640D02*
X15399374Y-14971164D01*
X15399374Y-14971164D02*
X15408898Y-14980687D01*
X15408898Y-14980687D02*
X15418421Y-14999735D01*
X15418421Y-14999735D02*
X15418421Y-15056878D01*
X15418421Y-15056878D02*
X15408898Y-15075926D01*
X15408898Y-15075926D02*
X15399374Y-15085449D01*
X15399374Y-15085449D02*
X15380326Y-15094973D01*
X15380326Y-15094973D02*
X15342231Y-15094973D01*
X15342231Y-15094973D02*
X15323183Y-15085449D01*
X15532707Y-15094973D02*
X15513660Y-15085449D01*
X15513660Y-15085449D02*
X15504136Y-15066402D01*
X15504136Y-15066402D02*
X15504136Y-14894973D01*
X15694612Y-15094973D02*
X15694612Y-14990211D01*
X15694612Y-14990211D02*
X15685088Y-14971164D01*
X15685088Y-14971164D02*
X15666041Y-14961640D01*
X15666041Y-14961640D02*
X15627945Y-14961640D01*
X15627945Y-14961640D02*
X15608898Y-14971164D01*
X15694612Y-15085449D02*
X15675564Y-15094973D01*
X15675564Y-15094973D02*
X15627945Y-15094973D01*
X15627945Y-15094973D02*
X15608898Y-15085449D01*
X15608898Y-15085449D02*
X15599374Y-15066402D01*
X15599374Y-15066402D02*
X15599374Y-15047354D01*
X15599374Y-15047354D02*
X15608898Y-15028307D01*
X15608898Y-15028307D02*
X15627945Y-15018783D01*
X15627945Y-15018783D02*
X15675564Y-15018783D01*
X15675564Y-15018783D02*
X15694612Y-15009259D01*
X15761279Y-14961640D02*
X15837469Y-14961640D01*
X15789850Y-14894973D02*
X15789850Y-15066402D01*
X15789850Y-15066402D02*
X15799374Y-15085449D01*
X15799374Y-15085449D02*
X15818421Y-15094973D01*
X15818421Y-15094973D02*
X15837469Y-15094973D01*
X15980326Y-15085449D02*
X15961279Y-15094973D01*
X15961279Y-15094973D02*
X15923183Y-15094973D01*
X15923183Y-15094973D02*
X15904136Y-15085449D01*
X15904136Y-15085449D02*
X15894612Y-15066402D01*
X15894612Y-15066402D02*
X15894612Y-14990211D01*
X15894612Y-14990211D02*
X15904136Y-14971164D01*
X15904136Y-14971164D02*
X15923183Y-14961640D01*
X15923183Y-14961640D02*
X15961279Y-14961640D01*
X15961279Y-14961640D02*
X15980326Y-14971164D01*
X15980326Y-14971164D02*
X15989850Y-14990211D01*
X15989850Y-14990211D02*
X15989850Y-15009259D01*
X15989850Y-15009259D02*
X15894612Y-15028307D01*
X16161279Y-15094973D02*
X16161279Y-14894973D01*
X16161279Y-15085449D02*
X16142231Y-15094973D01*
X16142231Y-15094973D02*
X16104136Y-15094973D01*
X16104136Y-15094973D02*
X16085088Y-15085449D01*
X16085088Y-15085449D02*
X16075564Y-15075926D01*
X16075564Y-15075926D02*
X16066041Y-15056878D01*
X16066041Y-15056878D02*
X16066041Y-14999735D01*
X16066041Y-14999735D02*
X16075564Y-14980687D01*
X16075564Y-14980687D02*
X16085088Y-14971164D01*
X16085088Y-14971164D02*
X16104136Y-14961640D01*
X16104136Y-14961640D02*
X16142231Y-14961640D01*
X16142231Y-14961640D02*
X16161279Y-14971164D01*
X16237469Y-15171164D02*
X16246993Y-15161640D01*
X16246993Y-15161640D02*
X16266041Y-15133068D01*
X16266041Y-15133068D02*
X16275564Y-15114021D01*
X16275564Y-15114021D02*
X16285088Y-15085449D01*
X16285088Y-15085449D02*
X16294612Y-15037830D01*
X16294612Y-15037830D02*
X16294612Y-14999735D01*
X16294612Y-14999735D02*
X16285088Y-14952116D01*
X16285088Y-14952116D02*
X16275564Y-14923545D01*
X16275564Y-14923545D02*
X16266041Y-14904497D01*
X16266041Y-14904497D02*
X16246993Y-14875926D01*
X16246993Y-14875926D02*
X16237469Y-14866402D01*
X9000501Y-15423489D02*
X9100501Y-15323489D01*
X9000501Y-15223489D01*
X8900501Y-15323489D01*
X9000501Y-15423489D01*
X9446992Y-15281640D02*
X9446992Y-15414973D01*
X9399373Y-15205449D02*
X9351754Y-15348307D01*
X9351754Y-15348307D02*
X9475564Y-15348307D01*
X9551754Y-15395926D02*
X9561278Y-15405449D01*
X9561278Y-15405449D02*
X9551754Y-15414973D01*
X9551754Y-15414973D02*
X9542231Y-15405449D01*
X9542231Y-15405449D02*
X9551754Y-15395926D01*
X9551754Y-15395926D02*
X9551754Y-15414973D01*
X9751754Y-15414973D02*
X9637469Y-15414973D01*
X9694611Y-15414973D02*
X9694611Y-15214973D01*
X9694611Y-15214973D02*
X9675564Y-15243545D01*
X9675564Y-15243545D02*
X9656516Y-15262592D01*
X9656516Y-15262592D02*
X9637469Y-15272116D01*
X9875564Y-15214973D02*
X9894612Y-15214973D01*
X9894612Y-15214973D02*
X9913659Y-15224497D01*
X9913659Y-15224497D02*
X9923183Y-15234021D01*
X9923183Y-15234021D02*
X9932707Y-15253068D01*
X9932707Y-15253068D02*
X9942231Y-15291164D01*
X9942231Y-15291164D02*
X9942231Y-15338783D01*
X9942231Y-15338783D02*
X9932707Y-15376878D01*
X9932707Y-15376878D02*
X9923183Y-15395926D01*
X9923183Y-15395926D02*
X9913659Y-15405449D01*
X9913659Y-15405449D02*
X9894612Y-15414973D01*
X9894612Y-15414973D02*
X9875564Y-15414973D01*
X9875564Y-15414973D02*
X9856516Y-15405449D01*
X9856516Y-15405449D02*
X9846992Y-15395926D01*
X9846992Y-15395926D02*
X9837469Y-15376878D01*
X9837469Y-15376878D02*
X9827945Y-15338783D01*
X9827945Y-15338783D02*
X9827945Y-15291164D01*
X9827945Y-15291164D02*
X9837469Y-15253068D01*
X9837469Y-15253068D02*
X9846992Y-15234021D01*
X9846992Y-15234021D02*
X9856516Y-15224497D01*
X9856516Y-15224497D02*
X9875564Y-15214973D01*
X10066040Y-15214973D02*
X10085088Y-15214973D01*
X10085088Y-15214973D02*
X10104135Y-15224497D01*
X10104135Y-15224497D02*
X10113659Y-15234021D01*
X10113659Y-15234021D02*
X10123183Y-15253068D01*
X10123183Y-15253068D02*
X10132707Y-15291164D01*
X10132707Y-15291164D02*
X10132707Y-15338783D01*
X10132707Y-15338783D02*
X10123183Y-15376878D01*
X10123183Y-15376878D02*
X10113659Y-15395926D01*
X10113659Y-15395926D02*
X10104135Y-15405449D01*
X10104135Y-15405449D02*
X10085088Y-15414973D01*
X10085088Y-15414973D02*
X10066040Y-15414973D01*
X10066040Y-15414973D02*
X10046992Y-15405449D01*
X10046992Y-15405449D02*
X10037469Y-15395926D01*
X10037469Y-15395926D02*
X10027945Y-15376878D01*
X10027945Y-15376878D02*
X10018421Y-15338783D01*
X10018421Y-15338783D02*
X10018421Y-15291164D01*
X10018421Y-15291164D02*
X10027945Y-15253068D01*
X10027945Y-15253068D02*
X10037469Y-15234021D01*
X10037469Y-15234021D02*
X10046992Y-15224497D01*
X10046992Y-15224497D02*
X10066040Y-15214973D01*
X10218421Y-15414973D02*
X10218421Y-15281640D01*
X10218421Y-15300687D02*
X10227945Y-15291164D01*
X10227945Y-15291164D02*
X10246992Y-15281640D01*
X10246992Y-15281640D02*
X10275564Y-15281640D01*
X10275564Y-15281640D02*
X10294612Y-15291164D01*
X10294612Y-15291164D02*
X10304135Y-15310211D01*
X10304135Y-15310211D02*
X10304135Y-15414973D01*
X10304135Y-15310211D02*
X10313659Y-15291164D01*
X10313659Y-15291164D02*
X10332707Y-15281640D01*
X10332707Y-15281640D02*
X10361278Y-15281640D01*
X10361278Y-15281640D02*
X10380326Y-15291164D01*
X10380326Y-15291164D02*
X10389850Y-15310211D01*
X10389850Y-15310211D02*
X10389850Y-15414973D01*
X10485088Y-15414973D02*
X10485088Y-15281640D01*
X10485088Y-15300687D02*
X10494612Y-15291164D01*
X10494612Y-15291164D02*
X10513659Y-15281640D01*
X10513659Y-15281640D02*
X10542231Y-15281640D01*
X10542231Y-15281640D02*
X10561278Y-15291164D01*
X10561278Y-15291164D02*
X10570802Y-15310211D01*
X10570802Y-15310211D02*
X10570802Y-15414973D01*
X10570802Y-15310211D02*
X10580326Y-15291164D01*
X10580326Y-15291164D02*
X10599373Y-15281640D01*
X10599373Y-15281640D02*
X10627945Y-15281640D01*
X10627945Y-15281640D02*
X10646993Y-15291164D01*
X10646993Y-15291164D02*
X10656516Y-15310211D01*
X10656516Y-15310211D02*
X10656516Y-15414973D01*
X11046993Y-15205449D02*
X10875564Y-15462592D01*
X11304135Y-15214973D02*
X11323183Y-15214973D01*
X11323183Y-15214973D02*
X11342231Y-15224497D01*
X11342231Y-15224497D02*
X11351754Y-15234021D01*
X11351754Y-15234021D02*
X11361278Y-15253068D01*
X11361278Y-15253068D02*
X11370802Y-15291164D01*
X11370802Y-15291164D02*
X11370802Y-15338783D01*
X11370802Y-15338783D02*
X11361278Y-15376878D01*
X11361278Y-15376878D02*
X11351754Y-15395926D01*
X11351754Y-15395926D02*
X11342231Y-15405449D01*
X11342231Y-15405449D02*
X11323183Y-15414973D01*
X11323183Y-15414973D02*
X11304135Y-15414973D01*
X11304135Y-15414973D02*
X11285088Y-15405449D01*
X11285088Y-15405449D02*
X11275564Y-15395926D01*
X11275564Y-15395926D02*
X11266040Y-15376878D01*
X11266040Y-15376878D02*
X11256516Y-15338783D01*
X11256516Y-15338783D02*
X11256516Y-15291164D01*
X11256516Y-15291164D02*
X11266040Y-15253068D01*
X11266040Y-15253068D02*
X11275564Y-15234021D01*
X11275564Y-15234021D02*
X11285088Y-15224497D01*
X11285088Y-15224497D02*
X11304135Y-15214973D01*
X11456516Y-15395926D02*
X11466040Y-15405449D01*
X11466040Y-15405449D02*
X11456516Y-15414973D01*
X11456516Y-15414973D02*
X11446993Y-15405449D01*
X11446993Y-15405449D02*
X11456516Y-15395926D01*
X11456516Y-15395926D02*
X11456516Y-15414973D01*
X11656516Y-15414973D02*
X11542231Y-15414973D01*
X11599373Y-15414973D02*
X11599373Y-15214973D01*
X11599373Y-15214973D02*
X11580326Y-15243545D01*
X11580326Y-15243545D02*
X11561278Y-15262592D01*
X11561278Y-15262592D02*
X11542231Y-15272116D01*
X11827945Y-15214973D02*
X11789850Y-15214973D01*
X11789850Y-15214973D02*
X11770802Y-15224497D01*
X11770802Y-15224497D02*
X11761278Y-15234021D01*
X11761278Y-15234021D02*
X11742231Y-15262592D01*
X11742231Y-15262592D02*
X11732707Y-15300687D01*
X11732707Y-15300687D02*
X11732707Y-15376878D01*
X11732707Y-15376878D02*
X11742231Y-15395926D01*
X11742231Y-15395926D02*
X11751754Y-15405449D01*
X11751754Y-15405449D02*
X11770802Y-15414973D01*
X11770802Y-15414973D02*
X11808897Y-15414973D01*
X11808897Y-15414973D02*
X11827945Y-15405449D01*
X11827945Y-15405449D02*
X11837469Y-15395926D01*
X11837469Y-15395926D02*
X11846993Y-15376878D01*
X11846993Y-15376878D02*
X11846993Y-15329259D01*
X11846993Y-15329259D02*
X11837469Y-15310211D01*
X11837469Y-15310211D02*
X11827945Y-15300687D01*
X11827945Y-15300687D02*
X11808897Y-15291164D01*
X11808897Y-15291164D02*
X11770802Y-15291164D01*
X11770802Y-15291164D02*
X11751754Y-15300687D01*
X11751754Y-15300687D02*
X11742231Y-15310211D01*
X11742231Y-15310211D02*
X11732707Y-15329259D01*
X12037469Y-15414973D02*
X11923183Y-15414973D01*
X11980326Y-15414973D02*
X11980326Y-15214973D01*
X11980326Y-15214973D02*
X11961278Y-15243545D01*
X11961278Y-15243545D02*
X11942231Y-15262592D01*
X11942231Y-15262592D02*
X11923183Y-15272116D01*
X12208897Y-15281640D02*
X12208897Y-15414973D01*
X12161278Y-15205449D02*
X12113659Y-15348307D01*
X12113659Y-15348307D02*
X12237469Y-15348307D01*
X12304135Y-15214973D02*
X12304135Y-15253068D01*
X12380326Y-15214973D02*
X12380326Y-15253068D01*
X12675564Y-15491164D02*
X12666040Y-15481640D01*
X12666040Y-15481640D02*
X12646993Y-15453068D01*
X12646993Y-15453068D02*
X12637469Y-15434021D01*
X12637469Y-15434021D02*
X12627945Y-15405449D01*
X12627945Y-15405449D02*
X12618421Y-15357830D01*
X12618421Y-15357830D02*
X12618421Y-15319735D01*
X12618421Y-15319735D02*
X12627945Y-15272116D01*
X12627945Y-15272116D02*
X12637469Y-15243545D01*
X12637469Y-15243545D02*
X12646993Y-15224497D01*
X12646993Y-15224497D02*
X12666040Y-15195926D01*
X12666040Y-15195926D02*
X12675564Y-15186402D01*
X12846993Y-15214973D02*
X12751755Y-15214973D01*
X12751755Y-15214973D02*
X12742231Y-15310211D01*
X12742231Y-15310211D02*
X12751755Y-15300687D01*
X12751755Y-15300687D02*
X12770802Y-15291164D01*
X12770802Y-15291164D02*
X12818421Y-15291164D01*
X12818421Y-15291164D02*
X12837469Y-15300687D01*
X12837469Y-15300687D02*
X12846993Y-15310211D01*
X12846993Y-15310211D02*
X12856516Y-15329259D01*
X12856516Y-15329259D02*
X12856516Y-15376878D01*
X12856516Y-15376878D02*
X12846993Y-15395926D01*
X12846993Y-15395926D02*
X12837469Y-15405449D01*
X12837469Y-15405449D02*
X12818421Y-15414973D01*
X12818421Y-15414973D02*
X12770802Y-15414973D01*
X12770802Y-15414973D02*
X12751755Y-15405449D01*
X12751755Y-15405449D02*
X12742231Y-15395926D01*
X12980326Y-15214973D02*
X12999374Y-15214973D01*
X12999374Y-15214973D02*
X13018421Y-15224497D01*
X13018421Y-15224497D02*
X13027945Y-15234021D01*
X13027945Y-15234021D02*
X13037469Y-15253068D01*
X13037469Y-15253068D02*
X13046993Y-15291164D01*
X13046993Y-15291164D02*
X13046993Y-15338783D01*
X13046993Y-15338783D02*
X13037469Y-15376878D01*
X13037469Y-15376878D02*
X13027945Y-15395926D01*
X13027945Y-15395926D02*
X13018421Y-15405449D01*
X13018421Y-15405449D02*
X12999374Y-15414973D01*
X12999374Y-15414973D02*
X12980326Y-15414973D01*
X12980326Y-15414973D02*
X12961278Y-15405449D01*
X12961278Y-15405449D02*
X12951755Y-15395926D01*
X12951755Y-15395926D02*
X12942231Y-15376878D01*
X12942231Y-15376878D02*
X12932707Y-15338783D01*
X12932707Y-15338783D02*
X12932707Y-15291164D01*
X12932707Y-15291164D02*
X12942231Y-15253068D01*
X12942231Y-15253068D02*
X12951755Y-15234021D01*
X12951755Y-15234021D02*
X12961278Y-15224497D01*
X12961278Y-15224497D02*
X12980326Y-15214973D01*
X13285088Y-15414973D02*
X13285088Y-15214973D01*
X13370802Y-15414973D02*
X13370802Y-15310211D01*
X13370802Y-15310211D02*
X13361278Y-15291164D01*
X13361278Y-15291164D02*
X13342231Y-15281640D01*
X13342231Y-15281640D02*
X13313659Y-15281640D01*
X13313659Y-15281640D02*
X13294612Y-15291164D01*
X13294612Y-15291164D02*
X13285088Y-15300687D01*
X13494612Y-15414973D02*
X13475564Y-15405449D01*
X13475564Y-15405449D02*
X13466040Y-15395926D01*
X13466040Y-15395926D02*
X13456517Y-15376878D01*
X13456517Y-15376878D02*
X13456517Y-15319735D01*
X13456517Y-15319735D02*
X13466040Y-15300687D01*
X13466040Y-15300687D02*
X13475564Y-15291164D01*
X13475564Y-15291164D02*
X13494612Y-15281640D01*
X13494612Y-15281640D02*
X13523183Y-15281640D01*
X13523183Y-15281640D02*
X13542231Y-15291164D01*
X13542231Y-15291164D02*
X13551755Y-15300687D01*
X13551755Y-15300687D02*
X13561278Y-15319735D01*
X13561278Y-15319735D02*
X13561278Y-15376878D01*
X13561278Y-15376878D02*
X13551755Y-15395926D01*
X13551755Y-15395926D02*
X13542231Y-15405449D01*
X13542231Y-15405449D02*
X13523183Y-15414973D01*
X13523183Y-15414973D02*
X13494612Y-15414973D01*
X13675564Y-15414973D02*
X13656517Y-15405449D01*
X13656517Y-15405449D02*
X13646993Y-15386402D01*
X13646993Y-15386402D02*
X13646993Y-15214973D01*
X13827945Y-15405449D02*
X13808898Y-15414973D01*
X13808898Y-15414973D02*
X13770802Y-15414973D01*
X13770802Y-15414973D02*
X13751755Y-15405449D01*
X13751755Y-15405449D02*
X13742231Y-15386402D01*
X13742231Y-15386402D02*
X13742231Y-15310211D01*
X13742231Y-15310211D02*
X13751755Y-15291164D01*
X13751755Y-15291164D02*
X13770802Y-15281640D01*
X13770802Y-15281640D02*
X13808898Y-15281640D01*
X13808898Y-15281640D02*
X13827945Y-15291164D01*
X13827945Y-15291164D02*
X13837469Y-15310211D01*
X13837469Y-15310211D02*
X13837469Y-15329259D01*
X13837469Y-15329259D02*
X13742231Y-15348307D01*
X13913659Y-15405449D02*
X13932707Y-15414973D01*
X13932707Y-15414973D02*
X13970802Y-15414973D01*
X13970802Y-15414973D02*
X13989850Y-15405449D01*
X13989850Y-15405449D02*
X13999374Y-15386402D01*
X13999374Y-15386402D02*
X13999374Y-15376878D01*
X13999374Y-15376878D02*
X13989850Y-15357830D01*
X13989850Y-15357830D02*
X13970802Y-15348307D01*
X13970802Y-15348307D02*
X13942231Y-15348307D01*
X13942231Y-15348307D02*
X13923183Y-15338783D01*
X13923183Y-15338783D02*
X13913659Y-15319735D01*
X13913659Y-15319735D02*
X13913659Y-15310211D01*
X13913659Y-15310211D02*
X13923183Y-15291164D01*
X13923183Y-15291164D02*
X13942231Y-15281640D01*
X13942231Y-15281640D02*
X13970802Y-15281640D01*
X13970802Y-15281640D02*
X13989850Y-15291164D01*
X14066040Y-15491164D02*
X14075564Y-15481640D01*
X14075564Y-15481640D02*
X14094612Y-15453068D01*
X14094612Y-15453068D02*
X14104136Y-15434021D01*
X14104136Y-15434021D02*
X14113659Y-15405449D01*
X14113659Y-15405449D02*
X14123183Y-15357830D01*
X14123183Y-15357830D02*
X14123183Y-15319735D01*
X14123183Y-15319735D02*
X14113659Y-15272116D01*
X14113659Y-15272116D02*
X14104136Y-15243545D01*
X14104136Y-15243545D02*
X14094612Y-15224497D01*
X14094612Y-15224497D02*
X14075564Y-15195926D01*
X14075564Y-15195926D02*
X14066040Y-15186402D01*
X14427945Y-15491164D02*
X14418421Y-15481640D01*
X14418421Y-15481640D02*
X14399374Y-15453068D01*
X14399374Y-15453068D02*
X14389850Y-15434021D01*
X14389850Y-15434021D02*
X14380326Y-15405449D01*
X14380326Y-15405449D02*
X14370802Y-15357830D01*
X14370802Y-15357830D02*
X14370802Y-15319735D01*
X14370802Y-15319735D02*
X14380326Y-15272116D01*
X14380326Y-15272116D02*
X14389850Y-15243545D01*
X14389850Y-15243545D02*
X14399374Y-15224497D01*
X14399374Y-15224497D02*
X14418421Y-15195926D01*
X14418421Y-15195926D02*
X14427945Y-15186402D01*
X14504136Y-15281640D02*
X14504136Y-15414973D01*
X14504136Y-15300687D02*
X14513659Y-15291164D01*
X14513659Y-15291164D02*
X14532707Y-15281640D01*
X14532707Y-15281640D02*
X14561279Y-15281640D01*
X14561279Y-15281640D02*
X14580326Y-15291164D01*
X14580326Y-15291164D02*
X14589850Y-15310211D01*
X14589850Y-15310211D02*
X14589850Y-15414973D01*
X14713659Y-15414973D02*
X14694612Y-15405449D01*
X14694612Y-15405449D02*
X14685088Y-15395926D01*
X14685088Y-15395926D02*
X14675564Y-15376878D01*
X14675564Y-15376878D02*
X14675564Y-15319735D01*
X14675564Y-15319735D02*
X14685088Y-15300687D01*
X14685088Y-15300687D02*
X14694612Y-15291164D01*
X14694612Y-15291164D02*
X14713659Y-15281640D01*
X14713659Y-15281640D02*
X14742231Y-15281640D01*
X14742231Y-15281640D02*
X14761279Y-15291164D01*
X14761279Y-15291164D02*
X14770802Y-15300687D01*
X14770802Y-15300687D02*
X14780326Y-15319735D01*
X14780326Y-15319735D02*
X14780326Y-15376878D01*
X14780326Y-15376878D02*
X14770802Y-15395926D01*
X14770802Y-15395926D02*
X14761279Y-15405449D01*
X14761279Y-15405449D02*
X14742231Y-15414973D01*
X14742231Y-15414973D02*
X14713659Y-15414973D01*
X14837469Y-15281640D02*
X14913659Y-15281640D01*
X14866040Y-15214973D02*
X14866040Y-15386402D01*
X14866040Y-15386402D02*
X14875564Y-15405449D01*
X14875564Y-15405449D02*
X14894612Y-15414973D01*
X14894612Y-15414973D02*
X14913659Y-15414973D01*
X15132707Y-15281640D02*
X15132707Y-15481640D01*
X15132707Y-15291164D02*
X15151755Y-15281640D01*
X15151755Y-15281640D02*
X15189850Y-15281640D01*
X15189850Y-15281640D02*
X15208898Y-15291164D01*
X15208898Y-15291164D02*
X15218421Y-15300687D01*
X15218421Y-15300687D02*
X15227945Y-15319735D01*
X15227945Y-15319735D02*
X15227945Y-15376878D01*
X15227945Y-15376878D02*
X15218421Y-15395926D01*
X15218421Y-15395926D02*
X15208898Y-15405449D01*
X15208898Y-15405449D02*
X15189850Y-15414973D01*
X15189850Y-15414973D02*
X15151755Y-15414973D01*
X15151755Y-15414973D02*
X15132707Y-15405449D01*
X15342231Y-15414973D02*
X15323183Y-15405449D01*
X15323183Y-15405449D02*
X15313660Y-15386402D01*
X15313660Y-15386402D02*
X15313660Y-15214973D01*
X15504136Y-15414973D02*
X15504136Y-15310211D01*
X15504136Y-15310211D02*
X15494612Y-15291164D01*
X15494612Y-15291164D02*
X15475564Y-15281640D01*
X15475564Y-15281640D02*
X15437469Y-15281640D01*
X15437469Y-15281640D02*
X15418421Y-15291164D01*
X15504136Y-15405449D02*
X15485088Y-15414973D01*
X15485088Y-15414973D02*
X15437469Y-15414973D01*
X15437469Y-15414973D02*
X15418421Y-15405449D01*
X15418421Y-15405449D02*
X15408898Y-15386402D01*
X15408898Y-15386402D02*
X15408898Y-15367354D01*
X15408898Y-15367354D02*
X15418421Y-15348307D01*
X15418421Y-15348307D02*
X15437469Y-15338783D01*
X15437469Y-15338783D02*
X15485088Y-15338783D01*
X15485088Y-15338783D02*
X15504136Y-15329259D01*
X15570802Y-15281640D02*
X15646993Y-15281640D01*
X15599374Y-15214973D02*
X15599374Y-15386402D01*
X15599374Y-15386402D02*
X15608898Y-15405449D01*
X15608898Y-15405449D02*
X15627945Y-15414973D01*
X15627945Y-15414973D02*
X15646993Y-15414973D01*
X15789850Y-15405449D02*
X15770802Y-15414973D01*
X15770802Y-15414973D02*
X15732707Y-15414973D01*
X15732707Y-15414973D02*
X15713660Y-15405449D01*
X15713660Y-15405449D02*
X15704136Y-15386402D01*
X15704136Y-15386402D02*
X15704136Y-15310211D01*
X15704136Y-15310211D02*
X15713660Y-15291164D01*
X15713660Y-15291164D02*
X15732707Y-15281640D01*
X15732707Y-15281640D02*
X15770802Y-15281640D01*
X15770802Y-15281640D02*
X15789850Y-15291164D01*
X15789850Y-15291164D02*
X15799374Y-15310211D01*
X15799374Y-15310211D02*
X15799374Y-15329259D01*
X15799374Y-15329259D02*
X15704136Y-15348307D01*
X15970802Y-15414973D02*
X15970802Y-15214973D01*
X15970802Y-15405449D02*
X15951755Y-15414973D01*
X15951755Y-15414973D02*
X15913660Y-15414973D01*
X15913660Y-15414973D02*
X15894612Y-15405449D01*
X15894612Y-15405449D02*
X15885088Y-15395926D01*
X15885088Y-15395926D02*
X15875564Y-15376878D01*
X15875564Y-15376878D02*
X15875564Y-15319735D01*
X15875564Y-15319735D02*
X15885088Y-15300687D01*
X15885088Y-15300687D02*
X15894612Y-15291164D01*
X15894612Y-15291164D02*
X15913660Y-15281640D01*
X15913660Y-15281640D02*
X15951755Y-15281640D01*
X15951755Y-15281640D02*
X15970802Y-15291164D01*
X16046993Y-15491164D02*
X16056517Y-15481640D01*
X16056517Y-15481640D02*
X16075564Y-15453068D01*
X16075564Y-15453068D02*
X16085088Y-15434021D01*
X16085088Y-15434021D02*
X16094612Y-15405449D01*
X16094612Y-15405449D02*
X16104136Y-15357830D01*
X16104136Y-15357830D02*
X16104136Y-15319735D01*
X16104136Y-15319735D02*
X16094612Y-15272116D01*
X16094612Y-15272116D02*
X16085088Y-15243545D01*
X16085088Y-15243545D02*
X16075564Y-15224497D01*
X16075564Y-15224497D02*
X16056517Y-15195926D01*
X16056517Y-15195926D02*
X16046993Y-15186402D01*
X8900501Y-15543489D02*
X9100501Y-15743489D01*
X9100501Y-15543489D02*
X8900501Y-15743489D01*
X9100501Y-15643489D02*
G75*
G02*
X8900501Y-15643489I-100000J0D01*
G01*
X8900501Y-15643489D02*
G75*
G02*
X9100501Y-15643489I100000J0D01*
G01*
X9446992Y-15601640D02*
X9446992Y-15734973D01*
X9399373Y-15525449D02*
X9351754Y-15668307D01*
X9351754Y-15668307D02*
X9475564Y-15668307D01*
X9551754Y-15715926D02*
X9561278Y-15725449D01*
X9561278Y-15725449D02*
X9551754Y-15734973D01*
X9551754Y-15734973D02*
X9542231Y-15725449D01*
X9542231Y-15725449D02*
X9551754Y-15715926D01*
X9551754Y-15715926D02*
X9551754Y-15734973D01*
X9627945Y-15534973D02*
X9751754Y-15534973D01*
X9751754Y-15534973D02*
X9685088Y-15611164D01*
X9685088Y-15611164D02*
X9713659Y-15611164D01*
X9713659Y-15611164D02*
X9732707Y-15620687D01*
X9732707Y-15620687D02*
X9742231Y-15630211D01*
X9742231Y-15630211D02*
X9751754Y-15649259D01*
X9751754Y-15649259D02*
X9751754Y-15696878D01*
X9751754Y-15696878D02*
X9742231Y-15715926D01*
X9742231Y-15715926D02*
X9732707Y-15725449D01*
X9732707Y-15725449D02*
X9713659Y-15734973D01*
X9713659Y-15734973D02*
X9656516Y-15734973D01*
X9656516Y-15734973D02*
X9637469Y-15725449D01*
X9637469Y-15725449D02*
X9627945Y-15715926D01*
X9875564Y-15534973D02*
X9894612Y-15534973D01*
X9894612Y-15534973D02*
X9913659Y-15544497D01*
X9913659Y-15544497D02*
X9923183Y-15554021D01*
X9923183Y-15554021D02*
X9932707Y-15573068D01*
X9932707Y-15573068D02*
X9942231Y-15611164D01*
X9942231Y-15611164D02*
X9942231Y-15658783D01*
X9942231Y-15658783D02*
X9932707Y-15696878D01*
X9932707Y-15696878D02*
X9923183Y-15715926D01*
X9923183Y-15715926D02*
X9913659Y-15725449D01*
X9913659Y-15725449D02*
X9894612Y-15734973D01*
X9894612Y-15734973D02*
X9875564Y-15734973D01*
X9875564Y-15734973D02*
X9856516Y-15725449D01*
X9856516Y-15725449D02*
X9846992Y-15715926D01*
X9846992Y-15715926D02*
X9837469Y-15696878D01*
X9837469Y-15696878D02*
X9827945Y-15658783D01*
X9827945Y-15658783D02*
X9827945Y-15611164D01*
X9827945Y-15611164D02*
X9837469Y-15573068D01*
X9837469Y-15573068D02*
X9846992Y-15554021D01*
X9846992Y-15554021D02*
X9856516Y-15544497D01*
X9856516Y-15544497D02*
X9875564Y-15534973D01*
X10066040Y-15534973D02*
X10085088Y-15534973D01*
X10085088Y-15534973D02*
X10104135Y-15544497D01*
X10104135Y-15544497D02*
X10113659Y-15554021D01*
X10113659Y-15554021D02*
X10123183Y-15573068D01*
X10123183Y-15573068D02*
X10132707Y-15611164D01*
X10132707Y-15611164D02*
X10132707Y-15658783D01*
X10132707Y-15658783D02*
X10123183Y-15696878D01*
X10123183Y-15696878D02*
X10113659Y-15715926D01*
X10113659Y-15715926D02*
X10104135Y-15725449D01*
X10104135Y-15725449D02*
X10085088Y-15734973D01*
X10085088Y-15734973D02*
X10066040Y-15734973D01*
X10066040Y-15734973D02*
X10046992Y-15725449D01*
X10046992Y-15725449D02*
X10037469Y-15715926D01*
X10037469Y-15715926D02*
X10027945Y-15696878D01*
X10027945Y-15696878D02*
X10018421Y-15658783D01*
X10018421Y-15658783D02*
X10018421Y-15611164D01*
X10018421Y-15611164D02*
X10027945Y-15573068D01*
X10027945Y-15573068D02*
X10037469Y-15554021D01*
X10037469Y-15554021D02*
X10046992Y-15544497D01*
X10046992Y-15544497D02*
X10066040Y-15534973D01*
X10218421Y-15734973D02*
X10218421Y-15601640D01*
X10218421Y-15620687D02*
X10227945Y-15611164D01*
X10227945Y-15611164D02*
X10246992Y-15601640D01*
X10246992Y-15601640D02*
X10275564Y-15601640D01*
X10275564Y-15601640D02*
X10294612Y-15611164D01*
X10294612Y-15611164D02*
X10304135Y-15630211D01*
X10304135Y-15630211D02*
X10304135Y-15734973D01*
X10304135Y-15630211D02*
X10313659Y-15611164D01*
X10313659Y-15611164D02*
X10332707Y-15601640D01*
X10332707Y-15601640D02*
X10361278Y-15601640D01*
X10361278Y-15601640D02*
X10380326Y-15611164D01*
X10380326Y-15611164D02*
X10389850Y-15630211D01*
X10389850Y-15630211D02*
X10389850Y-15734973D01*
X10485088Y-15734973D02*
X10485088Y-15601640D01*
X10485088Y-15620687D02*
X10494612Y-15611164D01*
X10494612Y-15611164D02*
X10513659Y-15601640D01*
X10513659Y-15601640D02*
X10542231Y-15601640D01*
X10542231Y-15601640D02*
X10561278Y-15611164D01*
X10561278Y-15611164D02*
X10570802Y-15630211D01*
X10570802Y-15630211D02*
X10570802Y-15734973D01*
X10570802Y-15630211D02*
X10580326Y-15611164D01*
X10580326Y-15611164D02*
X10599373Y-15601640D01*
X10599373Y-15601640D02*
X10627945Y-15601640D01*
X10627945Y-15601640D02*
X10646993Y-15611164D01*
X10646993Y-15611164D02*
X10656516Y-15630211D01*
X10656516Y-15630211D02*
X10656516Y-15734973D01*
X11046993Y-15525449D02*
X10875564Y-15782592D01*
X11304135Y-15534973D02*
X11323183Y-15534973D01*
X11323183Y-15534973D02*
X11342231Y-15544497D01*
X11342231Y-15544497D02*
X11351754Y-15554021D01*
X11351754Y-15554021D02*
X11361278Y-15573068D01*
X11361278Y-15573068D02*
X11370802Y-15611164D01*
X11370802Y-15611164D02*
X11370802Y-15658783D01*
X11370802Y-15658783D02*
X11361278Y-15696878D01*
X11361278Y-15696878D02*
X11351754Y-15715926D01*
X11351754Y-15715926D02*
X11342231Y-15725449D01*
X11342231Y-15725449D02*
X11323183Y-15734973D01*
X11323183Y-15734973D02*
X11304135Y-15734973D01*
X11304135Y-15734973D02*
X11285088Y-15725449D01*
X11285088Y-15725449D02*
X11275564Y-15715926D01*
X11275564Y-15715926D02*
X11266040Y-15696878D01*
X11266040Y-15696878D02*
X11256516Y-15658783D01*
X11256516Y-15658783D02*
X11256516Y-15611164D01*
X11256516Y-15611164D02*
X11266040Y-15573068D01*
X11266040Y-15573068D02*
X11275564Y-15554021D01*
X11275564Y-15554021D02*
X11285088Y-15544497D01*
X11285088Y-15544497D02*
X11304135Y-15534973D01*
X11456516Y-15715926D02*
X11466040Y-15725449D01*
X11466040Y-15725449D02*
X11456516Y-15734973D01*
X11456516Y-15734973D02*
X11446993Y-15725449D01*
X11446993Y-15725449D02*
X11456516Y-15715926D01*
X11456516Y-15715926D02*
X11456516Y-15734973D01*
X11656516Y-15734973D02*
X11542231Y-15734973D01*
X11599373Y-15734973D02*
X11599373Y-15534973D01*
X11599373Y-15534973D02*
X11580326Y-15563545D01*
X11580326Y-15563545D02*
X11561278Y-15582592D01*
X11561278Y-15582592D02*
X11542231Y-15592116D01*
X11827945Y-15534973D02*
X11789850Y-15534973D01*
X11789850Y-15534973D02*
X11770802Y-15544497D01*
X11770802Y-15544497D02*
X11761278Y-15554021D01*
X11761278Y-15554021D02*
X11742231Y-15582592D01*
X11742231Y-15582592D02*
X11732707Y-15620687D01*
X11732707Y-15620687D02*
X11732707Y-15696878D01*
X11732707Y-15696878D02*
X11742231Y-15715926D01*
X11742231Y-15715926D02*
X11751754Y-15725449D01*
X11751754Y-15725449D02*
X11770802Y-15734973D01*
X11770802Y-15734973D02*
X11808897Y-15734973D01*
X11808897Y-15734973D02*
X11827945Y-15725449D01*
X11827945Y-15725449D02*
X11837469Y-15715926D01*
X11837469Y-15715926D02*
X11846993Y-15696878D01*
X11846993Y-15696878D02*
X11846993Y-15649259D01*
X11846993Y-15649259D02*
X11837469Y-15630211D01*
X11837469Y-15630211D02*
X11827945Y-15620687D01*
X11827945Y-15620687D02*
X11808897Y-15611164D01*
X11808897Y-15611164D02*
X11770802Y-15611164D01*
X11770802Y-15611164D02*
X11751754Y-15620687D01*
X11751754Y-15620687D02*
X11742231Y-15630211D01*
X11742231Y-15630211D02*
X11732707Y-15649259D01*
X11942231Y-15734973D02*
X11980326Y-15734973D01*
X11980326Y-15734973D02*
X11999374Y-15725449D01*
X11999374Y-15725449D02*
X12008897Y-15715926D01*
X12008897Y-15715926D02*
X12027945Y-15687354D01*
X12027945Y-15687354D02*
X12037469Y-15649259D01*
X12037469Y-15649259D02*
X12037469Y-15573068D01*
X12037469Y-15573068D02*
X12027945Y-15554021D01*
X12027945Y-15554021D02*
X12018421Y-15544497D01*
X12018421Y-15544497D02*
X11999374Y-15534973D01*
X11999374Y-15534973D02*
X11961278Y-15534973D01*
X11961278Y-15534973D02*
X11942231Y-15544497D01*
X11942231Y-15544497D02*
X11932707Y-15554021D01*
X11932707Y-15554021D02*
X11923183Y-15573068D01*
X11923183Y-15573068D02*
X11923183Y-15620687D01*
X11923183Y-15620687D02*
X11932707Y-15639735D01*
X11932707Y-15639735D02*
X11942231Y-15649259D01*
X11942231Y-15649259D02*
X11961278Y-15658783D01*
X11961278Y-15658783D02*
X11999374Y-15658783D01*
X11999374Y-15658783D02*
X12018421Y-15649259D01*
X12018421Y-15649259D02*
X12027945Y-15639735D01*
X12027945Y-15639735D02*
X12037469Y-15620687D01*
X12104135Y-15534973D02*
X12227945Y-15534973D01*
X12227945Y-15534973D02*
X12161278Y-15611164D01*
X12161278Y-15611164D02*
X12189850Y-15611164D01*
X12189850Y-15611164D02*
X12208897Y-15620687D01*
X12208897Y-15620687D02*
X12218421Y-15630211D01*
X12218421Y-15630211D02*
X12227945Y-15649259D01*
X12227945Y-15649259D02*
X12227945Y-15696878D01*
X12227945Y-15696878D02*
X12218421Y-15715926D01*
X12218421Y-15715926D02*
X12208897Y-15725449D01*
X12208897Y-15725449D02*
X12189850Y-15734973D01*
X12189850Y-15734973D02*
X12132707Y-15734973D01*
X12132707Y-15734973D02*
X12113659Y-15725449D01*
X12113659Y-15725449D02*
X12104135Y-15715926D01*
X12304135Y-15534973D02*
X12304135Y-15573068D01*
X12380326Y-15534973D02*
X12380326Y-15573068D01*
X12675564Y-15811164D02*
X12666040Y-15801640D01*
X12666040Y-15801640D02*
X12646993Y-15773068D01*
X12646993Y-15773068D02*
X12637469Y-15754021D01*
X12637469Y-15754021D02*
X12627945Y-15725449D01*
X12627945Y-15725449D02*
X12618421Y-15677830D01*
X12618421Y-15677830D02*
X12618421Y-15639735D01*
X12618421Y-15639735D02*
X12627945Y-15592116D01*
X12627945Y-15592116D02*
X12637469Y-15563545D01*
X12637469Y-15563545D02*
X12646993Y-15544497D01*
X12646993Y-15544497D02*
X12666040Y-15515926D01*
X12666040Y-15515926D02*
X12675564Y-15506402D01*
X12732707Y-15534973D02*
X12866040Y-15534973D01*
X12866040Y-15534973D02*
X12780326Y-15734973D01*
X13094612Y-15734973D02*
X13094612Y-15534973D01*
X13180326Y-15734973D02*
X13180326Y-15630211D01*
X13180326Y-15630211D02*
X13170802Y-15611164D01*
X13170802Y-15611164D02*
X13151755Y-15601640D01*
X13151755Y-15601640D02*
X13123183Y-15601640D01*
X13123183Y-15601640D02*
X13104136Y-15611164D01*
X13104136Y-15611164D02*
X13094612Y-15620687D01*
X13304136Y-15734973D02*
X13285088Y-15725449D01*
X13285088Y-15725449D02*
X13275564Y-15715926D01*
X13275564Y-15715926D02*
X13266040Y-15696878D01*
X13266040Y-15696878D02*
X13266040Y-15639735D01*
X13266040Y-15639735D02*
X13275564Y-15620687D01*
X13275564Y-15620687D02*
X13285088Y-15611164D01*
X13285088Y-15611164D02*
X13304136Y-15601640D01*
X13304136Y-15601640D02*
X13332707Y-15601640D01*
X13332707Y-15601640D02*
X13351755Y-15611164D01*
X13351755Y-15611164D02*
X13361278Y-15620687D01*
X13361278Y-15620687D02*
X13370802Y-15639735D01*
X13370802Y-15639735D02*
X13370802Y-15696878D01*
X13370802Y-15696878D02*
X13361278Y-15715926D01*
X13361278Y-15715926D02*
X13351755Y-15725449D01*
X13351755Y-15725449D02*
X13332707Y-15734973D01*
X13332707Y-15734973D02*
X13304136Y-15734973D01*
X13485088Y-15734973D02*
X13466040Y-15725449D01*
X13466040Y-15725449D02*
X13456517Y-15706402D01*
X13456517Y-15706402D02*
X13456517Y-15534973D01*
X13637469Y-15725449D02*
X13618421Y-15734973D01*
X13618421Y-15734973D02*
X13580326Y-15734973D01*
X13580326Y-15734973D02*
X13561278Y-15725449D01*
X13561278Y-15725449D02*
X13551755Y-15706402D01*
X13551755Y-15706402D02*
X13551755Y-15630211D01*
X13551755Y-15630211D02*
X13561278Y-15611164D01*
X13561278Y-15611164D02*
X13580326Y-15601640D01*
X13580326Y-15601640D02*
X13618421Y-15601640D01*
X13618421Y-15601640D02*
X13637469Y-15611164D01*
X13637469Y-15611164D02*
X13646993Y-15630211D01*
X13646993Y-15630211D02*
X13646993Y-15649259D01*
X13646993Y-15649259D02*
X13551755Y-15668307D01*
X13723183Y-15725449D02*
X13742231Y-15734973D01*
X13742231Y-15734973D02*
X13780326Y-15734973D01*
X13780326Y-15734973D02*
X13799374Y-15725449D01*
X13799374Y-15725449D02*
X13808898Y-15706402D01*
X13808898Y-15706402D02*
X13808898Y-15696878D01*
X13808898Y-15696878D02*
X13799374Y-15677830D01*
X13799374Y-15677830D02*
X13780326Y-15668307D01*
X13780326Y-15668307D02*
X13751755Y-15668307D01*
X13751755Y-15668307D02*
X13732707Y-15658783D01*
X13732707Y-15658783D02*
X13723183Y-15639735D01*
X13723183Y-15639735D02*
X13723183Y-15630211D01*
X13723183Y-15630211D02*
X13732707Y-15611164D01*
X13732707Y-15611164D02*
X13751755Y-15601640D01*
X13751755Y-15601640D02*
X13780326Y-15601640D01*
X13780326Y-15601640D02*
X13799374Y-15611164D01*
X13875564Y-15811164D02*
X13885088Y-15801640D01*
X13885088Y-15801640D02*
X13904136Y-15773068D01*
X13904136Y-15773068D02*
X13913659Y-15754021D01*
X13913659Y-15754021D02*
X13923183Y-15725449D01*
X13923183Y-15725449D02*
X13932707Y-15677830D01*
X13932707Y-15677830D02*
X13932707Y-15639735D01*
X13932707Y-15639735D02*
X13923183Y-15592116D01*
X13923183Y-15592116D02*
X13913659Y-15563545D01*
X13913659Y-15563545D02*
X13904136Y-15544497D01*
X13904136Y-15544497D02*
X13885088Y-15515926D01*
X13885088Y-15515926D02*
X13875564Y-15506402D01*
X14237469Y-15811164D02*
X14227945Y-15801640D01*
X14227945Y-15801640D02*
X14208898Y-15773068D01*
X14208898Y-15773068D02*
X14199374Y-15754021D01*
X14199374Y-15754021D02*
X14189850Y-15725449D01*
X14189850Y-15725449D02*
X14180326Y-15677830D01*
X14180326Y-15677830D02*
X14180326Y-15639735D01*
X14180326Y-15639735D02*
X14189850Y-15592116D01*
X14189850Y-15592116D02*
X14199374Y-15563545D01*
X14199374Y-15563545D02*
X14208898Y-15544497D01*
X14208898Y-15544497D02*
X14227945Y-15515926D01*
X14227945Y-15515926D02*
X14237469Y-15506402D01*
X14313659Y-15601640D02*
X14313659Y-15734973D01*
X14313659Y-15620687D02*
X14323183Y-15611164D01*
X14323183Y-15611164D02*
X14342231Y-15601640D01*
X14342231Y-15601640D02*
X14370802Y-15601640D01*
X14370802Y-15601640D02*
X14389850Y-15611164D01*
X14389850Y-15611164D02*
X14399374Y-15630211D01*
X14399374Y-15630211D02*
X14399374Y-15734973D01*
X14523183Y-15734973D02*
X14504136Y-15725449D01*
X14504136Y-15725449D02*
X14494612Y-15715926D01*
X14494612Y-15715926D02*
X14485088Y-15696878D01*
X14485088Y-15696878D02*
X14485088Y-15639735D01*
X14485088Y-15639735D02*
X14494612Y-15620687D01*
X14494612Y-15620687D02*
X14504136Y-15611164D01*
X14504136Y-15611164D02*
X14523183Y-15601640D01*
X14523183Y-15601640D02*
X14551755Y-15601640D01*
X14551755Y-15601640D02*
X14570802Y-15611164D01*
X14570802Y-15611164D02*
X14580326Y-15620687D01*
X14580326Y-15620687D02*
X14589850Y-15639735D01*
X14589850Y-15639735D02*
X14589850Y-15696878D01*
X14589850Y-15696878D02*
X14580326Y-15715926D01*
X14580326Y-15715926D02*
X14570802Y-15725449D01*
X14570802Y-15725449D02*
X14551755Y-15734973D01*
X14551755Y-15734973D02*
X14523183Y-15734973D01*
X14646993Y-15601640D02*
X14723183Y-15601640D01*
X14675564Y-15534973D02*
X14675564Y-15706402D01*
X14675564Y-15706402D02*
X14685088Y-15725449D01*
X14685088Y-15725449D02*
X14704136Y-15734973D01*
X14704136Y-15734973D02*
X14723183Y-15734973D01*
X14942231Y-15601640D02*
X14942231Y-15801640D01*
X14942231Y-15611164D02*
X14961279Y-15601640D01*
X14961279Y-15601640D02*
X14999374Y-15601640D01*
X14999374Y-15601640D02*
X15018421Y-15611164D01*
X15018421Y-15611164D02*
X15027945Y-15620687D01*
X15027945Y-15620687D02*
X15037469Y-15639735D01*
X15037469Y-15639735D02*
X15037469Y-15696878D01*
X15037469Y-15696878D02*
X15027945Y-15715926D01*
X15027945Y-15715926D02*
X15018421Y-15725449D01*
X15018421Y-15725449D02*
X14999374Y-15734973D01*
X14999374Y-15734973D02*
X14961279Y-15734973D01*
X14961279Y-15734973D02*
X14942231Y-15725449D01*
X15151755Y-15734973D02*
X15132707Y-15725449D01*
X15132707Y-15725449D02*
X15123183Y-15706402D01*
X15123183Y-15706402D02*
X15123183Y-15534973D01*
X15313660Y-15734973D02*
X15313660Y-15630211D01*
X15313660Y-15630211D02*
X15304136Y-15611164D01*
X15304136Y-15611164D02*
X15285088Y-15601640D01*
X15285088Y-15601640D02*
X15246993Y-15601640D01*
X15246993Y-15601640D02*
X15227945Y-15611164D01*
X15313660Y-15725449D02*
X15294612Y-15734973D01*
X15294612Y-15734973D02*
X15246993Y-15734973D01*
X15246993Y-15734973D02*
X15227945Y-15725449D01*
X15227945Y-15725449D02*
X15218421Y-15706402D01*
X15218421Y-15706402D02*
X15218421Y-15687354D01*
X15218421Y-15687354D02*
X15227945Y-15668307D01*
X15227945Y-15668307D02*
X15246993Y-15658783D01*
X15246993Y-15658783D02*
X15294612Y-15658783D01*
X15294612Y-15658783D02*
X15313660Y-15649259D01*
X15380326Y-15601640D02*
X15456517Y-15601640D01*
X15408898Y-15534973D02*
X15408898Y-15706402D01*
X15408898Y-15706402D02*
X15418421Y-15725449D01*
X15418421Y-15725449D02*
X15437469Y-15734973D01*
X15437469Y-15734973D02*
X15456517Y-15734973D01*
X15599374Y-15725449D02*
X15580326Y-15734973D01*
X15580326Y-15734973D02*
X15542231Y-15734973D01*
X15542231Y-15734973D02*
X15523183Y-15725449D01*
X15523183Y-15725449D02*
X15513660Y-15706402D01*
X15513660Y-15706402D02*
X15513660Y-15630211D01*
X15513660Y-15630211D02*
X15523183Y-15611164D01*
X15523183Y-15611164D02*
X15542231Y-15601640D01*
X15542231Y-15601640D02*
X15580326Y-15601640D01*
X15580326Y-15601640D02*
X15599374Y-15611164D01*
X15599374Y-15611164D02*
X15608898Y-15630211D01*
X15608898Y-15630211D02*
X15608898Y-15649259D01*
X15608898Y-15649259D02*
X15513660Y-15668307D01*
X15780326Y-15734973D02*
X15780326Y-15534973D01*
X15780326Y-15725449D02*
X15761279Y-15734973D01*
X15761279Y-15734973D02*
X15723183Y-15734973D01*
X15723183Y-15734973D02*
X15704136Y-15725449D01*
X15704136Y-15725449D02*
X15694612Y-15715926D01*
X15694612Y-15715926D02*
X15685088Y-15696878D01*
X15685088Y-15696878D02*
X15685088Y-15639735D01*
X15685088Y-15639735D02*
X15694612Y-15620687D01*
X15694612Y-15620687D02*
X15704136Y-15611164D01*
X15704136Y-15611164D02*
X15723183Y-15601640D01*
X15723183Y-15601640D02*
X15761279Y-15601640D01*
X15761279Y-15601640D02*
X15780326Y-15611164D01*
X15856517Y-15811164D02*
X15866041Y-15801640D01*
X15866041Y-15801640D02*
X15885088Y-15773068D01*
X15885088Y-15773068D02*
X15894612Y-15754021D01*
X15894612Y-15754021D02*
X15904136Y-15725449D01*
X15904136Y-15725449D02*
X15913660Y-15677830D01*
X15913660Y-15677830D02*
X15913660Y-15639735D01*
X15913660Y-15639735D02*
X15904136Y-15592116D01*
X15904136Y-15592116D02*
X15894612Y-15563545D01*
X15894612Y-15563545D02*
X15885088Y-15544497D01*
X15885088Y-15544497D02*
X15866041Y-15515926D01*
X15866041Y-15515926D02*
X15856517Y-15506402D01*
M02*
