G04 #@! TF.GenerationSoftware,KiCad,Pcbnew,8.0.8+1*
G04 #@! TF.CreationDate,2025-06-17T16:01:52+00:00*
G04 #@! TF.ProjectId,eggada50_autorouted,65676761-6461-4353-905f-6175746f726f,0.2*
G04 #@! TF.SameCoordinates,Original*
G04 #@! TF.FileFunction,Legend,Bot*
G04 #@! TF.FilePolarity,Positive*
%FSLAX46Y46*%
G04 Gerber Fmt 4.6, Leading zero omitted, Abs format (unit mm)*
G04 Created by KiCad (PCBNEW 8.0.8+1) date 2025-06-17 16:01:52*
%MOMM*%
%LPD*%
G01*
G04 APERTURE LIST*
%ADD10C,0.150000*%
%ADD11C,0.120000*%
%ADD12C,0.100000*%
%ADD13C,2.000000*%
%ADD14C,3.100000*%
%ADD15C,4.200000*%
%ADD16C,1.800000*%
%ADD17C,4.400000*%
%ADD18C,0.900000*%
%ADD19C,2.300000*%
%ADD20C,1.600000*%
%ADD21O,2.300000X1.700000*%
%ADD22O,3.400000X1.700000*%
%ADD23O,1.800000X1.800000*%
G04 APERTURE END LIST*
D10*
X222804819Y-77953380D02*
X222328628Y-77620047D01*
X222804819Y-77381952D02*
X221804819Y-77381952D01*
X221804819Y-77381952D02*
X221804819Y-77762904D01*
X221804819Y-77762904D02*
X221852438Y-77858142D01*
X221852438Y-77858142D02*
X221900057Y-77905761D01*
X221900057Y-77905761D02*
X221995295Y-77953380D01*
X221995295Y-77953380D02*
X222138152Y-77953380D01*
X222138152Y-77953380D02*
X222233390Y-77905761D01*
X222233390Y-77905761D02*
X222281009Y-77858142D01*
X222281009Y-77858142D02*
X222328628Y-77762904D01*
X222328628Y-77762904D02*
X222328628Y-77381952D01*
X222757200Y-78334333D02*
X222804819Y-78477190D01*
X222804819Y-78477190D02*
X222804819Y-78715285D01*
X222804819Y-78715285D02*
X222757200Y-78810523D01*
X222757200Y-78810523D02*
X222709580Y-78858142D01*
X222709580Y-78858142D02*
X222614342Y-78905761D01*
X222614342Y-78905761D02*
X222519104Y-78905761D01*
X222519104Y-78905761D02*
X222423866Y-78858142D01*
X222423866Y-78858142D02*
X222376247Y-78810523D01*
X222376247Y-78810523D02*
X222328628Y-78715285D01*
X222328628Y-78715285D02*
X222281009Y-78524809D01*
X222281009Y-78524809D02*
X222233390Y-78429571D01*
X222233390Y-78429571D02*
X222185771Y-78381952D01*
X222185771Y-78381952D02*
X222090533Y-78334333D01*
X222090533Y-78334333D02*
X221995295Y-78334333D01*
X221995295Y-78334333D02*
X221900057Y-78381952D01*
X221900057Y-78381952D02*
X221852438Y-78429571D01*
X221852438Y-78429571D02*
X221804819Y-78524809D01*
X221804819Y-78524809D02*
X221804819Y-78762904D01*
X221804819Y-78762904D02*
X221852438Y-78905761D01*
X221804819Y-79191476D02*
X221804819Y-79762904D01*
X222804819Y-79477190D02*
X221804819Y-79477190D01*
X215830666Y-67234819D02*
X216163999Y-66758628D01*
X216402094Y-67234819D02*
X216402094Y-66234819D01*
X216402094Y-66234819D02*
X216021142Y-66234819D01*
X216021142Y-66234819D02*
X215925904Y-66282438D01*
X215925904Y-66282438D02*
X215878285Y-66330057D01*
X215878285Y-66330057D02*
X215830666Y-66425295D01*
X215830666Y-66425295D02*
X215830666Y-66568152D01*
X215830666Y-66568152D02*
X215878285Y-66663390D01*
X215878285Y-66663390D02*
X215925904Y-66711009D01*
X215925904Y-66711009D02*
X216021142Y-66758628D01*
X216021142Y-66758628D02*
X216402094Y-66758628D01*
X215449713Y-66330057D02*
X215402094Y-66282438D01*
X215402094Y-66282438D02*
X215306856Y-66234819D01*
X215306856Y-66234819D02*
X215068761Y-66234819D01*
X215068761Y-66234819D02*
X214973523Y-66282438D01*
X214973523Y-66282438D02*
X214925904Y-66330057D01*
X214925904Y-66330057D02*
X214878285Y-66425295D01*
X214878285Y-66425295D02*
X214878285Y-66520533D01*
X214878285Y-66520533D02*
X214925904Y-66663390D01*
X214925904Y-66663390D02*
X215497332Y-67234819D01*
X215497332Y-67234819D02*
X214878285Y-67234819D01*
X219910666Y-56979580D02*
X219958285Y-57027200D01*
X219958285Y-57027200D02*
X220101142Y-57074819D01*
X220101142Y-57074819D02*
X220196380Y-57074819D01*
X220196380Y-57074819D02*
X220339237Y-57027200D01*
X220339237Y-57027200D02*
X220434475Y-56931961D01*
X220434475Y-56931961D02*
X220482094Y-56836723D01*
X220482094Y-56836723D02*
X220529713Y-56646247D01*
X220529713Y-56646247D02*
X220529713Y-56503390D01*
X220529713Y-56503390D02*
X220482094Y-56312914D01*
X220482094Y-56312914D02*
X220434475Y-56217676D01*
X220434475Y-56217676D02*
X220339237Y-56122438D01*
X220339237Y-56122438D02*
X220196380Y-56074819D01*
X220196380Y-56074819D02*
X220101142Y-56074819D01*
X220101142Y-56074819D02*
X219958285Y-56122438D01*
X219958285Y-56122438D02*
X219910666Y-56170057D01*
X218958285Y-57074819D02*
X219529713Y-57074819D01*
X219243999Y-57074819D02*
X219243999Y-56074819D01*
X219243999Y-56074819D02*
X219339237Y-56217676D01*
X219339237Y-56217676D02*
X219434475Y-56312914D01*
X219434475Y-56312914D02*
X219529713Y-56360533D01*
X217325428Y-46914819D02*
X217325428Y-45914819D01*
X217325428Y-45914819D02*
X217087333Y-45914819D01*
X217087333Y-45914819D02*
X216944476Y-45962438D01*
X216944476Y-45962438D02*
X216849238Y-46057676D01*
X216849238Y-46057676D02*
X216801619Y-46152914D01*
X216801619Y-46152914D02*
X216754000Y-46343390D01*
X216754000Y-46343390D02*
X216754000Y-46486247D01*
X216754000Y-46486247D02*
X216801619Y-46676723D01*
X216801619Y-46676723D02*
X216849238Y-46771961D01*
X216849238Y-46771961D02*
X216944476Y-46867200D01*
X216944476Y-46867200D02*
X217087333Y-46914819D01*
X217087333Y-46914819D02*
X217325428Y-46914819D01*
X216373047Y-46629104D02*
X215896857Y-46629104D01*
X216468285Y-46914819D02*
X216134952Y-45914819D01*
X216134952Y-45914819D02*
X215801619Y-46914819D01*
X215611142Y-45914819D02*
X215039714Y-45914819D01*
X215325428Y-46914819D02*
X215325428Y-45914819D01*
X219910666Y-62059580D02*
X219958285Y-62107200D01*
X219958285Y-62107200D02*
X220101142Y-62154819D01*
X220101142Y-62154819D02*
X220196380Y-62154819D01*
X220196380Y-62154819D02*
X220339237Y-62107200D01*
X220339237Y-62107200D02*
X220434475Y-62011961D01*
X220434475Y-62011961D02*
X220482094Y-61916723D01*
X220482094Y-61916723D02*
X220529713Y-61726247D01*
X220529713Y-61726247D02*
X220529713Y-61583390D01*
X220529713Y-61583390D02*
X220482094Y-61392914D01*
X220482094Y-61392914D02*
X220434475Y-61297676D01*
X220434475Y-61297676D02*
X220339237Y-61202438D01*
X220339237Y-61202438D02*
X220196380Y-61154819D01*
X220196380Y-61154819D02*
X220101142Y-61154819D01*
X220101142Y-61154819D02*
X219958285Y-61202438D01*
X219958285Y-61202438D02*
X219910666Y-61250057D01*
X219577332Y-61154819D02*
X218958285Y-61154819D01*
X218958285Y-61154819D02*
X219291618Y-61535771D01*
X219291618Y-61535771D02*
X219148761Y-61535771D01*
X219148761Y-61535771D02*
X219053523Y-61583390D01*
X219053523Y-61583390D02*
X219005904Y-61631009D01*
X219005904Y-61631009D02*
X218958285Y-61726247D01*
X218958285Y-61726247D02*
X218958285Y-61964342D01*
X218958285Y-61964342D02*
X219005904Y-62059580D01*
X219005904Y-62059580D02*
X219053523Y-62107200D01*
X219053523Y-62107200D02*
X219148761Y-62154819D01*
X219148761Y-62154819D02*
X219434475Y-62154819D01*
X219434475Y-62154819D02*
X219529713Y-62107200D01*
X219529713Y-62107200D02*
X219577332Y-62059580D01*
X219910666Y-54439580D02*
X219958285Y-54487200D01*
X219958285Y-54487200D02*
X220101142Y-54534819D01*
X220101142Y-54534819D02*
X220196380Y-54534819D01*
X220196380Y-54534819D02*
X220339237Y-54487200D01*
X220339237Y-54487200D02*
X220434475Y-54391961D01*
X220434475Y-54391961D02*
X220482094Y-54296723D01*
X220482094Y-54296723D02*
X220529713Y-54106247D01*
X220529713Y-54106247D02*
X220529713Y-53963390D01*
X220529713Y-53963390D02*
X220482094Y-53772914D01*
X220482094Y-53772914D02*
X220434475Y-53677676D01*
X220434475Y-53677676D02*
X220339237Y-53582438D01*
X220339237Y-53582438D02*
X220196380Y-53534819D01*
X220196380Y-53534819D02*
X220101142Y-53534819D01*
X220101142Y-53534819D02*
X219958285Y-53582438D01*
X219958285Y-53582438D02*
X219910666Y-53630057D01*
X219291618Y-53534819D02*
X219196380Y-53534819D01*
X219196380Y-53534819D02*
X219101142Y-53582438D01*
X219101142Y-53582438D02*
X219053523Y-53630057D01*
X219053523Y-53630057D02*
X219005904Y-53725295D01*
X219005904Y-53725295D02*
X218958285Y-53915771D01*
X218958285Y-53915771D02*
X218958285Y-54153866D01*
X218958285Y-54153866D02*
X219005904Y-54344342D01*
X219005904Y-54344342D02*
X219053523Y-54439580D01*
X219053523Y-54439580D02*
X219101142Y-54487200D01*
X219101142Y-54487200D02*
X219196380Y-54534819D01*
X219196380Y-54534819D02*
X219291618Y-54534819D01*
X219291618Y-54534819D02*
X219386856Y-54487200D01*
X219386856Y-54487200D02*
X219434475Y-54439580D01*
X219434475Y-54439580D02*
X219482094Y-54344342D01*
X219482094Y-54344342D02*
X219529713Y-54153866D01*
X219529713Y-54153866D02*
X219529713Y-53915771D01*
X219529713Y-53915771D02*
X219482094Y-53725295D01*
X219482094Y-53725295D02*
X219434475Y-53630057D01*
X219434475Y-53630057D02*
X219386856Y-53582438D01*
X219386856Y-53582438D02*
X219291618Y-53534819D01*
X215830666Y-62154819D02*
X216163999Y-61678628D01*
X216402094Y-62154819D02*
X216402094Y-61154819D01*
X216402094Y-61154819D02*
X216021142Y-61154819D01*
X216021142Y-61154819D02*
X215925904Y-61202438D01*
X215925904Y-61202438D02*
X215878285Y-61250057D01*
X215878285Y-61250057D02*
X215830666Y-61345295D01*
X215830666Y-61345295D02*
X215830666Y-61488152D01*
X215830666Y-61488152D02*
X215878285Y-61583390D01*
X215878285Y-61583390D02*
X215925904Y-61631009D01*
X215925904Y-61631009D02*
X216021142Y-61678628D01*
X216021142Y-61678628D02*
X216402094Y-61678628D01*
X215211618Y-61154819D02*
X215116380Y-61154819D01*
X215116380Y-61154819D02*
X215021142Y-61202438D01*
X215021142Y-61202438D02*
X214973523Y-61250057D01*
X214973523Y-61250057D02*
X214925904Y-61345295D01*
X214925904Y-61345295D02*
X214878285Y-61535771D01*
X214878285Y-61535771D02*
X214878285Y-61773866D01*
X214878285Y-61773866D02*
X214925904Y-61964342D01*
X214925904Y-61964342D02*
X214973523Y-62059580D01*
X214973523Y-62059580D02*
X215021142Y-62107200D01*
X215021142Y-62107200D02*
X215116380Y-62154819D01*
X215116380Y-62154819D02*
X215211618Y-62154819D01*
X215211618Y-62154819D02*
X215306856Y-62107200D01*
X215306856Y-62107200D02*
X215354475Y-62059580D01*
X215354475Y-62059580D02*
X215402094Y-61964342D01*
X215402094Y-61964342D02*
X215449713Y-61773866D01*
X215449713Y-61773866D02*
X215449713Y-61535771D01*
X215449713Y-61535771D02*
X215402094Y-61345295D01*
X215402094Y-61345295D02*
X215354475Y-61250057D01*
X215354475Y-61250057D02*
X215306856Y-61202438D01*
X215306856Y-61202438D02*
X215211618Y-61154819D01*
X215830666Y-69774819D02*
X216163999Y-69298628D01*
X216402094Y-69774819D02*
X216402094Y-68774819D01*
X216402094Y-68774819D02*
X216021142Y-68774819D01*
X216021142Y-68774819D02*
X215925904Y-68822438D01*
X215925904Y-68822438D02*
X215878285Y-68870057D01*
X215878285Y-68870057D02*
X215830666Y-68965295D01*
X215830666Y-68965295D02*
X215830666Y-69108152D01*
X215830666Y-69108152D02*
X215878285Y-69203390D01*
X215878285Y-69203390D02*
X215925904Y-69251009D01*
X215925904Y-69251009D02*
X216021142Y-69298628D01*
X216021142Y-69298628D02*
X216402094Y-69298628D01*
X215497332Y-68774819D02*
X214878285Y-68774819D01*
X214878285Y-68774819D02*
X215211618Y-69155771D01*
X215211618Y-69155771D02*
X215068761Y-69155771D01*
X215068761Y-69155771D02*
X214973523Y-69203390D01*
X214973523Y-69203390D02*
X214925904Y-69251009D01*
X214925904Y-69251009D02*
X214878285Y-69346247D01*
X214878285Y-69346247D02*
X214878285Y-69584342D01*
X214878285Y-69584342D02*
X214925904Y-69679580D01*
X214925904Y-69679580D02*
X214973523Y-69727200D01*
X214973523Y-69727200D02*
X215068761Y-69774819D01*
X215068761Y-69774819D02*
X215354475Y-69774819D01*
X215354475Y-69774819D02*
X215449713Y-69727200D01*
X215449713Y-69727200D02*
X215497332Y-69679580D01*
X216402094Y-72314819D02*
X216402094Y-71314819D01*
X216402094Y-71314819D02*
X216021142Y-71314819D01*
X216021142Y-71314819D02*
X215925904Y-71362438D01*
X215925904Y-71362438D02*
X215878285Y-71410057D01*
X215878285Y-71410057D02*
X215830666Y-71505295D01*
X215830666Y-71505295D02*
X215830666Y-71648152D01*
X215830666Y-71648152D02*
X215878285Y-71743390D01*
X215878285Y-71743390D02*
X215925904Y-71791009D01*
X215925904Y-71791009D02*
X216021142Y-71838628D01*
X216021142Y-71838628D02*
X216402094Y-71838628D01*
X215354475Y-72314819D02*
X215163999Y-72314819D01*
X215163999Y-72314819D02*
X215068761Y-72267200D01*
X215068761Y-72267200D02*
X215021142Y-72219580D01*
X215021142Y-72219580D02*
X214925904Y-72076723D01*
X214925904Y-72076723D02*
X214878285Y-71886247D01*
X214878285Y-71886247D02*
X214878285Y-71505295D01*
X214878285Y-71505295D02*
X214925904Y-71410057D01*
X214925904Y-71410057D02*
X214973523Y-71362438D01*
X214973523Y-71362438D02*
X215068761Y-71314819D01*
X215068761Y-71314819D02*
X215259237Y-71314819D01*
X215259237Y-71314819D02*
X215354475Y-71362438D01*
X215354475Y-71362438D02*
X215402094Y-71410057D01*
X215402094Y-71410057D02*
X215449713Y-71505295D01*
X215449713Y-71505295D02*
X215449713Y-71743390D01*
X215449713Y-71743390D02*
X215402094Y-71838628D01*
X215402094Y-71838628D02*
X215354475Y-71886247D01*
X215354475Y-71886247D02*
X215259237Y-71933866D01*
X215259237Y-71933866D02*
X215068761Y-71933866D01*
X215068761Y-71933866D02*
X214973523Y-71886247D01*
X214973523Y-71886247D02*
X214925904Y-71838628D01*
X214925904Y-71838628D02*
X214878285Y-71743390D01*
X217444475Y-57027200D02*
X217301618Y-57074819D01*
X217301618Y-57074819D02*
X217063523Y-57074819D01*
X217063523Y-57074819D02*
X216968285Y-57027200D01*
X216968285Y-57027200D02*
X216920666Y-56979580D01*
X216920666Y-56979580D02*
X216873047Y-56884342D01*
X216873047Y-56884342D02*
X216873047Y-56789104D01*
X216873047Y-56789104D02*
X216920666Y-56693866D01*
X216920666Y-56693866D02*
X216968285Y-56646247D01*
X216968285Y-56646247D02*
X217063523Y-56598628D01*
X217063523Y-56598628D02*
X217253999Y-56551009D01*
X217253999Y-56551009D02*
X217349237Y-56503390D01*
X217349237Y-56503390D02*
X217396856Y-56455771D01*
X217396856Y-56455771D02*
X217444475Y-56360533D01*
X217444475Y-56360533D02*
X217444475Y-56265295D01*
X217444475Y-56265295D02*
X217396856Y-56170057D01*
X217396856Y-56170057D02*
X217349237Y-56122438D01*
X217349237Y-56122438D02*
X217253999Y-56074819D01*
X217253999Y-56074819D02*
X217015904Y-56074819D01*
X217015904Y-56074819D02*
X216873047Y-56122438D01*
X215873047Y-56979580D02*
X215920666Y-57027200D01*
X215920666Y-57027200D02*
X216063523Y-57074819D01*
X216063523Y-57074819D02*
X216158761Y-57074819D01*
X216158761Y-57074819D02*
X216301618Y-57027200D01*
X216301618Y-57027200D02*
X216396856Y-56931961D01*
X216396856Y-56931961D02*
X216444475Y-56836723D01*
X216444475Y-56836723D02*
X216492094Y-56646247D01*
X216492094Y-56646247D02*
X216492094Y-56503390D01*
X216492094Y-56503390D02*
X216444475Y-56312914D01*
X216444475Y-56312914D02*
X216396856Y-56217676D01*
X216396856Y-56217676D02*
X216301618Y-56122438D01*
X216301618Y-56122438D02*
X216158761Y-56074819D01*
X216158761Y-56074819D02*
X216063523Y-56074819D01*
X216063523Y-56074819D02*
X215920666Y-56122438D01*
X215920666Y-56122438D02*
X215873047Y-56170057D01*
X214968285Y-57074819D02*
X215444475Y-57074819D01*
X215444475Y-57074819D02*
X215444475Y-56074819D01*
X217468285Y-54487200D02*
X217325428Y-54534819D01*
X217325428Y-54534819D02*
X217087333Y-54534819D01*
X217087333Y-54534819D02*
X216992095Y-54487200D01*
X216992095Y-54487200D02*
X216944476Y-54439580D01*
X216944476Y-54439580D02*
X216896857Y-54344342D01*
X216896857Y-54344342D02*
X216896857Y-54249104D01*
X216896857Y-54249104D02*
X216944476Y-54153866D01*
X216944476Y-54153866D02*
X216992095Y-54106247D01*
X216992095Y-54106247D02*
X217087333Y-54058628D01*
X217087333Y-54058628D02*
X217277809Y-54011009D01*
X217277809Y-54011009D02*
X217373047Y-53963390D01*
X217373047Y-53963390D02*
X217420666Y-53915771D01*
X217420666Y-53915771D02*
X217468285Y-53820533D01*
X217468285Y-53820533D02*
X217468285Y-53725295D01*
X217468285Y-53725295D02*
X217420666Y-53630057D01*
X217420666Y-53630057D02*
X217373047Y-53582438D01*
X217373047Y-53582438D02*
X217277809Y-53534819D01*
X217277809Y-53534819D02*
X217039714Y-53534819D01*
X217039714Y-53534819D02*
X216896857Y-53582438D01*
X216468285Y-54534819D02*
X216468285Y-53534819D01*
X216468285Y-53534819D02*
X216230190Y-53534819D01*
X216230190Y-53534819D02*
X216087333Y-53582438D01*
X216087333Y-53582438D02*
X215992095Y-53677676D01*
X215992095Y-53677676D02*
X215944476Y-53772914D01*
X215944476Y-53772914D02*
X215896857Y-53963390D01*
X215896857Y-53963390D02*
X215896857Y-54106247D01*
X215896857Y-54106247D02*
X215944476Y-54296723D01*
X215944476Y-54296723D02*
X215992095Y-54391961D01*
X215992095Y-54391961D02*
X216087333Y-54487200D01*
X216087333Y-54487200D02*
X216230190Y-54534819D01*
X216230190Y-54534819D02*
X216468285Y-54534819D01*
X215515904Y-54249104D02*
X215039714Y-54249104D01*
X215611142Y-54534819D02*
X215277809Y-53534819D01*
X215277809Y-53534819D02*
X214944476Y-54534819D01*
X220487332Y-50994819D02*
X220153999Y-51994819D01*
X220153999Y-51994819D02*
X219820666Y-50994819D01*
X218915904Y-51899580D02*
X218963523Y-51947200D01*
X218963523Y-51947200D02*
X219106380Y-51994819D01*
X219106380Y-51994819D02*
X219201618Y-51994819D01*
X219201618Y-51994819D02*
X219344475Y-51947200D01*
X219344475Y-51947200D02*
X219439713Y-51851961D01*
X219439713Y-51851961D02*
X219487332Y-51756723D01*
X219487332Y-51756723D02*
X219534951Y-51566247D01*
X219534951Y-51566247D02*
X219534951Y-51423390D01*
X219534951Y-51423390D02*
X219487332Y-51232914D01*
X219487332Y-51232914D02*
X219439713Y-51137676D01*
X219439713Y-51137676D02*
X219344475Y-51042438D01*
X219344475Y-51042438D02*
X219201618Y-50994819D01*
X219201618Y-50994819D02*
X219106380Y-50994819D01*
X219106380Y-50994819D02*
X218963523Y-51042438D01*
X218963523Y-51042438D02*
X218915904Y-51090057D01*
X217915904Y-51899580D02*
X217963523Y-51947200D01*
X217963523Y-51947200D02*
X218106380Y-51994819D01*
X218106380Y-51994819D02*
X218201618Y-51994819D01*
X218201618Y-51994819D02*
X218344475Y-51947200D01*
X218344475Y-51947200D02*
X218439713Y-51851961D01*
X218439713Y-51851961D02*
X218487332Y-51756723D01*
X218487332Y-51756723D02*
X218534951Y-51566247D01*
X218534951Y-51566247D02*
X218534951Y-51423390D01*
X218534951Y-51423390D02*
X218487332Y-51232914D01*
X218487332Y-51232914D02*
X218439713Y-51137676D01*
X218439713Y-51137676D02*
X218344475Y-51042438D01*
X218344475Y-51042438D02*
X218201618Y-50994819D01*
X218201618Y-50994819D02*
X218106380Y-50994819D01*
X218106380Y-50994819D02*
X217963523Y-51042438D01*
X217963523Y-51042438D02*
X217915904Y-51090057D01*
X219910666Y-59519580D02*
X219958285Y-59567200D01*
X219958285Y-59567200D02*
X220101142Y-59614819D01*
X220101142Y-59614819D02*
X220196380Y-59614819D01*
X220196380Y-59614819D02*
X220339237Y-59567200D01*
X220339237Y-59567200D02*
X220434475Y-59471961D01*
X220434475Y-59471961D02*
X220482094Y-59376723D01*
X220482094Y-59376723D02*
X220529713Y-59186247D01*
X220529713Y-59186247D02*
X220529713Y-59043390D01*
X220529713Y-59043390D02*
X220482094Y-58852914D01*
X220482094Y-58852914D02*
X220434475Y-58757676D01*
X220434475Y-58757676D02*
X220339237Y-58662438D01*
X220339237Y-58662438D02*
X220196380Y-58614819D01*
X220196380Y-58614819D02*
X220101142Y-58614819D01*
X220101142Y-58614819D02*
X219958285Y-58662438D01*
X219958285Y-58662438D02*
X219910666Y-58710057D01*
X219529713Y-58710057D02*
X219482094Y-58662438D01*
X219482094Y-58662438D02*
X219386856Y-58614819D01*
X219386856Y-58614819D02*
X219148761Y-58614819D01*
X219148761Y-58614819D02*
X219053523Y-58662438D01*
X219053523Y-58662438D02*
X219005904Y-58710057D01*
X219005904Y-58710057D02*
X218958285Y-58805295D01*
X218958285Y-58805295D02*
X218958285Y-58900533D01*
X218958285Y-58900533D02*
X219005904Y-59043390D01*
X219005904Y-59043390D02*
X219577332Y-59614819D01*
X219577332Y-59614819D02*
X218958285Y-59614819D01*
X220368285Y-72314819D02*
X220368285Y-71314819D01*
X220368285Y-71314819D02*
X219987333Y-71314819D01*
X219987333Y-71314819D02*
X219892095Y-71362438D01*
X219892095Y-71362438D02*
X219844476Y-71410057D01*
X219844476Y-71410057D02*
X219796857Y-71505295D01*
X219796857Y-71505295D02*
X219796857Y-71648152D01*
X219796857Y-71648152D02*
X219844476Y-71743390D01*
X219844476Y-71743390D02*
X219892095Y-71791009D01*
X219892095Y-71791009D02*
X219987333Y-71838628D01*
X219987333Y-71838628D02*
X220368285Y-71838628D01*
X218844476Y-72314819D02*
X219415904Y-72314819D01*
X219130190Y-72314819D02*
X219130190Y-71314819D01*
X219130190Y-71314819D02*
X219225428Y-71457676D01*
X219225428Y-71457676D02*
X219320666Y-71552914D01*
X219320666Y-71552914D02*
X219415904Y-71600533D01*
X218225428Y-71314819D02*
X218130190Y-71314819D01*
X218130190Y-71314819D02*
X218034952Y-71362438D01*
X218034952Y-71362438D02*
X217987333Y-71410057D01*
X217987333Y-71410057D02*
X217939714Y-71505295D01*
X217939714Y-71505295D02*
X217892095Y-71695771D01*
X217892095Y-71695771D02*
X217892095Y-71933866D01*
X217892095Y-71933866D02*
X217939714Y-72124342D01*
X217939714Y-72124342D02*
X217987333Y-72219580D01*
X217987333Y-72219580D02*
X218034952Y-72267200D01*
X218034952Y-72267200D02*
X218130190Y-72314819D01*
X218130190Y-72314819D02*
X218225428Y-72314819D01*
X218225428Y-72314819D02*
X218320666Y-72267200D01*
X218320666Y-72267200D02*
X218368285Y-72219580D01*
X218368285Y-72219580D02*
X218415904Y-72124342D01*
X218415904Y-72124342D02*
X218463523Y-71933866D01*
X218463523Y-71933866D02*
X218463523Y-71695771D01*
X218463523Y-71695771D02*
X218415904Y-71505295D01*
X218415904Y-71505295D02*
X218368285Y-71410057D01*
X218368285Y-71410057D02*
X218320666Y-71362438D01*
X218320666Y-71362438D02*
X218225428Y-71314819D01*
X217015904Y-51042438D02*
X217111142Y-50994819D01*
X217111142Y-50994819D02*
X217253999Y-50994819D01*
X217253999Y-50994819D02*
X217396856Y-51042438D01*
X217396856Y-51042438D02*
X217492094Y-51137676D01*
X217492094Y-51137676D02*
X217539713Y-51232914D01*
X217539713Y-51232914D02*
X217587332Y-51423390D01*
X217587332Y-51423390D02*
X217587332Y-51566247D01*
X217587332Y-51566247D02*
X217539713Y-51756723D01*
X217539713Y-51756723D02*
X217492094Y-51851961D01*
X217492094Y-51851961D02*
X217396856Y-51947200D01*
X217396856Y-51947200D02*
X217253999Y-51994819D01*
X217253999Y-51994819D02*
X217158761Y-51994819D01*
X217158761Y-51994819D02*
X217015904Y-51947200D01*
X217015904Y-51947200D02*
X216968285Y-51899580D01*
X216968285Y-51899580D02*
X216968285Y-51566247D01*
X216968285Y-51566247D02*
X217158761Y-51566247D01*
X216539713Y-51994819D02*
X216539713Y-50994819D01*
X216539713Y-50994819D02*
X215968285Y-51994819D01*
X215968285Y-51994819D02*
X215968285Y-50994819D01*
X215492094Y-51994819D02*
X215492094Y-50994819D01*
X215492094Y-50994819D02*
X215253999Y-50994819D01*
X215253999Y-50994819D02*
X215111142Y-51042438D01*
X215111142Y-51042438D02*
X215015904Y-51137676D01*
X215015904Y-51137676D02*
X214968285Y-51232914D01*
X214968285Y-51232914D02*
X214920666Y-51423390D01*
X214920666Y-51423390D02*
X214920666Y-51566247D01*
X214920666Y-51566247D02*
X214968285Y-51756723D01*
X214968285Y-51756723D02*
X215015904Y-51851961D01*
X215015904Y-51851961D02*
X215111142Y-51947200D01*
X215111142Y-51947200D02*
X215253999Y-51994819D01*
X215253999Y-51994819D02*
X215492094Y-51994819D01*
X215830666Y-59519580D02*
X215878285Y-59567200D01*
X215878285Y-59567200D02*
X216021142Y-59614819D01*
X216021142Y-59614819D02*
X216116380Y-59614819D01*
X216116380Y-59614819D02*
X216259237Y-59567200D01*
X216259237Y-59567200D02*
X216354475Y-59471961D01*
X216354475Y-59471961D02*
X216402094Y-59376723D01*
X216402094Y-59376723D02*
X216449713Y-59186247D01*
X216449713Y-59186247D02*
X216449713Y-59043390D01*
X216449713Y-59043390D02*
X216402094Y-58852914D01*
X216402094Y-58852914D02*
X216354475Y-58757676D01*
X216354475Y-58757676D02*
X216259237Y-58662438D01*
X216259237Y-58662438D02*
X216116380Y-58614819D01*
X216116380Y-58614819D02*
X216021142Y-58614819D01*
X216021142Y-58614819D02*
X215878285Y-58662438D01*
X215878285Y-58662438D02*
X215830666Y-58710057D01*
X215449713Y-59567200D02*
X215306856Y-59614819D01*
X215306856Y-59614819D02*
X215068761Y-59614819D01*
X215068761Y-59614819D02*
X214973523Y-59567200D01*
X214973523Y-59567200D02*
X214925904Y-59519580D01*
X214925904Y-59519580D02*
X214878285Y-59424342D01*
X214878285Y-59424342D02*
X214878285Y-59329104D01*
X214878285Y-59329104D02*
X214925904Y-59233866D01*
X214925904Y-59233866D02*
X214973523Y-59186247D01*
X214973523Y-59186247D02*
X215068761Y-59138628D01*
X215068761Y-59138628D02*
X215259237Y-59091009D01*
X215259237Y-59091009D02*
X215354475Y-59043390D01*
X215354475Y-59043390D02*
X215402094Y-58995771D01*
X215402094Y-58995771D02*
X215449713Y-58900533D01*
X215449713Y-58900533D02*
X215449713Y-58805295D01*
X215449713Y-58805295D02*
X215402094Y-58710057D01*
X215402094Y-58710057D02*
X215354475Y-58662438D01*
X215354475Y-58662438D02*
X215259237Y-58614819D01*
X215259237Y-58614819D02*
X215021142Y-58614819D01*
X215021142Y-58614819D02*
X214878285Y-58662438D01*
X215830666Y-64694819D02*
X216163999Y-64218628D01*
X216402094Y-64694819D02*
X216402094Y-63694819D01*
X216402094Y-63694819D02*
X216021142Y-63694819D01*
X216021142Y-63694819D02*
X215925904Y-63742438D01*
X215925904Y-63742438D02*
X215878285Y-63790057D01*
X215878285Y-63790057D02*
X215830666Y-63885295D01*
X215830666Y-63885295D02*
X215830666Y-64028152D01*
X215830666Y-64028152D02*
X215878285Y-64123390D01*
X215878285Y-64123390D02*
X215925904Y-64171009D01*
X215925904Y-64171009D02*
X216021142Y-64218628D01*
X216021142Y-64218628D02*
X216402094Y-64218628D01*
X214878285Y-64694819D02*
X215449713Y-64694819D01*
X215163999Y-64694819D02*
X215163999Y-63694819D01*
X215163999Y-63694819D02*
X215259237Y-63837676D01*
X215259237Y-63837676D02*
X215354475Y-63932914D01*
X215354475Y-63932914D02*
X215449713Y-63980533D01*
X219910666Y-64599580D02*
X219958285Y-64647200D01*
X219958285Y-64647200D02*
X220101142Y-64694819D01*
X220101142Y-64694819D02*
X220196380Y-64694819D01*
X220196380Y-64694819D02*
X220339237Y-64647200D01*
X220339237Y-64647200D02*
X220434475Y-64551961D01*
X220434475Y-64551961D02*
X220482094Y-64456723D01*
X220482094Y-64456723D02*
X220529713Y-64266247D01*
X220529713Y-64266247D02*
X220529713Y-64123390D01*
X220529713Y-64123390D02*
X220482094Y-63932914D01*
X220482094Y-63932914D02*
X220434475Y-63837676D01*
X220434475Y-63837676D02*
X220339237Y-63742438D01*
X220339237Y-63742438D02*
X220196380Y-63694819D01*
X220196380Y-63694819D02*
X220101142Y-63694819D01*
X220101142Y-63694819D02*
X219958285Y-63742438D01*
X219958285Y-63742438D02*
X219910666Y-63790057D01*
X219053523Y-64028152D02*
X219053523Y-64694819D01*
X219291618Y-63647200D02*
X219529713Y-64361485D01*
X219529713Y-64361485D02*
X218910666Y-64361485D01*
X219844476Y-44374819D02*
X220177809Y-43898628D01*
X220415904Y-44374819D02*
X220415904Y-43374819D01*
X220415904Y-43374819D02*
X220034952Y-43374819D01*
X220034952Y-43374819D02*
X219939714Y-43422438D01*
X219939714Y-43422438D02*
X219892095Y-43470057D01*
X219892095Y-43470057D02*
X219844476Y-43565295D01*
X219844476Y-43565295D02*
X219844476Y-43708152D01*
X219844476Y-43708152D02*
X219892095Y-43803390D01*
X219892095Y-43803390D02*
X219939714Y-43851009D01*
X219939714Y-43851009D02*
X220034952Y-43898628D01*
X220034952Y-43898628D02*
X220415904Y-43898628D01*
X219463523Y-44089104D02*
X218987333Y-44089104D01*
X219558761Y-44374819D02*
X219225428Y-43374819D01*
X219225428Y-43374819D02*
X218892095Y-44374819D01*
X218653999Y-43374819D02*
X218415904Y-44374819D01*
X218415904Y-44374819D02*
X218225428Y-43660533D01*
X218225428Y-43660533D02*
X218034952Y-44374819D01*
X218034952Y-44374819D02*
X217796857Y-43374819D01*
X219701619Y-49454819D02*
X220034952Y-48978628D01*
X220273047Y-49454819D02*
X220273047Y-48454819D01*
X220273047Y-48454819D02*
X219892095Y-48454819D01*
X219892095Y-48454819D02*
X219796857Y-48502438D01*
X219796857Y-48502438D02*
X219749238Y-48550057D01*
X219749238Y-48550057D02*
X219701619Y-48645295D01*
X219701619Y-48645295D02*
X219701619Y-48788152D01*
X219701619Y-48788152D02*
X219749238Y-48883390D01*
X219749238Y-48883390D02*
X219796857Y-48931009D01*
X219796857Y-48931009D02*
X219892095Y-48978628D01*
X219892095Y-48978628D02*
X220273047Y-48978628D01*
X219320666Y-49407200D02*
X219177809Y-49454819D01*
X219177809Y-49454819D02*
X218939714Y-49454819D01*
X218939714Y-49454819D02*
X218844476Y-49407200D01*
X218844476Y-49407200D02*
X218796857Y-49359580D01*
X218796857Y-49359580D02*
X218749238Y-49264342D01*
X218749238Y-49264342D02*
X218749238Y-49169104D01*
X218749238Y-49169104D02*
X218796857Y-49073866D01*
X218796857Y-49073866D02*
X218844476Y-49026247D01*
X218844476Y-49026247D02*
X218939714Y-48978628D01*
X218939714Y-48978628D02*
X219130190Y-48931009D01*
X219130190Y-48931009D02*
X219225428Y-48883390D01*
X219225428Y-48883390D02*
X219273047Y-48835771D01*
X219273047Y-48835771D02*
X219320666Y-48740533D01*
X219320666Y-48740533D02*
X219320666Y-48645295D01*
X219320666Y-48645295D02*
X219273047Y-48550057D01*
X219273047Y-48550057D02*
X219225428Y-48502438D01*
X219225428Y-48502438D02*
X219130190Y-48454819D01*
X219130190Y-48454819D02*
X218892095Y-48454819D01*
X218892095Y-48454819D02*
X218749238Y-48502438D01*
X218463523Y-48454819D02*
X217892095Y-48454819D01*
X218177809Y-49454819D02*
X218177809Y-48454819D01*
X219910666Y-69679580D02*
X219958285Y-69727200D01*
X219958285Y-69727200D02*
X220101142Y-69774819D01*
X220101142Y-69774819D02*
X220196380Y-69774819D01*
X220196380Y-69774819D02*
X220339237Y-69727200D01*
X220339237Y-69727200D02*
X220434475Y-69631961D01*
X220434475Y-69631961D02*
X220482094Y-69536723D01*
X220482094Y-69536723D02*
X220529713Y-69346247D01*
X220529713Y-69346247D02*
X220529713Y-69203390D01*
X220529713Y-69203390D02*
X220482094Y-69012914D01*
X220482094Y-69012914D02*
X220434475Y-68917676D01*
X220434475Y-68917676D02*
X220339237Y-68822438D01*
X220339237Y-68822438D02*
X220196380Y-68774819D01*
X220196380Y-68774819D02*
X220101142Y-68774819D01*
X220101142Y-68774819D02*
X219958285Y-68822438D01*
X219958285Y-68822438D02*
X219910666Y-68870057D01*
X219053523Y-68774819D02*
X219243999Y-68774819D01*
X219243999Y-68774819D02*
X219339237Y-68822438D01*
X219339237Y-68822438D02*
X219386856Y-68870057D01*
X219386856Y-68870057D02*
X219482094Y-69012914D01*
X219482094Y-69012914D02*
X219529713Y-69203390D01*
X219529713Y-69203390D02*
X219529713Y-69584342D01*
X219529713Y-69584342D02*
X219482094Y-69679580D01*
X219482094Y-69679580D02*
X219434475Y-69727200D01*
X219434475Y-69727200D02*
X219339237Y-69774819D01*
X219339237Y-69774819D02*
X219148761Y-69774819D01*
X219148761Y-69774819D02*
X219053523Y-69727200D01*
X219053523Y-69727200D02*
X219005904Y-69679580D01*
X219005904Y-69679580D02*
X218958285Y-69584342D01*
X218958285Y-69584342D02*
X218958285Y-69346247D01*
X218958285Y-69346247D02*
X219005904Y-69251009D01*
X219005904Y-69251009D02*
X219053523Y-69203390D01*
X219053523Y-69203390D02*
X219148761Y-69155771D01*
X219148761Y-69155771D02*
X219339237Y-69155771D01*
X219339237Y-69155771D02*
X219434475Y-69203390D01*
X219434475Y-69203390D02*
X219482094Y-69251009D01*
X219482094Y-69251009D02*
X219529713Y-69346247D01*
X219915904Y-45962438D02*
X220011142Y-45914819D01*
X220011142Y-45914819D02*
X220153999Y-45914819D01*
X220153999Y-45914819D02*
X220296856Y-45962438D01*
X220296856Y-45962438D02*
X220392094Y-46057676D01*
X220392094Y-46057676D02*
X220439713Y-46152914D01*
X220439713Y-46152914D02*
X220487332Y-46343390D01*
X220487332Y-46343390D02*
X220487332Y-46486247D01*
X220487332Y-46486247D02*
X220439713Y-46676723D01*
X220439713Y-46676723D02*
X220392094Y-46771961D01*
X220392094Y-46771961D02*
X220296856Y-46867200D01*
X220296856Y-46867200D02*
X220153999Y-46914819D01*
X220153999Y-46914819D02*
X220058761Y-46914819D01*
X220058761Y-46914819D02*
X219915904Y-46867200D01*
X219915904Y-46867200D02*
X219868285Y-46819580D01*
X219868285Y-46819580D02*
X219868285Y-46486247D01*
X219868285Y-46486247D02*
X220058761Y-46486247D01*
X219439713Y-46914819D02*
X219439713Y-45914819D01*
X219439713Y-45914819D02*
X218868285Y-46914819D01*
X218868285Y-46914819D02*
X218868285Y-45914819D01*
X218392094Y-46914819D02*
X218392094Y-45914819D01*
X218392094Y-45914819D02*
X218153999Y-45914819D01*
X218153999Y-45914819D02*
X218011142Y-45962438D01*
X218011142Y-45962438D02*
X217915904Y-46057676D01*
X217915904Y-46057676D02*
X217868285Y-46152914D01*
X217868285Y-46152914D02*
X217820666Y-46343390D01*
X217820666Y-46343390D02*
X217820666Y-46486247D01*
X217820666Y-46486247D02*
X217868285Y-46676723D01*
X217868285Y-46676723D02*
X217915904Y-46771961D01*
X217915904Y-46771961D02*
X218011142Y-46867200D01*
X218011142Y-46867200D02*
X218153999Y-46914819D01*
X218153999Y-46914819D02*
X218392094Y-46914819D01*
X216896857Y-44374819D02*
X217373047Y-44374819D01*
X217373047Y-44374819D02*
X217373047Y-43374819D01*
X216563523Y-43851009D02*
X216230190Y-43851009D01*
X216087333Y-44374819D02*
X216563523Y-44374819D01*
X216563523Y-44374819D02*
X216563523Y-43374819D01*
X216563523Y-43374819D02*
X216087333Y-43374819D01*
X215658761Y-44374819D02*
X215658761Y-43374819D01*
X215658761Y-43374819D02*
X215420666Y-43374819D01*
X215420666Y-43374819D02*
X215277809Y-43422438D01*
X215277809Y-43422438D02*
X215182571Y-43517676D01*
X215182571Y-43517676D02*
X215134952Y-43612914D01*
X215134952Y-43612914D02*
X215087333Y-43803390D01*
X215087333Y-43803390D02*
X215087333Y-43946247D01*
X215087333Y-43946247D02*
X215134952Y-44136723D01*
X215134952Y-44136723D02*
X215182571Y-44231961D01*
X215182571Y-44231961D02*
X215277809Y-44327200D01*
X215277809Y-44327200D02*
X215420666Y-44374819D01*
X215420666Y-44374819D02*
X215658761Y-44374819D01*
X217015904Y-48502438D02*
X217111142Y-48454819D01*
X217111142Y-48454819D02*
X217253999Y-48454819D01*
X217253999Y-48454819D02*
X217396856Y-48502438D01*
X217396856Y-48502438D02*
X217492094Y-48597676D01*
X217492094Y-48597676D02*
X217539713Y-48692914D01*
X217539713Y-48692914D02*
X217587332Y-48883390D01*
X217587332Y-48883390D02*
X217587332Y-49026247D01*
X217587332Y-49026247D02*
X217539713Y-49216723D01*
X217539713Y-49216723D02*
X217492094Y-49311961D01*
X217492094Y-49311961D02*
X217396856Y-49407200D01*
X217396856Y-49407200D02*
X217253999Y-49454819D01*
X217253999Y-49454819D02*
X217158761Y-49454819D01*
X217158761Y-49454819D02*
X217015904Y-49407200D01*
X217015904Y-49407200D02*
X216968285Y-49359580D01*
X216968285Y-49359580D02*
X216968285Y-49026247D01*
X216968285Y-49026247D02*
X217158761Y-49026247D01*
X216539713Y-49454819D02*
X216539713Y-48454819D01*
X216539713Y-48454819D02*
X215968285Y-49454819D01*
X215968285Y-49454819D02*
X215968285Y-48454819D01*
X215492094Y-49454819D02*
X215492094Y-48454819D01*
X215492094Y-48454819D02*
X215253999Y-48454819D01*
X215253999Y-48454819D02*
X215111142Y-48502438D01*
X215111142Y-48502438D02*
X215015904Y-48597676D01*
X215015904Y-48597676D02*
X214968285Y-48692914D01*
X214968285Y-48692914D02*
X214920666Y-48883390D01*
X214920666Y-48883390D02*
X214920666Y-49026247D01*
X214920666Y-49026247D02*
X214968285Y-49216723D01*
X214968285Y-49216723D02*
X215015904Y-49311961D01*
X215015904Y-49311961D02*
X215111142Y-49407200D01*
X215111142Y-49407200D02*
X215253999Y-49454819D01*
X215253999Y-49454819D02*
X215492094Y-49454819D01*
X219910666Y-67139580D02*
X219958285Y-67187200D01*
X219958285Y-67187200D02*
X220101142Y-67234819D01*
X220101142Y-67234819D02*
X220196380Y-67234819D01*
X220196380Y-67234819D02*
X220339237Y-67187200D01*
X220339237Y-67187200D02*
X220434475Y-67091961D01*
X220434475Y-67091961D02*
X220482094Y-66996723D01*
X220482094Y-66996723D02*
X220529713Y-66806247D01*
X220529713Y-66806247D02*
X220529713Y-66663390D01*
X220529713Y-66663390D02*
X220482094Y-66472914D01*
X220482094Y-66472914D02*
X220434475Y-66377676D01*
X220434475Y-66377676D02*
X220339237Y-66282438D01*
X220339237Y-66282438D02*
X220196380Y-66234819D01*
X220196380Y-66234819D02*
X220101142Y-66234819D01*
X220101142Y-66234819D02*
X219958285Y-66282438D01*
X219958285Y-66282438D02*
X219910666Y-66330057D01*
X219005904Y-66234819D02*
X219482094Y-66234819D01*
X219482094Y-66234819D02*
X219529713Y-66711009D01*
X219529713Y-66711009D02*
X219482094Y-66663390D01*
X219482094Y-66663390D02*
X219386856Y-66615771D01*
X219386856Y-66615771D02*
X219148761Y-66615771D01*
X219148761Y-66615771D02*
X219053523Y-66663390D01*
X219053523Y-66663390D02*
X219005904Y-66711009D01*
X219005904Y-66711009D02*
X218958285Y-66806247D01*
X218958285Y-66806247D02*
X218958285Y-67044342D01*
X218958285Y-67044342D02*
X219005904Y-67139580D01*
X219005904Y-67139580D02*
X219053523Y-67187200D01*
X219053523Y-67187200D02*
X219148761Y-67234819D01*
X219148761Y-67234819D02*
X219386856Y-67234819D01*
X219386856Y-67234819D02*
X219482094Y-67187200D01*
X219482094Y-67187200D02*
X219529713Y-67139580D01*
X215371819Y-81001922D02*
X216371819Y-81335255D01*
X216371819Y-81335255D02*
X215371819Y-81668588D01*
X216276580Y-82573350D02*
X216324200Y-82525731D01*
X216324200Y-82525731D02*
X216371819Y-82382874D01*
X216371819Y-82382874D02*
X216371819Y-82287636D01*
X216371819Y-82287636D02*
X216324200Y-82144779D01*
X216324200Y-82144779D02*
X216228961Y-82049541D01*
X216228961Y-82049541D02*
X216133723Y-82001922D01*
X216133723Y-82001922D02*
X215943247Y-81954303D01*
X215943247Y-81954303D02*
X215800390Y-81954303D01*
X215800390Y-81954303D02*
X215609914Y-82001922D01*
X215609914Y-82001922D02*
X215514676Y-82049541D01*
X215514676Y-82049541D02*
X215419438Y-82144779D01*
X215419438Y-82144779D02*
X215371819Y-82287636D01*
X215371819Y-82287636D02*
X215371819Y-82382874D01*
X215371819Y-82382874D02*
X215419438Y-82525731D01*
X215419438Y-82525731D02*
X215467057Y-82573350D01*
X216276580Y-83573350D02*
X216324200Y-83525731D01*
X216324200Y-83525731D02*
X216371819Y-83382874D01*
X216371819Y-83382874D02*
X216371819Y-83287636D01*
X216371819Y-83287636D02*
X216324200Y-83144779D01*
X216324200Y-83144779D02*
X216228961Y-83049541D01*
X216228961Y-83049541D02*
X216133723Y-83001922D01*
X216133723Y-83001922D02*
X215943247Y-82954303D01*
X215943247Y-82954303D02*
X215800390Y-82954303D01*
X215800390Y-82954303D02*
X215609914Y-83001922D01*
X215609914Y-83001922D02*
X215514676Y-83049541D01*
X215514676Y-83049541D02*
X215419438Y-83144779D01*
X215419438Y-83144779D02*
X215371819Y-83287636D01*
X215371819Y-83287636D02*
X215371819Y-83382874D01*
X215371819Y-83382874D02*
X215419438Y-83525731D01*
X215419438Y-83525731D02*
X215467057Y-83573350D01*
X213784200Y-81097160D02*
X213831819Y-81240017D01*
X213831819Y-81240017D02*
X213831819Y-81478112D01*
X213831819Y-81478112D02*
X213784200Y-81573350D01*
X213784200Y-81573350D02*
X213736580Y-81620969D01*
X213736580Y-81620969D02*
X213641342Y-81668588D01*
X213641342Y-81668588D02*
X213546104Y-81668588D01*
X213546104Y-81668588D02*
X213450866Y-81620969D01*
X213450866Y-81620969D02*
X213403247Y-81573350D01*
X213403247Y-81573350D02*
X213355628Y-81478112D01*
X213355628Y-81478112D02*
X213308009Y-81287636D01*
X213308009Y-81287636D02*
X213260390Y-81192398D01*
X213260390Y-81192398D02*
X213212771Y-81144779D01*
X213212771Y-81144779D02*
X213117533Y-81097160D01*
X213117533Y-81097160D02*
X213022295Y-81097160D01*
X213022295Y-81097160D02*
X212927057Y-81144779D01*
X212927057Y-81144779D02*
X212879438Y-81192398D01*
X212879438Y-81192398D02*
X212831819Y-81287636D01*
X212831819Y-81287636D02*
X212831819Y-81525731D01*
X212831819Y-81525731D02*
X212879438Y-81668588D01*
X213736580Y-82668588D02*
X213784200Y-82620969D01*
X213784200Y-82620969D02*
X213831819Y-82478112D01*
X213831819Y-82478112D02*
X213831819Y-82382874D01*
X213831819Y-82382874D02*
X213784200Y-82240017D01*
X213784200Y-82240017D02*
X213688961Y-82144779D01*
X213688961Y-82144779D02*
X213593723Y-82097160D01*
X213593723Y-82097160D02*
X213403247Y-82049541D01*
X213403247Y-82049541D02*
X213260390Y-82049541D01*
X213260390Y-82049541D02*
X213069914Y-82097160D01*
X213069914Y-82097160D02*
X212974676Y-82144779D01*
X212974676Y-82144779D02*
X212879438Y-82240017D01*
X212879438Y-82240017D02*
X212831819Y-82382874D01*
X212831819Y-82382874D02*
X212831819Y-82478112D01*
X212831819Y-82478112D02*
X212879438Y-82620969D01*
X212879438Y-82620969D02*
X212927057Y-82668588D01*
X213831819Y-83573350D02*
X213831819Y-83097160D01*
X213831819Y-83097160D02*
X212831819Y-83097160D01*
X217959438Y-81668588D02*
X217911819Y-81573350D01*
X217911819Y-81573350D02*
X217911819Y-81430493D01*
X217911819Y-81430493D02*
X217959438Y-81287636D01*
X217959438Y-81287636D02*
X218054676Y-81192398D01*
X218054676Y-81192398D02*
X218149914Y-81144779D01*
X218149914Y-81144779D02*
X218340390Y-81097160D01*
X218340390Y-81097160D02*
X218483247Y-81097160D01*
X218483247Y-81097160D02*
X218673723Y-81144779D01*
X218673723Y-81144779D02*
X218768961Y-81192398D01*
X218768961Y-81192398D02*
X218864200Y-81287636D01*
X218864200Y-81287636D02*
X218911819Y-81430493D01*
X218911819Y-81430493D02*
X218911819Y-81525731D01*
X218911819Y-81525731D02*
X218864200Y-81668588D01*
X218864200Y-81668588D02*
X218816580Y-81716207D01*
X218816580Y-81716207D02*
X218483247Y-81716207D01*
X218483247Y-81716207D02*
X218483247Y-81525731D01*
X218911819Y-82144779D02*
X217911819Y-82144779D01*
X217911819Y-82144779D02*
X218911819Y-82716207D01*
X218911819Y-82716207D02*
X217911819Y-82716207D01*
X218911819Y-83192398D02*
X217911819Y-83192398D01*
X217911819Y-83192398D02*
X217911819Y-83430493D01*
X217911819Y-83430493D02*
X217959438Y-83573350D01*
X217959438Y-83573350D02*
X218054676Y-83668588D01*
X218054676Y-83668588D02*
X218149914Y-83716207D01*
X218149914Y-83716207D02*
X218340390Y-83763826D01*
X218340390Y-83763826D02*
X218483247Y-83763826D01*
X218483247Y-83763826D02*
X218673723Y-83716207D01*
X218673723Y-83716207D02*
X218768961Y-83668588D01*
X218768961Y-83668588D02*
X218864200Y-83573350D01*
X218864200Y-83573350D02*
X218911819Y-83430493D01*
X218911819Y-83430493D02*
X218911819Y-83192398D01*
X211244200Y-81097160D02*
X211291819Y-81240017D01*
X211291819Y-81240017D02*
X211291819Y-81478112D01*
X211291819Y-81478112D02*
X211244200Y-81573350D01*
X211244200Y-81573350D02*
X211196580Y-81620969D01*
X211196580Y-81620969D02*
X211101342Y-81668588D01*
X211101342Y-81668588D02*
X211006104Y-81668588D01*
X211006104Y-81668588D02*
X210910866Y-81620969D01*
X210910866Y-81620969D02*
X210863247Y-81573350D01*
X210863247Y-81573350D02*
X210815628Y-81478112D01*
X210815628Y-81478112D02*
X210768009Y-81287636D01*
X210768009Y-81287636D02*
X210720390Y-81192398D01*
X210720390Y-81192398D02*
X210672771Y-81144779D01*
X210672771Y-81144779D02*
X210577533Y-81097160D01*
X210577533Y-81097160D02*
X210482295Y-81097160D01*
X210482295Y-81097160D02*
X210387057Y-81144779D01*
X210387057Y-81144779D02*
X210339438Y-81192398D01*
X210339438Y-81192398D02*
X210291819Y-81287636D01*
X210291819Y-81287636D02*
X210291819Y-81525731D01*
X210291819Y-81525731D02*
X210339438Y-81668588D01*
X211291819Y-82097160D02*
X210291819Y-82097160D01*
X210291819Y-82097160D02*
X210291819Y-82335255D01*
X210291819Y-82335255D02*
X210339438Y-82478112D01*
X210339438Y-82478112D02*
X210434676Y-82573350D01*
X210434676Y-82573350D02*
X210529914Y-82620969D01*
X210529914Y-82620969D02*
X210720390Y-82668588D01*
X210720390Y-82668588D02*
X210863247Y-82668588D01*
X210863247Y-82668588D02*
X211053723Y-82620969D01*
X211053723Y-82620969D02*
X211148961Y-82573350D01*
X211148961Y-82573350D02*
X211244200Y-82478112D01*
X211244200Y-82478112D02*
X211291819Y-82335255D01*
X211291819Y-82335255D02*
X211291819Y-82097160D01*
X211006104Y-83049541D02*
X211006104Y-83525731D01*
X211291819Y-82954303D02*
X210291819Y-83287636D01*
X210291819Y-83287636D02*
X211291819Y-83620969D01*
X220600000Y-75501000D02*
X220850000Y-75501000D01*
X220600000Y-81501000D02*
X220600000Y-75501000D01*
X220850000Y-81501000D02*
X220600000Y-81501000D01*
X223850000Y-75501000D02*
X224100000Y-75501000D01*
X224100000Y-75501000D02*
X224100000Y-81501000D01*
X224100000Y-81501000D02*
X223850000Y-81501000D01*
D11*
X208754000Y-42590000D02*
X208754000Y-73190000D01*
X208754000Y-45190000D02*
X211414000Y-45190000D01*
X211414000Y-42590000D02*
X208754000Y-42590000D01*
X211414000Y-42590000D02*
X211414000Y-73190000D01*
X211414000Y-73190000D02*
X208754000Y-73190000D01*
X223994000Y-42590000D02*
X223994000Y-73190000D01*
X226654000Y-42590000D02*
X223994000Y-42590000D01*
X226654000Y-42590000D02*
X226654000Y-73190000D01*
X226654000Y-73190000D02*
X223994000Y-73190000D01*
X209507000Y-77678000D02*
X209507000Y-80338000D01*
X219787000Y-77678000D02*
X209507000Y-77678000D01*
X219787000Y-77678000D02*
X219787000Y-80338000D01*
X219787000Y-80338000D02*
X209507000Y-80338000D01*
X141800000Y-104750000D02*
X141800000Y-106350000D01*
X141800000Y-106350000D02*
X140200000Y-106350000D01*
D12*
X183000000Y-98425000D02*
X183800000Y-98425000D01*
X183400000Y-98425000D02*
X183400000Y-97925000D01*
X183400000Y-99025000D02*
X182850000Y-99025000D01*
X183400000Y-99025000D02*
X183000000Y-98425000D01*
X183400000Y-99025000D02*
X183950000Y-99025000D01*
X183400000Y-99425000D02*
X183400000Y-99025000D01*
X183800000Y-98425000D02*
X183400000Y-99025000D01*
D11*
X103800000Y-47750000D02*
X103800000Y-49350000D01*
X103800000Y-49350000D02*
X102200000Y-49350000D01*
D12*
X145000000Y-98425000D02*
X145800000Y-98425000D01*
X145400000Y-98425000D02*
X145400000Y-97925000D01*
X145400000Y-99025000D02*
X144850000Y-99025000D01*
X145400000Y-99025000D02*
X145000000Y-98425000D01*
X145400000Y-99025000D02*
X145950000Y-99025000D01*
X145400000Y-99425000D02*
X145400000Y-99025000D01*
X145800000Y-98425000D02*
X145400000Y-99025000D01*
X202000000Y-81800000D02*
X202800000Y-81800000D01*
X202400000Y-81800000D02*
X202400000Y-81300000D01*
X202400000Y-82400000D02*
X201850000Y-82400000D01*
X202400000Y-82400000D02*
X202000000Y-81800000D01*
X202400000Y-82400000D02*
X202950000Y-82400000D01*
X202400000Y-82800000D02*
X202400000Y-82400000D01*
X202800000Y-81800000D02*
X202400000Y-82400000D01*
D11*
X103800000Y-66750000D02*
X103800000Y-68350000D01*
X103800000Y-68350000D02*
X102200000Y-68350000D01*
D12*
X107000000Y-79425000D02*
X107800000Y-79425000D01*
X107400000Y-79425000D02*
X107400000Y-78925000D01*
X107400000Y-80025000D02*
X106850000Y-80025000D01*
X107400000Y-80025000D02*
X107000000Y-79425000D01*
X107400000Y-80025000D02*
X107950000Y-80025000D01*
X107400000Y-80425000D02*
X107400000Y-80025000D01*
X107800000Y-79425000D02*
X107400000Y-80025000D01*
D11*
X103800000Y-85750000D02*
X103800000Y-87350000D01*
X103800000Y-87350000D02*
X102200000Y-87350000D01*
X179800000Y-85750000D02*
X179800000Y-87350000D01*
X179800000Y-87350000D02*
X178200000Y-87350000D01*
D12*
X216440494Y-111390310D02*
X216840494Y-110697490D01*
X216640494Y-111043900D02*
X216207481Y-110793900D01*
X216840494Y-110697490D02*
X217160109Y-111343900D01*
X217160109Y-111343900D02*
X216440494Y-111390310D01*
X217160109Y-111343900D02*
X216885109Y-111820214D01*
X217160109Y-111343900D02*
X217435109Y-110867586D01*
X217506519Y-111543900D02*
X217160109Y-111343900D01*
D11*
X203863600Y-107824103D02*
X205249241Y-108624103D01*
X205249241Y-108624103D02*
X204449241Y-110009744D01*
X122800000Y-64375000D02*
X122800000Y-65975000D01*
X122800000Y-65975000D02*
X121200000Y-65975000D01*
X198800000Y-50125000D02*
X198800000Y-51725000D01*
X198800000Y-51725000D02*
X197200000Y-51725000D01*
D12*
X126000000Y-39050000D02*
X126800000Y-39050000D01*
X126400000Y-39050000D02*
X126400000Y-38550000D01*
X126400000Y-39650000D02*
X125850000Y-39650000D01*
X126400000Y-39650000D02*
X126000000Y-39050000D01*
X126400000Y-39650000D02*
X126950000Y-39650000D01*
X126400000Y-40050000D02*
X126400000Y-39650000D01*
X126800000Y-39050000D02*
X126400000Y-39650000D01*
D11*
X160800000Y-83375000D02*
X160800000Y-84975000D01*
X160800000Y-84975000D02*
X159200000Y-84975000D01*
X160800000Y-102375000D02*
X160800000Y-103975000D01*
X160800000Y-103975000D02*
X159200000Y-103975000D01*
X122800000Y-45375000D02*
X122800000Y-46975000D01*
X122800000Y-46975000D02*
X121200000Y-46975000D01*
D12*
X145000000Y-79425000D02*
X145800000Y-79425000D01*
X145400000Y-79425000D02*
X145400000Y-78925000D01*
X145400000Y-80025000D02*
X144850000Y-80025000D01*
X145400000Y-80025000D02*
X145000000Y-79425000D01*
X145400000Y-80025000D02*
X145950000Y-80025000D01*
X145400000Y-80425000D02*
X145400000Y-80025000D01*
X145800000Y-79425000D02*
X145400000Y-80025000D01*
D11*
X160800000Y-45375000D02*
X160800000Y-46975000D01*
X160800000Y-46975000D02*
X159200000Y-46975000D01*
D12*
X164000000Y-39050000D02*
X164800000Y-39050000D01*
X164400000Y-39050000D02*
X164400000Y-38550000D01*
X164400000Y-39650000D02*
X163850000Y-39650000D01*
X164400000Y-39650000D02*
X164000000Y-39050000D01*
X164400000Y-39650000D02*
X164950000Y-39650000D01*
X164400000Y-40050000D02*
X164400000Y-39650000D01*
X164800000Y-39050000D02*
X164400000Y-39650000D01*
X183000000Y-41425000D02*
X183800000Y-41425000D01*
X183400000Y-41425000D02*
X183400000Y-40925000D01*
X183400000Y-42025000D02*
X182850000Y-42025000D01*
X183400000Y-42025000D02*
X183000000Y-41425000D01*
X183400000Y-42025000D02*
X183950000Y-42025000D01*
X183400000Y-42425000D02*
X183400000Y-42025000D01*
X183800000Y-41425000D02*
X183400000Y-42025000D01*
X145000000Y-41425000D02*
X145800000Y-41425000D01*
X145400000Y-41425000D02*
X145400000Y-40925000D01*
X145400000Y-42025000D02*
X144850000Y-42025000D01*
X145400000Y-42025000D02*
X145000000Y-41425000D01*
X145400000Y-42025000D02*
X145950000Y-42025000D01*
X145400000Y-42425000D02*
X145400000Y-42025000D01*
X145800000Y-41425000D02*
X145400000Y-42025000D01*
X107000000Y-98425000D02*
X107800000Y-98425000D01*
X107400000Y-98425000D02*
X107400000Y-97925000D01*
X107400000Y-99025000D02*
X106850000Y-99025000D01*
X107400000Y-99025000D02*
X107000000Y-98425000D01*
X107400000Y-99025000D02*
X107950000Y-99025000D01*
X107400000Y-99425000D02*
X107400000Y-99025000D01*
X107800000Y-98425000D02*
X107400000Y-99025000D01*
X126000000Y-58050000D02*
X126800000Y-58050000D01*
X126400000Y-58050000D02*
X126400000Y-57550000D01*
X126400000Y-58650000D02*
X125850000Y-58650000D01*
X126400000Y-58650000D02*
X126000000Y-58050000D01*
X126400000Y-58650000D02*
X126950000Y-58650000D01*
X126400000Y-59050000D02*
X126400000Y-58650000D01*
X126800000Y-58050000D02*
X126400000Y-58650000D01*
D11*
X198800000Y-88125000D02*
X198800000Y-89725000D01*
X198800000Y-89725000D02*
X197200000Y-89725000D01*
X198800000Y-69125000D02*
X198800000Y-70725000D01*
X198800000Y-70725000D02*
X197200000Y-70725000D01*
D12*
X164000000Y-58050000D02*
X164800000Y-58050000D01*
X164400000Y-58050000D02*
X164400000Y-57550000D01*
X164400000Y-58650000D02*
X163850000Y-58650000D01*
X164400000Y-58650000D02*
X164000000Y-58050000D01*
X164400000Y-58650000D02*
X164950000Y-58650000D01*
X164400000Y-59050000D02*
X164400000Y-58650000D01*
X164800000Y-58050000D02*
X164400000Y-58650000D01*
X199985994Y-101890310D02*
X200385994Y-101197490D01*
X200185994Y-101543900D02*
X199752981Y-101293900D01*
X200385994Y-101197490D02*
X200705609Y-101843900D01*
X200705609Y-101843900D02*
X199985994Y-101890310D01*
X200705609Y-101843900D02*
X200430609Y-102320214D01*
X200705609Y-101843900D02*
X200980609Y-101367586D01*
X201052019Y-102043900D02*
X200705609Y-101843900D01*
X164000000Y-77050000D02*
X164800000Y-77050000D01*
X164400000Y-77050000D02*
X164400000Y-76550000D01*
X164400000Y-77650000D02*
X163850000Y-77650000D01*
X164400000Y-77650000D02*
X164000000Y-77050000D01*
X164400000Y-77650000D02*
X164950000Y-77650000D01*
X164400000Y-78050000D02*
X164400000Y-77650000D01*
X164800000Y-77050000D02*
X164400000Y-77650000D01*
D11*
X122800000Y-83375000D02*
X122800000Y-84975000D01*
X122800000Y-84975000D02*
X121200000Y-84975000D01*
D12*
X183000000Y-60425000D02*
X183800000Y-60425000D01*
X183400000Y-60425000D02*
X183400000Y-59925000D01*
X183400000Y-61025000D02*
X182850000Y-61025000D01*
X183400000Y-61025000D02*
X183000000Y-60425000D01*
X183400000Y-61025000D02*
X183950000Y-61025000D01*
X183400000Y-61425000D02*
X183400000Y-61025000D01*
X183800000Y-60425000D02*
X183400000Y-61025000D01*
D11*
X141800000Y-66750000D02*
X141800000Y-68350000D01*
X141800000Y-68350000D02*
X140200000Y-68350000D01*
X122800000Y-102375000D02*
X122800000Y-103975000D01*
X122800000Y-103975000D02*
X121200000Y-103975000D01*
X141800000Y-47750000D02*
X141800000Y-49350000D01*
X141800000Y-49350000D02*
X140200000Y-49350000D01*
D12*
X107000000Y-41425000D02*
X107800000Y-41425000D01*
X107400000Y-41425000D02*
X107400000Y-40925000D01*
X107400000Y-42025000D02*
X106850000Y-42025000D01*
X107400000Y-42025000D02*
X107000000Y-41425000D01*
X107400000Y-42025000D02*
X107950000Y-42025000D01*
X107400000Y-42425000D02*
X107400000Y-42025000D01*
X107800000Y-41425000D02*
X107400000Y-42025000D01*
X145000000Y-60425000D02*
X145800000Y-60425000D01*
X145400000Y-60425000D02*
X145400000Y-59925000D01*
X145400000Y-61025000D02*
X144850000Y-61025000D01*
X145400000Y-61025000D02*
X145000000Y-60425000D01*
X145400000Y-61025000D02*
X145950000Y-61025000D01*
X145400000Y-61425000D02*
X145400000Y-61025000D01*
X145800000Y-60425000D02*
X145400000Y-61025000D01*
D11*
X179800000Y-66750000D02*
X179800000Y-68350000D01*
X179800000Y-68350000D02*
X178200000Y-68350000D01*
D12*
X107000000Y-60425000D02*
X107800000Y-60425000D01*
X107400000Y-60425000D02*
X107400000Y-59925000D01*
X107400000Y-61025000D02*
X106850000Y-61025000D01*
X107400000Y-61025000D02*
X107000000Y-60425000D01*
X107400000Y-61025000D02*
X107950000Y-61025000D01*
X107400000Y-61425000D02*
X107400000Y-61025000D01*
X107800000Y-60425000D02*
X107400000Y-61025000D01*
X202000000Y-62800000D02*
X202800000Y-62800000D01*
X202400000Y-62800000D02*
X202400000Y-62300000D01*
X202400000Y-63400000D02*
X201850000Y-63400000D01*
X202400000Y-63400000D02*
X202000000Y-62800000D01*
X202400000Y-63400000D02*
X202950000Y-63400000D01*
X202400000Y-63800000D02*
X202400000Y-63400000D01*
X202800000Y-62800000D02*
X202400000Y-63400000D01*
D11*
X179800000Y-104750000D02*
X179800000Y-106350000D01*
X179800000Y-106350000D02*
X178200000Y-106350000D01*
X179800000Y-47750000D02*
X179800000Y-49350000D01*
X179800000Y-49350000D02*
X178200000Y-49350000D01*
X220318100Y-117324103D02*
X221703741Y-118124103D01*
X221703741Y-118124103D02*
X220903741Y-119509744D01*
D12*
X126000000Y-96050000D02*
X126800000Y-96050000D01*
X126400000Y-96050000D02*
X126400000Y-95550000D01*
X126400000Y-96650000D02*
X125850000Y-96650000D01*
X126400000Y-96650000D02*
X126000000Y-96050000D01*
X126400000Y-96650000D02*
X126950000Y-96650000D01*
X126400000Y-97050000D02*
X126400000Y-96650000D01*
X126800000Y-96050000D02*
X126400000Y-96650000D01*
D11*
X141800000Y-85750000D02*
X141800000Y-87350000D01*
X141800000Y-87350000D02*
X140200000Y-87350000D01*
D12*
X202000000Y-43800000D02*
X202800000Y-43800000D01*
X202400000Y-43800000D02*
X202400000Y-43300000D01*
X202400000Y-44400000D02*
X201850000Y-44400000D01*
X202400000Y-44400000D02*
X202000000Y-43800000D01*
X202400000Y-44400000D02*
X202950000Y-44400000D01*
X202400000Y-44800000D02*
X202400000Y-44400000D01*
X202800000Y-43800000D02*
X202400000Y-44400000D01*
X183000000Y-79425000D02*
X183800000Y-79425000D01*
X183400000Y-79425000D02*
X183400000Y-78925000D01*
X183400000Y-80025000D02*
X182850000Y-80025000D01*
X183400000Y-80025000D02*
X183000000Y-79425000D01*
X183400000Y-80025000D02*
X183950000Y-80025000D01*
X183400000Y-80425000D02*
X183400000Y-80025000D01*
X183800000Y-79425000D02*
X183400000Y-80025000D01*
X126000000Y-77050000D02*
X126800000Y-77050000D01*
X126400000Y-77050000D02*
X126400000Y-76550000D01*
X126400000Y-77650000D02*
X125850000Y-77650000D01*
X126400000Y-77650000D02*
X126000000Y-77050000D01*
X126400000Y-77650000D02*
X126950000Y-77650000D01*
X126400000Y-78050000D02*
X126400000Y-77650000D01*
X126800000Y-77050000D02*
X126400000Y-77650000D01*
X164000000Y-96050000D02*
X164800000Y-96050000D01*
X164400000Y-96050000D02*
X164400000Y-95550000D01*
X164400000Y-96650000D02*
X163850000Y-96650000D01*
X164400000Y-96650000D02*
X164000000Y-96050000D01*
X164400000Y-96650000D02*
X164950000Y-96650000D01*
X164400000Y-97050000D02*
X164400000Y-96650000D01*
X164800000Y-96050000D02*
X164400000Y-96650000D01*
D11*
X103800000Y-104750000D02*
X103800000Y-106350000D01*
X103800000Y-106350000D02*
X102200000Y-106350000D01*
X160800000Y-64375000D02*
X160800000Y-65975000D01*
X160800000Y-65975000D02*
X159200000Y-65975000D01*
%LPC*%
D13*
X189920000Y-64375000D03*
D14*
X192460000Y-59295000D03*
D15*
X195000000Y-64375000D03*
D14*
X198810000Y-61835000D03*
D13*
X200080000Y-64375000D03*
X170920000Y-81000000D03*
D14*
X173460000Y-75920000D03*
D15*
X176000000Y-81000000D03*
D14*
X179810000Y-78460000D03*
D13*
X181080000Y-81000000D03*
X94920000Y-62000000D03*
D14*
X97460000Y-56920000D03*
D15*
X100000000Y-62000000D03*
D14*
X103810000Y-59460000D03*
D13*
X105080000Y-62000000D03*
X211764500Y-122639409D03*
D14*
X208635091Y-117899705D03*
D15*
X214304500Y-118240000D03*
D14*
X214009795Y-113670443D03*
D13*
X216844500Y-113840591D03*
X94920000Y-43000000D03*
D14*
X97460000Y-37920000D03*
D15*
X100000000Y-43000000D03*
D14*
X103810000Y-40460000D03*
D13*
X105080000Y-43000000D03*
D16*
X222350000Y-75251000D03*
X222350000Y-81751000D03*
D13*
X189920000Y-83375000D03*
D14*
X192460000Y-78295000D03*
D15*
X195000000Y-83375000D03*
D14*
X198810000Y-80835000D03*
D13*
X200080000Y-83375000D03*
D17*
X147500000Y-69125000D03*
G36*
G01*
X222834000Y-44520000D02*
X222834000Y-43320000D01*
G75*
G02*
X222884000Y-43270000I50000J0D01*
G01*
X223484000Y-43270000D01*
G75*
G02*
X223534000Y-43320000I0J-50000D01*
G01*
X223534000Y-44520000D01*
G75*
G02*
X223484000Y-44570000I-50000J0D01*
G01*
X222884000Y-44570000D01*
G75*
G02*
X222834000Y-44520000I0J50000D01*
G01*
G37*
D16*
X225324000Y-43920000D03*
G36*
G01*
X222834000Y-47060000D02*
X222834000Y-45860000D01*
G75*
G02*
X222884000Y-45810000I50000J0D01*
G01*
X223484000Y-45810000D01*
G75*
G02*
X223534000Y-45860000I0J-50000D01*
G01*
X223534000Y-47060000D01*
G75*
G02*
X223484000Y-47110000I-50000J0D01*
G01*
X222884000Y-47110000D01*
G75*
G02*
X222834000Y-47060000I0J50000D01*
G01*
G37*
X225324000Y-46460000D03*
G36*
G01*
X222834000Y-49600000D02*
X222834000Y-48400000D01*
G75*
G02*
X222884000Y-48350000I50000J0D01*
G01*
X223484000Y-48350000D01*
G75*
G02*
X223534000Y-48400000I0J-50000D01*
G01*
X223534000Y-49600000D01*
G75*
G02*
X223484000Y-49650000I-50000J0D01*
G01*
X222884000Y-49650000D01*
G75*
G02*
X222834000Y-49600000I0J50000D01*
G01*
G37*
X225324000Y-49000000D03*
G36*
G01*
X222834000Y-52140000D02*
X222834000Y-50940000D01*
G75*
G02*
X222884000Y-50890000I50000J0D01*
G01*
X223484000Y-50890000D01*
G75*
G02*
X223534000Y-50940000I0J-50000D01*
G01*
X223534000Y-52140000D01*
G75*
G02*
X223484000Y-52190000I-50000J0D01*
G01*
X222884000Y-52190000D01*
G75*
G02*
X222834000Y-52140000I0J50000D01*
G01*
G37*
X225324000Y-51540000D03*
G36*
G01*
X222834000Y-54680000D02*
X222834000Y-53480000D01*
G75*
G02*
X222884000Y-53430000I50000J0D01*
G01*
X223484000Y-53430000D01*
G75*
G02*
X223534000Y-53480000I0J-50000D01*
G01*
X223534000Y-54680000D01*
G75*
G02*
X223484000Y-54730000I-50000J0D01*
G01*
X222884000Y-54730000D01*
G75*
G02*
X222834000Y-54680000I0J50000D01*
G01*
G37*
X225324000Y-54080000D03*
G36*
G01*
X222834000Y-57220000D02*
X222834000Y-56020000D01*
G75*
G02*
X222884000Y-55970000I50000J0D01*
G01*
X223484000Y-55970000D01*
G75*
G02*
X223534000Y-56020000I0J-50000D01*
G01*
X223534000Y-57220000D01*
G75*
G02*
X223484000Y-57270000I-50000J0D01*
G01*
X222884000Y-57270000D01*
G75*
G02*
X222834000Y-57220000I0J50000D01*
G01*
G37*
X225324000Y-56620000D03*
G36*
G01*
X222834000Y-59760000D02*
X222834000Y-58560000D01*
G75*
G02*
X222884000Y-58510000I50000J0D01*
G01*
X223484000Y-58510000D01*
G75*
G02*
X223534000Y-58560000I0J-50000D01*
G01*
X223534000Y-59760000D01*
G75*
G02*
X223484000Y-59810000I-50000J0D01*
G01*
X222884000Y-59810000D01*
G75*
G02*
X222834000Y-59760000I0J50000D01*
G01*
G37*
X225324000Y-59160000D03*
G36*
G01*
X222834000Y-62300000D02*
X222834000Y-61100000D01*
G75*
G02*
X222884000Y-61050000I50000J0D01*
G01*
X223484000Y-61050000D01*
G75*
G02*
X223534000Y-61100000I0J-50000D01*
G01*
X223534000Y-62300000D01*
G75*
G02*
X223484000Y-62350000I-50000J0D01*
G01*
X222884000Y-62350000D01*
G75*
G02*
X222834000Y-62300000I0J50000D01*
G01*
G37*
X225324000Y-61700000D03*
G36*
G01*
X222834000Y-64840000D02*
X222834000Y-63640000D01*
G75*
G02*
X222884000Y-63590000I50000J0D01*
G01*
X223484000Y-63590000D01*
G75*
G02*
X223534000Y-63640000I0J-50000D01*
G01*
X223534000Y-64840000D01*
G75*
G02*
X223484000Y-64890000I-50000J0D01*
G01*
X222884000Y-64890000D01*
G75*
G02*
X222834000Y-64840000I0J50000D01*
G01*
G37*
X225324000Y-64240000D03*
G36*
G01*
X222834000Y-67380000D02*
X222834000Y-66180000D01*
G75*
G02*
X222884000Y-66130000I50000J0D01*
G01*
X223484000Y-66130000D01*
G75*
G02*
X223534000Y-66180000I0J-50000D01*
G01*
X223534000Y-67380000D01*
G75*
G02*
X223484000Y-67430000I-50000J0D01*
G01*
X222884000Y-67430000D01*
G75*
G02*
X222834000Y-67380000I0J50000D01*
G01*
G37*
X225324000Y-66780000D03*
G36*
G01*
X222834000Y-69920000D02*
X222834000Y-68720000D01*
G75*
G02*
X222884000Y-68670000I50000J0D01*
G01*
X223484000Y-68670000D01*
G75*
G02*
X223534000Y-68720000I0J-50000D01*
G01*
X223534000Y-69920000D01*
G75*
G02*
X223484000Y-69970000I-50000J0D01*
G01*
X222884000Y-69970000D01*
G75*
G02*
X222834000Y-69920000I0J50000D01*
G01*
G37*
X225324000Y-69320000D03*
G36*
G01*
X222834000Y-72460000D02*
X222834000Y-71260000D01*
G75*
G02*
X222884000Y-71210000I50000J0D01*
G01*
X223484000Y-71210000D01*
G75*
G02*
X223534000Y-71260000I0J-50000D01*
G01*
X223534000Y-72460000D01*
G75*
G02*
X223484000Y-72510000I-50000J0D01*
G01*
X222884000Y-72510000D01*
G75*
G02*
X222834000Y-72460000I0J50000D01*
G01*
G37*
X225324000Y-71860000D03*
X210084000Y-71860000D03*
G36*
G01*
X211874000Y-72460000D02*
X211874000Y-71260000D01*
G75*
G02*
X211924000Y-71210000I50000J0D01*
G01*
X212524000Y-71210000D01*
G75*
G02*
X212574000Y-71260000I0J-50000D01*
G01*
X212574000Y-72460000D01*
G75*
G02*
X212524000Y-72510000I-50000J0D01*
G01*
X211924000Y-72510000D01*
G75*
G02*
X211874000Y-72460000I0J50000D01*
G01*
G37*
X210084000Y-69320000D03*
G36*
G01*
X211874000Y-69920000D02*
X211874000Y-68720000D01*
G75*
G02*
X211924000Y-68670000I50000J0D01*
G01*
X212524000Y-68670000D01*
G75*
G02*
X212574000Y-68720000I0J-50000D01*
G01*
X212574000Y-69920000D01*
G75*
G02*
X212524000Y-69970000I-50000J0D01*
G01*
X211924000Y-69970000D01*
G75*
G02*
X211874000Y-69920000I0J50000D01*
G01*
G37*
X210084000Y-66780000D03*
G36*
G01*
X211874000Y-67380000D02*
X211874000Y-66180000D01*
G75*
G02*
X211924000Y-66130000I50000J0D01*
G01*
X212524000Y-66130000D01*
G75*
G02*
X212574000Y-66180000I0J-50000D01*
G01*
X212574000Y-67380000D01*
G75*
G02*
X212524000Y-67430000I-50000J0D01*
G01*
X211924000Y-67430000D01*
G75*
G02*
X211874000Y-67380000I0J50000D01*
G01*
G37*
X210084000Y-64240000D03*
G36*
G01*
X211874000Y-64840000D02*
X211874000Y-63640000D01*
G75*
G02*
X211924000Y-63590000I50000J0D01*
G01*
X212524000Y-63590000D01*
G75*
G02*
X212574000Y-63640000I0J-50000D01*
G01*
X212574000Y-64840000D01*
G75*
G02*
X212524000Y-64890000I-50000J0D01*
G01*
X211924000Y-64890000D01*
G75*
G02*
X211874000Y-64840000I0J50000D01*
G01*
G37*
X210084000Y-61700000D03*
G36*
G01*
X211874000Y-62300000D02*
X211874000Y-61100000D01*
G75*
G02*
X211924000Y-61050000I50000J0D01*
G01*
X212524000Y-61050000D01*
G75*
G02*
X212574000Y-61100000I0J-50000D01*
G01*
X212574000Y-62300000D01*
G75*
G02*
X212524000Y-62350000I-50000J0D01*
G01*
X211924000Y-62350000D01*
G75*
G02*
X211874000Y-62300000I0J50000D01*
G01*
G37*
X210084000Y-59160000D03*
G36*
G01*
X211874000Y-59760000D02*
X211874000Y-58560000D01*
G75*
G02*
X211924000Y-58510000I50000J0D01*
G01*
X212524000Y-58510000D01*
G75*
G02*
X212574000Y-58560000I0J-50000D01*
G01*
X212574000Y-59760000D01*
G75*
G02*
X212524000Y-59810000I-50000J0D01*
G01*
X211924000Y-59810000D01*
G75*
G02*
X211874000Y-59760000I0J50000D01*
G01*
G37*
X210084000Y-56620000D03*
G36*
G01*
X211874000Y-57220000D02*
X211874000Y-56020000D01*
G75*
G02*
X211924000Y-55970000I50000J0D01*
G01*
X212524000Y-55970000D01*
G75*
G02*
X212574000Y-56020000I0J-50000D01*
G01*
X212574000Y-57220000D01*
G75*
G02*
X212524000Y-57270000I-50000J0D01*
G01*
X211924000Y-57270000D01*
G75*
G02*
X211874000Y-57220000I0J50000D01*
G01*
G37*
X210084000Y-54080000D03*
G36*
G01*
X211874000Y-54680000D02*
X211874000Y-53480000D01*
G75*
G02*
X211924000Y-53430000I50000J0D01*
G01*
X212524000Y-53430000D01*
G75*
G02*
X212574000Y-53480000I0J-50000D01*
G01*
X212574000Y-54680000D01*
G75*
G02*
X212524000Y-54730000I-50000J0D01*
G01*
X211924000Y-54730000D01*
G75*
G02*
X211874000Y-54680000I0J50000D01*
G01*
G37*
X210084000Y-51540000D03*
G36*
G01*
X211874000Y-52140000D02*
X211874000Y-50940000D01*
G75*
G02*
X211924000Y-50890000I50000J0D01*
G01*
X212524000Y-50890000D01*
G75*
G02*
X212574000Y-50940000I0J-50000D01*
G01*
X212574000Y-52140000D01*
G75*
G02*
X212524000Y-52190000I-50000J0D01*
G01*
X211924000Y-52190000D01*
G75*
G02*
X211874000Y-52140000I0J50000D01*
G01*
G37*
X210084000Y-49000000D03*
G36*
G01*
X211874000Y-49600000D02*
X211874000Y-48400000D01*
G75*
G02*
X211924000Y-48350000I50000J0D01*
G01*
X212524000Y-48350000D01*
G75*
G02*
X212574000Y-48400000I0J-50000D01*
G01*
X212574000Y-49600000D01*
G75*
G02*
X212524000Y-49650000I-50000J0D01*
G01*
X211924000Y-49650000D01*
G75*
G02*
X211874000Y-49600000I0J50000D01*
G01*
G37*
X210084000Y-46460000D03*
G36*
G01*
X211874000Y-47060000D02*
X211874000Y-45860000D01*
G75*
G02*
X211924000Y-45810000I50000J0D01*
G01*
X212524000Y-45810000D01*
G75*
G02*
X212574000Y-45860000I0J-50000D01*
G01*
X212574000Y-47060000D01*
G75*
G02*
X212524000Y-47110000I-50000J0D01*
G01*
X211924000Y-47110000D01*
G75*
G02*
X211874000Y-47060000I0J50000D01*
G01*
G37*
X210084000Y-43920000D03*
G36*
G01*
X211874000Y-44520000D02*
X211874000Y-43320000D01*
G75*
G02*
X211924000Y-43270000I50000J0D01*
G01*
X212524000Y-43270000D01*
G75*
G02*
X212574000Y-43320000I0J-50000D01*
G01*
X212574000Y-44520000D01*
G75*
G02*
X212524000Y-44570000I-50000J0D01*
G01*
X211924000Y-44570000D01*
G75*
G02*
X211874000Y-44520000I0J50000D01*
G01*
G37*
G36*
G01*
X212774000Y-44520000D02*
X212774000Y-43320000D01*
G75*
G02*
X212824000Y-43270000I50000J0D01*
G01*
X213424000Y-43270000D01*
G75*
G02*
X213474000Y-43320000I0J-50000D01*
G01*
X213474000Y-44520000D01*
G75*
G02*
X213424000Y-44570000I-50000J0D01*
G01*
X212824000Y-44570000D01*
G75*
G02*
X212774000Y-44520000I0J50000D01*
G01*
G37*
D18*
X221104000Y-43920000D03*
G36*
G01*
X212774000Y-47060000D02*
X212774000Y-45860000D01*
G75*
G02*
X212824000Y-45810000I50000J0D01*
G01*
X213424000Y-45810000D01*
G75*
G02*
X213474000Y-45860000I0J-50000D01*
G01*
X213474000Y-47060000D01*
G75*
G02*
X213424000Y-47110000I-50000J0D01*
G01*
X212824000Y-47110000D01*
G75*
G02*
X212774000Y-47060000I0J50000D01*
G01*
G37*
X221104000Y-46460000D03*
G36*
G01*
X212774000Y-49600000D02*
X212774000Y-48400000D01*
G75*
G02*
X212824000Y-48350000I50000J0D01*
G01*
X213424000Y-48350000D01*
G75*
G02*
X213474000Y-48400000I0J-50000D01*
G01*
X213474000Y-49600000D01*
G75*
G02*
X213424000Y-49650000I-50000J0D01*
G01*
X212824000Y-49650000D01*
G75*
G02*
X212774000Y-49600000I0J50000D01*
G01*
G37*
X221104000Y-49000000D03*
G36*
G01*
X212774000Y-52140000D02*
X212774000Y-50940000D01*
G75*
G02*
X212824000Y-50890000I50000J0D01*
G01*
X213424000Y-50890000D01*
G75*
G02*
X213474000Y-50940000I0J-50000D01*
G01*
X213474000Y-52140000D01*
G75*
G02*
X213424000Y-52190000I-50000J0D01*
G01*
X212824000Y-52190000D01*
G75*
G02*
X212774000Y-52140000I0J50000D01*
G01*
G37*
X221104000Y-51540000D03*
G36*
G01*
X212774000Y-54680000D02*
X212774000Y-53480000D01*
G75*
G02*
X212824000Y-53430000I50000J0D01*
G01*
X213424000Y-53430000D01*
G75*
G02*
X213474000Y-53480000I0J-50000D01*
G01*
X213474000Y-54680000D01*
G75*
G02*
X213424000Y-54730000I-50000J0D01*
G01*
X212824000Y-54730000D01*
G75*
G02*
X212774000Y-54680000I0J50000D01*
G01*
G37*
X221104000Y-54080000D03*
G36*
G01*
X212774000Y-57220000D02*
X212774000Y-56020000D01*
G75*
G02*
X212824000Y-55970000I50000J0D01*
G01*
X213424000Y-55970000D01*
G75*
G02*
X213474000Y-56020000I0J-50000D01*
G01*
X213474000Y-57220000D01*
G75*
G02*
X213424000Y-57270000I-50000J0D01*
G01*
X212824000Y-57270000D01*
G75*
G02*
X212774000Y-57220000I0J50000D01*
G01*
G37*
X221104000Y-56620000D03*
G36*
G01*
X212774000Y-59760000D02*
X212774000Y-58560000D01*
G75*
G02*
X212824000Y-58510000I50000J0D01*
G01*
X213424000Y-58510000D01*
G75*
G02*
X213474000Y-58560000I0J-50000D01*
G01*
X213474000Y-59760000D01*
G75*
G02*
X213424000Y-59810000I-50000J0D01*
G01*
X212824000Y-59810000D01*
G75*
G02*
X212774000Y-59760000I0J50000D01*
G01*
G37*
X221104000Y-59160000D03*
G36*
G01*
X212774000Y-62300000D02*
X212774000Y-61100000D01*
G75*
G02*
X212824000Y-61050000I50000J0D01*
G01*
X213424000Y-61050000D01*
G75*
G02*
X213474000Y-61100000I0J-50000D01*
G01*
X213474000Y-62300000D01*
G75*
G02*
X213424000Y-62350000I-50000J0D01*
G01*
X212824000Y-62350000D01*
G75*
G02*
X212774000Y-62300000I0J50000D01*
G01*
G37*
X221104000Y-61700000D03*
G36*
G01*
X212774000Y-64840000D02*
X212774000Y-63640000D01*
G75*
G02*
X212824000Y-63590000I50000J0D01*
G01*
X213424000Y-63590000D01*
G75*
G02*
X213474000Y-63640000I0J-50000D01*
G01*
X213474000Y-64840000D01*
G75*
G02*
X213424000Y-64890000I-50000J0D01*
G01*
X212824000Y-64890000D01*
G75*
G02*
X212774000Y-64840000I0J50000D01*
G01*
G37*
X221104000Y-64240000D03*
G36*
G01*
X212774000Y-67380000D02*
X212774000Y-66180000D01*
G75*
G02*
X212824000Y-66130000I50000J0D01*
G01*
X213424000Y-66130000D01*
G75*
G02*
X213474000Y-66180000I0J-50000D01*
G01*
X213474000Y-67380000D01*
G75*
G02*
X213424000Y-67430000I-50000J0D01*
G01*
X212824000Y-67430000D01*
G75*
G02*
X212774000Y-67380000I0J50000D01*
G01*
G37*
X221104000Y-66780000D03*
G36*
G01*
X212774000Y-69920000D02*
X212774000Y-68720000D01*
G75*
G02*
X212824000Y-68670000I50000J0D01*
G01*
X213424000Y-68670000D01*
G75*
G02*
X213474000Y-68720000I0J-50000D01*
G01*
X213474000Y-69920000D01*
G75*
G02*
X213424000Y-69970000I-50000J0D01*
G01*
X212824000Y-69970000D01*
G75*
G02*
X212774000Y-69920000I0J50000D01*
G01*
G37*
X221104000Y-69320000D03*
G36*
G01*
X212774000Y-72460000D02*
X212774000Y-71260000D01*
G75*
G02*
X212824000Y-71210000I50000J0D01*
G01*
X213424000Y-71210000D01*
G75*
G02*
X213474000Y-71260000I0J-50000D01*
G01*
X213474000Y-72460000D01*
G75*
G02*
X213424000Y-72510000I-50000J0D01*
G01*
X212824000Y-72510000D01*
G75*
G02*
X212774000Y-72460000I0J50000D01*
G01*
G37*
X221104000Y-71860000D03*
X214304000Y-71860000D03*
G36*
G01*
X221934000Y-72460000D02*
X221934000Y-71260000D01*
G75*
G02*
X221984000Y-71210000I50000J0D01*
G01*
X222584000Y-71210000D01*
G75*
G02*
X222634000Y-71260000I0J-50000D01*
G01*
X222634000Y-72460000D01*
G75*
G02*
X222584000Y-72510000I-50000J0D01*
G01*
X221984000Y-72510000D01*
G75*
G02*
X221934000Y-72460000I0J50000D01*
G01*
G37*
X214304000Y-69320000D03*
G36*
G01*
X221934000Y-69920000D02*
X221934000Y-68720000D01*
G75*
G02*
X221984000Y-68670000I50000J0D01*
G01*
X222584000Y-68670000D01*
G75*
G02*
X222634000Y-68720000I0J-50000D01*
G01*
X222634000Y-69920000D01*
G75*
G02*
X222584000Y-69970000I-50000J0D01*
G01*
X221984000Y-69970000D01*
G75*
G02*
X221934000Y-69920000I0J50000D01*
G01*
G37*
X214304000Y-66780000D03*
G36*
G01*
X221934000Y-67380000D02*
X221934000Y-66180000D01*
G75*
G02*
X221984000Y-66130000I50000J0D01*
G01*
X222584000Y-66130000D01*
G75*
G02*
X222634000Y-66180000I0J-50000D01*
G01*
X222634000Y-67380000D01*
G75*
G02*
X222584000Y-67430000I-50000J0D01*
G01*
X221984000Y-67430000D01*
G75*
G02*
X221934000Y-67380000I0J50000D01*
G01*
G37*
X214304000Y-64240000D03*
G36*
G01*
X221934000Y-64840000D02*
X221934000Y-63640000D01*
G75*
G02*
X221984000Y-63590000I50000J0D01*
G01*
X222584000Y-63590000D01*
G75*
G02*
X222634000Y-63640000I0J-50000D01*
G01*
X222634000Y-64840000D01*
G75*
G02*
X222584000Y-64890000I-50000J0D01*
G01*
X221984000Y-64890000D01*
G75*
G02*
X221934000Y-64840000I0J50000D01*
G01*
G37*
X214304000Y-61700000D03*
G36*
G01*
X221934000Y-62300000D02*
X221934000Y-61100000D01*
G75*
G02*
X221984000Y-61050000I50000J0D01*
G01*
X222584000Y-61050000D01*
G75*
G02*
X222634000Y-61100000I0J-50000D01*
G01*
X222634000Y-62300000D01*
G75*
G02*
X222584000Y-62350000I-50000J0D01*
G01*
X221984000Y-62350000D01*
G75*
G02*
X221934000Y-62300000I0J50000D01*
G01*
G37*
X214304000Y-59160000D03*
G36*
G01*
X221934000Y-59760000D02*
X221934000Y-58560000D01*
G75*
G02*
X221984000Y-58510000I50000J0D01*
G01*
X222584000Y-58510000D01*
G75*
G02*
X222634000Y-58560000I0J-50000D01*
G01*
X222634000Y-59760000D01*
G75*
G02*
X222584000Y-59810000I-50000J0D01*
G01*
X221984000Y-59810000D01*
G75*
G02*
X221934000Y-59760000I0J50000D01*
G01*
G37*
X214304000Y-56620000D03*
G36*
G01*
X221934000Y-57220000D02*
X221934000Y-56020000D01*
G75*
G02*
X221984000Y-55970000I50000J0D01*
G01*
X222584000Y-55970000D01*
G75*
G02*
X222634000Y-56020000I0J-50000D01*
G01*
X222634000Y-57220000D01*
G75*
G02*
X222584000Y-57270000I-50000J0D01*
G01*
X221984000Y-57270000D01*
G75*
G02*
X221934000Y-57220000I0J50000D01*
G01*
G37*
X214304000Y-54080000D03*
G36*
G01*
X221934000Y-54680000D02*
X221934000Y-53480000D01*
G75*
G02*
X221984000Y-53430000I50000J0D01*
G01*
X222584000Y-53430000D01*
G75*
G02*
X222634000Y-53480000I0J-50000D01*
G01*
X222634000Y-54680000D01*
G75*
G02*
X222584000Y-54730000I-50000J0D01*
G01*
X221984000Y-54730000D01*
G75*
G02*
X221934000Y-54680000I0J50000D01*
G01*
G37*
X214304000Y-51540000D03*
G36*
G01*
X221934000Y-52140000D02*
X221934000Y-50940000D01*
G75*
G02*
X221984000Y-50890000I50000J0D01*
G01*
X222584000Y-50890000D01*
G75*
G02*
X222634000Y-50940000I0J-50000D01*
G01*
X222634000Y-52140000D01*
G75*
G02*
X222584000Y-52190000I-50000J0D01*
G01*
X221984000Y-52190000D01*
G75*
G02*
X221934000Y-52140000I0J50000D01*
G01*
G37*
X214304000Y-49000000D03*
G36*
G01*
X221934000Y-49600000D02*
X221934000Y-48400000D01*
G75*
G02*
X221984000Y-48350000I50000J0D01*
G01*
X222584000Y-48350000D01*
G75*
G02*
X222634000Y-48400000I0J-50000D01*
G01*
X222634000Y-49600000D01*
G75*
G02*
X222584000Y-49650000I-50000J0D01*
G01*
X221984000Y-49650000D01*
G75*
G02*
X221934000Y-49600000I0J50000D01*
G01*
G37*
X214304000Y-46460000D03*
G36*
G01*
X221934000Y-47060000D02*
X221934000Y-45860000D01*
G75*
G02*
X221984000Y-45810000I50000J0D01*
G01*
X222584000Y-45810000D01*
G75*
G02*
X222634000Y-45860000I0J-50000D01*
G01*
X222634000Y-47060000D01*
G75*
G02*
X222584000Y-47110000I-50000J0D01*
G01*
X221984000Y-47110000D01*
G75*
G02*
X221934000Y-47060000I0J50000D01*
G01*
G37*
X214304000Y-43920000D03*
G36*
G01*
X221934000Y-44520000D02*
X221934000Y-43320000D01*
G75*
G02*
X221984000Y-43270000I50000J0D01*
G01*
X222584000Y-43270000D01*
G75*
G02*
X222634000Y-43320000I0J-50000D01*
G01*
X222634000Y-44520000D01*
G75*
G02*
X222584000Y-44570000I-50000J0D01*
G01*
X221984000Y-44570000D01*
G75*
G02*
X221934000Y-44520000I0J50000D01*
G01*
G37*
D17*
X166468000Y-89261000D03*
D13*
X132920000Y-62000000D03*
D14*
X135460000Y-56920000D03*
D15*
X138000000Y-62000000D03*
D14*
X141810000Y-59460000D03*
D13*
X143080000Y-62000000D03*
X132920000Y-43000000D03*
D14*
X135460000Y-37920000D03*
D15*
X138000000Y-43000000D03*
D14*
X141810000Y-40460000D03*
D13*
X143080000Y-43000000D03*
D17*
X185468000Y-53736000D03*
D13*
X195310000Y-113139409D03*
D14*
X192180591Y-108399705D03*
D15*
X197850000Y-108740000D03*
D14*
X197555295Y-104170443D03*
D13*
X200390000Y-104340591D03*
D17*
X109500000Y-50125000D03*
D13*
X151920000Y-97625000D03*
D14*
X154460000Y-92545000D03*
D15*
X157000000Y-97625000D03*
D14*
X160810000Y-95085000D03*
D13*
X162080000Y-97625000D03*
X170920000Y-43000000D03*
D14*
X173460000Y-37920000D03*
D15*
X176000000Y-43000000D03*
D14*
X179810000Y-40460000D03*
D13*
X181080000Y-43000000D03*
D19*
X228694000Y-101245000D03*
D13*
X170920000Y-62000000D03*
D14*
X173460000Y-56920000D03*
D15*
X176000000Y-62000000D03*
D14*
X179810000Y-59460000D03*
D13*
X181080000Y-62000000D03*
X113920000Y-59625000D03*
D14*
X116460000Y-54545000D03*
D15*
X119000000Y-59625000D03*
D14*
X122810000Y-57085000D03*
D13*
X124080000Y-59625000D03*
X151920000Y-40625000D03*
D14*
X154460000Y-35545000D03*
D15*
X157000000Y-40625000D03*
D14*
X160810000Y-38085000D03*
D13*
X162080000Y-40625000D03*
X113920000Y-78625000D03*
D14*
X116460000Y-73545000D03*
D15*
X119000000Y-78625000D03*
D14*
X122810000Y-76085000D03*
D13*
X124080000Y-78625000D03*
D17*
X210827200Y-105262800D03*
X201327200Y-121717200D03*
D20*
X222510000Y-88560000D03*
X215510000Y-88560000D03*
D21*
X220910000Y-86260000D03*
X220910000Y-90860000D03*
X217910000Y-86260000D03*
X217910000Y-90860000D03*
D22*
X213360000Y-86260000D03*
X213360000Y-90860000D03*
D13*
X170920000Y-100000000D03*
D14*
X173460000Y-94920000D03*
D15*
X176000000Y-100000000D03*
D14*
X179810000Y-97460000D03*
D13*
X181080000Y-100000000D03*
X189920000Y-45375000D03*
D14*
X192460000Y-40295000D03*
D15*
X195000000Y-45375000D03*
D14*
X198810000Y-42835000D03*
D13*
X200080000Y-45375000D03*
D17*
X109500000Y-88125000D03*
D13*
X132920000Y-100000000D03*
D14*
X135460000Y-94920000D03*
D15*
X138000000Y-100000000D03*
D14*
X141810000Y-97460000D03*
D13*
X143080000Y-100000000D03*
X151920000Y-59625000D03*
D14*
X154460000Y-54545000D03*
D15*
X157000000Y-59625000D03*
D14*
X160810000Y-57085000D03*
D13*
X162080000Y-59625000D03*
X132920000Y-81000000D03*
D14*
X135460000Y-75920000D03*
D15*
X138000000Y-81000000D03*
D14*
X141810000Y-78460000D03*
D13*
X143080000Y-81000000D03*
D23*
X210837000Y-79008000D03*
X213377000Y-79008000D03*
X215917000Y-79008000D03*
X218457000Y-79008000D03*
G36*
G01*
X217857000Y-76908000D02*
X219057000Y-76908000D01*
G75*
G02*
X219107000Y-76958000I0J-50000D01*
G01*
X219107000Y-77558000D01*
G75*
G02*
X219057000Y-77608000I-50000J0D01*
G01*
X217857000Y-77608000D01*
G75*
G02*
X217807000Y-77558000I0J50000D01*
G01*
X217807000Y-76958000D01*
G75*
G02*
X217857000Y-76908000I50000J0D01*
G01*
G37*
G36*
G01*
X215317000Y-76908000D02*
X216517000Y-76908000D01*
G75*
G02*
X216567000Y-76958000I0J-50000D01*
G01*
X216567000Y-77558000D01*
G75*
G02*
X216517000Y-77608000I-50000J0D01*
G01*
X215317000Y-77608000D01*
G75*
G02*
X215267000Y-77558000I0J50000D01*
G01*
X215267000Y-76958000D01*
G75*
G02*
X215317000Y-76908000I50000J0D01*
G01*
G37*
G36*
G01*
X212777000Y-76908000D02*
X213977000Y-76908000D01*
G75*
G02*
X214027000Y-76958000I0J-50000D01*
G01*
X214027000Y-77558000D01*
G75*
G02*
X213977000Y-77608000I-50000J0D01*
G01*
X212777000Y-77608000D01*
G75*
G02*
X212727000Y-77558000I0J50000D01*
G01*
X212727000Y-76958000D01*
G75*
G02*
X212777000Y-76908000I50000J0D01*
G01*
G37*
G36*
G01*
X210237000Y-76908000D02*
X211437000Y-76908000D01*
G75*
G02*
X211487000Y-76958000I0J-50000D01*
G01*
X211487000Y-77558000D01*
G75*
G02*
X211437000Y-77608000I-50000J0D01*
G01*
X210237000Y-77608000D01*
G75*
G02*
X210187000Y-77558000I0J50000D01*
G01*
X210187000Y-76958000D01*
G75*
G02*
X210237000Y-76908000I50000J0D01*
G01*
G37*
G36*
G01*
X217857000Y-76008000D02*
X219057000Y-76008000D01*
G75*
G02*
X219107000Y-76058000I0J-50000D01*
G01*
X219107000Y-76658000D01*
G75*
G02*
X219057000Y-76708000I-50000J0D01*
G01*
X217857000Y-76708000D01*
G75*
G02*
X217807000Y-76658000I0J50000D01*
G01*
X217807000Y-76058000D01*
G75*
G02*
X217857000Y-76008000I50000J0D01*
G01*
G37*
G36*
G01*
X215317000Y-76008000D02*
X216517000Y-76008000D01*
G75*
G02*
X216567000Y-76058000I0J-50000D01*
G01*
X216567000Y-76658000D01*
G75*
G02*
X216517000Y-76708000I-50000J0D01*
G01*
X215317000Y-76708000D01*
G75*
G02*
X215267000Y-76658000I0J50000D01*
G01*
X215267000Y-76058000D01*
G75*
G02*
X215317000Y-76008000I50000J0D01*
G01*
G37*
G36*
G01*
X212777000Y-76008000D02*
X213977000Y-76008000D01*
G75*
G02*
X214027000Y-76058000I0J-50000D01*
G01*
X214027000Y-76658000D01*
G75*
G02*
X213977000Y-76708000I-50000J0D01*
G01*
X212777000Y-76708000D01*
G75*
G02*
X212727000Y-76658000I0J50000D01*
G01*
X212727000Y-76058000D01*
G75*
G02*
X212777000Y-76008000I50000J0D01*
G01*
G37*
G36*
G01*
X210237000Y-76008000D02*
X211437000Y-76008000D01*
G75*
G02*
X211487000Y-76058000I0J-50000D01*
G01*
X211487000Y-76658000D01*
G75*
G02*
X211437000Y-76708000I-50000J0D01*
G01*
X210237000Y-76708000D01*
G75*
G02*
X210187000Y-76658000I0J50000D01*
G01*
X210187000Y-76058000D01*
G75*
G02*
X210237000Y-76008000I50000J0D01*
G01*
G37*
D13*
X94920000Y-100000000D03*
D14*
X97460000Y-94920000D03*
D15*
X100000000Y-100000000D03*
D14*
X103810000Y-97460000D03*
D13*
X105080000Y-100000000D03*
X151920000Y-78625000D03*
D14*
X154460000Y-73545000D03*
D15*
X157000000Y-78625000D03*
D14*
X160810000Y-76085000D03*
D13*
X162080000Y-78625000D03*
D19*
X207762000Y-89226000D03*
D13*
X113920000Y-40625000D03*
D14*
X116460000Y-35545000D03*
D15*
X119000000Y-40625000D03*
D14*
X122810000Y-38085000D03*
D13*
X124080000Y-40625000D03*
X113920000Y-97625000D03*
D14*
X116460000Y-92545000D03*
D15*
X119000000Y-97625000D03*
D14*
X122810000Y-95085000D03*
D13*
X124080000Y-97625000D03*
X94920000Y-81000000D03*
D14*
X97460000Y-75920000D03*
D15*
X100000000Y-81000000D03*
D14*
X103810000Y-78460000D03*
D13*
X105080000Y-81000000D03*
G36*
G01*
X136050000Y-103550000D02*
X136050000Y-104550000D01*
G75*
G02*
X136000000Y-104600000I-50000J0D01*
G01*
X134600000Y-104600000D01*
G75*
G02*
X134550000Y-104550000I0J50000D01*
G01*
X134550000Y-103550000D01*
G75*
G02*
X134600000Y-103500000I50000J0D01*
G01*
X136000000Y-103500000D01*
G75*
G02*
X136050000Y-103550000I0J-50000D01*
G01*
G37*
G36*
G01*
X136050000Y-104950000D02*
X136050000Y-105950000D01*
G75*
G02*
X136000000Y-106000000I-50000J0D01*
G01*
X134600000Y-106000000D01*
G75*
G02*
X134550000Y-105950000I0J50000D01*
G01*
X134550000Y-104950000D01*
G75*
G02*
X134600000Y-104900000I50000J0D01*
G01*
X136000000Y-104900000D01*
G75*
G02*
X136050000Y-104950000I0J-50000D01*
G01*
G37*
G36*
G01*
X141450000Y-104950000D02*
X141450000Y-105950000D01*
G75*
G02*
X141400000Y-106000000I-50000J0D01*
G01*
X140000000Y-106000000D01*
G75*
G02*
X139950000Y-105950000I0J50000D01*
G01*
X139950000Y-104950000D01*
G75*
G02*
X140000000Y-104900000I50000J0D01*
G01*
X141400000Y-104900000D01*
G75*
G02*
X141450000Y-104950000I0J-50000D01*
G01*
G37*
G36*
G01*
X141450000Y-103550000D02*
X141450000Y-104550000D01*
G75*
G02*
X141400000Y-104600000I-50000J0D01*
G01*
X140000000Y-104600000D01*
G75*
G02*
X139950000Y-104550000I0J50000D01*
G01*
X139950000Y-103550000D01*
G75*
G02*
X140000000Y-103500000I50000J0D01*
G01*
X141400000Y-103500000D01*
G75*
G02*
X141450000Y-103550000I0J-50000D01*
G01*
G37*
X211764500Y-122639409D03*
D14*
X210199795Y-120269557D03*
D15*
X214304500Y-118240000D03*
D14*
X211175091Y-113500295D03*
D13*
X216844500Y-113840591D03*
G36*
G01*
X208982327Y-124878273D02*
X206817263Y-123628273D01*
G75*
G02*
X206798962Y-123559972I25000J43301D01*
G01*
X208073962Y-121351608D01*
G75*
G02*
X208142263Y-121333307I43301J-25000D01*
G01*
X210307327Y-122583307D01*
G75*
G02*
X210325628Y-122651608I-25000J-43301D01*
G01*
X209050628Y-124859972D01*
G75*
G02*
X208982327Y-124878273I-43301J25000D01*
G01*
G37*
G36*
G01*
X213246123Y-112413163D02*
X211081059Y-111163163D01*
G75*
G02*
X211062758Y-111094862I25000J43301D01*
G01*
X212337758Y-108886498D01*
G75*
G02*
X212406059Y-108868197I43301J-25000D01*
G01*
X214571123Y-110118197D01*
G75*
G02*
X214589424Y-110186498I-25000J-43301D01*
G01*
X213314424Y-112394862D01*
G75*
G02*
X213246123Y-112413163I-43301J25000D01*
G01*
G37*
G36*
G01*
X184000000Y-100825000D02*
X182800000Y-100825000D01*
G75*
G02*
X182750000Y-100775000I0J50000D01*
G01*
X182750000Y-99875000D01*
G75*
G02*
X182800000Y-99825000I50000J0D01*
G01*
X184000000Y-99825000D01*
G75*
G02*
X184050000Y-99875000I0J-50000D01*
G01*
X184050000Y-100775000D01*
G75*
G02*
X184000000Y-100825000I-50000J0D01*
G01*
G37*
G36*
G01*
X184000000Y-97525000D02*
X182800000Y-97525000D01*
G75*
G02*
X182750000Y-97475000I0J50000D01*
G01*
X182750000Y-96575000D01*
G75*
G02*
X182800000Y-96525000I50000J0D01*
G01*
X184000000Y-96525000D01*
G75*
G02*
X184050000Y-96575000I0J-50000D01*
G01*
X184050000Y-97475000D01*
G75*
G02*
X184000000Y-97525000I-50000J0D01*
G01*
G37*
X151920000Y-78625000D03*
D14*
X153190000Y-76085000D03*
D15*
X157000000Y-78625000D03*
D14*
X159540000Y-73545000D03*
D13*
X162080000Y-78625000D03*
G36*
G01*
X148590000Y-77335000D02*
X148590000Y-74835000D01*
G75*
G02*
X148640000Y-74785000I50000J0D01*
G01*
X151190000Y-74785000D01*
G75*
G02*
X151240000Y-74835000I0J-50000D01*
G01*
X151240000Y-77335000D01*
G75*
G02*
X151190000Y-77385000I-50000J0D01*
G01*
X148640000Y-77385000D01*
G75*
G02*
X148590000Y-77335000I0J50000D01*
G01*
G37*
G36*
G01*
X161517000Y-74795000D02*
X161517000Y-72295000D01*
G75*
G02*
X161567000Y-72245000I50000J0D01*
G01*
X164117000Y-72245000D01*
G75*
G02*
X164167000Y-72295000I0J-50000D01*
G01*
X164167000Y-74795000D01*
G75*
G02*
X164117000Y-74845000I-50000J0D01*
G01*
X161567000Y-74845000D01*
G75*
G02*
X161517000Y-74795000I0J50000D01*
G01*
G37*
G36*
G01*
X98050000Y-46550000D02*
X98050000Y-47550000D01*
G75*
G02*
X98000000Y-47600000I-50000J0D01*
G01*
X96600000Y-47600000D01*
G75*
G02*
X96550000Y-47550000I0J50000D01*
G01*
X96550000Y-46550000D01*
G75*
G02*
X96600000Y-46500000I50000J0D01*
G01*
X98000000Y-46500000D01*
G75*
G02*
X98050000Y-46550000I0J-50000D01*
G01*
G37*
G36*
G01*
X98050000Y-47950000D02*
X98050000Y-48950000D01*
G75*
G02*
X98000000Y-49000000I-50000J0D01*
G01*
X96600000Y-49000000D01*
G75*
G02*
X96550000Y-48950000I0J50000D01*
G01*
X96550000Y-47950000D01*
G75*
G02*
X96600000Y-47900000I50000J0D01*
G01*
X98000000Y-47900000D01*
G75*
G02*
X98050000Y-47950000I0J-50000D01*
G01*
G37*
G36*
G01*
X103450000Y-47950000D02*
X103450000Y-48950000D01*
G75*
G02*
X103400000Y-49000000I-50000J0D01*
G01*
X102000000Y-49000000D01*
G75*
G02*
X101950000Y-48950000I0J50000D01*
G01*
X101950000Y-47950000D01*
G75*
G02*
X102000000Y-47900000I50000J0D01*
G01*
X103400000Y-47900000D01*
G75*
G02*
X103450000Y-47950000I0J-50000D01*
G01*
G37*
G36*
G01*
X103450000Y-46550000D02*
X103450000Y-47550000D01*
G75*
G02*
X103400000Y-47600000I-50000J0D01*
G01*
X102000000Y-47600000D01*
G75*
G02*
X101950000Y-47550000I0J50000D01*
G01*
X101950000Y-46550000D01*
G75*
G02*
X102000000Y-46500000I50000J0D01*
G01*
X103400000Y-46500000D01*
G75*
G02*
X103450000Y-46550000I0J-50000D01*
G01*
G37*
G36*
G01*
X146000000Y-100825000D02*
X144800000Y-100825000D01*
G75*
G02*
X144750000Y-100775000I0J50000D01*
G01*
X144750000Y-99875000D01*
G75*
G02*
X144800000Y-99825000I50000J0D01*
G01*
X146000000Y-99825000D01*
G75*
G02*
X146050000Y-99875000I0J-50000D01*
G01*
X146050000Y-100775000D01*
G75*
G02*
X146000000Y-100825000I-50000J0D01*
G01*
G37*
G36*
G01*
X146000000Y-97525000D02*
X144800000Y-97525000D01*
G75*
G02*
X144750000Y-97475000I0J50000D01*
G01*
X144750000Y-96575000D01*
G75*
G02*
X144800000Y-96525000I50000J0D01*
G01*
X146000000Y-96525000D01*
G75*
G02*
X146050000Y-96575000I0J-50000D01*
G01*
X146050000Y-97475000D01*
G75*
G02*
X146000000Y-97525000I-50000J0D01*
G01*
G37*
G36*
G01*
X203000000Y-84200000D02*
X201800000Y-84200000D01*
G75*
G02*
X201750000Y-84150000I0J50000D01*
G01*
X201750000Y-83250000D01*
G75*
G02*
X201800000Y-83200000I50000J0D01*
G01*
X203000000Y-83200000D01*
G75*
G02*
X203050000Y-83250000I0J-50000D01*
G01*
X203050000Y-84150000D01*
G75*
G02*
X203000000Y-84200000I-50000J0D01*
G01*
G37*
G36*
G01*
X203000000Y-80900000D02*
X201800000Y-80900000D01*
G75*
G02*
X201750000Y-80850000I0J50000D01*
G01*
X201750000Y-79950000D01*
G75*
G02*
X201800000Y-79900000I50000J0D01*
G01*
X203000000Y-79900000D01*
G75*
G02*
X203050000Y-79950000I0J-50000D01*
G01*
X203050000Y-80850000D01*
G75*
G02*
X203000000Y-80900000I-50000J0D01*
G01*
G37*
X151920000Y-59625000D03*
D14*
X153190000Y-57085000D03*
D15*
X157000000Y-59625000D03*
D14*
X159540000Y-54545000D03*
D13*
X162080000Y-59625000D03*
G36*
G01*
X148590000Y-58335000D02*
X148590000Y-55835000D01*
G75*
G02*
X148640000Y-55785000I50000J0D01*
G01*
X151190000Y-55785000D01*
G75*
G02*
X151240000Y-55835000I0J-50000D01*
G01*
X151240000Y-58335000D01*
G75*
G02*
X151190000Y-58385000I-50000J0D01*
G01*
X148640000Y-58385000D01*
G75*
G02*
X148590000Y-58335000I0J50000D01*
G01*
G37*
G36*
G01*
X161517000Y-55795000D02*
X161517000Y-53295000D01*
G75*
G02*
X161567000Y-53245000I50000J0D01*
G01*
X164117000Y-53245000D01*
G75*
G02*
X164167000Y-53295000I0J-50000D01*
G01*
X164167000Y-55795000D01*
G75*
G02*
X164117000Y-55845000I-50000J0D01*
G01*
X161567000Y-55845000D01*
G75*
G02*
X161517000Y-55795000I0J50000D01*
G01*
G37*
G36*
G01*
X98050000Y-65550000D02*
X98050000Y-66550000D01*
G75*
G02*
X98000000Y-66600000I-50000J0D01*
G01*
X96600000Y-66600000D01*
G75*
G02*
X96550000Y-66550000I0J50000D01*
G01*
X96550000Y-65550000D01*
G75*
G02*
X96600000Y-65500000I50000J0D01*
G01*
X98000000Y-65500000D01*
G75*
G02*
X98050000Y-65550000I0J-50000D01*
G01*
G37*
G36*
G01*
X98050000Y-66950000D02*
X98050000Y-67950000D01*
G75*
G02*
X98000000Y-68000000I-50000J0D01*
G01*
X96600000Y-68000000D01*
G75*
G02*
X96550000Y-67950000I0J50000D01*
G01*
X96550000Y-66950000D01*
G75*
G02*
X96600000Y-66900000I50000J0D01*
G01*
X98000000Y-66900000D01*
G75*
G02*
X98050000Y-66950000I0J-50000D01*
G01*
G37*
G36*
G01*
X103450000Y-66950000D02*
X103450000Y-67950000D01*
G75*
G02*
X103400000Y-68000000I-50000J0D01*
G01*
X102000000Y-68000000D01*
G75*
G02*
X101950000Y-67950000I0J50000D01*
G01*
X101950000Y-66950000D01*
G75*
G02*
X102000000Y-66900000I50000J0D01*
G01*
X103400000Y-66900000D01*
G75*
G02*
X103450000Y-66950000I0J-50000D01*
G01*
G37*
G36*
G01*
X103450000Y-65550000D02*
X103450000Y-66550000D01*
G75*
G02*
X103400000Y-66600000I-50000J0D01*
G01*
X102000000Y-66600000D01*
G75*
G02*
X101950000Y-66550000I0J50000D01*
G01*
X101950000Y-65550000D01*
G75*
G02*
X102000000Y-65500000I50000J0D01*
G01*
X103400000Y-65500000D01*
G75*
G02*
X103450000Y-65550000I0J-50000D01*
G01*
G37*
G36*
G01*
X108000000Y-81825000D02*
X106800000Y-81825000D01*
G75*
G02*
X106750000Y-81775000I0J50000D01*
G01*
X106750000Y-80875000D01*
G75*
G02*
X106800000Y-80825000I50000J0D01*
G01*
X108000000Y-80825000D01*
G75*
G02*
X108050000Y-80875000I0J-50000D01*
G01*
X108050000Y-81775000D01*
G75*
G02*
X108000000Y-81825000I-50000J0D01*
G01*
G37*
G36*
G01*
X108000000Y-78525000D02*
X106800000Y-78525000D01*
G75*
G02*
X106750000Y-78475000I0J50000D01*
G01*
X106750000Y-77575000D01*
G75*
G02*
X106800000Y-77525000I50000J0D01*
G01*
X108000000Y-77525000D01*
G75*
G02*
X108050000Y-77575000I0J-50000D01*
G01*
X108050000Y-78475000D01*
G75*
G02*
X108000000Y-78525000I-50000J0D01*
G01*
G37*
G36*
G01*
X98050000Y-84550000D02*
X98050000Y-85550000D01*
G75*
G02*
X98000000Y-85600000I-50000J0D01*
G01*
X96600000Y-85600000D01*
G75*
G02*
X96550000Y-85550000I0J50000D01*
G01*
X96550000Y-84550000D01*
G75*
G02*
X96600000Y-84500000I50000J0D01*
G01*
X98000000Y-84500000D01*
G75*
G02*
X98050000Y-84550000I0J-50000D01*
G01*
G37*
G36*
G01*
X98050000Y-85950000D02*
X98050000Y-86950000D01*
G75*
G02*
X98000000Y-87000000I-50000J0D01*
G01*
X96600000Y-87000000D01*
G75*
G02*
X96550000Y-86950000I0J50000D01*
G01*
X96550000Y-85950000D01*
G75*
G02*
X96600000Y-85900000I50000J0D01*
G01*
X98000000Y-85900000D01*
G75*
G02*
X98050000Y-85950000I0J-50000D01*
G01*
G37*
G36*
G01*
X103450000Y-85950000D02*
X103450000Y-86950000D01*
G75*
G02*
X103400000Y-87000000I-50000J0D01*
G01*
X102000000Y-87000000D01*
G75*
G02*
X101950000Y-86950000I0J50000D01*
G01*
X101950000Y-85950000D01*
G75*
G02*
X102000000Y-85900000I50000J0D01*
G01*
X103400000Y-85900000D01*
G75*
G02*
X103450000Y-85950000I0J-50000D01*
G01*
G37*
G36*
G01*
X103450000Y-84550000D02*
X103450000Y-85550000D01*
G75*
G02*
X103400000Y-85600000I-50000J0D01*
G01*
X102000000Y-85600000D01*
G75*
G02*
X101950000Y-85550000I0J50000D01*
G01*
X101950000Y-84550000D01*
G75*
G02*
X102000000Y-84500000I50000J0D01*
G01*
X103400000Y-84500000D01*
G75*
G02*
X103450000Y-84550000I0J-50000D01*
G01*
G37*
X94920000Y-100000000D03*
D14*
X96190000Y-97460000D03*
D15*
X100000000Y-100000000D03*
D14*
X102540000Y-94920000D03*
D13*
X105080000Y-100000000D03*
G36*
G01*
X91590000Y-98710000D02*
X91590000Y-96210000D01*
G75*
G02*
X91640000Y-96160000I50000J0D01*
G01*
X94190000Y-96160000D01*
G75*
G02*
X94240000Y-96210000I0J-50000D01*
G01*
X94240000Y-98710000D01*
G75*
G02*
X94190000Y-98760000I-50000J0D01*
G01*
X91640000Y-98760000D01*
G75*
G02*
X91590000Y-98710000I0J50000D01*
G01*
G37*
G36*
G01*
X104517000Y-96170000D02*
X104517000Y-93670000D01*
G75*
G02*
X104567000Y-93620000I50000J0D01*
G01*
X107117000Y-93620000D01*
G75*
G02*
X107167000Y-93670000I0J-50000D01*
G01*
X107167000Y-96170000D01*
G75*
G02*
X107117000Y-96220000I-50000J0D01*
G01*
X104567000Y-96220000D01*
G75*
G02*
X104517000Y-96170000I0J50000D01*
G01*
G37*
G36*
G01*
X174050000Y-84550000D02*
X174050000Y-85550000D01*
G75*
G02*
X174000000Y-85600000I-50000J0D01*
G01*
X172600000Y-85600000D01*
G75*
G02*
X172550000Y-85550000I0J50000D01*
G01*
X172550000Y-84550000D01*
G75*
G02*
X172600000Y-84500000I50000J0D01*
G01*
X174000000Y-84500000D01*
G75*
G02*
X174050000Y-84550000I0J-50000D01*
G01*
G37*
G36*
G01*
X174050000Y-85950000D02*
X174050000Y-86950000D01*
G75*
G02*
X174000000Y-87000000I-50000J0D01*
G01*
X172600000Y-87000000D01*
G75*
G02*
X172550000Y-86950000I0J50000D01*
G01*
X172550000Y-85950000D01*
G75*
G02*
X172600000Y-85900000I50000J0D01*
G01*
X174000000Y-85900000D01*
G75*
G02*
X174050000Y-85950000I0J-50000D01*
G01*
G37*
G36*
G01*
X179450000Y-85950000D02*
X179450000Y-86950000D01*
G75*
G02*
X179400000Y-87000000I-50000J0D01*
G01*
X178000000Y-87000000D01*
G75*
G02*
X177950000Y-86950000I0J50000D01*
G01*
X177950000Y-85950000D01*
G75*
G02*
X178000000Y-85900000I50000J0D01*
G01*
X179400000Y-85900000D01*
G75*
G02*
X179450000Y-85950000I0J-50000D01*
G01*
G37*
G36*
G01*
X179450000Y-84550000D02*
X179450000Y-85550000D01*
G75*
G02*
X179400000Y-85600000I-50000J0D01*
G01*
X178000000Y-85600000D01*
G75*
G02*
X177950000Y-85550000I0J50000D01*
G01*
X177950000Y-84550000D01*
G75*
G02*
X178000000Y-84500000I50000J0D01*
G01*
X179400000Y-84500000D01*
G75*
G02*
X179450000Y-84550000I0J-50000D01*
G01*
G37*
G36*
G01*
X219018954Y-111724285D02*
X218418954Y-112763515D01*
G75*
G02*
X218350653Y-112781816I-43301J25000D01*
G01*
X217571231Y-112331816D01*
G75*
G02*
X217552930Y-112263515I25000J43301D01*
G01*
X218152930Y-111224285D01*
G75*
G02*
X218221231Y-111205984I43301J-25000D01*
G01*
X219000653Y-111655984D01*
G75*
G02*
X219018954Y-111724285I-25000J-43301D01*
G01*
G37*
G36*
G01*
X216161070Y-110074285D02*
X215561070Y-111113515D01*
G75*
G02*
X215492769Y-111131816I-43301J25000D01*
G01*
X214713347Y-110681816D01*
G75*
G02*
X214695046Y-110613515I25000J43301D01*
G01*
X215295046Y-109574285D01*
G75*
G02*
X215363347Y-109555984I43301J-25000D01*
G01*
X216142769Y-110005984D01*
G75*
G02*
X216161070Y-110074285I-25000J-43301D01*
G01*
G37*
G36*
G01*
X199949369Y-112203750D02*
X200815395Y-112703750D01*
G75*
G02*
X200833696Y-112772051I-25000J-43301D01*
G01*
X200133696Y-113984487D01*
G75*
G02*
X200065395Y-114002788I-43301J25000D01*
G01*
X199199369Y-113502788D01*
G75*
G02*
X199181068Y-113434487I25000J43301D01*
G01*
X199881068Y-112222051D01*
G75*
G02*
X199949369Y-112203750I43301J-25000D01*
G01*
G37*
G36*
G01*
X201161805Y-112903750D02*
X202027831Y-113403750D01*
G75*
G02*
X202046132Y-113472051I-25000J-43301D01*
G01*
X201346132Y-114684487D01*
G75*
G02*
X201277831Y-114702788I-43301J25000D01*
G01*
X200411805Y-114202788D01*
G75*
G02*
X200393504Y-114134487I25000J43301D01*
G01*
X201093504Y-112922051D01*
G75*
G02*
X201161805Y-112903750I43301J-25000D01*
G01*
G37*
G36*
G01*
X203861805Y-108227212D02*
X204727831Y-108727212D01*
G75*
G02*
X204746132Y-108795513I-25000J-43301D01*
G01*
X204046132Y-110007949D01*
G75*
G02*
X203977831Y-110026250I-43301J25000D01*
G01*
X203111805Y-109526250D01*
G75*
G02*
X203093504Y-109457949I25000J43301D01*
G01*
X203793504Y-108245513D01*
G75*
G02*
X203861805Y-108227212I43301J-25000D01*
G01*
G37*
G36*
G01*
X202649369Y-107527212D02*
X203515395Y-108027212D01*
G75*
G02*
X203533696Y-108095513I-25000J-43301D01*
G01*
X202833696Y-109307949D01*
G75*
G02*
X202765395Y-109326250I-43301J25000D01*
G01*
X201899369Y-108826250D01*
G75*
G02*
X201881068Y-108757949I25000J43301D01*
G01*
X202581068Y-107545513D01*
G75*
G02*
X202649369Y-107527212I43301J-25000D01*
G01*
G37*
G36*
G01*
X117050000Y-63175000D02*
X117050000Y-64175000D01*
G75*
G02*
X117000000Y-64225000I-50000J0D01*
G01*
X115600000Y-64225000D01*
G75*
G02*
X115550000Y-64175000I0J50000D01*
G01*
X115550000Y-63175000D01*
G75*
G02*
X115600000Y-63125000I50000J0D01*
G01*
X117000000Y-63125000D01*
G75*
G02*
X117050000Y-63175000I0J-50000D01*
G01*
G37*
G36*
G01*
X117050000Y-64575000D02*
X117050000Y-65575000D01*
G75*
G02*
X117000000Y-65625000I-50000J0D01*
G01*
X115600000Y-65625000D01*
G75*
G02*
X115550000Y-65575000I0J50000D01*
G01*
X115550000Y-64575000D01*
G75*
G02*
X115600000Y-64525000I50000J0D01*
G01*
X117000000Y-64525000D01*
G75*
G02*
X117050000Y-64575000I0J-50000D01*
G01*
G37*
G36*
G01*
X122450000Y-64575000D02*
X122450000Y-65575000D01*
G75*
G02*
X122400000Y-65625000I-50000J0D01*
G01*
X121000000Y-65625000D01*
G75*
G02*
X120950000Y-65575000I0J50000D01*
G01*
X120950000Y-64575000D01*
G75*
G02*
X121000000Y-64525000I50000J0D01*
G01*
X122400000Y-64525000D01*
G75*
G02*
X122450000Y-64575000I0J-50000D01*
G01*
G37*
G36*
G01*
X122450000Y-63175000D02*
X122450000Y-64175000D01*
G75*
G02*
X122400000Y-64225000I-50000J0D01*
G01*
X121000000Y-64225000D01*
G75*
G02*
X120950000Y-64175000I0J50000D01*
G01*
X120950000Y-63175000D01*
G75*
G02*
X121000000Y-63125000I50000J0D01*
G01*
X122400000Y-63125000D01*
G75*
G02*
X122450000Y-63175000I0J-50000D01*
G01*
G37*
X170920000Y-62000000D03*
D14*
X172190000Y-59460000D03*
D15*
X176000000Y-62000000D03*
D14*
X178540000Y-56920000D03*
D13*
X181080000Y-62000000D03*
G36*
G01*
X167590000Y-60710000D02*
X167590000Y-58210000D01*
G75*
G02*
X167640000Y-58160000I50000J0D01*
G01*
X170190000Y-58160000D01*
G75*
G02*
X170240000Y-58210000I0J-50000D01*
G01*
X170240000Y-60710000D01*
G75*
G02*
X170190000Y-60760000I-50000J0D01*
G01*
X167640000Y-60760000D01*
G75*
G02*
X167590000Y-60710000I0J50000D01*
G01*
G37*
G36*
G01*
X180517000Y-58170000D02*
X180517000Y-55670000D01*
G75*
G02*
X180567000Y-55620000I50000J0D01*
G01*
X183117000Y-55620000D01*
G75*
G02*
X183167000Y-55670000I0J-50000D01*
G01*
X183167000Y-58170000D01*
G75*
G02*
X183117000Y-58220000I-50000J0D01*
G01*
X180567000Y-58220000D01*
G75*
G02*
X180517000Y-58170000I0J50000D01*
G01*
G37*
G36*
G01*
X193050000Y-48925000D02*
X193050000Y-49925000D01*
G75*
G02*
X193000000Y-49975000I-50000J0D01*
G01*
X191600000Y-49975000D01*
G75*
G02*
X191550000Y-49925000I0J50000D01*
G01*
X191550000Y-48925000D01*
G75*
G02*
X191600000Y-48875000I50000J0D01*
G01*
X193000000Y-48875000D01*
G75*
G02*
X193050000Y-48925000I0J-50000D01*
G01*
G37*
G36*
G01*
X193050000Y-50325000D02*
X193050000Y-51325000D01*
G75*
G02*
X193000000Y-51375000I-50000J0D01*
G01*
X191600000Y-51375000D01*
G75*
G02*
X191550000Y-51325000I0J50000D01*
G01*
X191550000Y-50325000D01*
G75*
G02*
X191600000Y-50275000I50000J0D01*
G01*
X193000000Y-50275000D01*
G75*
G02*
X193050000Y-50325000I0J-50000D01*
G01*
G37*
G36*
G01*
X198450000Y-50325000D02*
X198450000Y-51325000D01*
G75*
G02*
X198400000Y-51375000I-50000J0D01*
G01*
X197000000Y-51375000D01*
G75*
G02*
X196950000Y-51325000I0J50000D01*
G01*
X196950000Y-50325000D01*
G75*
G02*
X197000000Y-50275000I50000J0D01*
G01*
X198400000Y-50275000D01*
G75*
G02*
X198450000Y-50325000I0J-50000D01*
G01*
G37*
G36*
G01*
X198450000Y-48925000D02*
X198450000Y-49925000D01*
G75*
G02*
X198400000Y-49975000I-50000J0D01*
G01*
X197000000Y-49975000D01*
G75*
G02*
X196950000Y-49925000I0J50000D01*
G01*
X196950000Y-48925000D01*
G75*
G02*
X197000000Y-48875000I50000J0D01*
G01*
X198400000Y-48875000D01*
G75*
G02*
X198450000Y-48925000I0J-50000D01*
G01*
G37*
G36*
G01*
X127000000Y-41450000D02*
X125800000Y-41450000D01*
G75*
G02*
X125750000Y-41400000I0J50000D01*
G01*
X125750000Y-40500000D01*
G75*
G02*
X125800000Y-40450000I50000J0D01*
G01*
X127000000Y-40450000D01*
G75*
G02*
X127050000Y-40500000I0J-50000D01*
G01*
X127050000Y-41400000D01*
G75*
G02*
X127000000Y-41450000I-50000J0D01*
G01*
G37*
G36*
G01*
X127000000Y-38150000D02*
X125800000Y-38150000D01*
G75*
G02*
X125750000Y-38100000I0J50000D01*
G01*
X125750000Y-37200000D01*
G75*
G02*
X125800000Y-37150000I50000J0D01*
G01*
X127000000Y-37150000D01*
G75*
G02*
X127050000Y-37200000I0J-50000D01*
G01*
X127050000Y-38100000D01*
G75*
G02*
X127000000Y-38150000I-50000J0D01*
G01*
G37*
X113920000Y-40625000D03*
D14*
X115190000Y-38085000D03*
D15*
X119000000Y-40625000D03*
D14*
X121540000Y-35545000D03*
D13*
X124080000Y-40625000D03*
G36*
G01*
X110590000Y-39335000D02*
X110590000Y-36835000D01*
G75*
G02*
X110640000Y-36785000I50000J0D01*
G01*
X113190000Y-36785000D01*
G75*
G02*
X113240000Y-36835000I0J-50000D01*
G01*
X113240000Y-39335000D01*
G75*
G02*
X113190000Y-39385000I-50000J0D01*
G01*
X110640000Y-39385000D01*
G75*
G02*
X110590000Y-39335000I0J50000D01*
G01*
G37*
G36*
G01*
X123517000Y-36795000D02*
X123517000Y-34295000D01*
G75*
G02*
X123567000Y-34245000I50000J0D01*
G01*
X126117000Y-34245000D01*
G75*
G02*
X126167000Y-34295000I0J-50000D01*
G01*
X126167000Y-36795000D01*
G75*
G02*
X126117000Y-36845000I-50000J0D01*
G01*
X123567000Y-36845000D01*
G75*
G02*
X123517000Y-36795000I0J50000D01*
G01*
G37*
G36*
G01*
X155050000Y-82175000D02*
X155050000Y-83175000D01*
G75*
G02*
X155000000Y-83225000I-50000J0D01*
G01*
X153600000Y-83225000D01*
G75*
G02*
X153550000Y-83175000I0J50000D01*
G01*
X153550000Y-82175000D01*
G75*
G02*
X153600000Y-82125000I50000J0D01*
G01*
X155000000Y-82125000D01*
G75*
G02*
X155050000Y-82175000I0J-50000D01*
G01*
G37*
G36*
G01*
X155050000Y-83575000D02*
X155050000Y-84575000D01*
G75*
G02*
X155000000Y-84625000I-50000J0D01*
G01*
X153600000Y-84625000D01*
G75*
G02*
X153550000Y-84575000I0J50000D01*
G01*
X153550000Y-83575000D01*
G75*
G02*
X153600000Y-83525000I50000J0D01*
G01*
X155000000Y-83525000D01*
G75*
G02*
X155050000Y-83575000I0J-50000D01*
G01*
G37*
G36*
G01*
X160450000Y-83575000D02*
X160450000Y-84575000D01*
G75*
G02*
X160400000Y-84625000I-50000J0D01*
G01*
X159000000Y-84625000D01*
G75*
G02*
X158950000Y-84575000I0J50000D01*
G01*
X158950000Y-83575000D01*
G75*
G02*
X159000000Y-83525000I50000J0D01*
G01*
X160400000Y-83525000D01*
G75*
G02*
X160450000Y-83575000I0J-50000D01*
G01*
G37*
G36*
G01*
X160450000Y-82175000D02*
X160450000Y-83175000D01*
G75*
G02*
X160400000Y-83225000I-50000J0D01*
G01*
X159000000Y-83225000D01*
G75*
G02*
X158950000Y-83175000I0J50000D01*
G01*
X158950000Y-82175000D01*
G75*
G02*
X159000000Y-82125000I50000J0D01*
G01*
X160400000Y-82125000D01*
G75*
G02*
X160450000Y-82175000I0J-50000D01*
G01*
G37*
G36*
G01*
X155050000Y-101175000D02*
X155050000Y-102175000D01*
G75*
G02*
X155000000Y-102225000I-50000J0D01*
G01*
X153600000Y-102225000D01*
G75*
G02*
X153550000Y-102175000I0J50000D01*
G01*
X153550000Y-101175000D01*
G75*
G02*
X153600000Y-101125000I50000J0D01*
G01*
X155000000Y-101125000D01*
G75*
G02*
X155050000Y-101175000I0J-50000D01*
G01*
G37*
G36*
G01*
X155050000Y-102575000D02*
X155050000Y-103575000D01*
G75*
G02*
X155000000Y-103625000I-50000J0D01*
G01*
X153600000Y-103625000D01*
G75*
G02*
X153550000Y-103575000I0J50000D01*
G01*
X153550000Y-102575000D01*
G75*
G02*
X153600000Y-102525000I50000J0D01*
G01*
X155000000Y-102525000D01*
G75*
G02*
X155050000Y-102575000I0J-50000D01*
G01*
G37*
G36*
G01*
X160450000Y-102575000D02*
X160450000Y-103575000D01*
G75*
G02*
X160400000Y-103625000I-50000J0D01*
G01*
X159000000Y-103625000D01*
G75*
G02*
X158950000Y-103575000I0J50000D01*
G01*
X158950000Y-102575000D01*
G75*
G02*
X159000000Y-102525000I50000J0D01*
G01*
X160400000Y-102525000D01*
G75*
G02*
X160450000Y-102575000I0J-50000D01*
G01*
G37*
G36*
G01*
X160450000Y-101175000D02*
X160450000Y-102175000D01*
G75*
G02*
X160400000Y-102225000I-50000J0D01*
G01*
X159000000Y-102225000D01*
G75*
G02*
X158950000Y-102175000I0J50000D01*
G01*
X158950000Y-101175000D01*
G75*
G02*
X159000000Y-101125000I50000J0D01*
G01*
X160400000Y-101125000D01*
G75*
G02*
X160450000Y-101175000I0J-50000D01*
G01*
G37*
X170920000Y-43000000D03*
D14*
X172190000Y-40460000D03*
D15*
X176000000Y-43000000D03*
D14*
X178540000Y-37920000D03*
D13*
X181080000Y-43000000D03*
G36*
G01*
X167590000Y-41710000D02*
X167590000Y-39210000D01*
G75*
G02*
X167640000Y-39160000I50000J0D01*
G01*
X170190000Y-39160000D01*
G75*
G02*
X170240000Y-39210000I0J-50000D01*
G01*
X170240000Y-41710000D01*
G75*
G02*
X170190000Y-41760000I-50000J0D01*
G01*
X167640000Y-41760000D01*
G75*
G02*
X167590000Y-41710000I0J50000D01*
G01*
G37*
G36*
G01*
X180517000Y-39170000D02*
X180517000Y-36670000D01*
G75*
G02*
X180567000Y-36620000I50000J0D01*
G01*
X183117000Y-36620000D01*
G75*
G02*
X183167000Y-36670000I0J-50000D01*
G01*
X183167000Y-39170000D01*
G75*
G02*
X183117000Y-39220000I-50000J0D01*
G01*
X180567000Y-39220000D01*
G75*
G02*
X180517000Y-39170000I0J50000D01*
G01*
G37*
G36*
G01*
X117050000Y-44175000D02*
X117050000Y-45175000D01*
G75*
G02*
X117000000Y-45225000I-50000J0D01*
G01*
X115600000Y-45225000D01*
G75*
G02*
X115550000Y-45175000I0J50000D01*
G01*
X115550000Y-44175000D01*
G75*
G02*
X115600000Y-44125000I50000J0D01*
G01*
X117000000Y-44125000D01*
G75*
G02*
X117050000Y-44175000I0J-50000D01*
G01*
G37*
G36*
G01*
X117050000Y-45575000D02*
X117050000Y-46575000D01*
G75*
G02*
X117000000Y-46625000I-50000J0D01*
G01*
X115600000Y-46625000D01*
G75*
G02*
X115550000Y-46575000I0J50000D01*
G01*
X115550000Y-45575000D01*
G75*
G02*
X115600000Y-45525000I50000J0D01*
G01*
X117000000Y-45525000D01*
G75*
G02*
X117050000Y-45575000I0J-50000D01*
G01*
G37*
G36*
G01*
X122450000Y-45575000D02*
X122450000Y-46575000D01*
G75*
G02*
X122400000Y-46625000I-50000J0D01*
G01*
X121000000Y-46625000D01*
G75*
G02*
X120950000Y-46575000I0J50000D01*
G01*
X120950000Y-45575000D01*
G75*
G02*
X121000000Y-45525000I50000J0D01*
G01*
X122400000Y-45525000D01*
G75*
G02*
X122450000Y-45575000I0J-50000D01*
G01*
G37*
G36*
G01*
X122450000Y-44175000D02*
X122450000Y-45175000D01*
G75*
G02*
X122400000Y-45225000I-50000J0D01*
G01*
X121000000Y-45225000D01*
G75*
G02*
X120950000Y-45175000I0J50000D01*
G01*
X120950000Y-44175000D01*
G75*
G02*
X121000000Y-44125000I50000J0D01*
G01*
X122400000Y-44125000D01*
G75*
G02*
X122450000Y-44175000I0J-50000D01*
G01*
G37*
G36*
G01*
X146000000Y-81825000D02*
X144800000Y-81825000D01*
G75*
G02*
X144750000Y-81775000I0J50000D01*
G01*
X144750000Y-80875000D01*
G75*
G02*
X144800000Y-80825000I50000J0D01*
G01*
X146000000Y-80825000D01*
G75*
G02*
X146050000Y-80875000I0J-50000D01*
G01*
X146050000Y-81775000D01*
G75*
G02*
X146000000Y-81825000I-50000J0D01*
G01*
G37*
G36*
G01*
X146000000Y-78525000D02*
X144800000Y-78525000D01*
G75*
G02*
X144750000Y-78475000I0J50000D01*
G01*
X144750000Y-77575000D01*
G75*
G02*
X144800000Y-77525000I50000J0D01*
G01*
X146000000Y-77525000D01*
G75*
G02*
X146050000Y-77575000I0J-50000D01*
G01*
X146050000Y-78475000D01*
G75*
G02*
X146000000Y-78525000I-50000J0D01*
G01*
G37*
G36*
G01*
X155050000Y-44175000D02*
X155050000Y-45175000D01*
G75*
G02*
X155000000Y-45225000I-50000J0D01*
G01*
X153600000Y-45225000D01*
G75*
G02*
X153550000Y-45175000I0J50000D01*
G01*
X153550000Y-44175000D01*
G75*
G02*
X153600000Y-44125000I50000J0D01*
G01*
X155000000Y-44125000D01*
G75*
G02*
X155050000Y-44175000I0J-50000D01*
G01*
G37*
G36*
G01*
X155050000Y-45575000D02*
X155050000Y-46575000D01*
G75*
G02*
X155000000Y-46625000I-50000J0D01*
G01*
X153600000Y-46625000D01*
G75*
G02*
X153550000Y-46575000I0J50000D01*
G01*
X153550000Y-45575000D01*
G75*
G02*
X153600000Y-45525000I50000J0D01*
G01*
X155000000Y-45525000D01*
G75*
G02*
X155050000Y-45575000I0J-50000D01*
G01*
G37*
G36*
G01*
X160450000Y-45575000D02*
X160450000Y-46575000D01*
G75*
G02*
X160400000Y-46625000I-50000J0D01*
G01*
X159000000Y-46625000D01*
G75*
G02*
X158950000Y-46575000I0J50000D01*
G01*
X158950000Y-45575000D01*
G75*
G02*
X159000000Y-45525000I50000J0D01*
G01*
X160400000Y-45525000D01*
G75*
G02*
X160450000Y-45575000I0J-50000D01*
G01*
G37*
G36*
G01*
X160450000Y-44175000D02*
X160450000Y-45175000D01*
G75*
G02*
X160400000Y-45225000I-50000J0D01*
G01*
X159000000Y-45225000D01*
G75*
G02*
X158950000Y-45175000I0J50000D01*
G01*
X158950000Y-44175000D01*
G75*
G02*
X159000000Y-44125000I50000J0D01*
G01*
X160400000Y-44125000D01*
G75*
G02*
X160450000Y-44175000I0J-50000D01*
G01*
G37*
G36*
G01*
X165000000Y-41450000D02*
X163800000Y-41450000D01*
G75*
G02*
X163750000Y-41400000I0J50000D01*
G01*
X163750000Y-40500000D01*
G75*
G02*
X163800000Y-40450000I50000J0D01*
G01*
X165000000Y-40450000D01*
G75*
G02*
X165050000Y-40500000I0J-50000D01*
G01*
X165050000Y-41400000D01*
G75*
G02*
X165000000Y-41450000I-50000J0D01*
G01*
G37*
G36*
G01*
X165000000Y-38150000D02*
X163800000Y-38150000D01*
G75*
G02*
X163750000Y-38100000I0J50000D01*
G01*
X163750000Y-37200000D01*
G75*
G02*
X163800000Y-37150000I50000J0D01*
G01*
X165000000Y-37150000D01*
G75*
G02*
X165050000Y-37200000I0J-50000D01*
G01*
X165050000Y-38100000D01*
G75*
G02*
X165000000Y-38150000I-50000J0D01*
G01*
G37*
G36*
G01*
X184000000Y-43825000D02*
X182800000Y-43825000D01*
G75*
G02*
X182750000Y-43775000I0J50000D01*
G01*
X182750000Y-42875000D01*
G75*
G02*
X182800000Y-42825000I50000J0D01*
G01*
X184000000Y-42825000D01*
G75*
G02*
X184050000Y-42875000I0J-50000D01*
G01*
X184050000Y-43775000D01*
G75*
G02*
X184000000Y-43825000I-50000J0D01*
G01*
G37*
G36*
G01*
X184000000Y-40525000D02*
X182800000Y-40525000D01*
G75*
G02*
X182750000Y-40475000I0J50000D01*
G01*
X182750000Y-39575000D01*
G75*
G02*
X182800000Y-39525000I50000J0D01*
G01*
X184000000Y-39525000D01*
G75*
G02*
X184050000Y-39575000I0J-50000D01*
G01*
X184050000Y-40475000D01*
G75*
G02*
X184000000Y-40525000I-50000J0D01*
G01*
G37*
G36*
G01*
X146000000Y-43825000D02*
X144800000Y-43825000D01*
G75*
G02*
X144750000Y-43775000I0J50000D01*
G01*
X144750000Y-42875000D01*
G75*
G02*
X144800000Y-42825000I50000J0D01*
G01*
X146000000Y-42825000D01*
G75*
G02*
X146050000Y-42875000I0J-50000D01*
G01*
X146050000Y-43775000D01*
G75*
G02*
X146000000Y-43825000I-50000J0D01*
G01*
G37*
G36*
G01*
X146000000Y-40525000D02*
X144800000Y-40525000D01*
G75*
G02*
X144750000Y-40475000I0J50000D01*
G01*
X144750000Y-39575000D01*
G75*
G02*
X144800000Y-39525000I50000J0D01*
G01*
X146000000Y-39525000D01*
G75*
G02*
X146050000Y-39575000I0J-50000D01*
G01*
X146050000Y-40475000D01*
G75*
G02*
X146000000Y-40525000I-50000J0D01*
G01*
G37*
G36*
G01*
X108000000Y-100825000D02*
X106800000Y-100825000D01*
G75*
G02*
X106750000Y-100775000I0J50000D01*
G01*
X106750000Y-99875000D01*
G75*
G02*
X106800000Y-99825000I50000J0D01*
G01*
X108000000Y-99825000D01*
G75*
G02*
X108050000Y-99875000I0J-50000D01*
G01*
X108050000Y-100775000D01*
G75*
G02*
X108000000Y-100825000I-50000J0D01*
G01*
G37*
G36*
G01*
X108000000Y-97525000D02*
X106800000Y-97525000D01*
G75*
G02*
X106750000Y-97475000I0J50000D01*
G01*
X106750000Y-96575000D01*
G75*
G02*
X106800000Y-96525000I50000J0D01*
G01*
X108000000Y-96525000D01*
G75*
G02*
X108050000Y-96575000I0J-50000D01*
G01*
X108050000Y-97475000D01*
G75*
G02*
X108000000Y-97525000I-50000J0D01*
G01*
G37*
X170920000Y-100000000D03*
D14*
X172190000Y-97460000D03*
D15*
X176000000Y-100000000D03*
D14*
X178540000Y-94920000D03*
D13*
X181080000Y-100000000D03*
G36*
G01*
X167590000Y-98710000D02*
X167590000Y-96210000D01*
G75*
G02*
X167640000Y-96160000I50000J0D01*
G01*
X170190000Y-96160000D01*
G75*
G02*
X170240000Y-96210000I0J-50000D01*
G01*
X170240000Y-98710000D01*
G75*
G02*
X170190000Y-98760000I-50000J0D01*
G01*
X167640000Y-98760000D01*
G75*
G02*
X167590000Y-98710000I0J50000D01*
G01*
G37*
G36*
G01*
X180517000Y-96170000D02*
X180517000Y-93670000D01*
G75*
G02*
X180567000Y-93620000I50000J0D01*
G01*
X183117000Y-93620000D01*
G75*
G02*
X183167000Y-93670000I0J-50000D01*
G01*
X183167000Y-96170000D01*
G75*
G02*
X183117000Y-96220000I-50000J0D01*
G01*
X180567000Y-96220000D01*
G75*
G02*
X180517000Y-96170000I0J50000D01*
G01*
G37*
X132920000Y-62000000D03*
D14*
X134190000Y-59460000D03*
D15*
X138000000Y-62000000D03*
D14*
X140540000Y-56920000D03*
D13*
X143080000Y-62000000D03*
G36*
G01*
X129590000Y-60710000D02*
X129590000Y-58210000D01*
G75*
G02*
X129640000Y-58160000I50000J0D01*
G01*
X132190000Y-58160000D01*
G75*
G02*
X132240000Y-58210000I0J-50000D01*
G01*
X132240000Y-60710000D01*
G75*
G02*
X132190000Y-60760000I-50000J0D01*
G01*
X129640000Y-60760000D01*
G75*
G02*
X129590000Y-60710000I0J50000D01*
G01*
G37*
G36*
G01*
X142517000Y-58170000D02*
X142517000Y-55670000D01*
G75*
G02*
X142567000Y-55620000I50000J0D01*
G01*
X145117000Y-55620000D01*
G75*
G02*
X145167000Y-55670000I0J-50000D01*
G01*
X145167000Y-58170000D01*
G75*
G02*
X145117000Y-58220000I-50000J0D01*
G01*
X142567000Y-58220000D01*
G75*
G02*
X142517000Y-58170000I0J50000D01*
G01*
G37*
G36*
G01*
X127000000Y-60450000D02*
X125800000Y-60450000D01*
G75*
G02*
X125750000Y-60400000I0J50000D01*
G01*
X125750000Y-59500000D01*
G75*
G02*
X125800000Y-59450000I50000J0D01*
G01*
X127000000Y-59450000D01*
G75*
G02*
X127050000Y-59500000I0J-50000D01*
G01*
X127050000Y-60400000D01*
G75*
G02*
X127000000Y-60450000I-50000J0D01*
G01*
G37*
G36*
G01*
X127000000Y-57150000D02*
X125800000Y-57150000D01*
G75*
G02*
X125750000Y-57100000I0J50000D01*
G01*
X125750000Y-56200000D01*
G75*
G02*
X125800000Y-56150000I50000J0D01*
G01*
X127000000Y-56150000D01*
G75*
G02*
X127050000Y-56200000I0J-50000D01*
G01*
X127050000Y-57100000D01*
G75*
G02*
X127000000Y-57150000I-50000J0D01*
G01*
G37*
G36*
G01*
X193050000Y-86925000D02*
X193050000Y-87925000D01*
G75*
G02*
X193000000Y-87975000I-50000J0D01*
G01*
X191600000Y-87975000D01*
G75*
G02*
X191550000Y-87925000I0J50000D01*
G01*
X191550000Y-86925000D01*
G75*
G02*
X191600000Y-86875000I50000J0D01*
G01*
X193000000Y-86875000D01*
G75*
G02*
X193050000Y-86925000I0J-50000D01*
G01*
G37*
G36*
G01*
X193050000Y-88325000D02*
X193050000Y-89325000D01*
G75*
G02*
X193000000Y-89375000I-50000J0D01*
G01*
X191600000Y-89375000D01*
G75*
G02*
X191550000Y-89325000I0J50000D01*
G01*
X191550000Y-88325000D01*
G75*
G02*
X191600000Y-88275000I50000J0D01*
G01*
X193000000Y-88275000D01*
G75*
G02*
X193050000Y-88325000I0J-50000D01*
G01*
G37*
G36*
G01*
X198450000Y-88325000D02*
X198450000Y-89325000D01*
G75*
G02*
X198400000Y-89375000I-50000J0D01*
G01*
X197000000Y-89375000D01*
G75*
G02*
X196950000Y-89325000I0J50000D01*
G01*
X196950000Y-88325000D01*
G75*
G02*
X197000000Y-88275000I50000J0D01*
G01*
X198400000Y-88275000D01*
G75*
G02*
X198450000Y-88325000I0J-50000D01*
G01*
G37*
G36*
G01*
X198450000Y-86925000D02*
X198450000Y-87925000D01*
G75*
G02*
X198400000Y-87975000I-50000J0D01*
G01*
X197000000Y-87975000D01*
G75*
G02*
X196950000Y-87925000I0J50000D01*
G01*
X196950000Y-86925000D01*
G75*
G02*
X197000000Y-86875000I50000J0D01*
G01*
X198400000Y-86875000D01*
G75*
G02*
X198450000Y-86925000I0J-50000D01*
G01*
G37*
X113920000Y-59625000D03*
D14*
X115190000Y-57085000D03*
D15*
X119000000Y-59625000D03*
D14*
X121540000Y-54545000D03*
D13*
X124080000Y-59625000D03*
G36*
G01*
X110590000Y-58335000D02*
X110590000Y-55835000D01*
G75*
G02*
X110640000Y-55785000I50000J0D01*
G01*
X113190000Y-55785000D01*
G75*
G02*
X113240000Y-55835000I0J-50000D01*
G01*
X113240000Y-58335000D01*
G75*
G02*
X113190000Y-58385000I-50000J0D01*
G01*
X110640000Y-58385000D01*
G75*
G02*
X110590000Y-58335000I0J50000D01*
G01*
G37*
G36*
G01*
X123517000Y-55795000D02*
X123517000Y-53295000D01*
G75*
G02*
X123567000Y-53245000I50000J0D01*
G01*
X126117000Y-53245000D01*
G75*
G02*
X126167000Y-53295000I0J-50000D01*
G01*
X126167000Y-55795000D01*
G75*
G02*
X126117000Y-55845000I-50000J0D01*
G01*
X123567000Y-55845000D01*
G75*
G02*
X123517000Y-55795000I0J50000D01*
G01*
G37*
G36*
G01*
X193050000Y-67925000D02*
X193050000Y-68925000D01*
G75*
G02*
X193000000Y-68975000I-50000J0D01*
G01*
X191600000Y-68975000D01*
G75*
G02*
X191550000Y-68925000I0J50000D01*
G01*
X191550000Y-67925000D01*
G75*
G02*
X191600000Y-67875000I50000J0D01*
G01*
X193000000Y-67875000D01*
G75*
G02*
X193050000Y-67925000I0J-50000D01*
G01*
G37*
G36*
G01*
X193050000Y-69325000D02*
X193050000Y-70325000D01*
G75*
G02*
X193000000Y-70375000I-50000J0D01*
G01*
X191600000Y-70375000D01*
G75*
G02*
X191550000Y-70325000I0J50000D01*
G01*
X191550000Y-69325000D01*
G75*
G02*
X191600000Y-69275000I50000J0D01*
G01*
X193000000Y-69275000D01*
G75*
G02*
X193050000Y-69325000I0J-50000D01*
G01*
G37*
G36*
G01*
X198450000Y-69325000D02*
X198450000Y-70325000D01*
G75*
G02*
X198400000Y-70375000I-50000J0D01*
G01*
X197000000Y-70375000D01*
G75*
G02*
X196950000Y-70325000I0J50000D01*
G01*
X196950000Y-69325000D01*
G75*
G02*
X197000000Y-69275000I50000J0D01*
G01*
X198400000Y-69275000D01*
G75*
G02*
X198450000Y-69325000I0J-50000D01*
G01*
G37*
G36*
G01*
X198450000Y-67925000D02*
X198450000Y-68925000D01*
G75*
G02*
X198400000Y-68975000I-50000J0D01*
G01*
X197000000Y-68975000D01*
G75*
G02*
X196950000Y-68925000I0J50000D01*
G01*
X196950000Y-67925000D01*
G75*
G02*
X197000000Y-67875000I50000J0D01*
G01*
X198400000Y-67875000D01*
G75*
G02*
X198450000Y-67925000I0J-50000D01*
G01*
G37*
X195310000Y-113139409D03*
D14*
X193745295Y-110769557D03*
D15*
X197850000Y-108740000D03*
D14*
X194720591Y-104000295D03*
D13*
X200390000Y-104340591D03*
G36*
G01*
X192527827Y-115378273D02*
X190362763Y-114128273D01*
G75*
G02*
X190344462Y-114059972I25000J43301D01*
G01*
X191619462Y-111851608D01*
G75*
G02*
X191687763Y-111833307I43301J-25000D01*
G01*
X193852827Y-113083307D01*
G75*
G02*
X193871128Y-113151608I-25000J-43301D01*
G01*
X192596128Y-115359972D01*
G75*
G02*
X192527827Y-115378273I-43301J25000D01*
G01*
G37*
G36*
G01*
X196791623Y-102913163D02*
X194626559Y-101663163D01*
G75*
G02*
X194608258Y-101594862I25000J43301D01*
G01*
X195883258Y-99386498D01*
G75*
G02*
X195951559Y-99368197I43301J-25000D01*
G01*
X198116623Y-100618197D01*
G75*
G02*
X198134924Y-100686498I-25000J-43301D01*
G01*
X196859924Y-102894862D01*
G75*
G02*
X196791623Y-102913163I-43301J25000D01*
G01*
G37*
G36*
G01*
X165000000Y-60450000D02*
X163800000Y-60450000D01*
G75*
G02*
X163750000Y-60400000I0J50000D01*
G01*
X163750000Y-59500000D01*
G75*
G02*
X163800000Y-59450000I50000J0D01*
G01*
X165000000Y-59450000D01*
G75*
G02*
X165050000Y-59500000I0J-50000D01*
G01*
X165050000Y-60400000D01*
G75*
G02*
X165000000Y-60450000I-50000J0D01*
G01*
G37*
G36*
G01*
X165000000Y-57150000D02*
X163800000Y-57150000D01*
G75*
G02*
X163750000Y-57100000I0J50000D01*
G01*
X163750000Y-56200000D01*
G75*
G02*
X163800000Y-56150000I50000J0D01*
G01*
X165000000Y-56150000D01*
G75*
G02*
X165050000Y-56200000I0J-50000D01*
G01*
X165050000Y-57100000D01*
G75*
G02*
X165000000Y-57150000I-50000J0D01*
G01*
G37*
X94920000Y-43000000D03*
D14*
X96190000Y-40460000D03*
D15*
X100000000Y-43000000D03*
D14*
X102540000Y-37920000D03*
D13*
X105080000Y-43000000D03*
G36*
G01*
X91590000Y-41710000D02*
X91590000Y-39210000D01*
G75*
G02*
X91640000Y-39160000I50000J0D01*
G01*
X94190000Y-39160000D01*
G75*
G02*
X94240000Y-39210000I0J-50000D01*
G01*
X94240000Y-41710000D01*
G75*
G02*
X94190000Y-41760000I-50000J0D01*
G01*
X91640000Y-41760000D01*
G75*
G02*
X91590000Y-41710000I0J50000D01*
G01*
G37*
G36*
G01*
X104517000Y-39170000D02*
X104517000Y-36670000D01*
G75*
G02*
X104567000Y-36620000I50000J0D01*
G01*
X107117000Y-36620000D01*
G75*
G02*
X107167000Y-36670000I0J-50000D01*
G01*
X107167000Y-39170000D01*
G75*
G02*
X107117000Y-39220000I-50000J0D01*
G01*
X104567000Y-39220000D01*
G75*
G02*
X104517000Y-39170000I0J50000D01*
G01*
G37*
G36*
G01*
X202564454Y-102224285D02*
X201964454Y-103263515D01*
G75*
G02*
X201896153Y-103281816I-43301J25000D01*
G01*
X201116731Y-102831816D01*
G75*
G02*
X201098430Y-102763515I25000J43301D01*
G01*
X201698430Y-101724285D01*
G75*
G02*
X201766731Y-101705984I43301J-25000D01*
G01*
X202546153Y-102155984D01*
G75*
G02*
X202564454Y-102224285I-25000J-43301D01*
G01*
G37*
G36*
G01*
X199706570Y-100574285D02*
X199106570Y-101613515D01*
G75*
G02*
X199038269Y-101631816I-43301J25000D01*
G01*
X198258847Y-101181816D01*
G75*
G02*
X198240546Y-101113515I25000J43301D01*
G01*
X198840546Y-100074285D01*
G75*
G02*
X198908847Y-100055984I43301J-25000D01*
G01*
X199688269Y-100505984D01*
G75*
G02*
X199706570Y-100574285I-25000J-43301D01*
G01*
G37*
X132920000Y-100000000D03*
D14*
X134190000Y-97460000D03*
D15*
X138000000Y-100000000D03*
D14*
X140540000Y-94920000D03*
D13*
X143080000Y-100000000D03*
G36*
G01*
X129590000Y-98710000D02*
X129590000Y-96210000D01*
G75*
G02*
X129640000Y-96160000I50000J0D01*
G01*
X132190000Y-96160000D01*
G75*
G02*
X132240000Y-96210000I0J-50000D01*
G01*
X132240000Y-98710000D01*
G75*
G02*
X132190000Y-98760000I-50000J0D01*
G01*
X129640000Y-98760000D01*
G75*
G02*
X129590000Y-98710000I0J50000D01*
G01*
G37*
G36*
G01*
X142517000Y-96170000D02*
X142517000Y-93670000D01*
G75*
G02*
X142567000Y-93620000I50000J0D01*
G01*
X145117000Y-93620000D01*
G75*
G02*
X145167000Y-93670000I0J-50000D01*
G01*
X145167000Y-96170000D01*
G75*
G02*
X145117000Y-96220000I-50000J0D01*
G01*
X142567000Y-96220000D01*
G75*
G02*
X142517000Y-96170000I0J50000D01*
G01*
G37*
X132920000Y-81000000D03*
D14*
X134190000Y-78460000D03*
D15*
X138000000Y-81000000D03*
D14*
X140540000Y-75920000D03*
D13*
X143080000Y-81000000D03*
G36*
G01*
X129590000Y-79710000D02*
X129590000Y-77210000D01*
G75*
G02*
X129640000Y-77160000I50000J0D01*
G01*
X132190000Y-77160000D01*
G75*
G02*
X132240000Y-77210000I0J-50000D01*
G01*
X132240000Y-79710000D01*
G75*
G02*
X132190000Y-79760000I-50000J0D01*
G01*
X129640000Y-79760000D01*
G75*
G02*
X129590000Y-79710000I0J50000D01*
G01*
G37*
G36*
G01*
X142517000Y-77170000D02*
X142517000Y-74670000D01*
G75*
G02*
X142567000Y-74620000I50000J0D01*
G01*
X145117000Y-74620000D01*
G75*
G02*
X145167000Y-74670000I0J-50000D01*
G01*
X145167000Y-77170000D01*
G75*
G02*
X145117000Y-77220000I-50000J0D01*
G01*
X142567000Y-77220000D01*
G75*
G02*
X142517000Y-77170000I0J50000D01*
G01*
G37*
G36*
G01*
X165000000Y-79450000D02*
X163800000Y-79450000D01*
G75*
G02*
X163750000Y-79400000I0J50000D01*
G01*
X163750000Y-78500000D01*
G75*
G02*
X163800000Y-78450000I50000J0D01*
G01*
X165000000Y-78450000D01*
G75*
G02*
X165050000Y-78500000I0J-50000D01*
G01*
X165050000Y-79400000D01*
G75*
G02*
X165000000Y-79450000I-50000J0D01*
G01*
G37*
G36*
G01*
X165000000Y-76150000D02*
X163800000Y-76150000D01*
G75*
G02*
X163750000Y-76100000I0J50000D01*
G01*
X163750000Y-75200000D01*
G75*
G02*
X163800000Y-75150000I50000J0D01*
G01*
X165000000Y-75150000D01*
G75*
G02*
X165050000Y-75200000I0J-50000D01*
G01*
X165050000Y-76100000D01*
G75*
G02*
X165000000Y-76150000I-50000J0D01*
G01*
G37*
G36*
G01*
X117050000Y-82175000D02*
X117050000Y-83175000D01*
G75*
G02*
X117000000Y-83225000I-50000J0D01*
G01*
X115600000Y-83225000D01*
G75*
G02*
X115550000Y-83175000I0J50000D01*
G01*
X115550000Y-82175000D01*
G75*
G02*
X115600000Y-82125000I50000J0D01*
G01*
X117000000Y-82125000D01*
G75*
G02*
X117050000Y-82175000I0J-50000D01*
G01*
G37*
G36*
G01*
X117050000Y-83575000D02*
X117050000Y-84575000D01*
G75*
G02*
X117000000Y-84625000I-50000J0D01*
G01*
X115600000Y-84625000D01*
G75*
G02*
X115550000Y-84575000I0J50000D01*
G01*
X115550000Y-83575000D01*
G75*
G02*
X115600000Y-83525000I50000J0D01*
G01*
X117000000Y-83525000D01*
G75*
G02*
X117050000Y-83575000I0J-50000D01*
G01*
G37*
G36*
G01*
X122450000Y-83575000D02*
X122450000Y-84575000D01*
G75*
G02*
X122400000Y-84625000I-50000J0D01*
G01*
X121000000Y-84625000D01*
G75*
G02*
X120950000Y-84575000I0J50000D01*
G01*
X120950000Y-83575000D01*
G75*
G02*
X121000000Y-83525000I50000J0D01*
G01*
X122400000Y-83525000D01*
G75*
G02*
X122450000Y-83575000I0J-50000D01*
G01*
G37*
G36*
G01*
X122450000Y-82175000D02*
X122450000Y-83175000D01*
G75*
G02*
X122400000Y-83225000I-50000J0D01*
G01*
X121000000Y-83225000D01*
G75*
G02*
X120950000Y-83175000I0J50000D01*
G01*
X120950000Y-82175000D01*
G75*
G02*
X121000000Y-82125000I50000J0D01*
G01*
X122400000Y-82125000D01*
G75*
G02*
X122450000Y-82175000I0J-50000D01*
G01*
G37*
X151920000Y-97625000D03*
D14*
X153190000Y-95085000D03*
D15*
X157000000Y-97625000D03*
D14*
X159540000Y-92545000D03*
D13*
X162080000Y-97625000D03*
G36*
G01*
X148590000Y-96335000D02*
X148590000Y-93835000D01*
G75*
G02*
X148640000Y-93785000I50000J0D01*
G01*
X151190000Y-93785000D01*
G75*
G02*
X151240000Y-93835000I0J-50000D01*
G01*
X151240000Y-96335000D01*
G75*
G02*
X151190000Y-96385000I-50000J0D01*
G01*
X148640000Y-96385000D01*
G75*
G02*
X148590000Y-96335000I0J50000D01*
G01*
G37*
G36*
G01*
X161517000Y-93795000D02*
X161517000Y-91295000D01*
G75*
G02*
X161567000Y-91245000I50000J0D01*
G01*
X164117000Y-91245000D01*
G75*
G02*
X164167000Y-91295000I0J-50000D01*
G01*
X164167000Y-93795000D01*
G75*
G02*
X164117000Y-93845000I-50000J0D01*
G01*
X161567000Y-93845000D01*
G75*
G02*
X161517000Y-93795000I0J50000D01*
G01*
G37*
G36*
G01*
X184000000Y-62825000D02*
X182800000Y-62825000D01*
G75*
G02*
X182750000Y-62775000I0J50000D01*
G01*
X182750000Y-61875000D01*
G75*
G02*
X182800000Y-61825000I50000J0D01*
G01*
X184000000Y-61825000D01*
G75*
G02*
X184050000Y-61875000I0J-50000D01*
G01*
X184050000Y-62775000D01*
G75*
G02*
X184000000Y-62825000I-50000J0D01*
G01*
G37*
G36*
G01*
X184000000Y-59525000D02*
X182800000Y-59525000D01*
G75*
G02*
X182750000Y-59475000I0J50000D01*
G01*
X182750000Y-58575000D01*
G75*
G02*
X182800000Y-58525000I50000J0D01*
G01*
X184000000Y-58525000D01*
G75*
G02*
X184050000Y-58575000I0J-50000D01*
G01*
X184050000Y-59475000D01*
G75*
G02*
X184000000Y-59525000I-50000J0D01*
G01*
G37*
G36*
G01*
X136050000Y-65550000D02*
X136050000Y-66550000D01*
G75*
G02*
X136000000Y-66600000I-50000J0D01*
G01*
X134600000Y-66600000D01*
G75*
G02*
X134550000Y-66550000I0J50000D01*
G01*
X134550000Y-65550000D01*
G75*
G02*
X134600000Y-65500000I50000J0D01*
G01*
X136000000Y-65500000D01*
G75*
G02*
X136050000Y-65550000I0J-50000D01*
G01*
G37*
G36*
G01*
X136050000Y-66950000D02*
X136050000Y-67950000D01*
G75*
G02*
X136000000Y-68000000I-50000J0D01*
G01*
X134600000Y-68000000D01*
G75*
G02*
X134550000Y-67950000I0J50000D01*
G01*
X134550000Y-66950000D01*
G75*
G02*
X134600000Y-66900000I50000J0D01*
G01*
X136000000Y-66900000D01*
G75*
G02*
X136050000Y-66950000I0J-50000D01*
G01*
G37*
G36*
G01*
X141450000Y-66950000D02*
X141450000Y-67950000D01*
G75*
G02*
X141400000Y-68000000I-50000J0D01*
G01*
X140000000Y-68000000D01*
G75*
G02*
X139950000Y-67950000I0J50000D01*
G01*
X139950000Y-66950000D01*
G75*
G02*
X140000000Y-66900000I50000J0D01*
G01*
X141400000Y-66900000D01*
G75*
G02*
X141450000Y-66950000I0J-50000D01*
G01*
G37*
G36*
G01*
X141450000Y-65550000D02*
X141450000Y-66550000D01*
G75*
G02*
X141400000Y-66600000I-50000J0D01*
G01*
X140000000Y-66600000D01*
G75*
G02*
X139950000Y-66550000I0J50000D01*
G01*
X139950000Y-65550000D01*
G75*
G02*
X140000000Y-65500000I50000J0D01*
G01*
X141400000Y-65500000D01*
G75*
G02*
X141450000Y-65550000I0J-50000D01*
G01*
G37*
G36*
G01*
X117050000Y-101175000D02*
X117050000Y-102175000D01*
G75*
G02*
X117000000Y-102225000I-50000J0D01*
G01*
X115600000Y-102225000D01*
G75*
G02*
X115550000Y-102175000I0J50000D01*
G01*
X115550000Y-101175000D01*
G75*
G02*
X115600000Y-101125000I50000J0D01*
G01*
X117000000Y-101125000D01*
G75*
G02*
X117050000Y-101175000I0J-50000D01*
G01*
G37*
G36*
G01*
X117050000Y-102575000D02*
X117050000Y-103575000D01*
G75*
G02*
X117000000Y-103625000I-50000J0D01*
G01*
X115600000Y-103625000D01*
G75*
G02*
X115550000Y-103575000I0J50000D01*
G01*
X115550000Y-102575000D01*
G75*
G02*
X115600000Y-102525000I50000J0D01*
G01*
X117000000Y-102525000D01*
G75*
G02*
X117050000Y-102575000I0J-50000D01*
G01*
G37*
G36*
G01*
X122450000Y-102575000D02*
X122450000Y-103575000D01*
G75*
G02*
X122400000Y-103625000I-50000J0D01*
G01*
X121000000Y-103625000D01*
G75*
G02*
X120950000Y-103575000I0J50000D01*
G01*
X120950000Y-102575000D01*
G75*
G02*
X121000000Y-102525000I50000J0D01*
G01*
X122400000Y-102525000D01*
G75*
G02*
X122450000Y-102575000I0J-50000D01*
G01*
G37*
G36*
G01*
X122450000Y-101175000D02*
X122450000Y-102175000D01*
G75*
G02*
X122400000Y-102225000I-50000J0D01*
G01*
X121000000Y-102225000D01*
G75*
G02*
X120950000Y-102175000I0J50000D01*
G01*
X120950000Y-101175000D01*
G75*
G02*
X121000000Y-101125000I50000J0D01*
G01*
X122400000Y-101125000D01*
G75*
G02*
X122450000Y-101175000I0J-50000D01*
G01*
G37*
X170920000Y-81000000D03*
D14*
X172190000Y-78460000D03*
D15*
X176000000Y-81000000D03*
D14*
X178540000Y-75920000D03*
D13*
X181080000Y-81000000D03*
G36*
G01*
X167590000Y-79710000D02*
X167590000Y-77210000D01*
G75*
G02*
X167640000Y-77160000I50000J0D01*
G01*
X170190000Y-77160000D01*
G75*
G02*
X170240000Y-77210000I0J-50000D01*
G01*
X170240000Y-79710000D01*
G75*
G02*
X170190000Y-79760000I-50000J0D01*
G01*
X167640000Y-79760000D01*
G75*
G02*
X167590000Y-79710000I0J50000D01*
G01*
G37*
G36*
G01*
X180517000Y-77170000D02*
X180517000Y-74670000D01*
G75*
G02*
X180567000Y-74620000I50000J0D01*
G01*
X183117000Y-74620000D01*
G75*
G02*
X183167000Y-74670000I0J-50000D01*
G01*
X183167000Y-77170000D01*
G75*
G02*
X183117000Y-77220000I-50000J0D01*
G01*
X180567000Y-77220000D01*
G75*
G02*
X180517000Y-77170000I0J50000D01*
G01*
G37*
X94920000Y-81000000D03*
D14*
X96190000Y-78460000D03*
D15*
X100000000Y-81000000D03*
D14*
X102540000Y-75920000D03*
D13*
X105080000Y-81000000D03*
G36*
G01*
X91590000Y-79710000D02*
X91590000Y-77210000D01*
G75*
G02*
X91640000Y-77160000I50000J0D01*
G01*
X94190000Y-77160000D01*
G75*
G02*
X94240000Y-77210000I0J-50000D01*
G01*
X94240000Y-79710000D01*
G75*
G02*
X94190000Y-79760000I-50000J0D01*
G01*
X91640000Y-79760000D01*
G75*
G02*
X91590000Y-79710000I0J50000D01*
G01*
G37*
G36*
G01*
X104517000Y-77170000D02*
X104517000Y-74670000D01*
G75*
G02*
X104567000Y-74620000I50000J0D01*
G01*
X107117000Y-74620000D01*
G75*
G02*
X107167000Y-74670000I0J-50000D01*
G01*
X107167000Y-77170000D01*
G75*
G02*
X107117000Y-77220000I-50000J0D01*
G01*
X104567000Y-77220000D01*
G75*
G02*
X104517000Y-77170000I0J50000D01*
G01*
G37*
X151920000Y-40625000D03*
D14*
X153190000Y-38085000D03*
D15*
X157000000Y-40625000D03*
D14*
X159540000Y-35545000D03*
D13*
X162080000Y-40625000D03*
G36*
G01*
X148590000Y-39335000D02*
X148590000Y-36835000D01*
G75*
G02*
X148640000Y-36785000I50000J0D01*
G01*
X151190000Y-36785000D01*
G75*
G02*
X151240000Y-36835000I0J-50000D01*
G01*
X151240000Y-39335000D01*
G75*
G02*
X151190000Y-39385000I-50000J0D01*
G01*
X148640000Y-39385000D01*
G75*
G02*
X148590000Y-39335000I0J50000D01*
G01*
G37*
G36*
G01*
X161517000Y-36795000D02*
X161517000Y-34295000D01*
G75*
G02*
X161567000Y-34245000I50000J0D01*
G01*
X164117000Y-34245000D01*
G75*
G02*
X164167000Y-34295000I0J-50000D01*
G01*
X164167000Y-36795000D01*
G75*
G02*
X164117000Y-36845000I-50000J0D01*
G01*
X161567000Y-36845000D01*
G75*
G02*
X161517000Y-36795000I0J50000D01*
G01*
G37*
X189920000Y-64375000D03*
D14*
X191190000Y-61835000D03*
D15*
X195000000Y-64375000D03*
D14*
X197540000Y-59295000D03*
D13*
X200080000Y-64375000D03*
G36*
G01*
X186590000Y-63085000D02*
X186590000Y-60585000D01*
G75*
G02*
X186640000Y-60535000I50000J0D01*
G01*
X189190000Y-60535000D01*
G75*
G02*
X189240000Y-60585000I0J-50000D01*
G01*
X189240000Y-63085000D01*
G75*
G02*
X189190000Y-63135000I-50000J0D01*
G01*
X186640000Y-63135000D01*
G75*
G02*
X186590000Y-63085000I0J50000D01*
G01*
G37*
G36*
G01*
X199517000Y-60545000D02*
X199517000Y-58045000D01*
G75*
G02*
X199567000Y-57995000I50000J0D01*
G01*
X202117000Y-57995000D01*
G75*
G02*
X202167000Y-58045000I0J-50000D01*
G01*
X202167000Y-60545000D01*
G75*
G02*
X202117000Y-60595000I-50000J0D01*
G01*
X199567000Y-60595000D01*
G75*
G02*
X199517000Y-60545000I0J50000D01*
G01*
G37*
G36*
G01*
X136050000Y-46550000D02*
X136050000Y-47550000D01*
G75*
G02*
X136000000Y-47600000I-50000J0D01*
G01*
X134600000Y-47600000D01*
G75*
G02*
X134550000Y-47550000I0J50000D01*
G01*
X134550000Y-46550000D01*
G75*
G02*
X134600000Y-46500000I50000J0D01*
G01*
X136000000Y-46500000D01*
G75*
G02*
X136050000Y-46550000I0J-50000D01*
G01*
G37*
G36*
G01*
X136050000Y-47950000D02*
X136050000Y-48950000D01*
G75*
G02*
X136000000Y-49000000I-50000J0D01*
G01*
X134600000Y-49000000D01*
G75*
G02*
X134550000Y-48950000I0J50000D01*
G01*
X134550000Y-47950000D01*
G75*
G02*
X134600000Y-47900000I50000J0D01*
G01*
X136000000Y-47900000D01*
G75*
G02*
X136050000Y-47950000I0J-50000D01*
G01*
G37*
G36*
G01*
X141450000Y-47950000D02*
X141450000Y-48950000D01*
G75*
G02*
X141400000Y-49000000I-50000J0D01*
G01*
X140000000Y-49000000D01*
G75*
G02*
X139950000Y-48950000I0J50000D01*
G01*
X139950000Y-47950000D01*
G75*
G02*
X140000000Y-47900000I50000J0D01*
G01*
X141400000Y-47900000D01*
G75*
G02*
X141450000Y-47950000I0J-50000D01*
G01*
G37*
G36*
G01*
X141450000Y-46550000D02*
X141450000Y-47550000D01*
G75*
G02*
X141400000Y-47600000I-50000J0D01*
G01*
X140000000Y-47600000D01*
G75*
G02*
X139950000Y-47550000I0J50000D01*
G01*
X139950000Y-46550000D01*
G75*
G02*
X140000000Y-46500000I50000J0D01*
G01*
X141400000Y-46500000D01*
G75*
G02*
X141450000Y-46550000I0J-50000D01*
G01*
G37*
G36*
G01*
X108000000Y-43825000D02*
X106800000Y-43825000D01*
G75*
G02*
X106750000Y-43775000I0J50000D01*
G01*
X106750000Y-42875000D01*
G75*
G02*
X106800000Y-42825000I50000J0D01*
G01*
X108000000Y-42825000D01*
G75*
G02*
X108050000Y-42875000I0J-50000D01*
G01*
X108050000Y-43775000D01*
G75*
G02*
X108000000Y-43825000I-50000J0D01*
G01*
G37*
G36*
G01*
X108000000Y-40525000D02*
X106800000Y-40525000D01*
G75*
G02*
X106750000Y-40475000I0J50000D01*
G01*
X106750000Y-39575000D01*
G75*
G02*
X106800000Y-39525000I50000J0D01*
G01*
X108000000Y-39525000D01*
G75*
G02*
X108050000Y-39575000I0J-50000D01*
G01*
X108050000Y-40475000D01*
G75*
G02*
X108000000Y-40525000I-50000J0D01*
G01*
G37*
G36*
G01*
X146000000Y-62825000D02*
X144800000Y-62825000D01*
G75*
G02*
X144750000Y-62775000I0J50000D01*
G01*
X144750000Y-61875000D01*
G75*
G02*
X144800000Y-61825000I50000J0D01*
G01*
X146000000Y-61825000D01*
G75*
G02*
X146050000Y-61875000I0J-50000D01*
G01*
X146050000Y-62775000D01*
G75*
G02*
X146000000Y-62825000I-50000J0D01*
G01*
G37*
G36*
G01*
X146000000Y-59525000D02*
X144800000Y-59525000D01*
G75*
G02*
X144750000Y-59475000I0J50000D01*
G01*
X144750000Y-58575000D01*
G75*
G02*
X144800000Y-58525000I50000J0D01*
G01*
X146000000Y-58525000D01*
G75*
G02*
X146050000Y-58575000I0J-50000D01*
G01*
X146050000Y-59475000D01*
G75*
G02*
X146000000Y-59525000I-50000J0D01*
G01*
G37*
X189920000Y-45375000D03*
D14*
X191190000Y-42835000D03*
D15*
X195000000Y-45375000D03*
D14*
X197540000Y-40295000D03*
D13*
X200080000Y-45375000D03*
G36*
G01*
X186590000Y-44085000D02*
X186590000Y-41585000D01*
G75*
G02*
X186640000Y-41535000I50000J0D01*
G01*
X189190000Y-41535000D01*
G75*
G02*
X189240000Y-41585000I0J-50000D01*
G01*
X189240000Y-44085000D01*
G75*
G02*
X189190000Y-44135000I-50000J0D01*
G01*
X186640000Y-44135000D01*
G75*
G02*
X186590000Y-44085000I0J50000D01*
G01*
G37*
G36*
G01*
X199517000Y-41545000D02*
X199517000Y-39045000D01*
G75*
G02*
X199567000Y-38995000I50000J0D01*
G01*
X202117000Y-38995000D01*
G75*
G02*
X202167000Y-39045000I0J-50000D01*
G01*
X202167000Y-41545000D01*
G75*
G02*
X202117000Y-41595000I-50000J0D01*
G01*
X199567000Y-41595000D01*
G75*
G02*
X199517000Y-41545000I0J50000D01*
G01*
G37*
X132920000Y-43000000D03*
D14*
X134190000Y-40460000D03*
D15*
X138000000Y-43000000D03*
D14*
X140540000Y-37920000D03*
D13*
X143080000Y-43000000D03*
G36*
G01*
X129590000Y-41710000D02*
X129590000Y-39210000D01*
G75*
G02*
X129640000Y-39160000I50000J0D01*
G01*
X132190000Y-39160000D01*
G75*
G02*
X132240000Y-39210000I0J-50000D01*
G01*
X132240000Y-41710000D01*
G75*
G02*
X132190000Y-41760000I-50000J0D01*
G01*
X129640000Y-41760000D01*
G75*
G02*
X129590000Y-41710000I0J50000D01*
G01*
G37*
G36*
G01*
X142517000Y-39170000D02*
X142517000Y-36670000D01*
G75*
G02*
X142567000Y-36620000I50000J0D01*
G01*
X145117000Y-36620000D01*
G75*
G02*
X145167000Y-36670000I0J-50000D01*
G01*
X145167000Y-39170000D01*
G75*
G02*
X145117000Y-39220000I-50000J0D01*
G01*
X142567000Y-39220000D01*
G75*
G02*
X142517000Y-39170000I0J50000D01*
G01*
G37*
G36*
G01*
X174050000Y-65550000D02*
X174050000Y-66550000D01*
G75*
G02*
X174000000Y-66600000I-50000J0D01*
G01*
X172600000Y-66600000D01*
G75*
G02*
X172550000Y-66550000I0J50000D01*
G01*
X172550000Y-65550000D01*
G75*
G02*
X172600000Y-65500000I50000J0D01*
G01*
X174000000Y-65500000D01*
G75*
G02*
X174050000Y-65550000I0J-50000D01*
G01*
G37*
G36*
G01*
X174050000Y-66950000D02*
X174050000Y-67950000D01*
G75*
G02*
X174000000Y-68000000I-50000J0D01*
G01*
X172600000Y-68000000D01*
G75*
G02*
X172550000Y-67950000I0J50000D01*
G01*
X172550000Y-66950000D01*
G75*
G02*
X172600000Y-66900000I50000J0D01*
G01*
X174000000Y-66900000D01*
G75*
G02*
X174050000Y-66950000I0J-50000D01*
G01*
G37*
G36*
G01*
X179450000Y-66950000D02*
X179450000Y-67950000D01*
G75*
G02*
X179400000Y-68000000I-50000J0D01*
G01*
X178000000Y-68000000D01*
G75*
G02*
X177950000Y-67950000I0J50000D01*
G01*
X177950000Y-66950000D01*
G75*
G02*
X178000000Y-66900000I50000J0D01*
G01*
X179400000Y-66900000D01*
G75*
G02*
X179450000Y-66950000I0J-50000D01*
G01*
G37*
G36*
G01*
X179450000Y-65550000D02*
X179450000Y-66550000D01*
G75*
G02*
X179400000Y-66600000I-50000J0D01*
G01*
X178000000Y-66600000D01*
G75*
G02*
X177950000Y-66550000I0J50000D01*
G01*
X177950000Y-65550000D01*
G75*
G02*
X178000000Y-65500000I50000J0D01*
G01*
X179400000Y-65500000D01*
G75*
G02*
X179450000Y-65550000I0J-50000D01*
G01*
G37*
X113920000Y-97625000D03*
D14*
X115190000Y-95085000D03*
D15*
X119000000Y-97625000D03*
D14*
X121540000Y-92545000D03*
D13*
X124080000Y-97625000D03*
G36*
G01*
X110590000Y-96335000D02*
X110590000Y-93835000D01*
G75*
G02*
X110640000Y-93785000I50000J0D01*
G01*
X113190000Y-93785000D01*
G75*
G02*
X113240000Y-93835000I0J-50000D01*
G01*
X113240000Y-96335000D01*
G75*
G02*
X113190000Y-96385000I-50000J0D01*
G01*
X110640000Y-96385000D01*
G75*
G02*
X110590000Y-96335000I0J50000D01*
G01*
G37*
G36*
G01*
X123517000Y-93795000D02*
X123517000Y-91295000D01*
G75*
G02*
X123567000Y-91245000I50000J0D01*
G01*
X126117000Y-91245000D01*
G75*
G02*
X126167000Y-91295000I0J-50000D01*
G01*
X126167000Y-93795000D01*
G75*
G02*
X126117000Y-93845000I-50000J0D01*
G01*
X123567000Y-93845000D01*
G75*
G02*
X123517000Y-93795000I0J50000D01*
G01*
G37*
X94920000Y-62000000D03*
D14*
X96190000Y-59460000D03*
D15*
X100000000Y-62000000D03*
D14*
X102540000Y-56920000D03*
D13*
X105080000Y-62000000D03*
G36*
G01*
X91590000Y-60710000D02*
X91590000Y-58210000D01*
G75*
G02*
X91640000Y-58160000I50000J0D01*
G01*
X94190000Y-58160000D01*
G75*
G02*
X94240000Y-58210000I0J-50000D01*
G01*
X94240000Y-60710000D01*
G75*
G02*
X94190000Y-60760000I-50000J0D01*
G01*
X91640000Y-60760000D01*
G75*
G02*
X91590000Y-60710000I0J50000D01*
G01*
G37*
G36*
G01*
X104517000Y-58170000D02*
X104517000Y-55670000D01*
G75*
G02*
X104567000Y-55620000I50000J0D01*
G01*
X107117000Y-55620000D01*
G75*
G02*
X107167000Y-55670000I0J-50000D01*
G01*
X107167000Y-58170000D01*
G75*
G02*
X107117000Y-58220000I-50000J0D01*
G01*
X104567000Y-58220000D01*
G75*
G02*
X104517000Y-58170000I0J50000D01*
G01*
G37*
G36*
G01*
X108000000Y-62825000D02*
X106800000Y-62825000D01*
G75*
G02*
X106750000Y-62775000I0J50000D01*
G01*
X106750000Y-61875000D01*
G75*
G02*
X106800000Y-61825000I50000J0D01*
G01*
X108000000Y-61825000D01*
G75*
G02*
X108050000Y-61875000I0J-50000D01*
G01*
X108050000Y-62775000D01*
G75*
G02*
X108000000Y-62825000I-50000J0D01*
G01*
G37*
G36*
G01*
X108000000Y-59525000D02*
X106800000Y-59525000D01*
G75*
G02*
X106750000Y-59475000I0J50000D01*
G01*
X106750000Y-58575000D01*
G75*
G02*
X106800000Y-58525000I50000J0D01*
G01*
X108000000Y-58525000D01*
G75*
G02*
X108050000Y-58575000I0J-50000D01*
G01*
X108050000Y-59475000D01*
G75*
G02*
X108000000Y-59525000I-50000J0D01*
G01*
G37*
G36*
G01*
X203000000Y-65200000D02*
X201800000Y-65200000D01*
G75*
G02*
X201750000Y-65150000I0J50000D01*
G01*
X201750000Y-64250000D01*
G75*
G02*
X201800000Y-64200000I50000J0D01*
G01*
X203000000Y-64200000D01*
G75*
G02*
X203050000Y-64250000I0J-50000D01*
G01*
X203050000Y-65150000D01*
G75*
G02*
X203000000Y-65200000I-50000J0D01*
G01*
G37*
G36*
G01*
X203000000Y-61900000D02*
X201800000Y-61900000D01*
G75*
G02*
X201750000Y-61850000I0J50000D01*
G01*
X201750000Y-60950000D01*
G75*
G02*
X201800000Y-60900000I50000J0D01*
G01*
X203000000Y-60900000D01*
G75*
G02*
X203050000Y-60950000I0J-50000D01*
G01*
X203050000Y-61850000D01*
G75*
G02*
X203000000Y-61900000I-50000J0D01*
G01*
G37*
G36*
G01*
X174050000Y-103550000D02*
X174050000Y-104550000D01*
G75*
G02*
X174000000Y-104600000I-50000J0D01*
G01*
X172600000Y-104600000D01*
G75*
G02*
X172550000Y-104550000I0J50000D01*
G01*
X172550000Y-103550000D01*
G75*
G02*
X172600000Y-103500000I50000J0D01*
G01*
X174000000Y-103500000D01*
G75*
G02*
X174050000Y-103550000I0J-50000D01*
G01*
G37*
G36*
G01*
X174050000Y-104950000D02*
X174050000Y-105950000D01*
G75*
G02*
X174000000Y-106000000I-50000J0D01*
G01*
X172600000Y-106000000D01*
G75*
G02*
X172550000Y-105950000I0J50000D01*
G01*
X172550000Y-104950000D01*
G75*
G02*
X172600000Y-104900000I50000J0D01*
G01*
X174000000Y-104900000D01*
G75*
G02*
X174050000Y-104950000I0J-50000D01*
G01*
G37*
G36*
G01*
X179450000Y-104950000D02*
X179450000Y-105950000D01*
G75*
G02*
X179400000Y-106000000I-50000J0D01*
G01*
X178000000Y-106000000D01*
G75*
G02*
X177950000Y-105950000I0J50000D01*
G01*
X177950000Y-104950000D01*
G75*
G02*
X178000000Y-104900000I50000J0D01*
G01*
X179400000Y-104900000D01*
G75*
G02*
X179450000Y-104950000I0J-50000D01*
G01*
G37*
G36*
G01*
X179450000Y-103550000D02*
X179450000Y-104550000D01*
G75*
G02*
X179400000Y-104600000I-50000J0D01*
G01*
X178000000Y-104600000D01*
G75*
G02*
X177950000Y-104550000I0J50000D01*
G01*
X177950000Y-103550000D01*
G75*
G02*
X178000000Y-103500000I50000J0D01*
G01*
X179400000Y-103500000D01*
G75*
G02*
X179450000Y-103550000I0J-50000D01*
G01*
G37*
G36*
G01*
X174050000Y-46550000D02*
X174050000Y-47550000D01*
G75*
G02*
X174000000Y-47600000I-50000J0D01*
G01*
X172600000Y-47600000D01*
G75*
G02*
X172550000Y-47550000I0J50000D01*
G01*
X172550000Y-46550000D01*
G75*
G02*
X172600000Y-46500000I50000J0D01*
G01*
X174000000Y-46500000D01*
G75*
G02*
X174050000Y-46550000I0J-50000D01*
G01*
G37*
G36*
G01*
X174050000Y-47950000D02*
X174050000Y-48950000D01*
G75*
G02*
X174000000Y-49000000I-50000J0D01*
G01*
X172600000Y-49000000D01*
G75*
G02*
X172550000Y-48950000I0J50000D01*
G01*
X172550000Y-47950000D01*
G75*
G02*
X172600000Y-47900000I50000J0D01*
G01*
X174000000Y-47900000D01*
G75*
G02*
X174050000Y-47950000I0J-50000D01*
G01*
G37*
G36*
G01*
X179450000Y-47950000D02*
X179450000Y-48950000D01*
G75*
G02*
X179400000Y-49000000I-50000J0D01*
G01*
X178000000Y-49000000D01*
G75*
G02*
X177950000Y-48950000I0J50000D01*
G01*
X177950000Y-47950000D01*
G75*
G02*
X178000000Y-47900000I50000J0D01*
G01*
X179400000Y-47900000D01*
G75*
G02*
X179450000Y-47950000I0J-50000D01*
G01*
G37*
G36*
G01*
X179450000Y-46550000D02*
X179450000Y-47550000D01*
G75*
G02*
X179400000Y-47600000I-50000J0D01*
G01*
X178000000Y-47600000D01*
G75*
G02*
X177950000Y-47550000I0J50000D01*
G01*
X177950000Y-46550000D01*
G75*
G02*
X178000000Y-46500000I50000J0D01*
G01*
X179400000Y-46500000D01*
G75*
G02*
X179450000Y-46550000I0J-50000D01*
G01*
G37*
G36*
G01*
X216403869Y-121703750D02*
X217269895Y-122203750D01*
G75*
G02*
X217288196Y-122272051I-25000J-43301D01*
G01*
X216588196Y-123484487D01*
G75*
G02*
X216519895Y-123502788I-43301J25000D01*
G01*
X215653869Y-123002788D01*
G75*
G02*
X215635568Y-122934487I25000J43301D01*
G01*
X216335568Y-121722051D01*
G75*
G02*
X216403869Y-121703750I43301J-25000D01*
G01*
G37*
G36*
G01*
X217616305Y-122403750D02*
X218482331Y-122903750D01*
G75*
G02*
X218500632Y-122972051I-25000J-43301D01*
G01*
X217800632Y-124184487D01*
G75*
G02*
X217732331Y-124202788I-43301J25000D01*
G01*
X216866305Y-123702788D01*
G75*
G02*
X216848004Y-123634487I25000J43301D01*
G01*
X217548004Y-122422051D01*
G75*
G02*
X217616305Y-122403750I43301J-25000D01*
G01*
G37*
G36*
G01*
X220316305Y-117727212D02*
X221182331Y-118227212D01*
G75*
G02*
X221200632Y-118295513I-25000J-43301D01*
G01*
X220500632Y-119507949D01*
G75*
G02*
X220432331Y-119526250I-43301J25000D01*
G01*
X219566305Y-119026250D01*
G75*
G02*
X219548004Y-118957949I25000J43301D01*
G01*
X220248004Y-117745513D01*
G75*
G02*
X220316305Y-117727212I43301J-25000D01*
G01*
G37*
G36*
G01*
X219103869Y-117027212D02*
X219969895Y-117527212D01*
G75*
G02*
X219988196Y-117595513I-25000J-43301D01*
G01*
X219288196Y-118807949D01*
G75*
G02*
X219219895Y-118826250I-43301J25000D01*
G01*
X218353869Y-118326250D01*
G75*
G02*
X218335568Y-118257949I25000J43301D01*
G01*
X219035568Y-117045513D01*
G75*
G02*
X219103869Y-117027212I43301J-25000D01*
G01*
G37*
G36*
G01*
X127000000Y-98450000D02*
X125800000Y-98450000D01*
G75*
G02*
X125750000Y-98400000I0J50000D01*
G01*
X125750000Y-97500000D01*
G75*
G02*
X125800000Y-97450000I50000J0D01*
G01*
X127000000Y-97450000D01*
G75*
G02*
X127050000Y-97500000I0J-50000D01*
G01*
X127050000Y-98400000D01*
G75*
G02*
X127000000Y-98450000I-50000J0D01*
G01*
G37*
G36*
G01*
X127000000Y-95150000D02*
X125800000Y-95150000D01*
G75*
G02*
X125750000Y-95100000I0J50000D01*
G01*
X125750000Y-94200000D01*
G75*
G02*
X125800000Y-94150000I50000J0D01*
G01*
X127000000Y-94150000D01*
G75*
G02*
X127050000Y-94200000I0J-50000D01*
G01*
X127050000Y-95100000D01*
G75*
G02*
X127000000Y-95150000I-50000J0D01*
G01*
G37*
G36*
G01*
X136050000Y-84550000D02*
X136050000Y-85550000D01*
G75*
G02*
X136000000Y-85600000I-50000J0D01*
G01*
X134600000Y-85600000D01*
G75*
G02*
X134550000Y-85550000I0J50000D01*
G01*
X134550000Y-84550000D01*
G75*
G02*
X134600000Y-84500000I50000J0D01*
G01*
X136000000Y-84500000D01*
G75*
G02*
X136050000Y-84550000I0J-50000D01*
G01*
G37*
G36*
G01*
X136050000Y-85950000D02*
X136050000Y-86950000D01*
G75*
G02*
X136000000Y-87000000I-50000J0D01*
G01*
X134600000Y-87000000D01*
G75*
G02*
X134550000Y-86950000I0J50000D01*
G01*
X134550000Y-85950000D01*
G75*
G02*
X134600000Y-85900000I50000J0D01*
G01*
X136000000Y-85900000D01*
G75*
G02*
X136050000Y-85950000I0J-50000D01*
G01*
G37*
G36*
G01*
X141450000Y-85950000D02*
X141450000Y-86950000D01*
G75*
G02*
X141400000Y-87000000I-50000J0D01*
G01*
X140000000Y-87000000D01*
G75*
G02*
X139950000Y-86950000I0J50000D01*
G01*
X139950000Y-85950000D01*
G75*
G02*
X140000000Y-85900000I50000J0D01*
G01*
X141400000Y-85900000D01*
G75*
G02*
X141450000Y-85950000I0J-50000D01*
G01*
G37*
G36*
G01*
X141450000Y-84550000D02*
X141450000Y-85550000D01*
G75*
G02*
X141400000Y-85600000I-50000J0D01*
G01*
X140000000Y-85600000D01*
G75*
G02*
X139950000Y-85550000I0J50000D01*
G01*
X139950000Y-84550000D01*
G75*
G02*
X140000000Y-84500000I50000J0D01*
G01*
X141400000Y-84500000D01*
G75*
G02*
X141450000Y-84550000I0J-50000D01*
G01*
G37*
G36*
G01*
X203000000Y-46200000D02*
X201800000Y-46200000D01*
G75*
G02*
X201750000Y-46150000I0J50000D01*
G01*
X201750000Y-45250000D01*
G75*
G02*
X201800000Y-45200000I50000J0D01*
G01*
X203000000Y-45200000D01*
G75*
G02*
X203050000Y-45250000I0J-50000D01*
G01*
X203050000Y-46150000D01*
G75*
G02*
X203000000Y-46200000I-50000J0D01*
G01*
G37*
G36*
G01*
X203000000Y-42900000D02*
X201800000Y-42900000D01*
G75*
G02*
X201750000Y-42850000I0J50000D01*
G01*
X201750000Y-41950000D01*
G75*
G02*
X201800000Y-41900000I50000J0D01*
G01*
X203000000Y-41900000D01*
G75*
G02*
X203050000Y-41950000I0J-50000D01*
G01*
X203050000Y-42850000D01*
G75*
G02*
X203000000Y-42900000I-50000J0D01*
G01*
G37*
G36*
G01*
X184000000Y-81825000D02*
X182800000Y-81825000D01*
G75*
G02*
X182750000Y-81775000I0J50000D01*
G01*
X182750000Y-80875000D01*
G75*
G02*
X182800000Y-80825000I50000J0D01*
G01*
X184000000Y-80825000D01*
G75*
G02*
X184050000Y-80875000I0J-50000D01*
G01*
X184050000Y-81775000D01*
G75*
G02*
X184000000Y-81825000I-50000J0D01*
G01*
G37*
G36*
G01*
X184000000Y-78525000D02*
X182800000Y-78525000D01*
G75*
G02*
X182750000Y-78475000I0J50000D01*
G01*
X182750000Y-77575000D01*
G75*
G02*
X182800000Y-77525000I50000J0D01*
G01*
X184000000Y-77525000D01*
G75*
G02*
X184050000Y-77575000I0J-50000D01*
G01*
X184050000Y-78475000D01*
G75*
G02*
X184000000Y-78525000I-50000J0D01*
G01*
G37*
X113920000Y-78625000D03*
D14*
X115190000Y-76085000D03*
D15*
X119000000Y-78625000D03*
D14*
X121540000Y-73545000D03*
D13*
X124080000Y-78625000D03*
G36*
G01*
X110590000Y-77335000D02*
X110590000Y-74835000D01*
G75*
G02*
X110640000Y-74785000I50000J0D01*
G01*
X113190000Y-74785000D01*
G75*
G02*
X113240000Y-74835000I0J-50000D01*
G01*
X113240000Y-77335000D01*
G75*
G02*
X113190000Y-77385000I-50000J0D01*
G01*
X110640000Y-77385000D01*
G75*
G02*
X110590000Y-77335000I0J50000D01*
G01*
G37*
G36*
G01*
X123517000Y-74795000D02*
X123517000Y-72295000D01*
G75*
G02*
X123567000Y-72245000I50000J0D01*
G01*
X126117000Y-72245000D01*
G75*
G02*
X126167000Y-72295000I0J-50000D01*
G01*
X126167000Y-74795000D01*
G75*
G02*
X126117000Y-74845000I-50000J0D01*
G01*
X123567000Y-74845000D01*
G75*
G02*
X123517000Y-74795000I0J50000D01*
G01*
G37*
G36*
G01*
X127000000Y-79450000D02*
X125800000Y-79450000D01*
G75*
G02*
X125750000Y-79400000I0J50000D01*
G01*
X125750000Y-78500000D01*
G75*
G02*
X125800000Y-78450000I50000J0D01*
G01*
X127000000Y-78450000D01*
G75*
G02*
X127050000Y-78500000I0J-50000D01*
G01*
X127050000Y-79400000D01*
G75*
G02*
X127000000Y-79450000I-50000J0D01*
G01*
G37*
G36*
G01*
X127000000Y-76150000D02*
X125800000Y-76150000D01*
G75*
G02*
X125750000Y-76100000I0J50000D01*
G01*
X125750000Y-75200000D01*
G75*
G02*
X125800000Y-75150000I50000J0D01*
G01*
X127000000Y-75150000D01*
G75*
G02*
X127050000Y-75200000I0J-50000D01*
G01*
X127050000Y-76100000D01*
G75*
G02*
X127000000Y-76150000I-50000J0D01*
G01*
G37*
X189920000Y-83375000D03*
D14*
X191190000Y-80835000D03*
D15*
X195000000Y-83375000D03*
D14*
X197540000Y-78295000D03*
D13*
X200080000Y-83375000D03*
G36*
G01*
X186590000Y-82085000D02*
X186590000Y-79585000D01*
G75*
G02*
X186640000Y-79535000I50000J0D01*
G01*
X189190000Y-79535000D01*
G75*
G02*
X189240000Y-79585000I0J-50000D01*
G01*
X189240000Y-82085000D01*
G75*
G02*
X189190000Y-82135000I-50000J0D01*
G01*
X186640000Y-82135000D01*
G75*
G02*
X186590000Y-82085000I0J50000D01*
G01*
G37*
G36*
G01*
X199517000Y-79545000D02*
X199517000Y-77045000D01*
G75*
G02*
X199567000Y-76995000I50000J0D01*
G01*
X202117000Y-76995000D01*
G75*
G02*
X202167000Y-77045000I0J-50000D01*
G01*
X202167000Y-79545000D01*
G75*
G02*
X202117000Y-79595000I-50000J0D01*
G01*
X199567000Y-79595000D01*
G75*
G02*
X199517000Y-79545000I0J50000D01*
G01*
G37*
G36*
G01*
X165000000Y-98450000D02*
X163800000Y-98450000D01*
G75*
G02*
X163750000Y-98400000I0J50000D01*
G01*
X163750000Y-97500000D01*
G75*
G02*
X163800000Y-97450000I50000J0D01*
G01*
X165000000Y-97450000D01*
G75*
G02*
X165050000Y-97500000I0J-50000D01*
G01*
X165050000Y-98400000D01*
G75*
G02*
X165000000Y-98450000I-50000J0D01*
G01*
G37*
G36*
G01*
X165000000Y-95150000D02*
X163800000Y-95150000D01*
G75*
G02*
X163750000Y-95100000I0J50000D01*
G01*
X163750000Y-94200000D01*
G75*
G02*
X163800000Y-94150000I50000J0D01*
G01*
X165000000Y-94150000D01*
G75*
G02*
X165050000Y-94200000I0J-50000D01*
G01*
X165050000Y-95100000D01*
G75*
G02*
X165000000Y-95150000I-50000J0D01*
G01*
G37*
G36*
G01*
X98050000Y-103550000D02*
X98050000Y-104550000D01*
G75*
G02*
X98000000Y-104600000I-50000J0D01*
G01*
X96600000Y-104600000D01*
G75*
G02*
X96550000Y-104550000I0J50000D01*
G01*
X96550000Y-103550000D01*
G75*
G02*
X96600000Y-103500000I50000J0D01*
G01*
X98000000Y-103500000D01*
G75*
G02*
X98050000Y-103550000I0J-50000D01*
G01*
G37*
G36*
G01*
X98050000Y-104950000D02*
X98050000Y-105950000D01*
G75*
G02*
X98000000Y-106000000I-50000J0D01*
G01*
X96600000Y-106000000D01*
G75*
G02*
X96550000Y-105950000I0J50000D01*
G01*
X96550000Y-104950000D01*
G75*
G02*
X96600000Y-104900000I50000J0D01*
G01*
X98000000Y-104900000D01*
G75*
G02*
X98050000Y-104950000I0J-50000D01*
G01*
G37*
G36*
G01*
X103450000Y-104950000D02*
X103450000Y-105950000D01*
G75*
G02*
X103400000Y-106000000I-50000J0D01*
G01*
X102000000Y-106000000D01*
G75*
G02*
X101950000Y-105950000I0J50000D01*
G01*
X101950000Y-104950000D01*
G75*
G02*
X102000000Y-104900000I50000J0D01*
G01*
X103400000Y-104900000D01*
G75*
G02*
X103450000Y-104950000I0J-50000D01*
G01*
G37*
G36*
G01*
X103450000Y-103550000D02*
X103450000Y-104550000D01*
G75*
G02*
X103400000Y-104600000I-50000J0D01*
G01*
X102000000Y-104600000D01*
G75*
G02*
X101950000Y-104550000I0J50000D01*
G01*
X101950000Y-103550000D01*
G75*
G02*
X102000000Y-103500000I50000J0D01*
G01*
X103400000Y-103500000D01*
G75*
G02*
X103450000Y-103550000I0J-50000D01*
G01*
G37*
G36*
G01*
X155050000Y-63175000D02*
X155050000Y-64175000D01*
G75*
G02*
X155000000Y-64225000I-50000J0D01*
G01*
X153600000Y-64225000D01*
G75*
G02*
X153550000Y-64175000I0J50000D01*
G01*
X153550000Y-63175000D01*
G75*
G02*
X153600000Y-63125000I50000J0D01*
G01*
X155000000Y-63125000D01*
G75*
G02*
X155050000Y-63175000I0J-50000D01*
G01*
G37*
G36*
G01*
X155050000Y-64575000D02*
X155050000Y-65575000D01*
G75*
G02*
X155000000Y-65625000I-50000J0D01*
G01*
X153600000Y-65625000D01*
G75*
G02*
X153550000Y-65575000I0J50000D01*
G01*
X153550000Y-64575000D01*
G75*
G02*
X153600000Y-64525000I50000J0D01*
G01*
X155000000Y-64525000D01*
G75*
G02*
X155050000Y-64575000I0J-50000D01*
G01*
G37*
G36*
G01*
X160450000Y-64575000D02*
X160450000Y-65575000D01*
G75*
G02*
X160400000Y-65625000I-50000J0D01*
G01*
X159000000Y-65625000D01*
G75*
G02*
X158950000Y-65575000I0J50000D01*
G01*
X158950000Y-64575000D01*
G75*
G02*
X159000000Y-64525000I50000J0D01*
G01*
X160400000Y-64525000D01*
G75*
G02*
X160450000Y-64575000I0J-50000D01*
G01*
G37*
G36*
G01*
X160450000Y-63175000D02*
X160450000Y-64175000D01*
G75*
G02*
X160400000Y-64225000I-50000J0D01*
G01*
X159000000Y-64225000D01*
G75*
G02*
X158950000Y-64175000I0J50000D01*
G01*
X158950000Y-63175000D01*
G75*
G02*
X159000000Y-63125000I50000J0D01*
G01*
X160400000Y-63125000D01*
G75*
G02*
X160450000Y-63175000I0J-50000D01*
G01*
G37*
%LPD*%
M02*
