G04 #@! TF.GenerationSoftware,KiCad,Pcbnew,8.0.8+1*
G04 #@! TF.CreationDate,2025-06-17T16:01:52+00:00*
G04 #@! TF.ProjectId,eggada50_autorouted,65676761-6461-4353-905f-6175746f726f,0.2*
G04 #@! TF.SameCoordinates,Original*
G04 #@! TF.FileFunction,Copper,L2,Bot*
G04 #@! TF.FilePolarity,Positive*
%FSLAX46Y46*%
G04 Gerber Fmt 4.6, Leading zero omitted, Abs format (unit mm)*
G04 Created by KiCad (PCBNEW 8.0.8+1) date 2025-06-17 16:01:52*
%MOMM*%
%LPD*%
G01*
G04 APERTURE LIST*
G04 #@! TA.AperFunction,ComponentPad*
%ADD10C,1.700000*%
G04 #@! TD*
G04 #@! TA.AperFunction,SMDPad,CuDef*
%ADD11R,0.600000X1.200000*%
G04 #@! TD*
G04 #@! TA.AperFunction,ComponentPad*
%ADD12C,0.800000*%
G04 #@! TD*
G04 #@! TA.AperFunction,ComponentPad*
%ADD13O,2.200000X1.600000*%
G04 #@! TD*
G04 #@! TA.AperFunction,ComponentPad*
%ADD14O,3.300000X1.600000*%
G04 #@! TD*
G04 #@! TA.AperFunction,ComponentPad*
%ADD15O,1.700000X1.700000*%
G04 #@! TD*
G04 #@! TA.AperFunction,SMDPad,CuDef*
%ADD16R,1.200000X0.600000*%
G04 #@! TD*
G04 #@! TA.AperFunction,SMDPad,CuDef*
%ADD17R,1.400000X1.000000*%
G04 #@! TD*
G04 #@! TA.AperFunction,SMDPad,CuDef*
%ADD18R,1.200000X0.900000*%
G04 #@! TD*
G04 #@! TA.AperFunction,SMDPad,CuDef*
%ADD19R,2.550000X2.500000*%
G04 #@! TD*
G04 #@! TA.AperFunction,ViaPad*
%ADD20C,0.600000*%
G04 #@! TD*
G04 #@! TA.AperFunction,ViaPad*
%ADD21C,0.560000*%
G04 #@! TD*
G04 #@! TA.AperFunction,Conductor*
%ADD22C,0.200000*%
G04 #@! TD*
G04 #@! TA.AperFunction,Conductor*
%ADD23C,0.250000*%
G04 #@! TD*
G04 APERTURE END LIST*
D10*
X222350000Y-75251000D03*
X222350000Y-81751000D03*
D11*
X223184000Y-43920000D03*
D10*
X225324000Y-43920000D03*
D11*
X223184000Y-46460000D03*
D10*
X225324000Y-46460000D03*
D11*
X223184000Y-49000000D03*
D10*
X225324000Y-49000000D03*
D11*
X223184000Y-51540000D03*
D10*
X225324000Y-51540000D03*
D11*
X223184000Y-54080000D03*
D10*
X225324000Y-54080000D03*
D11*
X223184000Y-56620000D03*
D10*
X225324000Y-56620000D03*
D11*
X223184000Y-59160000D03*
D10*
X225324000Y-59160000D03*
D11*
X223184000Y-61700000D03*
D10*
X225324000Y-61700000D03*
D11*
X223184000Y-64240000D03*
D10*
X225324000Y-64240000D03*
D11*
X223184000Y-66780000D03*
D10*
X225324000Y-66780000D03*
D11*
X223184000Y-69320000D03*
D10*
X225324000Y-69320000D03*
D11*
X223184000Y-71860000D03*
D10*
X225324000Y-71860000D03*
X210084000Y-71860000D03*
D11*
X212224000Y-71860000D03*
D10*
X210084000Y-69320000D03*
D11*
X212224000Y-69320000D03*
D10*
X210084000Y-66780000D03*
D11*
X212224000Y-66780000D03*
D10*
X210084000Y-64240000D03*
D11*
X212224000Y-64240000D03*
D10*
X210084000Y-61700000D03*
D11*
X212224000Y-61700000D03*
D10*
X210084000Y-59160000D03*
D11*
X212224000Y-59160000D03*
D10*
X210084000Y-56620000D03*
D11*
X212224000Y-56620000D03*
D10*
X210084000Y-54080000D03*
D11*
X212224000Y-54080000D03*
D10*
X210084000Y-51540000D03*
D11*
X212224000Y-51540000D03*
D10*
X210084000Y-49000000D03*
D11*
X212224000Y-49000000D03*
D10*
X210084000Y-46460000D03*
D11*
X212224000Y-46460000D03*
D10*
X210084000Y-43920000D03*
D11*
X212224000Y-43920000D03*
X213124000Y-43920000D03*
D12*
X221104000Y-43920000D03*
D11*
X213124000Y-46460000D03*
D12*
X221104000Y-46460000D03*
D11*
X213124000Y-49000000D03*
D12*
X221104000Y-49000000D03*
D11*
X213124000Y-51540000D03*
D12*
X221104000Y-51540000D03*
D11*
X213124000Y-54080000D03*
D12*
X221104000Y-54080000D03*
D11*
X213124000Y-56620000D03*
D12*
X221104000Y-56620000D03*
D11*
X213124000Y-59160000D03*
D12*
X221104000Y-59160000D03*
D11*
X213124000Y-61700000D03*
D12*
X221104000Y-61700000D03*
D11*
X213124000Y-64240000D03*
D12*
X221104000Y-64240000D03*
D11*
X213124000Y-66780000D03*
D12*
X221104000Y-66780000D03*
D11*
X213124000Y-69320000D03*
D12*
X221104000Y-69320000D03*
D11*
X213124000Y-71860000D03*
D12*
X221104000Y-71860000D03*
X214304000Y-71860000D03*
D11*
X222284000Y-71860000D03*
D12*
X214304000Y-69320000D03*
D11*
X222284000Y-69320000D03*
D12*
X214304000Y-66780000D03*
D11*
X222284000Y-66780000D03*
D12*
X214304000Y-64240000D03*
D11*
X222284000Y-64240000D03*
D12*
X214304000Y-61700000D03*
D11*
X222284000Y-61700000D03*
D12*
X214304000Y-59160000D03*
D11*
X222284000Y-59160000D03*
D12*
X214304000Y-56620000D03*
D11*
X222284000Y-56620000D03*
D12*
X214304000Y-54080000D03*
D11*
X222284000Y-54080000D03*
D12*
X214304000Y-51540000D03*
D11*
X222284000Y-51540000D03*
D12*
X214304000Y-49000000D03*
D11*
X222284000Y-49000000D03*
D12*
X214304000Y-46460000D03*
D11*
X222284000Y-46460000D03*
D12*
X214304000Y-43920000D03*
D11*
X222284000Y-43920000D03*
D13*
X220910000Y-86260000D03*
X220910000Y-90860000D03*
X217910000Y-86260000D03*
X217910000Y-90860000D03*
D14*
X213360000Y-86260000D03*
X213360000Y-90860000D03*
D15*
X210837000Y-79008000D03*
X213377000Y-79008000D03*
X215917000Y-79008000D03*
X218457000Y-79008000D03*
D16*
X218457000Y-77258000D03*
X215917000Y-77258000D03*
X213377000Y-77258000D03*
X210837000Y-77258000D03*
X218457000Y-76358000D03*
X215917000Y-76358000D03*
X213377000Y-76358000D03*
X210837000Y-76358000D03*
D17*
X135300000Y-104050000D03*
X135300000Y-105450000D03*
X140700000Y-105450000D03*
X140700000Y-104050000D03*
G04 #@! TA.AperFunction,SMDPad,CuDef*
G36*
X209007327Y-124834972D02*
G01*
X206842263Y-123584972D01*
X208117263Y-121376608D01*
X210282327Y-122626608D01*
X209007327Y-124834972D01*
G37*
G04 #@! TD.AperFunction*
G04 #@! TA.AperFunction,SMDPad,CuDef*
G36*
X213271123Y-112369862D02*
G01*
X211106059Y-111119862D01*
X212381059Y-108911498D01*
X214546123Y-110161498D01*
X213271123Y-112369862D01*
G37*
G04 #@! TD.AperFunction*
D18*
X183400000Y-100325000D03*
X183400000Y-97025000D03*
D19*
X149915000Y-76085000D03*
X162842000Y-73545000D03*
D17*
X97300000Y-47050000D03*
X97300000Y-48450000D03*
X102700000Y-48450000D03*
X102700000Y-47050000D03*
D18*
X145400000Y-100325000D03*
X145400000Y-97025000D03*
X202400000Y-83700000D03*
X202400000Y-80400000D03*
D19*
X149915000Y-57085000D03*
X162842000Y-54545000D03*
D17*
X97300000Y-66050000D03*
X97300000Y-67450000D03*
X102700000Y-67450000D03*
X102700000Y-66050000D03*
D18*
X107400000Y-81325000D03*
X107400000Y-78025000D03*
D17*
X97300000Y-85050000D03*
X97300000Y-86450000D03*
X102700000Y-86450000D03*
X102700000Y-85050000D03*
D19*
X92915000Y-97460000D03*
X105842000Y-94920000D03*
D17*
X173300000Y-85050000D03*
X173300000Y-86450000D03*
X178700000Y-86450000D03*
X178700000Y-85050000D03*
G04 #@! TA.AperFunction,SMDPad,CuDef*
G36*
X218975653Y-111699285D02*
G01*
X218375653Y-112738515D01*
X217596231Y-112288515D01*
X218196231Y-111249285D01*
X218975653Y-111699285D01*
G37*
G04 #@! TD.AperFunction*
G04 #@! TA.AperFunction,SMDPad,CuDef*
G36*
X216117769Y-110049285D02*
G01*
X215517769Y-111088515D01*
X214738347Y-110638515D01*
X215338347Y-109599285D01*
X216117769Y-110049285D01*
G37*
G04 #@! TD.AperFunction*
G04 #@! TA.AperFunction,SMDPad,CuDef*
G36*
X199924369Y-112247051D02*
G01*
X200790395Y-112747051D01*
X200090395Y-113959487D01*
X199224369Y-113459487D01*
X199924369Y-112247051D01*
G37*
G04 #@! TD.AperFunction*
G04 #@! TA.AperFunction,SMDPad,CuDef*
G36*
X201136805Y-112947051D02*
G01*
X202002831Y-113447051D01*
X201302831Y-114659487D01*
X200436805Y-114159487D01*
X201136805Y-112947051D01*
G37*
G04 #@! TD.AperFunction*
G04 #@! TA.AperFunction,SMDPad,CuDef*
G36*
X203836805Y-108270513D02*
G01*
X204702831Y-108770513D01*
X204002831Y-109982949D01*
X203136805Y-109482949D01*
X203836805Y-108270513D01*
G37*
G04 #@! TD.AperFunction*
G04 #@! TA.AperFunction,SMDPad,CuDef*
G36*
X202624369Y-107570513D02*
G01*
X203490395Y-108070513D01*
X202790395Y-109282949D01*
X201924369Y-108782949D01*
X202624369Y-107570513D01*
G37*
G04 #@! TD.AperFunction*
X116300000Y-63675000D03*
X116300000Y-65075000D03*
X121700000Y-65075000D03*
X121700000Y-63675000D03*
D19*
X168915000Y-59460000D03*
X181842000Y-56920000D03*
D17*
X192300000Y-49425000D03*
X192300000Y-50825000D03*
X197700000Y-50825000D03*
X197700000Y-49425000D03*
D18*
X126400000Y-40950000D03*
X126400000Y-37650000D03*
D19*
X111915000Y-38085000D03*
X124842000Y-35545000D03*
D17*
X154300000Y-82675000D03*
X154300000Y-84075000D03*
X159700000Y-84075000D03*
X159700000Y-82675000D03*
X154300000Y-101675000D03*
X154300000Y-103075000D03*
X159700000Y-103075000D03*
X159700000Y-101675000D03*
D19*
X168915000Y-40460000D03*
X181842000Y-37920000D03*
D17*
X116300000Y-44675000D03*
X116300000Y-46075000D03*
X121700000Y-46075000D03*
X121700000Y-44675000D03*
D18*
X145400000Y-81325000D03*
X145400000Y-78025000D03*
D17*
X154300000Y-44675000D03*
X154300000Y-46075000D03*
X159700000Y-46075000D03*
X159700000Y-44675000D03*
D18*
X164400000Y-40950000D03*
X164400000Y-37650000D03*
X183400000Y-43325000D03*
X183400000Y-40025000D03*
X145400000Y-43325000D03*
X145400000Y-40025000D03*
X107400000Y-100325000D03*
X107400000Y-97025000D03*
D19*
X168915000Y-97460000D03*
X181842000Y-94920000D03*
X130915000Y-59460000D03*
X143842000Y-56920000D03*
D18*
X126400000Y-59950000D03*
X126400000Y-56650000D03*
D17*
X192300000Y-87425000D03*
X192300000Y-88825000D03*
X197700000Y-88825000D03*
X197700000Y-87425000D03*
D19*
X111915000Y-57085000D03*
X124842000Y-54545000D03*
D17*
X192300000Y-68425000D03*
X192300000Y-69825000D03*
X197700000Y-69825000D03*
X197700000Y-68425000D03*
G04 #@! TA.AperFunction,SMDPad,CuDef*
G36*
X192552827Y-115334972D02*
G01*
X190387763Y-114084972D01*
X191662763Y-111876608D01*
X193827827Y-113126608D01*
X192552827Y-115334972D01*
G37*
G04 #@! TD.AperFunction*
G04 #@! TA.AperFunction,SMDPad,CuDef*
G36*
X196816623Y-102869862D02*
G01*
X194651559Y-101619862D01*
X195926559Y-99411498D01*
X198091623Y-100661498D01*
X196816623Y-102869862D01*
G37*
G04 #@! TD.AperFunction*
D18*
X164400000Y-59950000D03*
X164400000Y-56650000D03*
D19*
X92915000Y-40460000D03*
X105842000Y-37920000D03*
G04 #@! TA.AperFunction,SMDPad,CuDef*
G36*
X202521153Y-102199285D02*
G01*
X201921153Y-103238515D01*
X201141731Y-102788515D01*
X201741731Y-101749285D01*
X202521153Y-102199285D01*
G37*
G04 #@! TD.AperFunction*
G04 #@! TA.AperFunction,SMDPad,CuDef*
G36*
X199663269Y-100549285D02*
G01*
X199063269Y-101588515D01*
X198283847Y-101138515D01*
X198883847Y-100099285D01*
X199663269Y-100549285D01*
G37*
G04 #@! TD.AperFunction*
X130915000Y-97460000D03*
X143842000Y-94920000D03*
X130915000Y-78460000D03*
X143842000Y-75920000D03*
D18*
X164400000Y-78950000D03*
X164400000Y-75650000D03*
D17*
X116300000Y-82675000D03*
X116300000Y-84075000D03*
X121700000Y-84075000D03*
X121700000Y-82675000D03*
D19*
X149915000Y-95085000D03*
X162842000Y-92545000D03*
D18*
X183400000Y-62325000D03*
X183400000Y-59025000D03*
D17*
X135300000Y-66050000D03*
X135300000Y-67450000D03*
X140700000Y-67450000D03*
X140700000Y-66050000D03*
X116300000Y-101675000D03*
X116300000Y-103075000D03*
X121700000Y-103075000D03*
X121700000Y-101675000D03*
D19*
X168915000Y-78460000D03*
X181842000Y-75920000D03*
X92915000Y-78460000D03*
X105842000Y-75920000D03*
X149915000Y-38085000D03*
X162842000Y-35545000D03*
X187915000Y-61835000D03*
X200842000Y-59295000D03*
D17*
X135300000Y-47050000D03*
X135300000Y-48450000D03*
X140700000Y-48450000D03*
X140700000Y-47050000D03*
D18*
X107400000Y-43325000D03*
X107400000Y-40025000D03*
X145400000Y-62325000D03*
X145400000Y-59025000D03*
D19*
X187915000Y-42835000D03*
X200842000Y-40295000D03*
X130915000Y-40460000D03*
X143842000Y-37920000D03*
D17*
X173300000Y-66050000D03*
X173300000Y-67450000D03*
X178700000Y-67450000D03*
X178700000Y-66050000D03*
D19*
X111915000Y-95085000D03*
X124842000Y-92545000D03*
X92915000Y-59460000D03*
X105842000Y-56920000D03*
D18*
X107400000Y-62325000D03*
X107400000Y-59025000D03*
X202400000Y-64700000D03*
X202400000Y-61400000D03*
D17*
X173300000Y-104050000D03*
X173300000Y-105450000D03*
X178700000Y-105450000D03*
X178700000Y-104050000D03*
X173300000Y-47050000D03*
X173300000Y-48450000D03*
X178700000Y-48450000D03*
X178700000Y-47050000D03*
G04 #@! TA.AperFunction,SMDPad,CuDef*
G36*
X216378869Y-121747051D02*
G01*
X217244895Y-122247051D01*
X216544895Y-123459487D01*
X215678869Y-122959487D01*
X216378869Y-121747051D01*
G37*
G04 #@! TD.AperFunction*
G04 #@! TA.AperFunction,SMDPad,CuDef*
G36*
X217591305Y-122447051D02*
G01*
X218457331Y-122947051D01*
X217757331Y-124159487D01*
X216891305Y-123659487D01*
X217591305Y-122447051D01*
G37*
G04 #@! TD.AperFunction*
G04 #@! TA.AperFunction,SMDPad,CuDef*
G36*
X220291305Y-117770513D02*
G01*
X221157331Y-118270513D01*
X220457331Y-119482949D01*
X219591305Y-118982949D01*
X220291305Y-117770513D01*
G37*
G04 #@! TD.AperFunction*
G04 #@! TA.AperFunction,SMDPad,CuDef*
G36*
X219078869Y-117070513D02*
G01*
X219944895Y-117570513D01*
X219244895Y-118782949D01*
X218378869Y-118282949D01*
X219078869Y-117070513D01*
G37*
G04 #@! TD.AperFunction*
D18*
X126400000Y-97950000D03*
X126400000Y-94650000D03*
D17*
X135300000Y-85050000D03*
X135300000Y-86450000D03*
X140700000Y-86450000D03*
X140700000Y-85050000D03*
D18*
X202400000Y-45700000D03*
X202400000Y-42400000D03*
X183400000Y-81325000D03*
X183400000Y-78025000D03*
D19*
X111915000Y-76085000D03*
X124842000Y-73545000D03*
D18*
X126400000Y-78950000D03*
X126400000Y-75650000D03*
D19*
X187915000Y-80835000D03*
X200842000Y-78295000D03*
D18*
X164400000Y-97950000D03*
X164400000Y-94650000D03*
D17*
X97300000Y-104050000D03*
X97300000Y-105450000D03*
X102700000Y-105450000D03*
X102700000Y-104050000D03*
X154300000Y-63675000D03*
X154300000Y-65075000D03*
X159700000Y-65075000D03*
X159700000Y-63675000D03*
D20*
X108904400Y-53270200D03*
D21*
X161060000Y-82675000D03*
X199060000Y-68425000D03*
X180060000Y-85050000D03*
X180060000Y-47050000D03*
X142060000Y-66050000D03*
X142060000Y-85050000D03*
D20*
X186024600Y-86108000D03*
D21*
X219842000Y-116749000D03*
X180060000Y-66050000D03*
X142060000Y-47050000D03*
X123060000Y-82675000D03*
X104060000Y-66050000D03*
X104060000Y-85050000D03*
X180060000Y-104050000D03*
X203387000Y-107249000D03*
D20*
X203113300Y-88715400D03*
D21*
X142060000Y-104050000D03*
X161060000Y-63675000D03*
X199060000Y-87425000D03*
X104060000Y-47050000D03*
X123060000Y-63675000D03*
X123060000Y-44675000D03*
X161060000Y-101675000D03*
D20*
X127673500Y-83402700D03*
D21*
X104060000Y-104050000D03*
X199060000Y-49425000D03*
D20*
X205429900Y-72018500D03*
D21*
X161060000Y-44675000D03*
X123060000Y-101675000D03*
D20*
X126085000Y-71492200D03*
X126085000Y-88715400D03*
X126085000Y-52344900D03*
X126085000Y-33490100D03*
X145085000Y-51227900D03*
X145085000Y-91499800D03*
X145085000Y-35811200D03*
X162935200Y-67094200D03*
X164085000Y-51850900D03*
X164085000Y-33464200D03*
X163560600Y-88715400D03*
X183942700Y-35855600D03*
X182524400Y-54790200D03*
X183085000Y-61222300D03*
X193831400Y-101747700D03*
X202085000Y-37874500D03*
X202085000Y-74793400D03*
X213943500Y-108745600D03*
X166790800Y-97068700D03*
X223964400Y-108206200D03*
X111600000Y-99573300D03*
X205014500Y-102637400D03*
X128473200Y-97068600D03*
X149538400Y-99977600D03*
X110923800Y-80732200D03*
X128291600Y-80189900D03*
X170132600Y-83623200D03*
X164344000Y-79968500D03*
X185689200Y-81919700D03*
X140653600Y-82711100D03*
X148698300Y-80573300D03*
X92600000Y-80369600D03*
X129698300Y-61384900D03*
X111640600Y-61331800D03*
X185687200Y-62674300D03*
X189134300Y-67031500D03*
X102155200Y-64015800D03*
X166537600Y-60871400D03*
X149944900Y-61330700D03*
X185689200Y-44050000D03*
X166537600Y-41380600D03*
X149544800Y-42086400D03*
X92600000Y-45606400D03*
X128293200Y-41380600D03*
X218856000Y-69770900D03*
X111640600Y-42086400D03*
X208016600Y-45700000D03*
D21*
X133940000Y-66050000D03*
X114940000Y-63675000D03*
D20*
X123137100Y-104050000D03*
D21*
X190940000Y-49425000D03*
X215782000Y-123781000D03*
X152940000Y-63675000D03*
X95940000Y-85050000D03*
X114940000Y-44675000D03*
X114940000Y-82675000D03*
X114940000Y-101675000D03*
X171940000Y-104050000D03*
X95940000Y-47050000D03*
D20*
X162374600Y-65351000D03*
D21*
X95940000Y-66050000D03*
X95940000Y-104050000D03*
X133940000Y-47050000D03*
X133940000Y-104050000D03*
X171940000Y-85050000D03*
X190940000Y-68425000D03*
D20*
X203113300Y-90949000D03*
D21*
X199327000Y-114281000D03*
X152940000Y-44675000D03*
X133940000Y-85050000D03*
X171940000Y-66050000D03*
X152940000Y-101675000D03*
X190940000Y-87425000D03*
X171940000Y-47050000D03*
X152940000Y-82675000D03*
D20*
X215799700Y-55130000D03*
X215799700Y-57754900D03*
D22*
X191585100Y-52746600D02*
X188662000Y-49823500D01*
X108904400Y-53270200D02*
X97553100Y-53270200D01*
X97553100Y-53270200D02*
X92915000Y-57908300D01*
X92774600Y-76767900D02*
X92915000Y-76908300D01*
X92915000Y-59460000D02*
X92915000Y-61011700D01*
D23*
X214875800Y-53860000D02*
X214524000Y-53860000D01*
D22*
X188662000Y-49823500D02*
X182978200Y-49823500D01*
D23*
X222479000Y-54080000D02*
X222284000Y-54080000D01*
D22*
X91973700Y-94967000D02*
X92915000Y-95908300D01*
D23*
X220299000Y-53860000D02*
X214875800Y-53860000D01*
D22*
X92915000Y-58684100D02*
X92915000Y-57908300D01*
X214524000Y-53860000D02*
X214304000Y-54080000D01*
X213762400Y-52746600D02*
X191585100Y-52746600D01*
D23*
X221404000Y-53355000D02*
X220804000Y-53355000D01*
D22*
X92915000Y-61011700D02*
X92774600Y-61152100D01*
X110353000Y-53270200D02*
X108904400Y-53270200D01*
X113429100Y-50194100D02*
X110353000Y-53270200D01*
X91973700Y-79401300D02*
X91973700Y-94967000D01*
X91966900Y-42959800D02*
X91966900Y-47684000D01*
X182607600Y-50194100D02*
X113429100Y-50194100D01*
X214875800Y-53860000D02*
X213762400Y-52746600D01*
X92915000Y-97460000D02*
X92915000Y-95908300D01*
X92915000Y-40460000D02*
X92915000Y-42011700D01*
X91966900Y-47684000D02*
X97553100Y-53270200D01*
X92915000Y-78460000D02*
X92915000Y-76908300D01*
D23*
X222129000Y-54080000D02*
X221404000Y-53355000D01*
D22*
X92915000Y-42011700D02*
X91966900Y-42959800D01*
X182978200Y-49823500D02*
X182607600Y-50194100D01*
D23*
X222284000Y-54080000D02*
X222129000Y-54080000D01*
D22*
X92915000Y-78460000D02*
X91973700Y-79401300D01*
X92774600Y-61152100D02*
X92774600Y-76767900D01*
D23*
X220804000Y-53355000D02*
X220299000Y-53860000D01*
D22*
X92915000Y-58684100D02*
X92915000Y-59460000D01*
X107195300Y-96273300D02*
X105842000Y-94920000D01*
X107400000Y-97025000D02*
X107400000Y-96273300D01*
X107400000Y-96273300D02*
X107195300Y-96273300D01*
D23*
X179095700Y-48450000D02*
X179400000Y-48450000D01*
X199060000Y-88230900D02*
X199060000Y-88152700D01*
D22*
X120914600Y-47256100D02*
X104266100Y-47256100D01*
D23*
X160400000Y-65075000D02*
X161060000Y-64480900D01*
X103400000Y-48450000D02*
X104060000Y-47855900D01*
X199060000Y-69230900D02*
X199060000Y-68425000D01*
X159700000Y-84075000D02*
X160400000Y-84075000D01*
X141400000Y-86450000D02*
X142060000Y-85855900D01*
X179095700Y-67450000D02*
X179400000Y-67450000D01*
D22*
X213296600Y-49017600D02*
X213296500Y-49017500D01*
D23*
X179780000Y-86107900D02*
X180060000Y-85855900D01*
D22*
X179095700Y-48450000D02*
X177898500Y-49647200D01*
D23*
X161060000Y-83480900D02*
X161060000Y-82675000D01*
X198400000Y-50825000D02*
X199016600Y-50270000D01*
D22*
X104266100Y-85256100D02*
X104060000Y-85050000D01*
D23*
X222129000Y-46460000D02*
X221404000Y-45735000D01*
D22*
X123060000Y-83402700D02*
X127673500Y-83402700D01*
D23*
X180060000Y-85855900D02*
X180060000Y-85050000D01*
X123060000Y-64480900D02*
X123060000Y-63675000D01*
D22*
X179095700Y-67450000D02*
X177898500Y-68647200D01*
X162125500Y-65952700D02*
X162676400Y-65952700D01*
D23*
X180060000Y-104856000D02*
X180060000Y-104050000D01*
D22*
X159318200Y-85258500D02*
X159700000Y-84876700D01*
X220874000Y-49230000D02*
X221104000Y-49000000D01*
X160095700Y-103075000D02*
X163624500Y-106603800D01*
D23*
X122400000Y-65075000D02*
X123060000Y-64480900D01*
D22*
X139978100Y-106648500D02*
X124192500Y-106648500D01*
D23*
X160095700Y-46075000D02*
X160400000Y-46075000D01*
X222284000Y-46460000D02*
X222129000Y-46460000D01*
X160095700Y-65075000D02*
X160400000Y-65075000D01*
X123060000Y-45480900D02*
X123060000Y-44675000D01*
D22*
X191604400Y-51997900D02*
X196981700Y-51997900D01*
D23*
X204085000Y-107652000D02*
X203387000Y-107249000D01*
D22*
X141095700Y-67450000D02*
X139898500Y-68647200D01*
X161060000Y-82675000D02*
X162488400Y-82675000D01*
D23*
X198050000Y-69825000D02*
X198400000Y-69825000D01*
D22*
X188281700Y-48675200D02*
X191604400Y-51997900D01*
X178700000Y-105450000D02*
X178700000Y-106251700D01*
X120914600Y-85256100D02*
X104266100Y-85256100D01*
X163624500Y-106603800D02*
X178347900Y-106603800D01*
X177898500Y-68647200D02*
X165370900Y-68647200D01*
D23*
X140700000Y-86450000D02*
X141400000Y-86450000D01*
D22*
X104266100Y-47256100D02*
X104060000Y-47050000D01*
D23*
X121700000Y-103075000D02*
X122400000Y-103075000D01*
X141050000Y-105450000D02*
X141400000Y-105450000D01*
X161060000Y-102481000D02*
X161060000Y-101675000D01*
D22*
X165226300Y-49647200D02*
X161060000Y-45480900D01*
D23*
X142060000Y-47855900D02*
X142060000Y-47050000D01*
X104060000Y-85855900D02*
X104060000Y-85050000D01*
X104060000Y-66855900D02*
X104060000Y-66050000D01*
D22*
X128907100Y-82169100D02*
X128907100Y-68647200D01*
D23*
X178700000Y-48450000D02*
X179095700Y-48450000D01*
D22*
X218457000Y-76358000D02*
X219358700Y-76358000D01*
D23*
X104060000Y-47855900D02*
X104060000Y-47050000D01*
D22*
X197352900Y-51626700D02*
X197700000Y-51626700D01*
D23*
X203920000Y-109127000D02*
X204270000Y-108521000D01*
X160095700Y-103075000D02*
X160400000Y-103075000D01*
X161060000Y-64480900D02*
X161060000Y-63675000D01*
D22*
X127673500Y-83402700D02*
X128907100Y-82169100D01*
D23*
X213296600Y-49017600D02*
X213358500Y-49079500D01*
D22*
X203113300Y-88152700D02*
X203113300Y-88715400D01*
X128907100Y-68647200D02*
X127226300Y-68647200D01*
D23*
X180060000Y-66855900D02*
X180060000Y-66050000D01*
X122095700Y-65075000D02*
X122400000Y-65075000D01*
X140700000Y-105450000D02*
X141050000Y-105450000D01*
D22*
X158314700Y-104856000D02*
X142060000Y-104856000D01*
D23*
X199016600Y-50270000D02*
X199060000Y-50230900D01*
X213124000Y-49000000D02*
X213279000Y-49000000D01*
D22*
X181043600Y-48330600D02*
X181388200Y-48675200D01*
D23*
X214004200Y-49725000D02*
X214604000Y-49725000D01*
D22*
X124192500Y-106648500D02*
X122400000Y-104856000D01*
X177898500Y-49647200D02*
X165226300Y-49647200D01*
D23*
X220540000Y-117152000D02*
X219842000Y-116749000D01*
D22*
X122095700Y-46075000D02*
X120914600Y-47256100D01*
D23*
X141400000Y-48450000D02*
X142060000Y-47855900D01*
X142060000Y-104856000D02*
X142060000Y-104050000D01*
X213124000Y-51540000D02*
X213279000Y-51540000D01*
X142060000Y-85855900D02*
X142060000Y-85050000D01*
X221404000Y-45735000D02*
X220804000Y-45735000D01*
X210837000Y-79008000D02*
X210837000Y-77258000D01*
X213279000Y-51540000D02*
X214004000Y-52265000D01*
D22*
X142268500Y-85258500D02*
X159318200Y-85258500D01*
D23*
X214604000Y-49725000D02*
X215099000Y-49230000D01*
X178700000Y-67450000D02*
X179095700Y-67450000D01*
X103400000Y-67450000D02*
X104060000Y-66855900D01*
D22*
X160095700Y-103075000D02*
X158314700Y-104856000D01*
X122095700Y-84075000D02*
X120914600Y-85256100D01*
X220874000Y-51770000D02*
X221104000Y-51540000D01*
X204291300Y-107858300D02*
X204085000Y-107652000D01*
D23*
X141095700Y-48450000D02*
X141400000Y-48450000D01*
D22*
X213358500Y-49079500D02*
X213296600Y-49017600D01*
D23*
X199060000Y-50230900D02*
X199060000Y-49425000D01*
X159700000Y-65075000D02*
X160095700Y-65075000D01*
X214004000Y-52265000D02*
X214604000Y-52265000D01*
D22*
X142060000Y-85050000D02*
X142268500Y-85258500D01*
D23*
X204270000Y-108521000D02*
X204085000Y-107652000D01*
X102700000Y-105450000D02*
X103400000Y-105450000D01*
X102700000Y-48450000D02*
X103400000Y-48450000D01*
X178700000Y-86450000D02*
X179400000Y-86450000D01*
X123060000Y-102481000D02*
X123060000Y-101675000D01*
D22*
X161060000Y-64887200D02*
X162125500Y-65952700D01*
X178347900Y-106603800D02*
X178700000Y-106251700D01*
D23*
X180060000Y-47855900D02*
X180060000Y-47050000D01*
D22*
X160095700Y-46075000D02*
X158314800Y-47855900D01*
X203113300Y-88152700D02*
X206107700Y-85158300D01*
X122400000Y-104856000D02*
X104060000Y-104856000D01*
X204528100Y-108073200D02*
X204313200Y-107858300D01*
D23*
X160400000Y-103075000D02*
X161060000Y-102481000D01*
D22*
X139898500Y-68647200D02*
X128907100Y-68647200D01*
X214524000Y-46240000D02*
X214304000Y-46460000D01*
X197700000Y-50825000D02*
X197700000Y-51626700D01*
D23*
X140700000Y-48450000D02*
X141095700Y-48450000D01*
X123060000Y-83480900D02*
X123060000Y-83402700D01*
X103400000Y-105450000D02*
X104060000Y-104856000D01*
X160400000Y-84075000D02*
X161060000Y-83480900D01*
D22*
X159700000Y-84075000D02*
X159700000Y-84876700D01*
D23*
X213358500Y-49079500D02*
X214004000Y-49725000D01*
D22*
X165370900Y-79792500D02*
X165370900Y-68647200D01*
D23*
X198400000Y-88825000D02*
X199060000Y-88230900D01*
X215099000Y-49230000D02*
X220874000Y-49230000D01*
X122400000Y-46075000D02*
X123060000Y-45480900D01*
X141095700Y-67450000D02*
X141400000Y-67450000D01*
X197700000Y-69825000D02*
X198050000Y-69825000D01*
X142060000Y-66855900D02*
X142060000Y-66050000D01*
D22*
X220910000Y-86260000D02*
X220910000Y-85158300D01*
D23*
X122095700Y-84075000D02*
X122400000Y-84075000D01*
D22*
X198050000Y-69825000D02*
X203236400Y-69825000D01*
X204313200Y-107858300D02*
X204291300Y-107858300D01*
X127226300Y-49647200D02*
X123060000Y-45480900D01*
D23*
X160400000Y-46075000D02*
X161060000Y-45480900D01*
X215099000Y-51770000D02*
X220874000Y-51770000D01*
D22*
X141050000Y-105576600D02*
X139978100Y-106648500D01*
D23*
X122400000Y-103075000D02*
X123060000Y-102481000D01*
D22*
X139898500Y-49647200D02*
X127226300Y-49647200D01*
X213459200Y-50270000D02*
X214004200Y-49725000D01*
D23*
X121700000Y-46075000D02*
X122095700Y-46075000D01*
X199060000Y-88152700D02*
X199060000Y-87425000D01*
D22*
X158914600Y-66256100D02*
X142266100Y-66256100D01*
D23*
X121700000Y-84075000D02*
X122095700Y-84075000D01*
X197700000Y-50825000D02*
X198400000Y-50825000D01*
X179532600Y-48330600D02*
X180060000Y-47855900D01*
D22*
X158314800Y-47855900D02*
X142060000Y-47855900D01*
D23*
X198400000Y-69825000D02*
X199060000Y-69230900D01*
D22*
X162676400Y-65952700D02*
X165370900Y-68647200D01*
X203236400Y-69825000D02*
X205429900Y-72018500D01*
D23*
X179400000Y-67450000D02*
X180060000Y-66855900D01*
D22*
X179780100Y-86108000D02*
X186024600Y-86108000D01*
X120314800Y-66855900D02*
X104060000Y-66855900D01*
X199060000Y-88152700D02*
X203113300Y-88152700D01*
X122400000Y-104856000D02*
X122400000Y-103075000D01*
D23*
X213296500Y-49017500D02*
X213296600Y-49017600D01*
X213279000Y-49000000D02*
X213296500Y-49017500D01*
X159700000Y-46075000D02*
X160095700Y-46075000D01*
D22*
X179780000Y-86107900D02*
X179780100Y-86108000D01*
X206107700Y-85158300D02*
X220910000Y-85158300D01*
X122095700Y-65075000D02*
X120314800Y-66855900D01*
D23*
X197700000Y-88825000D02*
X198400000Y-88825000D01*
X178700000Y-105450000D02*
X179400000Y-105450000D01*
X220374000Y-118627000D02*
X220724000Y-118021000D01*
X141400000Y-67450000D02*
X142060000Y-66855900D01*
X140700000Y-67450000D02*
X141095700Y-67450000D01*
X103400000Y-86450000D02*
X104060000Y-85855900D01*
D22*
X179532600Y-48330600D02*
X181043600Y-48330600D01*
D23*
X179400000Y-105450000D02*
X180060000Y-104856000D01*
X102700000Y-67450000D02*
X103400000Y-67450000D01*
X214604000Y-52265000D02*
X215099000Y-51770000D01*
D22*
X160095700Y-65075000D02*
X158914600Y-66256100D01*
X181388200Y-48675200D02*
X188281700Y-48675200D01*
X222350000Y-81751000D02*
X222350000Y-79349300D01*
X142266100Y-66256100D02*
X142060000Y-66050000D01*
X161060000Y-64480900D02*
X161060000Y-64887200D01*
D23*
X141400000Y-105450000D02*
X142060000Y-104856000D01*
D22*
X127226300Y-68647200D02*
X123060000Y-64480900D01*
X162488400Y-82675000D02*
X165370900Y-79792500D01*
D23*
X214004000Y-49725000D02*
X214004200Y-49725000D01*
D22*
X203919800Y-109126700D02*
X204528100Y-108073200D01*
D23*
X104060000Y-104856000D02*
X104060000Y-104050000D01*
X179400000Y-48450000D02*
X179532600Y-48330600D01*
D22*
X199016600Y-50270000D02*
X213459200Y-50270000D01*
X141095700Y-48450000D02*
X139898500Y-49647200D01*
X222350000Y-79349300D02*
X219358700Y-76358000D01*
D23*
X220299000Y-46240000D02*
X214524000Y-46240000D01*
D22*
X196981700Y-51997900D02*
X197352900Y-51626700D01*
D23*
X222479000Y-46460000D02*
X222284000Y-46460000D01*
X122095700Y-46075000D02*
X122400000Y-46075000D01*
X121700000Y-65075000D02*
X122095700Y-65075000D01*
X122400000Y-84075000D02*
X123060000Y-83480900D01*
X159700000Y-103075000D02*
X160095700Y-103075000D01*
X212929000Y-51540000D02*
X213124000Y-51540000D01*
X161060000Y-45480900D02*
X161060000Y-44675000D01*
X102700000Y-86450000D02*
X103400000Y-86450000D01*
X220804000Y-45735000D02*
X220299000Y-46240000D01*
X179400000Y-86450000D02*
X179780000Y-86107900D01*
X212929000Y-49000000D02*
X213124000Y-49000000D01*
X220724000Y-118021000D02*
X220540000Y-117152000D01*
X123060000Y-83402700D02*
X123060000Y-82675000D01*
D22*
X141050000Y-105450000D02*
X141050000Y-105576600D01*
X107400000Y-78025000D02*
X107400000Y-77273300D01*
X107400000Y-77273300D02*
X107195300Y-77273300D01*
X107195300Y-77273300D02*
X105842000Y-75920000D01*
X107400000Y-58273300D02*
X107195300Y-58273300D01*
X107400000Y-59025000D02*
X107400000Y-58273300D01*
X107195300Y-58273300D02*
X105842000Y-56920000D01*
X107195300Y-39273300D02*
X105842000Y-37920000D01*
X107400000Y-40025000D02*
X107400000Y-39273300D01*
X107400000Y-39273300D02*
X107195300Y-39273300D01*
X182743700Y-50626000D02*
X127803900Y-50626000D01*
D23*
X220299000Y-56400000D02*
X214524000Y-56400000D01*
X222284000Y-56620000D02*
X222129000Y-56620000D01*
D22*
X111915000Y-57085000D02*
X111915000Y-55533300D01*
X188094300Y-50225200D02*
X183144500Y-50225200D01*
X205657700Y-53148300D02*
X191017400Y-53148300D01*
X127803900Y-50626000D02*
X126085000Y-52344900D01*
X214304000Y-56470200D02*
X213260400Y-55426600D01*
X214524000Y-56400000D02*
X214304000Y-56620000D01*
X111915000Y-76085000D02*
X111915000Y-74533300D01*
X111915000Y-55533300D02*
X115103400Y-52344900D01*
X114956100Y-71492200D02*
X126085000Y-71492200D01*
X111915000Y-38085000D02*
X111915000Y-36533300D01*
X214304000Y-56620000D02*
X214304000Y-56470200D01*
X183144500Y-50225200D02*
X182743700Y-50626000D01*
D23*
X221404000Y-55895000D02*
X220804000Y-55895000D01*
D22*
X111915000Y-93533300D02*
X116732900Y-88715400D01*
D23*
X220804000Y-55895000D02*
X220299000Y-56400000D01*
X222129000Y-56620000D02*
X221404000Y-55895000D01*
D22*
X116732900Y-88715400D02*
X126085000Y-88715400D01*
X115103400Y-52344900D02*
X126085000Y-52344900D01*
X111915000Y-95085000D02*
X111915000Y-93533300D01*
D23*
X222479000Y-56620000D02*
X222284000Y-56620000D01*
D22*
X114958200Y-33490100D02*
X126085000Y-33490100D01*
X111915000Y-36533300D02*
X114958200Y-33490100D01*
X111915000Y-74533300D02*
X114956100Y-71492200D01*
X207936000Y-55426600D02*
X205657700Y-53148300D01*
X191017400Y-53148300D02*
X188094300Y-50225200D01*
X213260400Y-55426600D02*
X207936000Y-55426600D01*
X126195300Y-93898300D02*
X124842000Y-92545000D01*
X126400000Y-93898300D02*
X126195300Y-93898300D01*
X126400000Y-94650000D02*
X126400000Y-93898300D01*
X126195300Y-74898300D02*
X124842000Y-73545000D01*
X126400000Y-74898300D02*
X126195300Y-74898300D01*
X126400000Y-75650000D02*
X126400000Y-74898300D01*
X126400000Y-56650000D02*
X126400000Y-55898300D01*
X126400000Y-55898300D02*
X126195300Y-55898300D01*
X126195300Y-55898300D02*
X124842000Y-54545000D01*
X126400000Y-36898300D02*
X126195300Y-36898300D01*
X126195300Y-36898300D02*
X124842000Y-35545000D01*
X126400000Y-37650000D02*
X126400000Y-36898300D01*
X200655300Y-53550000D02*
X190008400Y-53550000D01*
X130915000Y-40460000D02*
X130915000Y-38908300D01*
X130915000Y-59460000D02*
X130915000Y-57908300D01*
X135323500Y-91499800D02*
X145085000Y-91499800D01*
D23*
X222284000Y-59160000D02*
X222129000Y-59160000D01*
X222129000Y-59160000D02*
X221404000Y-58435000D01*
D22*
X214875800Y-58940000D02*
X213825800Y-57890000D01*
X130915000Y-78460000D02*
X130915000Y-87091300D01*
X130915000Y-87091300D02*
X135323500Y-91499800D01*
D23*
X221404000Y-58435000D02*
X220804000Y-58435000D01*
X220299000Y-58940000D02*
X214875800Y-58940000D01*
D22*
X130915000Y-57908300D02*
X137595400Y-51227900D01*
X214524000Y-58940000D02*
X214304000Y-59160000D01*
D23*
X214875800Y-58940000D02*
X214524000Y-58940000D01*
D22*
X187085300Y-50626900D02*
X183310800Y-50626900D01*
X134012100Y-35811200D02*
X145085000Y-35811200D01*
X182709800Y-51227900D02*
X145085000Y-51227900D01*
X130915000Y-95908300D02*
X135323500Y-91499800D01*
X183310800Y-50626900D02*
X182709800Y-51227900D01*
X130915000Y-38908300D02*
X134012100Y-35811200D01*
D23*
X222479000Y-59160000D02*
X222284000Y-59160000D01*
X220804000Y-58435000D02*
X220299000Y-58940000D01*
D22*
X213825800Y-57890000D02*
X204995300Y-57890000D01*
X137595400Y-51227900D02*
X145085000Y-51227900D01*
X130915000Y-97460000D02*
X130915000Y-95908300D01*
X190008400Y-53550000D02*
X187085300Y-50626900D01*
X204995300Y-57890000D02*
X200655300Y-53550000D01*
X145400000Y-97025000D02*
X145400000Y-96273300D01*
X145195300Y-96273300D02*
X143842000Y-94920000D01*
X145400000Y-96273300D02*
X145195300Y-96273300D01*
X145400000Y-77273300D02*
X145195300Y-77273300D01*
X145400000Y-78025000D02*
X145400000Y-77273300D01*
X145195300Y-77273300D02*
X143842000Y-75920000D01*
X145400000Y-59025000D02*
X145400000Y-58273300D01*
X145195300Y-58273300D02*
X143842000Y-56920000D01*
X145400000Y-58273300D02*
X145195300Y-58273300D01*
X145400000Y-40025000D02*
X145400000Y-39273300D01*
X145400000Y-39273300D02*
X145195300Y-39273300D01*
X145195300Y-39273300D02*
X143842000Y-37920000D01*
X152984100Y-33464200D02*
X164085000Y-33464200D01*
D23*
X220804000Y-60975000D02*
X220299000Y-61480000D01*
D22*
X214524000Y-61480000D02*
X214304000Y-61700000D01*
D23*
X214875800Y-61480000D02*
X214524000Y-61480000D01*
X221404000Y-60975000D02*
X220804000Y-60975000D01*
D22*
X153597400Y-51850900D02*
X149915000Y-55533300D01*
X213825800Y-60430000D02*
X206613800Y-60430000D01*
X149915000Y-76085000D02*
X149915000Y-74533300D01*
X157354100Y-67094200D02*
X162935200Y-67094200D01*
X149915000Y-95085000D02*
X149915000Y-93533300D01*
X186919000Y-51028600D02*
X183677300Y-51028600D01*
X149915000Y-57085000D02*
X149915000Y-55533300D01*
D23*
X220299000Y-61480000D02*
X214875800Y-61480000D01*
D22*
X214875800Y-61480000D02*
X213825800Y-60430000D01*
X149915000Y-38085000D02*
X149915000Y-36533300D01*
D23*
X222284000Y-61700000D02*
X222129000Y-61700000D01*
D22*
X206613800Y-60430000D02*
X203004400Y-56820600D01*
X164085000Y-51850900D02*
X153597400Y-51850900D01*
D23*
X222129000Y-61700000D02*
X221404000Y-60975000D01*
D22*
X203004400Y-56820600D02*
X192711000Y-56820600D01*
X154732900Y-88715400D02*
X163560600Y-88715400D01*
D23*
X222479000Y-61700000D02*
X222284000Y-61700000D01*
D22*
X149915000Y-74533300D02*
X157354100Y-67094200D01*
X192711000Y-56820600D02*
X186919000Y-51028600D01*
X183677300Y-51028600D02*
X182855000Y-51850900D01*
X149915000Y-93533300D02*
X154732900Y-88715400D01*
X182855000Y-51850900D02*
X164085000Y-51850900D01*
X149915000Y-36533300D02*
X152984100Y-33464200D01*
X164195300Y-93898300D02*
X162842000Y-92545000D01*
X164400000Y-93898300D02*
X164195300Y-93898300D01*
X164400000Y-94650000D02*
X164400000Y-93898300D01*
X164400000Y-75650000D02*
X164400000Y-74898300D01*
X164400000Y-74898300D02*
X164195300Y-74898300D01*
X164195300Y-74898300D02*
X162842000Y-73545000D01*
X164195300Y-55898300D02*
X162842000Y-54545000D01*
X164400000Y-56650000D02*
X164400000Y-55898300D01*
X164400000Y-55898300D02*
X164195300Y-55898300D01*
X164400000Y-37650000D02*
X164400000Y-36898300D01*
X164400000Y-36898300D02*
X164195300Y-36898300D01*
X164195300Y-36898300D02*
X162842000Y-35545000D01*
X168915000Y-78460000D02*
X168915000Y-76908300D01*
D23*
X221404000Y-63515000D02*
X220804000Y-63515000D01*
X220299000Y-64020000D02*
X214875800Y-64020000D01*
D22*
X202767500Y-57222400D02*
X208515100Y-62970000D01*
X168915000Y-97460000D02*
X168915000Y-95908300D01*
X172033100Y-54790200D02*
X168915000Y-57908300D01*
X213825800Y-62970000D02*
X214875800Y-64020000D01*
X177268900Y-71994800D02*
X186314600Y-62949100D01*
X185148900Y-61222300D02*
X183085000Y-61222300D01*
X182524400Y-54790200D02*
X172033100Y-54790200D01*
X171967700Y-35855600D02*
X183942700Y-35855600D01*
X168915000Y-78460000D02*
X168915000Y-80011700D01*
X168915000Y-59460000D02*
X168915000Y-57908300D01*
D23*
X222284000Y-64240000D02*
X222129000Y-64240000D01*
X222129000Y-64240000D02*
X221404000Y-63515000D01*
D22*
X208515100Y-62970000D02*
X213825800Y-62970000D01*
X187084900Y-57222400D02*
X202767500Y-57222400D01*
X186314600Y-62388000D02*
X185148900Y-61222300D01*
X169214700Y-80311400D02*
X168915000Y-80011700D01*
X169214700Y-95608600D02*
X169214700Y-80311400D01*
X173828500Y-71994800D02*
X177268900Y-71994800D01*
X168915000Y-95908300D02*
X169214700Y-95608600D01*
X168915000Y-76908300D02*
X173828500Y-71994800D01*
X183085000Y-61222300D02*
X187084900Y-57222400D01*
D23*
X220804000Y-63515000D02*
X220299000Y-64020000D01*
D22*
X168915000Y-40460000D02*
X168915000Y-38908300D01*
D23*
X214875800Y-64020000D02*
X214524000Y-64020000D01*
X222479000Y-64240000D02*
X222284000Y-64240000D01*
D22*
X168915000Y-38908300D02*
X171967700Y-35855600D01*
X214524000Y-64020000D02*
X214304000Y-64240000D01*
X186314600Y-62949100D02*
X186314600Y-62388000D01*
X183400000Y-97025000D02*
X183400000Y-96273300D01*
X183400000Y-96273300D02*
X183195300Y-96273300D01*
X183195300Y-96273300D02*
X181842000Y-94920000D01*
X183400000Y-78025000D02*
X183400000Y-77273300D01*
X183400000Y-77273300D02*
X183195300Y-77273300D01*
X183195300Y-77273300D02*
X181842000Y-75920000D01*
X183400000Y-59025000D02*
X183400000Y-58273300D01*
X183400000Y-58273300D02*
X183195300Y-58273300D01*
X183195300Y-58273300D02*
X181842000Y-56920000D01*
X183400000Y-39273300D02*
X183195300Y-39273300D01*
X183195300Y-39273300D02*
X181842000Y-37920000D01*
X183400000Y-40025000D02*
X183400000Y-39273300D01*
X187915000Y-61835000D02*
X187915000Y-70303500D01*
X214524000Y-66560000D02*
X214304000Y-66780000D01*
X190398100Y-112618600D02*
X190398100Y-111896100D01*
X187915000Y-80835000D02*
X187915000Y-79283300D01*
X192107800Y-113605800D02*
X190398100Y-112618600D01*
D23*
X221404000Y-66055000D02*
X220804000Y-66055000D01*
D22*
X187915000Y-41283300D02*
X191323800Y-37874500D01*
D23*
X222129000Y-66780000D02*
X221404000Y-66055000D01*
X222284000Y-66780000D02*
X222129000Y-66780000D01*
D22*
X187915000Y-42835000D02*
X187915000Y-41283300D01*
X190398100Y-111896100D02*
X190074000Y-111572000D01*
D23*
X220804000Y-66055000D02*
X220299000Y-66560000D01*
X222479000Y-66780000D02*
X222284000Y-66780000D01*
D22*
X187915000Y-70303500D02*
X192404900Y-74793400D01*
X187915000Y-79283300D02*
X192404900Y-74793400D01*
X190074000Y-111572000D02*
X190074000Y-105505100D01*
X191323800Y-37874500D02*
X202085000Y-37874500D01*
X192404900Y-74793400D02*
X202085000Y-74793400D01*
D23*
X220299000Y-66560000D02*
X214524000Y-66560000D01*
D22*
X190074000Y-105505100D02*
X193831400Y-101747700D01*
X202400000Y-80400000D02*
X202400000Y-79648300D01*
X202195300Y-79648300D02*
X200842000Y-78295000D01*
X202400000Y-79648300D02*
X202195300Y-79648300D01*
X202400000Y-61400000D02*
X202400000Y-60648300D01*
X202195300Y-60648300D02*
X200842000Y-59295000D01*
X202400000Y-60648300D02*
X202195300Y-60648300D01*
X202400000Y-42400000D02*
X202400000Y-41648300D01*
X202195300Y-41648300D02*
X200842000Y-40295000D01*
X202400000Y-41648300D02*
X202195300Y-41648300D01*
X198113300Y-100347200D02*
X197616600Y-100843900D01*
X198973600Y-100843900D02*
X198113300Y-100347200D01*
X196668400Y-100843900D02*
X196371600Y-101140700D01*
X197616600Y-100843900D02*
X196668400Y-100843900D01*
X206527900Y-114297000D02*
X212275300Y-108549600D01*
D23*
X220804000Y-68595000D02*
X220299000Y-69100000D01*
D22*
X206527900Y-121071400D02*
X206527900Y-114297000D01*
D23*
X222284000Y-69320000D02*
X222129000Y-69320000D01*
X222479000Y-69320000D02*
X222284000Y-69320000D01*
X222129000Y-69320000D02*
X221404000Y-68595000D01*
D22*
X208562300Y-123105800D02*
X206852600Y-122118600D01*
X212275300Y-108549600D02*
X213747500Y-108549600D01*
X206852600Y-122118600D02*
X206852600Y-121396100D01*
D23*
X221404000Y-68595000D02*
X220804000Y-68595000D01*
D22*
X206852600Y-121396100D02*
X206527900Y-121071400D01*
D23*
X220299000Y-69100000D02*
X214524000Y-69100000D01*
D22*
X213747500Y-108549600D02*
X213943500Y-108745600D01*
X214524000Y-69100000D02*
X214304000Y-69320000D01*
X213122900Y-110343900D02*
X212826100Y-110640700D01*
X215428100Y-110343900D02*
X214567800Y-109847200D01*
X214071100Y-110343900D02*
X213122900Y-110343900D01*
X214567800Y-109847200D02*
X214071100Y-110343900D01*
X124841800Y-100259900D02*
X112286600Y-100259900D01*
X164400000Y-97574100D02*
X164400000Y-97950000D01*
X145400000Y-100325000D02*
X146301700Y-100325000D01*
X145400000Y-100325000D02*
X145400000Y-101076700D01*
X107400000Y-100325000D02*
X107400000Y-99573300D01*
X209695900Y-107964500D02*
X205014500Y-103283100D01*
X146649100Y-99977600D02*
X149538400Y-99977600D01*
X146301700Y-100325000D02*
X146649100Y-99977600D01*
X183400000Y-99573300D02*
X183875100Y-99098200D01*
X203044900Y-102232100D02*
X203044900Y-102637400D01*
X183875100Y-99098200D02*
X199911000Y-99098200D01*
X202691700Y-102990600D02*
X203044900Y-102637400D01*
X201831400Y-102493900D02*
X202691700Y-102990600D01*
X126400000Y-98701700D02*
X124841800Y-100259900D01*
X183400000Y-100325000D02*
X183400000Y-101076700D01*
X162820100Y-100281600D02*
X149842400Y-100281600D01*
X164400000Y-97574100D02*
X164400000Y-97198300D01*
X218285900Y-111993900D02*
X217425700Y-111497200D01*
X164400000Y-98701700D02*
X162820100Y-100281600D01*
X217425700Y-111497200D02*
X217425700Y-110871000D01*
X149842400Y-100281600D02*
X149538400Y-99977600D01*
D23*
X214004000Y-62425000D02*
X214604000Y-62425000D01*
D22*
X203044900Y-102637400D02*
X205014500Y-102637400D01*
X181834300Y-102642400D02*
X183400000Y-101076700D01*
X164400000Y-97198300D02*
X164529600Y-97068700D01*
X205014500Y-103283100D02*
X205014500Y-102637400D01*
X199911000Y-99098200D02*
X203044900Y-102232100D01*
X214519200Y-107964500D02*
X209695900Y-107964500D01*
X164400000Y-97950000D02*
X164400000Y-98701700D01*
X220874000Y-61930000D02*
X221104000Y-61700000D01*
X143870700Y-102606000D02*
X130304300Y-102606000D01*
D23*
X214604000Y-62425000D02*
X215099000Y-61930000D01*
D22*
X220090500Y-108206200D02*
X223964400Y-108206200D01*
X128473200Y-97068600D02*
X126529700Y-97068600D01*
X130304300Y-102606000D02*
X126400000Y-98701700D01*
X164400000Y-98701700D02*
X168340700Y-102642400D01*
D23*
X213279000Y-61700000D02*
X214004000Y-62425000D01*
D22*
X217425700Y-110871000D02*
X220090500Y-108206200D01*
X168340700Y-102642400D02*
X181834300Y-102642400D01*
D23*
X215099000Y-61930000D02*
X220874000Y-61930000D01*
D22*
X126400000Y-97950000D02*
X126400000Y-98701700D01*
X217425700Y-110871000D02*
X214519200Y-107964500D01*
X126400000Y-97950000D02*
X126400000Y-97198300D01*
X126529700Y-97068600D02*
X126400000Y-97198300D01*
X112286600Y-100259900D02*
X111600000Y-99573300D01*
X107400000Y-99573300D02*
X111600000Y-99573300D01*
X164529600Y-97068700D02*
X166790800Y-97068700D01*
D23*
X213124000Y-61700000D02*
X213279000Y-61700000D01*
D22*
X145400000Y-101076700D02*
X143870700Y-102606000D01*
D23*
X212929000Y-61700000D02*
X213124000Y-61700000D01*
D22*
X183400000Y-100325000D02*
X183400000Y-99573300D01*
X126400000Y-78950000D02*
X126400000Y-79701700D01*
X202400000Y-84075800D02*
X202400000Y-84451700D01*
D23*
X212929000Y-64240000D02*
X213124000Y-64240000D01*
D22*
X144765600Y-82711100D02*
X140653600Y-82711100D01*
D23*
X214004000Y-64965000D02*
X214604000Y-64965000D01*
D22*
X202400000Y-83700000D02*
X202400000Y-82948300D01*
X185689200Y-81919700D02*
X184896400Y-81919700D01*
X164400000Y-78950000D02*
X164400000Y-79701700D01*
X183400000Y-81325000D02*
X184301700Y-81325000D01*
X164238700Y-79863000D02*
X164400000Y-79701700D01*
X211262000Y-74086300D02*
X224766500Y-74086300D01*
X220874000Y-64470000D02*
X221104000Y-64240000D01*
X184896400Y-81919700D02*
X184301700Y-81325000D01*
X221837400Y-65433400D02*
X220874000Y-64470000D01*
X200863600Y-85988100D02*
X202400000Y-84451700D01*
X202400000Y-84075800D02*
X202400000Y-83700000D01*
X105569400Y-83606500D02*
X95354100Y-83606500D01*
X145400000Y-81325000D02*
X145400000Y-82076700D01*
X111424300Y-81232700D02*
X110923800Y-80732200D01*
X145400000Y-82076700D02*
X144765600Y-82711100D01*
X126400000Y-79701700D02*
X124869000Y-81232700D01*
X185689200Y-81919700D02*
X189757600Y-85988100D01*
X107850900Y-81325000D02*
X105569400Y-83606500D01*
X124869000Y-81232700D02*
X111424300Y-81232700D01*
X182003500Y-83623200D02*
X170132600Y-83623200D01*
X164238700Y-79863200D02*
X164238700Y-79863000D01*
X110331000Y-81325000D02*
X110923800Y-80732200D01*
X164238700Y-79863200D02*
X162821700Y-81280200D01*
X107400000Y-81325000D02*
X107850900Y-81325000D01*
X145400000Y-81325000D02*
X145400000Y-80573300D01*
X145400000Y-80573300D02*
X148698300Y-80573300D01*
X92600000Y-80852400D02*
X92600000Y-80369600D01*
X226478300Y-72374500D02*
X226478300Y-66260700D01*
X107850900Y-81325000D02*
X110331000Y-81325000D01*
X126888200Y-80189900D02*
X126400000Y-79701700D01*
X162821700Y-81280200D02*
X149405200Y-81280200D01*
D23*
X213279000Y-64240000D02*
X214004000Y-64965000D01*
D22*
X184301700Y-81325000D02*
X182003500Y-83623200D01*
X95354100Y-83606500D02*
X92600000Y-80852400D01*
D23*
X215099000Y-64470000D02*
X220874000Y-64470000D01*
D22*
X202400000Y-82948300D02*
X211262000Y-74086300D01*
X189757600Y-85988100D02*
X200863600Y-85988100D01*
X128291600Y-80189900D02*
X126888200Y-80189900D01*
D23*
X214604000Y-64965000D02*
X215099000Y-64470000D01*
X213124000Y-64240000D02*
X213279000Y-64240000D01*
D22*
X149405200Y-81280200D02*
X148698300Y-80573300D01*
X164344000Y-79968500D02*
X164238700Y-79863200D01*
X224766500Y-74086300D02*
X226478300Y-72374500D01*
X226478300Y-66260700D02*
X225651000Y-65433400D01*
X225651000Y-65433400D02*
X221837400Y-65433400D01*
X126400000Y-60701700D02*
X129015100Y-60701700D01*
X107400000Y-62325000D02*
X107400000Y-61949100D01*
X150874100Y-62259900D02*
X149944900Y-61330700D01*
X202400000Y-65075800D02*
X202400000Y-65451700D01*
X132919900Y-64606500D02*
X129698300Y-61384900D01*
X164400000Y-60701700D02*
X162841800Y-62259900D01*
D23*
X214004000Y-67505000D02*
X214604000Y-67505000D01*
X213279000Y-66780000D02*
X214004000Y-67505000D01*
X213124000Y-66780000D02*
X213279000Y-66780000D01*
D22*
X126400000Y-60701700D02*
X124841800Y-62259900D01*
D23*
X214604000Y-67505000D02*
X215099000Y-67010000D01*
D22*
X202400000Y-65451700D02*
X200820200Y-67031500D01*
X107400000Y-61949100D02*
X107400000Y-61573300D01*
X129015100Y-60701700D02*
X129698300Y-61384900D01*
D23*
X212929000Y-66780000D02*
X213124000Y-66780000D01*
D22*
X183400000Y-62325000D02*
X183850900Y-62325000D01*
X111640600Y-61331800D02*
X107641500Y-61331800D01*
X183850900Y-62325000D02*
X181545100Y-64630800D01*
X107400000Y-61949100D02*
X105333300Y-64015800D01*
X212929000Y-66780000D02*
X212929000Y-66149700D01*
X142742600Y-64606500D02*
X132919900Y-64606500D01*
X107641500Y-61331800D02*
X107400000Y-61573300D01*
X145400000Y-61949100D02*
X145400000Y-61573300D01*
D23*
X215099000Y-67010000D02*
X220874000Y-67010000D01*
D22*
X145400000Y-61949100D02*
X142742600Y-64606500D01*
X124841800Y-62259900D02*
X112568700Y-62259900D01*
X145400000Y-62325000D02*
X145400000Y-61949100D01*
X162841800Y-62259900D02*
X150874100Y-62259900D01*
X184651000Y-62674300D02*
X185687200Y-62674300D01*
X105333300Y-64015800D02*
X102155200Y-64015800D01*
X166537600Y-60871400D02*
X164569700Y-60871400D01*
X145400000Y-61573300D02*
X145642600Y-61330700D01*
X145642600Y-61330700D02*
X149944900Y-61330700D01*
X183850900Y-62325000D02*
X184301700Y-62325000D01*
X164400000Y-59950000D02*
X164400000Y-60701700D01*
X200820200Y-67031500D02*
X189134300Y-67031500D01*
X212929000Y-66149700D02*
X212231000Y-65451700D01*
X181545100Y-64630800D02*
X170297000Y-64630800D01*
X112568700Y-62259900D02*
X111640600Y-61331800D01*
X184301700Y-62325000D02*
X184651000Y-62674300D01*
X126400000Y-59950000D02*
X126400000Y-60701700D01*
X212231000Y-65451700D02*
X202400000Y-65451700D01*
X220874000Y-67010000D02*
X221104000Y-66780000D01*
X202400000Y-64700000D02*
X202400000Y-65075800D01*
X164569700Y-60871400D02*
X164400000Y-60701700D01*
X170297000Y-64630800D02*
X166537600Y-60871400D01*
X104742700Y-45606400D02*
X92600000Y-45606400D01*
X200840500Y-48011200D02*
X202400000Y-46451700D01*
X189650400Y-48011200D02*
X200840500Y-48011200D01*
X164850900Y-40950000D02*
X165301700Y-40950000D01*
X111640600Y-42086400D02*
X107886900Y-42086400D01*
D23*
X214604000Y-70045000D02*
X215099000Y-69550000D01*
D22*
X184301700Y-43325000D02*
X185026700Y-44050000D01*
X164400000Y-40950000D02*
X164850900Y-40950000D01*
D23*
X214004000Y-70045000D02*
X214604000Y-70045000D01*
D22*
X124541000Y-43259900D02*
X112814100Y-43259900D01*
D23*
X215099000Y-69550000D02*
X218488600Y-69550000D01*
D22*
X107400000Y-43325000D02*
X107400000Y-42949100D01*
X127732300Y-41380600D02*
X127301700Y-40950000D01*
X202400000Y-45700000D02*
X208016600Y-45700000D01*
X149544800Y-42086400D02*
X145886900Y-42086400D01*
X185689200Y-44050000D02*
X189650400Y-48011200D01*
X126850900Y-40950000D02*
X124541000Y-43259900D01*
X107400000Y-42949100D02*
X107400000Y-42573300D01*
X184301700Y-43325000D02*
X182020600Y-45606100D01*
X112814100Y-43259900D02*
X111640600Y-42086400D01*
X132519000Y-45606400D02*
X128293200Y-41380600D01*
X162541000Y-43259900D02*
X150718300Y-43259900D01*
X220874000Y-69550000D02*
X221104000Y-69320000D01*
X183400000Y-43325000D02*
X184301700Y-43325000D01*
X164850900Y-40950000D02*
X162541000Y-43259900D01*
X107400000Y-42949100D02*
X104742700Y-45606400D01*
X126400000Y-40950000D02*
X126850900Y-40950000D01*
X145400000Y-42949100D02*
X142742700Y-45606400D01*
X182020600Y-45606100D02*
X170763100Y-45606100D01*
X218709500Y-69770900D02*
X218856000Y-69770900D01*
X202400000Y-45700000D02*
X202400000Y-46451700D01*
D23*
X213124000Y-69320000D02*
X213279000Y-69320000D01*
D22*
X170763100Y-45606100D02*
X166537600Y-41380600D01*
X165732300Y-41380600D02*
X165301700Y-40950000D01*
X185026700Y-44050000D02*
X185689200Y-44050000D01*
X145886900Y-42086400D02*
X145400000Y-42573300D01*
X166537600Y-41380600D02*
X165732300Y-41380600D01*
X218488600Y-69550000D02*
X218709500Y-69770900D01*
X142742700Y-45606400D02*
X132519000Y-45606400D01*
X107886900Y-42086400D02*
X107400000Y-42573300D01*
D23*
X218488600Y-69550000D02*
X220874000Y-69550000D01*
X213279000Y-69320000D02*
X214004000Y-70045000D01*
X212929000Y-69320000D02*
X213124000Y-69320000D01*
D22*
X145400000Y-43325000D02*
X145400000Y-42949100D01*
X128293200Y-41380600D02*
X127732300Y-41380600D01*
X145400000Y-42949100D02*
X145400000Y-42573300D01*
X126850900Y-40950000D02*
X127301700Y-40950000D01*
X150718300Y-43259900D02*
X149544800Y-42086400D01*
D23*
X220804000Y-43195000D02*
X220299000Y-43700000D01*
X221404000Y-43195000D02*
X220804000Y-43195000D01*
X222284000Y-43920000D02*
X222129000Y-43920000D01*
D22*
X214524000Y-43700000D02*
X214304000Y-43920000D01*
D23*
X220299000Y-43700000D02*
X214524000Y-43700000D01*
X222479000Y-43920000D02*
X222284000Y-43920000D01*
X222129000Y-43920000D02*
X221404000Y-43195000D01*
X220299000Y-48780000D02*
X214524000Y-48780000D01*
X222129000Y-49000000D02*
X221404000Y-48275000D01*
X222479000Y-49000000D02*
X222284000Y-49000000D01*
X220804000Y-48275000D02*
X220299000Y-48780000D01*
X222284000Y-49000000D02*
X222129000Y-49000000D01*
X221404000Y-48275000D02*
X220804000Y-48275000D01*
D22*
X214524000Y-48780000D02*
X214304000Y-49000000D01*
X152940000Y-82675000D02*
X151958500Y-83656500D01*
X113725600Y-64889400D02*
X114940000Y-63675000D01*
X135891800Y-83656500D02*
X135300000Y-84248300D01*
X190738800Y-88891800D02*
X192796000Y-90949000D01*
D23*
X220804000Y-50815000D02*
X220299000Y-51320000D01*
D22*
X114940000Y-101675000D02*
X113958500Y-102656500D01*
X190940000Y-87425000D02*
X190738800Y-87626200D01*
X133940000Y-104050000D02*
X123137100Y-104050000D01*
D23*
X97300000Y-47050000D02*
X95940000Y-47050000D01*
X154300000Y-44675000D02*
X152940000Y-44675000D01*
X192300000Y-87425000D02*
X190940000Y-87425000D01*
X116300000Y-82675000D02*
X114940000Y-82675000D01*
X213377000Y-79008000D02*
X213377000Y-77258000D01*
X173300000Y-66050000D02*
X171940000Y-66050000D01*
D22*
X171241000Y-65351000D02*
X162374600Y-65351000D01*
X135300000Y-85050000D02*
X135300000Y-84248300D01*
D23*
X116300000Y-44675000D02*
X114940000Y-44675000D01*
D22*
X171940000Y-66050000D02*
X171241000Y-65351000D01*
X96854300Y-66050000D02*
X98014900Y-64889400D01*
D23*
X173300000Y-104050000D02*
X171940000Y-104050000D01*
X154300000Y-101675000D02*
X152940000Y-101675000D01*
D22*
X113958500Y-102656500D02*
X97891800Y-102656500D01*
D23*
X192300000Y-68425000D02*
X190940000Y-68425000D01*
X222479000Y-51540000D02*
X222284000Y-51540000D01*
D22*
X200007400Y-113103300D02*
X200007200Y-113103300D01*
D23*
X216462000Y-122603000D02*
X215782000Y-123781000D01*
D22*
X97300000Y-104050000D02*
X97300000Y-103248300D01*
D23*
X154300000Y-82675000D02*
X152940000Y-82675000D01*
X135300000Y-104050000D02*
X133940000Y-104050000D01*
D22*
X192796000Y-90949000D02*
X203113300Y-90949000D01*
D23*
X200007000Y-113103100D02*
X199327000Y-114281000D01*
D22*
X200007200Y-113103300D02*
X200007000Y-113103100D01*
D23*
X173300000Y-85050000D02*
X171940000Y-85050000D01*
X192300000Y-49425000D02*
X190940000Y-49425000D01*
X200007000Y-113103000D02*
X200007000Y-113103100D01*
D22*
X98014900Y-64889400D02*
X113725600Y-64889400D01*
X203113300Y-90949000D02*
X211319300Y-90949000D01*
D23*
X116300000Y-101675000D02*
X114940000Y-101675000D01*
D22*
X171940000Y-86718000D02*
X171940000Y-85050000D01*
D23*
X97300000Y-104050000D02*
X95940000Y-104050000D01*
X97300000Y-85050000D02*
X95940000Y-85050000D01*
X154300000Y-63675000D02*
X152940000Y-63675000D01*
D22*
X213360000Y-90860000D02*
X211408300Y-90860000D01*
D23*
X222284000Y-51540000D02*
X222129000Y-51540000D01*
X222129000Y-51540000D02*
X221404000Y-50815000D01*
X221404000Y-50815000D02*
X220804000Y-50815000D01*
D22*
X172848200Y-87626200D02*
X171940000Y-86718000D01*
D23*
X220299000Y-51320000D02*
X214524000Y-51320000D01*
X116300000Y-63675000D02*
X114940000Y-63675000D01*
X135300000Y-66050000D02*
X133940000Y-66050000D01*
D22*
X214524000Y-51320000D02*
X214304000Y-51540000D01*
D23*
X173300000Y-47050000D02*
X171940000Y-47050000D01*
X135300000Y-47050000D02*
X133940000Y-47050000D01*
D22*
X151958500Y-83656500D02*
X135891800Y-83656500D01*
X211319300Y-90949000D02*
X211408300Y-90860000D01*
X190738800Y-87626200D02*
X190738800Y-88891800D01*
X97891800Y-102656500D02*
X97300000Y-103248300D01*
D23*
X135300000Y-85050000D02*
X133940000Y-85050000D01*
D22*
X190738800Y-87626200D02*
X172848200Y-87626200D01*
D23*
X97300000Y-66050000D02*
X96854300Y-66050000D01*
X96854300Y-66050000D02*
X95940000Y-66050000D01*
X222284000Y-71860000D02*
X222129000Y-71860000D01*
X222129000Y-71860000D02*
X221404000Y-71135000D01*
X222479000Y-71860000D02*
X222284000Y-71860000D01*
D22*
X214524000Y-71640000D02*
X214304000Y-71860000D01*
D23*
X220299000Y-71640000D02*
X214524000Y-71640000D01*
X221404000Y-71135000D02*
X220804000Y-71135000D01*
X220804000Y-71135000D02*
X220299000Y-71640000D01*
X214004000Y-44645000D02*
X214604000Y-44645000D01*
X213279000Y-43920000D02*
X214004000Y-44645000D01*
D22*
X220874000Y-44150000D02*
X221104000Y-43920000D01*
D23*
X212929000Y-43920000D02*
X213124000Y-43920000D01*
X214604000Y-44645000D02*
X215099000Y-44150000D01*
X213124000Y-43920000D02*
X213279000Y-43920000D01*
X215099000Y-44150000D02*
X220874000Y-44150000D01*
X215099000Y-46690000D02*
X220874000Y-46690000D01*
X214604000Y-47185000D02*
X215099000Y-46690000D01*
D22*
X220874000Y-46690000D02*
X221104000Y-46460000D01*
D23*
X214004000Y-47185000D02*
X214604000Y-47185000D01*
X213279000Y-46460000D02*
X214004000Y-47185000D01*
X213124000Y-46460000D02*
X213279000Y-46460000D01*
X212929000Y-46460000D02*
X213124000Y-46460000D01*
X215099000Y-54310000D02*
X220874000Y-54310000D01*
D22*
X214770100Y-55130000D02*
X215799700Y-55130000D01*
D23*
X214445100Y-54805000D02*
X214604000Y-54805000D01*
X213124000Y-54080000D02*
X213279000Y-54080000D01*
X214004000Y-54805000D02*
X214445100Y-54805000D01*
D22*
X214445100Y-54805000D02*
X214770100Y-55130000D01*
D23*
X213279000Y-54080000D02*
X214004000Y-54805000D01*
X218457000Y-79008000D02*
X218457000Y-77258000D01*
D22*
X220874000Y-54310000D02*
X221104000Y-54080000D01*
D23*
X214604000Y-54805000D02*
X215099000Y-54310000D01*
X212929000Y-54080000D02*
X213124000Y-54080000D01*
X214445100Y-57345000D02*
X214604000Y-57345000D01*
X214604000Y-57345000D02*
X215099000Y-56850000D01*
X213124000Y-56620000D02*
X213279000Y-56620000D01*
X212929000Y-56620000D02*
X213124000Y-56620000D01*
X214004000Y-57345000D02*
X214445100Y-57345000D01*
X215917000Y-79008000D02*
X215917000Y-77258000D01*
D22*
X214445100Y-57345000D02*
X214855000Y-57754900D01*
X214855000Y-57754900D02*
X215799700Y-57754900D01*
X220874000Y-56850000D02*
X221104000Y-56620000D01*
D23*
X213279000Y-56620000D02*
X214004000Y-57345000D01*
X215099000Y-56850000D02*
X220874000Y-56850000D01*
X214004000Y-59885000D02*
X214604000Y-59885000D01*
X213124000Y-59160000D02*
X213279000Y-59160000D01*
X215099000Y-59390000D02*
X220874000Y-59390000D01*
X212929000Y-59160000D02*
X213124000Y-59160000D01*
D22*
X220874000Y-59390000D02*
X221104000Y-59160000D01*
D23*
X213279000Y-59160000D02*
X214004000Y-59885000D01*
X214604000Y-59885000D02*
X215099000Y-59390000D01*
X212929000Y-71860000D02*
X213124000Y-71860000D01*
X214004000Y-72585000D02*
X214604000Y-72585000D01*
D22*
X220874000Y-72090000D02*
X221104000Y-71860000D01*
D23*
X215099000Y-72090000D02*
X220874000Y-72090000D01*
X213279000Y-71860000D02*
X214004000Y-72585000D01*
X213124000Y-71860000D02*
X213279000Y-71860000D01*
X214604000Y-72585000D02*
X215099000Y-72090000D01*
X210084000Y-43920000D02*
X212204000Y-43920000D01*
D22*
X212204000Y-43920000D02*
X212224000Y-43920000D01*
D23*
X225324000Y-43920000D02*
X223204000Y-43920000D01*
D22*
X223204000Y-43920000D02*
X223184000Y-43920000D01*
D23*
X210084000Y-46460000D02*
X212204000Y-46460000D01*
D22*
X212204000Y-46460000D02*
X212224000Y-46460000D01*
D23*
X225324000Y-46460000D02*
X223204000Y-46460000D01*
D22*
X223204000Y-46460000D02*
X223184000Y-46460000D01*
X212204000Y-49000000D02*
X212224000Y-49000000D01*
D23*
X210084000Y-49000000D02*
X212204000Y-49000000D01*
X225324000Y-49000000D02*
X223204000Y-49000000D01*
D22*
X223204000Y-49000000D02*
X223184000Y-49000000D01*
D23*
X210084000Y-51540000D02*
X212204000Y-51540000D01*
D22*
X212204000Y-51540000D02*
X212224000Y-51540000D01*
D23*
X225324000Y-51540000D02*
X223204000Y-51540000D01*
D22*
X223204000Y-51540000D02*
X223184000Y-51540000D01*
D23*
X210084000Y-54080000D02*
X212204000Y-54080000D01*
D22*
X212204000Y-54080000D02*
X212224000Y-54080000D01*
X223204000Y-54080000D02*
X223184000Y-54080000D01*
D23*
X225324000Y-54080000D02*
X223204000Y-54080000D01*
D22*
X212204000Y-56620000D02*
X212224000Y-56620000D01*
D23*
X210084000Y-56620000D02*
X212204000Y-56620000D01*
X225324000Y-56620000D02*
X223204000Y-56620000D01*
D22*
X223204000Y-56620000D02*
X223184000Y-56620000D01*
X212204000Y-59160000D02*
X212224000Y-59160000D01*
D23*
X210084000Y-59160000D02*
X212204000Y-59160000D01*
X225324000Y-59160000D02*
X223204000Y-59160000D01*
D22*
X223204000Y-59160000D02*
X223184000Y-59160000D01*
D23*
X210084000Y-61700000D02*
X212204000Y-61700000D01*
D22*
X212204000Y-61700000D02*
X212224000Y-61700000D01*
D23*
X225324000Y-61700000D02*
X223204000Y-61700000D01*
D22*
X223204000Y-61700000D02*
X223184000Y-61700000D01*
D23*
X210084000Y-64240000D02*
X212204000Y-64240000D01*
D22*
X212204000Y-64240000D02*
X212224000Y-64240000D01*
D23*
X225324000Y-64240000D02*
X223204000Y-64240000D01*
D22*
X223204000Y-64240000D02*
X223184000Y-64240000D01*
D23*
X210084000Y-66780000D02*
X212204000Y-66780000D01*
D22*
X212204000Y-66780000D02*
X212224000Y-66780000D01*
X223204000Y-66780000D02*
X223184000Y-66780000D01*
D23*
X225324000Y-66780000D02*
X223204000Y-66780000D01*
X210084000Y-69320000D02*
X212204000Y-69320000D01*
D22*
X212204000Y-69320000D02*
X212224000Y-69320000D01*
D23*
X225324000Y-69320000D02*
X223204000Y-69320000D01*
D22*
X223204000Y-69320000D02*
X223184000Y-69320000D01*
D23*
X210084000Y-71860000D02*
X212204000Y-71860000D01*
D22*
X212204000Y-71860000D02*
X212224000Y-71860000D01*
X223204000Y-71860000D02*
X223184000Y-71860000D01*
D23*
X225324000Y-71860000D02*
X223204000Y-71860000D01*
M02*
