G04 #@! TF.GenerationSoftware,KiCad,Pcbnew,8.0.8+1*
G04 #@! TF.CreationDate,2025-06-17T15:50:22+00:00*
G04 #@! TF.ProjectId,eggada50,65676761-6461-4353-902e-6b696361645f,0.2*
G04 #@! TF.SameCoordinates,Original*
G04 #@! TF.FileFunction,Copper,L2,Bot*
G04 #@! TF.FilePolarity,Positive*
%FSLAX46Y46*%
G04 Gerber Fmt 4.6, Leading zero omitted, Abs format (unit mm)*
G04 Created by KiCad (PCBNEW 8.0.8+1) date 2025-06-17 15:50:22*
%MOMM*%
%LPD*%
G01*
G04 APERTURE LIST*
G04 #@! TA.AperFunction,SMDPad,CuDef*
%ADD10R,2.550000X2.500000*%
G04 #@! TD*
G04 #@! TA.AperFunction,SMDPad,CuDef*
%ADD11R,1.200000X0.900000*%
G04 #@! TD*
G04 #@! TA.AperFunction,ComponentPad*
%ADD12C,1.700000*%
G04 #@! TD*
G04 #@! TA.AperFunction,ComponentPad*
%ADD13C,0.800000*%
G04 #@! TD*
G04 #@! TA.AperFunction,SMDPad,CuDef*
%ADD14R,0.600000X1.200000*%
G04 #@! TD*
G04 #@! TA.AperFunction,SMDPad,CuDef*
%ADD15R,1.200000X0.600000*%
G04 #@! TD*
G04 #@! TA.AperFunction,ComponentPad*
%ADD16O,1.700000X1.700000*%
G04 #@! TD*
G04 #@! TA.AperFunction,ComponentPad*
%ADD17O,2.200000X1.600000*%
G04 #@! TD*
G04 #@! TA.AperFunction,ComponentPad*
%ADD18O,3.300000X1.600000*%
G04 #@! TD*
G04 #@! TA.AperFunction,SMDPad,CuDef*
%ADD19R,1.400000X1.000000*%
G04 #@! TD*
G04 #@! TA.AperFunction,ViaPad*
%ADD20C,0.560000*%
G04 #@! TD*
G04 #@! TA.AperFunction,Conductor*
%ADD21C,0.250000*%
G04 #@! TD*
G04 #@! TA.AperFunction,Conductor*
%ADD22C,0.150000*%
G04 #@! TD*
G04 APERTURE END LIST*
D10*
X92915000Y-97460000D03*
X105842000Y-94920000D03*
X92915000Y-78460000D03*
X105842000Y-75920000D03*
X92915000Y-59460000D03*
X105842000Y-56920000D03*
X92915000Y-40460000D03*
X105842000Y-37920000D03*
X111915000Y-95085000D03*
X124842000Y-92545000D03*
X111915000Y-76085000D03*
X124842000Y-73545000D03*
X111915000Y-57085000D03*
X124842000Y-54545000D03*
X111915000Y-38085000D03*
X124842000Y-35545000D03*
X130915000Y-97460000D03*
X143842000Y-94920000D03*
X130915000Y-78460000D03*
X143842000Y-75920000D03*
X130915000Y-59460000D03*
X143842000Y-56920000D03*
X130915000Y-40460000D03*
X143842000Y-37920000D03*
X149915000Y-95085000D03*
X162842000Y-92545000D03*
X149915000Y-76085000D03*
X162842000Y-73545000D03*
X149915000Y-57085000D03*
X162842000Y-54545000D03*
X149915000Y-38085000D03*
X162842000Y-35545000D03*
X168915000Y-97460000D03*
X181842000Y-94920000D03*
X168915000Y-78460000D03*
X181842000Y-75920000D03*
X168915000Y-59460000D03*
X181842000Y-56920000D03*
X168915000Y-40460000D03*
X181842000Y-37920000D03*
X187915000Y-80835000D03*
X200842000Y-78295000D03*
X187915000Y-61835000D03*
X200842000Y-59295000D03*
X187915000Y-42835000D03*
X200842000Y-40295000D03*
G04 #@! TA.AperFunction,SMDPad,CuDef*
G36*
X192552827Y-115334972D02*
G01*
X190387763Y-114084972D01*
X191662763Y-111876608D01*
X193827827Y-113126608D01*
X192552827Y-115334972D01*
G37*
G04 #@! TD.AperFunction*
G04 #@! TA.AperFunction,SMDPad,CuDef*
G36*
X196816623Y-102869862D02*
G01*
X194651559Y-101619862D01*
X195926559Y-99411498D01*
X198091623Y-100661498D01*
X196816623Y-102869862D01*
G37*
G04 #@! TD.AperFunction*
G04 #@! TA.AperFunction,SMDPad,CuDef*
G36*
X209007310Y-124834972D02*
G01*
X206842246Y-123584972D01*
X208117246Y-121376608D01*
X210282310Y-122626608D01*
X209007310Y-124834972D01*
G37*
G04 #@! TD.AperFunction*
G04 #@! TA.AperFunction,SMDPad,CuDef*
G36*
X213271106Y-112369862D02*
G01*
X211106042Y-111119862D01*
X212381042Y-108911498D01*
X214546106Y-110161498D01*
X213271106Y-112369862D01*
G37*
G04 #@! TD.AperFunction*
D11*
X107400000Y-97025000D03*
X107400000Y-100325000D03*
X107400000Y-78025000D03*
X107400000Y-81325000D03*
X107400000Y-59025000D03*
X107400000Y-62325000D03*
X107400000Y-40025000D03*
X107400000Y-43325000D03*
X126400000Y-94650000D03*
X126400000Y-97950000D03*
X126400000Y-75650000D03*
X126400000Y-78950000D03*
X126400000Y-56650000D03*
X126400000Y-59950000D03*
X126400000Y-37650000D03*
X126400000Y-40950000D03*
X145400000Y-97025000D03*
X145400000Y-100325000D03*
X145400000Y-78025000D03*
X145400000Y-81325000D03*
X145400000Y-59025000D03*
X145400000Y-62325000D03*
X145400000Y-40025000D03*
X145400000Y-43325000D03*
X164400000Y-94650000D03*
X164400000Y-97950000D03*
X164400000Y-75650000D03*
X164400000Y-78950000D03*
X164400000Y-56650000D03*
X164400000Y-59950000D03*
X164400000Y-37650000D03*
X164400000Y-40950000D03*
X183400000Y-97025000D03*
X183400000Y-100325000D03*
X183400000Y-78025000D03*
X183400000Y-81325000D03*
X183400000Y-59025000D03*
X183400000Y-62325000D03*
X183400000Y-40025000D03*
X183400000Y-43325000D03*
X202400000Y-80400000D03*
X202400000Y-83700000D03*
X202400000Y-61400000D03*
X202400000Y-64700000D03*
X202400000Y-42400000D03*
X202400000Y-45700000D03*
G04 #@! TA.AperFunction,SMDPad,CuDef*
G36*
X199663285Y-100549297D02*
G01*
X199063285Y-101588527D01*
X198283863Y-101138527D01*
X198883863Y-100099297D01*
X199663285Y-100549297D01*
G37*
G04 #@! TD.AperFunction*
G04 #@! TA.AperFunction,SMDPad,CuDef*
G36*
X202521169Y-102199297D02*
G01*
X201921169Y-103238527D01*
X201141747Y-102788527D01*
X201741747Y-101749297D01*
X202521169Y-102199297D01*
G37*
G04 #@! TD.AperFunction*
G04 #@! TA.AperFunction,SMDPad,CuDef*
G36*
X216117768Y-110049297D02*
G01*
X215517768Y-111088527D01*
X214738346Y-110638527D01*
X215338346Y-109599297D01*
X216117768Y-110049297D01*
G37*
G04 #@! TD.AperFunction*
G04 #@! TA.AperFunction,SMDPad,CuDef*
G36*
X218975652Y-111699297D02*
G01*
X218375652Y-112738527D01*
X217596230Y-112288527D01*
X218196230Y-111249297D01*
X218975652Y-111699297D01*
G37*
G04 #@! TD.AperFunction*
D12*
X210084000Y-43920000D03*
X225324000Y-43920000D03*
D13*
X214304000Y-43920000D03*
X221104000Y-43920000D03*
D14*
X212224000Y-43920000D03*
X213124000Y-43920000D03*
X222284000Y-43920000D03*
X223184000Y-43920000D03*
D12*
X210084000Y-46460000D03*
X225324000Y-46460000D03*
D13*
X214304000Y-46460000D03*
X221104000Y-46460000D03*
D14*
X212224000Y-46460000D03*
X213124000Y-46460000D03*
X222284000Y-46460000D03*
X223184000Y-46460000D03*
D12*
X210084000Y-49000000D03*
X225324000Y-49000000D03*
D13*
X214304000Y-49000000D03*
X221104000Y-49000000D03*
D14*
X212224000Y-49000000D03*
X213124000Y-49000000D03*
X222284000Y-49000000D03*
X223184000Y-49000000D03*
D12*
X210084000Y-51540000D03*
X225324000Y-51540000D03*
D13*
X214304000Y-51540000D03*
X221104000Y-51540000D03*
D14*
X212224000Y-51540000D03*
X213124000Y-51540000D03*
X222284000Y-51540000D03*
X223184000Y-51540000D03*
D12*
X210084000Y-54080000D03*
X225324000Y-54080000D03*
D13*
X214304000Y-54080000D03*
X221104000Y-54080000D03*
D14*
X212224000Y-54080000D03*
X213124000Y-54080000D03*
X222284000Y-54080000D03*
X223184000Y-54080000D03*
D12*
X210084000Y-56620000D03*
X225324000Y-56620000D03*
D13*
X214304000Y-56620000D03*
X221104000Y-56620000D03*
D14*
X212224000Y-56620000D03*
X213124000Y-56620000D03*
X222284000Y-56620000D03*
X223184000Y-56620000D03*
D12*
X210084000Y-59160000D03*
X225324000Y-59160000D03*
D13*
X214304000Y-59160000D03*
X221104000Y-59160000D03*
D14*
X212224000Y-59160000D03*
X213124000Y-59160000D03*
X222284000Y-59160000D03*
X223184000Y-59160000D03*
D12*
X210084000Y-61700000D03*
X225324000Y-61700000D03*
D13*
X214304000Y-61700000D03*
X221104000Y-61700000D03*
D14*
X212224000Y-61700000D03*
X213124000Y-61700000D03*
X222284000Y-61700000D03*
X223184000Y-61700000D03*
D12*
X210084000Y-64240000D03*
X225324000Y-64240000D03*
D13*
X214304000Y-64240000D03*
X221104000Y-64240000D03*
D14*
X212224000Y-64240000D03*
X213124000Y-64240000D03*
X222284000Y-64240000D03*
X223184000Y-64240000D03*
D12*
X210084000Y-66780000D03*
X225324000Y-66780000D03*
D13*
X214304000Y-66780000D03*
X221104000Y-66780000D03*
D14*
X212224000Y-66780000D03*
X213124000Y-66780000D03*
X222284000Y-66780000D03*
X223184000Y-66780000D03*
D12*
X210084000Y-69320000D03*
X225324000Y-69320000D03*
D13*
X214304000Y-69320000D03*
X221104000Y-69320000D03*
D14*
X212224000Y-69320000D03*
X213124000Y-69320000D03*
X222284000Y-69320000D03*
X223184000Y-69320000D03*
D12*
X210084000Y-71860000D03*
X225324000Y-71860000D03*
D13*
X214304000Y-71860000D03*
X221104000Y-71860000D03*
D14*
X212224000Y-71860000D03*
X213124000Y-71860000D03*
X222284000Y-71860000D03*
X223184000Y-71860000D03*
D15*
X218457000Y-76358000D03*
X215917000Y-76358000D03*
X213377000Y-76358000D03*
X210837000Y-76358000D03*
X218457000Y-77258000D03*
X215917000Y-77258000D03*
X213377000Y-77258000D03*
X210837000Y-77258000D03*
D16*
X210837000Y-79008000D03*
X213377000Y-79008000D03*
X215917000Y-79008000D03*
X218457000Y-79008000D03*
D12*
X222350000Y-81751000D03*
X222350000Y-75251000D03*
D17*
X220910000Y-86260000D03*
X217910000Y-86260000D03*
D18*
X213360000Y-86260000D03*
D17*
X220910000Y-90860000D03*
X217910000Y-90860000D03*
D18*
X213360000Y-90860000D03*
D19*
X97300000Y-105450000D03*
X97300000Y-104050000D03*
X102700000Y-105450000D03*
X102700000Y-104050000D03*
X97300000Y-86450000D03*
X97300000Y-85050000D03*
X102700000Y-86450000D03*
X102700000Y-85050000D03*
X97300000Y-67450000D03*
X97300000Y-66050000D03*
X102700000Y-67450000D03*
X102700000Y-66050000D03*
X97300000Y-48450000D03*
X97300000Y-47050000D03*
X102700000Y-48450000D03*
X102700000Y-47050000D03*
X116300000Y-103075000D03*
X116300000Y-101675000D03*
X121700000Y-103075000D03*
X121700000Y-101675000D03*
X116300000Y-84075000D03*
X116300000Y-82675000D03*
X121700000Y-84075000D03*
X121700000Y-82675000D03*
X116300000Y-65075000D03*
X116300000Y-63675000D03*
X121700000Y-65075000D03*
X121700000Y-63675000D03*
X116300000Y-46075000D03*
X116300000Y-44675000D03*
X121700000Y-46075000D03*
X121700000Y-44675000D03*
X135300000Y-105450000D03*
X135300000Y-104050000D03*
X140700000Y-105450000D03*
X140700000Y-104050000D03*
X135300000Y-86450000D03*
X135300000Y-85050000D03*
X140700000Y-86450000D03*
X140700000Y-85050000D03*
X135300000Y-67450000D03*
X135300000Y-66050000D03*
X140700000Y-67450000D03*
X140700000Y-66050000D03*
X135300000Y-48450000D03*
X135300000Y-47050000D03*
X140700000Y-48450000D03*
X140700000Y-47050000D03*
X154300000Y-103075000D03*
X154300000Y-101675000D03*
X159700000Y-103075000D03*
X159700000Y-101675000D03*
X154300000Y-84075000D03*
X154300000Y-82675000D03*
X159700000Y-84075000D03*
X159700000Y-82675000D03*
X154300000Y-65075000D03*
X154300000Y-63675000D03*
X159700000Y-65075000D03*
X159700000Y-63675000D03*
X154300000Y-46075000D03*
X154300000Y-44675000D03*
X159700000Y-46075000D03*
X159700000Y-44675000D03*
X173300000Y-105450000D03*
X173300000Y-104050000D03*
X178700000Y-105450000D03*
X178700000Y-104050000D03*
X173300000Y-86450000D03*
X173300000Y-85050000D03*
X178700000Y-86450000D03*
X178700000Y-85050000D03*
X173300000Y-67450000D03*
X173300000Y-66050000D03*
X178700000Y-67450000D03*
X178700000Y-66050000D03*
X173300000Y-48450000D03*
X173300000Y-47050000D03*
X178700000Y-48450000D03*
X178700000Y-47050000D03*
X192300000Y-88825000D03*
X192300000Y-87425000D03*
X197700000Y-88825000D03*
X197700000Y-87425000D03*
X192300000Y-69825000D03*
X192300000Y-68425000D03*
X197700000Y-69825000D03*
X197700000Y-68425000D03*
X192300000Y-50825000D03*
X192300000Y-49425000D03*
X197700000Y-50825000D03*
X197700000Y-49425000D03*
G04 #@! TA.AperFunction,SMDPad,CuDef*
G36*
X201136826Y-112947051D02*
G01*
X202002852Y-113447051D01*
X201302852Y-114659487D01*
X200436826Y-114159487D01*
X201136826Y-112947051D01*
G37*
G04 #@! TD.AperFunction*
G04 #@! TA.AperFunction,SMDPad,CuDef*
G36*
X199924390Y-112247051D02*
G01*
X200790416Y-112747051D01*
X200090416Y-113959487D01*
X199224390Y-113459487D01*
X199924390Y-112247051D01*
G37*
G04 #@! TD.AperFunction*
G04 #@! TA.AperFunction,SMDPad,CuDef*
G36*
X203836826Y-108270513D02*
G01*
X204702852Y-108770513D01*
X204002852Y-109982949D01*
X203136826Y-109482949D01*
X203836826Y-108270513D01*
G37*
G04 #@! TD.AperFunction*
G04 #@! TA.AperFunction,SMDPad,CuDef*
G36*
X202624390Y-107570513D02*
G01*
X203490416Y-108070513D01*
X202790416Y-109282949D01*
X201924390Y-108782949D01*
X202624390Y-107570513D01*
G37*
G04 #@! TD.AperFunction*
G04 #@! TA.AperFunction,SMDPad,CuDef*
G36*
X217591308Y-122447051D02*
G01*
X218457334Y-122947051D01*
X217757334Y-124159487D01*
X216891308Y-123659487D01*
X217591308Y-122447051D01*
G37*
G04 #@! TD.AperFunction*
G04 #@! TA.AperFunction,SMDPad,CuDef*
G36*
X216378872Y-121747051D02*
G01*
X217244898Y-122247051D01*
X216544898Y-123459487D01*
X215678872Y-122959487D01*
X216378872Y-121747051D01*
G37*
G04 #@! TD.AperFunction*
G04 #@! TA.AperFunction,SMDPad,CuDef*
G36*
X220291308Y-117770513D02*
G01*
X221157334Y-118270513D01*
X220457334Y-119482949D01*
X219591308Y-118982949D01*
X220291308Y-117770513D01*
G37*
G04 #@! TD.AperFunction*
G04 #@! TA.AperFunction,SMDPad,CuDef*
G36*
X219078872Y-117070513D02*
G01*
X219944898Y-117570513D01*
X219244898Y-118782949D01*
X218378872Y-118282949D01*
X219078872Y-117070513D01*
G37*
G04 #@! TD.AperFunction*
D20*
X95940000Y-104050000D03*
X95050000Y-105450000D03*
X104060000Y-104050000D03*
X104950000Y-105450000D03*
X95940000Y-85050000D03*
X95050000Y-86450000D03*
X104060000Y-85050000D03*
X104950000Y-86450000D03*
X95940000Y-66050000D03*
X95050000Y-67450000D03*
X104060000Y-66050000D03*
X104950000Y-67450000D03*
X95940000Y-47050000D03*
X95050000Y-48450000D03*
X104060000Y-47050000D03*
X104950000Y-48450000D03*
X114940000Y-101675000D03*
X114050000Y-103075000D03*
X123060000Y-101675000D03*
X123950000Y-103075000D03*
X114940000Y-82675000D03*
X114050000Y-84075000D03*
X123060000Y-82675000D03*
X123950000Y-84075000D03*
X114940000Y-63675000D03*
X114050000Y-65075000D03*
X123060000Y-63675000D03*
X123950000Y-65075000D03*
X114940000Y-44675000D03*
X114050000Y-46075000D03*
X123060000Y-44675000D03*
X123950000Y-46075000D03*
X133940000Y-104050000D03*
X133050000Y-105450000D03*
X142060000Y-104050000D03*
X142950000Y-105450000D03*
X133940000Y-85050000D03*
X133050000Y-86450000D03*
X142060000Y-85050000D03*
X142950000Y-86450000D03*
X133940000Y-66050000D03*
X133050000Y-67450000D03*
X142060000Y-66050000D03*
X142950000Y-67450000D03*
X133940000Y-47050000D03*
X133050000Y-48450000D03*
X142060000Y-47050000D03*
X142950000Y-48450000D03*
X152940000Y-101675000D03*
X152050000Y-103075000D03*
X161060000Y-101675000D03*
X161950000Y-103075000D03*
X152940000Y-82675000D03*
X152050000Y-84075000D03*
X161060000Y-82675000D03*
X161950000Y-84075000D03*
X152940000Y-63675000D03*
X152050000Y-65075000D03*
X161060000Y-63675000D03*
X161950000Y-65075000D03*
X152940000Y-44675000D03*
X152050000Y-46075000D03*
X161060000Y-44675000D03*
X161950000Y-46075000D03*
X171940000Y-104050000D03*
X171050000Y-105450000D03*
X180060000Y-104050000D03*
X180950000Y-105450000D03*
X171940000Y-85050000D03*
X171050000Y-86450000D03*
X180060000Y-85050000D03*
X180950000Y-86450000D03*
X171940000Y-66050000D03*
X171050000Y-67450000D03*
X180060000Y-66050000D03*
X180950000Y-67450000D03*
X171940000Y-47050000D03*
X171050000Y-48450000D03*
X180060000Y-47050000D03*
X180950000Y-48450000D03*
X190940000Y-87425000D03*
X190050000Y-88825000D03*
X199060000Y-87425000D03*
X199950000Y-88825000D03*
X190940000Y-68425000D03*
X190050000Y-69825000D03*
X199060000Y-68425000D03*
X199950000Y-69825000D03*
X190940000Y-49425000D03*
X190050000Y-50825000D03*
X199060000Y-49425000D03*
X199950000Y-50825000D03*
X199327403Y-114281063D03*
X200094839Y-115751826D03*
X203387403Y-107248937D03*
X205044839Y-107178174D03*
X215781886Y-123781063D03*
X216549321Y-125251826D03*
X219841886Y-116748937D03*
X221499321Y-116678174D03*
D21*
X210084000Y-43920000D02*
X212204000Y-43920000D01*
X225324000Y-43920000D02*
X223204000Y-43920000D01*
X215099305Y-44150000D02*
X220874000Y-44150000D01*
X212929000Y-43920000D02*
X213278695Y-43920000D01*
X214003695Y-44645000D02*
X214604305Y-44645000D01*
X213278695Y-43920000D02*
X214003695Y-44645000D01*
X214604305Y-44645000D02*
X215099305Y-44150000D01*
X222479000Y-43920000D02*
X222129305Y-43920000D01*
X220298695Y-43700000D02*
X214524000Y-43700000D01*
X222129305Y-43920000D02*
X221404305Y-43195000D01*
X221404305Y-43195000D02*
X220803695Y-43195000D01*
X220803695Y-43195000D02*
X220298695Y-43700000D01*
X210084000Y-46460000D02*
X212204000Y-46460000D01*
X225324000Y-46460000D02*
X223204000Y-46460000D01*
X215099305Y-46690000D02*
X220874000Y-46690000D01*
X212929000Y-46460000D02*
X213278695Y-46460000D01*
X214003695Y-47185000D02*
X214604305Y-47185000D01*
X213278695Y-46460000D02*
X214003695Y-47185000D01*
X214604305Y-47185000D02*
X215099305Y-46690000D01*
X222479000Y-46460000D02*
X222129305Y-46460000D01*
X220298695Y-46240000D02*
X214524000Y-46240000D01*
X222129305Y-46460000D02*
X221404305Y-45735000D01*
X221404305Y-45735000D02*
X220803695Y-45735000D01*
X220803695Y-45735000D02*
X220298695Y-46240000D01*
X210084000Y-49000000D02*
X212204000Y-49000000D01*
X225324000Y-49000000D02*
X223204000Y-49000000D01*
X215099305Y-49230000D02*
X220874000Y-49230000D01*
X212929000Y-49000000D02*
X213278695Y-49000000D01*
X214003695Y-49725000D02*
X214604305Y-49725000D01*
X213278695Y-49000000D02*
X214003695Y-49725000D01*
X214604305Y-49725000D02*
X215099305Y-49230000D01*
X222479000Y-49000000D02*
X222129305Y-49000000D01*
X220298695Y-48780000D02*
X214524000Y-48780000D01*
X222129305Y-49000000D02*
X221404305Y-48275000D01*
X221404305Y-48275000D02*
X220803695Y-48275000D01*
X220803695Y-48275000D02*
X220298695Y-48780000D01*
X210084000Y-51540000D02*
X212204000Y-51540000D01*
X225324000Y-51540000D02*
X223204000Y-51540000D01*
X215099305Y-51770000D02*
X220874000Y-51770000D01*
X212929000Y-51540000D02*
X213278695Y-51540000D01*
X214003695Y-52265000D02*
X214604305Y-52265000D01*
X213278695Y-51540000D02*
X214003695Y-52265000D01*
X214604305Y-52265000D02*
X215099305Y-51770000D01*
X222479000Y-51540000D02*
X222129305Y-51540000D01*
X220298695Y-51320000D02*
X214524000Y-51320000D01*
X222129305Y-51540000D02*
X221404305Y-50815000D01*
X221404305Y-50815000D02*
X220803695Y-50815000D01*
X220803695Y-50815000D02*
X220298695Y-51320000D01*
X210084000Y-54080000D02*
X212204000Y-54080000D01*
X225324000Y-54080000D02*
X223204000Y-54080000D01*
X215099305Y-54310000D02*
X220874000Y-54310000D01*
X212929000Y-54080000D02*
X213278695Y-54080000D01*
X214003695Y-54805000D02*
X214604305Y-54805000D01*
X213278695Y-54080000D02*
X214003695Y-54805000D01*
X214604305Y-54805000D02*
X215099305Y-54310000D01*
X222479000Y-54080000D02*
X222129305Y-54080000D01*
X220298695Y-53860000D02*
X214524000Y-53860000D01*
X222129305Y-54080000D02*
X221404305Y-53355000D01*
X221404305Y-53355000D02*
X220803695Y-53355000D01*
X220803695Y-53355000D02*
X220298695Y-53860000D01*
X210084000Y-56620000D02*
X212204000Y-56620000D01*
X225324000Y-56620000D02*
X223204000Y-56620000D01*
X215099305Y-56850000D02*
X220874000Y-56850000D01*
X212929000Y-56620000D02*
X213278695Y-56620000D01*
X214003695Y-57345000D02*
X214604305Y-57345000D01*
X213278695Y-56620000D02*
X214003695Y-57345000D01*
X214604305Y-57345000D02*
X215099305Y-56850000D01*
X222479000Y-56620000D02*
X222129305Y-56620000D01*
X220298695Y-56400000D02*
X214524000Y-56400000D01*
X222129305Y-56620000D02*
X221404305Y-55895000D01*
X221404305Y-55895000D02*
X220803695Y-55895000D01*
X220803695Y-55895000D02*
X220298695Y-56400000D01*
X210084000Y-59160000D02*
X212204000Y-59160000D01*
X225324000Y-59160000D02*
X223204000Y-59160000D01*
X215099305Y-59390000D02*
X220874000Y-59390000D01*
X212929000Y-59160000D02*
X213278695Y-59160000D01*
X214003695Y-59885000D02*
X214604305Y-59885000D01*
X213278695Y-59160000D02*
X214003695Y-59885000D01*
X214604305Y-59885000D02*
X215099305Y-59390000D01*
X222479000Y-59160000D02*
X222129305Y-59160000D01*
X220298695Y-58940000D02*
X214524000Y-58940000D01*
X222129305Y-59160000D02*
X221404305Y-58435000D01*
X221404305Y-58435000D02*
X220803695Y-58435000D01*
X220803695Y-58435000D02*
X220298695Y-58940000D01*
X210084000Y-61700000D02*
X212204000Y-61700000D01*
X225324000Y-61700000D02*
X223204000Y-61700000D01*
X215099305Y-61930000D02*
X220874000Y-61930000D01*
X212929000Y-61700000D02*
X213278695Y-61700000D01*
X214003695Y-62425000D02*
X214604305Y-62425000D01*
X213278695Y-61700000D02*
X214003695Y-62425000D01*
X214604305Y-62425000D02*
X215099305Y-61930000D01*
X222479000Y-61700000D02*
X222129305Y-61700000D01*
X220298695Y-61480000D02*
X214524000Y-61480000D01*
X222129305Y-61700000D02*
X221404305Y-60975000D01*
X221404305Y-60975000D02*
X220803695Y-60975000D01*
X220803695Y-60975000D02*
X220298695Y-61480000D01*
X210084000Y-64240000D02*
X212204000Y-64240000D01*
X225324000Y-64240000D02*
X223204000Y-64240000D01*
X215099305Y-64470000D02*
X220874000Y-64470000D01*
X212929000Y-64240000D02*
X213278695Y-64240000D01*
X214003695Y-64965000D02*
X214604305Y-64965000D01*
X213278695Y-64240000D02*
X214003695Y-64965000D01*
X214604305Y-64965000D02*
X215099305Y-64470000D01*
X222479000Y-64240000D02*
X222129305Y-64240000D01*
X220298695Y-64020000D02*
X214524000Y-64020000D01*
X222129305Y-64240000D02*
X221404305Y-63515000D01*
X221404305Y-63515000D02*
X220803695Y-63515000D01*
X220803695Y-63515000D02*
X220298695Y-64020000D01*
X210084000Y-66780000D02*
X212204000Y-66780000D01*
X225324000Y-66780000D02*
X223204000Y-66780000D01*
X215099305Y-67010000D02*
X220874000Y-67010000D01*
X212929000Y-66780000D02*
X213278695Y-66780000D01*
X214003695Y-67505000D02*
X214604305Y-67505000D01*
X213278695Y-66780000D02*
X214003695Y-67505000D01*
X214604305Y-67505000D02*
X215099305Y-67010000D01*
X222479000Y-66780000D02*
X222129305Y-66780000D01*
X220298695Y-66560000D02*
X214524000Y-66560000D01*
X222129305Y-66780000D02*
X221404305Y-66055000D01*
X221404305Y-66055000D02*
X220803695Y-66055000D01*
X220803695Y-66055000D02*
X220298695Y-66560000D01*
X210084000Y-69320000D02*
X212204000Y-69320000D01*
X225324000Y-69320000D02*
X223204000Y-69320000D01*
X215099305Y-69550000D02*
X220874000Y-69550000D01*
X212929000Y-69320000D02*
X213278695Y-69320000D01*
X214003695Y-70045000D02*
X214604305Y-70045000D01*
X213278695Y-69320000D02*
X214003695Y-70045000D01*
X214604305Y-70045000D02*
X215099305Y-69550000D01*
X222479000Y-69320000D02*
X222129305Y-69320000D01*
X220298695Y-69100000D02*
X214524000Y-69100000D01*
X222129305Y-69320000D02*
X221404305Y-68595000D01*
X221404305Y-68595000D02*
X220803695Y-68595000D01*
X220803695Y-68595000D02*
X220298695Y-69100000D01*
X210084000Y-71860000D02*
X212204000Y-71860000D01*
X225324000Y-71860000D02*
X223204000Y-71860000D01*
X215099305Y-72090000D02*
X220874000Y-72090000D01*
X212929000Y-71860000D02*
X213278695Y-71860000D01*
X214003695Y-72585000D02*
X214604305Y-72585000D01*
X213278695Y-71860000D02*
X214003695Y-72585000D01*
X214604305Y-72585000D02*
X215099305Y-72090000D01*
X222479000Y-71860000D02*
X222129305Y-71860000D01*
X220298695Y-71640000D02*
X214524000Y-71640000D01*
X222129305Y-71860000D02*
X221404305Y-71135000D01*
X221404305Y-71135000D02*
X220803695Y-71135000D01*
X220803695Y-71135000D02*
X220298695Y-71640000D01*
X210837000Y-79008000D02*
X210837000Y-77258000D01*
X213377000Y-79008000D02*
X213377000Y-77258000D01*
X215917000Y-79008000D02*
X215917000Y-77258000D01*
X218457000Y-79008000D02*
X218457000Y-77258000D01*
X97300000Y-104050000D02*
X95940000Y-104050000D01*
D22*
X95050000Y-105450000D02*
X97300000Y-105450000D01*
D21*
X103400000Y-105450000D02*
X104060000Y-104855916D01*
X104060000Y-104855916D02*
X104060000Y-104050000D01*
X102700000Y-105450000D02*
X103400000Y-105450000D01*
D22*
X102700000Y-104050000D02*
X103481000Y-103265000D01*
X103481000Y-103265000D02*
X104529000Y-103265000D01*
X104950000Y-103690000D02*
X104950000Y-105450000D01*
X104529000Y-103265000D02*
X104950000Y-103690000D01*
D21*
X97300000Y-85050000D02*
X95940000Y-85050000D01*
D22*
X95050000Y-86450000D02*
X97300000Y-86450000D01*
D21*
X103400000Y-86450000D02*
X104060000Y-85855916D01*
X104060000Y-85855916D02*
X104060000Y-85050000D01*
X102700000Y-86450000D02*
X103400000Y-86450000D01*
D22*
X102700000Y-85050000D02*
X103481000Y-84265000D01*
X103481000Y-84265000D02*
X104529000Y-84265000D01*
X104950000Y-84690000D02*
X104950000Y-86450000D01*
X104529000Y-84265000D02*
X104950000Y-84690000D01*
D21*
X97300000Y-66050000D02*
X95940000Y-66050000D01*
D22*
X95050000Y-67450000D02*
X97300000Y-67450000D01*
D21*
X103400000Y-67450000D02*
X104060000Y-66855916D01*
X104060000Y-66855916D02*
X104060000Y-66050000D01*
X102700000Y-67450000D02*
X103400000Y-67450000D01*
D22*
X102700000Y-66050000D02*
X103481000Y-65265000D01*
X103481000Y-65265000D02*
X104529000Y-65265000D01*
X104950000Y-65690000D02*
X104950000Y-67450000D01*
X104529000Y-65265000D02*
X104950000Y-65690000D01*
D21*
X97300000Y-47050000D02*
X95940000Y-47050000D01*
D22*
X95050000Y-48450000D02*
X97300000Y-48450000D01*
D21*
X103400000Y-48450000D02*
X104060000Y-47855916D01*
X104060000Y-47855916D02*
X104060000Y-47050000D01*
X102700000Y-48450000D02*
X103400000Y-48450000D01*
D22*
X102700000Y-47050000D02*
X103481000Y-46265000D01*
X103481000Y-46265000D02*
X104529000Y-46265000D01*
X104950000Y-46690000D02*
X104950000Y-48450000D01*
X104529000Y-46265000D02*
X104950000Y-46690000D01*
D21*
X116300000Y-101675000D02*
X114940000Y-101675000D01*
D22*
X114050000Y-103075000D02*
X116300000Y-103075000D01*
D21*
X122400000Y-103075000D02*
X123060000Y-102480916D01*
X123060000Y-102480916D02*
X123060000Y-101675000D01*
X121700000Y-103075000D02*
X122400000Y-103075000D01*
D22*
X121700000Y-101675000D02*
X122481000Y-100890000D01*
X122481000Y-100890000D02*
X123529000Y-100890000D01*
X123950000Y-101315000D02*
X123950000Y-103075000D01*
X123529000Y-100890000D02*
X123950000Y-101315000D01*
D21*
X116300000Y-82675000D02*
X114940000Y-82675000D01*
D22*
X114050000Y-84075000D02*
X116300000Y-84075000D01*
D21*
X122400000Y-84075000D02*
X123060000Y-83480916D01*
X123060000Y-83480916D02*
X123060000Y-82675000D01*
X121700000Y-84075000D02*
X122400000Y-84075000D01*
D22*
X121700000Y-82675000D02*
X122481000Y-81890000D01*
X122481000Y-81890000D02*
X123529000Y-81890000D01*
X123950000Y-82315000D02*
X123950000Y-84075000D01*
X123529000Y-81890000D02*
X123950000Y-82315000D01*
D21*
X116300000Y-63675000D02*
X114940000Y-63675000D01*
D22*
X114050000Y-65075000D02*
X116300000Y-65075000D01*
D21*
X122400000Y-65075000D02*
X123060000Y-64480916D01*
X123060000Y-64480916D02*
X123060000Y-63675000D01*
X121700000Y-65075000D02*
X122400000Y-65075000D01*
D22*
X121700000Y-63675000D02*
X122481000Y-62890000D01*
X122481000Y-62890000D02*
X123529000Y-62890000D01*
X123950000Y-63315000D02*
X123950000Y-65075000D01*
X123529000Y-62890000D02*
X123950000Y-63315000D01*
D21*
X116300000Y-44675000D02*
X114940000Y-44675000D01*
D22*
X114050000Y-46075000D02*
X116300000Y-46075000D01*
D21*
X122400000Y-46075000D02*
X123060000Y-45480916D01*
X123060000Y-45480916D02*
X123060000Y-44675000D01*
X121700000Y-46075000D02*
X122400000Y-46075000D01*
D22*
X121700000Y-44675000D02*
X122481000Y-43890000D01*
X122481000Y-43890000D02*
X123529000Y-43890000D01*
X123950000Y-44315000D02*
X123950000Y-46075000D01*
X123529000Y-43890000D02*
X123950000Y-44315000D01*
D21*
X135300000Y-104050000D02*
X133940000Y-104050000D01*
D22*
X133050000Y-105450000D02*
X135300000Y-105450000D01*
D21*
X141400000Y-105450000D02*
X142060000Y-104855916D01*
X142060000Y-104855916D02*
X142060000Y-104050000D01*
X140700000Y-105450000D02*
X141400000Y-105450000D01*
D22*
X140700000Y-104050000D02*
X141481000Y-103265000D01*
X141481000Y-103265000D02*
X142529000Y-103265000D01*
X142950000Y-103690000D02*
X142950000Y-105450000D01*
X142529000Y-103265000D02*
X142950000Y-103690000D01*
D21*
X135300000Y-85050000D02*
X133940000Y-85050000D01*
D22*
X133050000Y-86450000D02*
X135300000Y-86450000D01*
D21*
X141400000Y-86450000D02*
X142060000Y-85855916D01*
X142060000Y-85855916D02*
X142060000Y-85050000D01*
X140700000Y-86450000D02*
X141400000Y-86450000D01*
D22*
X140700000Y-85050000D02*
X141481000Y-84265000D01*
X141481000Y-84265000D02*
X142529000Y-84265000D01*
X142950000Y-84690000D02*
X142950000Y-86450000D01*
X142529000Y-84265000D02*
X142950000Y-84690000D01*
D21*
X135300000Y-66050000D02*
X133940000Y-66050000D01*
D22*
X133050000Y-67450000D02*
X135300000Y-67450000D01*
D21*
X141400000Y-67450000D02*
X142060000Y-66855916D01*
X142060000Y-66855916D02*
X142060000Y-66050000D01*
X140700000Y-67450000D02*
X141400000Y-67450000D01*
D22*
X140700000Y-66050000D02*
X141481000Y-65265000D01*
X141481000Y-65265000D02*
X142529000Y-65265000D01*
X142950000Y-65690000D02*
X142950000Y-67450000D01*
X142529000Y-65265000D02*
X142950000Y-65690000D01*
D21*
X135300000Y-47050000D02*
X133940000Y-47050000D01*
D22*
X133050000Y-48450000D02*
X135300000Y-48450000D01*
D21*
X141400000Y-48450000D02*
X142060000Y-47855916D01*
X142060000Y-47855916D02*
X142060000Y-47050000D01*
X140700000Y-48450000D02*
X141400000Y-48450000D01*
D22*
X140700000Y-47050000D02*
X141481000Y-46265000D01*
X141481000Y-46265000D02*
X142529000Y-46265000D01*
X142950000Y-46690000D02*
X142950000Y-48450000D01*
X142529000Y-46265000D02*
X142950000Y-46690000D01*
D21*
X154300000Y-101675000D02*
X152940000Y-101675000D01*
D22*
X152050000Y-103075000D02*
X154300000Y-103075000D01*
D21*
X160400000Y-103075000D02*
X161060000Y-102480916D01*
X161060000Y-102480916D02*
X161060000Y-101675000D01*
X159700000Y-103075000D02*
X160400000Y-103075000D01*
D22*
X159700000Y-101675000D02*
X160481000Y-100890000D01*
X160481000Y-100890000D02*
X161529000Y-100890000D01*
X161950000Y-101315000D02*
X161950000Y-103075000D01*
X161529000Y-100890000D02*
X161950000Y-101315000D01*
D21*
X154300000Y-82675000D02*
X152940000Y-82675000D01*
D22*
X152050000Y-84075000D02*
X154300000Y-84075000D01*
D21*
X160400000Y-84075000D02*
X161060000Y-83480916D01*
X161060000Y-83480916D02*
X161060000Y-82675000D01*
X159700000Y-84075000D02*
X160400000Y-84075000D01*
D22*
X159700000Y-82675000D02*
X160481000Y-81890000D01*
X160481000Y-81890000D02*
X161529000Y-81890000D01*
X161950000Y-82315000D02*
X161950000Y-84075000D01*
X161529000Y-81890000D02*
X161950000Y-82315000D01*
D21*
X154300000Y-63675000D02*
X152940000Y-63675000D01*
D22*
X152050000Y-65075000D02*
X154300000Y-65075000D01*
D21*
X160400000Y-65075000D02*
X161060000Y-64480916D01*
X161060000Y-64480916D02*
X161060000Y-63675000D01*
X159700000Y-65075000D02*
X160400000Y-65075000D01*
D22*
X159700000Y-63675000D02*
X160481000Y-62890000D01*
X160481000Y-62890000D02*
X161529000Y-62890000D01*
X161950000Y-63315000D02*
X161950000Y-65075000D01*
X161529000Y-62890000D02*
X161950000Y-63315000D01*
D21*
X154300000Y-44675000D02*
X152940000Y-44675000D01*
D22*
X152050000Y-46075000D02*
X154300000Y-46075000D01*
D21*
X160400000Y-46075000D02*
X161060000Y-45480916D01*
X161060000Y-45480916D02*
X161060000Y-44675000D01*
X159700000Y-46075000D02*
X160400000Y-46075000D01*
D22*
X159700000Y-44675000D02*
X160481000Y-43890000D01*
X160481000Y-43890000D02*
X161529000Y-43890000D01*
X161950000Y-44315000D02*
X161950000Y-46075000D01*
X161529000Y-43890000D02*
X161950000Y-44315000D01*
D21*
X173300000Y-104050000D02*
X171940000Y-104050000D01*
D22*
X171050000Y-105450000D02*
X173300000Y-105450000D01*
D21*
X179400000Y-105450000D02*
X180060000Y-104855916D01*
X180060000Y-104855916D02*
X180060000Y-104050000D01*
X178700000Y-105450000D02*
X179400000Y-105450000D01*
D22*
X178700000Y-104050000D02*
X179481000Y-103265000D01*
X179481000Y-103265000D02*
X180529000Y-103265000D01*
X180950000Y-103690000D02*
X180950000Y-105450000D01*
X180529000Y-103265000D02*
X180950000Y-103690000D01*
D21*
X173300000Y-85050000D02*
X171940000Y-85050000D01*
D22*
X171050000Y-86450000D02*
X173300000Y-86450000D01*
D21*
X179400000Y-86450000D02*
X180060000Y-85855916D01*
X180060000Y-85855916D02*
X180060000Y-85050000D01*
X178700000Y-86450000D02*
X179400000Y-86450000D01*
D22*
X178700000Y-85050000D02*
X179481000Y-84265000D01*
X179481000Y-84265000D02*
X180529000Y-84265000D01*
X180950000Y-84690000D02*
X180950000Y-86450000D01*
X180529000Y-84265000D02*
X180950000Y-84690000D01*
D21*
X173300000Y-66050000D02*
X171940000Y-66050000D01*
D22*
X171050000Y-67450000D02*
X173300000Y-67450000D01*
D21*
X179400000Y-67450000D02*
X180060000Y-66855916D01*
X180060000Y-66855916D02*
X180060000Y-66050000D01*
X178700000Y-67450000D02*
X179400000Y-67450000D01*
D22*
X178700000Y-66050000D02*
X179481000Y-65265000D01*
X179481000Y-65265000D02*
X180529000Y-65265000D01*
X180950000Y-65690000D02*
X180950000Y-67450000D01*
X180529000Y-65265000D02*
X180950000Y-65690000D01*
D21*
X173300000Y-47050000D02*
X171940000Y-47050000D01*
D22*
X171050000Y-48450000D02*
X173300000Y-48450000D01*
D21*
X179400000Y-48450000D02*
X180060000Y-47855916D01*
X180060000Y-47855916D02*
X180060000Y-47050000D01*
X178700000Y-48450000D02*
X179400000Y-48450000D01*
D22*
X178700000Y-47050000D02*
X179481000Y-46265000D01*
X179481000Y-46265000D02*
X180529000Y-46265000D01*
X180950000Y-46690000D02*
X180950000Y-48450000D01*
X180529000Y-46265000D02*
X180950000Y-46690000D01*
D21*
X192300000Y-87425000D02*
X190940000Y-87425000D01*
D22*
X190050000Y-88825000D02*
X192300000Y-88825000D01*
D21*
X198400000Y-88825000D02*
X199060000Y-88230916D01*
X199060000Y-88230916D02*
X199060000Y-87425000D01*
X197700000Y-88825000D02*
X198400000Y-88825000D01*
D22*
X197700000Y-87425000D02*
X198481000Y-86640000D01*
X198481000Y-86640000D02*
X199529000Y-86640000D01*
X199950000Y-87065000D02*
X199950000Y-88825000D01*
X199529000Y-86640000D02*
X199950000Y-87065000D01*
D21*
X192300000Y-68425000D02*
X190940000Y-68425000D01*
D22*
X190050000Y-69825000D02*
X192300000Y-69825000D01*
D21*
X198400000Y-69825000D02*
X199060000Y-69230916D01*
X199060000Y-69230916D02*
X199060000Y-68425000D01*
X197700000Y-69825000D02*
X198400000Y-69825000D01*
D22*
X197700000Y-68425000D02*
X198481000Y-67640000D01*
X198481000Y-67640000D02*
X199529000Y-67640000D01*
X199950000Y-68065000D02*
X199950000Y-69825000D01*
X199529000Y-67640000D02*
X199950000Y-68065000D01*
D21*
X192300000Y-49425000D02*
X190940000Y-49425000D01*
D22*
X190050000Y-50825000D02*
X192300000Y-50825000D01*
D21*
X198400000Y-50825000D02*
X199060000Y-50230916D01*
X199060000Y-50230916D02*
X199060000Y-49425000D01*
X197700000Y-50825000D02*
X198400000Y-50825000D01*
D22*
X197700000Y-49425000D02*
X198481000Y-48640000D01*
X198481000Y-48640000D02*
X199529000Y-48640000D01*
X199950000Y-49065000D02*
X199950000Y-50825000D01*
X199529000Y-48640000D02*
X199950000Y-49065000D01*
D21*
X200007403Y-113103269D02*
X199327403Y-114281063D01*
D22*
X200094839Y-115751826D02*
X201219839Y-113803269D01*
D21*
X204269839Y-108520514D02*
X204085347Y-107651895D01*
X204085347Y-107651895D02*
X203387403Y-107248937D01*
X203919839Y-109126731D02*
X204269839Y-108520514D01*
D22*
X202707403Y-108426731D02*
X202418073Y-107357866D01*
X202418073Y-107357866D02*
X202942073Y-106450271D01*
X203520634Y-106298174D02*
X205044839Y-107178174D01*
X202942073Y-106450271D02*
X203520634Y-106298174D01*
D21*
X216461886Y-122603269D02*
X215781886Y-123781063D01*
D22*
X216549321Y-125251826D02*
X217674321Y-123303269D01*
D21*
X220724321Y-118020514D02*
X220539829Y-117151895D01*
X220539829Y-117151895D02*
X219841886Y-116748937D01*
X220374321Y-118626731D02*
X220724321Y-118020514D01*
D22*
X219161886Y-117926731D02*
X218872556Y-116857866D01*
X218872556Y-116857866D02*
X219396556Y-115950271D01*
X219975117Y-115798174D02*
X221499321Y-116678174D01*
X219396556Y-115950271D02*
X219975117Y-115798174D01*
M02*
