M48
; DRILL file {KiCad 8.0.8+1} date 2025-06-17T15:50:22+0000
; FORMAT={-:-/ absolute / metric / decimal}
; #@! TF.CreationDate,2025-06-17T15:50:22+00:00
; #@! TF.GenerationSoftware,Kicad,Pcbnew,8.0.8+1
; #@! TF.FileFunction,Plated,1,2,PTH
FMAT,2
METRIC
; #@! TA.AperFunction,Plated,PTH,ViaDrill
T1C0.300
; #@! TA.AperFunction,Plated,PTH,ComponentDrill
T2C0.400
; #@! TA.AperFunction,Plated,PTH,ComponentDrill
T3C0.900
; #@! TA.AperFunction,Plated,PTH,ComponentDrill
T4C1.000
%
G90
G05
T1
X95.05Y-48.45
X95.05Y-67.45
X95.05Y-86.45
X95.05Y-105.45
X95.94Y-47.05
X95.94Y-66.05
X95.94Y-85.05
X95.94Y-104.05
X104.06Y-47.05
X104.06Y-66.05
X104.06Y-85.05
X104.06Y-104.05
X104.95Y-48.45
X104.95Y-67.45
X104.95Y-86.45
X104.95Y-105.45
X114.05Y-46.075
X114.05Y-65.075
X114.05Y-84.075
X114.05Y-103.075
X114.94Y-44.675
X114.94Y-63.675
X114.94Y-82.675
X114.94Y-101.675
X123.06Y-44.675
X123.06Y-63.675
X123.06Y-82.675
X123.06Y-101.675
X123.95Y-46.075
X123.95Y-65.075
X123.95Y-84.075
X123.95Y-103.075
X133.05Y-48.45
X133.05Y-67.45
X133.05Y-86.45
X133.05Y-105.45
X133.94Y-47.05
X133.94Y-66.05
X133.94Y-85.05
X133.94Y-104.05
X142.06Y-47.05
X142.06Y-66.05
X142.06Y-85.05
X142.06Y-104.05
X142.95Y-48.45
X142.95Y-67.45
X142.95Y-86.45
X142.95Y-105.45
X152.05Y-46.075
X152.05Y-65.075
X152.05Y-84.075
X152.05Y-103.075
X152.94Y-44.675
X152.94Y-63.675
X152.94Y-82.675
X152.94Y-101.675
X161.06Y-44.675
X161.06Y-63.675
X161.06Y-82.675
X161.06Y-101.675
X161.95Y-46.075
X161.95Y-65.075
X161.95Y-84.075
X161.95Y-103.075
X171.05Y-48.45
X171.05Y-67.45
X171.05Y-86.45
X171.05Y-105.45
X171.94Y-47.05
X171.94Y-66.05
X171.94Y-85.05
X171.94Y-104.05
X180.06Y-47.05
X180.06Y-66.05
X180.06Y-85.05
X180.06Y-104.05
X180.95Y-48.45
X180.95Y-67.45
X180.95Y-86.45
X180.95Y-105.45
X190.05Y-50.825
X190.05Y-69.825
X190.05Y-88.825
X190.94Y-49.425
X190.94Y-68.425
X190.94Y-87.425
X199.06Y-49.425
X199.06Y-68.425
X199.06Y-87.425
X199.327Y-114.281
X199.95Y-50.825
X199.95Y-69.825
X199.95Y-88.825
X200.095Y-115.752
X203.387Y-107.249
X205.045Y-107.178
X215.782Y-123.781
X216.549Y-125.252
X219.842Y-116.749
X221.499Y-116.678
T2
X214.304Y-43.92
X214.304Y-46.46
X214.304Y-49.0
X214.304Y-51.54
X214.304Y-54.08
X214.304Y-56.62
X214.304Y-59.16
X214.304Y-61.7
X214.304Y-64.24
X214.304Y-66.78
X214.304Y-69.32
X214.304Y-71.86
X221.104Y-43.92
X221.104Y-46.46
X221.104Y-49.0
X221.104Y-51.54
X221.104Y-54.08
X221.104Y-56.62
X221.104Y-59.16
X221.104Y-61.7
X221.104Y-64.24
X221.104Y-66.78
X221.104Y-69.32
X221.104Y-71.86
T4
X210.084Y-43.92
X210.084Y-46.46
X210.084Y-49.0
X210.084Y-51.54
X210.084Y-54.08
X210.084Y-56.62
X210.084Y-59.16
X210.084Y-61.7
X210.084Y-64.24
X210.084Y-66.78
X210.084Y-69.32
X210.084Y-71.86
X210.837Y-79.008
X213.377Y-79.008
X215.917Y-79.008
X218.457Y-79.008
X222.35Y-75.251
X222.35Y-81.751
X225.324Y-43.92
X225.324Y-46.46
X225.324Y-49.0
X225.324Y-51.54
X225.324Y-54.08
X225.324Y-56.62
X225.324Y-59.16
X225.324Y-61.7
X225.324Y-64.24
X225.324Y-66.78
X225.324Y-69.32
X225.324Y-71.86
T3
X214.21Y-86.26G85X212.51Y-86.26
G05
X214.21Y-90.86G85X212.51Y-90.86
G05
X218.21Y-86.26G85X217.61Y-86.26
G05
X218.21Y-90.86G85X217.61Y-90.86
G05
X221.21Y-86.26G85X220.61Y-86.26
G05
X221.21Y-90.86G85X220.61Y-90.86
G05
M30
