G04 #@! TF.GenerationSoftware,KiCad,Pcbnew,8.0.8+1*
G04 #@! TF.CreationDate,2025-06-17T15:50:22+00:00*
G04 #@! TF.ProjectId,eggada50,65676761-6461-4353-902e-6b696361645f,0.2*
G04 #@! TF.SameCoordinates,Original*
G04 #@! TF.FileFunction,Profile,NP*
%FSLAX46Y46*%
G04 Gerber Fmt 4.6, Leading zero omitted, Abs format (unit mm)*
G04 Created by KiCad (PCBNEW 8.0.8+1) date 2025-06-17 15:50:22*
%MOMM*%
%LPD*%
G01*
G04 APERTURE LIST*
G04 #@! TA.AperFunction,Profile*
%ADD10C,0.150000*%
G04 #@! TD*
G04 #@! TA.AperFunction,Profile*
%ADD11C,0.120000*%
G04 #@! TD*
G04 APERTURE END LIST*
D10*
X91081987Y-108740013D02*
X91080013Y-34490013D01*
X91580013Y-33990000D02*
X109580000Y-33990000D01*
X110080000Y-33490000D02*
X110080000Y-32238000D01*
X110580000Y-31738000D02*
X127582000Y-31738000D01*
X128082000Y-32238000D02*
X128082000Y-33490000D01*
X128582000Y-33990000D02*
X147580000Y-33990000D01*
X148080000Y-33490000D02*
X148080000Y-32238000D01*
X148580000Y-31738000D02*
X165582000Y-31738000D01*
X166082000Y-32238000D02*
X166082000Y-33490000D01*
X166582000Y-33990000D02*
X184582000Y-33990000D01*
X185082000Y-34490000D02*
X185082000Y-35988000D01*
X185582000Y-36488000D02*
X203582222Y-36488000D01*
X204082222Y-36987778D02*
X204082778Y-38240222D01*
X231198000Y-107346596D02*
X215531712Y-134311099D01*
X183165421Y-116200186D02*
X214849384Y-134492930D01*
X183113914Y-116174286D02*
X167176994Y-109281088D01*
X91581987Y-109240000D02*
X166978501Y-109240000D01*
X204582778Y-38740000D02*
X231013000Y-38740000D01*
X231513000Y-39240000D02*
X231513000Y-106667025D01*
X231446013Y-106917025D02*
X231198000Y-107346596D01*
X91080013Y-34490013D02*
G75*
G02*
X91580013Y-33990013I499987J13D01*
G01*
X110080000Y-33490000D02*
G75*
G02*
X109580000Y-33990000I-500000J0D01*
G01*
X110080000Y-32238000D02*
G75*
G02*
X110580000Y-31738000I500000J0D01*
G01*
X127582000Y-31738000D02*
G75*
G02*
X128082000Y-32238000I0J-500000D01*
G01*
X128582000Y-33990000D02*
G75*
G02*
X128082000Y-33490000I0J500000D01*
G01*
X148080000Y-33490000D02*
G75*
G02*
X147580000Y-33990000I-500000J0D01*
G01*
X148080000Y-32238000D02*
G75*
G02*
X148580000Y-31738000I500000J0D01*
G01*
X165582000Y-31738000D02*
G75*
G02*
X166082000Y-32238000I0J-500000D01*
G01*
X166582000Y-33990000D02*
G75*
G02*
X166082000Y-33490000I0J500000D01*
G01*
X184582000Y-33990000D02*
G75*
G02*
X185082000Y-34490000I0J-500000D01*
G01*
X185582000Y-36488000D02*
G75*
G02*
X185082000Y-35988000I0J500000D01*
G01*
X203582222Y-36488000D02*
G75*
G02*
X204082200Y-36987778I-22J-500000D01*
G01*
X204582778Y-38740000D02*
G75*
G02*
X204082800Y-38240222I22J500000D01*
G01*
X231013000Y-38740000D02*
G75*
G02*
X231513000Y-39240000I0J-500000D01*
G01*
X231513000Y-106667025D02*
G75*
G02*
X231446002Y-106917019I-500000J25D01*
G01*
X215531712Y-134311099D02*
G75*
G02*
X214849398Y-134492905I-432312J251199D01*
G01*
X183113914Y-116174286D02*
G75*
G02*
X183165420Y-116200188I-198514J-458914D01*
G01*
X166978501Y-109240000D02*
G75*
G02*
X167176994Y-109281088I-1J-500000D01*
G01*
X91581987Y-109240000D02*
G75*
G02*
X91082000Y-108740013I13J500000D01*
G01*
D11*
X101800000Y-106300000D02*
X98200000Y-106300000D01*
X98200000Y-103200000D01*
X101800000Y-103200000D01*
X101800000Y-106300000D01*
X101800000Y-87300000D02*
X98200000Y-87300000D01*
X98200000Y-84200000D01*
X101800000Y-84200000D01*
X101800000Y-87300000D01*
X101800000Y-68300000D02*
X98200000Y-68300000D01*
X98200000Y-65200000D01*
X101800000Y-65200000D01*
X101800000Y-68300000D01*
X101800000Y-49300000D02*
X98200000Y-49300000D01*
X98200000Y-46200000D01*
X101800000Y-46200000D01*
X101800000Y-49300000D01*
X120800000Y-103925000D02*
X117200000Y-103925000D01*
X117200000Y-100825000D01*
X120800000Y-100825000D01*
X120800000Y-103925000D01*
X120800000Y-84925000D02*
X117200000Y-84925000D01*
X117200000Y-81825000D01*
X120800000Y-81825000D01*
X120800000Y-84925000D01*
X120800000Y-65925000D02*
X117200000Y-65925000D01*
X117200000Y-62825000D01*
X120800000Y-62825000D01*
X120800000Y-65925000D01*
X120800000Y-46925000D02*
X117200000Y-46925000D01*
X117200000Y-43825000D01*
X120800000Y-43825000D01*
X120800000Y-46925000D01*
X139800000Y-106300000D02*
X136200000Y-106300000D01*
X136200000Y-103200000D01*
X139800000Y-103200000D01*
X139800000Y-106300000D01*
X139800000Y-87300000D02*
X136200000Y-87300000D01*
X136200000Y-84200000D01*
X139800000Y-84200000D01*
X139800000Y-87300000D01*
X139800000Y-68300000D02*
X136200000Y-68300000D01*
X136200000Y-65200000D01*
X139800000Y-65200000D01*
X139800000Y-68300000D01*
X139800000Y-49300000D02*
X136200000Y-49300000D01*
X136200000Y-46200000D01*
X139800000Y-46200000D01*
X139800000Y-49300000D01*
X158800000Y-103925000D02*
X155200000Y-103925000D01*
X155200000Y-100825000D01*
X158800000Y-100825000D01*
X158800000Y-103925000D01*
X158800000Y-84925000D02*
X155200000Y-84925000D01*
X155200000Y-81825000D01*
X158800000Y-81825000D01*
X158800000Y-84925000D01*
X158800000Y-65925000D02*
X155200000Y-65925000D01*
X155200000Y-62825000D01*
X158800000Y-62825000D01*
X158800000Y-65925000D01*
X158800000Y-46925000D02*
X155200000Y-46925000D01*
X155200000Y-43825000D01*
X158800000Y-43825000D01*
X158800000Y-46925000D01*
X177800000Y-106300000D02*
X174200000Y-106300000D01*
X174200000Y-103200000D01*
X177800000Y-103200000D01*
X177800000Y-106300000D01*
X177800000Y-87300000D02*
X174200000Y-87300000D01*
X174200000Y-84200000D01*
X177800000Y-84200000D01*
X177800000Y-87300000D01*
X177800000Y-68300000D02*
X174200000Y-68300000D01*
X174200000Y-65200000D01*
X177800000Y-65200000D01*
X177800000Y-68300000D01*
X177800000Y-49300000D02*
X174200000Y-49300000D01*
X174200000Y-46200000D01*
X177800000Y-46200000D01*
X177800000Y-49300000D01*
X196800000Y-89675000D02*
X193200000Y-89675000D01*
X193200000Y-86575000D01*
X196800000Y-86575000D01*
X196800000Y-89675000D01*
X196800000Y-70675000D02*
X193200000Y-70675000D01*
X193200000Y-67575000D01*
X196800000Y-67575000D01*
X196800000Y-70675000D01*
X196800000Y-51675000D02*
X193200000Y-51675000D01*
X193200000Y-48575000D01*
X196800000Y-48575000D01*
X196800000Y-51675000D01*
X204205960Y-110331154D02*
X202405960Y-113448846D01*
X199721282Y-111898846D01*
X201521282Y-108781154D01*
X204205960Y-110331154D01*
X220660442Y-119831154D02*
X218860442Y-122948846D01*
X216175764Y-121398846D01*
X217975764Y-118281154D01*
X220660442Y-119831154D01*
M02*
