G04 #@! TF.GenerationSoftware,KiCad,Pcbnew,8.0.8+1*
G04 #@! TF.CreationDate,2025-06-17T15:50:22+00:00*
G04 #@! TF.ProjectId,eggada50,65676761-6461-4353-902e-6b696361645f,0.2*
G04 #@! TF.SameCoordinates,Original*
G04 #@! TF.FileFunction,Soldermask,Bot*
G04 #@! TF.FilePolarity,Negative*
%FSLAX46Y46*%
G04 Gerber Fmt 4.6, Leading zero omitted, Abs format (unit mm)*
G04 Created by KiCad (PCBNEW 8.0.8+1) date 2025-06-17 15:50:22*
%MOMM*%
%LPD*%
G01*
G04 APERTURE LIST*
%ADD10C,2.300000*%
%ADD11C,4.400000*%
%ADD12C,4.200000*%
%ADD13C,2.000000*%
%ADD14C,3.100000*%
%ADD15C,1.800000*%
%ADD16C,0.900000*%
%ADD17O,1.800000X1.800000*%
%ADD18C,1.600000*%
%ADD19O,2.300000X1.700000*%
%ADD20O,3.400000X1.700000*%
G04 APERTURE END LIST*
D10*
X207762000Y-89226000D03*
X228694000Y-101245000D03*
D11*
X109500000Y-50125000D03*
X109500000Y-88125000D03*
X185468000Y-53736000D03*
X147500000Y-69125000D03*
X166468000Y-89261000D03*
X210827241Y-105262759D03*
X201327241Y-121717241D03*
D12*
X100000000Y-100000000D03*
D13*
X105080000Y-100000000D03*
X94920000Y-100000000D03*
D14*
X102540000Y-94920000D03*
X96190000Y-97460000D03*
G36*
G01*
X91590000Y-98710000D02*
X91590000Y-96210000D01*
G75*
G02*
X91640000Y-96160000I50000J0D01*
G01*
X94190000Y-96160000D01*
G75*
G02*
X94240000Y-96210000I0J-50000D01*
G01*
X94240000Y-98710000D01*
G75*
G02*
X94190000Y-98760000I-50000J0D01*
G01*
X91640000Y-98760000D01*
G75*
G02*
X91590000Y-98710000I0J50000D01*
G01*
G37*
G36*
G01*
X104517000Y-96170000D02*
X104517000Y-93670000D01*
G75*
G02*
X104567000Y-93620000I50000J0D01*
G01*
X107117000Y-93620000D01*
G75*
G02*
X107167000Y-93670000I0J-50000D01*
G01*
X107167000Y-96170000D01*
G75*
G02*
X107117000Y-96220000I-50000J0D01*
G01*
X104567000Y-96220000D01*
G75*
G02*
X104517000Y-96170000I0J50000D01*
G01*
G37*
D12*
X100000000Y-81000000D03*
D13*
X105080000Y-81000000D03*
X94920000Y-81000000D03*
D14*
X102540000Y-75920000D03*
X96190000Y-78460000D03*
G36*
G01*
X91590000Y-79710000D02*
X91590000Y-77210000D01*
G75*
G02*
X91640000Y-77160000I50000J0D01*
G01*
X94190000Y-77160000D01*
G75*
G02*
X94240000Y-77210000I0J-50000D01*
G01*
X94240000Y-79710000D01*
G75*
G02*
X94190000Y-79760000I-50000J0D01*
G01*
X91640000Y-79760000D01*
G75*
G02*
X91590000Y-79710000I0J50000D01*
G01*
G37*
G36*
G01*
X104517000Y-77170000D02*
X104517000Y-74670000D01*
G75*
G02*
X104567000Y-74620000I50000J0D01*
G01*
X107117000Y-74620000D01*
G75*
G02*
X107167000Y-74670000I0J-50000D01*
G01*
X107167000Y-77170000D01*
G75*
G02*
X107117000Y-77220000I-50000J0D01*
G01*
X104567000Y-77220000D01*
G75*
G02*
X104517000Y-77170000I0J50000D01*
G01*
G37*
D12*
X100000000Y-62000000D03*
D13*
X105080000Y-62000000D03*
X94920000Y-62000000D03*
D14*
X102540000Y-56920000D03*
X96190000Y-59460000D03*
G36*
G01*
X91590000Y-60710000D02*
X91590000Y-58210000D01*
G75*
G02*
X91640000Y-58160000I50000J0D01*
G01*
X94190000Y-58160000D01*
G75*
G02*
X94240000Y-58210000I0J-50000D01*
G01*
X94240000Y-60710000D01*
G75*
G02*
X94190000Y-60760000I-50000J0D01*
G01*
X91640000Y-60760000D01*
G75*
G02*
X91590000Y-60710000I0J50000D01*
G01*
G37*
G36*
G01*
X104517000Y-58170000D02*
X104517000Y-55670000D01*
G75*
G02*
X104567000Y-55620000I50000J0D01*
G01*
X107117000Y-55620000D01*
G75*
G02*
X107167000Y-55670000I0J-50000D01*
G01*
X107167000Y-58170000D01*
G75*
G02*
X107117000Y-58220000I-50000J0D01*
G01*
X104567000Y-58220000D01*
G75*
G02*
X104517000Y-58170000I0J50000D01*
G01*
G37*
D12*
X100000000Y-43000000D03*
D13*
X105080000Y-43000000D03*
X94920000Y-43000000D03*
D14*
X102540000Y-37920000D03*
X96190000Y-40460000D03*
G36*
G01*
X91590000Y-41710000D02*
X91590000Y-39210000D01*
G75*
G02*
X91640000Y-39160000I50000J0D01*
G01*
X94190000Y-39160000D01*
G75*
G02*
X94240000Y-39210000I0J-50000D01*
G01*
X94240000Y-41710000D01*
G75*
G02*
X94190000Y-41760000I-50000J0D01*
G01*
X91640000Y-41760000D01*
G75*
G02*
X91590000Y-41710000I0J50000D01*
G01*
G37*
G36*
G01*
X104517000Y-39170000D02*
X104517000Y-36670000D01*
G75*
G02*
X104567000Y-36620000I50000J0D01*
G01*
X107117000Y-36620000D01*
G75*
G02*
X107167000Y-36670000I0J-50000D01*
G01*
X107167000Y-39170000D01*
G75*
G02*
X107117000Y-39220000I-50000J0D01*
G01*
X104567000Y-39220000D01*
G75*
G02*
X104517000Y-39170000I0J50000D01*
G01*
G37*
D12*
X119000000Y-97625000D03*
D13*
X124080000Y-97625000D03*
X113920000Y-97625000D03*
D14*
X121540000Y-92545000D03*
X115190000Y-95085000D03*
G36*
G01*
X110590000Y-96335000D02*
X110590000Y-93835000D01*
G75*
G02*
X110640000Y-93785000I50000J0D01*
G01*
X113190000Y-93785000D01*
G75*
G02*
X113240000Y-93835000I0J-50000D01*
G01*
X113240000Y-96335000D01*
G75*
G02*
X113190000Y-96385000I-50000J0D01*
G01*
X110640000Y-96385000D01*
G75*
G02*
X110590000Y-96335000I0J50000D01*
G01*
G37*
G36*
G01*
X123517000Y-93795000D02*
X123517000Y-91295000D01*
G75*
G02*
X123567000Y-91245000I50000J0D01*
G01*
X126117000Y-91245000D01*
G75*
G02*
X126167000Y-91295000I0J-50000D01*
G01*
X126167000Y-93795000D01*
G75*
G02*
X126117000Y-93845000I-50000J0D01*
G01*
X123567000Y-93845000D01*
G75*
G02*
X123517000Y-93795000I0J50000D01*
G01*
G37*
D12*
X119000000Y-78625000D03*
D13*
X124080000Y-78625000D03*
X113920000Y-78625000D03*
D14*
X121540000Y-73545000D03*
X115190000Y-76085000D03*
G36*
G01*
X110590000Y-77335000D02*
X110590000Y-74835000D01*
G75*
G02*
X110640000Y-74785000I50000J0D01*
G01*
X113190000Y-74785000D01*
G75*
G02*
X113240000Y-74835000I0J-50000D01*
G01*
X113240000Y-77335000D01*
G75*
G02*
X113190000Y-77385000I-50000J0D01*
G01*
X110640000Y-77385000D01*
G75*
G02*
X110590000Y-77335000I0J50000D01*
G01*
G37*
G36*
G01*
X123517000Y-74795000D02*
X123517000Y-72295000D01*
G75*
G02*
X123567000Y-72245000I50000J0D01*
G01*
X126117000Y-72245000D01*
G75*
G02*
X126167000Y-72295000I0J-50000D01*
G01*
X126167000Y-74795000D01*
G75*
G02*
X126117000Y-74845000I-50000J0D01*
G01*
X123567000Y-74845000D01*
G75*
G02*
X123517000Y-74795000I0J50000D01*
G01*
G37*
D12*
X119000000Y-59625000D03*
D13*
X124080000Y-59625000D03*
X113920000Y-59625000D03*
D14*
X121540000Y-54545000D03*
X115190000Y-57085000D03*
G36*
G01*
X110590000Y-58335000D02*
X110590000Y-55835000D01*
G75*
G02*
X110640000Y-55785000I50000J0D01*
G01*
X113190000Y-55785000D01*
G75*
G02*
X113240000Y-55835000I0J-50000D01*
G01*
X113240000Y-58335000D01*
G75*
G02*
X113190000Y-58385000I-50000J0D01*
G01*
X110640000Y-58385000D01*
G75*
G02*
X110590000Y-58335000I0J50000D01*
G01*
G37*
G36*
G01*
X123517000Y-55795000D02*
X123517000Y-53295000D01*
G75*
G02*
X123567000Y-53245000I50000J0D01*
G01*
X126117000Y-53245000D01*
G75*
G02*
X126167000Y-53295000I0J-50000D01*
G01*
X126167000Y-55795000D01*
G75*
G02*
X126117000Y-55845000I-50000J0D01*
G01*
X123567000Y-55845000D01*
G75*
G02*
X123517000Y-55795000I0J50000D01*
G01*
G37*
D12*
X119000000Y-40625000D03*
D13*
X124080000Y-40625000D03*
X113920000Y-40625000D03*
D14*
X121540000Y-35545000D03*
X115190000Y-38085000D03*
G36*
G01*
X110590000Y-39335000D02*
X110590000Y-36835000D01*
G75*
G02*
X110640000Y-36785000I50000J0D01*
G01*
X113190000Y-36785000D01*
G75*
G02*
X113240000Y-36835000I0J-50000D01*
G01*
X113240000Y-39335000D01*
G75*
G02*
X113190000Y-39385000I-50000J0D01*
G01*
X110640000Y-39385000D01*
G75*
G02*
X110590000Y-39335000I0J50000D01*
G01*
G37*
G36*
G01*
X123517000Y-36795000D02*
X123517000Y-34295000D01*
G75*
G02*
X123567000Y-34245000I50000J0D01*
G01*
X126117000Y-34245000D01*
G75*
G02*
X126167000Y-34295000I0J-50000D01*
G01*
X126167000Y-36795000D01*
G75*
G02*
X126117000Y-36845000I-50000J0D01*
G01*
X123567000Y-36845000D01*
G75*
G02*
X123517000Y-36795000I0J50000D01*
G01*
G37*
D12*
X138000000Y-100000000D03*
D13*
X143080000Y-100000000D03*
X132920000Y-100000000D03*
D14*
X140540000Y-94920000D03*
X134190000Y-97460000D03*
G36*
G01*
X129590000Y-98710000D02*
X129590000Y-96210000D01*
G75*
G02*
X129640000Y-96160000I50000J0D01*
G01*
X132190000Y-96160000D01*
G75*
G02*
X132240000Y-96210000I0J-50000D01*
G01*
X132240000Y-98710000D01*
G75*
G02*
X132190000Y-98760000I-50000J0D01*
G01*
X129640000Y-98760000D01*
G75*
G02*
X129590000Y-98710000I0J50000D01*
G01*
G37*
G36*
G01*
X142517000Y-96170000D02*
X142517000Y-93670000D01*
G75*
G02*
X142567000Y-93620000I50000J0D01*
G01*
X145117000Y-93620000D01*
G75*
G02*
X145167000Y-93670000I0J-50000D01*
G01*
X145167000Y-96170000D01*
G75*
G02*
X145117000Y-96220000I-50000J0D01*
G01*
X142567000Y-96220000D01*
G75*
G02*
X142517000Y-96170000I0J50000D01*
G01*
G37*
D12*
X138000000Y-81000000D03*
D13*
X143080000Y-81000000D03*
X132920000Y-81000000D03*
D14*
X140540000Y-75920000D03*
X134190000Y-78460000D03*
G36*
G01*
X129590000Y-79710000D02*
X129590000Y-77210000D01*
G75*
G02*
X129640000Y-77160000I50000J0D01*
G01*
X132190000Y-77160000D01*
G75*
G02*
X132240000Y-77210000I0J-50000D01*
G01*
X132240000Y-79710000D01*
G75*
G02*
X132190000Y-79760000I-50000J0D01*
G01*
X129640000Y-79760000D01*
G75*
G02*
X129590000Y-79710000I0J50000D01*
G01*
G37*
G36*
G01*
X142517000Y-77170000D02*
X142517000Y-74670000D01*
G75*
G02*
X142567000Y-74620000I50000J0D01*
G01*
X145117000Y-74620000D01*
G75*
G02*
X145167000Y-74670000I0J-50000D01*
G01*
X145167000Y-77170000D01*
G75*
G02*
X145117000Y-77220000I-50000J0D01*
G01*
X142567000Y-77220000D01*
G75*
G02*
X142517000Y-77170000I0J50000D01*
G01*
G37*
D12*
X138000000Y-62000000D03*
D13*
X143080000Y-62000000D03*
X132920000Y-62000000D03*
D14*
X140540000Y-56920000D03*
X134190000Y-59460000D03*
G36*
G01*
X129590000Y-60710000D02*
X129590000Y-58210000D01*
G75*
G02*
X129640000Y-58160000I50000J0D01*
G01*
X132190000Y-58160000D01*
G75*
G02*
X132240000Y-58210000I0J-50000D01*
G01*
X132240000Y-60710000D01*
G75*
G02*
X132190000Y-60760000I-50000J0D01*
G01*
X129640000Y-60760000D01*
G75*
G02*
X129590000Y-60710000I0J50000D01*
G01*
G37*
G36*
G01*
X142517000Y-58170000D02*
X142517000Y-55670000D01*
G75*
G02*
X142567000Y-55620000I50000J0D01*
G01*
X145117000Y-55620000D01*
G75*
G02*
X145167000Y-55670000I0J-50000D01*
G01*
X145167000Y-58170000D01*
G75*
G02*
X145117000Y-58220000I-50000J0D01*
G01*
X142567000Y-58220000D01*
G75*
G02*
X142517000Y-58170000I0J50000D01*
G01*
G37*
D12*
X138000000Y-43000000D03*
D13*
X143080000Y-43000000D03*
X132920000Y-43000000D03*
D14*
X140540000Y-37920000D03*
X134190000Y-40460000D03*
G36*
G01*
X129590000Y-41710000D02*
X129590000Y-39210000D01*
G75*
G02*
X129640000Y-39160000I50000J0D01*
G01*
X132190000Y-39160000D01*
G75*
G02*
X132240000Y-39210000I0J-50000D01*
G01*
X132240000Y-41710000D01*
G75*
G02*
X132190000Y-41760000I-50000J0D01*
G01*
X129640000Y-41760000D01*
G75*
G02*
X129590000Y-41710000I0J50000D01*
G01*
G37*
G36*
G01*
X142517000Y-39170000D02*
X142517000Y-36670000D01*
G75*
G02*
X142567000Y-36620000I50000J0D01*
G01*
X145117000Y-36620000D01*
G75*
G02*
X145167000Y-36670000I0J-50000D01*
G01*
X145167000Y-39170000D01*
G75*
G02*
X145117000Y-39220000I-50000J0D01*
G01*
X142567000Y-39220000D01*
G75*
G02*
X142517000Y-39170000I0J50000D01*
G01*
G37*
D12*
X157000000Y-97625000D03*
D13*
X162080000Y-97625000D03*
X151920000Y-97625000D03*
D14*
X159540000Y-92545000D03*
X153190000Y-95085000D03*
G36*
G01*
X148590000Y-96335000D02*
X148590000Y-93835000D01*
G75*
G02*
X148640000Y-93785000I50000J0D01*
G01*
X151190000Y-93785000D01*
G75*
G02*
X151240000Y-93835000I0J-50000D01*
G01*
X151240000Y-96335000D01*
G75*
G02*
X151190000Y-96385000I-50000J0D01*
G01*
X148640000Y-96385000D01*
G75*
G02*
X148590000Y-96335000I0J50000D01*
G01*
G37*
G36*
G01*
X161517000Y-93795000D02*
X161517000Y-91295000D01*
G75*
G02*
X161567000Y-91245000I50000J0D01*
G01*
X164117000Y-91245000D01*
G75*
G02*
X164167000Y-91295000I0J-50000D01*
G01*
X164167000Y-93795000D01*
G75*
G02*
X164117000Y-93845000I-50000J0D01*
G01*
X161567000Y-93845000D01*
G75*
G02*
X161517000Y-93795000I0J50000D01*
G01*
G37*
D12*
X157000000Y-78625000D03*
D13*
X162080000Y-78625000D03*
X151920000Y-78625000D03*
D14*
X159540000Y-73545000D03*
X153190000Y-76085000D03*
G36*
G01*
X148590000Y-77335000D02*
X148590000Y-74835000D01*
G75*
G02*
X148640000Y-74785000I50000J0D01*
G01*
X151190000Y-74785000D01*
G75*
G02*
X151240000Y-74835000I0J-50000D01*
G01*
X151240000Y-77335000D01*
G75*
G02*
X151190000Y-77385000I-50000J0D01*
G01*
X148640000Y-77385000D01*
G75*
G02*
X148590000Y-77335000I0J50000D01*
G01*
G37*
G36*
G01*
X161517000Y-74795000D02*
X161517000Y-72295000D01*
G75*
G02*
X161567000Y-72245000I50000J0D01*
G01*
X164117000Y-72245000D01*
G75*
G02*
X164167000Y-72295000I0J-50000D01*
G01*
X164167000Y-74795000D01*
G75*
G02*
X164117000Y-74845000I-50000J0D01*
G01*
X161567000Y-74845000D01*
G75*
G02*
X161517000Y-74795000I0J50000D01*
G01*
G37*
D12*
X157000000Y-59625000D03*
D13*
X162080000Y-59625000D03*
X151920000Y-59625000D03*
D14*
X159540000Y-54545000D03*
X153190000Y-57085000D03*
G36*
G01*
X148590000Y-58335000D02*
X148590000Y-55835000D01*
G75*
G02*
X148640000Y-55785000I50000J0D01*
G01*
X151190000Y-55785000D01*
G75*
G02*
X151240000Y-55835000I0J-50000D01*
G01*
X151240000Y-58335000D01*
G75*
G02*
X151190000Y-58385000I-50000J0D01*
G01*
X148640000Y-58385000D01*
G75*
G02*
X148590000Y-58335000I0J50000D01*
G01*
G37*
G36*
G01*
X161517000Y-55795000D02*
X161517000Y-53295000D01*
G75*
G02*
X161567000Y-53245000I50000J0D01*
G01*
X164117000Y-53245000D01*
G75*
G02*
X164167000Y-53295000I0J-50000D01*
G01*
X164167000Y-55795000D01*
G75*
G02*
X164117000Y-55845000I-50000J0D01*
G01*
X161567000Y-55845000D01*
G75*
G02*
X161517000Y-55795000I0J50000D01*
G01*
G37*
D12*
X157000000Y-40625000D03*
D13*
X162080000Y-40625000D03*
X151920000Y-40625000D03*
D14*
X159540000Y-35545000D03*
X153190000Y-38085000D03*
G36*
G01*
X148590000Y-39335000D02*
X148590000Y-36835000D01*
G75*
G02*
X148640000Y-36785000I50000J0D01*
G01*
X151190000Y-36785000D01*
G75*
G02*
X151240000Y-36835000I0J-50000D01*
G01*
X151240000Y-39335000D01*
G75*
G02*
X151190000Y-39385000I-50000J0D01*
G01*
X148640000Y-39385000D01*
G75*
G02*
X148590000Y-39335000I0J50000D01*
G01*
G37*
G36*
G01*
X161517000Y-36795000D02*
X161517000Y-34295000D01*
G75*
G02*
X161567000Y-34245000I50000J0D01*
G01*
X164117000Y-34245000D01*
G75*
G02*
X164167000Y-34295000I0J-50000D01*
G01*
X164167000Y-36795000D01*
G75*
G02*
X164117000Y-36845000I-50000J0D01*
G01*
X161567000Y-36845000D01*
G75*
G02*
X161517000Y-36795000I0J50000D01*
G01*
G37*
D12*
X176000000Y-100000000D03*
D13*
X181080000Y-100000000D03*
X170920000Y-100000000D03*
D14*
X178540000Y-94920000D03*
X172190000Y-97460000D03*
G36*
G01*
X167590000Y-98710000D02*
X167590000Y-96210000D01*
G75*
G02*
X167640000Y-96160000I50000J0D01*
G01*
X170190000Y-96160000D01*
G75*
G02*
X170240000Y-96210000I0J-50000D01*
G01*
X170240000Y-98710000D01*
G75*
G02*
X170190000Y-98760000I-50000J0D01*
G01*
X167640000Y-98760000D01*
G75*
G02*
X167590000Y-98710000I0J50000D01*
G01*
G37*
G36*
G01*
X180517000Y-96170000D02*
X180517000Y-93670000D01*
G75*
G02*
X180567000Y-93620000I50000J0D01*
G01*
X183117000Y-93620000D01*
G75*
G02*
X183167000Y-93670000I0J-50000D01*
G01*
X183167000Y-96170000D01*
G75*
G02*
X183117000Y-96220000I-50000J0D01*
G01*
X180567000Y-96220000D01*
G75*
G02*
X180517000Y-96170000I0J50000D01*
G01*
G37*
D12*
X176000000Y-81000000D03*
D13*
X181080000Y-81000000D03*
X170920000Y-81000000D03*
D14*
X178540000Y-75920000D03*
X172190000Y-78460000D03*
G36*
G01*
X167590000Y-79710000D02*
X167590000Y-77210000D01*
G75*
G02*
X167640000Y-77160000I50000J0D01*
G01*
X170190000Y-77160000D01*
G75*
G02*
X170240000Y-77210000I0J-50000D01*
G01*
X170240000Y-79710000D01*
G75*
G02*
X170190000Y-79760000I-50000J0D01*
G01*
X167640000Y-79760000D01*
G75*
G02*
X167590000Y-79710000I0J50000D01*
G01*
G37*
G36*
G01*
X180517000Y-77170000D02*
X180517000Y-74670000D01*
G75*
G02*
X180567000Y-74620000I50000J0D01*
G01*
X183117000Y-74620000D01*
G75*
G02*
X183167000Y-74670000I0J-50000D01*
G01*
X183167000Y-77170000D01*
G75*
G02*
X183117000Y-77220000I-50000J0D01*
G01*
X180567000Y-77220000D01*
G75*
G02*
X180517000Y-77170000I0J50000D01*
G01*
G37*
D12*
X176000000Y-62000000D03*
D13*
X181080000Y-62000000D03*
X170920000Y-62000000D03*
D14*
X178540000Y-56920000D03*
X172190000Y-59460000D03*
G36*
G01*
X167590000Y-60710000D02*
X167590000Y-58210000D01*
G75*
G02*
X167640000Y-58160000I50000J0D01*
G01*
X170190000Y-58160000D01*
G75*
G02*
X170240000Y-58210000I0J-50000D01*
G01*
X170240000Y-60710000D01*
G75*
G02*
X170190000Y-60760000I-50000J0D01*
G01*
X167640000Y-60760000D01*
G75*
G02*
X167590000Y-60710000I0J50000D01*
G01*
G37*
G36*
G01*
X180517000Y-58170000D02*
X180517000Y-55670000D01*
G75*
G02*
X180567000Y-55620000I50000J0D01*
G01*
X183117000Y-55620000D01*
G75*
G02*
X183167000Y-55670000I0J-50000D01*
G01*
X183167000Y-58170000D01*
G75*
G02*
X183117000Y-58220000I-50000J0D01*
G01*
X180567000Y-58220000D01*
G75*
G02*
X180517000Y-58170000I0J50000D01*
G01*
G37*
D12*
X176000000Y-43000000D03*
D13*
X181080000Y-43000000D03*
X170920000Y-43000000D03*
D14*
X178540000Y-37920000D03*
X172190000Y-40460000D03*
G36*
G01*
X167590000Y-41710000D02*
X167590000Y-39210000D01*
G75*
G02*
X167640000Y-39160000I50000J0D01*
G01*
X170190000Y-39160000D01*
G75*
G02*
X170240000Y-39210000I0J-50000D01*
G01*
X170240000Y-41710000D01*
G75*
G02*
X170190000Y-41760000I-50000J0D01*
G01*
X167640000Y-41760000D01*
G75*
G02*
X167590000Y-41710000I0J50000D01*
G01*
G37*
G36*
G01*
X180517000Y-39170000D02*
X180517000Y-36670000D01*
G75*
G02*
X180567000Y-36620000I50000J0D01*
G01*
X183117000Y-36620000D01*
G75*
G02*
X183167000Y-36670000I0J-50000D01*
G01*
X183167000Y-39170000D01*
G75*
G02*
X183117000Y-39220000I-50000J0D01*
G01*
X180567000Y-39220000D01*
G75*
G02*
X180517000Y-39170000I0J50000D01*
G01*
G37*
D12*
X195000000Y-83375000D03*
D13*
X200080000Y-83375000D03*
X189920000Y-83375000D03*
D14*
X197540000Y-78295000D03*
X191190000Y-80835000D03*
G36*
G01*
X186590000Y-82085000D02*
X186590000Y-79585000D01*
G75*
G02*
X186640000Y-79535000I50000J0D01*
G01*
X189190000Y-79535000D01*
G75*
G02*
X189240000Y-79585000I0J-50000D01*
G01*
X189240000Y-82085000D01*
G75*
G02*
X189190000Y-82135000I-50000J0D01*
G01*
X186640000Y-82135000D01*
G75*
G02*
X186590000Y-82085000I0J50000D01*
G01*
G37*
G36*
G01*
X199517000Y-79545000D02*
X199517000Y-77045000D01*
G75*
G02*
X199567000Y-76995000I50000J0D01*
G01*
X202117000Y-76995000D01*
G75*
G02*
X202167000Y-77045000I0J-50000D01*
G01*
X202167000Y-79545000D01*
G75*
G02*
X202117000Y-79595000I-50000J0D01*
G01*
X199567000Y-79595000D01*
G75*
G02*
X199517000Y-79545000I0J50000D01*
G01*
G37*
D12*
X195000000Y-64375000D03*
D13*
X200080000Y-64375000D03*
X189920000Y-64375000D03*
D14*
X197540000Y-59295000D03*
X191190000Y-61835000D03*
G36*
G01*
X186590000Y-63085000D02*
X186590000Y-60585000D01*
G75*
G02*
X186640000Y-60535000I50000J0D01*
G01*
X189190000Y-60535000D01*
G75*
G02*
X189240000Y-60585000I0J-50000D01*
G01*
X189240000Y-63085000D01*
G75*
G02*
X189190000Y-63135000I-50000J0D01*
G01*
X186640000Y-63135000D01*
G75*
G02*
X186590000Y-63085000I0J50000D01*
G01*
G37*
G36*
G01*
X199517000Y-60545000D02*
X199517000Y-58045000D01*
G75*
G02*
X199567000Y-57995000I50000J0D01*
G01*
X202117000Y-57995000D01*
G75*
G02*
X202167000Y-58045000I0J-50000D01*
G01*
X202167000Y-60545000D01*
G75*
G02*
X202117000Y-60595000I-50000J0D01*
G01*
X199567000Y-60595000D01*
G75*
G02*
X199517000Y-60545000I0J50000D01*
G01*
G37*
D12*
X195000000Y-45375000D03*
D13*
X200080000Y-45375000D03*
X189920000Y-45375000D03*
D14*
X197540000Y-40295000D03*
X191190000Y-42835000D03*
G36*
G01*
X186590000Y-44085000D02*
X186590000Y-41585000D01*
G75*
G02*
X186640000Y-41535000I50000J0D01*
G01*
X189190000Y-41535000D01*
G75*
G02*
X189240000Y-41585000I0J-50000D01*
G01*
X189240000Y-44085000D01*
G75*
G02*
X189190000Y-44135000I-50000J0D01*
G01*
X186640000Y-44135000D01*
G75*
G02*
X186590000Y-44085000I0J50000D01*
G01*
G37*
G36*
G01*
X199517000Y-41545000D02*
X199517000Y-39045000D01*
G75*
G02*
X199567000Y-38995000I50000J0D01*
G01*
X202117000Y-38995000D01*
G75*
G02*
X202167000Y-39045000I0J-50000D01*
G01*
X202167000Y-41545000D01*
G75*
G02*
X202117000Y-41595000I-50000J0D01*
G01*
X199567000Y-41595000D01*
G75*
G02*
X199517000Y-41545000I0J50000D01*
G01*
G37*
D12*
X197850000Y-108740000D03*
D13*
X200390000Y-104340591D03*
X195310000Y-113139409D03*
D14*
X194720591Y-104000295D03*
X193745295Y-110769557D03*
G36*
G01*
X192527827Y-115378273D02*
X190362763Y-114128273D01*
G75*
G02*
X190344462Y-114059972I25000J43301D01*
G01*
X191619462Y-111851608D01*
G75*
G02*
X191687763Y-111833307I43301J-25000D01*
G01*
X193852827Y-113083307D01*
G75*
G02*
X193871128Y-113151608I-25000J-43301D01*
G01*
X192596128Y-115359972D01*
G75*
G02*
X192527827Y-115378273I-43301J25000D01*
G01*
G37*
G36*
G01*
X196791623Y-102913163D02*
X194626559Y-101663163D01*
G75*
G02*
X194608258Y-101594862I25000J43301D01*
G01*
X195883258Y-99386498D01*
G75*
G02*
X195951559Y-99368197I43301J-25000D01*
G01*
X198116623Y-100618197D01*
G75*
G02*
X198134924Y-100686498I-25000J-43301D01*
G01*
X196859924Y-102894862D01*
G75*
G02*
X196791623Y-102913163I-43301J25000D01*
G01*
G37*
D12*
X214304483Y-118240000D03*
D13*
X216844483Y-113840591D03*
X211764483Y-122639409D03*
D14*
X211175074Y-113500295D03*
X210199778Y-120269557D03*
G36*
G01*
X208982310Y-124878273D02*
X206817246Y-123628273D01*
G75*
G02*
X206798945Y-123559972I25000J43301D01*
G01*
X208073945Y-121351608D01*
G75*
G02*
X208142246Y-121333307I43301J-25000D01*
G01*
X210307310Y-122583307D01*
G75*
G02*
X210325611Y-122651608I-25000J-43301D01*
G01*
X209050611Y-124859972D01*
G75*
G02*
X208982310Y-124878273I-43301J25000D01*
G01*
G37*
G36*
G01*
X213246106Y-112413163D02*
X211081042Y-111163163D01*
G75*
G02*
X211062741Y-111094862I25000J43301D01*
G01*
X212337741Y-108886498D01*
G75*
G02*
X212406042Y-108868197I43301J-25000D01*
G01*
X214571106Y-110118197D01*
G75*
G02*
X214589407Y-110186498I-25000J-43301D01*
G01*
X213314407Y-112394862D01*
G75*
G02*
X213246106Y-112413163I-43301J25000D01*
G01*
G37*
G36*
G01*
X108000000Y-97525000D02*
X106800000Y-97525000D01*
G75*
G02*
X106750000Y-97475000I0J50000D01*
G01*
X106750000Y-96575000D01*
G75*
G02*
X106800000Y-96525000I50000J0D01*
G01*
X108000000Y-96525000D01*
G75*
G02*
X108050000Y-96575000I0J-50000D01*
G01*
X108050000Y-97475000D01*
G75*
G02*
X108000000Y-97525000I-50000J0D01*
G01*
G37*
G36*
G01*
X108000000Y-100825000D02*
X106800000Y-100825000D01*
G75*
G02*
X106750000Y-100775000I0J50000D01*
G01*
X106750000Y-99875000D01*
G75*
G02*
X106800000Y-99825000I50000J0D01*
G01*
X108000000Y-99825000D01*
G75*
G02*
X108050000Y-99875000I0J-50000D01*
G01*
X108050000Y-100775000D01*
G75*
G02*
X108000000Y-100825000I-50000J0D01*
G01*
G37*
G36*
G01*
X108000000Y-78525000D02*
X106800000Y-78525000D01*
G75*
G02*
X106750000Y-78475000I0J50000D01*
G01*
X106750000Y-77575000D01*
G75*
G02*
X106800000Y-77525000I50000J0D01*
G01*
X108000000Y-77525000D01*
G75*
G02*
X108050000Y-77575000I0J-50000D01*
G01*
X108050000Y-78475000D01*
G75*
G02*
X108000000Y-78525000I-50000J0D01*
G01*
G37*
G36*
G01*
X108000000Y-81825000D02*
X106800000Y-81825000D01*
G75*
G02*
X106750000Y-81775000I0J50000D01*
G01*
X106750000Y-80875000D01*
G75*
G02*
X106800000Y-80825000I50000J0D01*
G01*
X108000000Y-80825000D01*
G75*
G02*
X108050000Y-80875000I0J-50000D01*
G01*
X108050000Y-81775000D01*
G75*
G02*
X108000000Y-81825000I-50000J0D01*
G01*
G37*
G36*
G01*
X108000000Y-59525000D02*
X106800000Y-59525000D01*
G75*
G02*
X106750000Y-59475000I0J50000D01*
G01*
X106750000Y-58575000D01*
G75*
G02*
X106800000Y-58525000I50000J0D01*
G01*
X108000000Y-58525000D01*
G75*
G02*
X108050000Y-58575000I0J-50000D01*
G01*
X108050000Y-59475000D01*
G75*
G02*
X108000000Y-59525000I-50000J0D01*
G01*
G37*
G36*
G01*
X108000000Y-62825000D02*
X106800000Y-62825000D01*
G75*
G02*
X106750000Y-62775000I0J50000D01*
G01*
X106750000Y-61875000D01*
G75*
G02*
X106800000Y-61825000I50000J0D01*
G01*
X108000000Y-61825000D01*
G75*
G02*
X108050000Y-61875000I0J-50000D01*
G01*
X108050000Y-62775000D01*
G75*
G02*
X108000000Y-62825000I-50000J0D01*
G01*
G37*
G36*
G01*
X108000000Y-40525000D02*
X106800000Y-40525000D01*
G75*
G02*
X106750000Y-40475000I0J50000D01*
G01*
X106750000Y-39575000D01*
G75*
G02*
X106800000Y-39525000I50000J0D01*
G01*
X108000000Y-39525000D01*
G75*
G02*
X108050000Y-39575000I0J-50000D01*
G01*
X108050000Y-40475000D01*
G75*
G02*
X108000000Y-40525000I-50000J0D01*
G01*
G37*
G36*
G01*
X108000000Y-43825000D02*
X106800000Y-43825000D01*
G75*
G02*
X106750000Y-43775000I0J50000D01*
G01*
X106750000Y-42875000D01*
G75*
G02*
X106800000Y-42825000I50000J0D01*
G01*
X108000000Y-42825000D01*
G75*
G02*
X108050000Y-42875000I0J-50000D01*
G01*
X108050000Y-43775000D01*
G75*
G02*
X108000000Y-43825000I-50000J0D01*
G01*
G37*
G36*
G01*
X127000000Y-95150000D02*
X125800000Y-95150000D01*
G75*
G02*
X125750000Y-95100000I0J50000D01*
G01*
X125750000Y-94200000D01*
G75*
G02*
X125800000Y-94150000I50000J0D01*
G01*
X127000000Y-94150000D01*
G75*
G02*
X127050000Y-94200000I0J-50000D01*
G01*
X127050000Y-95100000D01*
G75*
G02*
X127000000Y-95150000I-50000J0D01*
G01*
G37*
G36*
G01*
X127000000Y-98450000D02*
X125800000Y-98450000D01*
G75*
G02*
X125750000Y-98400000I0J50000D01*
G01*
X125750000Y-97500000D01*
G75*
G02*
X125800000Y-97450000I50000J0D01*
G01*
X127000000Y-97450000D01*
G75*
G02*
X127050000Y-97500000I0J-50000D01*
G01*
X127050000Y-98400000D01*
G75*
G02*
X127000000Y-98450000I-50000J0D01*
G01*
G37*
G36*
G01*
X127000000Y-76150000D02*
X125800000Y-76150000D01*
G75*
G02*
X125750000Y-76100000I0J50000D01*
G01*
X125750000Y-75200000D01*
G75*
G02*
X125800000Y-75150000I50000J0D01*
G01*
X127000000Y-75150000D01*
G75*
G02*
X127050000Y-75200000I0J-50000D01*
G01*
X127050000Y-76100000D01*
G75*
G02*
X127000000Y-76150000I-50000J0D01*
G01*
G37*
G36*
G01*
X127000000Y-79450000D02*
X125800000Y-79450000D01*
G75*
G02*
X125750000Y-79400000I0J50000D01*
G01*
X125750000Y-78500000D01*
G75*
G02*
X125800000Y-78450000I50000J0D01*
G01*
X127000000Y-78450000D01*
G75*
G02*
X127050000Y-78500000I0J-50000D01*
G01*
X127050000Y-79400000D01*
G75*
G02*
X127000000Y-79450000I-50000J0D01*
G01*
G37*
G36*
G01*
X127000000Y-57150000D02*
X125800000Y-57150000D01*
G75*
G02*
X125750000Y-57100000I0J50000D01*
G01*
X125750000Y-56200000D01*
G75*
G02*
X125800000Y-56150000I50000J0D01*
G01*
X127000000Y-56150000D01*
G75*
G02*
X127050000Y-56200000I0J-50000D01*
G01*
X127050000Y-57100000D01*
G75*
G02*
X127000000Y-57150000I-50000J0D01*
G01*
G37*
G36*
G01*
X127000000Y-60450000D02*
X125800000Y-60450000D01*
G75*
G02*
X125750000Y-60400000I0J50000D01*
G01*
X125750000Y-59500000D01*
G75*
G02*
X125800000Y-59450000I50000J0D01*
G01*
X127000000Y-59450000D01*
G75*
G02*
X127050000Y-59500000I0J-50000D01*
G01*
X127050000Y-60400000D01*
G75*
G02*
X127000000Y-60450000I-50000J0D01*
G01*
G37*
G36*
G01*
X127000000Y-38150000D02*
X125800000Y-38150000D01*
G75*
G02*
X125750000Y-38100000I0J50000D01*
G01*
X125750000Y-37200000D01*
G75*
G02*
X125800000Y-37150000I50000J0D01*
G01*
X127000000Y-37150000D01*
G75*
G02*
X127050000Y-37200000I0J-50000D01*
G01*
X127050000Y-38100000D01*
G75*
G02*
X127000000Y-38150000I-50000J0D01*
G01*
G37*
G36*
G01*
X127000000Y-41450000D02*
X125800000Y-41450000D01*
G75*
G02*
X125750000Y-41400000I0J50000D01*
G01*
X125750000Y-40500000D01*
G75*
G02*
X125800000Y-40450000I50000J0D01*
G01*
X127000000Y-40450000D01*
G75*
G02*
X127050000Y-40500000I0J-50000D01*
G01*
X127050000Y-41400000D01*
G75*
G02*
X127000000Y-41450000I-50000J0D01*
G01*
G37*
G36*
G01*
X146000000Y-97525000D02*
X144800000Y-97525000D01*
G75*
G02*
X144750000Y-97475000I0J50000D01*
G01*
X144750000Y-96575000D01*
G75*
G02*
X144800000Y-96525000I50000J0D01*
G01*
X146000000Y-96525000D01*
G75*
G02*
X146050000Y-96575000I0J-50000D01*
G01*
X146050000Y-97475000D01*
G75*
G02*
X146000000Y-97525000I-50000J0D01*
G01*
G37*
G36*
G01*
X146000000Y-100825000D02*
X144800000Y-100825000D01*
G75*
G02*
X144750000Y-100775000I0J50000D01*
G01*
X144750000Y-99875000D01*
G75*
G02*
X144800000Y-99825000I50000J0D01*
G01*
X146000000Y-99825000D01*
G75*
G02*
X146050000Y-99875000I0J-50000D01*
G01*
X146050000Y-100775000D01*
G75*
G02*
X146000000Y-100825000I-50000J0D01*
G01*
G37*
G36*
G01*
X146000000Y-78525000D02*
X144800000Y-78525000D01*
G75*
G02*
X144750000Y-78475000I0J50000D01*
G01*
X144750000Y-77575000D01*
G75*
G02*
X144800000Y-77525000I50000J0D01*
G01*
X146000000Y-77525000D01*
G75*
G02*
X146050000Y-77575000I0J-50000D01*
G01*
X146050000Y-78475000D01*
G75*
G02*
X146000000Y-78525000I-50000J0D01*
G01*
G37*
G36*
G01*
X146000000Y-81825000D02*
X144800000Y-81825000D01*
G75*
G02*
X144750000Y-81775000I0J50000D01*
G01*
X144750000Y-80875000D01*
G75*
G02*
X144800000Y-80825000I50000J0D01*
G01*
X146000000Y-80825000D01*
G75*
G02*
X146050000Y-80875000I0J-50000D01*
G01*
X146050000Y-81775000D01*
G75*
G02*
X146000000Y-81825000I-50000J0D01*
G01*
G37*
G36*
G01*
X146000000Y-59525000D02*
X144800000Y-59525000D01*
G75*
G02*
X144750000Y-59475000I0J50000D01*
G01*
X144750000Y-58575000D01*
G75*
G02*
X144800000Y-58525000I50000J0D01*
G01*
X146000000Y-58525000D01*
G75*
G02*
X146050000Y-58575000I0J-50000D01*
G01*
X146050000Y-59475000D01*
G75*
G02*
X146000000Y-59525000I-50000J0D01*
G01*
G37*
G36*
G01*
X146000000Y-62825000D02*
X144800000Y-62825000D01*
G75*
G02*
X144750000Y-62775000I0J50000D01*
G01*
X144750000Y-61875000D01*
G75*
G02*
X144800000Y-61825000I50000J0D01*
G01*
X146000000Y-61825000D01*
G75*
G02*
X146050000Y-61875000I0J-50000D01*
G01*
X146050000Y-62775000D01*
G75*
G02*
X146000000Y-62825000I-50000J0D01*
G01*
G37*
G36*
G01*
X146000000Y-40525000D02*
X144800000Y-40525000D01*
G75*
G02*
X144750000Y-40475000I0J50000D01*
G01*
X144750000Y-39575000D01*
G75*
G02*
X144800000Y-39525000I50000J0D01*
G01*
X146000000Y-39525000D01*
G75*
G02*
X146050000Y-39575000I0J-50000D01*
G01*
X146050000Y-40475000D01*
G75*
G02*
X146000000Y-40525000I-50000J0D01*
G01*
G37*
G36*
G01*
X146000000Y-43825000D02*
X144800000Y-43825000D01*
G75*
G02*
X144750000Y-43775000I0J50000D01*
G01*
X144750000Y-42875000D01*
G75*
G02*
X144800000Y-42825000I50000J0D01*
G01*
X146000000Y-42825000D01*
G75*
G02*
X146050000Y-42875000I0J-50000D01*
G01*
X146050000Y-43775000D01*
G75*
G02*
X146000000Y-43825000I-50000J0D01*
G01*
G37*
G36*
G01*
X165000000Y-95150000D02*
X163800000Y-95150000D01*
G75*
G02*
X163750000Y-95100000I0J50000D01*
G01*
X163750000Y-94200000D01*
G75*
G02*
X163800000Y-94150000I50000J0D01*
G01*
X165000000Y-94150000D01*
G75*
G02*
X165050000Y-94200000I0J-50000D01*
G01*
X165050000Y-95100000D01*
G75*
G02*
X165000000Y-95150000I-50000J0D01*
G01*
G37*
G36*
G01*
X165000000Y-98450000D02*
X163800000Y-98450000D01*
G75*
G02*
X163750000Y-98400000I0J50000D01*
G01*
X163750000Y-97500000D01*
G75*
G02*
X163800000Y-97450000I50000J0D01*
G01*
X165000000Y-97450000D01*
G75*
G02*
X165050000Y-97500000I0J-50000D01*
G01*
X165050000Y-98400000D01*
G75*
G02*
X165000000Y-98450000I-50000J0D01*
G01*
G37*
G36*
G01*
X165000000Y-76150000D02*
X163800000Y-76150000D01*
G75*
G02*
X163750000Y-76100000I0J50000D01*
G01*
X163750000Y-75200000D01*
G75*
G02*
X163800000Y-75150000I50000J0D01*
G01*
X165000000Y-75150000D01*
G75*
G02*
X165050000Y-75200000I0J-50000D01*
G01*
X165050000Y-76100000D01*
G75*
G02*
X165000000Y-76150000I-50000J0D01*
G01*
G37*
G36*
G01*
X165000000Y-79450000D02*
X163800000Y-79450000D01*
G75*
G02*
X163750000Y-79400000I0J50000D01*
G01*
X163750000Y-78500000D01*
G75*
G02*
X163800000Y-78450000I50000J0D01*
G01*
X165000000Y-78450000D01*
G75*
G02*
X165050000Y-78500000I0J-50000D01*
G01*
X165050000Y-79400000D01*
G75*
G02*
X165000000Y-79450000I-50000J0D01*
G01*
G37*
G36*
G01*
X165000000Y-57150000D02*
X163800000Y-57150000D01*
G75*
G02*
X163750000Y-57100000I0J50000D01*
G01*
X163750000Y-56200000D01*
G75*
G02*
X163800000Y-56150000I50000J0D01*
G01*
X165000000Y-56150000D01*
G75*
G02*
X165050000Y-56200000I0J-50000D01*
G01*
X165050000Y-57100000D01*
G75*
G02*
X165000000Y-57150000I-50000J0D01*
G01*
G37*
G36*
G01*
X165000000Y-60450000D02*
X163800000Y-60450000D01*
G75*
G02*
X163750000Y-60400000I0J50000D01*
G01*
X163750000Y-59500000D01*
G75*
G02*
X163800000Y-59450000I50000J0D01*
G01*
X165000000Y-59450000D01*
G75*
G02*
X165050000Y-59500000I0J-50000D01*
G01*
X165050000Y-60400000D01*
G75*
G02*
X165000000Y-60450000I-50000J0D01*
G01*
G37*
G36*
G01*
X165000000Y-38150000D02*
X163800000Y-38150000D01*
G75*
G02*
X163750000Y-38100000I0J50000D01*
G01*
X163750000Y-37200000D01*
G75*
G02*
X163800000Y-37150000I50000J0D01*
G01*
X165000000Y-37150000D01*
G75*
G02*
X165050000Y-37200000I0J-50000D01*
G01*
X165050000Y-38100000D01*
G75*
G02*
X165000000Y-38150000I-50000J0D01*
G01*
G37*
G36*
G01*
X165000000Y-41450000D02*
X163800000Y-41450000D01*
G75*
G02*
X163750000Y-41400000I0J50000D01*
G01*
X163750000Y-40500000D01*
G75*
G02*
X163800000Y-40450000I50000J0D01*
G01*
X165000000Y-40450000D01*
G75*
G02*
X165050000Y-40500000I0J-50000D01*
G01*
X165050000Y-41400000D01*
G75*
G02*
X165000000Y-41450000I-50000J0D01*
G01*
G37*
G36*
G01*
X184000000Y-97525000D02*
X182800000Y-97525000D01*
G75*
G02*
X182750000Y-97475000I0J50000D01*
G01*
X182750000Y-96575000D01*
G75*
G02*
X182800000Y-96525000I50000J0D01*
G01*
X184000000Y-96525000D01*
G75*
G02*
X184050000Y-96575000I0J-50000D01*
G01*
X184050000Y-97475000D01*
G75*
G02*
X184000000Y-97525000I-50000J0D01*
G01*
G37*
G36*
G01*
X184000000Y-100825000D02*
X182800000Y-100825000D01*
G75*
G02*
X182750000Y-100775000I0J50000D01*
G01*
X182750000Y-99875000D01*
G75*
G02*
X182800000Y-99825000I50000J0D01*
G01*
X184000000Y-99825000D01*
G75*
G02*
X184050000Y-99875000I0J-50000D01*
G01*
X184050000Y-100775000D01*
G75*
G02*
X184000000Y-100825000I-50000J0D01*
G01*
G37*
G36*
G01*
X184000000Y-78525000D02*
X182800000Y-78525000D01*
G75*
G02*
X182750000Y-78475000I0J50000D01*
G01*
X182750000Y-77575000D01*
G75*
G02*
X182800000Y-77525000I50000J0D01*
G01*
X184000000Y-77525000D01*
G75*
G02*
X184050000Y-77575000I0J-50000D01*
G01*
X184050000Y-78475000D01*
G75*
G02*
X184000000Y-78525000I-50000J0D01*
G01*
G37*
G36*
G01*
X184000000Y-81825000D02*
X182800000Y-81825000D01*
G75*
G02*
X182750000Y-81775000I0J50000D01*
G01*
X182750000Y-80875000D01*
G75*
G02*
X182800000Y-80825000I50000J0D01*
G01*
X184000000Y-80825000D01*
G75*
G02*
X184050000Y-80875000I0J-50000D01*
G01*
X184050000Y-81775000D01*
G75*
G02*
X184000000Y-81825000I-50000J0D01*
G01*
G37*
G36*
G01*
X184000000Y-59525000D02*
X182800000Y-59525000D01*
G75*
G02*
X182750000Y-59475000I0J50000D01*
G01*
X182750000Y-58575000D01*
G75*
G02*
X182800000Y-58525000I50000J0D01*
G01*
X184000000Y-58525000D01*
G75*
G02*
X184050000Y-58575000I0J-50000D01*
G01*
X184050000Y-59475000D01*
G75*
G02*
X184000000Y-59525000I-50000J0D01*
G01*
G37*
G36*
G01*
X184000000Y-62825000D02*
X182800000Y-62825000D01*
G75*
G02*
X182750000Y-62775000I0J50000D01*
G01*
X182750000Y-61875000D01*
G75*
G02*
X182800000Y-61825000I50000J0D01*
G01*
X184000000Y-61825000D01*
G75*
G02*
X184050000Y-61875000I0J-50000D01*
G01*
X184050000Y-62775000D01*
G75*
G02*
X184000000Y-62825000I-50000J0D01*
G01*
G37*
G36*
G01*
X184000000Y-40525000D02*
X182800000Y-40525000D01*
G75*
G02*
X182750000Y-40475000I0J50000D01*
G01*
X182750000Y-39575000D01*
G75*
G02*
X182800000Y-39525000I50000J0D01*
G01*
X184000000Y-39525000D01*
G75*
G02*
X184050000Y-39575000I0J-50000D01*
G01*
X184050000Y-40475000D01*
G75*
G02*
X184000000Y-40525000I-50000J0D01*
G01*
G37*
G36*
G01*
X184000000Y-43825000D02*
X182800000Y-43825000D01*
G75*
G02*
X182750000Y-43775000I0J50000D01*
G01*
X182750000Y-42875000D01*
G75*
G02*
X182800000Y-42825000I50000J0D01*
G01*
X184000000Y-42825000D01*
G75*
G02*
X184050000Y-42875000I0J-50000D01*
G01*
X184050000Y-43775000D01*
G75*
G02*
X184000000Y-43825000I-50000J0D01*
G01*
G37*
G36*
G01*
X203000000Y-80900000D02*
X201800000Y-80900000D01*
G75*
G02*
X201750000Y-80850000I0J50000D01*
G01*
X201750000Y-79950000D01*
G75*
G02*
X201800000Y-79900000I50000J0D01*
G01*
X203000000Y-79900000D01*
G75*
G02*
X203050000Y-79950000I0J-50000D01*
G01*
X203050000Y-80850000D01*
G75*
G02*
X203000000Y-80900000I-50000J0D01*
G01*
G37*
G36*
G01*
X203000000Y-84200000D02*
X201800000Y-84200000D01*
G75*
G02*
X201750000Y-84150000I0J50000D01*
G01*
X201750000Y-83250000D01*
G75*
G02*
X201800000Y-83200000I50000J0D01*
G01*
X203000000Y-83200000D01*
G75*
G02*
X203050000Y-83250000I0J-50000D01*
G01*
X203050000Y-84150000D01*
G75*
G02*
X203000000Y-84200000I-50000J0D01*
G01*
G37*
G36*
G01*
X203000000Y-61900000D02*
X201800000Y-61900000D01*
G75*
G02*
X201750000Y-61850000I0J50000D01*
G01*
X201750000Y-60950000D01*
G75*
G02*
X201800000Y-60900000I50000J0D01*
G01*
X203000000Y-60900000D01*
G75*
G02*
X203050000Y-60950000I0J-50000D01*
G01*
X203050000Y-61850000D01*
G75*
G02*
X203000000Y-61900000I-50000J0D01*
G01*
G37*
G36*
G01*
X203000000Y-65200000D02*
X201800000Y-65200000D01*
G75*
G02*
X201750000Y-65150000I0J50000D01*
G01*
X201750000Y-64250000D01*
G75*
G02*
X201800000Y-64200000I50000J0D01*
G01*
X203000000Y-64200000D01*
G75*
G02*
X203050000Y-64250000I0J-50000D01*
G01*
X203050000Y-65150000D01*
G75*
G02*
X203000000Y-65200000I-50000J0D01*
G01*
G37*
G36*
G01*
X203000000Y-42900000D02*
X201800000Y-42900000D01*
G75*
G02*
X201750000Y-42850000I0J50000D01*
G01*
X201750000Y-41950000D01*
G75*
G02*
X201800000Y-41900000I50000J0D01*
G01*
X203000000Y-41900000D01*
G75*
G02*
X203050000Y-41950000I0J-50000D01*
G01*
X203050000Y-42850000D01*
G75*
G02*
X203000000Y-42900000I-50000J0D01*
G01*
G37*
G36*
G01*
X203000000Y-46200000D02*
X201800000Y-46200000D01*
G75*
G02*
X201750000Y-46150000I0J50000D01*
G01*
X201750000Y-45250000D01*
G75*
G02*
X201800000Y-45200000I50000J0D01*
G01*
X203000000Y-45200000D01*
G75*
G02*
X203050000Y-45250000I0J-50000D01*
G01*
X203050000Y-46150000D01*
G75*
G02*
X203000000Y-46200000I-50000J0D01*
G01*
G37*
G36*
G01*
X199706586Y-100574297D02*
X199106586Y-101613527D01*
G75*
G02*
X199038285Y-101631828I-43301J25000D01*
G01*
X198258863Y-101181828D01*
G75*
G02*
X198240562Y-101113527I25000J43301D01*
G01*
X198840562Y-100074297D01*
G75*
G02*
X198908863Y-100055996I43301J-25000D01*
G01*
X199688285Y-100505996D01*
G75*
G02*
X199706586Y-100574297I-25000J-43301D01*
G01*
G37*
G36*
G01*
X202564470Y-102224297D02*
X201964470Y-103263527D01*
G75*
G02*
X201896169Y-103281828I-43301J25000D01*
G01*
X201116747Y-102831828D01*
G75*
G02*
X201098446Y-102763527I25000J43301D01*
G01*
X201698446Y-101724297D01*
G75*
G02*
X201766747Y-101705996I43301J-25000D01*
G01*
X202546169Y-102155996D01*
G75*
G02*
X202564470Y-102224297I-25000J-43301D01*
G01*
G37*
G36*
G01*
X216161069Y-110074297D02*
X215561069Y-111113527D01*
G75*
G02*
X215492768Y-111131828I-43301J25000D01*
G01*
X214713346Y-110681828D01*
G75*
G02*
X214695045Y-110613527I25000J43301D01*
G01*
X215295045Y-109574297D01*
G75*
G02*
X215363346Y-109555996I43301J-25000D01*
G01*
X216142768Y-110005996D01*
G75*
G02*
X216161069Y-110074297I-25000J-43301D01*
G01*
G37*
G36*
G01*
X219018953Y-111724297D02*
X218418953Y-112763527D01*
G75*
G02*
X218350652Y-112781828I-43301J25000D01*
G01*
X217571230Y-112331828D01*
G75*
G02*
X217552929Y-112263527I25000J43301D01*
G01*
X218152929Y-111224297D01*
G75*
G02*
X218221230Y-111205996I43301J-25000D01*
G01*
X219000652Y-111655996D01*
G75*
G02*
X219018953Y-111724297I-25000J-43301D01*
G01*
G37*
D12*
X100000000Y-100000000D03*
D13*
X105080000Y-100000000D03*
X94920000Y-100000000D03*
D14*
X97460000Y-94920000D03*
X103810000Y-97460000D03*
D12*
X100000000Y-81000000D03*
D13*
X105080000Y-81000000D03*
X94920000Y-81000000D03*
D14*
X97460000Y-75920000D03*
X103810000Y-78460000D03*
D12*
X100000000Y-62000000D03*
D13*
X105080000Y-62000000D03*
X94920000Y-62000000D03*
D14*
X97460000Y-56920000D03*
X103810000Y-59460000D03*
D12*
X100000000Y-43000000D03*
D13*
X105080000Y-43000000D03*
X94920000Y-43000000D03*
D14*
X97460000Y-37920000D03*
X103810000Y-40460000D03*
D12*
X119000000Y-97625000D03*
D13*
X124080000Y-97625000D03*
X113920000Y-97625000D03*
D14*
X116460000Y-92545000D03*
X122810000Y-95085000D03*
D12*
X119000000Y-78625000D03*
D13*
X124080000Y-78625000D03*
X113920000Y-78625000D03*
D14*
X116460000Y-73545000D03*
X122810000Y-76085000D03*
D12*
X119000000Y-59625000D03*
D13*
X124080000Y-59625000D03*
X113920000Y-59625000D03*
D14*
X116460000Y-54545000D03*
X122810000Y-57085000D03*
D12*
X119000000Y-40625000D03*
D13*
X124080000Y-40625000D03*
X113920000Y-40625000D03*
D14*
X116460000Y-35545000D03*
X122810000Y-38085000D03*
D12*
X138000000Y-100000000D03*
D13*
X143080000Y-100000000D03*
X132920000Y-100000000D03*
D14*
X135460000Y-94920000D03*
X141810000Y-97460000D03*
D12*
X138000000Y-81000000D03*
D13*
X143080000Y-81000000D03*
X132920000Y-81000000D03*
D14*
X135460000Y-75920000D03*
X141810000Y-78460000D03*
D12*
X138000000Y-62000000D03*
D13*
X143080000Y-62000000D03*
X132920000Y-62000000D03*
D14*
X135460000Y-56920000D03*
X141810000Y-59460000D03*
D12*
X138000000Y-43000000D03*
D13*
X143080000Y-43000000D03*
X132920000Y-43000000D03*
D14*
X135460000Y-37920000D03*
X141810000Y-40460000D03*
D12*
X157000000Y-97625000D03*
D13*
X162080000Y-97625000D03*
X151920000Y-97625000D03*
D14*
X154460000Y-92545000D03*
X160810000Y-95085000D03*
D12*
X157000000Y-78625000D03*
D13*
X162080000Y-78625000D03*
X151920000Y-78625000D03*
D14*
X154460000Y-73545000D03*
X160810000Y-76085000D03*
D12*
X157000000Y-59625000D03*
D13*
X162080000Y-59625000D03*
X151920000Y-59625000D03*
D14*
X154460000Y-54545000D03*
X160810000Y-57085000D03*
D12*
X157000000Y-40625000D03*
D13*
X162080000Y-40625000D03*
X151920000Y-40625000D03*
D14*
X154460000Y-35545000D03*
X160810000Y-38085000D03*
D12*
X176000000Y-100000000D03*
D13*
X181080000Y-100000000D03*
X170920000Y-100000000D03*
D14*
X173460000Y-94920000D03*
X179810000Y-97460000D03*
D12*
X176000000Y-81000000D03*
D13*
X181080000Y-81000000D03*
X170920000Y-81000000D03*
D14*
X173460000Y-75920000D03*
X179810000Y-78460000D03*
D12*
X176000000Y-62000000D03*
D13*
X181080000Y-62000000D03*
X170920000Y-62000000D03*
D14*
X173460000Y-56920000D03*
X179810000Y-59460000D03*
D12*
X176000000Y-43000000D03*
D13*
X181080000Y-43000000D03*
X170920000Y-43000000D03*
D14*
X173460000Y-37920000D03*
X179810000Y-40460000D03*
D12*
X195000000Y-83375000D03*
D13*
X200080000Y-83375000D03*
X189920000Y-83375000D03*
D14*
X192460000Y-78295000D03*
X198810000Y-80835000D03*
D12*
X195000000Y-64375000D03*
D13*
X200080000Y-64375000D03*
X189920000Y-64375000D03*
D14*
X192460000Y-59295000D03*
X198810000Y-61835000D03*
D12*
X195000000Y-45375000D03*
D13*
X200080000Y-45375000D03*
X189920000Y-45375000D03*
D14*
X192460000Y-40295000D03*
X198810000Y-42835000D03*
D12*
X197850000Y-108740000D03*
D13*
X200390000Y-104340591D03*
X195310000Y-113139409D03*
D14*
X192180591Y-108399705D03*
X197555295Y-104170443D03*
D12*
X214304483Y-118240000D03*
D13*
X216844483Y-113840591D03*
X211764483Y-122639409D03*
D14*
X208635074Y-117899705D03*
X214009778Y-113670443D03*
D15*
X210084000Y-43920000D03*
X225324000Y-43920000D03*
D16*
X214304000Y-43920000D03*
X221104000Y-43920000D03*
G36*
G01*
X211874000Y-44520000D02*
X211874000Y-43320000D01*
G75*
G02*
X211924000Y-43270000I50000J0D01*
G01*
X212524000Y-43270000D01*
G75*
G02*
X212574000Y-43320000I0J-50000D01*
G01*
X212574000Y-44520000D01*
G75*
G02*
X212524000Y-44570000I-50000J0D01*
G01*
X211924000Y-44570000D01*
G75*
G02*
X211874000Y-44520000I0J50000D01*
G01*
G37*
G36*
G01*
X212774000Y-44520000D02*
X212774000Y-43320000D01*
G75*
G02*
X212824000Y-43270000I50000J0D01*
G01*
X213424000Y-43270000D01*
G75*
G02*
X213474000Y-43320000I0J-50000D01*
G01*
X213474000Y-44520000D01*
G75*
G02*
X213424000Y-44570000I-50000J0D01*
G01*
X212824000Y-44570000D01*
G75*
G02*
X212774000Y-44520000I0J50000D01*
G01*
G37*
G36*
G01*
X221934000Y-44520000D02*
X221934000Y-43320000D01*
G75*
G02*
X221984000Y-43270000I50000J0D01*
G01*
X222584000Y-43270000D01*
G75*
G02*
X222634000Y-43320000I0J-50000D01*
G01*
X222634000Y-44520000D01*
G75*
G02*
X222584000Y-44570000I-50000J0D01*
G01*
X221984000Y-44570000D01*
G75*
G02*
X221934000Y-44520000I0J50000D01*
G01*
G37*
G36*
G01*
X222834000Y-44520000D02*
X222834000Y-43320000D01*
G75*
G02*
X222884000Y-43270000I50000J0D01*
G01*
X223484000Y-43270000D01*
G75*
G02*
X223534000Y-43320000I0J-50000D01*
G01*
X223534000Y-44520000D01*
G75*
G02*
X223484000Y-44570000I-50000J0D01*
G01*
X222884000Y-44570000D01*
G75*
G02*
X222834000Y-44520000I0J50000D01*
G01*
G37*
D15*
X210084000Y-46460000D03*
X225324000Y-46460000D03*
D16*
X214304000Y-46460000D03*
X221104000Y-46460000D03*
G36*
G01*
X211874000Y-47060000D02*
X211874000Y-45860000D01*
G75*
G02*
X211924000Y-45810000I50000J0D01*
G01*
X212524000Y-45810000D01*
G75*
G02*
X212574000Y-45860000I0J-50000D01*
G01*
X212574000Y-47060000D01*
G75*
G02*
X212524000Y-47110000I-50000J0D01*
G01*
X211924000Y-47110000D01*
G75*
G02*
X211874000Y-47060000I0J50000D01*
G01*
G37*
G36*
G01*
X212774000Y-47060000D02*
X212774000Y-45860000D01*
G75*
G02*
X212824000Y-45810000I50000J0D01*
G01*
X213424000Y-45810000D01*
G75*
G02*
X213474000Y-45860000I0J-50000D01*
G01*
X213474000Y-47060000D01*
G75*
G02*
X213424000Y-47110000I-50000J0D01*
G01*
X212824000Y-47110000D01*
G75*
G02*
X212774000Y-47060000I0J50000D01*
G01*
G37*
G36*
G01*
X221934000Y-47060000D02*
X221934000Y-45860000D01*
G75*
G02*
X221984000Y-45810000I50000J0D01*
G01*
X222584000Y-45810000D01*
G75*
G02*
X222634000Y-45860000I0J-50000D01*
G01*
X222634000Y-47060000D01*
G75*
G02*
X222584000Y-47110000I-50000J0D01*
G01*
X221984000Y-47110000D01*
G75*
G02*
X221934000Y-47060000I0J50000D01*
G01*
G37*
G36*
G01*
X222834000Y-47060000D02*
X222834000Y-45860000D01*
G75*
G02*
X222884000Y-45810000I50000J0D01*
G01*
X223484000Y-45810000D01*
G75*
G02*
X223534000Y-45860000I0J-50000D01*
G01*
X223534000Y-47060000D01*
G75*
G02*
X223484000Y-47110000I-50000J0D01*
G01*
X222884000Y-47110000D01*
G75*
G02*
X222834000Y-47060000I0J50000D01*
G01*
G37*
D15*
X210084000Y-49000000D03*
X225324000Y-49000000D03*
D16*
X214304000Y-49000000D03*
X221104000Y-49000000D03*
G36*
G01*
X211874000Y-49600000D02*
X211874000Y-48400000D01*
G75*
G02*
X211924000Y-48350000I50000J0D01*
G01*
X212524000Y-48350000D01*
G75*
G02*
X212574000Y-48400000I0J-50000D01*
G01*
X212574000Y-49600000D01*
G75*
G02*
X212524000Y-49650000I-50000J0D01*
G01*
X211924000Y-49650000D01*
G75*
G02*
X211874000Y-49600000I0J50000D01*
G01*
G37*
G36*
G01*
X212774000Y-49600000D02*
X212774000Y-48400000D01*
G75*
G02*
X212824000Y-48350000I50000J0D01*
G01*
X213424000Y-48350000D01*
G75*
G02*
X213474000Y-48400000I0J-50000D01*
G01*
X213474000Y-49600000D01*
G75*
G02*
X213424000Y-49650000I-50000J0D01*
G01*
X212824000Y-49650000D01*
G75*
G02*
X212774000Y-49600000I0J50000D01*
G01*
G37*
G36*
G01*
X221934000Y-49600000D02*
X221934000Y-48400000D01*
G75*
G02*
X221984000Y-48350000I50000J0D01*
G01*
X222584000Y-48350000D01*
G75*
G02*
X222634000Y-48400000I0J-50000D01*
G01*
X222634000Y-49600000D01*
G75*
G02*
X222584000Y-49650000I-50000J0D01*
G01*
X221984000Y-49650000D01*
G75*
G02*
X221934000Y-49600000I0J50000D01*
G01*
G37*
G36*
G01*
X222834000Y-49600000D02*
X222834000Y-48400000D01*
G75*
G02*
X222884000Y-48350000I50000J0D01*
G01*
X223484000Y-48350000D01*
G75*
G02*
X223534000Y-48400000I0J-50000D01*
G01*
X223534000Y-49600000D01*
G75*
G02*
X223484000Y-49650000I-50000J0D01*
G01*
X222884000Y-49650000D01*
G75*
G02*
X222834000Y-49600000I0J50000D01*
G01*
G37*
D15*
X210084000Y-51540000D03*
X225324000Y-51540000D03*
D16*
X214304000Y-51540000D03*
X221104000Y-51540000D03*
G36*
G01*
X211874000Y-52140000D02*
X211874000Y-50940000D01*
G75*
G02*
X211924000Y-50890000I50000J0D01*
G01*
X212524000Y-50890000D01*
G75*
G02*
X212574000Y-50940000I0J-50000D01*
G01*
X212574000Y-52140000D01*
G75*
G02*
X212524000Y-52190000I-50000J0D01*
G01*
X211924000Y-52190000D01*
G75*
G02*
X211874000Y-52140000I0J50000D01*
G01*
G37*
G36*
G01*
X212774000Y-52140000D02*
X212774000Y-50940000D01*
G75*
G02*
X212824000Y-50890000I50000J0D01*
G01*
X213424000Y-50890000D01*
G75*
G02*
X213474000Y-50940000I0J-50000D01*
G01*
X213474000Y-52140000D01*
G75*
G02*
X213424000Y-52190000I-50000J0D01*
G01*
X212824000Y-52190000D01*
G75*
G02*
X212774000Y-52140000I0J50000D01*
G01*
G37*
G36*
G01*
X221934000Y-52140000D02*
X221934000Y-50940000D01*
G75*
G02*
X221984000Y-50890000I50000J0D01*
G01*
X222584000Y-50890000D01*
G75*
G02*
X222634000Y-50940000I0J-50000D01*
G01*
X222634000Y-52140000D01*
G75*
G02*
X222584000Y-52190000I-50000J0D01*
G01*
X221984000Y-52190000D01*
G75*
G02*
X221934000Y-52140000I0J50000D01*
G01*
G37*
G36*
G01*
X222834000Y-52140000D02*
X222834000Y-50940000D01*
G75*
G02*
X222884000Y-50890000I50000J0D01*
G01*
X223484000Y-50890000D01*
G75*
G02*
X223534000Y-50940000I0J-50000D01*
G01*
X223534000Y-52140000D01*
G75*
G02*
X223484000Y-52190000I-50000J0D01*
G01*
X222884000Y-52190000D01*
G75*
G02*
X222834000Y-52140000I0J50000D01*
G01*
G37*
D15*
X210084000Y-54080000D03*
X225324000Y-54080000D03*
D16*
X214304000Y-54080000D03*
X221104000Y-54080000D03*
G36*
G01*
X211874000Y-54680000D02*
X211874000Y-53480000D01*
G75*
G02*
X211924000Y-53430000I50000J0D01*
G01*
X212524000Y-53430000D01*
G75*
G02*
X212574000Y-53480000I0J-50000D01*
G01*
X212574000Y-54680000D01*
G75*
G02*
X212524000Y-54730000I-50000J0D01*
G01*
X211924000Y-54730000D01*
G75*
G02*
X211874000Y-54680000I0J50000D01*
G01*
G37*
G36*
G01*
X212774000Y-54680000D02*
X212774000Y-53480000D01*
G75*
G02*
X212824000Y-53430000I50000J0D01*
G01*
X213424000Y-53430000D01*
G75*
G02*
X213474000Y-53480000I0J-50000D01*
G01*
X213474000Y-54680000D01*
G75*
G02*
X213424000Y-54730000I-50000J0D01*
G01*
X212824000Y-54730000D01*
G75*
G02*
X212774000Y-54680000I0J50000D01*
G01*
G37*
G36*
G01*
X221934000Y-54680000D02*
X221934000Y-53480000D01*
G75*
G02*
X221984000Y-53430000I50000J0D01*
G01*
X222584000Y-53430000D01*
G75*
G02*
X222634000Y-53480000I0J-50000D01*
G01*
X222634000Y-54680000D01*
G75*
G02*
X222584000Y-54730000I-50000J0D01*
G01*
X221984000Y-54730000D01*
G75*
G02*
X221934000Y-54680000I0J50000D01*
G01*
G37*
G36*
G01*
X222834000Y-54680000D02*
X222834000Y-53480000D01*
G75*
G02*
X222884000Y-53430000I50000J0D01*
G01*
X223484000Y-53430000D01*
G75*
G02*
X223534000Y-53480000I0J-50000D01*
G01*
X223534000Y-54680000D01*
G75*
G02*
X223484000Y-54730000I-50000J0D01*
G01*
X222884000Y-54730000D01*
G75*
G02*
X222834000Y-54680000I0J50000D01*
G01*
G37*
D15*
X210084000Y-56620000D03*
X225324000Y-56620000D03*
D16*
X214304000Y-56620000D03*
X221104000Y-56620000D03*
G36*
G01*
X211874000Y-57220000D02*
X211874000Y-56020000D01*
G75*
G02*
X211924000Y-55970000I50000J0D01*
G01*
X212524000Y-55970000D01*
G75*
G02*
X212574000Y-56020000I0J-50000D01*
G01*
X212574000Y-57220000D01*
G75*
G02*
X212524000Y-57270000I-50000J0D01*
G01*
X211924000Y-57270000D01*
G75*
G02*
X211874000Y-57220000I0J50000D01*
G01*
G37*
G36*
G01*
X212774000Y-57220000D02*
X212774000Y-56020000D01*
G75*
G02*
X212824000Y-55970000I50000J0D01*
G01*
X213424000Y-55970000D01*
G75*
G02*
X213474000Y-56020000I0J-50000D01*
G01*
X213474000Y-57220000D01*
G75*
G02*
X213424000Y-57270000I-50000J0D01*
G01*
X212824000Y-57270000D01*
G75*
G02*
X212774000Y-57220000I0J50000D01*
G01*
G37*
G36*
G01*
X221934000Y-57220000D02*
X221934000Y-56020000D01*
G75*
G02*
X221984000Y-55970000I50000J0D01*
G01*
X222584000Y-55970000D01*
G75*
G02*
X222634000Y-56020000I0J-50000D01*
G01*
X222634000Y-57220000D01*
G75*
G02*
X222584000Y-57270000I-50000J0D01*
G01*
X221984000Y-57270000D01*
G75*
G02*
X221934000Y-57220000I0J50000D01*
G01*
G37*
G36*
G01*
X222834000Y-57220000D02*
X222834000Y-56020000D01*
G75*
G02*
X222884000Y-55970000I50000J0D01*
G01*
X223484000Y-55970000D01*
G75*
G02*
X223534000Y-56020000I0J-50000D01*
G01*
X223534000Y-57220000D01*
G75*
G02*
X223484000Y-57270000I-50000J0D01*
G01*
X222884000Y-57270000D01*
G75*
G02*
X222834000Y-57220000I0J50000D01*
G01*
G37*
D15*
X210084000Y-59160000D03*
X225324000Y-59160000D03*
D16*
X214304000Y-59160000D03*
X221104000Y-59160000D03*
G36*
G01*
X211874000Y-59760000D02*
X211874000Y-58560000D01*
G75*
G02*
X211924000Y-58510000I50000J0D01*
G01*
X212524000Y-58510000D01*
G75*
G02*
X212574000Y-58560000I0J-50000D01*
G01*
X212574000Y-59760000D01*
G75*
G02*
X212524000Y-59810000I-50000J0D01*
G01*
X211924000Y-59810000D01*
G75*
G02*
X211874000Y-59760000I0J50000D01*
G01*
G37*
G36*
G01*
X212774000Y-59760000D02*
X212774000Y-58560000D01*
G75*
G02*
X212824000Y-58510000I50000J0D01*
G01*
X213424000Y-58510000D01*
G75*
G02*
X213474000Y-58560000I0J-50000D01*
G01*
X213474000Y-59760000D01*
G75*
G02*
X213424000Y-59810000I-50000J0D01*
G01*
X212824000Y-59810000D01*
G75*
G02*
X212774000Y-59760000I0J50000D01*
G01*
G37*
G36*
G01*
X221934000Y-59760000D02*
X221934000Y-58560000D01*
G75*
G02*
X221984000Y-58510000I50000J0D01*
G01*
X222584000Y-58510000D01*
G75*
G02*
X222634000Y-58560000I0J-50000D01*
G01*
X222634000Y-59760000D01*
G75*
G02*
X222584000Y-59810000I-50000J0D01*
G01*
X221984000Y-59810000D01*
G75*
G02*
X221934000Y-59760000I0J50000D01*
G01*
G37*
G36*
G01*
X222834000Y-59760000D02*
X222834000Y-58560000D01*
G75*
G02*
X222884000Y-58510000I50000J0D01*
G01*
X223484000Y-58510000D01*
G75*
G02*
X223534000Y-58560000I0J-50000D01*
G01*
X223534000Y-59760000D01*
G75*
G02*
X223484000Y-59810000I-50000J0D01*
G01*
X222884000Y-59810000D01*
G75*
G02*
X222834000Y-59760000I0J50000D01*
G01*
G37*
D15*
X210084000Y-61700000D03*
X225324000Y-61700000D03*
D16*
X214304000Y-61700000D03*
X221104000Y-61700000D03*
G36*
G01*
X211874000Y-62300000D02*
X211874000Y-61100000D01*
G75*
G02*
X211924000Y-61050000I50000J0D01*
G01*
X212524000Y-61050000D01*
G75*
G02*
X212574000Y-61100000I0J-50000D01*
G01*
X212574000Y-62300000D01*
G75*
G02*
X212524000Y-62350000I-50000J0D01*
G01*
X211924000Y-62350000D01*
G75*
G02*
X211874000Y-62300000I0J50000D01*
G01*
G37*
G36*
G01*
X212774000Y-62300000D02*
X212774000Y-61100000D01*
G75*
G02*
X212824000Y-61050000I50000J0D01*
G01*
X213424000Y-61050000D01*
G75*
G02*
X213474000Y-61100000I0J-50000D01*
G01*
X213474000Y-62300000D01*
G75*
G02*
X213424000Y-62350000I-50000J0D01*
G01*
X212824000Y-62350000D01*
G75*
G02*
X212774000Y-62300000I0J50000D01*
G01*
G37*
G36*
G01*
X221934000Y-62300000D02*
X221934000Y-61100000D01*
G75*
G02*
X221984000Y-61050000I50000J0D01*
G01*
X222584000Y-61050000D01*
G75*
G02*
X222634000Y-61100000I0J-50000D01*
G01*
X222634000Y-62300000D01*
G75*
G02*
X222584000Y-62350000I-50000J0D01*
G01*
X221984000Y-62350000D01*
G75*
G02*
X221934000Y-62300000I0J50000D01*
G01*
G37*
G36*
G01*
X222834000Y-62300000D02*
X222834000Y-61100000D01*
G75*
G02*
X222884000Y-61050000I50000J0D01*
G01*
X223484000Y-61050000D01*
G75*
G02*
X223534000Y-61100000I0J-50000D01*
G01*
X223534000Y-62300000D01*
G75*
G02*
X223484000Y-62350000I-50000J0D01*
G01*
X222884000Y-62350000D01*
G75*
G02*
X222834000Y-62300000I0J50000D01*
G01*
G37*
D15*
X210084000Y-64240000D03*
X225324000Y-64240000D03*
D16*
X214304000Y-64240000D03*
X221104000Y-64240000D03*
G36*
G01*
X211874000Y-64840000D02*
X211874000Y-63640000D01*
G75*
G02*
X211924000Y-63590000I50000J0D01*
G01*
X212524000Y-63590000D01*
G75*
G02*
X212574000Y-63640000I0J-50000D01*
G01*
X212574000Y-64840000D01*
G75*
G02*
X212524000Y-64890000I-50000J0D01*
G01*
X211924000Y-64890000D01*
G75*
G02*
X211874000Y-64840000I0J50000D01*
G01*
G37*
G36*
G01*
X212774000Y-64840000D02*
X212774000Y-63640000D01*
G75*
G02*
X212824000Y-63590000I50000J0D01*
G01*
X213424000Y-63590000D01*
G75*
G02*
X213474000Y-63640000I0J-50000D01*
G01*
X213474000Y-64840000D01*
G75*
G02*
X213424000Y-64890000I-50000J0D01*
G01*
X212824000Y-64890000D01*
G75*
G02*
X212774000Y-64840000I0J50000D01*
G01*
G37*
G36*
G01*
X221934000Y-64840000D02*
X221934000Y-63640000D01*
G75*
G02*
X221984000Y-63590000I50000J0D01*
G01*
X222584000Y-63590000D01*
G75*
G02*
X222634000Y-63640000I0J-50000D01*
G01*
X222634000Y-64840000D01*
G75*
G02*
X222584000Y-64890000I-50000J0D01*
G01*
X221984000Y-64890000D01*
G75*
G02*
X221934000Y-64840000I0J50000D01*
G01*
G37*
G36*
G01*
X222834000Y-64840000D02*
X222834000Y-63640000D01*
G75*
G02*
X222884000Y-63590000I50000J0D01*
G01*
X223484000Y-63590000D01*
G75*
G02*
X223534000Y-63640000I0J-50000D01*
G01*
X223534000Y-64840000D01*
G75*
G02*
X223484000Y-64890000I-50000J0D01*
G01*
X222884000Y-64890000D01*
G75*
G02*
X222834000Y-64840000I0J50000D01*
G01*
G37*
D15*
X210084000Y-66780000D03*
X225324000Y-66780000D03*
D16*
X214304000Y-66780000D03*
X221104000Y-66780000D03*
G36*
G01*
X211874000Y-67380000D02*
X211874000Y-66180000D01*
G75*
G02*
X211924000Y-66130000I50000J0D01*
G01*
X212524000Y-66130000D01*
G75*
G02*
X212574000Y-66180000I0J-50000D01*
G01*
X212574000Y-67380000D01*
G75*
G02*
X212524000Y-67430000I-50000J0D01*
G01*
X211924000Y-67430000D01*
G75*
G02*
X211874000Y-67380000I0J50000D01*
G01*
G37*
G36*
G01*
X212774000Y-67380000D02*
X212774000Y-66180000D01*
G75*
G02*
X212824000Y-66130000I50000J0D01*
G01*
X213424000Y-66130000D01*
G75*
G02*
X213474000Y-66180000I0J-50000D01*
G01*
X213474000Y-67380000D01*
G75*
G02*
X213424000Y-67430000I-50000J0D01*
G01*
X212824000Y-67430000D01*
G75*
G02*
X212774000Y-67380000I0J50000D01*
G01*
G37*
G36*
G01*
X221934000Y-67380000D02*
X221934000Y-66180000D01*
G75*
G02*
X221984000Y-66130000I50000J0D01*
G01*
X222584000Y-66130000D01*
G75*
G02*
X222634000Y-66180000I0J-50000D01*
G01*
X222634000Y-67380000D01*
G75*
G02*
X222584000Y-67430000I-50000J0D01*
G01*
X221984000Y-67430000D01*
G75*
G02*
X221934000Y-67380000I0J50000D01*
G01*
G37*
G36*
G01*
X222834000Y-67380000D02*
X222834000Y-66180000D01*
G75*
G02*
X222884000Y-66130000I50000J0D01*
G01*
X223484000Y-66130000D01*
G75*
G02*
X223534000Y-66180000I0J-50000D01*
G01*
X223534000Y-67380000D01*
G75*
G02*
X223484000Y-67430000I-50000J0D01*
G01*
X222884000Y-67430000D01*
G75*
G02*
X222834000Y-67380000I0J50000D01*
G01*
G37*
D15*
X210084000Y-69320000D03*
X225324000Y-69320000D03*
D16*
X214304000Y-69320000D03*
X221104000Y-69320000D03*
G36*
G01*
X211874000Y-69920000D02*
X211874000Y-68720000D01*
G75*
G02*
X211924000Y-68670000I50000J0D01*
G01*
X212524000Y-68670000D01*
G75*
G02*
X212574000Y-68720000I0J-50000D01*
G01*
X212574000Y-69920000D01*
G75*
G02*
X212524000Y-69970000I-50000J0D01*
G01*
X211924000Y-69970000D01*
G75*
G02*
X211874000Y-69920000I0J50000D01*
G01*
G37*
G36*
G01*
X212774000Y-69920000D02*
X212774000Y-68720000D01*
G75*
G02*
X212824000Y-68670000I50000J0D01*
G01*
X213424000Y-68670000D01*
G75*
G02*
X213474000Y-68720000I0J-50000D01*
G01*
X213474000Y-69920000D01*
G75*
G02*
X213424000Y-69970000I-50000J0D01*
G01*
X212824000Y-69970000D01*
G75*
G02*
X212774000Y-69920000I0J50000D01*
G01*
G37*
G36*
G01*
X221934000Y-69920000D02*
X221934000Y-68720000D01*
G75*
G02*
X221984000Y-68670000I50000J0D01*
G01*
X222584000Y-68670000D01*
G75*
G02*
X222634000Y-68720000I0J-50000D01*
G01*
X222634000Y-69920000D01*
G75*
G02*
X222584000Y-69970000I-50000J0D01*
G01*
X221984000Y-69970000D01*
G75*
G02*
X221934000Y-69920000I0J50000D01*
G01*
G37*
G36*
G01*
X222834000Y-69920000D02*
X222834000Y-68720000D01*
G75*
G02*
X222884000Y-68670000I50000J0D01*
G01*
X223484000Y-68670000D01*
G75*
G02*
X223534000Y-68720000I0J-50000D01*
G01*
X223534000Y-69920000D01*
G75*
G02*
X223484000Y-69970000I-50000J0D01*
G01*
X222884000Y-69970000D01*
G75*
G02*
X222834000Y-69920000I0J50000D01*
G01*
G37*
D15*
X210084000Y-71860000D03*
X225324000Y-71860000D03*
D16*
X214304000Y-71860000D03*
X221104000Y-71860000D03*
G36*
G01*
X211874000Y-72460000D02*
X211874000Y-71260000D01*
G75*
G02*
X211924000Y-71210000I50000J0D01*
G01*
X212524000Y-71210000D01*
G75*
G02*
X212574000Y-71260000I0J-50000D01*
G01*
X212574000Y-72460000D01*
G75*
G02*
X212524000Y-72510000I-50000J0D01*
G01*
X211924000Y-72510000D01*
G75*
G02*
X211874000Y-72460000I0J50000D01*
G01*
G37*
G36*
G01*
X212774000Y-72460000D02*
X212774000Y-71260000D01*
G75*
G02*
X212824000Y-71210000I50000J0D01*
G01*
X213424000Y-71210000D01*
G75*
G02*
X213474000Y-71260000I0J-50000D01*
G01*
X213474000Y-72460000D01*
G75*
G02*
X213424000Y-72510000I-50000J0D01*
G01*
X212824000Y-72510000D01*
G75*
G02*
X212774000Y-72460000I0J50000D01*
G01*
G37*
G36*
G01*
X221934000Y-72460000D02*
X221934000Y-71260000D01*
G75*
G02*
X221984000Y-71210000I50000J0D01*
G01*
X222584000Y-71210000D01*
G75*
G02*
X222634000Y-71260000I0J-50000D01*
G01*
X222634000Y-72460000D01*
G75*
G02*
X222584000Y-72510000I-50000J0D01*
G01*
X221984000Y-72510000D01*
G75*
G02*
X221934000Y-72460000I0J50000D01*
G01*
G37*
G36*
G01*
X222834000Y-72460000D02*
X222834000Y-71260000D01*
G75*
G02*
X222884000Y-71210000I50000J0D01*
G01*
X223484000Y-71210000D01*
G75*
G02*
X223534000Y-71260000I0J-50000D01*
G01*
X223534000Y-72460000D01*
G75*
G02*
X223484000Y-72510000I-50000J0D01*
G01*
X222884000Y-72510000D01*
G75*
G02*
X222834000Y-72460000I0J50000D01*
G01*
G37*
G36*
G01*
X217857000Y-76008000D02*
X219057000Y-76008000D01*
G75*
G02*
X219107000Y-76058000I0J-50000D01*
G01*
X219107000Y-76658000D01*
G75*
G02*
X219057000Y-76708000I-50000J0D01*
G01*
X217857000Y-76708000D01*
G75*
G02*
X217807000Y-76658000I0J50000D01*
G01*
X217807000Y-76058000D01*
G75*
G02*
X217857000Y-76008000I50000J0D01*
G01*
G37*
G36*
G01*
X215317000Y-76008000D02*
X216517000Y-76008000D01*
G75*
G02*
X216567000Y-76058000I0J-50000D01*
G01*
X216567000Y-76658000D01*
G75*
G02*
X216517000Y-76708000I-50000J0D01*
G01*
X215317000Y-76708000D01*
G75*
G02*
X215267000Y-76658000I0J50000D01*
G01*
X215267000Y-76058000D01*
G75*
G02*
X215317000Y-76008000I50000J0D01*
G01*
G37*
G36*
G01*
X212777000Y-76008000D02*
X213977000Y-76008000D01*
G75*
G02*
X214027000Y-76058000I0J-50000D01*
G01*
X214027000Y-76658000D01*
G75*
G02*
X213977000Y-76708000I-50000J0D01*
G01*
X212777000Y-76708000D01*
G75*
G02*
X212727000Y-76658000I0J50000D01*
G01*
X212727000Y-76058000D01*
G75*
G02*
X212777000Y-76008000I50000J0D01*
G01*
G37*
G36*
G01*
X210237000Y-76008000D02*
X211437000Y-76008000D01*
G75*
G02*
X211487000Y-76058000I0J-50000D01*
G01*
X211487000Y-76658000D01*
G75*
G02*
X211437000Y-76708000I-50000J0D01*
G01*
X210237000Y-76708000D01*
G75*
G02*
X210187000Y-76658000I0J50000D01*
G01*
X210187000Y-76058000D01*
G75*
G02*
X210237000Y-76008000I50000J0D01*
G01*
G37*
G36*
G01*
X217857000Y-76908000D02*
X219057000Y-76908000D01*
G75*
G02*
X219107000Y-76958000I0J-50000D01*
G01*
X219107000Y-77558000D01*
G75*
G02*
X219057000Y-77608000I-50000J0D01*
G01*
X217857000Y-77608000D01*
G75*
G02*
X217807000Y-77558000I0J50000D01*
G01*
X217807000Y-76958000D01*
G75*
G02*
X217857000Y-76908000I50000J0D01*
G01*
G37*
G36*
G01*
X215317000Y-76908000D02*
X216517000Y-76908000D01*
G75*
G02*
X216567000Y-76958000I0J-50000D01*
G01*
X216567000Y-77558000D01*
G75*
G02*
X216517000Y-77608000I-50000J0D01*
G01*
X215317000Y-77608000D01*
G75*
G02*
X215267000Y-77558000I0J50000D01*
G01*
X215267000Y-76958000D01*
G75*
G02*
X215317000Y-76908000I50000J0D01*
G01*
G37*
G36*
G01*
X212777000Y-76908000D02*
X213977000Y-76908000D01*
G75*
G02*
X214027000Y-76958000I0J-50000D01*
G01*
X214027000Y-77558000D01*
G75*
G02*
X213977000Y-77608000I-50000J0D01*
G01*
X212777000Y-77608000D01*
G75*
G02*
X212727000Y-77558000I0J50000D01*
G01*
X212727000Y-76958000D01*
G75*
G02*
X212777000Y-76908000I50000J0D01*
G01*
G37*
G36*
G01*
X210237000Y-76908000D02*
X211437000Y-76908000D01*
G75*
G02*
X211487000Y-76958000I0J-50000D01*
G01*
X211487000Y-77558000D01*
G75*
G02*
X211437000Y-77608000I-50000J0D01*
G01*
X210237000Y-77608000D01*
G75*
G02*
X210187000Y-77558000I0J50000D01*
G01*
X210187000Y-76958000D01*
G75*
G02*
X210237000Y-76908000I50000J0D01*
G01*
G37*
D17*
X210837000Y-79008000D03*
X213377000Y-79008000D03*
X215917000Y-79008000D03*
X218457000Y-79008000D03*
D15*
X222350000Y-81751000D03*
X222350000Y-75251000D03*
D18*
X215510000Y-88560000D03*
X222510000Y-88560000D03*
D19*
X220910000Y-86260000D03*
X217910000Y-86260000D03*
D20*
X213360000Y-86260000D03*
D19*
X220910000Y-90860000D03*
X217910000Y-90860000D03*
D20*
X213360000Y-90860000D03*
G36*
G01*
X98050000Y-104950000D02*
X98050000Y-105950000D01*
G75*
G02*
X98000000Y-106000000I-50000J0D01*
G01*
X96600000Y-106000000D01*
G75*
G02*
X96550000Y-105950000I0J50000D01*
G01*
X96550000Y-104950000D01*
G75*
G02*
X96600000Y-104900000I50000J0D01*
G01*
X98000000Y-104900000D01*
G75*
G02*
X98050000Y-104950000I0J-50000D01*
G01*
G37*
G36*
G01*
X98050000Y-103550000D02*
X98050000Y-104550000D01*
G75*
G02*
X98000000Y-104600000I-50000J0D01*
G01*
X96600000Y-104600000D01*
G75*
G02*
X96550000Y-104550000I0J50000D01*
G01*
X96550000Y-103550000D01*
G75*
G02*
X96600000Y-103500000I50000J0D01*
G01*
X98000000Y-103500000D01*
G75*
G02*
X98050000Y-103550000I0J-50000D01*
G01*
G37*
G36*
G01*
X103450000Y-104950000D02*
X103450000Y-105950000D01*
G75*
G02*
X103400000Y-106000000I-50000J0D01*
G01*
X102000000Y-106000000D01*
G75*
G02*
X101950000Y-105950000I0J50000D01*
G01*
X101950000Y-104950000D01*
G75*
G02*
X102000000Y-104900000I50000J0D01*
G01*
X103400000Y-104900000D01*
G75*
G02*
X103450000Y-104950000I0J-50000D01*
G01*
G37*
G36*
G01*
X103450000Y-103550000D02*
X103450000Y-104550000D01*
G75*
G02*
X103400000Y-104600000I-50000J0D01*
G01*
X102000000Y-104600000D01*
G75*
G02*
X101950000Y-104550000I0J50000D01*
G01*
X101950000Y-103550000D01*
G75*
G02*
X102000000Y-103500000I50000J0D01*
G01*
X103400000Y-103500000D01*
G75*
G02*
X103450000Y-103550000I0J-50000D01*
G01*
G37*
G36*
G01*
X98050000Y-85950000D02*
X98050000Y-86950000D01*
G75*
G02*
X98000000Y-87000000I-50000J0D01*
G01*
X96600000Y-87000000D01*
G75*
G02*
X96550000Y-86950000I0J50000D01*
G01*
X96550000Y-85950000D01*
G75*
G02*
X96600000Y-85900000I50000J0D01*
G01*
X98000000Y-85900000D01*
G75*
G02*
X98050000Y-85950000I0J-50000D01*
G01*
G37*
G36*
G01*
X98050000Y-84550000D02*
X98050000Y-85550000D01*
G75*
G02*
X98000000Y-85600000I-50000J0D01*
G01*
X96600000Y-85600000D01*
G75*
G02*
X96550000Y-85550000I0J50000D01*
G01*
X96550000Y-84550000D01*
G75*
G02*
X96600000Y-84500000I50000J0D01*
G01*
X98000000Y-84500000D01*
G75*
G02*
X98050000Y-84550000I0J-50000D01*
G01*
G37*
G36*
G01*
X103450000Y-85950000D02*
X103450000Y-86950000D01*
G75*
G02*
X103400000Y-87000000I-50000J0D01*
G01*
X102000000Y-87000000D01*
G75*
G02*
X101950000Y-86950000I0J50000D01*
G01*
X101950000Y-85950000D01*
G75*
G02*
X102000000Y-85900000I50000J0D01*
G01*
X103400000Y-85900000D01*
G75*
G02*
X103450000Y-85950000I0J-50000D01*
G01*
G37*
G36*
G01*
X103450000Y-84550000D02*
X103450000Y-85550000D01*
G75*
G02*
X103400000Y-85600000I-50000J0D01*
G01*
X102000000Y-85600000D01*
G75*
G02*
X101950000Y-85550000I0J50000D01*
G01*
X101950000Y-84550000D01*
G75*
G02*
X102000000Y-84500000I50000J0D01*
G01*
X103400000Y-84500000D01*
G75*
G02*
X103450000Y-84550000I0J-50000D01*
G01*
G37*
G36*
G01*
X98050000Y-66950000D02*
X98050000Y-67950000D01*
G75*
G02*
X98000000Y-68000000I-50000J0D01*
G01*
X96600000Y-68000000D01*
G75*
G02*
X96550000Y-67950000I0J50000D01*
G01*
X96550000Y-66950000D01*
G75*
G02*
X96600000Y-66900000I50000J0D01*
G01*
X98000000Y-66900000D01*
G75*
G02*
X98050000Y-66950000I0J-50000D01*
G01*
G37*
G36*
G01*
X98050000Y-65550000D02*
X98050000Y-66550000D01*
G75*
G02*
X98000000Y-66600000I-50000J0D01*
G01*
X96600000Y-66600000D01*
G75*
G02*
X96550000Y-66550000I0J50000D01*
G01*
X96550000Y-65550000D01*
G75*
G02*
X96600000Y-65500000I50000J0D01*
G01*
X98000000Y-65500000D01*
G75*
G02*
X98050000Y-65550000I0J-50000D01*
G01*
G37*
G36*
G01*
X103450000Y-66950000D02*
X103450000Y-67950000D01*
G75*
G02*
X103400000Y-68000000I-50000J0D01*
G01*
X102000000Y-68000000D01*
G75*
G02*
X101950000Y-67950000I0J50000D01*
G01*
X101950000Y-66950000D01*
G75*
G02*
X102000000Y-66900000I50000J0D01*
G01*
X103400000Y-66900000D01*
G75*
G02*
X103450000Y-66950000I0J-50000D01*
G01*
G37*
G36*
G01*
X103450000Y-65550000D02*
X103450000Y-66550000D01*
G75*
G02*
X103400000Y-66600000I-50000J0D01*
G01*
X102000000Y-66600000D01*
G75*
G02*
X101950000Y-66550000I0J50000D01*
G01*
X101950000Y-65550000D01*
G75*
G02*
X102000000Y-65500000I50000J0D01*
G01*
X103400000Y-65500000D01*
G75*
G02*
X103450000Y-65550000I0J-50000D01*
G01*
G37*
G36*
G01*
X98050000Y-47950000D02*
X98050000Y-48950000D01*
G75*
G02*
X98000000Y-49000000I-50000J0D01*
G01*
X96600000Y-49000000D01*
G75*
G02*
X96550000Y-48950000I0J50000D01*
G01*
X96550000Y-47950000D01*
G75*
G02*
X96600000Y-47900000I50000J0D01*
G01*
X98000000Y-47900000D01*
G75*
G02*
X98050000Y-47950000I0J-50000D01*
G01*
G37*
G36*
G01*
X98050000Y-46550000D02*
X98050000Y-47550000D01*
G75*
G02*
X98000000Y-47600000I-50000J0D01*
G01*
X96600000Y-47600000D01*
G75*
G02*
X96550000Y-47550000I0J50000D01*
G01*
X96550000Y-46550000D01*
G75*
G02*
X96600000Y-46500000I50000J0D01*
G01*
X98000000Y-46500000D01*
G75*
G02*
X98050000Y-46550000I0J-50000D01*
G01*
G37*
G36*
G01*
X103450000Y-47950000D02*
X103450000Y-48950000D01*
G75*
G02*
X103400000Y-49000000I-50000J0D01*
G01*
X102000000Y-49000000D01*
G75*
G02*
X101950000Y-48950000I0J50000D01*
G01*
X101950000Y-47950000D01*
G75*
G02*
X102000000Y-47900000I50000J0D01*
G01*
X103400000Y-47900000D01*
G75*
G02*
X103450000Y-47950000I0J-50000D01*
G01*
G37*
G36*
G01*
X103450000Y-46550000D02*
X103450000Y-47550000D01*
G75*
G02*
X103400000Y-47600000I-50000J0D01*
G01*
X102000000Y-47600000D01*
G75*
G02*
X101950000Y-47550000I0J50000D01*
G01*
X101950000Y-46550000D01*
G75*
G02*
X102000000Y-46500000I50000J0D01*
G01*
X103400000Y-46500000D01*
G75*
G02*
X103450000Y-46550000I0J-50000D01*
G01*
G37*
G36*
G01*
X117050000Y-102575000D02*
X117050000Y-103575000D01*
G75*
G02*
X117000000Y-103625000I-50000J0D01*
G01*
X115600000Y-103625000D01*
G75*
G02*
X115550000Y-103575000I0J50000D01*
G01*
X115550000Y-102575000D01*
G75*
G02*
X115600000Y-102525000I50000J0D01*
G01*
X117000000Y-102525000D01*
G75*
G02*
X117050000Y-102575000I0J-50000D01*
G01*
G37*
G36*
G01*
X117050000Y-101175000D02*
X117050000Y-102175000D01*
G75*
G02*
X117000000Y-102225000I-50000J0D01*
G01*
X115600000Y-102225000D01*
G75*
G02*
X115550000Y-102175000I0J50000D01*
G01*
X115550000Y-101175000D01*
G75*
G02*
X115600000Y-101125000I50000J0D01*
G01*
X117000000Y-101125000D01*
G75*
G02*
X117050000Y-101175000I0J-50000D01*
G01*
G37*
G36*
G01*
X122450000Y-102575000D02*
X122450000Y-103575000D01*
G75*
G02*
X122400000Y-103625000I-50000J0D01*
G01*
X121000000Y-103625000D01*
G75*
G02*
X120950000Y-103575000I0J50000D01*
G01*
X120950000Y-102575000D01*
G75*
G02*
X121000000Y-102525000I50000J0D01*
G01*
X122400000Y-102525000D01*
G75*
G02*
X122450000Y-102575000I0J-50000D01*
G01*
G37*
G36*
G01*
X122450000Y-101175000D02*
X122450000Y-102175000D01*
G75*
G02*
X122400000Y-102225000I-50000J0D01*
G01*
X121000000Y-102225000D01*
G75*
G02*
X120950000Y-102175000I0J50000D01*
G01*
X120950000Y-101175000D01*
G75*
G02*
X121000000Y-101125000I50000J0D01*
G01*
X122400000Y-101125000D01*
G75*
G02*
X122450000Y-101175000I0J-50000D01*
G01*
G37*
G36*
G01*
X117050000Y-83575000D02*
X117050000Y-84575000D01*
G75*
G02*
X117000000Y-84625000I-50000J0D01*
G01*
X115600000Y-84625000D01*
G75*
G02*
X115550000Y-84575000I0J50000D01*
G01*
X115550000Y-83575000D01*
G75*
G02*
X115600000Y-83525000I50000J0D01*
G01*
X117000000Y-83525000D01*
G75*
G02*
X117050000Y-83575000I0J-50000D01*
G01*
G37*
G36*
G01*
X117050000Y-82175000D02*
X117050000Y-83175000D01*
G75*
G02*
X117000000Y-83225000I-50000J0D01*
G01*
X115600000Y-83225000D01*
G75*
G02*
X115550000Y-83175000I0J50000D01*
G01*
X115550000Y-82175000D01*
G75*
G02*
X115600000Y-82125000I50000J0D01*
G01*
X117000000Y-82125000D01*
G75*
G02*
X117050000Y-82175000I0J-50000D01*
G01*
G37*
G36*
G01*
X122450000Y-83575000D02*
X122450000Y-84575000D01*
G75*
G02*
X122400000Y-84625000I-50000J0D01*
G01*
X121000000Y-84625000D01*
G75*
G02*
X120950000Y-84575000I0J50000D01*
G01*
X120950000Y-83575000D01*
G75*
G02*
X121000000Y-83525000I50000J0D01*
G01*
X122400000Y-83525000D01*
G75*
G02*
X122450000Y-83575000I0J-50000D01*
G01*
G37*
G36*
G01*
X122450000Y-82175000D02*
X122450000Y-83175000D01*
G75*
G02*
X122400000Y-83225000I-50000J0D01*
G01*
X121000000Y-83225000D01*
G75*
G02*
X120950000Y-83175000I0J50000D01*
G01*
X120950000Y-82175000D01*
G75*
G02*
X121000000Y-82125000I50000J0D01*
G01*
X122400000Y-82125000D01*
G75*
G02*
X122450000Y-82175000I0J-50000D01*
G01*
G37*
G36*
G01*
X117050000Y-64575000D02*
X117050000Y-65575000D01*
G75*
G02*
X117000000Y-65625000I-50000J0D01*
G01*
X115600000Y-65625000D01*
G75*
G02*
X115550000Y-65575000I0J50000D01*
G01*
X115550000Y-64575000D01*
G75*
G02*
X115600000Y-64525000I50000J0D01*
G01*
X117000000Y-64525000D01*
G75*
G02*
X117050000Y-64575000I0J-50000D01*
G01*
G37*
G36*
G01*
X117050000Y-63175000D02*
X117050000Y-64175000D01*
G75*
G02*
X117000000Y-64225000I-50000J0D01*
G01*
X115600000Y-64225000D01*
G75*
G02*
X115550000Y-64175000I0J50000D01*
G01*
X115550000Y-63175000D01*
G75*
G02*
X115600000Y-63125000I50000J0D01*
G01*
X117000000Y-63125000D01*
G75*
G02*
X117050000Y-63175000I0J-50000D01*
G01*
G37*
G36*
G01*
X122450000Y-64575000D02*
X122450000Y-65575000D01*
G75*
G02*
X122400000Y-65625000I-50000J0D01*
G01*
X121000000Y-65625000D01*
G75*
G02*
X120950000Y-65575000I0J50000D01*
G01*
X120950000Y-64575000D01*
G75*
G02*
X121000000Y-64525000I50000J0D01*
G01*
X122400000Y-64525000D01*
G75*
G02*
X122450000Y-64575000I0J-50000D01*
G01*
G37*
G36*
G01*
X122450000Y-63175000D02*
X122450000Y-64175000D01*
G75*
G02*
X122400000Y-64225000I-50000J0D01*
G01*
X121000000Y-64225000D01*
G75*
G02*
X120950000Y-64175000I0J50000D01*
G01*
X120950000Y-63175000D01*
G75*
G02*
X121000000Y-63125000I50000J0D01*
G01*
X122400000Y-63125000D01*
G75*
G02*
X122450000Y-63175000I0J-50000D01*
G01*
G37*
G36*
G01*
X117050000Y-45575000D02*
X117050000Y-46575000D01*
G75*
G02*
X117000000Y-46625000I-50000J0D01*
G01*
X115600000Y-46625000D01*
G75*
G02*
X115550000Y-46575000I0J50000D01*
G01*
X115550000Y-45575000D01*
G75*
G02*
X115600000Y-45525000I50000J0D01*
G01*
X117000000Y-45525000D01*
G75*
G02*
X117050000Y-45575000I0J-50000D01*
G01*
G37*
G36*
G01*
X117050000Y-44175000D02*
X117050000Y-45175000D01*
G75*
G02*
X117000000Y-45225000I-50000J0D01*
G01*
X115600000Y-45225000D01*
G75*
G02*
X115550000Y-45175000I0J50000D01*
G01*
X115550000Y-44175000D01*
G75*
G02*
X115600000Y-44125000I50000J0D01*
G01*
X117000000Y-44125000D01*
G75*
G02*
X117050000Y-44175000I0J-50000D01*
G01*
G37*
G36*
G01*
X122450000Y-45575000D02*
X122450000Y-46575000D01*
G75*
G02*
X122400000Y-46625000I-50000J0D01*
G01*
X121000000Y-46625000D01*
G75*
G02*
X120950000Y-46575000I0J50000D01*
G01*
X120950000Y-45575000D01*
G75*
G02*
X121000000Y-45525000I50000J0D01*
G01*
X122400000Y-45525000D01*
G75*
G02*
X122450000Y-45575000I0J-50000D01*
G01*
G37*
G36*
G01*
X122450000Y-44175000D02*
X122450000Y-45175000D01*
G75*
G02*
X122400000Y-45225000I-50000J0D01*
G01*
X121000000Y-45225000D01*
G75*
G02*
X120950000Y-45175000I0J50000D01*
G01*
X120950000Y-44175000D01*
G75*
G02*
X121000000Y-44125000I50000J0D01*
G01*
X122400000Y-44125000D01*
G75*
G02*
X122450000Y-44175000I0J-50000D01*
G01*
G37*
G36*
G01*
X136050000Y-104950000D02*
X136050000Y-105950000D01*
G75*
G02*
X136000000Y-106000000I-50000J0D01*
G01*
X134600000Y-106000000D01*
G75*
G02*
X134550000Y-105950000I0J50000D01*
G01*
X134550000Y-104950000D01*
G75*
G02*
X134600000Y-104900000I50000J0D01*
G01*
X136000000Y-104900000D01*
G75*
G02*
X136050000Y-104950000I0J-50000D01*
G01*
G37*
G36*
G01*
X136050000Y-103550000D02*
X136050000Y-104550000D01*
G75*
G02*
X136000000Y-104600000I-50000J0D01*
G01*
X134600000Y-104600000D01*
G75*
G02*
X134550000Y-104550000I0J50000D01*
G01*
X134550000Y-103550000D01*
G75*
G02*
X134600000Y-103500000I50000J0D01*
G01*
X136000000Y-103500000D01*
G75*
G02*
X136050000Y-103550000I0J-50000D01*
G01*
G37*
G36*
G01*
X141450000Y-104950000D02*
X141450000Y-105950000D01*
G75*
G02*
X141400000Y-106000000I-50000J0D01*
G01*
X140000000Y-106000000D01*
G75*
G02*
X139950000Y-105950000I0J50000D01*
G01*
X139950000Y-104950000D01*
G75*
G02*
X140000000Y-104900000I50000J0D01*
G01*
X141400000Y-104900000D01*
G75*
G02*
X141450000Y-104950000I0J-50000D01*
G01*
G37*
G36*
G01*
X141450000Y-103550000D02*
X141450000Y-104550000D01*
G75*
G02*
X141400000Y-104600000I-50000J0D01*
G01*
X140000000Y-104600000D01*
G75*
G02*
X139950000Y-104550000I0J50000D01*
G01*
X139950000Y-103550000D01*
G75*
G02*
X140000000Y-103500000I50000J0D01*
G01*
X141400000Y-103500000D01*
G75*
G02*
X141450000Y-103550000I0J-50000D01*
G01*
G37*
G36*
G01*
X136050000Y-85950000D02*
X136050000Y-86950000D01*
G75*
G02*
X136000000Y-87000000I-50000J0D01*
G01*
X134600000Y-87000000D01*
G75*
G02*
X134550000Y-86950000I0J50000D01*
G01*
X134550000Y-85950000D01*
G75*
G02*
X134600000Y-85900000I50000J0D01*
G01*
X136000000Y-85900000D01*
G75*
G02*
X136050000Y-85950000I0J-50000D01*
G01*
G37*
G36*
G01*
X136050000Y-84550000D02*
X136050000Y-85550000D01*
G75*
G02*
X136000000Y-85600000I-50000J0D01*
G01*
X134600000Y-85600000D01*
G75*
G02*
X134550000Y-85550000I0J50000D01*
G01*
X134550000Y-84550000D01*
G75*
G02*
X134600000Y-84500000I50000J0D01*
G01*
X136000000Y-84500000D01*
G75*
G02*
X136050000Y-84550000I0J-50000D01*
G01*
G37*
G36*
G01*
X141450000Y-85950000D02*
X141450000Y-86950000D01*
G75*
G02*
X141400000Y-87000000I-50000J0D01*
G01*
X140000000Y-87000000D01*
G75*
G02*
X139950000Y-86950000I0J50000D01*
G01*
X139950000Y-85950000D01*
G75*
G02*
X140000000Y-85900000I50000J0D01*
G01*
X141400000Y-85900000D01*
G75*
G02*
X141450000Y-85950000I0J-50000D01*
G01*
G37*
G36*
G01*
X141450000Y-84550000D02*
X141450000Y-85550000D01*
G75*
G02*
X141400000Y-85600000I-50000J0D01*
G01*
X140000000Y-85600000D01*
G75*
G02*
X139950000Y-85550000I0J50000D01*
G01*
X139950000Y-84550000D01*
G75*
G02*
X140000000Y-84500000I50000J0D01*
G01*
X141400000Y-84500000D01*
G75*
G02*
X141450000Y-84550000I0J-50000D01*
G01*
G37*
G36*
G01*
X136050000Y-66950000D02*
X136050000Y-67950000D01*
G75*
G02*
X136000000Y-68000000I-50000J0D01*
G01*
X134600000Y-68000000D01*
G75*
G02*
X134550000Y-67950000I0J50000D01*
G01*
X134550000Y-66950000D01*
G75*
G02*
X134600000Y-66900000I50000J0D01*
G01*
X136000000Y-66900000D01*
G75*
G02*
X136050000Y-66950000I0J-50000D01*
G01*
G37*
G36*
G01*
X136050000Y-65550000D02*
X136050000Y-66550000D01*
G75*
G02*
X136000000Y-66600000I-50000J0D01*
G01*
X134600000Y-66600000D01*
G75*
G02*
X134550000Y-66550000I0J50000D01*
G01*
X134550000Y-65550000D01*
G75*
G02*
X134600000Y-65500000I50000J0D01*
G01*
X136000000Y-65500000D01*
G75*
G02*
X136050000Y-65550000I0J-50000D01*
G01*
G37*
G36*
G01*
X141450000Y-66950000D02*
X141450000Y-67950000D01*
G75*
G02*
X141400000Y-68000000I-50000J0D01*
G01*
X140000000Y-68000000D01*
G75*
G02*
X139950000Y-67950000I0J50000D01*
G01*
X139950000Y-66950000D01*
G75*
G02*
X140000000Y-66900000I50000J0D01*
G01*
X141400000Y-66900000D01*
G75*
G02*
X141450000Y-66950000I0J-50000D01*
G01*
G37*
G36*
G01*
X141450000Y-65550000D02*
X141450000Y-66550000D01*
G75*
G02*
X141400000Y-66600000I-50000J0D01*
G01*
X140000000Y-66600000D01*
G75*
G02*
X139950000Y-66550000I0J50000D01*
G01*
X139950000Y-65550000D01*
G75*
G02*
X140000000Y-65500000I50000J0D01*
G01*
X141400000Y-65500000D01*
G75*
G02*
X141450000Y-65550000I0J-50000D01*
G01*
G37*
G36*
G01*
X136050000Y-47950000D02*
X136050000Y-48950000D01*
G75*
G02*
X136000000Y-49000000I-50000J0D01*
G01*
X134600000Y-49000000D01*
G75*
G02*
X134550000Y-48950000I0J50000D01*
G01*
X134550000Y-47950000D01*
G75*
G02*
X134600000Y-47900000I50000J0D01*
G01*
X136000000Y-47900000D01*
G75*
G02*
X136050000Y-47950000I0J-50000D01*
G01*
G37*
G36*
G01*
X136050000Y-46550000D02*
X136050000Y-47550000D01*
G75*
G02*
X136000000Y-47600000I-50000J0D01*
G01*
X134600000Y-47600000D01*
G75*
G02*
X134550000Y-47550000I0J50000D01*
G01*
X134550000Y-46550000D01*
G75*
G02*
X134600000Y-46500000I50000J0D01*
G01*
X136000000Y-46500000D01*
G75*
G02*
X136050000Y-46550000I0J-50000D01*
G01*
G37*
G36*
G01*
X141450000Y-47950000D02*
X141450000Y-48950000D01*
G75*
G02*
X141400000Y-49000000I-50000J0D01*
G01*
X140000000Y-49000000D01*
G75*
G02*
X139950000Y-48950000I0J50000D01*
G01*
X139950000Y-47950000D01*
G75*
G02*
X140000000Y-47900000I50000J0D01*
G01*
X141400000Y-47900000D01*
G75*
G02*
X141450000Y-47950000I0J-50000D01*
G01*
G37*
G36*
G01*
X141450000Y-46550000D02*
X141450000Y-47550000D01*
G75*
G02*
X141400000Y-47600000I-50000J0D01*
G01*
X140000000Y-47600000D01*
G75*
G02*
X139950000Y-47550000I0J50000D01*
G01*
X139950000Y-46550000D01*
G75*
G02*
X140000000Y-46500000I50000J0D01*
G01*
X141400000Y-46500000D01*
G75*
G02*
X141450000Y-46550000I0J-50000D01*
G01*
G37*
G36*
G01*
X155050000Y-102575000D02*
X155050000Y-103575000D01*
G75*
G02*
X155000000Y-103625000I-50000J0D01*
G01*
X153600000Y-103625000D01*
G75*
G02*
X153550000Y-103575000I0J50000D01*
G01*
X153550000Y-102575000D01*
G75*
G02*
X153600000Y-102525000I50000J0D01*
G01*
X155000000Y-102525000D01*
G75*
G02*
X155050000Y-102575000I0J-50000D01*
G01*
G37*
G36*
G01*
X155050000Y-101175000D02*
X155050000Y-102175000D01*
G75*
G02*
X155000000Y-102225000I-50000J0D01*
G01*
X153600000Y-102225000D01*
G75*
G02*
X153550000Y-102175000I0J50000D01*
G01*
X153550000Y-101175000D01*
G75*
G02*
X153600000Y-101125000I50000J0D01*
G01*
X155000000Y-101125000D01*
G75*
G02*
X155050000Y-101175000I0J-50000D01*
G01*
G37*
G36*
G01*
X160450000Y-102575000D02*
X160450000Y-103575000D01*
G75*
G02*
X160400000Y-103625000I-50000J0D01*
G01*
X159000000Y-103625000D01*
G75*
G02*
X158950000Y-103575000I0J50000D01*
G01*
X158950000Y-102575000D01*
G75*
G02*
X159000000Y-102525000I50000J0D01*
G01*
X160400000Y-102525000D01*
G75*
G02*
X160450000Y-102575000I0J-50000D01*
G01*
G37*
G36*
G01*
X160450000Y-101175000D02*
X160450000Y-102175000D01*
G75*
G02*
X160400000Y-102225000I-50000J0D01*
G01*
X159000000Y-102225000D01*
G75*
G02*
X158950000Y-102175000I0J50000D01*
G01*
X158950000Y-101175000D01*
G75*
G02*
X159000000Y-101125000I50000J0D01*
G01*
X160400000Y-101125000D01*
G75*
G02*
X160450000Y-101175000I0J-50000D01*
G01*
G37*
G36*
G01*
X155050000Y-83575000D02*
X155050000Y-84575000D01*
G75*
G02*
X155000000Y-84625000I-50000J0D01*
G01*
X153600000Y-84625000D01*
G75*
G02*
X153550000Y-84575000I0J50000D01*
G01*
X153550000Y-83575000D01*
G75*
G02*
X153600000Y-83525000I50000J0D01*
G01*
X155000000Y-83525000D01*
G75*
G02*
X155050000Y-83575000I0J-50000D01*
G01*
G37*
G36*
G01*
X155050000Y-82175000D02*
X155050000Y-83175000D01*
G75*
G02*
X155000000Y-83225000I-50000J0D01*
G01*
X153600000Y-83225000D01*
G75*
G02*
X153550000Y-83175000I0J50000D01*
G01*
X153550000Y-82175000D01*
G75*
G02*
X153600000Y-82125000I50000J0D01*
G01*
X155000000Y-82125000D01*
G75*
G02*
X155050000Y-82175000I0J-50000D01*
G01*
G37*
G36*
G01*
X160450000Y-83575000D02*
X160450000Y-84575000D01*
G75*
G02*
X160400000Y-84625000I-50000J0D01*
G01*
X159000000Y-84625000D01*
G75*
G02*
X158950000Y-84575000I0J50000D01*
G01*
X158950000Y-83575000D01*
G75*
G02*
X159000000Y-83525000I50000J0D01*
G01*
X160400000Y-83525000D01*
G75*
G02*
X160450000Y-83575000I0J-50000D01*
G01*
G37*
G36*
G01*
X160450000Y-82175000D02*
X160450000Y-83175000D01*
G75*
G02*
X160400000Y-83225000I-50000J0D01*
G01*
X159000000Y-83225000D01*
G75*
G02*
X158950000Y-83175000I0J50000D01*
G01*
X158950000Y-82175000D01*
G75*
G02*
X159000000Y-82125000I50000J0D01*
G01*
X160400000Y-82125000D01*
G75*
G02*
X160450000Y-82175000I0J-50000D01*
G01*
G37*
G36*
G01*
X155050000Y-64575000D02*
X155050000Y-65575000D01*
G75*
G02*
X155000000Y-65625000I-50000J0D01*
G01*
X153600000Y-65625000D01*
G75*
G02*
X153550000Y-65575000I0J50000D01*
G01*
X153550000Y-64575000D01*
G75*
G02*
X153600000Y-64525000I50000J0D01*
G01*
X155000000Y-64525000D01*
G75*
G02*
X155050000Y-64575000I0J-50000D01*
G01*
G37*
G36*
G01*
X155050000Y-63175000D02*
X155050000Y-64175000D01*
G75*
G02*
X155000000Y-64225000I-50000J0D01*
G01*
X153600000Y-64225000D01*
G75*
G02*
X153550000Y-64175000I0J50000D01*
G01*
X153550000Y-63175000D01*
G75*
G02*
X153600000Y-63125000I50000J0D01*
G01*
X155000000Y-63125000D01*
G75*
G02*
X155050000Y-63175000I0J-50000D01*
G01*
G37*
G36*
G01*
X160450000Y-64575000D02*
X160450000Y-65575000D01*
G75*
G02*
X160400000Y-65625000I-50000J0D01*
G01*
X159000000Y-65625000D01*
G75*
G02*
X158950000Y-65575000I0J50000D01*
G01*
X158950000Y-64575000D01*
G75*
G02*
X159000000Y-64525000I50000J0D01*
G01*
X160400000Y-64525000D01*
G75*
G02*
X160450000Y-64575000I0J-50000D01*
G01*
G37*
G36*
G01*
X160450000Y-63175000D02*
X160450000Y-64175000D01*
G75*
G02*
X160400000Y-64225000I-50000J0D01*
G01*
X159000000Y-64225000D01*
G75*
G02*
X158950000Y-64175000I0J50000D01*
G01*
X158950000Y-63175000D01*
G75*
G02*
X159000000Y-63125000I50000J0D01*
G01*
X160400000Y-63125000D01*
G75*
G02*
X160450000Y-63175000I0J-50000D01*
G01*
G37*
G36*
G01*
X155050000Y-45575000D02*
X155050000Y-46575000D01*
G75*
G02*
X155000000Y-46625000I-50000J0D01*
G01*
X153600000Y-46625000D01*
G75*
G02*
X153550000Y-46575000I0J50000D01*
G01*
X153550000Y-45575000D01*
G75*
G02*
X153600000Y-45525000I50000J0D01*
G01*
X155000000Y-45525000D01*
G75*
G02*
X155050000Y-45575000I0J-50000D01*
G01*
G37*
G36*
G01*
X155050000Y-44175000D02*
X155050000Y-45175000D01*
G75*
G02*
X155000000Y-45225000I-50000J0D01*
G01*
X153600000Y-45225000D01*
G75*
G02*
X153550000Y-45175000I0J50000D01*
G01*
X153550000Y-44175000D01*
G75*
G02*
X153600000Y-44125000I50000J0D01*
G01*
X155000000Y-44125000D01*
G75*
G02*
X155050000Y-44175000I0J-50000D01*
G01*
G37*
G36*
G01*
X160450000Y-45575000D02*
X160450000Y-46575000D01*
G75*
G02*
X160400000Y-46625000I-50000J0D01*
G01*
X159000000Y-46625000D01*
G75*
G02*
X158950000Y-46575000I0J50000D01*
G01*
X158950000Y-45575000D01*
G75*
G02*
X159000000Y-45525000I50000J0D01*
G01*
X160400000Y-45525000D01*
G75*
G02*
X160450000Y-45575000I0J-50000D01*
G01*
G37*
G36*
G01*
X160450000Y-44175000D02*
X160450000Y-45175000D01*
G75*
G02*
X160400000Y-45225000I-50000J0D01*
G01*
X159000000Y-45225000D01*
G75*
G02*
X158950000Y-45175000I0J50000D01*
G01*
X158950000Y-44175000D01*
G75*
G02*
X159000000Y-44125000I50000J0D01*
G01*
X160400000Y-44125000D01*
G75*
G02*
X160450000Y-44175000I0J-50000D01*
G01*
G37*
G36*
G01*
X174050000Y-104950000D02*
X174050000Y-105950000D01*
G75*
G02*
X174000000Y-106000000I-50000J0D01*
G01*
X172600000Y-106000000D01*
G75*
G02*
X172550000Y-105950000I0J50000D01*
G01*
X172550000Y-104950000D01*
G75*
G02*
X172600000Y-104900000I50000J0D01*
G01*
X174000000Y-104900000D01*
G75*
G02*
X174050000Y-104950000I0J-50000D01*
G01*
G37*
G36*
G01*
X174050000Y-103550000D02*
X174050000Y-104550000D01*
G75*
G02*
X174000000Y-104600000I-50000J0D01*
G01*
X172600000Y-104600000D01*
G75*
G02*
X172550000Y-104550000I0J50000D01*
G01*
X172550000Y-103550000D01*
G75*
G02*
X172600000Y-103500000I50000J0D01*
G01*
X174000000Y-103500000D01*
G75*
G02*
X174050000Y-103550000I0J-50000D01*
G01*
G37*
G36*
G01*
X179450000Y-104950000D02*
X179450000Y-105950000D01*
G75*
G02*
X179400000Y-106000000I-50000J0D01*
G01*
X178000000Y-106000000D01*
G75*
G02*
X177950000Y-105950000I0J50000D01*
G01*
X177950000Y-104950000D01*
G75*
G02*
X178000000Y-104900000I50000J0D01*
G01*
X179400000Y-104900000D01*
G75*
G02*
X179450000Y-104950000I0J-50000D01*
G01*
G37*
G36*
G01*
X179450000Y-103550000D02*
X179450000Y-104550000D01*
G75*
G02*
X179400000Y-104600000I-50000J0D01*
G01*
X178000000Y-104600000D01*
G75*
G02*
X177950000Y-104550000I0J50000D01*
G01*
X177950000Y-103550000D01*
G75*
G02*
X178000000Y-103500000I50000J0D01*
G01*
X179400000Y-103500000D01*
G75*
G02*
X179450000Y-103550000I0J-50000D01*
G01*
G37*
G36*
G01*
X174050000Y-85950000D02*
X174050000Y-86950000D01*
G75*
G02*
X174000000Y-87000000I-50000J0D01*
G01*
X172600000Y-87000000D01*
G75*
G02*
X172550000Y-86950000I0J50000D01*
G01*
X172550000Y-85950000D01*
G75*
G02*
X172600000Y-85900000I50000J0D01*
G01*
X174000000Y-85900000D01*
G75*
G02*
X174050000Y-85950000I0J-50000D01*
G01*
G37*
G36*
G01*
X174050000Y-84550000D02*
X174050000Y-85550000D01*
G75*
G02*
X174000000Y-85600000I-50000J0D01*
G01*
X172600000Y-85600000D01*
G75*
G02*
X172550000Y-85550000I0J50000D01*
G01*
X172550000Y-84550000D01*
G75*
G02*
X172600000Y-84500000I50000J0D01*
G01*
X174000000Y-84500000D01*
G75*
G02*
X174050000Y-84550000I0J-50000D01*
G01*
G37*
G36*
G01*
X179450000Y-85950000D02*
X179450000Y-86950000D01*
G75*
G02*
X179400000Y-87000000I-50000J0D01*
G01*
X178000000Y-87000000D01*
G75*
G02*
X177950000Y-86950000I0J50000D01*
G01*
X177950000Y-85950000D01*
G75*
G02*
X178000000Y-85900000I50000J0D01*
G01*
X179400000Y-85900000D01*
G75*
G02*
X179450000Y-85950000I0J-50000D01*
G01*
G37*
G36*
G01*
X179450000Y-84550000D02*
X179450000Y-85550000D01*
G75*
G02*
X179400000Y-85600000I-50000J0D01*
G01*
X178000000Y-85600000D01*
G75*
G02*
X177950000Y-85550000I0J50000D01*
G01*
X177950000Y-84550000D01*
G75*
G02*
X178000000Y-84500000I50000J0D01*
G01*
X179400000Y-84500000D01*
G75*
G02*
X179450000Y-84550000I0J-50000D01*
G01*
G37*
G36*
G01*
X174050000Y-66950000D02*
X174050000Y-67950000D01*
G75*
G02*
X174000000Y-68000000I-50000J0D01*
G01*
X172600000Y-68000000D01*
G75*
G02*
X172550000Y-67950000I0J50000D01*
G01*
X172550000Y-66950000D01*
G75*
G02*
X172600000Y-66900000I50000J0D01*
G01*
X174000000Y-66900000D01*
G75*
G02*
X174050000Y-66950000I0J-50000D01*
G01*
G37*
G36*
G01*
X174050000Y-65550000D02*
X174050000Y-66550000D01*
G75*
G02*
X174000000Y-66600000I-50000J0D01*
G01*
X172600000Y-66600000D01*
G75*
G02*
X172550000Y-66550000I0J50000D01*
G01*
X172550000Y-65550000D01*
G75*
G02*
X172600000Y-65500000I50000J0D01*
G01*
X174000000Y-65500000D01*
G75*
G02*
X174050000Y-65550000I0J-50000D01*
G01*
G37*
G36*
G01*
X179450000Y-66950000D02*
X179450000Y-67950000D01*
G75*
G02*
X179400000Y-68000000I-50000J0D01*
G01*
X178000000Y-68000000D01*
G75*
G02*
X177950000Y-67950000I0J50000D01*
G01*
X177950000Y-66950000D01*
G75*
G02*
X178000000Y-66900000I50000J0D01*
G01*
X179400000Y-66900000D01*
G75*
G02*
X179450000Y-66950000I0J-50000D01*
G01*
G37*
G36*
G01*
X179450000Y-65550000D02*
X179450000Y-66550000D01*
G75*
G02*
X179400000Y-66600000I-50000J0D01*
G01*
X178000000Y-66600000D01*
G75*
G02*
X177950000Y-66550000I0J50000D01*
G01*
X177950000Y-65550000D01*
G75*
G02*
X178000000Y-65500000I50000J0D01*
G01*
X179400000Y-65500000D01*
G75*
G02*
X179450000Y-65550000I0J-50000D01*
G01*
G37*
G36*
G01*
X174050000Y-47950000D02*
X174050000Y-48950000D01*
G75*
G02*
X174000000Y-49000000I-50000J0D01*
G01*
X172600000Y-49000000D01*
G75*
G02*
X172550000Y-48950000I0J50000D01*
G01*
X172550000Y-47950000D01*
G75*
G02*
X172600000Y-47900000I50000J0D01*
G01*
X174000000Y-47900000D01*
G75*
G02*
X174050000Y-47950000I0J-50000D01*
G01*
G37*
G36*
G01*
X174050000Y-46550000D02*
X174050000Y-47550000D01*
G75*
G02*
X174000000Y-47600000I-50000J0D01*
G01*
X172600000Y-47600000D01*
G75*
G02*
X172550000Y-47550000I0J50000D01*
G01*
X172550000Y-46550000D01*
G75*
G02*
X172600000Y-46500000I50000J0D01*
G01*
X174000000Y-46500000D01*
G75*
G02*
X174050000Y-46550000I0J-50000D01*
G01*
G37*
G36*
G01*
X179450000Y-47950000D02*
X179450000Y-48950000D01*
G75*
G02*
X179400000Y-49000000I-50000J0D01*
G01*
X178000000Y-49000000D01*
G75*
G02*
X177950000Y-48950000I0J50000D01*
G01*
X177950000Y-47950000D01*
G75*
G02*
X178000000Y-47900000I50000J0D01*
G01*
X179400000Y-47900000D01*
G75*
G02*
X179450000Y-47950000I0J-50000D01*
G01*
G37*
G36*
G01*
X179450000Y-46550000D02*
X179450000Y-47550000D01*
G75*
G02*
X179400000Y-47600000I-50000J0D01*
G01*
X178000000Y-47600000D01*
G75*
G02*
X177950000Y-47550000I0J50000D01*
G01*
X177950000Y-46550000D01*
G75*
G02*
X178000000Y-46500000I50000J0D01*
G01*
X179400000Y-46500000D01*
G75*
G02*
X179450000Y-46550000I0J-50000D01*
G01*
G37*
G36*
G01*
X193050000Y-88325000D02*
X193050000Y-89325000D01*
G75*
G02*
X193000000Y-89375000I-50000J0D01*
G01*
X191600000Y-89375000D01*
G75*
G02*
X191550000Y-89325000I0J50000D01*
G01*
X191550000Y-88325000D01*
G75*
G02*
X191600000Y-88275000I50000J0D01*
G01*
X193000000Y-88275000D01*
G75*
G02*
X193050000Y-88325000I0J-50000D01*
G01*
G37*
G36*
G01*
X193050000Y-86925000D02*
X193050000Y-87925000D01*
G75*
G02*
X193000000Y-87975000I-50000J0D01*
G01*
X191600000Y-87975000D01*
G75*
G02*
X191550000Y-87925000I0J50000D01*
G01*
X191550000Y-86925000D01*
G75*
G02*
X191600000Y-86875000I50000J0D01*
G01*
X193000000Y-86875000D01*
G75*
G02*
X193050000Y-86925000I0J-50000D01*
G01*
G37*
G36*
G01*
X198450000Y-88325000D02*
X198450000Y-89325000D01*
G75*
G02*
X198400000Y-89375000I-50000J0D01*
G01*
X197000000Y-89375000D01*
G75*
G02*
X196950000Y-89325000I0J50000D01*
G01*
X196950000Y-88325000D01*
G75*
G02*
X197000000Y-88275000I50000J0D01*
G01*
X198400000Y-88275000D01*
G75*
G02*
X198450000Y-88325000I0J-50000D01*
G01*
G37*
G36*
G01*
X198450000Y-86925000D02*
X198450000Y-87925000D01*
G75*
G02*
X198400000Y-87975000I-50000J0D01*
G01*
X197000000Y-87975000D01*
G75*
G02*
X196950000Y-87925000I0J50000D01*
G01*
X196950000Y-86925000D01*
G75*
G02*
X197000000Y-86875000I50000J0D01*
G01*
X198400000Y-86875000D01*
G75*
G02*
X198450000Y-86925000I0J-50000D01*
G01*
G37*
G36*
G01*
X193050000Y-69325000D02*
X193050000Y-70325000D01*
G75*
G02*
X193000000Y-70375000I-50000J0D01*
G01*
X191600000Y-70375000D01*
G75*
G02*
X191550000Y-70325000I0J50000D01*
G01*
X191550000Y-69325000D01*
G75*
G02*
X191600000Y-69275000I50000J0D01*
G01*
X193000000Y-69275000D01*
G75*
G02*
X193050000Y-69325000I0J-50000D01*
G01*
G37*
G36*
G01*
X193050000Y-67925000D02*
X193050000Y-68925000D01*
G75*
G02*
X193000000Y-68975000I-50000J0D01*
G01*
X191600000Y-68975000D01*
G75*
G02*
X191550000Y-68925000I0J50000D01*
G01*
X191550000Y-67925000D01*
G75*
G02*
X191600000Y-67875000I50000J0D01*
G01*
X193000000Y-67875000D01*
G75*
G02*
X193050000Y-67925000I0J-50000D01*
G01*
G37*
G36*
G01*
X198450000Y-69325000D02*
X198450000Y-70325000D01*
G75*
G02*
X198400000Y-70375000I-50000J0D01*
G01*
X197000000Y-70375000D01*
G75*
G02*
X196950000Y-70325000I0J50000D01*
G01*
X196950000Y-69325000D01*
G75*
G02*
X197000000Y-69275000I50000J0D01*
G01*
X198400000Y-69275000D01*
G75*
G02*
X198450000Y-69325000I0J-50000D01*
G01*
G37*
G36*
G01*
X198450000Y-67925000D02*
X198450000Y-68925000D01*
G75*
G02*
X198400000Y-68975000I-50000J0D01*
G01*
X197000000Y-68975000D01*
G75*
G02*
X196950000Y-68925000I0J50000D01*
G01*
X196950000Y-67925000D01*
G75*
G02*
X197000000Y-67875000I50000J0D01*
G01*
X198400000Y-67875000D01*
G75*
G02*
X198450000Y-67925000I0J-50000D01*
G01*
G37*
G36*
G01*
X193050000Y-50325000D02*
X193050000Y-51325000D01*
G75*
G02*
X193000000Y-51375000I-50000J0D01*
G01*
X191600000Y-51375000D01*
G75*
G02*
X191550000Y-51325000I0J50000D01*
G01*
X191550000Y-50325000D01*
G75*
G02*
X191600000Y-50275000I50000J0D01*
G01*
X193000000Y-50275000D01*
G75*
G02*
X193050000Y-50325000I0J-50000D01*
G01*
G37*
G36*
G01*
X193050000Y-48925000D02*
X193050000Y-49925000D01*
G75*
G02*
X193000000Y-49975000I-50000J0D01*
G01*
X191600000Y-49975000D01*
G75*
G02*
X191550000Y-49925000I0J50000D01*
G01*
X191550000Y-48925000D01*
G75*
G02*
X191600000Y-48875000I50000J0D01*
G01*
X193000000Y-48875000D01*
G75*
G02*
X193050000Y-48925000I0J-50000D01*
G01*
G37*
G36*
G01*
X198450000Y-50325000D02*
X198450000Y-51325000D01*
G75*
G02*
X198400000Y-51375000I-50000J0D01*
G01*
X197000000Y-51375000D01*
G75*
G02*
X196950000Y-51325000I0J50000D01*
G01*
X196950000Y-50325000D01*
G75*
G02*
X197000000Y-50275000I50000J0D01*
G01*
X198400000Y-50275000D01*
G75*
G02*
X198450000Y-50325000I0J-50000D01*
G01*
G37*
G36*
G01*
X198450000Y-48925000D02*
X198450000Y-49925000D01*
G75*
G02*
X198400000Y-49975000I-50000J0D01*
G01*
X197000000Y-49975000D01*
G75*
G02*
X196950000Y-49925000I0J50000D01*
G01*
X196950000Y-48925000D01*
G75*
G02*
X197000000Y-48875000I50000J0D01*
G01*
X198400000Y-48875000D01*
G75*
G02*
X198450000Y-48925000I0J-50000D01*
G01*
G37*
G36*
G01*
X201161826Y-112903750D02*
X202027852Y-113403750D01*
G75*
G02*
X202046153Y-113472051I-25000J-43301D01*
G01*
X201346153Y-114684487D01*
G75*
G02*
X201277852Y-114702788I-43301J25000D01*
G01*
X200411826Y-114202788D01*
G75*
G02*
X200393525Y-114134487I25000J43301D01*
G01*
X201093525Y-112922051D01*
G75*
G02*
X201161826Y-112903750I43301J-25000D01*
G01*
G37*
G36*
G01*
X199949390Y-112203750D02*
X200815416Y-112703750D01*
G75*
G02*
X200833717Y-112772051I-25000J-43301D01*
G01*
X200133717Y-113984487D01*
G75*
G02*
X200065416Y-114002788I-43301J25000D01*
G01*
X199199390Y-113502788D01*
G75*
G02*
X199181089Y-113434487I25000J43301D01*
G01*
X199881089Y-112222051D01*
G75*
G02*
X199949390Y-112203750I43301J-25000D01*
G01*
G37*
G36*
G01*
X203861826Y-108227212D02*
X204727852Y-108727212D01*
G75*
G02*
X204746153Y-108795513I-25000J-43301D01*
G01*
X204046153Y-110007949D01*
G75*
G02*
X203977852Y-110026250I-43301J25000D01*
G01*
X203111826Y-109526250D01*
G75*
G02*
X203093525Y-109457949I25000J43301D01*
G01*
X203793525Y-108245513D01*
G75*
G02*
X203861826Y-108227212I43301J-25000D01*
G01*
G37*
G36*
G01*
X202649390Y-107527212D02*
X203515416Y-108027212D01*
G75*
G02*
X203533717Y-108095513I-25000J-43301D01*
G01*
X202833717Y-109307949D01*
G75*
G02*
X202765416Y-109326250I-43301J25000D01*
G01*
X201899390Y-108826250D01*
G75*
G02*
X201881089Y-108757949I25000J43301D01*
G01*
X202581089Y-107545513D01*
G75*
G02*
X202649390Y-107527212I43301J-25000D01*
G01*
G37*
G36*
G01*
X217616308Y-122403750D02*
X218482334Y-122903750D01*
G75*
G02*
X218500635Y-122972051I-25000J-43301D01*
G01*
X217800635Y-124184487D01*
G75*
G02*
X217732334Y-124202788I-43301J25000D01*
G01*
X216866308Y-123702788D01*
G75*
G02*
X216848007Y-123634487I25000J43301D01*
G01*
X217548007Y-122422051D01*
G75*
G02*
X217616308Y-122403750I43301J-25000D01*
G01*
G37*
G36*
G01*
X216403872Y-121703750D02*
X217269898Y-122203750D01*
G75*
G02*
X217288199Y-122272051I-25000J-43301D01*
G01*
X216588199Y-123484487D01*
G75*
G02*
X216519898Y-123502788I-43301J25000D01*
G01*
X215653872Y-123002788D01*
G75*
G02*
X215635571Y-122934487I25000J43301D01*
G01*
X216335571Y-121722051D01*
G75*
G02*
X216403872Y-121703750I43301J-25000D01*
G01*
G37*
G36*
G01*
X220316308Y-117727212D02*
X221182334Y-118227212D01*
G75*
G02*
X221200635Y-118295513I-25000J-43301D01*
G01*
X220500635Y-119507949D01*
G75*
G02*
X220432334Y-119526250I-43301J25000D01*
G01*
X219566308Y-119026250D01*
G75*
G02*
X219548007Y-118957949I25000J43301D01*
G01*
X220248007Y-117745513D01*
G75*
G02*
X220316308Y-117727212I43301J-25000D01*
G01*
G37*
G36*
G01*
X219103872Y-117027212D02*
X219969898Y-117527212D01*
G75*
G02*
X219988199Y-117595513I-25000J-43301D01*
G01*
X219288199Y-118807949D01*
G75*
G02*
X219219898Y-118826250I-43301J25000D01*
G01*
X218353872Y-118326250D01*
G75*
G02*
X218335571Y-118257949I25000J43301D01*
G01*
X219035571Y-117045513D01*
G75*
G02*
X219103872Y-117027212I43301J-25000D01*
G01*
G37*
M02*
